<svg xmlns="http://www.w3.org/2000/svg" viewBox="0 0 24 24">
  <path d="M16.32 1a3 3 0 012.63 1.55l4.4 8c.5.9.5 2 0 2.9l-4.4 8A3 3 0 0116.32 23H7.68a3 3 0 01-2.63-1.55l-4.4-8a3 3 0 010-2.9l4.4-8A3 3 0 017.68 1zm0 2H7.68a1 1 0 00-.87.52l-4.4 8a1 1 0 000 .96l4.4 8a1 1 0 00.87.52h8.64a1 1 0 00.87-.52l4.4-8a1 1 0 000-.96l-4.4-8a1 1 0 00-.87-.52zm.24 11.44a1.5 1.5 0 11-2.12 2.12 1.5 1.5 0 012.12-2.12zm.15-7.15a1 1 0 01.08 1.32l-.08.1-8 8a1 1 0 01-1.5-1.32l.08-.1 8-8a1 1 0 011.42 0zm-7.15.15a1.5 1.5 0 11-2.12 2.12 1.5 1.5 0 012.12-2.12z"/>
</svg>
