<svg xmlns="http://www.w3.org/2000/svg" viewBox="0 0 24 24">
  <path d="M16.32 1a3 3 0 012.63 1.55l4.4 8c.5.9.5 2 0 2.9l-4.4 8A3 3 0 0116.32 23H7.68a3 3 0 01-2.63-1.55l-4.4-8a3 3 0 010-2.9l4.4-8A3 3 0 017.68 1zm0 2H7.68a1 1 0 00-.87.52l-4.4 8a1 1 0 000 .96l4.4 8a1 1 0 00.87.52h8.64a1 1 0 00.87-.52l4.4-8a1 1 0 000-.96l-4.4-8a1 1 0 00-.87-.52zm-3.88 3.36c.2.1.36.26.46.46l1.16 2.35 2.6.38a1 1 0 01.55 1.7l-1.88 1.83.44 2.59a1 1 0 01-1.45 1.05L12 15.5l-2.32 1.22a1 1 0 01-1.45-1.05l.44-2.59-1.88-1.83a1 1 0 01.56-1.7l2.6-.38 1.15-2.35a1 1 0 011.34-.46z"/>
</svg>
