<svg xmlns="http://www.w3.org/2000/svg" viewBox="0 0 24 24">
  <path d="M6 4v1.12a1 1 0 002 0V4h8v1.12a1 1 0 002 0V4h2a2 2 0 012 1.85V19a3 3 0 01-2.82 3H5a3 3 0 01-3-2.82V6c0-1.1.9-2 2-2h2zm14 4H4v11a1 1 0 00.77.97l.11.02L5 20h14a1 1 0 001-.88V8zm-7.78 2.68c.1.05.18.13.23.23l.87 1.77 1.96.28a.5.5 0 01.27.86l-1.41 1.38.33 1.94a.5.5 0 01-.72.53L12 16.75l-1.75.92a.5.5 0 01-.72-.53l.33-1.94-1.41-1.38a.5.5 0 01.27-.86l1.96-.28.87-1.77a.5.5 0 01.67-.23zM17 2a1 1 0 011 .88V4h-2V3a1 1 0 011-1zM7 2a1 1 0 011 .88V4H6V3a1 1 0 011-1z"/>
</svg>
