<svg xmlns="http://www.w3.org/2000/svg" viewBox="0 0 24 24">
  <path d="M16.32 1a3 3 0 012.63 1.55l4.4 8c.5.9.5 2 0 2.9l-4.4 8A3 3 0 0116.32 23H7.68a3 3 0 01-2.63-1.55l-4.4-8a3 3 0 010-2.9l4.4-8A3 3 0 017.68 1zm0 2H7.68a1 1 0 00-.87.52l-4.4 8a1 1 0 000 .96l4.4 8a1 1 0 00.87.52h8.64a1 1 0 00.87-.52l4.4-8a1 1 0 000-.96l-4.4-8a1 1 0 00-.87-.52zm-4.97 3.24l.02-.01.05-.04a1.04 1.04 0 01.21-.12l.06-.02a1.07 1.07 0 01.25-.05h.14l.07.01a1.09 1.09 0 01.12.03l.04.01.06.02.05.02.06.03a.91.91 0 01.15.1l.08.07 3.65 3.66a1 1 0 01-1.32 1.5l-.09-.09L13 9.41V17a1 1 0 01-2 .12V9.4l-1.95 1.95a1 1 0 01-1.5-1.32l.09-.09 3.65-3.66.06-.05z"/>
</svg>
