<svg xmlns="http://www.w3.org/2000/svg" viewBox="0 0 24 24">
  <path d="M12 1c3.52 0 6.37.71 8.55 2.17A1 1 0 0121 4v8.91a9.23 9.23 0 01-4.97 8.2l-3.58 1.78a1 1 0 01-.9 0L7.97 21.1A9.23 9.23 0 013 12.9V4a1 1 0 01.45-.83C5.63 1.7 8.48 1 12 1zm0 2c-2.85 0-5.15.5-6.9 1.5l-.1.05v8.36c0 2.6 1.43 5.07 3.64 6.28l.23.13L12 20.88l3.13-1.56A7.22 7.22 0 0019 13.18l.01-.27V4.56l-.1-.06c-1.66-.94-3.81-1.45-6.45-1.5zm0 12a1 1 0 110 2 1 1 0 010-2zm.1-8c1.7 0 3 1.3 3 3 0 1.4-.9 2-1.5 2.4-.45.27-.58.38-.6.55V14h-2v-1c0-1.3.9-1.9 1.5-2.3.5-.3.6-.5.6-.8 0-.6-.4-.9-1-.9a1 1 0 00-.82.4l-.08.1-.02.04a.96.96 0 01-1.22.41l-.11-.05a1 1 0 01-.43-1.24l.05-.11.03-.05C10 7.6 11 7 12.1 7z"/>
</svg>
