<svg xmlns="http://www.w3.org/2000/svg" viewBox="0 0 24 24">
  <path d="M15 3c4.55 0 8 3.45 8 8s-3.45 8-8 8h-.5l-.08.1a8.85 8.85 0 01-2.53 2.16l-.3.16-.35.2-.33.16A2 2 0 018 20v-1c-3.73 0-7-3.64-7-8 0-4.46 3.5-8 8-8zm0 2H9c-3.4 0-6 2.64-6 6 0 3.3 2.43 6 5 6h1a1 1 0 011 1v2l.31-.16.34-.18a7.16 7.16 0 002.54-2.25A1 1 0 0114 17h1c3.45 0 6-2.55 6-6s-2.55-6-6-6zm-2.78 2.18c.1.05.18.13.23.23l.87 1.77 1.96.28a.5.5 0 01.27.86l-1.41 1.38.33 1.94a.5.5 0 01-.72.53L12 13.25l-1.75.92a.5.5 0 01-.72-.53l.33-1.94-1.41-1.38a.5.5 0 01.27-.86l1.96-.28.87-1.77a.5.5 0 01.67-.23z"/>
</svg>
