<svg xmlns="http://www.w3.org/2000/svg" viewBox="0 0 24 24">
  <path d="M12 1a11 11 0 018.8 17.6l.06-.08c.03-.05.04-.04.05.02l.04.11a5 5 0 00.34.75 9.8 9.8 0 001.42 1.9 1 1 0 01-.59 1.7 9.26 9.26 0 01-4.91-.58l-.96-.43-.21.08c-1.33.57-2.5.88-3.7.92L12 23a11 11 0 010-22zM6.22 11.38l-.03.04a1.04 1.04 0 00-.19.49v.16-.01.02l.01.07a1.09 1.09 0 00.06.22l.02.05a1.02 1.02 0 00.13.2l.07.09 3.66 3.65a1 1 0 001.5-1.32l-.09-.09L9.41 13H17a1 1 0 00.12-2H9.4l1.95-1.95a1 1 0 00-1.32-1.5l-.09.09-3.66 3.65-.05.06-.02.02.02-.02-.02.02z"/>
</svg>
