<svg xmlns="http://www.w3.org/2000/svg" viewBox="0 0 24 24">
  <path d="M13.75 9.34a1 1 0 011.58 1.22l-.08.1-3.53 4a1 1 0 01-1.4.1l-.1-.1L8.75 13a1 1 0 011.41-1.4l.09.08.72.82 2.78-3.15z"/>
  <path d="M20 4H4a3 3 0 00-3 3v3a1 1 0 001 1h1.11A1 1 0 014 12v.11A1 1 0 013 13H2a1 1 0 00-1 1v3a3 3 0 003 3h16a3 3 0 003-3v-3a1 1 0 00-1-1h-1.11a1 1 0 01-.89-1v-.11a1 1 0 011-.89h1a1 1 0 001-1V7a3 3 0 00-3-3zM4 6h16a1 1 0 011 1v2a3 3 0 00-3 2.78v.18A3 3 0 0020.78 15H21v2a1 1 0 01-1 1H3.88A1 1 0 013 17v-2a3 3 0 003-2.78v-.18A3 3 0 003.22 9H3V7a1 1 0 011-1z"/>
</svg>
