<svg xmlns="http://www.w3.org/2000/svg" viewBox="0 0 24 24">
  <path d="M20 4a3 3 0 013 3v3a1 1 0 01-1 1h-1a1 1 0 00-1 .89V12c0 .52.4.96.89 1H22a1 1 0 011 1v3a3 3 0 01-3 3H4a3 3 0 01-3-3v-3a1 1 0 011-1h1a1 1 0 001-.89V12a1 1 0 00-.89-1H2a1 1 0 01-1-1V7a3 3 0 013-3zm0 2H4a1 1 0 00-1 1v2h.22A3 3 0 016 12.05v.18A3 3 0 013 15v2a1 1 0 00.88 1H20a1 1 0 001-1v-2h-.22A3 3 0 0118 11.95v-.18A3 3 0 0121 9V7a1 1 0 00-1-1zm-8 8a1 1 0 110 2 1 1 0 010-2zm0-6c.55 0 1.16.16 1.64.53.5.37.86.96.86 1.72a2.03 2.03 0 01-1.02 1.81l-.31.2-.27.16a.96.96 0 00-.28.25.75.75 0 01-1.24-.84c.2-.3.47-.5.69-.66l.31-.2c.1-.06.19-.1.27-.16.15-.1.23-.17.27-.24a.54.54 0 00.08-.32c0-.24-.1-.4-.26-.53A1.26 1.26 0 0012 9.5c-.37 0-.6.09-.74.19a1 1 0 00-.34.4.75.75 0 01-1.34-.68c.17-.33.43-.7.85-.97.42-.28.94-.44 1.57-.44z"/>
</svg>
