<svg xmlns="http://www.w3.org/2000/svg" viewBox="0 0 24 24">
  <path d="M9.37 3.7a3 3 0 015.26 0l7.62 13.85A3 3 0 0119.62 22H4.38a3 3 0 01-2.63-4.45zm3 .52a1 1 0 00-1.25.45L3.51 18.52A1 1 0 004.38 20h15.24a1 1 0 00.87-1.48L12.88 4.67a1 1 0 00-.4-.4zM12 16a1 1 0 110 2 1 1 0 010-2zm0-6c.55 0 1.16.16 1.64.53.5.37.86.96.86 1.72a2.03 2.03 0 01-1.02 1.81l-.31.2-.27.16a.96.96 0 00-.28.25.75.75 0 01-1.24-.84c.2-.3.47-.5.69-.66l.31-.2c.1-.06.19-.1.27-.16.15-.1.23-.17.27-.24a.54.54 0 00.08-.32c0-.24-.1-.4-.26-.53a1.26 1.26 0 00-.74-.22c-.37 0-.6.09-.74.19a1 1 0 00-.34.4.75.75 0 01-1.34-.68c.17-.33.43-.7.85-.97.42-.28.94-.44 1.57-.44z"/>
</svg>
