<svg viewBox="0 0 24 24">
  <path d="M15.3 13.3a1 1 0 011.4 0l4 4a1 1 0 01.08.07v.01l.02.02a1.03 1.03 0 01.2.6v-.09a1 1 0 010 .06V18a1.02 1.02 0 01-.15.52v.02l-.04.05a1 1 0 01-.1.12l.08-.1-.01.02-.07.08-4 4-.1.08a1 1 0 01-1.32-1.5l2.3-2.3L4 19h-.12A1 1 0 014 17h13.58l-2.29-2.3-.08-.09a1 1 0 01.08-1.32zm0-12a1 1 0 011.4 0l4 4a1 1 0 01.08.07v.01l.02.02a1.03 1.03 0 01.2.6v-.09a1 1 0 010 .06V6a1.02 1.02 0 01-.15.52v.02l-.04.05a1 1 0 01-.1.12l.08-.1-.01.02-.07.08-4 4-.1.08a1 1 0 01-1.32-1.5L17.6 7H3.88A1 1 0 014 5h13.58L15.3 2.7l-.08-.09a1 1 0 01.08-1.32z"/>
</svg>
