<svg viewBox="0 0 24 24">
  <path d="M22 10v10a2 2 0 01-2 2H4a2 2 0 01-2-2V10h20zm-6.22 5.38l-.01-.02v.01l-.06-.08-3-3-.1-.08a1 1 0 00-1.32 1.5L12.6 15H8.88A1 1 0 009 17h3.59l-1.3 1.3-.08.09a1 1 0 001.5 1.32l3-3 .07-.08a3 3 0 00.1-.15l.03-.06.02-.05a.95.95 0 00.06-.22v-.13L16 16v-.09l-.01-.06a1.1 1.1 0 00-.06-.22l-.02-.05a1.04 1.04 0 00-.03-.06l-.03-.04a1.03 1.03 0 00-.05-.08l-.02-.03zM6 4v1.12a1 1 0 002 0V4h8v1.12a1 1 0 002 0V4h2a2 2 0 012 1.85V8H2V6c0-1.1.9-2 2-2h2zm11-2a1 1 0 011 .88V4h-2V3a1 1 0 011-1zM7 2a1 1 0 011 .88V4H6V3a1 1 0 011-1z"/>
</svg>
