<svg viewBox="0 0 24 24">
  <path d="M22 10v10a2 2 0 01-2 2H4a2 2 0 01-2-2V10h20zm-10 9a1 1 0 100 2 1 1 0 000-2zm.1-8c-1.1 0-2.1.6-2.6 1.5l-.03.05-.05.1a1 1 0 00.42 1.24l.01.01.1.05a.96.96 0 001.23-.41l.02-.04.08-.1a1 1 0 01.82-.4c.6 0 1 .3 1 .9 0 .3-.1.5-.6.8-.6.4-1.5 1-1.5 2.3v1h2v-1.05c.02-.17.15-.28.6-.55.6-.4 1.5-1 1.5-2.4 0-1.7-1.3-3-3-3zM6 4v1.12a1 1 0 002 0V4h8v1.12a1 1 0 002 0V4h2a2 2 0 012 1.85V8H2V6c0-1.1.9-2 2-2h2zm11-2a1 1 0 011 .88V4h-2V3a1 1 0 011-1zM7 2a1 1 0 011 .88V4H6V3a1 1 0 011-1z"/>
</svg>
