<svg viewBox="0 0 24 24">
  <path d="M14 15H4v4h10v-4zm-8 1a1 1 0 110 2 1 1 0 010-2zm6 0a1 1 0 110 2 1 1 0 010-2zm.36-6H5.64a1 1 0 00-.95.69l-.03.11-.44 2.2h9.56l-.44-2.2a1 1 0 00-.75-.77l-.11-.02-.12-.01zM19 10a1 1 0 110 2 1 1 0 010-2zm.1-8c1.7 0 3 1.3 3 3 0 1.4-.9 2-1.5 2.4-.45.27-.58.38-.6.55V9h-2V8c0-1.3.9-1.9 1.5-2.3.5-.3.6-.5.6-.8 0-.6-.4-.9-1-.9a1 1 0 00-.82.4l-.08.1-.02.04a.96.96 0 01-1.22.41l-.11-.05a1 1 0 01-.43-1.24l.05-.11.03-.05C17 2.6 18 2 19.1 2zM2 13.87v.01-.01a1 1 0 01.01-.04v-.03l.69-3.39a3 3 0 012.76-2.4L5.64 8h6.72a3 3 0 012.9 2.24l.04.17.68 3.4v.02l.02.08v.03-.01V21a1 1 0 01-2 0H4a1 1 0 01-2 0v-7.13z"/>
</svg>
