<svg viewBox="0 0 24 24">
  <path d="M14 15H4v4h10v-4zm-8 1a1 1 0 110 2 1 1 0 010-2zm6 0a1 1 0 110 2 1 1 0 010-2zm.36-6H5.64a1 1 0 00-.95.69l-.03.11-.44 2.2h9.56l-.44-2.2a1 1 0 00-.75-.77l-.11-.02-.12-.01zm9.3-6.75a1 1 0 01.17 1.31l-.08.1-3.53 4a1 1 0 01-1.4.1l-.1-.1L15.25 7a1 1 0 011.41-1.4l.09.08.72.82 2.78-3.15a1 1 0 011.41-.09zM2.01 13.87v.01-.01a1 1 0 010-.04v-.03l.69-3.39a3 3 0 012.76-2.4L5.64 8h6.72a3 3 0 012.9 2.24l.04.17.68 3.4v.02l.02.08v.03-.01V21a1 1 0 01-2 0H4a1 1 0 01-2 0v-7.13z"/>
</svg>
