<svg viewBox="0 0 24 24">
  <path fill="none" stroke="#000" stroke-linecap="round" stroke-linejoin="round" stroke-width="2" d="M13 2a1 1 0 011 1v2.29a7 7 0 012.8 1.62l2-1.14a1 1 0 011.36.36l1 1.74a1 1 0 01-.37 1.36l-1.98 1.15a7.02 7.02 0 010 3.24l1.98 1.15a1 1 0 01.37 1.36l-1 1.74a1 1 0 01-1.37.36l-1.98-1.14A7 7 0 0114 18.7V21a1 1 0 01-1 1h-2a1 1 0 01-1-1v-2.29a7 7 0 01-2.8-1.62l-2 1.14a1 1 0 01-1.36-.36l-1-1.74a1 1 0 01.37-1.36l1.98-1.15a7.02 7.02 0 010-3.24L3.2 9.23a1 1 0 01-.37-1.36l1-1.74a1 1 0 011.37-.36L7.19 6.9A7 7 0 0110 5.3V3a1 1 0 011-1h2zm-1 7a3 3 0 100 6 3 3 0 000-6z"/>
</svg>
