<svg viewBox="0 0 24 24">
  <path d="M20.87 13.45a9.03 9.03 0 000-2.9l2.1-2.03a1 1 0 00.17-1.22l-1.5-2.6a1 1 0 00-1.14-.46l-2.8.8a9.02 9.02 0 00-2.53-1.45l-.7-2.83A1 1 0 0013.5 0h-3a1 1 0 00-.97.76l-.7 2.83c-.92.34-1.77.83-2.53 1.45l-2.8-.8a1 1 0 00-1.14.46L.86 7.3a1 1 0 00.17 1.22l2.1 2.03a9.03 9.03 0 000 2.9l-2.1 2.03a1 1 0 00-.17 1.22l1.5 2.6a1 1 0 001.14.46l2.8-.8a8.85 8.85 0 002.53 1.45l.7 2.83a1 1 0 00.97.76h3a1 1 0 00.97-.76l.7-2.83a9.02 9.02 0 002.53-1.45l2.8.8a1 1 0 001.14-.46l1.5-2.6a1 1 0 00-.17-1.22l-2.1-2.03zM12 16a4 4 0 110-8 4 4 0 010 8z"/>
</svg>
