<svg viewBox="0 0 24 24">
  <path d="M13 1a2 2 0 012 2v1.58a8 8 0 011.92 1.11l1.37-.79a2 2 0 012.74.73l1 1.74a2 2 0 01-.74 2.73l-1.37.79a8.07 8.07 0 010 2.22l1.37.8a2 2 0 01.74 2.72l-1 1.74a2 2 0 01-2.74.73l-1.37-.8A8 8 0 0115 19.43V21a2 2 0 01-2 2h-2a2 2 0 01-2-2v-1.58a8 8 0 01-1.92-1.11l-1.37.79a2 2 0 01-2.74-.73l-1-1.74a2 2 0 01.74-2.73l1.37-.79a8.07 8.07 0 010-2.22l-1.37-.8a2 2 0 01-.74-2.72l1-1.74a2 2 0 012.74-.73l1.37.8A8 8 0 019 4.57V3c0-1.1.9-2 2-2h2zm-1 7a4 4 0 100 8 4 4 0 000-8z"/>
</svg>
