<svg viewBox="0 0 24 24">
  <g fill="none" fill-rule="evenodd">
    <path fill="#000" fill-rule="nonzero" d="M12 19a1 1 0 110 2 1 1 0 010-2zm.1-8c1.7 0 3 1.3 3 3 0 1.4-.9 2-1.5 2.4-.5.3-.6.4-.6.6v1h-2v-1c0-1.3.9-1.9 1.5-2.3.5-.3.6-.5.6-.8 0-.6-.4-.9-1-.9-.4 0-.7.2-.9.5l-.02.04a.96.96 0 01-1.33.36 1 1 0 01-.38-1.35l.03-.05c.5-.9 1.5-1.5 2.6-1.5z"/>
    <path stroke="#000" stroke-width="2" d="M11 2H6a1 1 0 00-1 1v18a1 1 0 001 1h12a1 1 0 001-1V10h-6a2 2 0 01-2-2V2zM5 2h6v6.12A2 2 0 0013 10h6v12H5V2zm12.59 4l1.7 1.7L20 6h-2.41zm-2.6-2.59L15 1l-1.7.7L15 3.42z"/>
  </g>
</svg>
