<svg viewBox="0 0 24 24">
  <path d="M11 4a1 1 0 01.7.3L13.42 6H19a3 3 0 013 2.82V17a3 3 0 01-3 3H5a3 3 0 01-3-3V7a3 3 0 013-3zm-.41 2H5a1 1 0 00-1 1v10a1 1 0 001 1h14a1 1 0 001-1V9a1 1 0 00-1-1h-6a1 1 0 01-.7-.3L10.58 6zM12 9a1 1 0 011 1v3.59l1.3-1.3.09-.08a1 1 0 011.32 1.5l-3 3-.08.07a3 3 0 01-.15.1l-.06.03-.05.02a.95.95 0 01-.22.06h-.13L12 17h-.09l-.06-.01a1.1 1.1 0 01-.22-.06l-.05-.02a1.04 1.04 0 01-.06-.03l-.04-.03a1.03 1.03 0 01-.08-.05l-.02-.02-.02-.01-.01-.01-.06-.05-3-3-.08-.1a1 1 0 011.5-1.32L11 13.6V9.88A1 1 0 0112 9z"/>
</svg>
