<svg viewBox="0 0 24 24">
  <path d="M6 16h.12A1 1 0 017 17a3 3 0 002.82 3h4.36a3 3 0 002.81-2.82L17 17v-.12a1 1 0 01.88-.87L18 16h4v4a2 2 0 01-2 2H4a2 2 0 01-2-2v-4h4zM20 2a2 2 0 012 2v10h-4.18A3 3 0 0015 17a1 1 0 01-.88 1H9.88a1 1 0 01-.87-.88L9 17v-.18a3 3 0 00-2.82-2.81L6 14H2V4c0-1.1.9-2 2-2h16zm-4.22 6.38l-.01-.02v.01l-.06-.08-3-3-.1-.08a1 1 0 00-1.32 1.5L12.6 8H8.88A1 1 0 009 10h3.59l-1.3 1.3-.08.09a1 1 0 001.5 1.32l3-3 .07-.08a3 3 0 00.1-.15l.03-.06.02-.05a.95.95 0 00.06-.22v-.09.01-.05L16 9v-.09l-.01-.06a1.1 1.1 0 00-.06-.22l-.02-.05a1.04 1.04 0 00-.03-.06l-.03-.04a1.03 1.03 0 00-.05-.08l-.02-.03z"/>
</svg>
