<svg viewBox="0 0 24 24">
  <path d="M6 16h.12A1 1 0 017 17a3 3 0 002.82 3h4.36a3 3 0 002.81-2.82L17 17v-.12a1 1 0 01.88-.87L18 16h4v4a2 2 0 01-2 2H4a2 2 0 01-2-2v-4h4zM20 2a2 2 0 012 2v10h-4.18A3 3 0 0015 17a1 1 0 01-.88 1H9.88a1 1 0 01-.87-.88L9 17v-.18a3 3 0 00-2.82-2.81L6 14H2V4c0-1.1.9-2 2-2h16zm-8 3a1 1 0 00-1 .88V9.6L9.7 8.3a1 1 0 00-1.49 1.32l.08.1 3 3 .06.05.02.02h.01l.02.02.08.05.04.03.06.03.05.02a.99.99 0 00.22.06h.09l.04.01h.1l.07-.01a1.08 1.08 0 00.22-.06l.05-.02a1.02 1.02 0 00.2-.13l.09-.07 3-3a1 1 0 00-1.32-1.5l-.1.08L13 9.6V6a1 1 0 00-1-1z"/>
</svg>
