<svg viewBox="0 0 24 24">
  <path d="M19 10a1 1 0 110 2 1 1 0 010-2zm.1-8c1.7 0 3 1.3 3 3 0 1.4-.9 2-1.5 2.4-.5.3-.6.4-.6.6v1h-2V8c0-1.3.9-1.9 1.5-2.3.5-.3.6-.5.6-.8 0-.6-.4-.9-1-.9-.4 0-.7.2-.9.5l-.02.04a.96.96 0 01-1.33.36 1 1 0 01-.38-1.35l.03-.05C17 2.6 18 2 19.1 2zm-7.32 14c3.26 0 6.07 1.6 6.21 3.6l.01.15v.75c0 .78-.71 1.43-1.62 1.5H3.78c-.93 0-1.7-.6-1.77-1.37L2 20.5v-.75c0-2.02 2.73-3.66 5.97-3.75h3.81zm-3.53 2h-.23c-2.25.06-3.9 1.04-4.01 1.68l-.01.07V20h12v-.27c-.05-.67-1.74-1.66-3.98-1.73H8.25zM10 6a4 4 0 01.2 8H10a4 4 0 01-.2-8h.2zm0 2a2 2 0 100 4 2 2 0 000-4z"/>
</svg>
