<svg viewBox="0 0 24 24">
  <path d="M17.61 3.21l.1.08L19 4.6l1.3-1.3a1 1 0 011.49 1.32l-.08.1L20.4 6l1.3 1.3a1 1 0 01-1.32 1.49l-.1-.08L19 7.4l-1.3 1.3a1 1 0 01-1.49-1.32l.08-.1L17.6 6l-1.3-1.3a1 1 0 011.32-1.49zM11.78 16c3.26 0 6.07 1.6 6.21 3.6l.01.15v.75c0 .78-.71 1.43-1.62 1.5H3.78c-.93 0-1.7-.6-1.77-1.37L2 20.5v-.75c0-2.02 2.73-3.66 5.97-3.75h3.81zm-3.53 2h-.23c-2.25.06-3.9 1.04-4.01 1.68l-.01.07V20h12v-.27c-.05-.67-1.74-1.66-3.98-1.73H8.25zM10 6a4 4 0 01.2 8H10a4 4 0 01-.2-8h.2zm0 2a2 2 0 100 4 2 2 0 000-4z"/>
</svg>
