<svg viewBox="0 0 24 24">
  <path d="M4.54 2.73l-.7.7-.47.46c-2.88 2.88-1 8.84 3.46 13.3 4.46 4.45 10.41 6.33 13.31 3.43l.43-.42.73-.74a2.7 2.7 0 00-.01-3.68l-.18-.17a33.72 33.72 0 00-3.14-2.44 2 2 0 00-2.43.06l-.11.1-.25.24-1.06 1.05-.39-.13a7.9 7.9 0 01-2.42-1.79 7.91 7.91 0 01-1.78-2.42l-.11-.3c-.03-.07-.03-.08-.02-.08l1.02-1.05c.18-.18.32-.33.36-.39a2 2 0 00.07-2.42l-.42-.57c-1-1.38-1.71-2.27-2.19-2.74-1-1-2.75-.95-3.7 0zm1.4 1.42c.18-.18.68-.22.9 0 .42.42 1.22 1.44 2.38 3.06l-.3.32-.94.95c-1.3 1.3-.2 3.52 1.92 5.64 2.1 2.1 4.32 3.22 5.63 1.91l1.18-1.16.09-.08.97.7c1.1.81 1.77 1.35 2.08 1.68.24.25.2.7 0 .92l-.32.33-.8.79c-1.82 1.82-6.61.44-10.48-3.44C4.37 11.89 2.99 7.1 4.8 5.3l.83-.84.31-.31z"/>
</svg>
