<svg viewBox="0 0 24 24">
  <path d="M19 1a2 2 0 012 2v18.6a.5.5 0 01-.89.32L18.4 19.8a.5.5 0 00-.78 0l-2.22 2.72a.5.5 0 01-.78 0L12.4 19.8a.5.5 0 00-.78 0L9.4 22.53a.5.5 0 01-.78 0L6.4 19.8a.5.5 0 00-.78 0L3.9 21.9a.5.5 0 01-.9-.3V3c0-1.1.9-2 2-2h14zM6.5 14a1.5 1.5 0 100 3 1.5 1.5 0 000-3zm11.5.5h-7.12a1 1 0 00.12 2h7.12a1 1 0 00-.12-2zM6.5 9a1.5 1.5 0 100 3 1.5 1.5 0 000-3zm11.5.5h-7.12a1 1 0 00.12 2h7.12a1 1 0 00-.12-2zM6.5 4a1.5 1.5 0 100 3 1.5 1.5 0 000-3zm11.5.5h-7.12a1 1 0 00.12 2h7.12a1 1 0 00-.12-2z"/>
</svg>
