<svg viewBox="0 0 24 24">
  <path d="M12 2c2.5 0 4.99.64 7.46 1.91a1 1 0 01.54.89v8.15c0 3.1-1.7 5.94-4.41 7.33l-3.13 1.6a1 1 0 01-.92 0l-3.13-1.6A8.22 8.22 0 014 12.95V4.8a1 1 0 01.54-.89A16.18 16.18 0 0112 2zm0 2c-1.9 0-3.8.43-5.72 1.3L6 5.41v7.53c0 2.27 1.2 4.35 3.11 5.43l.21.12L12 19.88l2.67-1.38A6.22 6.22 0 0018 13.2l.01-.25V5.42l-.28-.13a13.96 13.96 0 00-5.31-1.28zm0 4a1 1 0 011 1v3.59l1.3-1.3.09-.08a1 1 0 011.32 1.5l-3 3-.08.07a3 3 0 01-.15.1l-.06.03-.05.02a.95.95 0 01-.22.06h-.13L12 16h-.09l-.06-.01a1.1 1.1 0 01-.22-.06l-.05-.02a1.04 1.04 0 01-.06-.03l-.04-.03a1.03 1.03 0 01-.08-.05l-.02-.02-.02-.01-.01-.01-.06-.05-3-3-.08-.1a1 1 0 011.5-1.32L11 12.6V8.88A1 1 0 0112 8z"/>
</svg>
