<svg xmlns="http://www.w3.org/2000/svg" viewBox="0 0 24 24">
  <path d="M16 1a1 1 0 011 .88V3h1a4 4 0 014 3.8V19a4 4 0 01-3.8 4H6a4 4 0 01-4-3.8V7a4 4 0 013.8-4H7V2a1 1 0 012-.12V3h6V2a1 1 0 011-1zm4 10H4v8a2 2 0 001.85 2H18a2 2 0 002-1.85V11zM8 15.92l.01-.07a1.08 1.08 0 01.06-.22l.02-.05a1.02 1.02 0 01.13-.2l.07-.09 3-3a1 1 0 011.5 1.32l-.08.1L11.4 15H15a1 1 0 01.12 2H11.4l1.3 1.3a1 1 0 01-1.32 1.49l-.1-.08-3-3-.07-.09-.02-.02a1.03 1.03 0 01-.05-.08l-.03-.04a1.04 1.04 0 01-.03-.06l-.02-.05a.99.99 0 01-.06-.22v-.23.02-.02zM7 5H6a2 2 0 00-2 1.85V9h16V7a2 2 0 00-1.85-2H17v1a1 1 0 01-2 .12V5H9v1a1 1 0 01-2 .12V5z"/>
</svg>
