<svg xmlns="http://www.w3.org/2000/svg" viewBox="0 0 24 24">
  <path d="M22 10v10a3 3 0 01-3 3H5a3 3 0 01-3-3V10h20zm-10 2a1 1 0 00-1 .88v3.71l-1.3-1.3a1 1 0 00-1.49 1.32l.08.1 3 3 .06.05.02.02h.01l.02.02.08.05.04.03.06.03.05.02a.99.99 0 00.22.06h.09l.04.01h.1l.07-.01a1.08 1.08 0 00.22-.06l.05-.02a1.02 1.02 0 00.2-.13l.09-.07 3-3a1 1 0 00-1.32-1.5l-.1.08L13 16.6V13a1 1 0 00-1-1zM7 3v1.12a1 1 0 002 0V3h6v1.12a1 1 0 002 0V3h2a3 3 0 013 3v2H2V6a3 3 0 013-3h2zm9-2a1 1 0 011 .88V3h-2V2a1 1 0 011-1zM8 1a1 1 0 011 .88V3H7V2a1 1 0 011-1z"/>
</svg>
