<svg xmlns="http://www.w3.org/2000/svg" viewBox="0 0 24 24">
  <path d="M22 10v10a3 3 0 01-3 3H5a3 3 0 01-3-3V10h20zM8 16v.09l.01.06a1.1 1.1 0 00.06.22l.02.05.03.06.03.04.05.08.02.02.07.09 3 3 .1.08a1 1 0 001.32-1.5L11.4 17h3.71a1 1 0 00-.12-2H11.4l1.3-1.3.08-.09a1 1 0 00-1.5-1.32l-3 3-.07.08a3.01 3.01 0 00-.1.15l-.03.06-.02.05a.95.95 0 00-.06.22v.09-.02.08zM7 3v1.12a1 1 0 002 0V3h6v1.12a1 1 0 002 0V3h2a3 3 0 013 3v2H2V6a3 3 0 013-3h2zm9-2a1 1 0 011 .88V3h-2V2a1 1 0 011-1zM8 1a1 1 0 011 .88V3H7V2a1 1 0 011-1z"/>
</svg>
