<svg xmlns="http://www.w3.org/2000/svg" viewBox="0 0 24 24">
  <path d="M16 1a1 1 0 011 .88V3h1a4 4 0 014 3.8V19a4 4 0 01-3.8 4H6a4 4 0 01-4-3.8V7a4 4 0 013.8-4H7V2a1 1 0 012-.12V3h6V2a1 1 0 011-1zm4 10H4v8a2 2 0 001.85 2H18a2 2 0 002-1.85V11zm-8 1a1 1 0 011 1v3.59l1.3-1.3.09-.08a1 1 0 011.32 1.5l-3 3-.08.07a3 3 0 01-.15.1l-.06.03-.05.02a.95.95 0 01-.22.06h-.13L12 20h-.09l-.06-.01a1.1 1.1 0 01-.22-.06l-.05-.02a1.04 1.04 0 01-.06-.03l-.04-.03a1.03 1.03 0 01-.08-.05l-.02-.02-.02-.01-.01-.01-.06-.05-3-3-.08-.1a1 1 0 011.5-1.32L11 16.6v-3.71a1 1 0 011-.88zM7 5H6a2 2 0 00-2 1.85V9h16V7a2 2 0 00-1.85-2H17v1a1 1 0 01-2 .12V5H9v1a1 1 0 01-2 .12V5z"/>
</svg>
