<svg xmlns="http://www.w3.org/2000/svg" viewBox="0 0 24 24">
  <path d="M6 3a1 1 0 00-1 1v13.59l-2.3-2.3-.09-.08a1 1 0 00-1.32 1.5l4 4 .08.07.02.01.02.02.05.03.02.01a.88.88 0 00.1.06l.05.02a.95.95 0 00.08.03h.03l.03.01a.73.73 0 00.09.02h.05a1 1 0 00.03 0l.04.01h.08a1 1 0 00.03 0h.03a.77.77 0 00.08-.02h.03a1 1 0 00.03-.01l.03-.01.02-.01.06-.02.05-.02.06-.03.04-.03.07-.04.03-.03h.02v-.02l.07-.05 4-4 .08-.1a1 1 0 00-1.5-1.32L7 17.6V3.88A1 1 0 006 3zm12.63.22h-.01l-.03-.03a1.04 1.04 0 00-.28-.14h-.02l-.03-.02a1 1 0 00-.03 0h-.03a1 1 0 00-.08-.02h-.03a1 1 0 00-.03 0L18.02 3h-.08a1 1 0 00-.03 0h-.03l-.02.01a1 1 0 00-.09.02h-.03l-.03.01a1 1 0 00-.23.1l-.02.02-.05.03-.02.02-.02.01-.08.07-4 4a1 1 0 001.32 1.5l.1-.08L17 6.4V20a1 1 0 002 .12V6.4l2.3 2.3a1 1 0 001.49-1.32l-.08-.1-4-4-.06-.05-.01-.01-.01-.01z"/>
</svg>
