<svg xmlns="http://www.w3.org/2000/svg" viewBox="0 0 24 24">
  <path d="M14 2a3 3 0 013 2.82V6h2a3 3 0 013 2.82V19a3 3 0 01-2.82 3H5a3 3 0 01-3-2.82V9a3 3 0 012.82-3H7V5a3 3 0 012.82-3H14zm5 6H5a1 1 0 00-1 .88V19a1 1 0 00.88 1H19a1 1 0 001-.88V9a1 1 0 00-1-1zm-3.23 5.36l.01.01.02.03.05.08.03.04.03.06.02.05a.99.99 0 01.06.22v.09l.01.04v.09-.01.02l-.01.07a1.08 1.08 0 01-.06.22l-.02.05a1.02 1.02 0 01-.13.2l-.07.09-3 3a1 1 0 01-1.5-1.32l.08-.1L12.6 15H9a1 1 0 01-.12-2h3.71l-1.3-1.3a1 1 0 011.32-1.49l.1.08 3 3 .06.08v-.01zM14 4h-4a1 1 0 00-1 .88V6h6V5a1 1 0 00-.88-1H14z"/>
</svg>
