<svg xmlns="http://www.w3.org/2000/svg" viewBox="0 0 24 24">
  <path d="M22 10v10a2 2 0 01-2 2H4a2 2 0 01-2-2V10h20zM8 16v.09l.01.06a1.1 1.1 0 00.06.22l.02.05.03.06.03.04.05.08.02.02.07.09 3 3 .1.08a1 1 0 001.32-1.5L11.4 17h3.71a1 1 0 00-.12-2H11.4l1.3-1.3.08-.09a1 1 0 00-1.5-1.32l-3 3-.07.08a3.01 3.01 0 00-.1.15l-.03.06-.02.05a.95.95 0 00-.06.22v.09-.02.08zM6 4v1.12a1 1 0 002 0V4h8v1.12a1 1 0 002 0V4h2a2 2 0 012 1.85V8H2V6c0-1.1.9-2 2-2h2zm11-2a1 1 0 011 .88V4h-2V3a1 1 0 011-1zM7 2a1 1 0 011 .88V4H6V3a1 1 0 011-1z"/>
</svg>
