<svg xmlns="http://www.w3.org/2000/svg" viewBox="0 0 24 24">
  <path d="M14 15H4v4h10v-4zm-8 1a1 1 0 110 2 1 1 0 010-2zm6 0a1 1 0 110 2 1 1 0 010-2zm.36-6H5.64a1 1 0 00-.95.69l-.03.11-.44 2.2h9.56l-.44-2.2a1 1 0 00-.75-.77l-.11-.02-.12-.01zm7.14-2a1 1 0 110 2 1 1 0 010-2zm0-6c.55 0 1.16.16 1.64.52.5.38.86.97.86 1.73a2.03 2.03 0 01-1.02 1.81l-.31.2-.27.16a.96.96 0 00-.28.25.75.75 0 01-1.24-.84c.2-.3.47-.5.69-.66l.31-.2c.1-.06.19-.1.27-.16.15-.1.23-.17.27-.24a.54.54 0 00.08-.32.6.6 0 00-.26-.52 1.26 1.26 0 00-.74-.23c-.37 0-.6.09-.74.19a1 1 0 00-.34.4.75.75 0 01-1.34-.68c.17-.33.43-.7.85-.97.42-.28.94-.44 1.57-.44zM2 13.87v.01-.01a1 1 0 01.01-.04v-.03l.69-3.39a3 3 0 012.76-2.4L5.64 8h6.72a3 3 0 012.9 2.24l.04.17.68 3.4v.02l.02.08v.03-.01V21a1 1 0 01-2 0H4a1 1 0 01-2 0v-7.13z"/>
</svg>
