<svg xmlns="http://www.w3.org/2000/svg" viewBox="0 0 24 24">
  <path d="M12.5 3a8 8 0 018 8.36l-.03.3.06.03a5 5 0 012.46 4.08L23 16a5 5 0 01-4.78 5H6.5a1 1 0 01-.32-.05h-.01l-.22-.04A6 6 0 011 15.23V15a6 6 0 013.57-5.49l.08-.03.02-.12A8 8 0 0112.25 3zM12 15a1 1 0 100 2 1 1 0 000-2zm0-6c-.63 0-1.15.16-1.57.44a2.5 2.5 0 00-.85.97.75.75 0 101.34.68 1 1 0 01.34-.4c.14-.1.37-.19.74-.19.28 0 .55.09.74.22.16.13.26.29.26.53 0 .18-.04.26-.08.32a.96.96 0 01-.27.24l-.26.16-.32.2c-.22.15-.49.36-.7.66a.75.75 0 001.25.84.96.96 0 01.28-.25l.26-.16.32-.2a2.03 2.03 0 001.02-1.81 2.1 2.1 0 00-.86-1.72A2.76 2.76 0 0012 9z"/>
</svg>
