<svg xmlns="http://www.w3.org/2000/svg" viewBox="0 0 24 24">
  <path d="M16.32 1a3 3 0 012.63 1.55l4.4 8c.5.9.5 2 0 2.9l-4.4 8A3 3 0 0116.32 23H7.68a3 3 0 01-2.63-1.55l-4.4-8a3 3 0 010-2.9l4.4-8A3 3 0 017.68 1zm0 2H7.68a1 1 0 00-.87.52l-4.4 8a1 1 0 000 .96l4.4 8a1 1 0 00.87.52h8.64a1 1 0 00.87-.52l4.4-8a1 1 0 000-.96l-4.4-8a1 1 0 00-.87-.52zm-4.95 14.77h-.02l-.06-.06-3.65-3.66-.09-.1a1 1 0 011.5-1.31L11 14.59V6.88A1 1 0 0113 7v7.59l1.95-1.95.1-.09a1 1 0 011.31 1.5l-3.65 3.66-.08.07a3 3 0 01-.15.1l-.06.03-.05.02a.95.95 0 01-.06.02l-.04.01a.94.94 0 01-.12.03h-.13L12 18h-.06a1.15 1.15 0 01-.25-.05l-.06-.02a.97.97 0 01-.21-.12l-.05-.04h-.01z"/>
</svg>
