<svg xmlns="http://www.w3.org/2000/svg" viewBox="0 0 24 24">
  <path d="M19 2a3 3 0 013 2.82V19a3 3 0 01-2.82 3H5a3 3 0 01-3-2.82V5a3 3 0 012.82-3H19zm0 2H5a1 1 0 00-1 .88V14h2a2 2 0 012 2c0 1.1.9 2 2 2h4a2 2 0 002-2c0-1.1.9-2 2-2h2V5a1 1 0 00-.88-1H19zm-7 2h.08l.07.01a1.08 1.08 0 01.22.06l.05.02a1.02 1.02 0 01.2.13l.09.07 3 3a1 1 0 01-1.32 1.5l-.1-.08L13 9.4V13a1 1 0 01-2 .12V9.4l-1.3 1.3a1 1 0 01-1.49-1.32l.08-.1 3-3 .08-.07h.01l.02-.02.08-.05.04-.03.06-.03.05-.02a.99.99 0 01.22-.06h.09l.04-.01H12z"/>
</svg>
