<svg xmlns="http://www.w3.org/2000/svg" viewBox="0 0 24 24">
  <path d="M19 2a3 3 0 013 2.82V19a3 3 0 01-2.82 3H5a3 3 0 01-3-2.82V5a3 3 0 012.82-3H19zm0 2H5a1 1 0 00-1 .88V14h2a2 2 0 012 2c0 1.1.9 2 2 2h4a2 2 0 002-2c0-1.1.9-2 2-2h2V5a1 1 0 00-.88-1H19zM8 10.06v-.15l.01-.06a1.1 1.1 0 01.06-.22l.02-.05.03-.06.03-.04.05-.08.02-.03.01-.01.01-.01.05-.06 3-3 .1-.08a1 1 0 011.32 1.5L11.4 9h3.71a1 1 0 01-.12 2H11.4l1.3 1.3.08.09a1 1 0 01-1.5 1.32l-3-3-.07-.08a3.01 3.01 0 01-.1-.15 1.02 1.02 0 01-.03-.06l-.02-.05A.95.95 0 018 10v.06z"/>
</svg>
