<svg xmlns="http://www.w3.org/2000/svg" viewBox="0 0 24 24">
  <path d="M11.78 16c3.26 0 6.07 1.6 6.21 3.6l.01.15v.75c0 .78-.71 1.43-1.62 1.5H3.78c-.93 0-1.7-.6-1.77-1.37L2 20.5v-.75c0-2.02 2.73-3.66 5.97-3.75h3.81zM10 6a4 4 0 110 8 4 4 0 010-8zm8.39-3.79a1 1 0 011.32 1.5L18.4 5h3.71A1 1 0 0122 7h-3.59l1.3 1.3.08.09a1 1 0 01-1.5 1.32l-3-3-.07-.08a3 3 0 01-.1-.15 1.02 1.02 0 01-.03-.06l-.02-.05a.95.95 0 01-.06-.22v-.09.02-.06L15 6v-.09l.01-.06a1.1 1.1 0 01.06-.22l.02-.05.03-.06.03-.04.05-.08.02-.03.01-.01.01-.01.05-.06 3-3z"/>
</svg>
