<svg xmlns="http://www.w3.org/2000/svg" viewBox="0 0 24 23">
  <path d="M11.78 16c3.26 0 6.07 1.6 6.21 3.6l.01.15v.75c0 .78-.71 1.43-1.62 1.5H3.78c-.93 0-1.7-.6-1.77-1.37L2 20.5v-.75c0-2.02 2.73-3.66 5.97-3.75h3.81zM10 6a4 4 0 110 8 4 4 0 010-8zm9-4a1 1 0 011 1v3.58l1.3-1.29.09-.08a1 1 0 011.32 1.5l-3 3-.08.07a3.01 3.01 0 01-.15.1l-.06.03-.05.02a.95.95 0 01-.22.06h-.13L19 10h-.09l-.06-.01a1.1 1.1 0 01-.22-.06l-.05-.02a1.04 1.04 0 01-.06-.03l-.04-.03a1.03 1.03 0 01-.08-.05l-.02-.02-.02-.01-.01-.01-.06-.05-3-3-.08-.1a1 1 0 011.5-1.32L18 6.6V2.88A1 1 0 0119 2z"/>
</svg>
