<svg xmlns="http://www.w3.org/2000/svg" viewBox="0 0 24 24">
  <path d="M4.52 2.72c.96-.94 2.7-1 3.7 0 .48.47 1.2 1.36 2.2 2.74l.41.58a2 2 0 01-.07 2.42l-.35.39-1.03 1.04.02.08.11.3c.25.65.88 1.51 1.79 2.43a7.9 7.9 0 002.42 1.78c.35.14.38.14.38.13l1.07-1.05.24-.23.12-.1a2 2 0 012.42-.07 34.25 34.25 0 013.15 2.44l.18.18c.99 1.03.93 2.7 0 3.68-.2.22-.45.47-.72.74l-.43.42c-2.9 2.9-8.86 1.02-13.31-3.44C2.36 12.72.48 6.77 3.36 3.88l.46-.46zm2.3 1.42c-.22-.21-.71-.17-.9 0l-.3.31-.84.84c-1.8 1.8-.42 6.6 3.45 10.47 3.87 3.88 8.66 5.26 10.48 3.44l.8-.79.32-.32c.2-.22.24-.68 0-.92-.31-.33-.98-.87-2.08-1.68l-.97-.7-.09.08-1.18 1.16c-1.3 1.3-3.52.2-5.63-1.92C7.78 12 6.66 9.78 7.97 8.48l.93-.96.3-.32a29.78 29.78 0 00-2.38-3.06zM19 2h.08l.07.01a1.08 1.08 0 01.37.14 1.04 1.04 0 01.1.07l.09.07 3 3a1 1 0 01-1.32 1.5l-.1-.08L20 5.4V9a1 1 0 01-2 .12v-3.7L16.7 6.7a1 1 0 01-1.49-1.32l.08-.1 3-3 .1-.08.01-.01a1.03 1.03 0 01.33-.16l.07-.02a1.1 1.1 0 01.14-.02H19z"/>
</svg>
