<svg xmlns="http://www.w3.org/2000/svg" viewBox="0 0 24 24">
  <path d="M7.74 3.88a3 3 0 014.85.86 8.53 8.53 0 001.7 2.48c.55.55 1.28.92 2.23 1.13l.18.04a3 3 0 011.32 5.01l-1.6 1.6 4.24 4.25a1 1 0 01-1.33 1.49l-.08-.08L15 16.42l-1.6 1.6a3 3 0 01-4.1.13l-.14-.13a3 3 0 01-.81-1.5 4.34 4.34 0 00-1.12-2.22 8.53 8.53 0 00-2.49-1.71l-.16-.08a3 3 0 01-.7-4.77zm2.83 1.41a1 1 0 00-1.41 0L5.29 9.16a1 1 0 00.3 1.61c1.16.54 2.18 1.25 3.05 2.11a6.32 6.32 0 011.66 3.23 1 1 0 001.69.5l4.61-4.62a1 1 0 00.27-.5l.02-.12a1 1 0 00-.78-1.07 6.32 6.32 0 01-3.23-1.66 10.53 10.53 0 01-2.1-3.06 1 1 0 00-.2-.29z"/>
</svg>
