<svg xmlns="http://www.w3.org/2000/svg" viewBox="0 0 24 24">
  <path d="M14 3a3 3 0 013 3v2h2.18A3 3 0 0122 11v5.18A3 3 0 0119 19v1.11a1 1 0 01-1.55.72L14.7 19h-2.88A3 3 0 019 16l-2.4 1.8a1 1 0 01-1.58-.58l-.01-.11L5 17v-2a3 3 0 01-3-3V6a3 3 0 013-3zm3 9a3 3 0 01-3 3h-3v1.12a1 1 0 001 .88h3.12a1 1 0 01.43.17l1.45.96v-.25a1 1 0 011-.88h1.12a1 1 0 00.88-1v-5.12a1 1 0 00-1-.88h-2zm-3-7H5a1 1 0 00-1 1v6a1 1 0 001 1h1a1 1 0 011 1v1l2.4-1.8a1 1 0 01.1-.07h.02a.93.93 0 01.35-.12l-.12.02A1 1 0 0110 13h-.05H14a1 1 0 001-1V6a1 1 0 00-1-1z"/>
</svg>
