<svg xmlns="http://www.w3.org/2000/svg" viewBox="0 0 24 24">
  <path d="M12 1a11 11 0 018.8 17.6l.06-.08c.03-.05.04-.04.05.02l.04.11a5 5 0 00.34.75 9.8 9.8 0 001.42 1.9 1 1 0 01-.59 1.7 9.26 9.26 0 01-4.91-.58l-.96-.43-.21.08c-1.33.57-2.5.88-3.7.92L12 23a11 11 0 010-22zm0 2a9 9 0 100 18 8.6 8.6 0 003.6-.91c.47-.22.9-.15 1.42.06l.81.36.2.09c.55.22 1.11.37 1.74.44l.16.02-.08-.13c-.82-1.26-1.24-2.57-.73-3.41l.08-.12A9 9 0 0012 3zm0 3a1 1 0 011 1v7.59l1.95-1.95.1-.09a1 1 0 011.31 1.5l-3.65 3.66-.08.07a3 3 0 01-.15.1l-.06.03-.05.02a.95.95 0 01-.22.06h-.13L12 18h-.09a.94.94 0 01-.34-.1 1.06 1.06 0 01-.15-.09l-.04-.03h-.01l-.02-.02-.06-.05-3.65-3.66-.09-.1a1 1 0 011.5-1.31L11 14.59V6.88A1 1 0 0112 6z"/>
</svg>
