<svg xmlns="http://www.w3.org/2000/svg" viewBox="0 0 24 24">
  <path d="M12 20a1 1 0 011 .88V22a1 1 0 01-2 .12V21a1 1 0 011-1zm-5.66-2.34a1 1 0 01.08 1.32l-.08.1-.7.7a1 1 0 01-1.5-1.33l.08-.09.7-.7a1 1 0 011.42 0zm12.64-.08l.1.08.7.7a1 1 0 01-1.33 1.5l-.09-.08-.7-.7a1 1 0 011.32-1.5zM12 6a6 6 0 110 12 6 6 0 010-12zm10 5a1 1 0 01.12 2H21a1 1 0 01-.12-2H22zM3 11a1 1 0 01.12 2H2a1 1 0 01-.12-2H3zm16.78-6.78a1 1 0 01.08 1.33l-.08.09-.7.7a1 1 0 01-1.5-1.32l.08-.1.7-.7a1 1 0 011.42 0zM5.55 4.14l.09.08.7.7a1 1 0 01-1.32 1.5l-.1-.08-.7-.7a1 1 0 011.33-1.5zM12 1a1 1 0 011 .88V3a1 1 0 01-2 .12V2a1 1 0 011-1z"/>
</svg>
