<svg xmlns="http://www.w3.org/2000/svg" viewBox="0 0 24 24">
  <path d="M13 2a1 1 0 01.7.3l7.6 7.58a3 3 0 010 4.24l-7.18 7.17a3 3 0 01-4.24 0l-7.59-7.58A1 1 0 012 13V5a3 3 0 013-3zm-.41 2H5a1 1 0 00-1 1v7.59l7.3 7.29a1 1 0 001.31.08l.1-.08 7.17-7.17a1 1 0 000-1.42L12.58 4zM8 12.06v-.15l.01-.06a1.1 1.1 0 01.06-.22l.02-.05.03-.06.03-.04.05-.08.02-.03.01-.01.01-.01.05-.06 3-3 .1-.08a1 1 0 011.32 1.5L11.4 11h3.71a1 1 0 01-.12 2H11.4l1.3 1.3.08.09a1 1 0 01-1.5 1.32l-3-3-.07-.08a3.01 3.01 0 01-.1-.15 1.02 1.02 0 01-.03-.06l-.02-.05A.95.95 0 018 12v.06z"/>
</svg>
