<svg xmlns="http://www.w3.org/2000/svg" viewBox="0 0 24 24">
  <path d="M16.83 10.44l.06.11 5 10a1 1 0 01-1.73 1l-.05-.1L18.88 19h-5.76l-1.23 2.45a1 1 0 01-1.23.5l-.1-.06a1 1 0 01-.5-1.23l.05-.1 5-10a1 1 0 011.64-.22l.08.1zM9 2a1 1 0 011 .88V4h5a1 1 0 01.12 2h-1.54a18.94 18.94 0 01-3.3 7.28l.49.53a1 1 0 11-1.44 1.38L9 14.85a19.04 19.04 0 01-5.55 4.17 1 1 0 01-.9-1.79 17.05 17.05 0 005.16-3.94 19.03 19.03 0 01-2.22-3.9 1 1 0 011.84-.78A16.96 16.96 0 009 11.65c1.17-1.7 2.03-3.6 2.53-5.65H3a1 1 0 01-.12-2H8V3a1 1 0 011-1zm7 11.24L14.12 17h3.76L16 13.24z"/>
</svg>
