<svg xmlns="http://www.w3.org/2000/svg" viewBox="0 0 24 24">
  <path d="M9.37 3.7a3 3 0 015.26 0l7.62 13.85A3 3 0 0119.62 22H4.38a3 3 0 01-2.63-4.45zm3 .52a1 1 0 00-1.25.45L3.51 18.52A1 1 0 004.38 20h15.24a1 1 0 00.87-1.48L12.88 4.67a1 1 0 00-.4-.4zM12 17a1 1 0 110 2 1 1 0 010-2zm.1-8c1.7 0 3 1.3 3 3 0 1.4-.9 2-1.5 2.4-.45.27-.58.38-.6.55V16h-2v-1c0-1.3.9-1.9 1.5-2.3.5-.3.6-.5.6-.8 0-.6-.4-.9-1-.9a1 1 0 00-.82.4l-.08.1-.02.04-.01.02a.96.96 0 01-1.21.4l-.11-.06a1 1 0 01-.43-1.24l.05-.11.03-.05C10 9.6 11 9 12.1 9z"/>
</svg>
