<svg xmlns="http://www.w3.org/2000/svg" width="24" height="24" viewBox="0 0 24 24">
  <path d="M12,1 C15.3333333,1 18.3333333,2 21,4 L21,13 C20.9981811,16.3304863 19.073592,19.5406076 16.0275,21.031 L12,23 L7.9725,21.031 C4.926408,19.5406076 3.00181891,16.3304863 3,13 L3,4 C5.66666667,2 8.66666667,1 12,1 Z M8.38710056,9.20970461 L8.29289322,9.29289322 C7.93240926,9.65337718 7.90467972,10.2206082 8.20970461,10.6128994 L8.29289322,10.7071068 L11.2928932,13.7071068 C11.6533772,14.0675907 12.2206082,14.0953203 12.6128994,13.7902954 L12.7071068,13.7071068 L15.7071068,10.7071068 C16.0976311,10.3165825 16.0976311,9.68341751 15.7071068,9.29289322 C15.3466228,8.93240926 14.7793918,8.90467972 14.3871006,9.20970461 L14.2928932,9.29289322 L12,11.585 L9.70710678,9.29289322 C9.34662282,8.93240926 8.77939176,8.90467972 8.38710056,9.20970461 Z"/>
</svg>
