<svg xmlns="http://www.w3.org/2000/svg" width="24" height="24" viewBox="0 0 24 24">
  <path d="M12,1 C15.3333333,1 18.3333333,2 21,4 L21,13 C20.9981811,16.3304863 19.073592,19.5406076 16.0275,21.031 L12,23 L7.9725,21.031 C4.926408,19.5406076 3.00181891,16.3304863 3,13 L3,4 C5.66666667,2 8.66666667,1 12,1 Z M16,13 L8,13 L7.88337887,13.0067277 C7.38604019,13.0644928 7,13.4871642 7,14 C7,14.5522847 7.44771525,15 8,15 L8,15 L16,15 L16.1166211,14.9932723 C16.6139598,14.9355072 17,14.5128358 17,14 C17,13.4477153 16.5522847,13 16,13 L16,13 Z M16,9 L8,9 L7.88337887,9.00672773 C7.38604019,9.06449284 7,9.48716416 7,10 C7,10.5522847 7.44771525,11 8,11 L8,11 L16,11 L16.1166211,10.9932723 C16.6139598,10.9355072 17,10.5128358 17,10 C17,9.44771525 16.5522847,9 16,9 L16,9 Z"/>
</svg>
