<svg xmlns="http://www.w3.org/2000/svg" viewBox="0 0 24 24">
  <path d="M12 15a1 1 0 011 1v3.59l1.3-1.3.09-.08a1 1 0 011.32 1.5l-3 3-.08.07a3 3 0 01-.15.1l-.06.03-.05.02a.95.95 0 01-.22.06h-.13L12 23h-.09l-.06-.01a1.1 1.1 0 01-.22-.06l-.05-.02a1.04 1.04 0 01-.06-.03l-.04-.03a1.03 1.03 0 01-.08-.05l-.02-.02-.02-.01-.01-.01-.06-.05-3-3-.08-.1a1 1 0 011.5-1.32L11 19.6v-3.71a1 1 0 011-.88zm-9-4h18a1 1 0 01.12 2H3a1 1 0 01-.12-2H3zm9-10h.08l.07.01a1.08 1.08 0 01.22.06l.05.02a1.02 1.02 0 01.2.13l.09.07 3 3a1 1 0 01-1.32 1.5l-.1-.08L13 4.4V8a1 1 0 01-2 .12v-3.7L9.7 5.7a1 1 0 01-1.49-1.32l.08-.1 3-3 .08-.07h.01l.02-.02.08-.05.04-.03.06-.03.05-.02a.99.99 0 01.22-.06h.09l.04-.01H12z"/>
</svg>
