<svg xmlns="http://www.w3.org/2000/svg" viewBox="0 0 24 23">
  <path d="M14 15H4v4h10v-4zm-8 1a1 1 0 110 2 1 1 0 010-2zm6 0a1 1 0 110 2 1 1 0 010-2zm.36-6H5.64a1 1 0 00-.95.69l-.03.11-.44 2.2h9.56l-.44-2.2a1 1 0 00-.75-.77l-.11-.02-.12-.01zM19 2a1 1 0 011 1v3.58l1.3-1.29.09-.08a1 1 0 011.32 1.5l-3 3-.08.07a3.01 3.01 0 01-.15.1l-.06.03-.05.02a.95.95 0 01-.22.06h-.13L19 10h-.09l-.06-.01a1.1 1.1 0 01-.22-.06l-.05-.02a1.04 1.04 0 01-.06-.03l-.04-.03a1.03 1.03 0 01-.08-.05l-.02-.02-.02-.01-.01-.01-.06-.05-3-3-.08-.1a1 1 0 011.5-1.32L18 6.6V2.88A1 1 0 0119 2zM2 13.87v.01-.01a1 1 0 01.01-.04v-.03l.69-3.39a3 3 0 012.76-2.4L5.64 8h6.72a3 3 0 012.9 2.24l.04.17.68 3.4v.02l.02.08v.03-.01V21a1 1 0 01-2 0H4a1 1 0 01-2 0v-7.13z"/>
</svg>
