<svg xmlns="http://www.w3.org/2000/svg" viewBox="0 0 24 24">
  <path d="M16 1a1 1 0 011 .88V3h2a2 2 0 012 2v16a2 2 0 01-2 2H5a2 2 0 01-2-2V5c0-1.1.9-2 2-2h2V2a1 1 0 01.88-1H16zm-.22 12.38l-.01-.02v.01l-.06-.08-3-3-.1-.08a1 1 0 00-1.32 1.5L12.6 13H8.88A1 1 0 009 15h3.59l-1.3 1.3-.08.09a1 1 0 001.5 1.32l3-3 .07-.08a3 3 0 00.1-.15l.03-.06.02-.05a.95.95 0 00.06-.22v-.09.01-.05L16 14v-.09l-.01-.06a1.1 1.1 0 00-.06-.22l-.02-.05a1.04 1.04 0 00-.03-.06l-.03-.04a1.03 1.03 0 00-.05-.08l-.02-.03zM15 3H9v2h6V3z"/>
</svg>
