<svg xmlns="http://www.w3.org/2000/svg" viewBox="0 0 24 24">
  <path d="M13 1a2 2 0 012 1.85v1.73l.25.1c.41.19.8.4 1.18.66l.28.2.21.15 1.37-.79a2 2 0 012.56.47l.1.13.08.13 1 1.74a2 2 0 01-.6 2.64l-.14.09-1.37.79.05.36.01.19.01.18.01.38c0 .17 0 .34-.02.5l-.01.25-.05.36 1.37.8a2 2 0 01.87 2.44l-.06.15-.07.13-1 1.74a2 2 0 01-2.6.8l-.14-.07-1.37-.8-.2.17a8 8 0 01-1.17.7l-.3.14-.25.1V21a2 2 0 01-1.7 1.98l-.15.01L13 23h-2a2 2 0 01-2-1.85v-1.73l-.24-.1c-.42-.19-.82-.4-1.2-.66l-.27-.2-.21-.16-1.37.8a2 2 0 01-2.56-.47l-.1-.13-.08-.13-1-1.74a2 2 0 01.6-2.64l.14-.09 1.37-.8-.05-.35-.01-.19-.01-.18L4 12c0-.17 0-.34.02-.5l.01-.25.05-.36-1.37-.8a2 2 0 01-.87-2.44l.06-.15.07-.13 1-1.74a2 2 0 012.6-.8l.14.07 1.37.8.2-.17a8 8 0 011.17-.7l.3-.14.25-.1V3a2 2 0 011.7-1.98l.15-.01L11 1h2zm0 2h-2v2.29a1 1 0 01-.71.96 6 6 0 00-2.41 1.39 1 1 0 01-1.07.2l-.12-.06-1.98-1.15-1 1.74L5.69 9.5a1 1 0 01.47 1.1 6.02 6.02 0 000 2.78 1 1 0 01-.37 1.03l-.1.07-1.98 1.14 1 1.74 1.98-1.15a1 1 0 011.19.14 6 6 0 002.4 1.4 1 1 0 01.71.83l.01.12V21h2v-2.29a1 1 0 01.72-.96 6 6 0 002.4-1.39 1 1 0 011.07-.2l.12.06 1.98 1.15 1-1.74-1.98-1.14a1 1 0 01-.47-1.1 6.02 6.02 0 000-2.78 1 1 0 01.37-1.03l.1-.07 1.98-1.14-1-1.74-1.98 1.15a1 1 0 01-1.19-.14 6 6 0 00-2.4-1.4 1 1 0 01-.71-.83v-.12L13 3zm-1 5a4 4 0 110 8 4 4 0 010-8zm0 2a2 2 0 100 4 2 2 0 000-4z"/>
</svg>
