<svg xmlns="http://www.w3.org/2000/svg" viewBox="0 0 24 24">
  <path d="M12 1a11 11 0 110 22 11 11 0 010-22zm0 2a9 9 0 100 18 9 9 0 000-18zm0 2a1 1 0 011 .88v.72c.87.15 1.72.51 2.55 1.07a1 1 0 11-1.1 1.66c-.5-.33-.98-.55-1.45-.69v2.65c2.1.76 3 1.51 3 3.21 0 1.73-1.24 2.68-3 2.93V18a1 1 0 01-2 .12v-.72a6.81 6.81 0 01-2.55-1.07 1 1 0 011.1-1.66c.5.33.98.55 1.45.69V12.7c-2.14-.77-3-1.5-3-3.21 0-1.73 1.24-2.68 3-2.93V6a1 1 0 011-1zm1 8.44v1.96c.66-.14 1-.46 1-.9 0-.43-.25-.72-1-1.06zM11 8.6c-.66.14-1 .46-1 .9 0 .43.23.72 1 1.06V8.6z"/>
</svg>
