<svg xmlns="http://www.w3.org/2000/svg" viewBox="0 0 24 24">
  <path d="M16.32 1a3 3 0 012.63 1.55l4.4 8c.5.9.5 2 0 2.9l-4.4 8A3 3 0 0116.32 23H7.68a3 3 0 01-2.63-1.55l-4.4-8a3 3 0 010-2.9l4.4-8A3 3 0 017.68 1zm0 2H7.68a1 1 0 00-.87.52l-4.4 8a1 1 0 000 .96l4.4 8a1 1 0 00.87.52h8.64a1 1 0 00.87-.52l4.4-8a1 1 0 000-.96l-4.4-8a1 1 0 00-.87-.52zm1.46 8.37l.03.05a1.04 1.04 0 01.07.1l.02.05a.97.97 0 01.1.34v.16l-.01.08a1.09 1.09 0 01-.14.37l-.04.07-.02.02-.01.02-.07.08-3.66 3.65a1 1 0 01-1.5-1.32l.09-.09L14.59 13H7a1 1 0 01-.12-2h7.71l-1.95-1.95a1 1 0 011.32-1.5l.09.09 3.66 3.65.05.06.01.02v-.02.02z"/>
</svg>
