<svg xmlns="http://www.w3.org/2000/svg" viewBox="0 0 24 24">
  <path d="M19 2a3 3 0 013 2.82V19a3 3 0 01-2.82 3H5a3 3 0 01-3-2.82V5a3 3 0 012.82-3H19zm0 2H5a1 1 0 00-1 .88V14h2a2 2 0 012 2c0 1.1.9 2 2 2h4a2 2 0 002-2c0-1.1.9-2 2-2h2V5a1 1 0 00-.88-1H19zm-7 2a1 1 0 011 1v3.59l1.3-1.3.09-.08a1 1 0 011.32 1.5l-3 3-.08.07a3 3 0 01-.15.1l-.06.03-.05.02a.95.95 0 01-.22.06h-.13L12 14h-.09l-.06-.01a1.1 1.1 0 01-.22-.06l-.05-.02a1.04 1.04 0 01-.06-.03l-.04-.03a1.03 1.03 0 01-.08-.05l-.02-.02-.02-.01-.01-.01-.06-.05-3-3-.08-.1a1 1 0 011.5-1.32L11 10.6V6.88A1 1 0 0112 6z"/>
</svg>
