<svg xmlns="http://www.w3.org/2000/svg" viewBox="0 0 24 24">
  <path d="M14.17 4a3 3 0 012.12.88l5 5a3 3 0 010 4.24l-5 5a3 3 0 01-2.12.88H5a3 3 0 01-3-3V7a3 3 0 013-3zm0 2H5a1 1 0 00-1 1v10a1 1 0 001 1h9.17a1 1 0 00.7-.3l5-5a1 1 0 000-1.4l-5-5a1 1 0 00-.7-.3zM10 8a1 1 0 011 1v3.59l1.3-1.3.09-.08a1 1 0 011.32 1.5l-3 3-.08.07a3 3 0 01-.15.1l-.06.03-.05.02a.95.95 0 01-.22.06h-.13L10 16h-.09l-.06-.01a1.1 1.1 0 01-.22-.06l-.05-.02a1.04 1.04 0 01-.06-.03l-.04-.03a1.03 1.03 0 01-.08-.05l-.02-.02-.02-.01-.01-.01-.06-.05-3-3-.08-.1a1 1 0 011.5-1.32L9 12.6V8.88A1 1 0 0110 8z"/>
</svg>
