<svg xmlns="http://www.w3.org/2000/svg" viewBox="0 0 24 24">
  <path d="M14.17 4a3 3 0 012.12.88l5 5a3 3 0 010 4.24l-5 5a3 3 0 01-2.12.88H5a3 3 0 01-3-3V7a3 3 0 013-3zm0 2H5a1 1 0 00-1 1v10a1 1 0 001 1h9.17a1 1 0 00.7-.3l5-5a1 1 0 000-1.4l-5-5a1 1 0 00-.7-.3zM10 15a1 1 0 110 2 1 1 0 010-2zm.1-8c1.7 0 3 1.3 3 3 0 1.4-.9 2-1.5 2.4-.45.27-.58.38-.6.55V14H9v-1c0-1.3.9-1.9 1.5-2.3.5-.3.6-.5.6-.8 0-.6-.4-.9-1-.9a1 1 0 00-.82.4l-.08.1-.02.04a.96.96 0 01-1.22.41l-.11-.05a1 1 0 01-.43-1.24l.05-.11.03-.05C8 7.6 9 7 10.1 7z"/>
</svg>
