<svg xmlns="http://www.w3.org/2000/svg" viewBox="0 0 24 24">
  <path d="M11.78 16c3.26 0 6.07 1.6 6.21 3.6l.01.15v.75c0 .78-.71 1.43-1.62 1.5H3.78c-.93 0-1.7-.6-1.77-1.37L2 20.5v-.75c0-2.02 2.73-3.66 5.97-3.75h3.81zm0 2H8.02c-2.25.06-3.9 1.04-4.01 1.68l-.01.07V20h12v-.27c-.05-.67-1.74-1.66-3.98-1.73h-.24zM10 6a4 4 0 01.2 8H10a4 4 0 01-.2-8h.2zm0 2a2 2 0 100 4 2 2 0 000-4zm9-6h.08l.07.01a1.08 1.08 0 01.22.06l.05.02a1.02 1.02 0 01.2.13l.09.07 3 3a1 1 0 01-1.32 1.5l-.1-.08L20 5.4V9a1 1 0 01-2 .12v-3.7L16.7 6.7a1 1 0 01-1.49-1.32l.08-.1 3-3 .08-.07h.01l.02-.02.08-.05.04-.03.06-.03.05-.02a.99.99 0 01.22-.06h.09l.04-.01H19z"/>
</svg>
