<svg xmlns="http://www.w3.org/2000/svg" viewBox="0 0 24 24">
  <path d="M12 1a11 11 0 018.8 17.6l.06-.08c.03-.05.04-.04.05.02l.04.11a5 5 0 00.34.75 9.8 9.8 0 001.42 1.9 1 1 0 01-.59 1.7 9.26 9.26 0 01-4.91-.58l-.96-.43-.21.08c-1.33.57-2.5.88-3.7.92L12 23a11 11 0 010-22zm0 2a9 9 0 100 18 8.6 8.6 0 003.6-.91c.47-.22.9-.15 1.42.06l.81.36.2.09c.55.22 1.11.37 1.74.44l.16.02-.08-.13c-.82-1.26-1.24-2.57-.73-3.41l.08-.12A9 9 0 0012 3zm-5.76 8.35l.05-.06 3.66-3.65.1-.09a1 1 0 011.31 1.5L9.41 11h7.71a1 1 0 01-.12 2H9.41l1.95 1.95.09.1a1 1 0 01-1.5 1.31l-3.66-3.65-.07-.08a3.01 3.01 0 01-.1-.15 1.02 1.02 0 01-.03-.06l-.02-.05a.95.95 0 01-.06-.22v-.09.01-.03L6 12v-.09a.94.94 0 01.1-.34 1.06 1.06 0 01.09-.15l.03-.04.02-.03-.02.02.02-.02z"/>
</svg>
