<svg xmlns="http://www.w3.org/2000/svg" viewBox="0 0 24 24">
  <path d="M12 1a11 11 0 018.8 17.6l.06-.08c.03-.05.04-.04.05.02l.04.11a5 5 0 00.34.75 9.8 9.8 0 001.42 1.9 1 1 0 01-.59 1.7 9.26 9.26 0 01-4.91-.58l-.96-.43-.21.08c-1.33.57-2.5.88-3.7.92L12 23a11 11 0 010-22zm2.05 6.64l-.1-.09a1 1 0 00-1.31 1.5L14.59 11H6.88A1 1 0 007 13h7.59l-1.95 1.95-.09.1a1 1 0 001.5 1.31l3.66-3.65.07-.08a3 3 0 00.1-.15l.03-.06.02-.05a.95.95 0 00.06-.22v-.13L18 12v-.09a.94.94 0 00-.1-.34 1.06 1.06 0 00-.09-.15l-.03-.04-.02-.03.01.02v-.02l-.06-.06-3.66-3.65z"/>
</svg>
