<svg xmlns="http://www.w3.org/2000/svg" viewBox="0 0 24 24">
  <path d="M21 13a1 1 0 011 1v.31a7.3 7.3 0 01-1.08 3.5l-.04.06 1.05 2.77.04.1a1 1 0 01-1.16 1.24l-3.91-.77-.35.14a9.96 9.96 0 01-9.14-1.08 1 1 0 111.15-1.63A7.7 7.7 0 0013 20a7.9 7.9 0 003.36-.74l.11-.04a1 1 0 01.5-.03l2.45.48-.6-1.57-.03-.12a1 1 0 01.16-.82A5.35 5.35 0 0020 14a1 1 0 011-1zM11 2c4.94 0 9 3.55 9 8s-4.06 8-9 8a9.96 9.96 0 01-3.55-.65l-.35-.14-3.9.77a1 1 0 01-1.17-1.23l.04-.1 1.05-2.78-.04-.06a7.3 7.3 0 01-1.07-3.5L2 10c0-4.45 4.06-8 9-8z"/>
</svg>
