<svg xmlns="http://www.w3.org/2000/svg" viewBox="0 0 24 24">
  <path d="M12 1a11 11 0 018.8 17.6l.06-.08c.03-.05.04-.04.05.02l.04.11a5 5 0 00.34.75 9.8 9.8 0 001.42 1.9 1 1 0 01-.59 1.7 9.26 9.26 0 01-4.91-.58l-.96-.43-.21.08c-1.33.57-2.5.88-3.7.92L12 23a11 11 0 010-22zM7.64 9.95l-.09.1a1 1 0 001.5 1.31L11 9.41v7.71a1 1 0 002-.12V9.41l1.95 1.95.1.09a1 1 0 001.31-1.5l-3.65-3.66-.08-.07a3.01 3.01 0 00-.15-.1 1.02 1.02 0 00-.06-.03l-.05-.02a.95.95 0 00-.22-.06h-.13L12 6h-.09a.94.94 0 00-.34.1 1.06 1.06 0 00-.15.09l-.04.03h-.01l-.01.02v-.02.02l-.07.05-3.65 3.66z"/>
</svg>
