<svg xmlns="http://www.w3.org/2000/svg" viewBox="0 0 24 24">
  <path d="M19 2a3 3 0 013 3v14a3 3 0 01-3 3H5a3 3 0 01-3-3V5a3 3 0 013-3zm0 2H5a1 1 0 00-1 1v14a1 1 0 001 1h14a1 1 0 001-1V5a1 1 0 00-1-1zM6.24 11.35l.05-.06 3.66-3.65.1-.09a1 1 0 011.31 1.5L9.41 11h7.71a1 1 0 01-.12 2H9.41l1.95 1.95.09.1a1 1 0 01-1.5 1.31l-3.66-3.65-.07-.08a3.01 3.01 0 01-.1-.15 1.02 1.02 0 01-.03-.06l-.02-.05a.95.95 0 01-.06-.22v-.09.01-.03L6 12v-.09a.94.94 0 01.1-.34 1.06 1.06 0 01.09-.15l.03-.04.02-.03-.02.02.02-.02z"/>
</svg>
