<svg xmlns="http://www.w3.org/2000/svg" viewBox="0 0 24 24">
  <path d="M12 8h.06a1 1 0 01.03 0H12a1 1 0 01.63.22l.08.07 3 3a1 1 0 01-1.32 1.5l-.1-.08L13 11.4V15a1 1 0 01-2 .12V11.4l-1.3 1.3a1 1 0 01-1.49-1.32l.08-.1 3-3 .08-.07h.01l-.09.07a1 1 0 01.65-.29H12z"/>
  <path d="M20 4H4a3 3 0 00-3 3v3a1 1 0 001 1h1.11A1 1 0 014 12v.11A1 1 0 013 13H2a1 1 0 00-1 1v3a3 3 0 003 3h16a3 3 0 003-3v-3a1 1 0 00-1-1h-1.11a1 1 0 01-.89-1v-.11a1 1 0 011-.89h1a1 1 0 001-1V7a3 3 0 00-3-3zM4 6h16a1 1 0 011 1v2a3 3 0 00-3 2.78v.18A3 3 0 0020.78 15H21v2a1 1 0 01-1 1H3.88A1 1 0 013 17v-2a3 3 0 003-2.78v-.18A3 3 0 003.22 9H3V7a1 1 0 011-1z"/>
</svg>
