<svg xmlns="http://www.w3.org/2000/svg" width="24" height="24" viewBox="0 0 24 24">
  <path d="M21,2 L21.0193545,2.00018615 C21.0409987,2.00060253 21.062632,2.00171744 21.0842176,2.00353089 L21,2 C21.0523658,2 21.1037915,2.00402505 21.1539846,2.01178265 C21.1611342,2.01296161 21.1687893,2.01423509 21.1764315,2.01559786 L21.1988177,2.01976438 C21.2231682,2.02467654 21.2471983,2.03047332 21.2708729,2.03711974 C21.2847689,2.04109725 21.2984943,2.04526694 21.3121425,2.04973809 C21.3317977,2.05612249 21.3515792,2.06331574 21.3710585,2.07110396 C21.3887956,2.07819642 21.4060985,2.08567905 21.4232215,2.09367336 C21.4438914,2.10337664 21.4642939,2.11379392 21.484277,2.12487577 C21.4963944,2.13149883 21.5086131,2.13860692 21.5207088,2.14599545 C21.546275,2.1617187 21.5711307,2.17849009 21.5951593,2.19631351 C21.6012086,2.20071786 21.6070733,2.20517454 21.6128994,2.20970461 L21.6148064,2.21126487 L21.625449,2.21968877 C21.6854251,2.26782388 21.7397335,2.32273092 21.787214,2.38324992 L21.7071068,2.29289322 C21.7425008,2.32828727 21.774687,2.36567442 21.8036654,2.40469339 C21.8215099,2.42886931 21.8382813,2.45372505 21.8539326,2.47933981 C21.8613931,2.49138689 21.8685012,2.50360556 21.8753288,2.5159379 C21.8862061,2.53570605 21.8966234,2.5561086 21.9063462,2.57690085 C21.914321,2.5939015 21.9218036,2.61120435 21.9287745,2.62866398 C21.9366843,2.6484208 21.9438775,2.66820232 21.9504533,2.68826359 C21.9552713,2.70314866 21.9599023,2.71853672 21.9641549,2.73400703 C21.9701664,2.75556352 21.9753602,2.77725392 21.9798348,2.7992059 C21.9832978,2.81662474 21.9863719,2.83405099 21.9889822,2.85153313 C21.9905825,2.86176411 21.9920139,2.87254508 21.9932723,2.88337887 L21.996384,2.91477577 C21.997855,2.93207691 21.9988772,2.94940903 21.9994506,2.96675322 L22,3 L22,11 C22,11.5522847 21.5522847,12 21,12 C20.4871642,12 20.0644928,11.6139598 20.0067277,11.1166211 L20,11 L20,5.414 L3.70710678,21.7071068 C3.31658249,22.0976311 2.68341751,22.0976311 2.29289322,21.7071068 C1.93240926,21.3466228 1.90467972,20.7793918 2.20970461,20.3871006 L2.29289322,20.2928932 L18.585,3.999 L13,4 C12.4477153,4 12,3.55228475 12,3 C12,2.48716416 12.3860402,2.06449284 12.8833789,2.00672773 L13,2 L21,2 Z"/>
</svg>
