<svg xmlns="http://www.w3.org/2000/svg" width="24" height="24" viewBox="0 0 24 24">
  <path d="M18,3 C18.3550402,3 18.6668654,3.18502518 18.844312,3.46391182 L18.8511973,3.47568524 C18.8821009,3.49466587 18.912196,3.51548137 18.9413266,3.53813174 L19.0355339,3.62132034 L23.0355339,7.62132034 C23.4260582,8.01184464 23.4260582,8.64500961 23.0355339,9.03553391 C22.6750499,9.39601787 22.1078189,9.4237474 21.7155277,9.11872251 L21.6213203,9.03553391 L18.9994271,6.414 L19,20 C19,20.5522847 18.5522847,21 18,21 C17.4871642,21 17.0644928,20.6139598 17.0067277,20.1166211 L17,20 L16.9994271,7.071 L15.0355339,9.03553391 C14.6450096,9.4260582 14.0118446,9.4260582 13.6213203,9.03553391 C13.2608364,8.67504994 13.2331068,8.10781889 13.5381317,7.71552768 L13.6213203,7.62132034 L16.9994271,4.242 L17,4 C17,3.44771525 17.4477153,3 18,3 Z M6,3 C6.3550402,3 6.66686545,3.18502518 6.84431203,3.46391182 L6.85119731,3.47568524 C6.88210085,3.49466587 6.91219603,3.51548137 6.94132657,3.53813174 L7.03553391,3.62132034 L11.0355339,7.62132034 C11.4260582,8.01184464 11.4260582,8.64500961 11.0355339,9.03553391 C10.6750499,9.39601787 10.1078189,9.4237474 9.71552768,9.11872251 L9.62132034,9.03553391 L6.99942712,6.414 L7,20 C7,20.5522847 6.55228475,21 6,21 C5.48716416,21 5.06449284,20.6139598 5.00672773,20.1166211 L5,20 L4.99942712,7.071 L3.03553391,9.03553391 C2.64500961,9.4260582 2.01184464,9.4260582 1.62132034,9.03553391 C1.26083638,8.67504994 1.23310685,8.10781889 1.53813174,7.71552768 L1.62132034,7.62132034 L4.99942712,4.242 L5,4 C5,3.44771525 5.44771525,3 6,3 Z"/>
</svg>
