<svg xmlns="http://www.w3.org/2000/svg" width="24" height="24" viewBox="0 0 24 24">
  <path d="M9,22 C8.44771525,22 8,21.5522847 8,21 C8,20.4871642 8.38604019,20.0644928 8.88337887,20.0067277 L9,20 L18.585,20 L2.29289322,3.70710678 C1.90236893,3.31658249 1.90236893,2.68341751 2.29289322,2.29289322 C2.65337718,1.93240926 3.22060824,1.90467972 3.61289944,2.20970461 L3.70710678,2.29289322 L19.999,18.584 L20,9 C20,8.44771525 20.4477153,8 21,8 C21.5128358,8 21.9355072,8.38604019 21.9932723,8.88337887 L22,9 L21.9998557,20.9828385 C21.9999518,20.9885475 22,20.9942681 22,21 L21.9994506,21.0332468 C21.9989328,21.0489091 21.9980491,21.0645616 21.9967993,21.0801904 L22,21 C22,21.0506203 21.9962388,21.1003621 21.9889807,21.1489612 C21.9863719,21.165949 21.9832978,21.1833753 21.9797599,21.2007258 C21.9753602,21.2227461 21.9701664,21.2444365 21.964279,21.2658396 C21.9599023,21.2814633 21.9552713,21.2968513 21.9502619,21.3121425 C21.9438775,21.3317977 21.9366843,21.3515792 21.928896,21.3710585 C21.9218036,21.3887956 21.914321,21.4060985 21.9063266,21.4232215 C21.8966234,21.4438914 21.8862061,21.4642939 21.8751242,21.484277 C21.8685012,21.4963944 21.8613931,21.5086131 21.8540045,21.5207088 C21.8382813,21.546275 21.8215099,21.5711307 21.8036865,21.5951593 C21.7992821,21.6012086 21.7948255,21.6070733 21.7902954,21.6128994 C21.7381101,21.6796608 21.6796608,21.7381101 21.6148064,21.7887351 L21.7071068,21.7071068 C21.6717127,21.7425008 21.6343256,21.774687 21.5953066,21.8036654 C21.5711307,21.8215099 21.546275,21.8382813 21.5206602,21.8539326 C21.5086131,21.8613931 21.4963944,21.8685012 21.4840621,21.8753288 C21.4642939,21.8862061 21.4438914,21.8966234 21.4230991,21.9063462 C21.4060985,21.914321 21.3887956,21.9218036 21.371336,21.9287745 C21.3515792,21.9366843 21.3317977,21.9438775 21.3117364,21.9504533 C21.3053947,21.9524725 21.298628,21.9546094 21.2918437,21.9566726 L21.2708729,21.9628803 C21.2471983,21.9695267 21.2231682,21.9753235 21.1988177,21.9802356 C21.1912936,21.9816652 21.1838686,21.9830759 21.1764315,21.9844021 L21.1539846,21.9882174 L21.1539846,21.9882174 L21.1166211,21.9932723 C21.1068117,21.9944116 21.0969589,21.995409 21.087065,21.9962623 C21.077172,21.9970773 21.0681046,21.9977336 21.0590314,21.9982669 L21.033,21.998 L21,22 L9,22 Z"/>
</svg>
