<svg xmlns="http://www.w3.org/2000/svg" width="24" height="24" viewBox="0 0 24 24">
  <path d="M13,4 C13.5522847,4 14,4.44771525 14,5 C14,5.51283584 13.6139598,5.93550716 13.1166211,5.99327227 L13,6 L7.415,6 L19.7071068,18.2928932 C20.0976311,18.6834175 20.0976311,19.3165825 19.7071068,19.7071068 C19.3466228,20.0675907 18.7793918,20.0953203 18.3871006,19.7902954 L18.2928932,19.7071068 L6,7.415 L6,13 C6,13.5522847 5.55228475,14 5,14 C4.48716416,14 4.06449284,13.6139598 4.00672773,13.1166211 L4,13 L4,5 L4.00016755,4.98163795 C4.00059932,4.95798023 4.0018656,4.93433491 4.00396641,4.91074993 L4,5 C4,4.94937972 4.00376119,4.89963791 4.01101934,4.85103878 C4.01362808,4.83405099 4.01670217,4.81662474 4.02024007,4.79927424 C4.0246398,4.77725392 4.02983363,4.75556352 4.03572097,4.73416039 C4.04009773,4.71853672 4.04472872,4.70314866 4.04973809,4.68785748 C4.05612249,4.66820232 4.06331574,4.6484208 4.07110396,4.62894148 C4.07819642,4.61120435 4.08567905,4.5939015 4.09367336,4.57677845 C4.10337664,4.5561086 4.11379392,4.53570605 4.12487577,4.51572305 C4.13149883,4.50360556 4.13860692,4.49138689 4.14599545,4.47929125 C4.1617187,4.45372505 4.17849009,4.42886931 4.19631351,4.4048407 C4.20175344,4.39739696 4.20728448,4.39015759 4.21292769,4.38297765 C4.26026655,4.32273092 4.31457489,4.26782388 4.37455101,4.21968877 L4.38519363,4.21126487 L4.38519363,4.21126487 L4.29289322,4.29289322 C4.32828727,4.25749917 4.36567442,4.22531295 4.40469339,4.19633458 C4.42886931,4.17849009 4.45372505,4.1617187 4.47933981,4.14606743 C4.49138689,4.13860692 4.50360556,4.13149883 4.5159379,4.12467117 C4.53570605,4.11379392 4.5561086,4.10337664 4.57690085,4.09365378 C4.5939015,4.08567905 4.61120435,4.07819642 4.62866398,4.07122549 C4.6484208,4.06331574 4.66820232,4.05612249 4.68826359,4.04954668 C4.69460531,4.0475275 4.70137201,4.04539061 4.70815633,4.0433274 L4.72912705,4.03711974 C4.75280168,4.03047332 4.77683175,4.02467654 4.80118228,4.01976438 C4.80870645,4.01833482 4.81613141,4.01692406 4.82356849,4.01559786 L4.84601538,4.01178265 C4.85839634,4.00986911 4.8708523,4.00818267 4.88337887,4.00672773 L4.91578241,4.00353089 C4.92417133,4.00282612 4.93256745,4.00222686 4.94096861,4.0017331 L4.98,4.001 L5,4 L13,4 Z"/>
</svg>
