<svg xmlns="http://www.w3.org/2000/svg" width="24" height="24" viewBox="0 0 24 24">
  <path d="M6,3 C6.55228475,3 7,3.44771525 7,4 L7,4 L6.99942712,18.242 L9.62132034,15.6213203 L9.71552768,15.5381317 C10.1078189,15.2331068 10.6750499,15.2608364 11.0355339,15.6213203 C11.4260582,16.0118446 11.4260582,16.6450096 11.0355339,17.0355339 L11.0355339,17.0355339 L7.03553391,21.0355339 C6.88533226,21.1857356 6.69923701,21.2781673 6.50485863,21.3128293 L6.38745851,21.326694 L6.38745851,21.326694 L6.26939574,21.326694 C6.03349108,21.3128293 5.80156232,21.2157759 5.62132034,21.0355339 L5.62132034,21.0355339 L1.62132034,17.0355339 L1.53813174,16.9413266 C1.23310685,16.5490354 1.26083638,15.9818043 1.62132034,15.6213203 C2.01184464,15.2307961 2.64500961,15.2307961 3.03553391,15.6213203 L3.03553391,15.6213203 L4.99942712,17.585 L5,4 L5.00672773,3.88337887 C5.06449284,3.38604019 5.48716416,3 6,3 Z M18,3 C18.3550402,3 18.6668654,3.18502518 18.844312,3.46391182 L18.8511973,3.47568524 C18.8821009,3.49466587 18.912196,3.51548137 18.9413266,3.53813174 L19.0355339,3.62132034 L23.0355339,7.62132034 C23.4260582,8.01184464 23.4260582,8.64500961 23.0355339,9.03553391 C22.6750499,9.39601787 22.1078189,9.4237474 21.7155277,9.11872251 L21.6213203,9.03553391 L18.9994271,6.414 L19,20 C19,20.5522847 18.5522847,21 18,21 C17.4871642,21 17.0644928,20.6139598 17.0067277,20.1166211 L17,20 L16.9994271,7.071 L15.0355339,9.03553391 C14.6450096,9.4260582 14.0118446,9.4260582 13.6213203,9.03553391 C13.2608364,8.67504994 13.2331068,8.10781889 13.5381317,7.71552768 L13.6213203,7.62132034 L16.9994271,4.242 L17,4 C17,3.44771525 17.4477153,3 18,3 Z"/>
</svg>
