<svg xmlns="http://www.w3.org/2000/svg" width="24" height="24" viewBox="0 0 24 24">
  <path d="M8.70710678,13.2928932 C9.06759074,13.6533772 9.09532028,14.2206082 8.79029539,14.6128994 L8.70710678,14.7071068 L6.415,16.999 L20,17 C20.5522847,17 21,17.4477153 21,18 C21,18.5128358 20.6139598,18.9355072 20.1166211,18.9932723 L20,19 L6.414,18.999 L8.70710678,21.2928932 C9.09763107,21.6834175 9.09763107,22.3165825 8.70710678,22.7071068 C8.34662282,23.0675907 7.77939176,23.0953203 7.38710056,22.7902954 L7.29289322,22.7071068 L3.29289322,18.7071068 L3.21968877,18.625449 C3.21788692,18.6232039 3.21609456,18.6209509 3.21431175,18.6186899 L3.29289322,18.7071068 C3.25541716,18.6696307 3.22153744,18.6299202 3.19125405,18.588404 C3.17526991,18.5663358 3.16021129,18.5438079 3.14606743,18.5206602 C3.13860692,18.5086131 3.13149883,18.4963944 3.12467117,18.4840621 C3.11379392,18.4642939 3.10337664,18.4438914 3.09365378,18.4230991 C3.08567905,18.4060985 3.07819642,18.3887956 3.07122549,18.371336 C3.06331574,18.3515792 3.05612249,18.3317977 3.04954668,18.3117364 C3.04472872,18.2968513 3.04009773,18.2814633 3.03584514,18.265993 C3.02983363,18.2444365 3.0246398,18.2227461 3.02016515,18.2007941 C3.01670217,18.1833753 3.01362808,18.165949 3.0110178,18.1484669 C3.00811223,18.1294958 3.00576612,18.109847 3.00399798,18.090032 C3.00189498,18.0659949 3.00063489,18.042681 3.00018615,18.0193545 C3.00006675,18.0134712 3,18.0067434 3,18 L3.00018615,17.9806455 C3.00063489,17.957319 3.00189498,17.9340051 3.00396641,17.9107499 L3,18 C3,17.9493797 3.00376119,17.8996379 3.01101934,17.8510388 C3.01362808,17.834051 3.01670217,17.8166247 3.02024007,17.7992742 C3.0246398,17.7772539 3.02983363,17.7555635 3.03572097,17.7341604 C3.04009773,17.7185367 3.04472872,17.7031487 3.04973809,17.6878575 C3.05612249,17.6682023 3.06331574,17.6484208 3.07110396,17.6289415 C3.07819642,17.6112044 3.08567905,17.5939015 3.09367336,17.5767785 C3.10337664,17.5561086 3.11379392,17.5357061 3.12487577,17.515723 C3.13149883,17.5036056 3.13860692,17.4913869 3.14599545,17.4792912 C3.1617187,17.453725 3.17849009,17.4288693 3.19631351,17.4048407 C3.20071786,17.3987914 3.20517454,17.3929267 3.20970461,17.3871006 C3.23876172,17.3503032 3.26500785,17.3207786 3.29289322,17.2928932 L7.29289322,13.2928932 C7.68341751,12.9023689 8.31658249,12.9023689 8.70710678,13.2928932 Z M15.2928932,1.29289322 C15.6834175,0.902368927 16.3165825,0.902368927 16.7071068,1.29289322 L16.7071068,1.29289322 L20.7071068,5.29289322 C20.7329588,5.31874528 20.757402,5.34600622 20.7803112,5.37455101 L20.784,5.381 C20.7948255,5.39292666 20.7992821,5.39879136 20.8036654,5.40469339 C20.8215099,5.42886931 20.8382813,5.45372505 20.8539326,5.47933981 C20.8613931,5.49138689 20.8685012,5.50360556 20.8753288,5.5159379 C20.8862061,5.53570605 20.8966234,5.5561086 20.9063462,5.57690085 C20.914321,5.5939015 20.9218036,5.61120435 20.9287745,5.62866398 C20.9366843,5.6484208 20.9438775,5.66820232 20.9504533,5.68826359 C20.9552713,5.70314866 20.9599023,5.71853672 20.9641549,5.73400703 C20.9701664,5.75556352 20.9753602,5.77725392 20.9798348,5.7992059 C20.9832978,5.81662474 20.9863719,5.83405099 20.9889822,5.85153313 C20.9962388,5.89963791 21,5.94937972 21,6 L20.996384,5.91477577 C20.997855,5.93207691 20.9988772,5.94940903 20.9994506,5.96675322 L21,6 C21,6.01112662 20.9998183,6.02221079 20.9994576,6.03324971 C20.9989053,6.05026637 20.9978436,6.06826549 20.9962979,6.0862308 C20.9944666,6.10788605 20.9920328,6.12852466 20.9889807,6.14896122 C20.9863719,6.16594901 20.9832978,6.18337526 20.9797599,6.20072576 C20.9753602,6.22274608 20.9701664,6.24443648 20.964279,6.26583961 C20.9599023,6.28146328 20.9552713,6.29685134 20.9502619,6.31214252 C20.9438775,6.33179768 20.9366843,6.3515792 20.928896,6.37105852 C20.9218036,6.38879565 20.914321,6.4060985 20.9063266,6.42322155 C20.8966234,6.4438914 20.8862061,6.46429395 20.8751242,6.48427695 C20.8685012,6.49639444 20.8613931,6.50861311 20.8540045,6.52070875 C20.8507712,6.525834 20.8475642,6.53097686 20.844312,6.53608818 L20.808746,6.58840405 C20.7784626,6.6299202 20.7445828,6.66963073 20.7071068,6.70710678 L20.7856883,6.61868994 C20.7839054,6.62095086 20.7821131,6.6232039 20.7803112,6.62544899 L20.7071068,6.70710678 L16.7071068,10.7071068 L16.6128994,10.7902954 C16.2206082,11.0953203 15.6533772,11.0675907 15.2928932,10.7071068 C14.9023689,10.3165825 14.9023689,9.68341751 15.2928932,9.29289322 L15.2928932,9.29289322 L17.585,6.999 L4,7 L3.88337887,6.99327227 C3.38604019,6.93550716 3,6.51283584 3,6 C3,5.44771525 3.44771525,5 4,5 L4,5 L17.584,4.999 L15.2928932,2.70710678 L15.2097046,2.61289944 C14.9046797,2.22060824 14.9324093,1.65337718 15.2928932,1.29289322 Z"/>
</svg>
