<svg xmlns="http://www.w3.org/2000/svg" width="24" height="24" viewBox="0 0 24 24">
  <path d="M16.7071068,7.29289322 C17.0675907,7.65337718 17.0953203,8.22060824 16.7902954,8.61289944 L16.7071068,8.70710678 L9.414,16 L15,16 C15.5522847,16 16,16.4477153 16,17 C16,17.5128358 15.6139598,17.9355072 15.1166211,17.9932723 L15,18 L7,18 L6.96774538,17.9994829 C6.94973363,17.9989053 6.93173451,17.9978436 6.9137692,17.9962979 L6.88337887,17.9932723 L6.88337887,17.9932723 L6.84653191,17.9882226 C6.83886575,17.9870384 6.83121072,17.9857649 6.82356849,17.9844021 L6.80118228,17.9802356 C6.77683175,17.9753235 6.75280168,17.9695267 6.72912705,17.9628803 C6.71523112,17.9589028 6.70150571,17.9547331 6.68785748,17.9502619 C6.66820232,17.9438775 6.6484208,17.9366843 6.62894148,17.928896 C6.61120435,17.9218036 6.5939015,17.914321 6.57677845,17.9063266 C6.5561086,17.8966234 6.53570605,17.8862061 6.51572305,17.8751242 C6.50360556,17.8685012 6.49138689,17.8613931 6.47929125,17.8540045 C6.45372505,17.8382813 6.42886931,17.8215099 6.4048407,17.8036865 C6.39879136,17.7992821 6.39292666,17.7948255 6.38710056,17.7902954 C6.32033919,17.7381101 6.2618899,17.6796608 6.21126487,17.6148064 L6.29289322,17.7071068 C6.25749917,17.6717127 6.22531295,17.6343256 6.19633458,17.5953066 C6.17849009,17.5711307 6.1617187,17.546275 6.14606743,17.5206602 C6.13860692,17.5086131 6.13149883,17.4963944 6.12467117,17.4840621 C6.11379392,17.4642939 6.10337664,17.4438914 6.09365378,17.4230991 C6.08567905,17.4060985 6.07819642,17.3887956 6.07122549,17.371336 C6.06331574,17.3515792 6.05612249,17.3317977 6.04954668,17.3117364 C6.04472872,17.2968513 6.04009773,17.2814633 6.03584514,17.265993 C6.02983363,17.2444365 6.0246398,17.2227461 6.02016515,17.2007941 C6.01670217,17.1833753 6.01362808,17.165949 6.0110178,17.1484669 C6.00810098,17.1294204 6.00574796,17.1096949 6.00397748,17.0898018 C6.00189498,17.0659949 6.00063489,17.042681 6.00018615,17.0193545 C6.00006128,17.0129086 6,17.0064615 6,17 L6,9 C6,8.44771525 6.44771525,8 7,8 C7.51283584,8 7.93550716,8.38604019 7.99327227,8.88337887 L8,9 L8,14.584 L15.2928932,7.29289322 C15.6834175,6.90236893 16.3165825,6.90236893 16.7071068,7.29289322 Z"/>
</svg>
