<svg xmlns="http://www.w3.org/2000/svg" width="24" height="24" viewBox="0 0 24 24">
  <path d="M9,18 C8.44771525,18 8,17.5522847 8,17 C8,16.4871642 8.38604019,16.0644928 8.88337887,16.0067277 L9,16 L14.585,16 L7.29289322,8.70710678 C6.90236893,8.31658249 6.90236893,7.68341751 7.29289322,7.29289322 C7.65337718,6.93240926 8.22060824,6.90467972 8.61289944,7.20970461 L8.70710678,7.29289322 L15.999,14.584 L16,9 C16,8.44771525 16.4477153,8 17,8 C17.5128358,8 17.9355072,8.38604019 17.9932723,8.88337887 L18,9 L17.9998557,16.9828385 C17.9999518,16.9885475 18,16.9942681 18,17 L17.9994506,17.0332468 C17.9989328,17.0489091 17.9980491,17.0645616 17.9967993,17.0801904 L18,17 C18,17.0506203 17.9962388,17.1003621 17.9889807,17.1489612 C17.9863719,17.165949 17.9832978,17.1833753 17.9797599,17.2007258 C17.9753602,17.2227461 17.9701664,17.2444365 17.964279,17.2658396 C17.9599023,17.2814633 17.9552713,17.2968513 17.9502619,17.3121425 C17.9438775,17.3317977 17.9366843,17.3515792 17.928896,17.3710585 C17.9218036,17.3887956 17.914321,17.4060985 17.9063266,17.4232215 C17.8966234,17.4438914 17.8862061,17.4642939 17.8751242,17.484277 C17.8685012,17.4963944 17.8613931,17.5086131 17.8540045,17.5207088 C17.8382813,17.546275 17.8215099,17.5711307 17.8036865,17.5951593 C17.7992821,17.6012086 17.7948255,17.6070733 17.7902954,17.6128994 C17.7381101,17.6796608 17.6796608,17.7381101 17.6148064,17.7887351 L17.7071068,17.7071068 C17.6717127,17.7425008 17.6343256,17.774687 17.5953066,17.8036654 C17.5711307,17.8215099 17.546275,17.8382813 17.5206602,17.8539326 C17.5086131,17.8613931 17.4963944,17.8685012 17.4840621,17.8753288 C17.4642939,17.8862061 17.4438914,17.8966234 17.4230991,17.9063462 C17.4060985,17.914321 17.3887956,17.9218036 17.371336,17.9287745 C17.3515792,17.9366843 17.3317977,17.9438775 17.3117364,17.9504533 C17.3053947,17.9524725 17.298628,17.9546094 17.2918437,17.9566726 L17.2708729,17.9628803 C17.2471983,17.9695267 17.2231682,17.9753235 17.1988177,17.9802356 C17.1912936,17.9816652 17.1838686,17.9830759 17.1764315,17.9844021 L17.1539846,17.9882174 L17.1539846,17.9882174 L17.1166211,17.9932723 C17.1068117,17.9944116 17.0969589,17.995409 17.087065,17.9962623 C17.077172,17.9970773 17.0681046,17.9977336 17.0590314,17.9982669 L17.033,17.998 L17,18 L9,18 Z"/>
</svg>
