<svg xmlns="http://www.w3.org/2000/svg" width="24" height="24" viewBox="0 0 24 24">
  <path d="M18,3 C18.5522847,3 19,3.44771525 19,4 L19,4 L18.9994271,18.242 L21.6213203,15.6213203 L21.7155277,15.5381317 C22.1078189,15.2331068 22.6750499,15.2608364 23.0355339,15.6213203 C23.4260582,16.0118446 23.4260582,16.6450096 23.0355339,17.0355339 L23.0355339,17.0355339 L19.0355339,21.0355339 C18.8853323,21.1857356 18.699237,21.2781673 18.5048586,21.3128293 L18.3874585,21.326694 L18.3874585,21.326694 L18.2693957,21.326694 C18.0334911,21.3128293 17.8015623,21.2157759 17.6213203,21.0355339 L17.6213203,21.0355339 L13.6213203,17.0355339 L13.5381317,16.9413266 C13.2331068,16.5490354 13.2608364,15.9818043 13.6213203,15.6213203 C14.0118446,15.2307961 14.6450096,15.2307961 15.0355339,15.6213203 L15.0355339,15.6213203 L16.9994271,17.585 L17,4 L17.0067277,3.88337887 C17.0644928,3.38604019 17.4871642,3 18,3 Z M6,3 C6.55228475,3 7,3.44771525 7,4 L7,4 L6.99942712,18.242 L9.62132034,15.6213203 L9.71552768,15.5381317 C10.1078189,15.2331068 10.6750499,15.2608364 11.0355339,15.6213203 C11.4260582,16.0118446 11.4260582,16.6450096 11.0355339,17.0355339 L11.0355339,17.0355339 L7.03553391,21.0355339 C6.88533226,21.1857356 6.69923701,21.2781673 6.50485863,21.3128293 L6.38745851,21.326694 L6.38745851,21.326694 L6.26939574,21.326694 C6.03349108,21.3128293 5.80156232,21.2157759 5.62132034,21.0355339 L5.62132034,21.0355339 L1.62132034,17.0355339 L1.53813174,16.9413266 C1.23310685,16.5490354 1.26083638,15.9818043 1.62132034,15.6213203 C2.01184464,15.2307961 2.64500961,15.2307961 3.03553391,15.6213203 L3.03553391,15.6213203 L4.99942712,17.585 L5,4 L5.00672773,3.88337887 C5.06449284,3.38604019 5.48716416,3 6,3 Z"/>
</svg>
