<svg xmlns="http://www.w3.org/2000/svg" width="24" height="24" viewBox="0 0 24 24">
  <path d="M8.70710678,13.2928932 C9.06759074,13.6533772 9.09532028,14.2206082 8.79029539,14.6128994 L8.70710678,14.7071068 L6.414,17 L20,17 C20.5522847,17 21,17.4477153 21,18 C21,18.5128358 20.6139598,18.9355072 20.1166211,18.9932723 L20,19 L6.415,19 L8.70710678,21.2928932 C9.09763107,21.6834175 9.09763107,22.3165825 8.70710678,22.7071068 C8.34662282,23.0675907 7.77939176,23.0953203 7.38710056,22.7902954 L7.29289322,22.7071068 L3.29289322,18.7071068 L3.21968877,18.625449 C3.21788692,18.6232039 3.21609456,18.6209509 3.21431175,18.6186899 L3.29289322,18.7071068 C3.25541716,18.6696307 3.22153744,18.6299202 3.19125405,18.588404 C3.17526991,18.5663358 3.16021129,18.5438079 3.14606743,18.5206602 C3.13860692,18.5086131 3.13149883,18.4963944 3.12467117,18.4840621 C3.11379392,18.4642939 3.10337664,18.4438914 3.09365378,18.4230991 C3.08567905,18.4060985 3.07819642,18.3887956 3.07122549,18.371336 C3.06331574,18.3515792 3.05612249,18.3317977 3.04954668,18.3117364 C3.04472872,18.2968513 3.04009773,18.2814633 3.03584514,18.265993 C3.02983363,18.2444365 3.0246398,18.2227461 3.02016515,18.2007941 C3.01670217,18.1833753 3.01362808,18.165949 3.0110178,18.1484669 C3.00810098,18.1294204 3.00574796,18.1096949 3.00397748,18.0898018 C3.00189498,18.0659949 3.00063489,18.042681 3.00018615,18.0193545 C3.00006128,18.0129086 3,18.0064615 3,18 L3.00016755,17.9816379 C3.00059932,17.9579802 3.0018656,17.9343349 3.00396641,17.9107499 L3,18 C3,17.9493797 3.00376119,17.8996379 3.01101934,17.8510388 C3.01362808,17.834051 3.01670217,17.8166247 3.02024007,17.7992742 C3.0246398,17.7772539 3.02983363,17.7555635 3.03572097,17.7341604 C3.04009773,17.7185367 3.04472872,17.7031487 3.04973809,17.6878575 C3.05612249,17.6682023 3.06331574,17.6484208 3.07110396,17.6289415 C3.07819642,17.6112044 3.08567905,17.5939015 3.09367336,17.5767785 C3.10337664,17.5561086 3.11379392,17.5357061 3.12487577,17.515723 C3.13149883,17.5036056 3.13860692,17.4913869 3.14599545,17.4792912 C3.1617187,17.453725 3.17849009,17.4288693 3.19631351,17.4048407 C3.20071786,17.3987914 3.20517454,17.3929267 3.20970461,17.3871006 C3.23876172,17.3503032 3.26500785,17.3207786 3.29289322,17.2928932 L7.29289322,13.2928932 C7.68341751,12.9023689 8.31658249,12.9023689 8.70710678,13.2928932 Z M8.70710678,1.29289322 C9.06759074,1.65337718 9.09532028,2.22060824 8.79029539,2.61289944 L8.70710678,2.70710678 L6.414,5 L20,5 C20.5522847,5 21,5.44771525 21,6 C21,6.51283584 20.6139598,6.93550716 20.1166211,6.99327227 L20,7 L6.415,7 L8.70710678,9.29289322 C9.09763107,9.68341751 9.09763107,10.3165825 8.70710678,10.7071068 C8.34662282,11.0675907 7.77939176,11.0953203 7.38710056,10.7902954 L7.29289322,10.7071068 L3.29289322,6.70710678 L3.21968877,6.62544899 C3.21788692,6.6232039 3.21609456,6.62095086 3.21431175,6.61868994 L3.29289322,6.70710678 C3.25541716,6.66963073 3.22153744,6.6299202 3.19125405,6.58840405 C3.17526991,6.56633584 3.16021129,6.54380794 3.14606743,6.52066019 C3.13860692,6.50861311 3.13149883,6.49639444 3.12467117,6.4840621 C3.11379392,6.46429395 3.10337664,6.4438914 3.09365378,6.42309915 C3.08567905,6.4060985 3.07819642,6.38879565 3.07122549,6.37133602 C3.06331574,6.3515792 3.05612249,6.33179768 3.04954668,6.31173641 C3.04472872,6.29685134 3.04009773,6.28146328 3.03584514,6.26599297 C3.02983363,6.24443648 3.0246398,6.22274608 3.02016515,6.2007941 C3.01670217,6.18337526 3.01362808,6.16594901 3.0110178,6.14846687 C3.00810098,6.12942044 3.00574796,6.10969493 3.00397748,6.08980185 C3.00189498,6.06599489 3.00063489,6.04268105 3.00018615,6.0193545 C3.00006128,6.01290861 3,6.00646146 3,6 L3.00016755,5.98163795 C3.00059932,5.95798023 3.0018656,5.93433491 3.00396641,5.91074993 L3,6 C3,5.94937972 3.00376119,5.89963791 3.01101934,5.85103878 C3.01362808,5.83405099 3.01670217,5.81662474 3.02024007,5.79927424 C3.0246398,5.77725392 3.02983363,5.75556352 3.03572097,5.73416039 C3.04009773,5.71853672 3.04472872,5.70314866 3.04973809,5.68785748 C3.05612249,5.66820232 3.06331574,5.6484208 3.07110396,5.62894148 C3.07819642,5.61120435 3.08567905,5.5939015 3.09367336,5.57677845 C3.10337664,5.5561086 3.11379392,5.53570605 3.12487577,5.51572305 C3.13149883,5.50360556 3.13860692,5.49138689 3.14599545,5.47929125 C3.1617187,5.45372505 3.17849009,5.42886931 3.19631351,5.4048407 C3.20071786,5.39879136 3.20517454,5.39292666 3.20970461,5.38710056 C3.23876172,5.35030318 3.26500785,5.32077858 3.29289322,5.29289322 L7.29289322,1.29289322 C7.68341751,0.902368927 8.31658249,0.902368927 8.70710678,1.29289322 Z"/>
</svg>
