<svg xmlns="http://www.w3.org/2000/svg" width="24" height="24" viewBox="0 0 24 24">
  <path d="M19.7071068,4.29289322 C20.0675907,4.65337718 20.0953203,5.22060824 19.7902954,5.61289944 L19.7071068,5.70710678 L7.414,18 L13,18 C13.5522847,18 14,18.4477153 14,19 C14,19.5128358 13.6139598,19.9355072 13.1166211,19.9932723 L13,20 L5,20 L4.96774538,19.9994829 C4.94973363,19.9989053 4.93173451,19.9978436 4.9137692,19.9962979 L4.88337887,19.9932723 L4.88337887,19.9932723 L4.84653191,19.9882226 C4.83886575,19.9870384 4.83121072,19.9857649 4.82356849,19.9844021 L4.80118228,19.9802356 C4.77683175,19.9753235 4.75280168,19.9695267 4.72912705,19.9628803 C4.71523112,19.9589028 4.70150571,19.9547331 4.68785748,19.9502619 C4.66820232,19.9438775 4.6484208,19.9366843 4.62894148,19.928896 C4.61120435,19.9218036 4.5939015,19.914321 4.57677845,19.9063266 C4.5561086,19.8966234 4.53570605,19.8862061 4.51572305,19.8751242 C4.50360556,19.8685012 4.49138689,19.8613931 4.47929125,19.8540045 C4.45372505,19.8382813 4.42886931,19.8215099 4.4048407,19.8036865 C4.39879136,19.7992821 4.39292666,19.7948255 4.38710056,19.7902954 C4.32033919,19.7381101 4.2618899,19.6796608 4.21126487,19.6148064 L4.29289322,19.7071068 C4.25749917,19.6717127 4.22531295,19.6343256 4.19633458,19.5953066 C4.17849009,19.5711307 4.1617187,19.546275 4.14606743,19.5206602 C4.13860692,19.5086131 4.13149883,19.4963944 4.12467117,19.4840621 C4.11379392,19.4642939 4.10337664,19.4438914 4.09365378,19.4230991 C4.08567905,19.4060985 4.07819642,19.3887956 4.07122549,19.371336 C4.06331574,19.3515792 4.05612249,19.3317977 4.04954668,19.3117364 C4.04472872,19.2968513 4.04009773,19.2814633 4.03584514,19.265993 C4.02983363,19.2444365 4.0246398,19.2227461 4.02016515,19.2007941 C4.01670217,19.1833753 4.01362808,19.165949 4.0110178,19.1484669 C4.00810098,19.1294204 4.00574796,19.1096949 4.00397748,19.0898018 C4.00189498,19.0659949 4.00063489,19.042681 4.00018615,19.0193545 C4.00006128,19.0129086 4,19.0064615 4,19 L4,11 C4,10.4477153 4.44771525,10 5,10 C5.51283584,10 5.93550716,10.3860402 5.99327227,10.8833789 L6,11 L6,16.584 L18.2928932,4.29289322 C18.6834175,3.90236893 19.3165825,3.90236893 19.7071068,4.29289322 Z"/>
</svg>
