<svg xmlns="http://www.w3.org/2000/svg" width="24" height="24" viewBox="0 0 24 24">
  <path d="M15.2928932,13.2928932 C15.6834175,12.9023689 16.3165825,12.9023689 16.7071068,13.2928932 L16.7071068,13.2928932 L20.7071068,17.2928932 C20.7329588,17.3187453 20.757402,17.3460062 20.7803112,17.374551 L20.784,17.381 C20.7948255,17.3929267 20.7992821,17.3987914 20.8036654,17.4046934 C20.8215099,17.4288693 20.8382813,17.453725 20.8539326,17.4793398 C20.8613931,17.4913869 20.8685012,17.5036056 20.8753288,17.5159379 C20.8862061,17.5357061 20.8966234,17.5561086 20.9063462,17.5769009 C20.914321,17.5939015 20.9218036,17.6112044 20.9287745,17.628664 C20.9366843,17.6484208 20.9438775,17.6682023 20.9504533,17.6882636 C20.9552713,17.7031487 20.9599023,17.7185367 20.9641549,17.734007 C20.9701664,17.7555635 20.9753602,17.7772539 20.9798348,17.7992059 C20.9832978,17.8166247 20.9863719,17.834051 20.9889822,17.8515331 C20.9962388,17.8996379 21,17.9493797 21,18 L20.996384,17.9147758 C20.997855,17.9320769 20.9988772,17.949409 20.9994506,17.9667532 L21,18 C21,18.0111266 20.9998183,18.0222108 20.9994576,18.0332497 C20.9989053,18.0502664 20.9978436,18.0682655 20.9962979,18.0862308 C20.9944666,18.107886 20.9920328,18.1285247 20.9889807,18.1489612 C20.9863719,18.165949 20.9832978,18.1833753 20.9797599,18.2007258 C20.9753602,18.2227461 20.9701664,18.2444365 20.964279,18.2658396 C20.9599023,18.2814633 20.9552713,18.2968513 20.9502619,18.3121425 C20.9438775,18.3317977 20.9366843,18.3515792 20.928896,18.3710585 C20.9218036,18.3887956 20.914321,18.4060985 20.9063266,18.4232215 C20.8966234,18.4438914 20.8862061,18.4642939 20.8751242,18.484277 C20.8685012,18.4963944 20.8613931,18.5086131 20.8540045,18.5207088 C20.8507712,18.525834 20.8475642,18.5309769 20.844312,18.5360882 L20.808746,18.588404 C20.7784626,18.6299202 20.7445828,18.6696307 20.7071068,18.7071068 L20.7856883,18.6186899 C20.7839054,18.6209509 20.7821131,18.6232039 20.7803112,18.625449 L20.7071068,18.7071068 L16.7071068,22.7071068 L16.6128994,22.7902954 C16.2206082,23.0953203 15.6533772,23.0675907 15.2928932,22.7071068 C14.9023689,22.3165825 14.9023689,21.6834175 15.2928932,21.2928932 L15.2928932,21.2928932 L17.585,18.999 L4,19 L3.88337887,18.9932723 C3.38604019,18.9355072 3,18.5128358 3,18 C3,17.4477153 3.44771525,17 4,17 L4,17 L17.584,16.999 L15.2928932,14.7071068 L15.2097046,14.6128994 C14.9046797,14.2206082 14.9324093,13.6533772 15.2928932,13.2928932 Z M8.70710678,1.29289322 C9.06759074,1.65337718 9.09532028,2.22060824 8.79029539,2.61289944 L8.70710678,2.70710678 L6.415,4.999 L20,5 C20.5522847,5 21,5.44771525 21,6 C21,6.51283584 20.6139598,6.93550716 20.1166211,6.99327227 L20,7 L6.414,6.999 L8.70710678,9.29289322 C9.09763107,9.68341751 9.09763107,10.3165825 8.70710678,10.7071068 C8.34662282,11.0675907 7.77939176,11.0953203 7.38710056,10.7902954 L7.29289322,10.7071068 L3.29289322,6.70710678 L3.21968877,6.62544899 C3.21788692,6.6232039 3.21609456,6.62095086 3.21431175,6.61868994 L3.29289322,6.70710678 C3.25541716,6.66963073 3.22153744,6.6299202 3.19125405,6.58840405 C3.17526991,6.56633584 3.16021129,6.54380794 3.14606743,6.52066019 C3.13860692,6.50861311 3.13149883,6.49639444 3.12467117,6.4840621 C3.11379392,6.46429395 3.10337664,6.4438914 3.09365378,6.42309915 C3.08567905,6.4060985 3.07819642,6.38879565 3.07122549,6.37133602 C3.06331574,6.3515792 3.05612249,6.33179768 3.04954668,6.31173641 C3.04472872,6.29685134 3.04009773,6.28146328 3.03584514,6.26599297 C3.02983363,6.24443648 3.0246398,6.22274608 3.02016515,6.2007941 C3.01670217,6.18337526 3.01362808,6.16594901 3.0110178,6.14846687 C3.00811223,6.12949579 3.00576612,6.10984704 3.00399798,6.09003195 C3.00189498,6.06599489 3.00063489,6.04268105 3.00018615,6.0193545 C3.00006675,6.01347122 3,6.0067434 3,6 L3.00018615,5.9806455 C3.00063489,5.95731895 3.00189498,5.93400511 3.00396641,5.91074993 L3,6 C3,5.94937972 3.00376119,5.89963791 3.01101934,5.85103878 C3.01362808,5.83405099 3.01670217,5.81662474 3.02024007,5.79927424 C3.0246398,5.77725392 3.02983363,5.75556352 3.03572097,5.73416039 C3.04009773,5.71853672 3.04472872,5.70314866 3.04973809,5.68785748 C3.05612249,5.66820232 3.06331574,5.6484208 3.07110396,5.62894148 C3.07819642,5.61120435 3.08567905,5.5939015 3.09367336,5.57677845 C3.10337664,5.5561086 3.11379392,5.53570605 3.12487577,5.51572305 C3.13149883,5.50360556 3.13860692,5.49138689 3.14599545,5.47929125 C3.1617187,5.45372505 3.17849009,5.42886931 3.19631351,5.4048407 C3.20071786,5.39879136 3.20517454,5.39292666 3.20970461,5.38710056 C3.23876172,5.35030318 3.26500785,5.32077858 3.29289322,5.29289322 L7.29289322,1.29289322 C7.68341751,0.902368927 8.31658249,0.902368927 8.70710678,1.29289322 Z"/>
</svg>
