<svg xmlns="http://www.w3.org/2000/svg" width="24" height="24" viewBox="0 0 24 24">
  <path d="M11,2 C11.5522847,2 12,2.44771525 12,3 C12,3.51283584 11.6139598,3.93550716 11.1166211,3.99327227 L11,4 L5.415,4 L21.7071068,20.2928932 C22.0976311,20.6834175 22.0976311,21.3165825 21.7071068,21.7071068 C21.3466228,22.0675907 20.7793918,22.0953203 20.3871006,21.7902954 L20.2928932,21.7071068 L4,5.415 L4,11 C4,11.5522847 3.55228475,12 3,12 C2.48716416,12 2.06449284,11.6139598 2.00672773,11.1166211 L2,11 L2,3 L2.00016755,2.98163795 C2.00059932,2.95798023 2.0018656,2.93433491 2.00396641,2.91074993 L2,3 C2,2.94937972 2.00376119,2.89963791 2.01101934,2.85103878 C2.01362808,2.83405099 2.01670217,2.81662474 2.02024007,2.79927424 C2.0246398,2.77725392 2.02983363,2.75556352 2.03572097,2.73416039 C2.04009773,2.71853672 2.04472872,2.70314866 2.04973809,2.68785748 C2.05612249,2.66820232 2.06331574,2.6484208 2.07110396,2.62894148 C2.07819642,2.61120435 2.08567905,2.5939015 2.09367336,2.57677845 C2.10337664,2.5561086 2.11379392,2.53570605 2.12487577,2.51572305 C2.13149883,2.50360556 2.13860692,2.49138689 2.14599545,2.47929125 C2.1617187,2.45372505 2.17849009,2.42886931 2.19631351,2.4048407 C2.20175344,2.39739696 2.20728448,2.39015759 2.21292769,2.38297765 C2.26026655,2.32273092 2.31457489,2.26782388 2.37455101,2.21968877 L2.38519363,2.21126487 L2.38519363,2.21126487 L2.29289322,2.29289322 C2.32828727,2.25749917 2.36567442,2.22531295 2.40469339,2.19633458 C2.42886931,2.17849009 2.45372505,2.1617187 2.47933981,2.14606743 C2.49138689,2.13860692 2.50360556,2.13149883 2.5159379,2.12467117 C2.53570605,2.11379392 2.5561086,2.10337664 2.57690085,2.09365378 C2.5939015,2.08567905 2.61120435,2.07819642 2.62866398,2.07122549 C2.6484208,2.06331574 2.66820232,2.05612249 2.68826359,2.04954668 C2.69460531,2.0475275 2.70137201,2.04539061 2.70815633,2.0433274 L2.72912705,2.03711974 C2.75280168,2.03047332 2.77683175,2.02467654 2.80118228,2.01976438 C2.80870645,2.01833482 2.81613141,2.01692406 2.82356849,2.01559786 L2.84601538,2.01178265 C2.85839634,2.00986911 2.8708523,2.00818267 2.88337887,2.00672773 L2.91578241,2.00353089 C2.93769794,2.00168973 2.95966259,2.00056861 2.98163795,2.00016755 C2.9872016,2.00006024 2.99359377,2 3,2 L11,2 Z"/>
</svg>
