<svg xmlns="http://www.w3.org/2000/svg" width="24" height="24" viewBox="0 0 24 24">
  <path d="M18,3 C18.5522847,3 19,3.44771525 19,4 L19,4 L18.9994271,18.242 L21.6213203,15.6213203 L21.7155277,15.5381317 C22.1078189,15.2331068 22.6750499,15.2608364 23.0355339,15.6213203 C23.4260582,16.0118446 23.4260582,16.6450096 23.0355339,17.0355339 L23.0355339,17.0355339 L19.0355339,21.0355339 C18.8853323,21.1857356 18.699237,21.2781673 18.5048586,21.3128293 L18.3874585,21.326694 L18.3874585,21.326694 L18.2693957,21.326694 C18.0334911,21.3128293 17.8015623,21.2157759 17.6213203,21.0355339 L17.6213203,21.0355339 L13.6213203,17.0355339 L13.5381317,16.9413266 C13.2331068,16.5490354 13.2608364,15.9818043 13.6213203,15.6213203 C14.0118446,15.2307961 14.6450096,15.2307961 15.0355339,15.6213203 L15.0355339,15.6213203 L16.9994271,17.585 L17,4 L17.0067277,3.88337887 C17.0644928,3.38604019 17.4871642,3 18,3 Z M6,3 C6.3550402,3 6.66686545,3.18502518 6.84431203,3.46391182 L6.85119731,3.47568524 C6.88210085,3.49466587 6.91219603,3.51548137 6.94132657,3.53813174 L7.03553391,3.62132034 L11.0355339,7.62132034 C11.4260582,8.01184464 11.4260582,8.64500961 11.0355339,9.03553391 C10.6750499,9.39601787 10.1078189,9.4237474 9.71552768,9.11872251 L9.62132034,9.03553391 L6.99942712,6.414 L7,20 C7,20.5522847 6.55228475,21 6,21 C5.48716416,21 5.06449284,20.6139598 5.00672773,20.1166211 L5,20 L4.99942712,7.071 L3.03553391,9.03553391 C2.64500961,9.4260582 2.01184464,9.4260582 1.62132034,9.03553391 C1.26083638,8.67504994 1.23310685,8.10781889 1.53813174,7.71552768 L1.62132034,7.62132034 L4.99942712,4.242 L5,4 C5,3.44771525 5.44771525,3 6,3 Z"/>
</svg>
