<svg xmlns="http://www.w3.org/2000/svg" width="24" height="24" viewBox="0 0 24 24">
  <path d="M15.2928932,13.2928932 C15.6834175,12.9023689 16.3165825,12.9023689 16.7071068,13.2928932 L16.7071068,13.2928932 L20.7071068,17.2928932 C20.7329588,17.3187453 20.757402,17.3460062 20.7803112,17.374551 L20.784,17.381 C20.7948255,17.3929267 20.7992821,17.3987914 20.8036654,17.4046934 C20.8215099,17.4288693 20.8382813,17.453725 20.8539326,17.4793398 C20.8613931,17.4913869 20.8685012,17.5036056 20.8753288,17.5159379 C20.8862061,17.5357061 20.8966234,17.5561086 20.9063462,17.5769009 C20.914321,17.5939015 20.9218036,17.6112044 20.9287745,17.628664 C20.9366843,17.6484208 20.9438775,17.6682023 20.9504533,17.6882636 C20.9552713,17.7031487 20.9599023,17.7185367 20.9641549,17.734007 C20.9701664,17.7555635 20.9753602,17.7772539 20.9798348,17.7992059 C20.9832978,17.8166247 20.9863719,17.834051 20.9889822,17.8515331 C20.9962388,17.8996379 21,17.9493797 21,18 L20.996384,17.9147758 C20.997855,17.9320769 20.9988772,17.949409 20.9994506,17.9667532 L21,18 C21,18.0111266 20.9998183,18.0222108 20.9994576,18.0332497 C20.9989053,18.0502664 20.9978436,18.0682655 20.9962979,18.0862308 C20.9944666,18.107886 20.9920328,18.1285247 20.9889807,18.1489612 C20.9863719,18.165949 20.9832978,18.1833753 20.9797599,18.2007258 C20.9753602,18.2227461 20.9701664,18.2444365 20.964279,18.2658396 C20.9599023,18.2814633 20.9552713,18.2968513 20.9502619,18.3121425 C20.9438775,18.3317977 20.9366843,18.3515792 20.928896,18.3710585 C20.9218036,18.3887956 20.914321,18.4060985 20.9063266,18.4232215 C20.8966234,18.4438914 20.8862061,18.4642939 20.8751242,18.484277 C20.8685012,18.4963944 20.8613931,18.5086131 20.8540045,18.5207088 C20.8507712,18.525834 20.8475642,18.5309769 20.844312,18.5360882 L20.808746,18.588404 C20.7784626,18.6299202 20.7445828,18.6696307 20.7071068,18.7071068 L20.7856883,18.6186899 C20.7839054,18.6209509 20.7821131,18.6232039 20.7803112,18.625449 L20.7071068,18.7071068 L16.7071068,22.7071068 L16.6128994,22.7902954 C16.2206082,23.0953203 15.6533772,23.0675907 15.2928932,22.7071068 C14.9023689,22.3165825 14.9023689,21.6834175 15.2928932,21.2928932 L15.2928932,21.2928932 L17.585,18.999 L4,19 L3.88337887,18.9932723 C3.38604019,18.9355072 3,18.5128358 3,18 C3,17.4477153 3.44771525,17 4,17 L4,17 L17.584,16.999 L15.2928932,14.7071068 L15.2097046,14.6128994 C14.9046797,14.2206082 14.9324093,13.6533772 15.2928932,13.2928932 Z M15.2928932,1.29289322 C15.6834175,0.902368927 16.3165825,0.902368927 16.7071068,1.29289322 L16.7071068,1.29289322 L20.7071068,5.29289322 C20.7329588,5.31874528 20.757402,5.34600622 20.7803112,5.37455101 L20.784,5.381 C20.7948255,5.39292666 20.7992821,5.39879136 20.8036654,5.40469339 C20.8215099,5.42886931 20.8382813,5.45372505 20.8539326,5.47933981 C20.8613931,5.49138689 20.8685012,5.50360556 20.8753288,5.5159379 C20.8862061,5.53570605 20.8966234,5.5561086 20.9063462,5.57690085 C20.914321,5.5939015 20.9218036,5.61120435 20.9287745,5.62866398 C20.9366843,5.6484208 20.9438775,5.66820232 20.9504533,5.68826359 C20.9552713,5.70314866 20.9599023,5.71853672 20.9641549,5.73400703 C20.9701664,5.75556352 20.9753602,5.77725392 20.9798348,5.7992059 C20.9832978,5.81662474 20.9863719,5.83405099 20.9889822,5.85153313 C20.9962388,5.89963791 21,5.94937972 21,6 L20.996384,5.91477577 C20.997855,5.93207691 20.9988772,5.94940903 20.9994506,5.96675322 L21,6 C21,6.01112662 20.9998183,6.02221079 20.9994576,6.03324971 C20.9989053,6.05026637 20.9978436,6.06826549 20.9962979,6.0862308 C20.9944666,6.10788605 20.9920328,6.12852466 20.9889807,6.14896122 C20.9863719,6.16594901 20.9832978,6.18337526 20.9797599,6.20072576 C20.9753602,6.22274608 20.9701664,6.24443648 20.964279,6.26583961 C20.9599023,6.28146328 20.9552713,6.29685134 20.9502619,6.31214252 C20.9438775,6.33179768 20.9366843,6.3515792 20.928896,6.37105852 C20.9218036,6.38879565 20.914321,6.4060985 20.9063266,6.42322155 C20.8966234,6.4438914 20.8862061,6.46429395 20.8751242,6.48427695 C20.8685012,6.49639444 20.8613931,6.50861311 20.8540045,6.52070875 C20.8507712,6.525834 20.8475642,6.53097686 20.844312,6.53608818 L20.808746,6.58840405 C20.7784626,6.6299202 20.7445828,6.66963073 20.7071068,6.70710678 L20.7856883,6.61868994 C20.7839054,6.62095086 20.7821131,6.6232039 20.7803112,6.62544899 L20.7071068,6.70710678 L16.7071068,10.7071068 L16.6128994,10.7902954 C16.2206082,11.0953203 15.6533772,11.0675907 15.2928932,10.7071068 C14.9023689,10.3165825 14.9023689,9.68341751 15.2928932,9.29289322 L15.2928932,9.29289322 L17.585,6.999 L4,7 L3.88337887,6.99327227 C3.38604019,6.93550716 3,6.51283584 3,6 C3,5.44771525 3.44771525,5 4,5 L4,5 L17.584,4.999 L15.2928932,2.70710678 L15.2097046,2.61289944 C14.9046797,2.22060824 14.9324093,1.65337718 15.2928932,1.29289322 Z"/>
</svg>
