<svg xmlns="http://www.w3.org/2000/svg" width="24" height="24" viewBox="0 0 24 24">
  <path d="M8.36396103,5.63603897 C8.72444499,5.99652293 8.75217453,6.56375399 8.44714964,6.95604519 L8.36396103,7.05025253 L4.414,10.9991458 L22,11 C22.5522847,11 23,11.4477153 23,12 C23,12.5128358 22.6139598,12.9355072 22.1166211,12.9932723 L22,13 L4.414,12.9991458 L8.36396103,16.9497475 C8.75448532,17.3402718 8.75448532,17.9734367 8.36396103,18.363961 C8.00347707,18.724445 7.43624601,18.7521745 7.04395481,18.4471496 L6.94974747,18.363961 L1.29289322,12.7071068 L1.21968877,12.625449 C1.21739784,12.6225945 1.21512226,12.6197272 1.21286214,12.6168472 L1.29289322,12.7071068 C1.25482231,12.6690359 1.2204628,12.628659 1.1898147,12.5864257 C1.17541687,12.5664533 1.16150681,12.5456983 1.14837237,12.5244138 C1.13863517,12.5087703 1.12981337,12.4935488 1.12142608,12.4781534 C1.11185933,12.4604898 1.10247102,12.4419547 1.09365378,12.4230991 C1.08567905,12.4060985 1.07819642,12.3887956 1.07122549,12.371336 C1.06331574,12.3515792 1.05612249,12.3317977 1.04954668,12.3117364 C1.04472872,12.2968513 1.04009773,12.2814633 1.03584514,12.265993 C1.02983363,12.2444365 1.0246398,12.2227461 1.02016515,12.2007941 C1.01671819,12.1834538 1.01365592,12.1661068 1.01105328,12.1487043 C1.00806389,12.1291721 1.00568824,12.1091935 1.00391025,12.0890432 C1.00190536,12.0660447 1.00065719,12.0430382 1.00019915,12.0200189 C1.00006675,12.0134712 1,12.0067434 1,12 L1.00017973,11.9809819 C1.0006228,11.9575431 1.00188502,11.9341169 1.00396641,11.9107499 L1,12 C1,11.9493797 1.00376119,11.8996379 1.01101934,11.8510388 C1.01362808,11.834051 1.01670217,11.8166247 1.02024007,11.7992742 C1.0246398,11.7772539 1.02983363,11.7555635 1.03572097,11.7341604 C1.04017413,11.7182588 1.04489522,11.7025958 1.05000842,11.6870335 C1.0559003,11.6689468 1.06244532,11.6508514 1.06948879,11.6330072 C1.07731015,11.613165 1.08591191,11.5932325 1.09519221,11.5735404 C1.1040443,11.5549095 1.1131069,11.5371537 1.12267436,11.5197141 C1.12986112,11.5064305 1.13772719,11.4928304 1.14593987,11.4793822 C1.15891923,11.4583066 1.17252629,11.4377852 1.1868509,11.4178133 C1.19602294,11.4048869 1.20595004,11.3917355 1.21624472,11.3787805 C1.2404037,11.3484595 1.26587927,11.3199072 1.29289322,11.2928932 L6.94974747,5.63603897 C7.34027176,5.24551468 7.97343674,5.24551468 8.36396103,5.63603897 Z"/>
</svg>
