<svg xmlns="http://www.w3.org/2000/svg" width="24" height="24" viewBox="0 0 24 24">
  <path d="M12,8 C12.0064615,8 12.0129086,8.00006128 12.0193409,8.0001833 L12.0590314,8.0017331 C12.0691128,8.00232561 12.0791869,8.00307004 12.0892501,8.00396641 C12.1096949,8.00574796 12.1294204,8.00810098 12.1489612,8.01101934 C12.165949,8.01362808 12.1833753,8.01670217 12.2007258,8.02024007 C12.2227461,8.0246398 12.2444365,8.02983363 12.2658396,8.03572097 C12.2814633,8.04009773 12.2968513,8.04472872 12.3121425,8.04973809 C12.3317977,8.05612249 12.3515792,8.06331574 12.3710585,8.07110396 C12.3887956,8.07819642 12.4060985,8.08567905 12.4232215,8.09367336 C12.4438914,8.10337664 12.4642939,8.11379392 12.484277,8.12487577 C12.4963944,8.13149883 12.5086131,8.13860692 12.5207088,8.14599545 C12.546275,8.1617187 12.5711307,8.17849009 12.5951593,8.19631351 C12.6343256,8.22531295 12.6717127,8.25749917 12.7071068,8.29289322 L12.6167501,8.21278596 C12.6196628,8.21507113 12.6225624,8.2173721 12.625449,8.21968877 L12.7071068,8.29289322 L16.9497475,12.5355339 L17.0329361,12.6297412 C17.337961,13.0220325 17.3102314,13.5892635 16.9497475,13.9497475 C16.5592232,14.3402718 15.9260582,14.3402718 15.5355339,13.9497475 L15.5355339,13.9497475 L13,11.415 L13,21 L12.9932723,21.1166211 C12.9355072,21.6139598 12.5128358,22 12,22 C11.4477153,22 11,21.5522847 11,21 L11,21 L11,11.413 L8.46446609,13.9497475 L8.37025876,14.0329361 C7.97796755,14.337961 7.41073649,14.3102314 7.05025253,13.9497475 C6.65972824,13.5592232 6.65972824,12.9260582 7.05025253,12.5355339 L7.05025253,12.5355339 L11.2928932,8.29289322 L11.374551,8.21968877 C11.3774376,8.2173721 11.3803372,8.21507113 11.3832499,8.21278596 C11.3929267,8.20517454 11.3987914,8.20071786 11.4046934,8.19633458 C11.4288693,8.17849009 11.453725,8.1617187 11.4793398,8.14606743 C11.4913869,8.13860692 11.5036056,8.13149883 11.5159379,8.12467117 C11.5357061,8.11379392 11.5561086,8.10337664 11.5769009,8.09365378 C11.5939015,8.08567905 11.6112044,8.07819642 11.628664,8.07122549 C11.6484208,8.06331574 11.6682023,8.05612249 11.6882636,8.04954668 C11.7031487,8.04472872 11.7185367,8.04009773 11.734007,8.03584514 C11.7555635,8.02983363 11.7772539,8.0246398 11.7992059,8.02016515 C11.8166247,8.01670217 11.834051,8.01362808 11.8515331,8.0110178 C11.8996379,8.00376119 11.9493797,8 12,8 L11.9107499,8.00396641 C11.9208131,8.00307004 11.9308872,8.00232561 11.9409686,8.0017331 L11.981,8.001 Z M19,2 C20.5976809,2 21.9036609,3.24891996 21.9949073,4.82372721 L22,5 L22,19 C22,20.5976809 20.75108,21.9036609 19.1762728,21.9949073 L19,22 L16.1428571,22 C15.5905724,22 15.1428571,21.5522847 15.1428571,21 C15.1428571,20.4871642 15.5288973,20.0644928 16.026236,20.0067277 L16.1428571,20 L19,20 C19.5128358,20 19.9355072,19.6139598 19.9932723,19.1166211 L20,19 L20,5 C20,4.48716416 19.6139598,4.06449284 19.1166211,4.00672773 L19,4 L5,4 C4.48716416,4 4.06449284,4.38604019 4.00672773,4.88337887 L4,5 L4,19 C4,19.5128358 4.38604019,19.9355072 4.88337887,19.9932723 L5,20 L7.85714286,20 C8.40942761,20 8.85714286,20.4477153 8.85714286,21 C8.85714286,21.5128358 8.47110267,21.9355072 7.97376398,21.9932723 L7.85714286,22 L5,22 C3.40231912,22 2.09633912,20.75108 2.00509269,19.1762728 L2,19 L2,5 C2,3.40231912 3.24891996,2.09633912 4.82372721,2.00509269 L5,2 L19,2 Z"/>
</svg>
