<svg xmlns="http://www.w3.org/2000/svg" width="24" height="24" viewBox="0 0 24 24">
  <path d="M9,16 L9,17 C9,17.5128358 9.38604019,17.9355072 9.88337887,17.9932723 L10,18 L14,18 C14.5128358,18 14.9355072,17.6139598 14.9932723,17.1166211 L15,17 L15,16 L22,16 L22,20 C22,21.1045695 21.1045695,22 20,22 L4,22 C2.8954305,22 2,21.1045695 2,20 L2,16 L9,16 Z M13,14 L13,16 L11,16 L11,14 L13,14 Z M14,2 C15.5976809,2 16.9036609,3.24891996 16.9949073,4.82372721 L17,5 L17,6 L20,6 C21.1045695,6 22,6.8954305 22,8 L22,14 L15,14 L15,13 C15,12.4871642 14.6139598,12.0644928 14.1166211,12.0067277 L14,12 L10,12 C9.48716416,12 9.06449284,12.3860402 9.00672773,12.8833789 L9,13 L9,14 L2,14 L2,8 C2,6.8954305 2.8954305,6 4,6 L7,6 L7,5 C7,3.40231912 8.24891996,2.09633912 9.82372721,2.00509269 L10,2 L14,2 Z M14,4 L10,4 C9.48716416,4 9.06449284,4.38604019 9.00672773,4.88337887 L9,5 L9,6 L15,6 L15,5 C15,4.48716416 14.6139598,4.06449284 14.1166211,4.00672773 L14,4 Z"/>
</svg>
