<svg xmlns="http://www.w3.org/2000/svg" width="24" height="24" viewBox="0 0 24 24">
  <path d="M17,1 C18.6568542,1 20,2.34314575 20,4 L20,4 L20,20 C20,21.6568542 18.6568542,23 17,23 L17,23 L7,23 C5.34314575,23 4,21.6568542 4,20 L4,20 L4,4 C4,2.34314575 5.34314575,1 7,1 L7,1 Z M17,3 L7,3 C6.44771525,3 6,3.44771525 6,4 L6,4 L6,20 C6,20.5522847 6.44771525,21 7,21 L7,21 L17,21 C17.5522847,21 18,20.5522847 18,20 L18,20 L18,4 C18,3.44771525 17.5522847,3 17,3 L17,3 Z M14.5,13 C15.3284271,13 16,13.6715729 16,14.5 L16,18.5 C16,19.3284271 15.3284271,20 14.5,20 C13.6715729,20 13,19.3284271 13,18.5 L13,14.5 C13,13.6715729 13.6715729,13 14.5,13 Z M9.5,17 C10.3284271,17 11,17.6715729 11,18.5 C11,19.3284271 10.3284271,20 9.5,20 C8.67157288,20 8,19.3284271 8,18.5 C8,17.6715729 8.67157288,17 9.5,17 Z M9.5,13 C10.3284271,13 11,13.6715729 11,14.5 C11,15.3284271 10.3284271,16 9.5,16 C8.67157288,16 8,15.3284271 8,14.5 C8,13.6715729 8.67157288,13 9.5,13 Z M9.5,9 C10.3284271,9 11,9.67157288 11,10.5 C11,11.3284271 10.3284271,12 9.5,12 C8.67157288,12 8,11.3284271 8,10.5 C8,9.67157288 8.67157288,9 9.5,9 Z M14.5,9 C15.3284271,9 16,9.67157288 16,10.5 C16,11.3284271 15.3284271,12 14.5,12 C13.6715729,12 13,11.3284271 13,10.5 C13,9.67157288 13.6715729,9 14.5,9 Z M14.5,5 C15.3284271,5 16,5.67157288 16,6.5 C16,7.32842712 15.3284271,8 14.5,8 L9.5,8 C8.67157288,8 8,7.32842712 8,6.5 C8,5.67157288 8.67157288,5 9.5,5 L14.5,5 Z"/>
</svg>
