<svg xmlns="http://www.w3.org/2000/svg" width="24" height="24" viewBox="0 0 24 24">
  <path d="M22,10 L22,20 C22,21.1045695 21.1045695,22 20,22 L4,22 C2.8954305,22 2,21.1045695 2,20 L2,10 L22,10 Z M12,19 C11.4477153,19 11,19.4477153 11,20 C11,20.5522847 11.4477153,21 12,21 C12.5522847,21 13,20.5522847 13,20 C13,19.4477153 12.5522847,19 12,19 Z M12,11 C10.3425,11 9,12.3922222 9,14.1111111 L9,14.1111111 L10.5,14.1111111 L10.50616,13.9700522 C10.575463,13.1799383 11.2208333,12.5555556 12,12.5555556 C12.825,12.5555556 13.5,13.2555556 13.5,14.1111111 C13.5,15.6666667 11.25,15.4722222 11.25,18 L11.25,18 L12.75,18 L12.7623901,17.7802891 C12.9413989,16.2297837 15,15.9710145 15,14.1111111 C15,12.3922222 13.6575,11 12,11 Z M16,4 L16,5 L16.0067277,5.11662113 C16.0644928,5.61395981 16.4871642,6 17,6 C17.5128358,6 17.9355072,5.61395981 17.9932723,5.11662113 L18,5 L18,4 L20,4 C21.0543618,4 21.9181651,4.81587779 21.9945143,5.85073766 L22,6 L22,8 L2,8 L2,6 C2,4.8954305 2.8954305,4 4,4 L6,4 L6,3 C6,2.44771525 6.44771525,2 7,2 C7.51283584,2 7.93550716,2.38604019 7.99327227,2.88337887 L8,3 L8,4 L6,4 L6,5 L6.00672773,5.11662113 C6.06449284,5.61395981 6.48716416,6 7,6 C7.51283584,6 7.93550716,5.61395981 7.99327227,5.11662113 L8,5 L8,4 L16,4 Z M17,2 C17.5128358,2 17.9355072,2.38604019 17.9932723,2.88337887 L18,3 L18,4 L16,4 L16,3 C16,2.44771525 16.4477153,2 17,2 Z"/>
</svg>
