<svg xmlns="http://www.w3.org/2000/svg" width="24" height="24" viewBox="0 0 24 24">
  <path d="M22,10 L22,20 C22,21.1045695 21.1045695,22 20,22 L4,22 C2.8954305,22 2,21.1045695 2,20 L2,10 L22,10 Z M10.6128994,13.2097046 C10.2206082,12.9046797 9.65337718,12.9324093 9.29289322,13.2928932 C8.90236893,13.6834175 8.90236893,14.3165825 9.29289322,14.7071068 L9.29289322,14.7071068 L10.585,16 L9.29289322,17.2928932 L9.20970461,17.3871006 C8.90467972,17.7793918 8.93240926,18.3466228 9.29289322,18.7071068 C9.68341751,19.0976311 10.3165825,19.0976311 10.7071068,18.7071068 L10.7071068,18.7071068 L12,17.415 L13.2928932,18.7071068 L13.3871006,18.7902954 C13.7793918,19.0953203 14.3466228,19.0675907 14.7071068,18.7071068 C15.0976311,18.3165825 15.0976311,17.6834175 14.7071068,17.2928932 L14.7071068,17.2928932 L13.415,16 L14.7071068,14.7071068 L14.7902954,14.6128994 C15.0953203,14.2206082 15.0675907,13.6533772 14.7071068,13.2928932 C14.3165825,12.9023689 13.6834175,12.9023689 13.2928932,13.2928932 L13.2928932,13.2928932 L12,14.585 L10.7071068,13.2928932 Z M16,4 L16,5 L16.0067277,5.11662113 C16.0644928,5.61395981 16.4871642,6 17,6 C17.5128358,6 17.9355072,5.61395981 17.9932723,5.11662113 L18,5 L18,4 L20,4 C21.0543618,4 21.9181651,4.81587779 21.9945143,5.85073766 L22,6 L22,8 L2,8 L2,6 C2,4.8954305 2.8954305,4 4,4 L6,4 L6,3 C6,2.44771525 6.44771525,2 7,2 C7.51283584,2 7.93550716,2.38604019 7.99327227,2.88337887 L8,3 L8,4 L6,4 L6,5 L6.00672773,5.11662113 C6.06449284,5.61395981 6.48716416,6 7,6 C7.51283584,6 7.93550716,5.61395981 7.99327227,5.11662113 L8,5 L8,4 L16,4 Z M17,2 C17.5128358,2 17.9355072,2.38604019 17.9932723,2.88337887 L18,3 L18,4 L16,4 L16,3 C16,2.44771525 16.4477153,2 17,2 Z"/>
</svg>
