<svg xmlns="http://www.w3.org/2000/svg" width="24" height="24" viewBox="0 0 24 24">
  <path d="M6,4 L6,5 L6.00672773,5.11662113 C6.06449284,5.61395981 6.48716416,6 7,6 C7.51283584,6 7.93550716,5.61395981 7.99327227,5.11662113 L8,5 L8,4 L16,4 L16,5 L16.0067277,5.11662113 C16.0644928,5.61395981 16.4871642,6 17,6 C17.5128358,6 17.9355072,5.61395981 17.9932723,5.11662113 L18,5 L18,4 L20,4 C21.0543618,4 21.9181651,4.81587779 21.9945143,5.85073766 L22,6 L22,19 C22,20.5976809 20.75108,21.9036609 19.1762728,21.9949073 L19,22 L5,22 C3.40231912,22 2.09633912,20.75108 2.00509269,19.1762728 L2,19 L2,6 C2,4.8954305 2.8954305,4 4,4 L6,4 Z M20,8 L4,8 L4,19 C4,19.4733869 4.32893365,19.8699473 4.77070917,19.9735893 L4.88337887,19.9932723 L5,20 L19,20 C19.5128358,20 19.9355072,19.6139598 19.9932723,19.1166211 L20,19 L20,8 Z M8.003,13.918 L8.01101934,13.8510388 L8.01101934,13.8510388 C8.01362808,13.834051 8.01670217,13.8166247 8.02024007,13.7992742 C8.0246398,13.7772539 8.02983363,13.7555635 8.03572097,13.7341604 C8.04009773,13.7185367 8.04472872,13.7031487 8.04973809,13.6878575 C8.05612249,13.6682023 8.06331574,13.6484208 8.07110396,13.6289415 L8.09367336,13.5767785 L8.09367336,13.5767785 C8.10337664,13.5561086 8.11379392,13.5357061 8.12487577,13.515723 C8.13149883,13.5036056 8.13860692,13.4913869 8.14599545,13.4792912 C8.1617187,13.453725 8.17849009,13.4288693 8.19631351,13.4048407 C8.20071786,13.3987914 8.20517454,13.3929267 8.20970461,13.3871006 C8.21507113,13.3803372 8.2173721,13.3774376 8.21968877,13.374551 L8.29289322,13.2928932 L11.2928932,10.2928932 C11.6834175,9.90236893 12.3165825,9.90236893 12.7071068,10.2928932 C13.0675907,10.6533772 13.0953203,11.2206082 12.7902954,11.6128994 L12.7071068,11.7071068 L11.415,13 L15,13 C15.5522847,13 16,13.4477153 16,14 C16,14.5128358 15.6139598,14.9355072 15.1166211,14.9932723 L15,15 L11.415,15 L12.7071068,16.2928932 C13.0976311,16.6834175 13.0976311,17.3165825 12.7071068,17.7071068 C12.3466228,18.0675907 11.7793918,18.0953203 11.3871006,17.7902954 L11.2928932,17.7071068 L8.29289322,14.7071068 L8.22,14.625 L8.19633458,14.5953066 L8.19633458,14.5953066 C8.17849009,14.5711307 8.1617187,14.546275 8.14606743,14.5206602 L8.12467117,14.4840621 L8.12467117,14.4840621 C8.11379392,14.4642939 8.10337664,14.4438914 8.09365378,14.4230991 L8.07122549,14.371336 L8.07122549,14.371336 C8.06331574,14.3515792 8.05612249,14.3317977 8.04954668,14.3117364 C8.04472872,14.2968513 8.04009773,14.2814633 8.03584514,14.265993 C8.02983363,14.2444365 8.0246398,14.2227461 8.02016515,14.2007941 C8.01670217,14.1833753 8.01362808,14.165949 8.0110178,14.1484669 L8.00399798,14.090032 L8.00399798,14.090032 C8.00307004,14.0791869 8.00232561,14.0691128 8.0017331,14.0590314 L8.00018018,14.019176 L8,14 L8,14 L8.001,13.98 L8.0017331,13.9409686 L8.00278786,13.9247615 L8.00278786,13.9247615 L8.002,13.94 L8.003,13.918 Z M17,2 C17.5128358,2 17.9355072,2.38604019 17.9932723,2.88337887 L18,3 L18,4 L16,4 L16,3 C16,2.44771525 16.4477153,2 17,2 Z M7,2 C7.51283584,2 7.93550716,2.38604019 7.99327227,2.88337887 L8,3 L8,4 L6,4 L6,3 C6,2.44771525 6.44771525,2 7,2 Z"/>
</svg>
