<svg xmlns="http://www.w3.org/2000/svg" width="24" height="24" viewBox="0 0 24 24">
  <path d="M13.1715729,3 C13.7020059,3 14.2107137,3.21071368 14.5857864,3.58578644 L16,5 L21,5 C22.1045695,5 23,5.8954305 23,7 L23,19 C23,20.1045695 22.1045695,21 21,21 L3,21 C1.8954305,21 1,20.1045695 1,19 L1,7 C1,5.8954305 1.8954305,5 3,5 L8,5 L9.41421356,3.58578644 C9.78928632,3.21071368 10.2979941,3 10.8284271,3 L13.1715729,3 Z M12,9 C9.790861,9 8,10.790861 8,13 C8,15.209139 9.790861,17 12,17 C14.209139,17 16,15.209139 16,13 C16,10.790861 14.209139,9 12,9 Z M19,8 C18.4477153,8 18,8.44771525 18,9 C18,9.55228475 18.4477153,10 19,10 C19.5522847,10 20,9.55228475 20,9 C20,8.44771525 19.5522847,8 19,8 Z"/>
</svg>
