<svg xmlns="http://www.w3.org/2000/svg" width="24" height="23" viewBox="0 0 24 23">
  <path d="M14,15 L4,15 L4,19 L14,19 L14,15 Z M6,16 C6.55228475,16 7,16.4477153 7,17 C7,17.5522847 6.55228475,18 6,18 C5.44771525,18 5,17.5522847 5,17 C5,16.4477153 5.44771525,16 6,16 Z M12,16 C12.5522847,16 13,16.4477153 13,17 C13,17.5522847 12.5522847,18 12,18 C11.4477153,18 11,17.5522847 11,17 C11,16.4477153 11.4477153,16 12,16 Z M12.3603922,10 L5.63960781,10 C5.2026502,10 4.82137462,10.2827196 4.68885599,10.6898752 L4.65902713,10.8038839 L4.219,13 L13.78,13 L13.3409729,10.8038839 C13.2630688,10.4143637 12.9650745,10.1157911 12.59205,10.0270869 L12.4780368,10.0068907 L12.3603922,10 Z M19,2 C19.5522847,2 20,2.44771525 20,3 L20,3 L20,6.585 L21.2928932,5.29289322 L21.3871006,5.20970461 C21.7793918,4.90467972 22.3466228,4.93240926 22.7071068,5.29289322 C23.0976311,5.68341751 23.0976311,6.31658249 22.7071068,6.70710678 L22.7071068,6.70710678 L19.7071068,9.70710678 L19.625449,9.78031123 C19.6225624,9.7826279 19.6196628,9.78492887 19.6128994,9.79029539 C19.6070733,9.79482546 19.6012086,9.79928214 19.5951593,9.80368649 C19.5711307,9.82150991 19.546275,9.8382813 19.5207088,9.85400455 C19.5086131,9.86139308 19.4963944,9.86850117 19.484277,9.87512423 C19.4642939,9.88620608 19.4438914,9.89662336 19.4232215,9.90632664 L19.4232215,9.90632664 L19.3710585,9.92889604 C19.3515792,9.93668426 19.3317977,9.94387751 19.3121425,9.95026191 C19.2968513,9.95527128 19.2814633,9.95990227 19.2658396,9.96427903 C19.2444365,9.97016637 19.2227461,9.9753602 19.2007258,9.97975993 C19.1833753,9.98329783 19.165949,9.98637192 19.1489612,9.98898066 L19.1489612,9.98898066 L19.08,9.996 L19.026,9.999 L19.019,9.999 L19,10 C18.9935938,10 18.9872016,9.99993976 18.980824,9.99981982 L18.980824,9.99981982 L18.9409686,9.9982669 C18.9308872,9.99767439 18.9208131,9.99692996 18.909968,9.99600202 L18.909968,9.99600202 L18.8515331,9.9889822 C18.834051,9.98637192 18.8166247,9.98329783 18.7992059,9.97983485 C18.7772539,9.9753602 18.7555635,9.97016637 18.734007,9.96415486 C18.7185367,9.95990227 18.7031487,9.95527128 18.6882636,9.95045332 C18.6682023,9.94387751 18.6484208,9.93668426 18.628664,9.92877451 L18.628664,9.92877451 L18.5769009,9.90634622 C18.5561086,9.89662336 18.5357061,9.88620608 18.5159379,9.87532883 L18.5159379,9.87532883 L18.4793398,9.85393257 C18.453725,9.8382813 18.4288693,9.82150991 18.4046934,9.80366542 L18.4046934,9.80366542 L18.38,9.784 L18.3832499,9.78721404 L18.378,9.783 L18.374551,9.78031123 L18.359,9.767 L18.347434,9.75779198 L18.347434,9.75779198 L18.2928932,9.70710678 L15.2928932,6.70710678 L15.2097046,6.61289944 C14.9046797,6.22060824 14.9324093,5.65337718 15.2928932,5.29289322 C15.6834175,4.90236893 16.3165825,4.90236893 16.7071068,5.29289322 L16.7071068,5.29289322 L18,6.585 L18,3 L18.0067277,2.88337887 C18.0644928,2.38604019 18.4871642,2 19,2 Z M2.009,13.869 L2.007,13.88 L2.00846437,13.8692981 C2.01005324,13.8571263 2.01186099,13.8450233 2.01388354,13.8329931 L2.01941932,13.8038839 L2.69786578,10.4116516 C2.96663469,9.06780703 4.10861172,8.08479702 5.46194223,8.00521259 L5.63960781,8 L12.3603922,8 C13.7308501,8 14.9187309,8.92701648 15.2621798,10.2384584 L15.3021342,10.4116516 L15.9805807,13.8038839 L15.9861158,13.8338552 L15.9861158,13.8338552 L15.9959318,13.9084099 L15.997,13.944 L15.9974718,13.9265341 C15.9979296,13.9325682 15.998332,13.9385947 15.9986795,13.9446132 L16,14 L16,20 L15.9999633,20.0086633 L16,21 C16,21.5522847 15.5522847,22 15,22 C14.4477153,22 14,21.5522847 14,21 L4,21 C4,21.5522847 3.55228475,22 3,22 C2.44771525,22 2,21.5522847 2,21 L2.00057563,13.9657469 L2.00057563,13.9657469 L2.0043585,13.906016 L2.009,13.869 Z"/>
</svg>
