<svg xmlns="http://www.w3.org/2000/svg" width="24" height="24" viewBox="0 0 24 24">
  <path d="M12.360732,8 C13.7311899,8 14.9190706,8.92701648 15.2625196,10.2384584 L15.302474,10.4116516 L15.9809205,13.8038839 C15.9941998,13.8702808 16.0006051,13.9362003 16.0006789,14.0009803 L16,14 L16,21 C16,21.5522847 15.5522847,22 15,22 C14.4477153,22 14,21.5522847 14,21 L14,20 L4,20 L4,21 C4,21.5522847 3.55228475,22 3,22 C2.44771525,22 2,21.5522847 2,21 L2,14 L2.00492771,13.9029159 L2.00492771,13.9029159 L2.0197591,13.8038839 L2.69820556,10.4116516 C2.96697447,9.06780703 4.1089515,8.08479702 5.46228201,8.00521259 L5.63994759,8 L12.360732,8 Z M6,15 C5.44771525,15 5,15.4477153 5,16 C5,16.5522847 5.44771525,17 6,17 C6.55228475,17 7,16.5522847 7,16 C7,15.4477153 6.55228475,15 6,15 Z M12,15 C11.4477153,15 11,15.4477153 11,16 C11,16.5522847 11.4477153,17 12,17 C12.5522847,17 13,16.5522847 13,16 C13,15.4477153 12.5522847,15 12,15 Z M12.3603922,10 L5.63960781,10 C5.2026502,10 4.82137462,10.2827196 4.68885599,10.6898752 L4.65902713,10.8038839 L4.219,13 L13.78,13 L13.3409729,10.8038839 C13.2630688,10.4143637 12.9650745,10.1157911 12.59205,10.0270869 L12.4780368,10.0068907 L12.3603922,10 Z M19,10 C19.5522847,10 20,10.4477153 20,11 C20,11.5522847 19.5522847,12 19,12 C18.4477153,12 18,11.5522847 18,11 C18,10.4477153 18.4477153,10 19,10 Z M19.1,2 C20.8,2 22.1,3.3 22.1,5 C22.1,6.4 21.2,7 20.6,7.4 C20.1454545,7.67272727 20.0214876,7.78016529 20.0027047,7.94770849 L20,8 L20,9 L18,9 L18,8 C18,6.7 18.9,6.1 19.5,5.7 C20,5.4 20.1,5.2 20.1,4.9 C20.1,4.3 19.7,4 19.1,4 C18.75,4 18.4765625,4.153125 18.2796875,4.39238281 L18.2,4.5 L18.1789188,4.53794618 C18.1750832,4.54485031 18.1711627,4.55170695 18.1671582,4.55851454 C17.9184586,4.98130389 17.3968515,5.1440978 16.9578293,4.95473156 L16.85,4.9 L16.8409657,4.89468572 C16.4091827,4.64069568 16.2371434,4.11159999 16.4205236,3.6585764 L16.4738286,3.54710857 L16.5,3.5 C17,2.6 18,2 19.1,2 Z"/>
</svg>
