<svg xmlns="http://www.w3.org/2000/svg" width="24" height="24" viewBox="0 0 24 24">
  <path d="M12.360732,8 C13.7311899,8 14.9190706,8.92701648 15.2625196,10.2384584 L15.302474,10.4116516 L15.9809205,13.8038839 C15.9941998,13.8702808 16.0006051,13.9362003 16.0006789,14.0009803 L16,14 L16,21 C16,21.5522847 15.5522847,22 15,22 C14.4477153,22 14,21.5522847 14,21 L14,20 L4,20 L4,21 C4,21.5522847 3.55228475,22 3,22 C2.44771525,22 2,21.5522847 2,21 L2,14 L2.00492771,13.9029159 L2.00492771,13.9029159 L2.0197591,13.8038839 L2.69820556,10.4116516 C2.96697447,9.06780703 4.1089515,8.08479702 5.46228201,8.00521259 L5.63994759,8 L12.360732,8 Z M6,15 C5.44771525,15 5,15.4477153 5,16 C5,16.5522847 5.44771525,17 6,17 C6.55228475,17 7,16.5522847 7,16 C7,15.4477153 6.55228475,15 6,15 Z M12,15 C11.4477153,15 11,15.4477153 11,16 C11,16.5522847 11.4477153,17 12,17 C12.5522847,17 13,16.5522847 13,16 C13,15.4477153 12.5522847,15 12,15 Z M12.3603922,10 L5.63960781,10 C5.2026502,10 4.82137462,10.2827196 4.68885599,10.6898752 L4.65902713,10.8038839 L4.219,13 L13.78,13 L13.3409729,10.8038839 C13.2630688,10.4143637 12.9650745,10.1157911 12.59205,10.0270869 L12.4780368,10.0068907 L12.3603922,10 Z M17.6128994,3.20970461 L17.7071068,3.29289322 L19,4.585 L20.2928932,3.29289322 C20.6834175,2.90236893 21.3165825,2.90236893 21.7071068,3.29289322 C22.0675907,3.65337718 22.0953203,4.22060824 21.7902954,4.61289944 L21.7071068,4.70710678 L20.415,6 L21.7071068,7.29289322 C22.0976311,7.68341751 22.0976311,8.31658249 21.7071068,8.70710678 C21.3466228,9.06759074 20.7793918,9.09532028 20.3871006,8.79029539 L20.2928932,8.70710678 L19,7.415 L17.7071068,8.70710678 C17.3165825,9.09763107 16.6834175,9.09763107 16.2928932,8.70710678 C15.9324093,8.34662282 15.9046797,7.77939176 16.2097046,7.38710056 L16.2928932,7.29289322 L17.585,6 L16.2928932,4.70710678 C15.9023689,4.31658249 15.9023689,3.68341751 16.2928932,3.29289322 C16.6533772,2.93240926 17.2206082,2.90467972 17.6128994,3.20970461 Z"/>
</svg>
