<svg xmlns="http://www.w3.org/2000/svg" width="24" height="24" viewBox="0 0 24 24">
  <path d="M14,15 L4,15 L4,19 L14,19 L14,15 Z M6,16 C6.55228475,16 7,16.4477153 7,17 C7,17.5522847 6.55228475,18 6,18 C5.44771525,18 5,17.5522847 5,17 C5,16.4477153 5.44771525,16 6,16 Z M12,16 C12.5522847,16 13,16.4477153 13,17 C13,17.5522847 12.5522847,18 12,18 C11.4477153,18 11,17.5522847 11,17 C11,16.4477153 11.4477153,16 12,16 Z M12.3603922,10 L5.63960781,10 C5.2026502,10 4.82137462,10.2827196 4.68885599,10.6898752 L4.65902713,10.8038839 L4.219,13 L13.78,13 L13.3409729,10.8038839 C13.2630688,10.4143637 12.9650745,10.1157911 12.59205,10.0270869 L12.4780368,10.0068907 L12.3603922,10 Z M19,2 L19.019,2.001 L19.03,2.001 L19.081,2.003 L19.1489612,2.01101934 L19.1489612,2.01101934 C19.165949,2.01362808 19.1833753,2.01670217 19.2007258,2.02024007 C19.2227461,2.0246398 19.2444365,2.02983363 19.2658396,2.03572097 C19.2814633,2.04009773 19.2968513,2.04472872 19.3121425,2.04973809 C19.3317977,2.05612249 19.3515792,2.06331574 19.3710585,2.07110396 L19.4232215,2.09367336 L19.4232215,2.09367336 C19.4438914,2.10337664 19.4642939,2.11379392 19.484277,2.12487577 C19.4963944,2.13149883 19.5086131,2.13860692 19.5207088,2.14599545 C19.546275,2.1617187 19.5711307,2.17849009 19.5951593,2.19631351 C19.6012086,2.20071786 19.6070733,2.20517454 19.6128994,2.20970461 C19.6196628,2.21507113 19.6225624,2.2173721 19.625449,2.21968877 L19.7071068,2.29289322 L22.7071068,5.29289322 C23.0976311,5.68341751 23.0976311,6.31658249 22.7071068,6.70710678 C22.3466228,7.06759074 21.7793918,7.09532028 21.3871006,6.79029539 L21.2928932,6.70710678 L20,5.415 L20,9 C20,9.55228475 19.5522847,10 19,10 C18.4871642,10 18.0644928,9.61395981 18.0067277,9.11662113 L18,9 L18,5.415 L16.7071068,6.70710678 C16.3165825,7.09763107 15.6834175,7.09763107 15.2928932,6.70710678 C14.9324093,6.34662282 14.9046797,5.77939176 15.2097046,5.38710056 L15.2928932,5.29289322 L18.2928932,2.29289322 L18.37,2.224 L18.38,2.215 L18.4046934,2.19633458 L18.4046934,2.19633458 C18.4288693,2.17849009 18.453725,2.1617187 18.4793398,2.14606743 L18.5159379,2.12467117 L18.5159379,2.12467117 C18.5357061,2.11379392 18.5561086,2.10337664 18.5769009,2.09365378 L18.628664,2.07122549 L18.628664,2.07122549 C18.6484208,2.06331574 18.6682023,2.05612249 18.6882636,2.04954668 C18.7031487,2.04472872 18.7185367,2.04009773 18.734007,2.03584514 C18.7555635,2.02983363 18.7772539,2.0246398 18.7992059,2.02016515 C18.8166247,2.01670217 18.834051,2.01362808 18.8515331,2.0110178 L18.909968,2.00399798 L18.909968,2.00399798 C18.9208131,2.00307004 18.9308872,2.00232561 18.9409686,2.0017331 L18.980824,2.00018018 L19,2 L19,2 Z M2.009,13.869 L2.007,13.88 L2.00846437,13.8692981 C2.01005324,13.8571263 2.01186099,13.8450233 2.01388354,13.8329931 L2.01941932,13.8038839 L2.69786578,10.4116516 C2.96663469,9.06780703 4.10861172,8.08479702 5.46194223,8.00521259 L5.63960781,8 L12.3603922,8 C13.7308501,8 14.9187309,8.92701648 15.2621798,10.2384584 L15.3021342,10.4116516 L15.9805807,13.8038839 L15.9861158,13.8338552 L15.9861158,13.8338552 L15.9959318,13.9084099 L15.997,13.944 L15.9974718,13.9265341 C15.9979296,13.9325682 15.998332,13.9385947 15.9986795,13.9446132 L16,14 L16,20 L15.9999633,20.0086633 L16,21 C16,21.5522847 15.5522847,22 15,22 C14.4477153,22 14,21.5522847 14,21 L4,21 C4,21.5522847 3.55228475,22 3,22 C2.44771525,22 2,21.5522847 2,21 L2.00057563,13.9657469 L2.00057563,13.9657469 L2.0043585,13.906016 L2.009,13.869 Z"/>
</svg>
