<svg xmlns="http://www.w3.org/2000/svg" width="24" height="24" viewBox="0 0 24 24">
  <path d="M12.360732,8 C13.7311899,8 14.9190706,8.92701648 15.2625196,10.2384584 L15.302474,10.4116516 L15.9809205,13.8038839 C15.9941998,13.8702808 16.0006051,13.9362003 16.0006789,14.0009803 L16,14 L16,21 C16,21.5522847 15.5522847,22 15,22 C14.4477153,22 14,21.5522847 14,21 L14,20 L4,20 L4,21 C4,21.5522847 3.55228475,22 3,22 C2.44771525,22 2,21.5522847 2,21 L2,14 L2.00492771,13.9029159 L2.00492771,13.9029159 L2.0197591,13.8038839 L2.69820556,10.4116516 C2.96697447,9.06780703 4.1089515,8.08479702 5.46228201,8.00521259 L5.63994759,8 L12.360732,8 Z M6,15 C5.44771525,15 5,15.4477153 5,16 C5,16.5522847 5.44771525,17 6,17 C6.55228475,17 7,16.5522847 7,16 C7,15.4477153 6.55228475,15 6,15 Z M12,15 C11.4477153,15 11,15.4477153 11,16 C11,16.5522847 11.4477153,17 12,17 C12.5522847,17 13,16.5522847 13,16 C13,15.4477153 12.5522847,15 12,15 Z M12.3603922,10 L5.63960781,10 C5.2026502,10 4.82137462,10.2827196 4.68885599,10.6898752 L4.65902713,10.8038839 L4.219,13 L13.78,13 L13.3409729,10.8038839 C13.2630688,10.4143637 12.9650745,10.1157911 12.59205,10.0270869 L12.4780368,10.0068907 L12.3603922,10 Z M21.6616216,3.25016214 C22.04389,3.58745772 22.1069484,4.15185442 21.826988,4.5624086 L21.7498379,4.66162164 L18.2204261,8.66162164 C17.8507691,9.08056628 17.2177832,9.11049089 16.8105077,8.75139549 L16.7207504,8.66162164 L15.2501621,6.99495497 C14.8847586,6.58083096 14.9242544,5.94889902 15.3383784,5.58349548 C15.7206467,5.2461999 16.2885028,5.25390727 16.6610031,5.5828086 L16.7498379,5.6717117 L17.47,6.488 L20.2501621,3.33837836 C20.6155657,2.92425435 21.2474976,2.8847586 21.6616216,3.25016214 Z"/>
</svg>
