<svg xmlns="http://www.w3.org/2000/svg" width="24" height="24" viewBox="0 0 24 24">
  <path d="M9.37135227,3.70432092 C10.1698214,2.25255887 11.9939942,1.72296031 13.4457562,2.52142944 C13.9442354,2.79559297 14.3544842,3.20584177 14.6286477,3.70432092 L14.6286477,3.70432092 L22.2461053,17.5542438 C23.0445744,19.0060058 22.5149759,20.8301786 21.0632138,21.6286477 C20.6202789,21.8722619 20.1229665,22 19.6174576,22 L19.6174576,22 L4.38254244,22 C2.72568819,22 1.38254244,20.6568542 1.38254244,19 C1.38254244,18.4944911 1.5102805,17.9971787 1.75389472,17.5542438 L1.75389472,17.5542438 Z M12.3764912,4.2235543 C11.9128771,4.03449217 11.3709293,4.2188035 11.1237841,4.66815842 L11.1237841,4.66815842 L3.50632653,18.5180813 C3.42512179,18.6657262 3.38254244,18.831497 3.38254244,19 C3.38254244,19.5522847 3.83025769,20 4.38254244,20 L4.38254244,20 L19.6174576,20 C19.7859605,20 19.9517313,19.9574206 20.0993763,19.8762159 C20.583297,19.6100595 20.7598298,19.0020019 20.4936735,18.5180813 L20.4936735,18.5180813 L12.8762159,4.66815842 C12.7848281,4.5019987 12.6480785,4.3652491 12.4819187,4.27386126 L12.4819187,4.27386126 Z M14.6616216,12.2501621 C15.04389,12.5874577 15.1069484,13.1518544 14.826988,13.5624086 L14.7498379,13.6616216 L11.2204261,17.6616216 C10.8507691,18.0805663 10.2177832,18.1104909 9.81050773,17.7513955 L9.72075038,17.6616216 L8.25016214,15.994955 C7.8847586,15.580831 7.92425435,14.948899 8.33837836,14.5834955 C8.72064668,14.2461999 9.28850282,14.2539073 9.66100314,14.5828086 L9.74983786,14.6717117 L10.47,15.488 L13.2501621,12.3383784 C13.6155657,11.9242544 14.2474976,11.8847586 14.6616216,12.2501621 Z"/>
</svg>
