<svg xmlns="http://www.w3.org/2000/svg" width="24" height="24" viewBox="0 0 24 24">
  <path d="M12,2 L23,22 L1,22 L12,2 Z M14.6616216,12.2501621 C14.2474976,11.8847586 13.6155657,11.9242544 13.2501621,12.3383784 L13.2501621,12.3383784 L10.47,15.488 L9.74983786,14.6717117 L9.66100314,14.5828086 C9.28850282,14.2539073 8.72064668,14.2461999 8.33837836,14.5834955 C7.92425435,14.948899 7.8847586,15.580831 8.25016214,15.994955 L8.25016214,15.994955 L9.72075038,17.6616216 L9.81050773,17.7513955 C10.2177832,18.1104909 10.8507691,18.0805663 11.2204261,17.6616216 L11.2204261,17.6616216 L14.7498379,13.6616216 L14.826988,13.5624086 C15.1069484,13.1518544 15.04389,12.5874577 14.6616216,12.2501621 Z"/>
</svg>
