<svg xmlns="http://www.w3.org/2000/svg" width="24" height="24" viewBox="0 0 24 24">
  <path d="M12,1 C18.0751322,1 23,5.92486775 23,12 C23,18.0751322 18.0751322,23 12,23 C5.92486775,23 1,18.0751322 1,12 C1,5.92486775 5.92486775,1 12,1 Z M12,3 C7.02943725,3 3,7.02943725 3,12 C3,16.9705627 7.02943725,21 12,21 C16.9705627,21 21,16.9705627 21,12 C21,7.02943725 16.9705627,3 12,3 Z M17.6616216,7.25016214 C18.04389,7.58745772 18.1069484,8.15185442 17.826988,8.5624086 L17.7498379,8.66162164 L10.6910143,16.6616216 C10.3213573,17.0805663 9.68837141,17.1104909 9.28109597,16.7513955 L9.19133862,16.6616216 L6.25016214,13.3282883 C5.8847586,12.9141643 5.92425435,12.2822324 6.33837836,11.9168288 C6.72064668,11.5795332 7.28850282,11.5872406 7.66100314,11.9161419 L7.74983786,12.005045 L9.941,14.488 L16.2501621,7.33837836 C16.6155657,6.92425435 17.2474976,6.8847586 17.6616216,7.25016214 Z"/>
</svg>
