<svg xmlns="http://www.w3.org/2000/svg" width="24" height="24" viewBox="0 0 24 24">
  <path d="M12,2 C17.5228475,2 22,6.4771525 22,12 C22,17.5228475 17.5228475,22 12,22 C6.4771525,22 2,17.5228475 2,12 C2,6.4771525 6.4771525,2 12,2 Z M17.7808688,7.37530495 C17.4358593,6.94404302 16.8065669,6.87412164 16.375305,7.21913119 L16.375305,7.21913119 L12.074,10.659 L9.70710678,8.29289322 L9.61289944,8.20970461 C9.22060824,7.90467972 8.65337718,7.93240926 8.29289322,8.29289322 C7.90236893,8.68341751 7.90236893,9.31658249 8.29289322,9.70710678 L8.29289322,9.70710678 L11.2928932,12.7071068 L11.3871883,12.7903262 C11.7475795,13.0702762 12.2599615,13.0726556 12.624695,12.7808688 L12.624695,12.7808688 L17.624695,8.78086881 L17.7177783,8.69642431 C18.0642589,8.34021683 18.0993392,7.77339289 17.7808688,7.37530495 Z"/>
</svg>
