<svg xmlns="http://www.w3.org/2000/svg" width="24" height="24" viewBox="0 0 24 24">
  <path fill="none" stroke="#000" stroke-linecap="round" stroke-linejoin="round" stroke-width="2" d="M13,2 C13.5522847,2 14,2.44771525 14,3 L14.0006762,5.29007996 C15.0649772,5.60694913 16.0231747,6.17013409 16.8091578,6.91352375 L18.7942286,5.76794919 C19.2725213,5.49180682 19.8841117,5.65568197 20.160254,6.1339746 L21.160254,7.8660254 C21.4363964,8.34431803 21.2725213,8.95590843 20.7942286,9.23205081 L18.811042,10.3776599 C18.9346004,10.8983378 19,11.4415314 19,12 C19,12.5584686 18.9346004,13.1016622 18.811042,13.6223401 L20.7942286,14.7679492 C21.2725213,15.0440916 21.4363964,15.655682 21.160254,16.1339746 L20.160254,17.8660254 C19.8841117,18.344318 19.2725213,18.5081932 18.7942286,18.2320508 L16.8091578,17.0864763 C16.0231747,17.8298659 15.0649772,18.3930509 14.0006762,18.70992 L14,21 C14,21.5522847 13.5522847,22 13,22 L11,22 C10.4477153,22 10,21.5522847 10,21 L9.99995367,18.7101075 C8.93540087,18.3932731 7.9769803,17.8300126 7.19084219,17.0864763 L5.20577137,18.2320508 C4.72747874,18.5081932 4.11588834,18.344318 3.83974596,17.8660254 L2.83974596,16.1339746 C2.56360359,15.655682 2.72747874,15.0440916 3.20577137,14.7679492 L5.188958,13.6223401 C5.06539962,13.1016622 5,12.5584686 5,12 C5,11.4415314 5.06539962,10.8983378 5.188958,10.3776599 L3.20577137,9.23205081 C2.72747874,8.95590843 2.56360359,8.34431803 2.83974596,7.8660254 L3.83974596,6.1339746 C4.11588834,5.65568197 4.72747874,5.49180682 5.20577137,5.76794919 L7.19084219,6.91352375 C7.9769803,6.16998744 8.93540087,5.60672694 9.99995367,5.28989247 L10,3 C10,2.44771525 10.4477153,2 11,2 L13,2 Z M12,9 C10.3431458,9 9,10.3431458 9,12 C9,13.6568542 10.3431458,15 12,15 C13.6568542,15 15,13.6568542 15,12 C15,10.3431458 13.6568542,9 12,9 Z"/>
</svg>
