<svg xmlns="http://www.w3.org/2000/svg" width="24" height="24" viewBox="0 0 24 24">
  <g fill="none" fill-rule="evenodd">
    <path fill="#000" fill-rule="nonzero" d="M12,19 C12.5522847,19 13,19.4477153 13,20 C13,20.5522847 12.5522847,21 12,21 C11.4477153,21 11,20.5522847 11,20 C11,19.4477153 11.4477153,19 12,19 Z M12.1,11 C13.8,11 15.1,12.3 15.1,14 C15.1,15.4 14.2,16 13.6,16.4 C13.1,16.7 13,16.8 13,17 L13,17 L13,18 L11,18 L11,17 C11,15.7 11.9,15.1 12.5,14.7 C13,14.4 13.1,14.2 13.1,13.9 C13.1,13.3 12.7,13 12.1,13 C11.7,13 11.4,13.2 11.2,13.5 L11.2,13.5 L11.1789188,13.5379462 C11.1750832,13.5448503 11.1711627,13.5517069 11.1671582,13.5585145 C10.8977336,14.0165363 10.3080218,14.1694246 9.85,13.9 L9.85,13.9 L9.84096572,13.8946857 C9.37320074,13.6195298 9.21027394,13.0215069 9.47382857,12.5471086 L9.47382857,12.5471086 L9.5,12.5 C10,11.6 11,11 12.1,11 Z"/>
    <path stroke="#000" stroke-width="2" d="M11,2 L6,2 C5.44771525,2 5,2.44771525 5,3 L5,21 C5,21.5522847 5.44771525,22 6,22 L18,22 C18.5522847,22 19,21.5522847 19,21 L19,10 L13,10 C11.8954305,10 11,9.1045695 11,8 L11,2 Z M5,2 L11,2 L11,3 L10.9995829,7.97112107 L11.0034183,8.11842847 C11.064436,9.17152317 11.9393425,10 13,10 L19,10 L19,22 L5,22 L5,2 Z M17.5857864,6 L19.2928932,7.70710678 L20,6 L17.5857864,6 Z M14.9991895,3.41340305 L15,1 L13.2928932,1.70710678 L14.9991895,3.41340305 Z"/>
  </g>
</svg>
