<svg xmlns="http://www.w3.org/2000/svg" width="24" height="24" viewBox="0 0 24 24">
  <g fill="none" fill-rule="evenodd">
    <path fill="#000" fill-rule="nonzero" d="M12,14 C12.5522847,14 13,13.5522847 13,13 C13,12.4477153 12.5522847,12 12,12 C11.4477153,12 11,12.4477153 11,13 C11,13.5522847 11.4477153,14 12,14 Z M12,20 C12.5522847,20 13,19.5522847 13,19 L13,16 C13,15.4477153 12.5522847,15 12,15 C11.4477153,15 11,15.4477153 11,16 L11,19 C11,19.5522847 11.4477153,20 12,20 Z"/>
    <path stroke="#000" stroke-width="2" d="M11,2 L6,2 C5.44771525,2 5,2.44771525 5,3 L5,21 C5,21.5522847 5.44771525,22 6,22 L18,22 C18.5522847,22 19,21.5522847 19,21 L19,10 L13,10 C11.8954305,10 11,9.1045695 11,8 L11,2 Z M5,2 L11,2 L11,3 L10.9995829,7.97112107 L11.0034183,8.11842847 C11.064436,9.17152317 11.9393425,10 13,10 L19,10 L19,22 L5,22 L5,2 Z M17.5857864,6 L19.2928932,7.70710678 L20,6 L17.5857864,6 Z M14.9991895,3.41340305 L15,1 L13.2928932,1.70710678 L14.9991895,3.41340305 Z"/>
  </g>
</svg>
