<svg xmlns="http://www.w3.org/2000/svg" width="24" height="24" viewBox="0 0 24 24">
  <path d="M12,1 L12,8 C12,8.55228475 12.4477153,9 13,9 L20,9 L20,21 C20,22.1045695 19.1045695,23 18,23 L6,23 C4.8954305,23 4,22.1045695 4,21 L4,3 C4,1.8954305 4.8954305,1 6,1 L12,1 Z M10,3 L6,3 L6,21 L12,21 L12,21 C11.4477153,21 11,20.5522847 11,20 C11,19.4477153 11.4477153,19 12,19 C12.5522847,19 13,19.4477153 13,20 C13,20.5522847 12.5522847,21 12,21 L18,21 L18,11 L13,11 C11.4023191,11 10.0963391,9.75108004 10.0050927,8.17627279 L10,8 L10,3 Z M12.1,11 C13.8,11 15.1,12.3 15.1,14 C15.1,15.4 14.2,16 13.6,16.4 C13.1454545,16.6727273 13.0214876,16.7801653 13.0027047,16.9477085 L13,17 L13,18 L11,18 L11,17 C11,15.7 11.9,15.1 12.5,14.7 C13,14.4 13.1,14.2 13.1,13.9 C13.1,13.3 12.7,13 12.1,13 C11.75,13 11.4765625,13.153125 11.2796875,13.3923828 L11.2,13.5 L11.1789188,13.5379462 C11.1750832,13.5448503 11.1711627,13.5517069 11.1671582,13.5585145 C10.9184586,13.9813039 10.3968515,14.1440978 9.95782931,13.9547316 L9.85,13.9 L9.84096572,13.8946857 C9.40918266,13.6406957 9.23714337,13.1116 9.42052358,12.6585764 L9.47382857,12.5471086 L9.5,12.5 C10,11.6 11,11 12.1,11 Z M14,1 L20,7 L15,7 C14.4871642,7 14.0644928,6.61395981 14.0067277,6.11662113 L14,6 L14,1 Z"/>
</svg>
