<svg xmlns="http://www.w3.org/2000/svg" width="24" height="24" viewBox="0 0 24 24">
  <path d="M18.9341216,13.6135204 C18.9772923,13.6890692 19,13.7745764 19,13.8615898 L19,16.7098387 C19,16.8892672 18.903857,17.0549389 18.7480695,17.1439603 L12.2480695,20.858246 C12.0943531,20.9460839 11.9056469,20.9460839 11.7519305,20.858246 L5.25193053,17.1439603 C5.09614303,17.0549389 5,16.8892672 5,16.7098387 L5,13.8615898 C5,13.5854475 5.22385763,13.3615898 5.5,13.3615898 C5.58701347,13.3615898 5.67252062,13.3842975 5.74806947,13.4274683 L11.7519305,16.858246 C11.9056469,16.9460839 12.0943531,16.9460839 12.2480695,16.858246 L18.2519305,13.4274683 C18.4916893,13.2904633 18.7971166,13.3737616 18.9341216,13.6135204 Z M11.7605739,3.13059604 C11.9098127,3.04919308 12.0901873,3.04919308 12.2394261,3.13059604 L12.2394261,3.13059604 L22.1952624,8.56105221 C22.2795457,8.6070249 22.3488114,8.67629068 22.3947841,8.76057393 C22.5270155,9.0029981 22.4376866,9.30671642 22.1952624,9.43894779 L22.1952624,9.43894779 L21.9990691,9.54554382 L22,16 C22,16.5522847 21.5522847,17 21,17 C20.4871642,17 20.0644928,16.6139598 20.0067277,16.1166211 L20,16 L19.9990691,10.6365438 L12.2394261,14.869404 C12.1200351,14.9345263 11.9807171,14.9475508 11.8533553,14.9084774 L11.7605739,14.869404 L1.80473761,9.43894779 C1.72045435,9.3929751 1.65118857,9.32370932 1.60521589,9.23942607 C1.47298452,8.9970019 1.56231344,8.69328358 1.80473761,8.56105221 L1.80473761,8.56105221 Z"/>
</svg>
