<svg xmlns="http://www.w3.org/2000/svg" width="24" height="24" viewBox="0 0 24 24">
  <path fill-rule="evenodd" d="M7,1 C9.57301934,1 11.7677583,2.61961069 12.6203522,4.89496727 L4.89496727,12.6203522 C5.54996894,12.8657864 6.25931084,13 7,13 C10.3137085,13 13,10.3137085 13,7 C13,6.25931084 12.8657864,5.54996894 12.6203522,4.89496727 L13,4.51471863 L21.4852814,13 L19.4588488,15.0260315 C21.4518866,15.253647 23,16.9460328 23,19 C23,21.209139 21.209139,23 19,23 C16.9460328,23 15.253647,21.4518866 15.0260315,19.4588488 L19.4588488,15.0260315 C19.30828,15.0088357 19.1551718,15 19,15 C16.790861,15 15,16.790861 15,19 C15,19.1551718 15.0088357,19.30828 15.0260315,19.4588488 L13,21.4852814 L4.51471863,13 L4.89496727,12.6203522 C2.61961069,11.7677583 1,9.57301934 1,7 C1,3.6862915 3.6862915,1 7,1 Z"/>
</svg>
