<svg xmlns="http://www.w3.org/2000/svg" width="24" height="24" viewBox="0 0 24 24">
  <path d="M11,4 L5,4 C3.34314575,4 2,5.34314575 2,7 L2,17 C2,18.6568542 3.34314575,20 5,20 L19,20 C20.6568542,20 22,18.6568542 22,17 L22,9 L21.9949073,8.82372721 C21.9036609,7.24891996 20.5976809,6 19,6 L13.415,6 L11.7071068,4.29289322 C11.5195704,4.10535684 11.2652165,4 11,4 Z M5,6 L10.585,6 L12.2928932,7.70710678 C12.4804296,7.89464316 12.7347835,8 13,8 L19,8 C19.5522847,8 20,8.44771525 20,9 L20,17 C20,17.5522847 19.5522847,18 19,18 L5,18 C4.44771525,18 4,17.5522847 4,17 L4,7 C4,6.44771525 4.44771525,6 5,6 Z"/>
</svg>
