<svg xmlns="http://www.w3.org/2000/svg" width="24" height="24" viewBox="0 0 24 24">
  <path d="M21.1666667,17.006408 C21.626904,17.006408 22,17.4526888 22,18.003204 C22,18.5537192 21.626904,19 21.1666667,19 L2.83333333,19 C2.37309604,19 2,18.5537192 2,18.003204 C2,17.4526888 2.37309604,17.006408 2.83333333,17.006408 L21.1666667,17.006408 Z M21.1666667,11.0256319 C21.626904,11.0256319 22,11.4719127 22,12.0224279 C22,12.5729431 21.626904,13.0192239 21.1666667,13.0192239 L2.83333333,13.0192239 C2.37309604,13.0192239 2,12.5729431 2,12.0224279 C2,11.4719127 2.37309604,11.0256319 2.83333333,11.0256319 L21.1666667,11.0256319 Z M21.1666667,5 C21.626904,5 22,5.44628078 22,5.99679601 C22,6.54731125 21.626904,6.99359203 21.1666667,6.99359203 L2.83333333,6.99359203 C2.37309604,6.99359203 2,6.54731125 2,5.99679601 C2,5.44628078 2.37309604,5 2.83333333,5 L21.1666667,5 Z"/>
</svg>
