<svg xmlns="http://www.w3.org/2000/svg" width="24" height="24" viewBox="0 0 24 24">
  <path d="M23,13 C23.5522847,13 24,13.4477153 24,14 C24,14.5522847 23.5522847,15 23,15 L1,15 C0.44771525,15 0,14.5522847 0,14 C0,13.4477153 0.44771525,13 1,13 L23,13 Z M23,7 C23.5522847,7 24,7.44771525 24,8 C24,8.55228475 23.5522847,9 23,9 L1,9 C0.44771525,9 0,8.55228475 0,8 C0,7.44771525 0.44771525,7 1,7 L23,7 Z M23,0.955 C23.5522847,0.955 24,1.40271525 24,1.955 C24,2.50728475 23.5522847,2.955 23,2.955 L1,2.955 C0.44771525,2.955 0,2.50728475 0,1.955 C0,1.40271525 0.44771525,0.955 1,0.955 L23,0.955 Z" transform="translate(0 4)"/>
</svg>
