<svg xmlns="http://www.w3.org/2000/svg" width="24" height="24" viewBox="0 0 24 24">
  <path d="M16.3174576,1 C17.4115312,1 18.4188507,1.59559898 18.9461053,2.55424375 L18.9461053,2.55424375 L23.3461053,10.5542438 C23.8412416,11.4544917 23.8412416,12.5455083 23.3461053,13.4457562 L23.3461053,13.4457562 L18.9461053,21.4457562 C18.4188507,22.404401 17.4115312,23 16.3174576,23 L16.3174576,23 L7.68254244,23 C6.58846875,23 5.58114934,22.404401 5.05389472,21.4457562 L5.05389472,21.4457562 L0.653894716,13.4457562 C0.158758351,12.5455083 0.158758351,11.4544917 0.653894716,10.5542438 L0.653894716,10.5542438 L5.05389472,2.55424375 C5.58114934,1.59559898 6.58846875,1 7.68254244,1 L7.68254244,1 Z M7.68254244,3 C7.31785121,3 6.98207807,3.19853299 6.80632653,3.51808125 L6.80632653,3.51808125 L2.40632653,11.5180813 C2.24128108,11.8181639 2.24128108,12.1818361 2.40632653,12.4819187 L2.40632653,12.4819187 L6.80632653,20.4819187 C6.98207807,20.801467 7.31785121,21 7.68254244,21 L7.68254244,21 L16.3174576,21 C16.6821488,21 17.0179219,20.801467 17.1936735,20.4819187 L17.1936735,20.4819187 L21.5936735,12.4819187 C21.7587189,12.1818361 21.7587189,11.8181639 21.5936735,11.5180813 L21.5936735,11.5180813 L17.1936735,3.51808125 C17.0179219,3.19853299 16.6821488,3 16.3174576,3 L16.3174576,3 Z M12,16 C12.5522847,16 13,16.4477153 13,17 C13,17.5522847 12.5522847,18 12,18 C11.4477153,18 11,17.5522847 11,17 C11,16.4477153 11.4477153,16 12,16 Z M12,6 C14.21,6 16,7.79 16,10 C16,12.4074074 13.218107,12.7283951 13.0120408,14.7580145 L13,15 L11,15 C11,11.75 14,12 14,10 C14,8.9 13.1,8 12,8 C10.95,8 10.0822314,8.82004132 10.0055128,9.85130541 L10,10 L8,10 C8,7.79 9.79,6 12,6 Z"/>
</svg>
