<svg xmlns="http://www.w3.org/2000/svg" width="24" height="24" viewBox="0 0 24 24">
  <path d="M9.37135227,3.70432092 C10.1698214,2.25255887 11.9939942,1.72296031 13.4457562,2.52142944 C13.9442354,2.79559297 14.3544842,3.20584177 14.6286477,3.70432092 L14.6286477,3.70432092 L22.2461053,17.5542438 C23.0445744,19.0060058 22.5149759,20.8301786 21.0632138,21.6286477 C20.6202789,21.8722619 20.1229665,22 19.6174576,22 L19.6174576,22 L4.38254244,22 C2.72568819,22 1.38254244,20.6568542 1.38254244,19 C1.38254244,18.4944911 1.5102805,17.9971787 1.75389472,17.5542438 L1.75389472,17.5542438 Z M12.3764912,4.2235543 C11.9128771,4.03449217 11.3709293,4.2188035 11.1237841,4.66815842 L11.1237841,4.66815842 L3.50632653,18.5180813 C3.42512179,18.6657262 3.38254244,18.831497 3.38254244,19 C3.38254244,19.5522847 3.83025769,20 4.38254244,20 L4.38254244,20 L19.6174576,20 C19.7859605,20 19.9517313,19.9574206 20.0993763,19.8762159 C20.583297,19.6100595 20.7598298,19.0020019 20.4936735,18.5180813 L20.4936735,18.5180813 L12.8762159,4.66815842 C12.7848281,4.5019987 12.6480785,4.3652491 12.4819187,4.27386126 L12.4819187,4.27386126 Z M12,17 C12.5522847,17 13,17.4477153 13,18 C13,18.5522847 12.5522847,19 12,19 C11.4477153,19 11,18.5522847 11,18 C11,17.4477153 11.4477153,17 12,17 Z M12.1,9 C13.8,9 15.1,10.3 15.1,12 C15.1,13.4 14.2,14 13.6,14.4 C13.1454545,14.6727273 13.0214876,14.7801653 13.0027047,14.9477085 L13,15 L13,16 L11,16 L11,15 C11,13.7 11.9,13.1 12.5,12.7 C13,12.4 13.1,12.2 13.1,11.9 C13.1,11.3 12.7,11 12.1,11 C11.75,11 11.4765625,11.153125 11.2796875,11.3923828 L11.2,11.5 L11.1789188,11.5379462 L11.1671582,11.5585145 L11.1671582,11.5585145 C10.9184586,11.9813039 10.3968515,12.1440978 9.95782931,11.9547316 L9.85,11.9 L9.84096572,11.8946857 C9.40918266,11.6406957 9.23714337,11.1116 9.42052358,10.6585764 L9.47382857,10.5471086 L9.5,10.5 C10,9.6 11,9 12.1,9 Z"/>
</svg>
