<svg xmlns="http://www.w3.org/2000/svg" width="24" height="24" viewBox="0 0 24 24">
  <g transform="translate(6 3)">
    <circle cx="5.5" cy="16.5" r="1.5"/>
    <path d="M5.57125231,0 C3.27624923,0 1.21739667,1.3936 0.453300432,3.4671 L0,4.6917 L2.55829735,5.5588 L3.01024059,4.3329 C3.39432449,3.2968 4.42307218,2.6 5.57125231,2.6 C7.06822949,2.6 8.28562616,3.7661 8.28562616,5.2 C8.28562616,6.0216 7.95311536,6.2907 6.99358421,6.9511 C5.82097471,7.7571 4.21406539,8.8621 4.21406539,11.7 L4.21406539,13 L6.92843924,13 L6.92843924,11.7 C6.92843924,10.1959 7.58260333,9.7461 8.57606416,9.0636 C9.5993831,8.3603 11,7.397 11,5.2 C11,2.3322 8.56520666,0 5.57125231,0 Z"/>
  </g>
</svg>
