<svg xmlns="http://www.w3.org/2000/svg" width="24" height="24" viewBox="0 0 24 24">
  <path d="M9.37135227,3.70432092 C10.1698214,2.25255887 11.9939942,1.72296031 13.4457562,2.52142944 C13.9442354,2.79559297 14.3544842,3.20584177 14.6286477,3.70432092 L14.6286477,3.70432092 L22.2461053,17.5542438 C23.0445744,19.0060058 22.5149759,20.8301786 21.0632138,21.6286477 C20.6202789,21.8722619 20.1229665,22 19.6174576,22 L19.6174576,22 L4.38254244,22 C2.72568819,22 1.38254244,20.6568542 1.38254244,19 C1.38254244,18.4944911 1.5102805,17.9971787 1.75389472,17.5542438 L1.75389472,17.5542438 Z M12,17 C11.4477153,17 11,17.4477153 11,18 C11,18.5522847 11.4477153,19 12,19 C12.5522847,19 13,18.5522847 13,18 C13,17.4477153 12.5522847,17 12,17 Z M12,9 C10.3425,9 9,10.3922222 9,12.1111111 L9,12.1111111 L10.5,12.1111111 L10.50616,11.9700522 C10.575463,11.1799383 11.2208333,10.5555556 12,10.5555556 C12.825,10.5555556 13.5,11.2555556 13.5,12.1111111 C13.5,13.6666667 11.25,13.4722222 11.25,16 L11.25,16 L12.75,16 L12.7623901,15.7802891 C12.9413989,14.2297837 15,13.9710145 15,12.1111111 C15,10.3922222 13.6575,9 12,9 Z"/>
</svg>
