<svg xmlns="http://www.w3.org/2000/svg" width="24" height="24" viewBox="0 0 24 24">
  <path d="M17,2 L23,12 L17,22 L7,22 L1,12 L7,2 L17,2 Z M12,16 C11.4477153,16 11,16.4477153 11,17 C11,17.5522847 11.4477153,18 12,18 C12.5522847,18 13,17.5522847 13,17 C13,16.4477153 12.5522847,16 12,16 Z M12,6 C9.79,6 8,7.79 8,10 L8,10 L10,10 L10.0055128,9.85130541 C10.0822314,8.82004132 10.95,8 12,8 C13.1,8 14,8.9 14,10 C14,12 11,11.75 11,15 L11,15 L13,15 L13.0120408,14.7580145 C13.218107,12.7283951 16,12.4074074 16,10 C16,7.79 14.21,6 12,6 Z"/>
</svg>
