<svg xmlns="http://www.w3.org/2000/svg" width="24" height="24" viewBox="0 0 24 24">
  <path d="M12,2 L23,22 L1,22 L12,2 Z M12,17 C11.4477153,17 11,17.4477153 11,18 C11,18.5522847 11.4477153,19 12,19 C12.5522847,19 13,18.5522847 13,18 C13,17.4477153 12.5522847,17 12,17 Z M12,11 C10.8489583,11 9.91666667,11.9944444 9.91666667,13.2222222 L9.91666667,13.2222222 L10.9583333,13.2222222 L10.9644753,13.1015967 C11.0212963,12.5466667 11.4652778,12.1111111 12,12.1111111 C12.5729167,12.1111111 13.0416667,12.6111111 13.0416667,13.2222222 C13.0416667,14.3333333 11.4791667,14.1944444 11.4791667,16 L11.4791667,16 L12.5208333,16 L12.536417,15.7904652 C12.6992503,14.7293349 14.0833333,14.5294118 14.0833333,13.2222222 C14.0833333,11.9944444 13.1510417,11 12,11 Z"/>
</svg>
