<svg xmlns="http://www.w3.org/2000/svg" width="24" height="24" viewBox="0 0 24 24">
  <path d="M12,1 C18.0751322,1 23,5.92486775 23,12 C23,18.0751322 18.0751322,23 12,23 C5.92486775,23 1,18.0751322 1,12 C1,5.92486775 5.92486775,1 12,1 Z M12,3 C7.02943725,3 3,7.02943725 3,12 C3,16.9705627 7.02943725,21 12,21 C16.9705627,21 21,16.9705627 21,12 C21,7.02943725 16.9705627,3 12,3 Z M12,16 C12.5522847,16 13,16.4477153 13,17 C13,17.5522847 12.5522847,18 12,18 C11.4477153,18 11,17.5522847 11,17 C11,16.4477153 11.4477153,16 12,16 Z M12,6 C14.21,6 16,7.79 16,10 C16,12.4074074 13.218107,12.7283951 13.0120408,14.7580145 L13,15 L11,15 C11,11.75 14,12 14,10 C14,8.9 13.1,8 12,8 C10.95,8 10.0822314,8.82004132 10.0055128,9.85130541 L10,10 L8,10 C8,7.79 9.79,6 12,6 Z"/>
</svg>
