<svg xmlns="http://www.w3.org/2000/svg" width="24" height="24" viewBox="0 0 24 24">
  <path d="M12.105,16 C12.9334271,16 13.605,16.6715729 13.605,17.5 C13.605,18.3284271 12.9334271,19 12.105,19 C11.2765729,19 10.605,18.3284271 10.605,17.5 C10.605,16.6715729 11.2765729,16 12.105,16 Z M12.105,4 C14.311,4 16.105,5.794 16.105,8 C16.105,9.69 15.073,10.431 14.319,10.972 C13.587,11.497 13.105,11.843 13.105,13 L13.105,13 L13.105,14 L11.105,14 L11.105,13 C11.105,10.817 12.289,9.967 13.153,9.347 C13.86,8.839 14.105,8.632 14.105,8 C14.105,6.897 13.208,6 12.105,6 C11.259,6 10.501,6.536 10.218,7.333 L10.218,7.333 L9.885,8.276 L8,7.609 L8.334,6.667 C8.897,5.072 10.414,4 12.105,4 Z"/>
</svg>
