<svg xmlns="http://www.w3.org/2000/svg" width="24" height="24" viewBox="0 0 24 24">
  <g fill="none" fill-rule="evenodd">
    <path fill="#000" fill-rule="nonzero" d="M8,10 L8.001,10.019 L8.0017331,10.0590314 C8.00232561,10.0691128 8.00307004,10.0791869 8.00396641,10.0892501 L8,10 C8,10.0506203 8.00376119,10.1003621 8.01101934,10.1489612 C8.01362808,10.165949 8.01670217,10.1833753 8.02024007,10.2007258 C8.0246398,10.2227461 8.02983363,10.2444365 8.03572097,10.2658396 C8.04009773,10.2814633 8.04472872,10.2968513 8.04973809,10.3121425 C8.05612249,10.3317977 8.06331574,10.3515792 8.07110396,10.3710585 C8.07819642,10.3887956 8.08567905,10.4060985 8.09367336,10.4232215 C8.10337664,10.4438914 8.11379392,10.4642939 8.12487577,10.484277 C8.13149883,10.4963944 8.13860692,10.5086131 8.14599545,10.5207088 C8.1617187,10.546275 8.17849009,10.5711307 8.19631351,10.5951593 C8.20071786,10.6012086 8.20517454,10.6070733 8.20970461,10.6128994 C8.21507113,10.6196628 8.2173721,10.6225624 8.21968877,10.625449 L8.29289322,10.7071068 L11.2928932,13.7071068 C11.6834175,14.0976311 12.3165825,14.0976311 12.7071068,13.7071068 C13.0675907,13.3466228 13.0953203,12.7793918 12.7902954,12.3871006 L12.7071068,12.2928932 L11.415,11 L15,11 C15.5522847,11 16,10.5522847 16,10 C16,9.48716416 15.6139598,9.06449284 15.1166211,9.00672773 L15,9 L11.415,9 L12.7071068,7.70710678 C13.0976311,7.31658249 13.0976311,6.68341751 12.7071068,6.29289322 C12.3466228,5.93240926 11.7793918,5.90467972 11.3871006,6.20970461 L11.2928932,6.29289322 L8.29289322,9.29289322 L8.21968877,9.37455101 C8.2173721,9.37743756 8.21507113,9.38033724 8.21278596,9.38324992 L8.29289322,9.29289322 C8.25749917,9.32828727 8.22531295,9.36567442 8.19633458,9.40469339 C8.17849009,9.42886931 8.1617187,9.45372505 8.14606743,9.47933981 C8.13860692,9.49138689 8.13149883,9.50360556 8.12467117,9.5159379 C8.11379392,9.53570605 8.10337664,9.5561086 8.09365378,9.57690085 C8.08567905,9.5939015 8.07819642,9.61120435 8.07122549,9.62866398 C8.06331574,9.6484208 8.05612249,9.66820232 8.04954668,9.68826359 C8.04472872,9.70314866 8.04009773,9.71853672 8.03584514,9.73400703 C8.02983363,9.75556352 8.0246398,9.77725392 8.02016515,9.7992059 C8.01670217,9.81662474 8.01362808,9.83405099 8.0110178,9.85153313 C8.00811223,9.87050421 8.00576612,9.89015296 8.00399798,9.90996805 C8.00307004,9.92081308 8.00232561,9.93088722 8.0017331,9.94096861 L8.00018018,9.98082404 C8.00006024,9.9872016 8,9.99359377 8,10 Z"/>
    <path fill="#000" fill-rule="nonzero" d="M19,2 C20.6568542,2 22,3.34314575 22,5 L22,5 L22,19 C22,20.6568542 20.6568542,22 19,22 L19,22 L5,22 C3.34314575,22 2,20.6568542 2,19 L2,19 L2,5 C2,3.34314575 3.34314575,2 5,2 L5,2 Z M4,14 L6,14 C7.1045695,14 8,14.8954305 8,16 C8,17.1045695 8.8954305,18 10,18 L14,18 C15.1045695,18 16,17.1045695 16,16 C16,14.8954305 16.8954305,14 18,14 L20,14 L20,5 C20,4.44771525 19.5522847,4 19,4 L19,4 L5,4 C4.44771525,4 4,4.44771525 4,5 L4,5 L4,14 Z"/>
  </g>
</svg>
