<svg xmlns="http://www.w3.org/2000/svg" width="24" height="24" viewBox="0 0 24 24">
  <g fill="none" fill-rule="evenodd">
    <path fill="#000" fill-rule="nonzero" d="M16,10 L15.999,10.019 L15.9982669,10.0590314 C15.9976744,10.0691128 15.99693,10.0791869 15.9960336,10.0892501 L16,10 C16,10.0506203 15.9962388,10.1003621 15.9889807,10.1489612 C15.9863719,10.165949 15.9832978,10.1833753 15.9797599,10.2007258 C15.9753602,10.2227461 15.9701664,10.2444365 15.964279,10.2658396 C15.9599023,10.2814633 15.9552713,10.2968513 15.9502619,10.3121425 C15.9438775,10.3317977 15.9366843,10.3515792 15.928896,10.3710585 C15.9218036,10.3887956 15.914321,10.4060985 15.9063266,10.4232215 C15.8966234,10.4438914 15.8862061,10.4642939 15.8751242,10.484277 C15.8685012,10.4963944 15.8613931,10.5086131 15.8540045,10.5207088 C15.8382813,10.546275 15.8215099,10.5711307 15.8036865,10.5951593 C15.7992821,10.6012086 15.7948255,10.6070733 15.7902954,10.6128994 C15.7849289,10.6196628 15.7826279,10.6225624 15.7803112,10.625449 L15.7071068,10.7071068 L12.7071068,13.7071068 C12.3165825,14.0976311 11.6834175,14.0976311 11.2928932,13.7071068 C10.9324093,13.3466228 10.9046797,12.7793918 11.2097046,12.3871006 L11.2928932,12.2928932 L12.585,11 L9,11 C8.44771525,11 8,10.5522847 8,10 C8,9.48716416 8.38604019,9.06449284 8.88337887,9.00672773 L9,9 L12.585,9 L11.2928932,7.70710678 C10.9023689,7.31658249 10.9023689,6.68341751 11.2928932,6.29289322 C11.6533772,5.93240926 12.2206082,5.90467972 12.6128994,6.20970461 L12.7071068,6.29289322 L15.7071068,9.29289322 L15.7803112,9.37455101 C15.7826279,9.37743756 15.7849289,9.38033724 15.787214,9.38324992 L15.7071068,9.29289322 C15.7425008,9.32828727 15.774687,9.36567442 15.8036654,9.40469339 C15.8215099,9.42886931 15.8382813,9.45372505 15.8539326,9.47933981 C15.8613931,9.49138689 15.8685012,9.50360556 15.8753288,9.5159379 C15.8862061,9.53570605 15.8966234,9.5561086 15.9063462,9.57690085 C15.914321,9.5939015 15.9218036,9.61120435 15.9287745,9.62866398 C15.9366843,9.6484208 15.9438775,9.66820232 15.9504533,9.68826359 C15.9552713,9.70314866 15.9599023,9.71853672 15.9641549,9.73400703 C15.9701664,9.75556352 15.9753602,9.77725392 15.9798348,9.7992059 C15.9832978,9.81662474 15.9863719,9.83405099 15.9889822,9.85153313 C15.9918878,9.87050421 15.9942339,9.89015296 15.996002,9.90996805 C15.99693,9.92081308 15.9976744,9.93088722 15.9982669,9.94096861 L15.9998198,9.98082404 C15.9999398,9.9872016 16,9.99359377 16,10 Z"/>
    <path fill="#000" fill-rule="nonzero" d="M19,2 C20.6568542,2 22,3.34314575 22,5 L22,5 L22,19 C22,20.6568542 20.6568542,22 19,22 L19,22 L5,22 C3.34314575,22 2,20.6568542 2,19 L2,19 L2,5 C2,3.34314575 3.34314575,2 5,2 L5,2 Z M4,14 L6,14 C7.1045695,14 8,14.8954305 8,16 C8,17.1045695 8.8954305,18 10,18 L14,18 C15.1045695,18 16,17.1045695 16,16 C16,14.8954305 16.8954305,14 18,14 L20,14 L20,5 C20,4.44771525 19.5522847,4 19,4 L19,4 L5,4 C4.44771525,4 4,4.44771525 4,5 L4,5 L4,14 Z"/>
  </g>
</svg>
