<svg xmlns="http://www.w3.org/2000/svg" width="24" height="24" viewBox="0 0 24 24">
  <path d="M6,16 L6.11662113,16.0067277 C6.61395981,16.0644928 7,16.4871642 7,17 C7,18.5976809 8.24891996,19.9036609 9.82372721,19.9949073 L10,20 L14,20 L14.1762728,19.9949073 C15.6927538,19.9070404 16.9070404,18.6927538 16.9949073,17.1762728 L17,17 L17.0067277,16.8833789 C17.0600494,16.424297 17.424297,16.0600494 17.8833789,16.0067277 L18,16 L22,16 L22,20 C22,21.1045695 21.1045695,22 20,22 L4,22 C2.8954305,22 2,21.1045695 2,20 L2,16 L6,16 Z M20,2 C21.1045695,2 22,2.8954305 22,4 L22,14 L18,14 L17.8237272,14.0050927 C16.24892,14.0963391 15,15.4023191 15,17 C15,17.5128358 14.6139598,17.9355072 14.1166211,17.9932723 L14,18 L10,18 L9.88337887,17.9932723 C9.42429701,17.9399506 9.06004937,17.575703 9.00672773,17.1166211 L9,17 L8.99490731,16.8237272 C8.90704038,15.3072462 7.69275384,14.0929596 6.17627279,14.0050927 L6,14 L2,14 L2,4 C2,2.8954305 2.8954305,2 4,2 L20,2 Z M12,12 C11.4477153,12 11,12.4477153 11,13 C11,13.5522847 11.4477153,14 12,14 C12.5522847,14 13,13.5522847 13,13 C13,12.4477153 12.5522847,12 12,12 Z M12.1,4 C11,4 10,4.6 9.5,5.5 L9.5,5.5 L9.47382857,5.54710857 L9.42052358,5.6585764 C9.23714337,6.11159999 9.40918266,6.64069568 9.84096572,6.89468572 L9.84096572,6.89468572 L9.85,6.9 L9.95782931,6.95473156 C10.3968515,7.1440978 10.9184586,6.98130389 11.1671582,6.55851454 C11.1711627,6.55170695 11.1750832,6.54485031 11.1789188,6.53794618 L11.1789188,6.53794618 L11.2,6.5 L11.2796875,6.39238281 C11.4765625,6.153125 11.75,6 12.1,6 C12.7,6 13.1,6.3 13.1,6.9 C13.1,7.2 13,7.4 12.5,7.7 C11.9,8.1 11,8.7 11,10 L11,10 L11,11 L13,11 L13,10 L13.0027047,9.94770849 C13.0214876,9.78016529 13.1454545,9.67272727 13.6,9.4 C14.2,9 15.1,8.4 15.1,7 C15.1,5.3 13.8,4 12.1,4 Z"/>
</svg>
