<svg xmlns="http://www.w3.org/2000/svg" width="24" height="24" viewBox="0 0 24 24">
  <g fill="none" fill-rule="evenodd">
    <path fill="#000" fill-rule="nonzero" d="M12,14 L12.019,13.999 L12.0590314,13.9982669 C12.0691128,13.9976744 12.0791869,13.99693 12.0892501,13.9960336 L12,14 C12.0506203,14 12.1003621,13.9962388 12.1489612,13.9889807 C12.165949,13.9863719 12.1833753,13.9832978 12.2007258,13.9797599 C12.2227461,13.9753602 12.2444365,13.9701664 12.2658396,13.964279 C12.2814633,13.9599023 12.2968513,13.9552713 12.3121425,13.9502619 C12.3317977,13.9438775 12.3515792,13.9366843 12.3710585,13.928896 C12.3887956,13.9218036 12.4060985,13.914321 12.4232215,13.9063266 C12.4438914,13.8966234 12.4642939,13.8862061 12.484277,13.8751242 C12.4963944,13.8685012 12.5086131,13.8613931 12.5207088,13.8540045 C12.546275,13.8382813 12.5711307,13.8215099 12.5951593,13.8036865 C12.6012086,13.7992821 12.6070733,13.7948255 12.6128994,13.7902954 C12.6196628,13.7849289 12.6225624,13.7826279 12.625449,13.7803112 L12.7071068,13.7071068 L15.7071068,10.7071068 C16.0976311,10.3165825 16.0976311,9.68341751 15.7071068,9.29289322 C15.3466228,8.93240926 14.7793918,8.90467972 14.3871006,9.20970461 L14.2928932,9.29289322 L13,10.585 L13,7 C13,6.44771525 12.5522847,6 12,6 C11.4871642,6 11.0644928,6.38604019 11.0067277,6.88337887 L11,7 L11,10.585 L9.70710678,9.29289322 C9.31658249,8.90236893 8.68341751,8.90236893 8.29289322,9.29289322 C7.93240926,9.65337718 7.90467972,10.2206082 8.20970461,10.6128994 L8.29289322,10.7071068 L11.2928932,13.7071068 L11.374551,13.7803112 C11.3774376,13.7826279 11.3803372,13.7849289 11.3832499,13.787214 L11.2928932,13.7071068 C11.3282873,13.7425008 11.3656744,13.774687 11.4046934,13.8036654 C11.4288693,13.8215099 11.453725,13.8382813 11.4793398,13.8539326 C11.4913869,13.8613931 11.5036056,13.8685012 11.5159379,13.8753288 C11.5357061,13.8862061 11.5561086,13.8966234 11.5769009,13.9063462 C11.5939015,13.914321 11.6112044,13.9218036 11.628664,13.9287745 C11.6484208,13.9366843 11.6682023,13.9438775 11.6882636,13.9504533 C11.7031487,13.9552713 11.7185367,13.9599023 11.734007,13.9641549 C11.7555635,13.9701664 11.7772539,13.9753602 11.7992059,13.9798348 C11.8166247,13.9832978 11.834051,13.9863719 11.8515331,13.9889822 C11.8705042,13.9918878 11.890153,13.9942339 11.909968,13.996002 C11.9208131,13.99693 11.9308872,13.9976744 11.9409686,13.9982669 L11.980824,13.9998198 C11.9872016,13.9999398 11.9935938,14 12,14 Z"/>
    <path fill="#000" fill-rule="nonzero" d="M19,2 C20.6568542,2 22,3.34314575 22,5 L22,5 L22,19 C22,20.6568542 20.6568542,22 19,22 L19,22 L5,22 C3.34314575,22 2,20.6568542 2,19 L2,19 L2,5 C2,3.34314575 3.34314575,2 5,2 L5,2 Z M4,14 L6,14 C7.1045695,14 8,14.8954305 8,16 C8,17.1045695 8.8954305,18 10,18 L14,18 C15.1045695,18 16,17.1045695 16,16 C16,14.8954305 16.8954305,14 18,14 L20,14 L20,5 C20,4.44771525 19.5522847,4 19,4 L19,4 L5,4 C4.44771525,4 4,4.44771525 4,5 L4,5 L4,14 Z"/>
  </g>
</svg>
