<svg xmlns="http://www.w3.org/2000/svg" width="24" height="24" viewBox="0 0 24 24">
  <g fill="none" fill-rule="evenodd">
    <path fill="#000" fill-rule="nonzero" d="M12,13 C12.5522847,13 13,13.4477153 13,14 C13,14.5522847 12.5522847,15 12,15 C11.4477153,15 11,14.5522847 11,14 C11,13.4477153 11.4477153,13 12,13 Z M12.1,5 C13.8,5 15.1,6.3 15.1,8 C15.1,9.4 14.2,10 13.6,10.4 C13.1,10.7 13,10.8 13,11 L13,11 L13,12 L11,12 L11,11 C11,9.7 11.9,9.1 12.5,8.7 C13,8.4 13.1,8.2 13.1,7.9 C13.1,7.3 12.7,7 12.1,7 C11.7,7 11.4,7.2 11.2,7.5 L11.2,7.5 L11.1789188,7.53794618 C11.1750832,7.54485031 11.1711627,7.55170695 11.1671582,7.55851454 C10.8977336,8.01653634 10.3080218,8.16942459 9.85,7.9 L9.85,7.9 L9.84096572,7.89468572 C9.37320074,7.61952985 9.21027394,7.02150692 9.47382857,6.54710857 L9.47382857,6.54710857 L9.5,6.5 C10,5.6 11,5 12.1,5 Z"/>
    <path fill="#000" fill-rule="nonzero" d="M19,2 C20.6568542,2 22,3.34314575 22,5 L22,5 L22,19 C22,20.6568542 20.6568542,22 19,22 L19,22 L5,22 C3.34314575,22 2,20.6568542 2,19 L2,19 L2,5 C2,3.34314575 3.34314575,2 5,2 L5,2 Z M4,14 L6,14 C7.1045695,14 8,14.8954305 8,16 C8,17.1045695 8.8954305,18 10,18 L14,18 C15.1045695,18 16,17.1045695 16,16 C16,14.8954305 16.8954305,14 18,14 L20,14 L20,5 C20,4.44771525 19.5522847,4 19,4 L19,4 L5,4 C4.44771525,4 4,4.44771525 4,5 L4,5 L4,14 Z"/>
  </g>
</svg>
