<svg xmlns="http://www.w3.org/2000/svg" width="24" height="24" viewBox="0 0 24 24">
  <path d="M19,2 C20.6568542,2 22,3.34314575 22,5 L22,5 L22,19 C22,20.6568542 20.6568542,22 19,22 L19,22 L5,22 C3.34314575,22 2,20.6568542 2,19 L2,19 L2,5 C2,3.34314575 3.34314575,2 5,2 L5,2 Z M19,4 L5,4 C4.44771525,4 4,4.44771525 4,5 L4,5 L4,19 C4,19.5522847 4.44771525,20 5,20 L5,20 L19,20 C19.5522847,20 20,19.5522847 20,19 L20,19 L20,5 C20,4.44771525 19.5522847,4 19,4 L19,4 Z M12,10 C12.6,10 13,10.4 13,11 L13,11 L13,16 L15,16 L15,18 L9,18 L9,16 L11,16 L11,12 L10,12 L10,10 Z M11.5,6 C12.3284271,6 13,6.67157288 13,7.5 C13,8.32842712 12.3284271,9 11.5,9 C10.6715729,9 10,8.32842712 10,7.5 C10,6.67157288 10.6715729,6 11.5,6 Z"/>
</svg>
