<svg xmlns="http://www.w3.org/2000/svg" width="24" height="24" viewBox="0 0 24 24">
  <path d="M23.3914405,13.022718 L18.0360686,22.022718 C17.6754933,22.6286848 17.0224657,23 16.3173342,23 L7.68266576,23 C6.97753431,23 6.32450667,22.6286848 5.96393136,22.022718 L0.608559463,13.022718 C0.233538656,12.3924747 0.233538656,11.6075253 0.608559463,10.977282 L5.96393136,1.97728201 C6.32450667,1.37131518 6.97753431,1 7.68266576,1 L16.3173342,1 C17.0224657,1 17.6754933,1.37131518 18.0360686,1.97728201 L23.3914405,10.977282 C23.7664613,11.6075253 23.7664613,12.3924747 23.3914405,13.022718 Z M13,11 C13,10.4 12.6,10 12,10 L10,10 L10,12 L11,12 L11,16 L9,16 L9,18 L15,18 L15,16 L13,16 L13,11 Z M11.5,9 C12.3284271,9 13,8.32842712 13,7.5 C13,6.67157288 12.3284271,6 11.5,6 C10.6715729,6 10,6.67157288 10,7.5 C10,8.32842712 10.6715729,9 11.5,9 Z"/>
</svg>
