<svg xmlns="http://www.w3.org/2000/svg" width="24" height="24" viewBox="0 0 24 24">
  <path d="M12,1 C18.0751322,1 23,5.92486775 23,12 C23,18.0751322 18.0751322,23 12,23 C5.92486775,23 1,18.0751322 1,12 C1,5.92486775 5.92486775,1 12,1 Z M12,3 C7.02943725,3 3,7.02943725 3,12 C3,16.9705627 7.02943725,21 12,21 C16.9705627,21 21,16.9705627 21,12 C21,7.02943725 16.9705627,3 12,3 Z M12,10 C12.6,10 13,10.4 13,11 L13,11 L13,16 L15,16 L15,18 L9,18 L9,16 L11,16 L11,12 L10,12 L10,10 Z M11.5,6 C12.3284271,6 13,6.67157288 13,7.5 C13,8.32842712 12.3284271,9 11.5,9 C10.6715729,9 10,8.32842712 10,7.5 C10,6.67157288 10.6715729,6 11.5,6 Z"/>
</svg>
