<svg xmlns="http://www.w3.org/2000/svg" width="24" height="24" viewBox="0 0 24 24">
  <path d="M21,21 L17,21 L17,14.25 C16.8442172,13.129725 15.8810031,12.2992205 14.75,12.31 C14.2570611,12.3250579 13.7916104,12.5406059 13.4612809,12.9067997 C13.1309513,13.2729936 12.9643491,13.7581214 13,14.25 L13,21 L9,21 L9,9 L13,9 L13,11 C13.8495524,9.91456715 15.1419223,9.26838223 16.52,9.24 C18.9990805,9.25649092 21,11.2708646 21,13.75 L21,21 Z M7,21 L3,21 L3,9 L7,9 L7,21 Z M5,3 C6.1045695,3 7,3.8954305 7,5 C7,6.1045695 6.1045695,7 5,7 C3.8954305,7 3,6.1045695 3,5 C3,3.8954305 3.8954305,3 5,3 Z"/>
</svg>
