<svg xmlns="http://www.w3.org/2000/svg" width="24" height="24" viewBox="0 0 24 24">
  <path d="M19,7 C21.1421954,7 22.8910789,8.68396847 22.9951047,10.8003597 L23,11 L23,13 C23,15.1421954 21.3160315,16.8910789 19.1996403,16.9951047 L19,17 L13,17 C10.8578046,17 9.10892112,15.3160315 9.00489531,13.1996403 L9,13 L9,12 C9,11.4477153 9.44771525,11 10,11 C10.5128358,11 10.9355072,11.3860402 10.9932723,11.8833789 L11,12 L11,13 C11,14.0543618 11.8158778,14.9181651 12.8507377,14.9945143 L13,15 L19,15 C20.0543618,15 20.9181651,14.1841222 20.9945143,13.1492623 L21,13 L21,11 C21,9.9456382 20.1841222,9.08183488 19.1492623,9.00548574 L19,9 L17,9 C16.4477153,9 16,8.55228475 16,8 C16,7.48716416 16.3860402,7.06449284 16.8833789,7.00672773 L17,7 L19,7 Z M11,7 C13.1421954,7 14.8910789,8.68396847 14.9951047,10.8003597 L15,11 L15,12 C15,12.5522847 14.5522847,13 14,13 C13.4871642,13 13.0644928,12.6139598 13.0067277,12.1166211 L13,12 L13,11 C13,9.9456382 12.1841222,9.08183488 11.1492623,9.00548574 L11,9 L5,9 C3.9456382,9 3.08183488,9.81587779 3.00548574,10.8507377 L3,11 L3,13 C3,14.0543618 3.81587779,14.9181651 4.85073766,14.9945143 L5,15 L7,15 C7.55228475,15 8,15.4477153 8,16 C8,16.5128358 7.61395981,16.9355072 7.11662113,16.9932723 L7,17 L5,17 C2.85780461,17 1.10892112,15.3160315 1.00489531,13.1996403 L1,13 L1,11 C1,8.85780461 2.68396847,7.10892112 4.80035966,7.00489531 L5,7 L11,7 Z" transform="rotate(-45 12 12)"/>
</svg>
