<svg xmlns="http://www.w3.org/2000/svg" width="24" height="24" viewBox="0 0 24 24">
  <path d="M20,2 C21.1045695,2 22,2.8954305 22,4 L22,20 C22,21.1045695 21.1045695,22 20,22 L4,22 C2.8954305,22 2,21.1045695 2,20 L2,4 C2,2.8954305 2.8954305,2 4,2 L20,2 Z M10.6616216,13.2501621 C10.2474976,12.8847586 9.61556568,12.9242544 9.25016214,13.3383784 L9.25016214,13.3383784 L6.47,16.488 L5.74983786,15.6717117 L5.66100314,15.5828086 C5.28850282,15.2539073 4.72064668,15.2461999 4.33837836,15.5834955 C3.92425435,15.948899 3.8847586,16.580831 4.25016214,16.994955 L4.25016214,16.994955 L5.72075038,18.6616216 L5.81050773,18.7513955 C6.21778317,19.1104909 6.85076906,19.0805663 7.22042609,18.6616216 L7.22042609,18.6616216 L10.7498379,14.6616216 L10.826988,14.5624086 C11.1069484,14.1518544 11.04389,13.5874577 10.6616216,13.2501621 Z M18,15 L14,15 L13.8833789,15.0067277 C13.3860402,15.0644928 13,15.4871642 13,16 C13,16.5522847 13.4477153,17 14,17 L14,17 L18,17 L18.1166211,16.9932723 C18.6139598,16.9355072 19,16.5128358 19,16 C19,15.4477153 18.5522847,15 18,15 L18,15 Z M10.6616216,5.25016214 C10.2474976,4.8847586 9.61556568,4.92425435 9.25016214,5.33837836 L9.25016214,5.33837836 L6.47,8.488 L5.74983786,7.6717117 L5.66100314,7.5828086 C5.28850282,7.25390727 4.72064668,7.2461999 4.33837836,7.58349548 C3.92425435,7.94889902 3.8847586,8.58083096 4.25016214,8.99495497 L4.25016214,8.99495497 L5.72075038,10.6616216 L5.81050773,10.7513955 C6.21778317,11.1104909 6.85076906,11.0805663 7.22042609,10.6616216 L7.22042609,10.6616216 L10.7498379,6.66162164 L10.826988,6.5624086 C11.1069484,6.15185442 11.04389,5.58745772 10.6616216,5.25016214 Z M18,7 L14,7 L13.8833789,7.00672773 C13.3860402,7.06449284 13,7.48716416 13,8 C13,8.55228475 13.4477153,9 14,9 L14,9 L18,9 L18.1166211,8.99327227 C18.6139598,8.93550716 19,8.51283584 19,8 C19,7.44771525 18.5522847,7 18,7 L18,7 Z"/>
</svg>
