<svg xmlns="http://www.w3.org/2000/svg" width="24" height="24" viewBox="0 0 24 24">
  <path d="M20,2 C21.1045695,2 22,2.8954305 22,4 L22,20 C22,21.1045695 21.1045695,22 20,22 L4,22 C2.8954305,22 2,21.1045695 2,20 L2,4 C2,2.8954305 2.8954305,2 4,2 L20,2 Z M5.5,15.5 C4.67157288,15.5 4,16.1715729 4,17 C4,17.8284271 4.67157288,18.5 5.5,18.5 C6.32842712,18.5 7,17.8284271 7,17 C7,16.1715729 6.32842712,15.5 5.5,15.5 Z M19,16 L10,16 L9.88337887,16.0067277 C9.38604019,16.0644928 9,16.4871642 9,17 C9,17.5522847 9.44771525,18 10,18 L10,18 L19,18 L19.1166211,17.9932723 C19.6139598,17.9355072 20,17.5128358 20,17 C20,16.4477153 19.5522847,16 19,16 L19,16 Z M5.5,10.5 C4.67157288,10.5 4,11.1715729 4,12 C4,12.8284271 4.67157288,13.5 5.5,13.5 C6.32842712,13.5 7,12.8284271 7,12 C7,11.1715729 6.32842712,10.5 5.5,10.5 Z M19,11 L10,11 L9.88337887,11.0067277 C9.38604019,11.0644928 9,11.4871642 9,12 C9,12.5522847 9.44771525,13 10,13 L10,13 L19,13 L19.1166211,12.9932723 C19.6139598,12.9355072 20,12.5128358 20,12 C20,11.4477153 19.5522847,11 19,11 L19,11 Z M5.5,5.5 C4.67157288,5.5 4,6.17157288 4,7 C4,7.82842712 4.67157288,8.5 5.5,8.5 C6.32842712,8.5 7,7.82842712 7,7 C7,6.17157288 6.32842712,5.5 5.5,5.5 Z M19,6 L10,6 L9.88337887,6.00672773 C9.38604019,6.06449284 9,6.48716416 9,7 C9,7.55228475 9.44771525,8 10,8 L10,8 L19,8 L19.1166211,7.99327227 C19.6139598,7.93550716 20,7.51283584 20,7 C20,6.44771525 19.5522847,6 19,6 L19,6 Z"/>
</svg>
