<svg xmlns="http://www.w3.org/2000/svg" width="24" height="24" viewBox="0 0 24 24">
  <path d="M4,16 C5.1045695,16 6,16.8954305 6,18 C6,19.1045695 5.1045695,20 4,20 C2.8954305,20 2,19.1045695 2,18 C2,16.8954305 2.8954305,16 4,16 Z M21,17 C21.5522847,17 22,17.4477153 22,18 C22,18.5128358 21.6139598,18.9355072 21.1166211,18.9932723 L21,19 L9,19 C8.44771525,19 8,18.5522847 8,18 C8,17.4871642 8.38604019,17.0644928 8.88337887,17.0067277 L9,17 L21,17 Z M4,10 C5.1045695,10 6,10.8954305 6,12 C6,13.1045695 5.1045695,14 4,14 C2.8954305,14 2,13.1045695 2,12 C2,10.8954305 2.8954305,10 4,10 Z M21,11 C21.5522847,11 22,11.4477153 22,12 C22,12.5128358 21.6139598,12.9355072 21.1166211,12.9932723 L21,13 L9,13 C8.44771525,13 8,12.5522847 8,12 C8,11.4871642 8.38604019,11.0644928 8.88337887,11.0067277 L9,11 L21,11 Z M4,4 C5.1045695,4 6,4.8954305 6,6 C6,7.1045695 5.1045695,8 4,8 C2.8954305,8 2,7.1045695 2,6 C2,4.8954305 2.8954305,4 4,4 Z M21,5 C21.5522847,5 22,5.44771525 22,6 C22,6.51283584 21.6139598,6.93550716 21.1166211,6.99327227 L21,7 L9,7 C8.44771525,7 8,6.55228475 8,6 C8,5.48716416 8.38604019,5.06449284 8.88337887,5.00672773 L9,5 L21,5 Z"/>
</svg>
