<svg xmlns="http://www.w3.org/2000/svg" width="96" height="32" viewBox="0 0 96 32">
  <path d="M82.813,30 L77.901,30 L77.901,6.997 L82.813,6.997 L82.813,9.175 C83.275,7.756 85.22,6.7 87.758,6.7 C92.473,6.7 96,10.495 96,15.314 C96,20.099 92.473,23.927 87.758,23.927 C85.22,23.927 83.275,22.904 82.813,21.452 L82.813,30 L82.813,30 Z M44.209,16.601 C44.308,18.581 46.022,19.868 48.626,19.868 C50.341,19.868 51.527,19.34 52.681,18.251 L55.549,20.99 C53.341,23.267 50.934,24.026 48.396,24.026 C42.989,24.026 39.297,20.627 39.297,15.413 L39.297,15.281 C39.297,9.967 43.121,6.568 48.297,6.568 C53.439,6.568 56.835,10.33 56.835,15.016 C56.835,15.016 56.835,15.842 56.769,16.601 L44.209,16.601 L44.209,16.601 Z M58.615,6.997 L63.527,6.997 L63.527,16.502 C63.527,18.416 64.516,19.637 66.396,19.637 C68.176,19.637 69.461,18.284 69.461,16.337 L69.461,6.997 L74.374,6.997 L74.374,17.789 C74.374,19.142 74.736,19.637 75.593,19.637 C75.824,19.637 76.187,19.604 76.418,19.571 L76.418,23.663 C75.923,23.828 75,23.927 74.209,23.927 C73.319,23.927 72.33,23.795 71.506,23.333 C70.978,23.003 70.319,22.475 70.022,21.551 C69.297,22.97 67.714,23.993 65.143,23.993 C60.956,23.993 58.615,21.386 58.615,17.096 L58.615,6.997 L58.615,6.997 Z M23.868,6.997 L23.868,17.789 C23.868,18.977 24.132,19.538 24.989,19.538 C25.187,19.538 25.516,19.505 25.582,19.472 L25.582,23.663 C25.417,23.729 24.659,23.927 23.307,23.927 C20.67,23.927 18.956,22.673 18.956,19.241 L18.956,11.487 L17.388,11.487 L17.388,6.997 L23.868,6.997 Z M4.912,23.63 L0,23.63 L0,0.627 L4.912,0.627 L4.912,9.01 C5.571,7.591 7.352,6.634 9.561,6.634 C13.517,6.634 15.725,9.241 15.725,13.531 L15.725,17.723 C15.725,18.944 15.923,19.472 16.813,19.472 C17.011,19.472 17.242,19.439 17.308,19.439 L17.308,23.597 C17.209,23.63 16.484,23.828 15.198,23.828 C12.594,23.828 10.813,22.574 10.813,19.076 L10.813,14.125 C10.813,12.211 9.824,10.99 7.978,10.99 C6.198,10.99 4.912,12.343 4.912,14.29 L4.912,23.63 Z M32.538,23.63 L27.626,23.63 L27.626,6.997 L32.538,6.997 L32.538,9.274 C33.296,7.591 35.077,6.634 37.351,6.634 C37.813,6.634 38.373,6.7 38.637,6.733 L38.637,11.353 C38.094923,11.2406853 37.542584,11.1853844 36.989,11.188 C34.187,11.188 32.538,12.805 32.538,15.512 L32.538,23.63 Z M86.868,19.472 C89.242,19.472 91.088,17.657 91.088,15.314 C91.088,12.97 89.242,11.155 86.868,11.155 C84.461,11.155 82.516,12.97 82.516,15.314 C82.516,17.657 84.461,19.472 86.868,19.472 Z M51.89,13.399 C51.89,11.881 50.275,10.627 48.297,10.627 C46.154,10.627 44.407,11.848 44.275,13.399 L51.89,13.399 Z M21.395,5.578 C22.945,5.578 24.198,4.356 24.198,2.805 C24.2047313,2.05937202 23.9116431,1.34229634 23.3845711,0.814848243 C22.857499,0.28740015 22.1406326,-0.00619949972 21.395,0 C20.6512618,-0.000266284419 19.9379525,0.295270052 19.4123316,0.821453724 C18.8867107,1.3476374 18.5919378,2.0612625 18.5929971,2.805 C18.5929971,4.356 19.879,5.578 21.395,5.578 Z" transform="translate(0 1)"/>
</svg>
