<svg xmlns="http://www.w3.org/2000/svg" width="24" height="24" viewBox="0 0 24 24">
  <g fill="none" fill-rule="evenodd">
    <path fill="#000" fill-rule="nonzero" d="M12,1 C5.92771525,1 1,5.92771525 1,12 C1,18.0722847 5.92771525,23 12,23 C18.0722847,23 23,18.0722847 23,12 C23,5.92771525 18.0722847,1 12,1 Z M12,3 C16.9677153,3 21,7.03228475 21,12 C21,16.9677153 16.9677153,21 12,21 C7.03228475,21 3,16.9677153 3,12 C3,7.03228475 7.03228475,3 12,3 Z"/>
    <path fill="#000" fill-rule="nonzero" d="M7.46888943,7.46888943 C9.28978803,5.64799083 12.1938675,5.50214409 14.1880397,7.13144476 C16.1822119,8.76074542 16.6182844,11.6356002 15.1969779,13.7829779 L15.1969779,13.7829779 L17.7369779,16.3229779 C18.1159501,16.7153568 18.1105303,17.3390627 17.7247965,17.7247965 C17.3390627,18.1105303 16.7153568,18.1159501 16.3229779,17.7369779 L16.3229779,17.7369779 L13.7829779,15.1969779 C11.6356002,16.6182844 8.76074542,16.1822119 7.13144476,14.1880397 C5.50214409,12.1938675 5.64799083,9.28978803 7.46888943,7.46888943 Z M11.0299779,8.02997792 C9.37312367,8.02997792 8.02997792,9.37312367 8.02997792,11.0299779 C8.02997792,12.6868322 9.37312367,14.0299779 11.0299779,14.0299779 C12.6868322,14.0299779 14.0299779,12.6868322 14.0299779,11.0299779 C14.0299779,9.37312367 12.6868322,8.02997792 11.0299779,8.02997792 Z"/>
  </g>
</svg>
