<svg xmlns="http://www.w3.org/2000/svg" width="24" height="24" viewBox="0 0 24 24">
  <path d="M11.7777778,16 C15.0355351,16 17.852067,17.5939369 17.9943627,19.5914822 L18,19.75 L18,20.5 C18,21.2848257 17.2856399,21.9288736 16.3756157,21.9944941 L16.2222222,22 L3.77777778,22 C2.85146199,22 2.08470299,21.3941828 2.00655748,20.6289401 L2,20.5 L2,19.75 C2,17.7320365 4.7329997,16.0863569 7.96598822,16.0032898 L8.22222222,16 L11.7777778,16 Z M11.7777778,18 L8.24789828,17.9998352 L8.01735845,18.00263 C5.77110212,18.0603444 4.12138311,19.0353155 4.00641116,19.6798126 L4,19.75 L4,20 L16.001,20.001 L15.999418,19.7335927 C15.9517443,19.0643509 14.2604581,18.0713422 12.0198906,18.0036546 L11.7777778,18 Z M10,6 C12.209139,6 14,7.790861 14,10 C14,12.1421954 12.3160315,13.8910789 10.1996403,13.9951047 L10,14 C7.790861,14 6,12.209139 6,10 C6,7.85780461 7.68396847,6.10892112 9.80035966,6.00489531 L10,6 Z M10,8 C8.8954305,8 8,8.8954305 8,10 C8,11.1045695 8.8954305,12 10,12 C11.1045695,12 12,11.1045695 12,10 C12,8.8954305 11.1045695,8 10,8 Z M19,2 L19.019,2.001 L19.03,2.001 L19.081,2.003 L19.1489612,2.01101934 L19.1489612,2.01101934 C19.165949,2.01362808 19.1833753,2.01670217 19.2007258,2.02024007 C19.2227461,2.0246398 19.2444365,2.02983363 19.2658396,2.03572097 C19.2814633,2.04009773 19.2968513,2.04472872 19.3121425,2.04973809 C19.3317977,2.05612249 19.3515792,2.06331574 19.3710585,2.07110396 L19.4232215,2.09367336 L19.4232215,2.09367336 C19.4438914,2.10337664 19.4642939,2.11379392 19.484277,2.12487577 C19.4963944,2.13149883 19.5086131,2.13860692 19.5207088,2.14599545 C19.546275,2.1617187 19.5711307,2.17849009 19.5951593,2.19631351 C19.6012086,2.20071786 19.6070733,2.20517454 19.6128994,2.20970461 C19.6196628,2.21507113 19.6225624,2.2173721 19.625449,2.21968877 L19.7071068,2.29289322 L22.7071068,5.29289322 C23.0976311,5.68341751 23.0976311,6.31658249 22.7071068,6.70710678 C22.3466228,7.06759074 21.7793918,7.09532028 21.3871006,6.79029539 L21.2928932,6.70710678 L20,5.415 L20,9 C20,9.55228475 19.5522847,10 19,10 C18.4871642,10 18.0644928,9.61395981 18.0067277,9.11662113 L18,9 L18,5.415 L16.7071068,6.70710678 C16.3165825,7.09763107 15.6834175,7.09763107 15.2928932,6.70710678 C14.9324093,6.34662282 14.9046797,5.77939176 15.2097046,5.38710056 L15.2928932,5.29289322 L18.2928932,2.29289322 L18.37,2.224 L18.38,2.215 L18.4046934,2.19633458 L18.4046934,2.19633458 C18.4288693,2.17849009 18.453725,2.1617187 18.4793398,2.14606743 L18.5159379,2.12467117 L18.5159379,2.12467117 C18.5357061,2.11379392 18.5561086,2.10337664 18.5769009,2.09365378 L18.628664,2.07122549 L18.628664,2.07122549 C18.6484208,2.06331574 18.6682023,2.05612249 18.6882636,2.04954668 C18.7031487,2.04472872 18.7185367,2.04009773 18.734007,2.03584514 C18.7555635,2.02983363 18.7772539,2.0246398 18.7992059,2.02016515 C18.8166247,2.01670217 18.834051,2.01362808 18.8515331,2.0110178 L18.909968,2.00399798 L18.909968,2.00399798 C18.9208131,2.00307004 18.9308872,2.00232561 18.9409686,2.0017331 L18.980824,2.00018018 L19,2 L19,2 Z"/>
</svg>
