<svg xmlns="http://www.w3.org/2000/svg" width="24" height="24" viewBox="0 0 24 24">
  <path d="M17.6128994 3.20970461L17.7071068 3.29289322 19 4.585 20.2928932 3.29289322C20.6834175 2.90236893 21.3165825 2.90236893 21.7071068 3.29289322 22.0675907 3.65337718 22.0953203 4.22060824 21.7902954 4.61289944L21.7071068 4.70710678 20.415 6 21.7071068 7.29289322C22.0976311 7.68341751 22.0976311 8.31658249 21.7071068 8.70710678 21.3466228 9.06759074 20.7793918 9.09532028 20.3871006 8.79029539L20.2928932 8.70710678 19 7.415 17.7071068 8.70710678C17.3165825 9.09763107 16.6834175 9.09763107 16.2928932 8.70710678 15.9324093 8.34662282 15.9046797 7.77939176 16.2097046 7.38710056L16.2928932 7.29289322 17.585 6 16.2928932 4.70710678C15.9023689 4.31658249 15.9023689 3.68341751 16.2928932 3.29289322 16.6533772 2.93240926 17.2206082 2.90467972 17.6128994 3.20970461zM11.7777778 16C15.1212656 16 18 17.6789322 18 19.75L18 19.75 18 20.5C18 21.3284271 17.2040618 22 16.2222222 22L16.2222222 22 3.77777778 22C2.8 22 2 21.325 2 20.5L2 20.5 2 19.75C2 17.6789322 4.87873445 16 8.22222222 16L8.22222222 16zM10 6C12.209139 6 14 7.790861 14 10 14 12.209139 12.209139 14 10 14 7.790861 14 6 12.209139 6 10 6 7.790861 7.790861 6 10 6z"/>
</svg>
