<svg xmlns="http://www.w3.org/2000/svg" width="24" height="24" viewBox="0 0 24 24">
  <path d="M11.7777778,16 C15.0355351,16 17.852067,17.5939369 17.9943627,19.5914822 L18,19.75 L18,20.5 C18,21.2848257 17.2856399,21.9288736 16.3756157,21.9944941 L16.2222222,22 L3.77777778,22 C2.85146199,22 2.08470299,21.3941828 2.00655748,20.6289401 L2,20.5 L2,19.75 C2,17.7320365 4.7329997,16.0863569 7.96598822,16.0032898 L8.22222222,16 L11.7777778,16 Z M10,6 C12.209139,6 14,7.790861 14,10 C14,12.209139 12.209139,14 10,14 C7.790861,14 6,12.209139 6,10 C6,7.790861 7.790861,6 10,6 Z M19,10 C19.5522847,10 20,10.4477153 20,11 C20,11.5522847 19.5522847,12 19,12 C18.4477153,12 18,11.5522847 18,11 C18,10.4477153 18.4477153,10 19,10 Z M19.1,2 C20.8,2 22.1,3.3 22.1,5 C22.1,6.4 21.2,7 20.6,7.4 C20.1454545,7.67272727 20.0214876,7.78016529 20.0027047,7.94770849 L20,8 L20,9 L18,9 L18,8 C18,6.7 18.9,6.1 19.5,5.7 C20,5.4 20.1,5.2 20.1,4.9 C20.1,4.3 19.7,4 19.1,4 C18.75,4 18.4765625,4.153125 18.2796875,4.39238281 L18.2,4.5 L18.1789188,4.53794618 C18.1750832,4.54485031 18.1711627,4.55170695 18.1671582,4.55851454 C17.9184586,4.98130389 17.3968515,5.1440978 16.9578293,4.95473156 L16.85,4.9 L16.8409657,4.89468572 C16.4091827,4.64069568 16.2371434,4.11159999 16.4205236,3.6585764 L16.4738286,3.54710857 L16.5,3.5 C17,2.6 18,2 19.1,2 Z"/>
</svg>
