<svg xmlns="http://www.w3.org/2000/svg" width="24" height="24" viewBox="0 0 24 24">
  <path d="M22 4C22.5522847 4 23 4.44771525 23 5 23 5.51283584 22.6139598 5.93550716 22.1166211 5.99327227L22 6 16 6C15.4477153 6 15 5.55228475 15 5 15 4.48716416 15.3860402 4.06449284 15.8833789 4.00672773L16 4 22 4zM11.7777778 16C15.1212656 16 18 17.6789322 18 19.75L18 19.75 18 20.5C18 21.3284271 17.2040618 22 16.2222222 22L16.2222222 22 3.77777778 22C2.8 22 2 21.325 2 20.5L2 20.5 2 19.75C2 17.6789322 4.87873445 16 8.22222222 16L8.22222222 16zM10 6C12.209139 6 14 7.790861 14 10 14 12.209139 12.209139 14 10 14 7.790861 14 6 12.209139 6 10 6 7.790861 7.790861 6 10 6z"/>
</svg>
