<svg xmlns="http://www.w3.org/2000/svg" width="24" height="24" viewBox="0 0 24 24">
  <path d="M12,1 C18.0722847,1 23,5.92771525 23,12 C23,18.0722847 18.0722847,23 12,23 C5.92771525,23 1,18.0722847 1,12 C1,5.92771525 5.92771525,1 12,1 Z M12,3 C7.03228475,3 3,7.03228475 3,12 C3,16.9677153 7.03228475,21 12,21 C16.9677153,21 21,16.9677153 21,12 C21,7.03228475 16.9677153,3 12,3 Z M12,13 C14.3216667,13 18,14 19,16 C18,18 14.9166667,20 12,20 C9.08333333,20 6,18 5,16 C6,14 9.66666667,13 12,13 Z M12,5 C13.66,5 15,6.34 15,8 C15,9.66 13.66,11 12,11 C10.34,11 9,9.66 9,8 C9,6.34 10.34,5 12,5 Z"/>
</svg>
