<svg xmlns="http://www.w3.org/2000/svg" width="24" height="24" viewBox="0 0 24 24">
  <path d="M19 8C19.5522847 8 20 8.44771525 20 9 20 9.55228475 19.5522847 10 19 10 18.4477153 10 18 9.55228475 18 9 18 8.44771525 18.4477153 8 19 8zM19 2C19.5522847 2 20 2.44771525 20 3L20 6C20 6.55228475 19.5522847 7 19 7 18.4477153 7 18 6.55228475 18 6L18 3C18 2.44771525 18.4477153 2 19 2zM11.7777778 16C15.1212656 16 18 17.6789322 18 19.75L18 19.75 18 20.5C18 21.3284271 17.2040618 22 16.2222222 22L16.2222222 22 3.77777778 22C2.8 22 2 21.325 2 20.5L2 20.5 2 19.75C2 17.6789322 4.87873445 16 8.22222222 16L8.22222222 16zM10 6C12.209139 6 14 7.790861 14 10 14 12.209139 12.209139 14 10 14 7.790861 14 6 12.209139 6 10 6 7.790861 7.790861 6 10 6z"/>
</svg>
