<svg xmlns="http://www.w3.org/2000/svg" width="24" height="24" viewBox="0 0 24 24">
  <path d="M17.6128994 3.20970461L17.7071068 3.29289322 19 4.585 20.2928932 3.29289322C20.6834175 2.90236893 21.3165825 2.90236893 21.7071068 3.29289322 22.0675907 3.65337718 22.0953203 4.22060824 21.7902954 4.61289944L21.7071068 4.70710678 20.415 6 21.7071068 7.29289322C22.0976311 7.68341751 22.0976311 8.31658249 21.7071068 8.70710678 21.3466228 9.06759074 20.7793918 9.09532028 20.3871006 8.79029539L20.2928932 8.70710678 19 7.415 17.7071068 8.70710678C17.3165825 9.09763107 16.6834175 9.09763107 16.2928932 8.70710678 15.9324093 8.34662282 15.9046797 7.77939176 16.2097046 7.38710056L16.2928932 7.29289322 17.585 6 16.2928932 4.70710678C15.9023689 4.31658249 15.9023689 3.68341751 16.2928932 3.29289322 16.6533772 2.93240926 17.2206082 2.90467972 17.6128994 3.20970461zM11.7777778 16C15.0355351 16 17.852067 17.5939369 17.9943627 19.5914822L18 19.75 18 20.5C18 21.2848257 17.2856399 21.9288736 16.3756157 21.9944941L16.2222222 22 3.77777778 22C2.85146199 22 2.08470299 21.3941828 2.00655748 20.6289401L2 20.5 2 19.75C2 17.7320365 4.7329997 16.0863569 7.96598822 16.0032898L8.22222222 16 11.7777778 16zM8.24789828 17.9998352L8.01735845 18.00263C5.77110212 18.0603444 4.12138311 19.0353155 4.00641116 19.6798126L4 19.75 4 20 16.001 20.001 15.999418 19.7335927C15.9517443 19.0643509 14.2604581 18.0713422 12.0198906 18.0036546L11.7777778 18 8.24789828 17.9998352zM10 6C12.209139 6 14 7.790861 14 10 14 12.1421954 12.3160315 13.8910789 10.1996403 13.9951047L10 14C7.790861 14 6 12.209139 6 10 6 7.85780461 7.68396847 6.10892112 9.80035966 6.00489531L10 6zM10 8C8.8954305 8 8 8.8954305 8 10 8 11.1045695 8.8954305 12 10 12 11.1045695 12 12 11.1045695 12 10 12 8.8954305 11.1045695 8 10 8z"/>
</svg>
