<svg xmlns="http://www.w3.org/2000/svg" width="24" height="24" viewBox="0 0 24 24">
  <path d="M14,14 C17.6759368,14 20.8525219,16.1379791 20.9950134,18.8125514 L21,19 L21,20 C21,21.0543618 20.1841222,21.9181651 19.1492623,21.9945143 L19,22 L5,22 C3.95,22 3.0822314,21.1799587 3.00551277,20.1486946 L3,20 L3,19 C3,16.3013359 6.09304106,14.1020235 9.74438137,14.0034487 L10,14 L14,14 Z M14,16 L10,16 C7.27327205,16 5.1331827,17.4546056 5.00598419,18.8676906 L5,19 L5,20 L19,20 L19,19 C19,17.5909711 16.9425388,16.0936677 14.2538686,16.0042159 L14,16 Z M12,2 C14.7614237,2 17,4.23857625 17,7 C17,9.76142375 14.7614237,12 12,12 C9.23857625,12 7,9.76142375 7,7 C7,4.23857625 9.23857625,2 12,2 Z M12,4 C10.3431458,4 9,5.34314575 9,7 C9,8.65685425 10.3431458,10 12,10 C13.6568542,10 15,8.65685425 15,7 C15,5.34314575 13.6568542,4 12,4 Z"/>
</svg>
