<svg xmlns="http://www.w3.org/2000/svg" width="24" height="24" viewBox="0 0 24 24">
  <path d="M20.2501621 3.33837836C20.6155657 2.92425435 21.2474976 2.8847586 21.6616216 3.25016214 22.04389 3.58745772 22.1069484 4.15185442 21.826988 4.5624086L21.7498379 4.66162164 18.2204261 8.66162164C17.8507691 9.08056628 17.2177832 9.11049089 16.8105077 8.75139549L16.7207504 8.66162164 15.2501621 6.99495497C14.8847586 6.58083096 14.9242544 5.94889902 15.3383784 5.58349548 15.7206467 5.2461999 16.2885028 5.25390727 16.6610031 5.5828086L16.7498379 5.6717117 17.47 6.488 20.2501621 3.33837836zM11.7777778 16C15.1212656 16 18 17.6789322 18 19.75L18 19.75 18 20.5C18 21.3284271 17.2040618 22 16.2222222 22L16.2222222 22 3.77777778 22C2.8 22 2 21.325 2 20.5L2 20.5 2 19.75C2 17.6789322 4.87873445 16 8.22222222 16L8.22222222 16zM10 6C12.209139 6 14 7.790861 14 10 14 12.209139 12.209139 14 10 14 7.790861 14 6 12.209139 6 10 6 7.790861 7.790861 6 10 6z"/>
</svg>
