<svg xmlns="http://www.w3.org/2000/svg" width="24" height="24" viewBox="0 0 24 24">
  <path d="M22 6C22.5522847 6 23 6.44771525 23 7 23 7.51283584 22.6139598 7.93550716 22.1166211 7.99327227L22 8 16 8C15.4477153 8 15 7.55228475 15 7 15 6.48716416 15.3860402 6.06449284 15.8833789 6.00672773L16 6 22 6zM22 2C22.5522847 2 23 2.44771525 23 3 23 3.51283584 22.6139598 3.93550716 22.1166211 3.99327227L22 4 16 4C15.4477153 4 15 3.55228475 15 3 15 2.48716416 15.3860402 2.06449284 15.8833789 2.00672773L16 2 22 2zM11.7777778 16C15.1212656 16 18 17.6789322 18 19.75L18 19.75 18 20.5C18 21.3284271 17.2040618 22 16.2222222 22L16.2222222 22 3.77777778 22C2.8 22 2 21.325 2 20.5L2 20.5 2 19.75C2 17.6789322 4.87873445 16 8.22222222 16L8.22222222 16zM10 6C12.209139 6 14 7.790861 14 10 14 12.209139 12.209139 14 10 14 7.790861 14 6 12.209139 6 10 6 7.790861 7.790861 6 10 6z"/>
</svg>
