<svg xmlns="http://www.w3.org/2000/svg" width="24" height="24" viewBox="0 0 24 24">
  <path d="M19 10C19.5522847 10 20 10.4477153 20 11 20 11.5522847 19.5522847 12 19 12 18.4477153 12 18 11.5522847 18 11 18 10.4477153 18.4477153 10 19 10zM19.1 2C20.8 2 22.1 3.3 22.1 5 22.1 6.4 21.2 7 20.6 7.4 20.1 7.7 20 7.8 20 8L20 8 20 9 18 9 18 8C18 6.7 18.9 6.1 19.5 5.7 20 5.4 20.1 5.2 20.1 4.9 20.1 4.3 19.7 4 19.1 4 18.7 4 18.4 4.2 18.2 4.5L18.2 4.5 18.1789188 4.53794618C18.1750832 4.54485031 18.1711627 4.55170695 18.1671582 4.55851454 17.8977336 5.01653634 17.3080218 5.16942459 16.85 4.9L16.85 4.9 16.8409657 4.89468572C16.3732007 4.61952985 16.2102739 4.02150692 16.4738286 3.54710857L16.4738286 3.54710857 16.5 3.5C17 2.6 18 2 19.1 2zM11.7777778 16C15.1212656 16 18 17.6789322 18 19.75L18 19.75 18 20.5C18 21.3284271 17.2040618 22 16.2222222 22L16.2222222 22 3.77777778 22C2.8 22 2 21.325 2 20.5L2 20.5 2 19.75C2 17.6789322 4.87873445 16 8.22222222 16L8.22222222 16zM10 6C12.209139 6 14 7.790861 14 10 14 12.209139 12.209139 14 10 14 7.790861 14 6 12.209139 6 10 6 7.790861 7.790861 6 10 6z"/>
</svg>
