<svg xmlns="http://www.w3.org/2000/svg" width="24" height="24" viewBox="0 0 24 24">
  <path d="M20.2501621 3.33837836C20.6155657 2.92425435 21.2474976 2.8847586 21.6616216 3.25016214 22.04389 3.58745772 22.1069484 4.15185442 21.826988 4.5624086L21.7498379 4.66162164 18.2204261 8.66162164C17.8507691 9.08056628 17.2177832 9.11049089 16.8105077 8.75139549L16.7207504 8.66162164 15.2501621 6.99495497C14.8847586 6.58083096 14.9242544 5.94889902 15.3383784 5.58349548 15.7206467 5.2461999 16.2885028 5.25390727 16.6610031 5.5828086L16.7498379 5.6717117 17.47 6.488 20.2501621 3.33837836zM11.7777778 16C15.0355351 16 17.852067 17.5939369 17.9943627 19.5914822L18 19.75 18 20.5C18 21.2848257 17.2856399 21.9288736 16.3756157 21.9944941L16.2222222 22 3.77777778 22C2.85146199 22 2.08470299 21.3941828 2.00655748 20.6289401L2 20.5 2 19.75C2 17.7320365 4.7329997 16.0863569 7.96598822 16.0032898L8.22222222 16 11.7777778 16zM8.24789828 17.9998352L8.01735845 18.00263C5.77110212 18.0603444 4.12138311 19.0353155 4.00641116 19.6798126L4 19.75 4 20 16.001 20.001 15.999418 19.7335927C15.9517443 19.0643509 14.2604581 18.0713422 12.0198906 18.0036546L11.7777778 18 8.24789828 17.9998352zM10 6C12.209139 6 14 7.790861 14 10 14 12.1421954 12.3160315 13.8910789 10.1996403 13.9951047L10 14C7.790861 14 6 12.209139 6 10 6 7.85780461 7.68396847 6.10892112 9.80035966 6.00489531L10 6zM10 8C8.8954305 8 8 8.8954305 8 10 8 11.1045695 8.8954305 12 10 12 11.1045695 12 12 11.1045695 12 10 12 8.8954305 11.1045695 8 10 8z"/>
</svg>
