<svg xmlns="http://www.w3.org/2000/svg" width="24" height="24" viewBox="0 0 24 24">
  <path d="M11.7777778,16 C15.0355351,16 17.852067,17.5939369 17.9943627,19.5914822 L18,19.75 L18,20.5 C18,21.2848257 17.2856399,21.9288736 16.3756157,21.9944941 L16.2222222,22 L3.77777778,22 C2.85146199,22 2.08470299,21.3941828 2.00655748,20.6289401 L2,20.5 L2,19.75 C2,17.7320365 4.7329997,16.0863569 7.96598822,16.0032898 L8.22222222,16 L11.7777778,16 Z M10,6 C12.209139,6 14,7.790861 14,10 C14,12.209139 12.209139,14 10,14 C7.790861,14 6,12.209139 6,10 C6,7.790861 7.790861,6 10,6 Z M18.3871006,2.20970461 C18.7793918,1.90467972 19.3466228,1.93240926 19.7071068,2.29289322 C20.0976311,2.68341751 20.0976311,3.31658249 19.7071068,3.70710678 L19.7071068,3.70710678 L18.415,5 L22,5 L22.1166211,5.00672773 C22.6139598,5.06449284 23,5.48716416 23,6 C23,6.55228475 22.5522847,7 22,7 L22,7 L18.415,7 L19.7071068,8.29289322 L19.7902954,8.38710056 C20.0953203,8.77939176 20.0675907,9.34662282 19.7071068,9.70710678 C19.3165825,10.0976311 18.6834175,10.0976311 18.2928932,9.70710678 L18.2928932,9.70710678 L15.2928932,6.70710678 L15.2196888,6.62544899 C15.2173721,6.62256244 15.2150711,6.61966276 15.2097046,6.61289944 C15.2051745,6.60707334 15.2007179,6.60120864 15.1963135,6.5951593 C15.1784901,6.57113069 15.1617187,6.54627495 15.1459955,6.52070875 C15.1386069,6.50861311 15.1314988,6.49639444 15.1248758,6.48427695 C15.1137939,6.46429395 15.1033766,6.4438914 15.0936734,6.42322155 L15.0936734,6.42322155 L15.071104,6.37105852 C15.0633157,6.3515792 15.0561225,6.33179768 15.0497381,6.31214252 C15.0447287,6.29685134 15.0400977,6.28146328 15.035721,6.26583961 C15.0298336,6.24443648 15.0246398,6.22274608 15.0202401,6.20072576 C15.0167022,6.18337526 15.0136281,6.16594901 15.0110193,6.14896122 L15.0110193,6.14896122 L15.003,6.081 L15.002,6.059 L15.0027879,6.07523854 L15.0027879,6.07523854 L15.0017331,6.05903139 L15.001,6.019 L15,6 L15,6 L15.0001802,5.98082404 L15.0017331,5.94096861 C15.0023256,5.93088722 15.00307,5.92081308 15.003998,5.90996805 L15.003998,5.90996805 L15.0110178,5.85153313 C15.0136281,5.83405099 15.0167022,5.81662474 15.0201652,5.7992059 C15.0246398,5.77725392 15.0298336,5.75556352 15.0358451,5.73400703 C15.0400977,5.71853672 15.0447287,5.70314866 15.0495467,5.68826359 C15.0561225,5.66820232 15.0633157,5.6484208 15.0712255,5.62866398 L15.0712255,5.62866398 L15.0936538,5.57690085 C15.1033766,5.5561086 15.1137939,5.53570605 15.1246712,5.5159379 L15.1246712,5.5159379 L15.1460674,5.47933981 C15.1617187,5.45372505 15.1784901,5.42886931 15.1963346,5.40469339 L15.1963346,5.40469339 L15.22,5.374 L15.216,5.378 L15.2196888,5.37455101 L15.232,5.359 L15.242208,5.34743396 L15.242208,5.34743396 L15.2928932,5.29289322 L18.2928932,2.29289322 Z"/>
</svg>
