<svg xmlns="http://www.w3.org/2000/svg" width="24" height="24" viewBox="0 0 24 24">
  <path d="M19 10C19.5522847 10 20 10.4477153 20 11 20 11.5522847 19.5522847 12 19 12 18.4477153 12 18 11.5522847 18 11 18 10.4477153 18.4477153 10 19 10zM19.1 2C20.8 2 22.1 3.3 22.1 5 22.1 6.4 21.2 7 20.6 7.4 20.1 7.7 20 7.8 20 8L20 8 20 9 18 9 18 8C18 6.7 18.9 6.1 19.5 5.7 20 5.4 20.1 5.2 20.1 4.9 20.1 4.3 19.7 4 19.1 4 18.7 4 18.4 4.2 18.2 4.5L18.2 4.5 18.1789188 4.53794618C18.1750832 4.54485031 18.1711627 4.55170695 18.1671582 4.55851454 17.8977336 5.01653634 17.3080218 5.16942459 16.85 4.9L16.85 4.9 16.8409657 4.89468572C16.3732007 4.61952985 16.2102739 4.02150692 16.4738286 3.54710857L16.4738286 3.54710857 16.5 3.5C17 2.6 18 2 19.1 2zM11.7777778 16C15.0355351 16 17.852067 17.5939369 17.9943627 19.5914822L18 19.75 18 20.5C18 21.2848257 17.2856399 21.9288736 16.3756157 21.9944941L16.2222222 22 3.77777778 22C2.85146199 22 2.08470299 21.3941828 2.00655748 20.6289401L2 20.5 2 19.75C2 17.7320365 4.7329997 16.0863569 7.96598822 16.0032898L8.22222222 16 11.7777778 16zM8.24789828 17.9998352L8.01735845 18.00263C5.77110212 18.0603444 4.12138311 19.0353155 4.00641116 19.6798126L4 19.75 4 20 16.001 20.001 15.999418 19.7335927C15.9517443 19.0643509 14.2604581 18.0713422 12.0198906 18.0036546L11.7777778 18 8.24789828 17.9998352zM10 6C12.209139 6 14 7.790861 14 10 14 12.1421954 12.3160315 13.8910789 10.1996403 13.9951047L10 14C7.790861 14 6 12.209139 6 10 6 7.85780461 7.68396847 6.10892112 9.80035966 6.00489531L10 6zM10 8C8.8954305 8 8 8.8954305 8 10 8 11.1045695 8.8954305 12 10 12 11.1045695 12 12 11.1045695 12 10 12 8.8954305 11.1045695 8 10 8z"/>
</svg>
