<svg xmlns="http://www.w3.org/2000/svg" width="24" height="24" viewBox="0 0 24 24">
  <path d="M11.7777778,16 C15.0355351,16 17.852067,17.5939369 17.9943627,19.5914822 L18,19.75 L18,20.5 C18,21.2848257 17.2856399,21.9288736 16.3756157,21.9944941 L16.2222222,22 L3.77777778,22 C2.85146199,22 2.08470299,21.3941828 2.00655748,20.6289401 L2,20.5 L2,19.75 C2,17.7320365 4.7329997,16.0863569 7.96598822,16.0032898 L8.22222222,16 L11.7777778,16 Z M10,6 C12.209139,6 14,7.790861 14,10 C14,12.209139 12.209139,14 10,14 C7.790861,14 6,12.209139 6,10 C6,7.790861 7.790861,6 10,6 Z M19,5 C19.5522847,5 20,5.44771525 20,6 L20,6 L20,9 C20,9.55228475 19.5522847,10 19,10 C18.4477153,10 18,9.55228475 18,9 L18,9 L18,6 C18,5.44771525 18.4477153,5 19,5 Z M19,2 C19.5522847,2 20,2.44771525 20,3 C20,3.55228475 19.5522847,4 19,4 C18.4477153,4 18,3.55228475 18,3 C18,2.44771525 18.4477153,2 19,2 Z"/>
</svg>
