<svg xmlns="http://www.w3.org/2000/svg" width="24" height="24" viewBox="0 0 24 24">
  <path d="M19 2C19.5128358 2 19.9355072 2.38604019 19.9932723 2.88337887L20 3 19.999 5 22 5C22.5522847 5 23 5.44771525 23 6 23 6.51283584 22.6139598 6.93550716 22.1166211 6.99327227L22 7 19.999 7 20 9C20 9.55228475 19.5522847 10 19 10 18.4871642 10 18.0644928 9.61395981 18.0067277 9.11662113L18 9 17.999 7 16 7C15.4477153 7 15 6.55228475 15 6 15 5.48716416 15.3860402 5.06449284 15.8833789 5.00672773L16 5 17.999 5 18 3C18 2.44771525 18.4477153 2 19 2zM11.7777778 16C15.1212656 16 18 17.6789322 18 19.75L18 19.75 18 20.5C18 21.3284271 17.2040618 22 16.2222222 22L16.2222222 22 3.77777778 22C2.8 22 2 21.325 2 20.5L2 20.5 2 19.75C2 17.6789322 4.87873445 16 8.22222222 16L8.22222222 16zM10 6C12.209139 6 14 7.790861 14 10 14 12.209139 12.209139 14 10 14 7.790861 14 6 12.209139 6 10 6 7.790861 7.790861 6 10 6z"/>
</svg>
