<svg xmlns="http://www.w3.org/2000/svg" width="24" height="24" viewBox="0 0 24 24">
  <path d="M11.7777778,16 C15.0355351,16 17.852067,17.5939369 17.9943627,19.5914822 L18,19.75 L18,20.5 C18,21.2848257 17.2856399,21.9288736 16.3756157,21.9944941 L16.2222222,22 L3.77777778,22 C2.85146199,22 2.08470299,21.3941828 2.00655748,20.6289401 L2,20.5 L2,19.75 C2,17.7320365 4.7329997,16.0863569 7.96598822,16.0032898 L8.22222222,16 L11.7777778,16 Z M8.24789828,17.9998352 L8.01735845,18.00263 C5.77110212,18.0603444 4.12138311,19.0353155 4.00641116,19.6798126 L4,19.75 L4,20 L16.001,20.001 L15.999418,19.7335927 C15.9517443,19.0643509 14.2604581,18.0713422 12.0198906,18.0036546 L11.7777778,18 L8.24789828,17.9998352 Z M10,6 C12.209139,6 14,7.790861 14,10 C14,12.1421954 12.3160315,13.8910789 10.1996403,13.9951047 L10,14 C7.790861,14 6,12.209139 6,10 C6,7.85780461 7.68396847,6.10892112 9.80035966,6.00489531 L10,6 Z M10,8 C8.8954305,8 8,8.8954305 8,10 C8,11.1045695 8.8954305,12 10,12 C11.1045695,12 12,11.1045695 12,10 C12,8.8954305 11.1045695,8 10,8 Z M21.6616216,3.25016214 C22.04389,3.58745772 22.1069484,4.15185442 21.826988,4.5624086 L21.7498379,4.66162164 L18.2204261,8.66162164 C17.8507691,9.08056628 17.2177832,9.11049089 16.8105077,8.75139549 L16.7207504,8.66162164 L15.2501621,6.99495497 C14.8847586,6.58083096 14.9242544,5.94889902 15.3383784,5.58349548 C15.7206467,5.2461999 16.2885028,5.25390727 16.6610031,5.5828086 L16.7498379,5.6717117 L17.47,6.488 L20.2501621,3.33837836 C20.6155657,2.92425435 21.2474976,2.8847586 21.6616216,3.25016214 Z"/>
</svg>
