<svg xmlns="http://www.w3.org/2000/svg" width="24" height="23" viewBox="0 0 24 23">
  <path d="M4.52208505,2.72095688 C5.47762004,1.77927581 7.22128571,1.72781329 8.22738936,2.72184753 C8.70259974,3.19135719 9.41178862,4.08449218 10.4144951,5.46181341 L10.4144951,5.46181341 L10.8313731,6.03870872 C11.3555433,6.76899296 11.3280844,7.75926528 10.7642511,8.45938065 C10.7210065,8.51307781 10.582854,8.66056357 10.4050339,8.84606553 L10.4050339,8.84606553 L9.3813961,9.89202907 C9.38007237,9.89335292 9.3785969,9.90207676 9.40077137,9.96983629 L9.40077137,9.96983629 L9.51158448,10.2722451 C9.76276981,10.9240586 10.3855732,11.7842989 11.2979335,12.6977091 C12.2090183,13.6098423 13.0682484,14.2329509 13.7195112,14.4843127 C14.0701791,14.6196567 14.0956678,14.6168813 14.1021233,14.6104366 L14.1021233,14.6104366 L15.1665741,13.5618807 C15.2678896,13.4645062 15.3479077,13.3893722 15.4116425,13.3317821 L15.4116425,13.3317821 L15.5296831,13.229828 C16.2299796,12.6660654 17.220383,12.6388533 17.9505791,13.163312 C19.5485829,14.3110679 20.5367899,15.0712596 21.0954145,15.601315 L21.0954145,15.601315 L21.2750323,15.7790939 C22.2656493,16.8085656 22.2135101,18.4739852 21.2809211,19.4598495 C21.0735185,19.6791001 20.8293152,19.9273441 20.5559836,20.1972004 L20.5559836,20.1972004 L20.1250991,20.6172712 C17.2258067,23.518269 11.2706037,21.63814 6.81588884,17.1782988 C2.36441158,12.7216988 0.479867638,6.76603888 3.356415,3.88750264 C3.54531543,3.69561653 3.68673197,3.55231943 3.8158625,3.4223836 L3.8158625,3.4223836 Z M6.82173518,4.14456897 C6.60116108,3.92664092 6.1072563,3.96676626 5.92593427,4.14545938 C5.80503532,4.26460547 5.70442634,4.36389642 5.61367931,4.45377629 L5.61367931,4.45377629 L4.78167333,5.2905845 C2.97719885,7.09635628 4.35858512,11.8881122 8.23091543,15.7648987 C12.1020322,19.6404702 16.8922631,21.0227496 18.7104697,19.2034735 C19.0155406,18.9091723 19.2829636,18.6452201 19.512392,18.4120507 L19.512392,18.4120507 L19.8279955,18.0854379 C20.035396,17.8661894 20.0724603,17.4137836 19.8338841,17.1658498 C19.5201708,16.8398319 18.8477755,16.2983542 17.7520088,15.4911438 L17.7520088,15.4911438 L16.7838495,14.7877325 C16.7675239,14.8008752 16.7375077,14.827937 16.6938009,14.8689178 L16.6938009,14.8689178 L15.5121745,16.0288003 C14.209348,17.3325633 11.9906036,16.2212312 9.88290696,14.1111091 C7.77376445,11.9995395 6.66385678,9.78125195 7.96712249,8.47787556 C8.10504523,8.3399411 8.58312637,7.85345903 8.90439934,7.52226576 L8.90439934,7.52226576 L9.20658185,7.20492201 C8.04110974,5.58116342 7.24884033,4.56655048 6.82173518,4.14456897 Z M19,2 C19.5522847,2 20,2.44771525 20,3 L20,3 L20,6.585 L21.2928932,5.29289322 L21.3871006,5.20970461 C21.7793918,4.90467972 22.3466228,4.93240926 22.7071068,5.29289322 C23.0976311,5.68341751 23.0976311,6.31658249 22.7071068,6.70710678 L22.7071068,6.70710678 L19.7071068,9.70710678 L19.625449,9.78031123 C19.6225624,9.7826279 19.6196628,9.78492887 19.6128994,9.79029539 C19.6070733,9.79482546 19.6012086,9.79928214 19.5951593,9.80368649 C19.5711307,9.82150991 19.546275,9.8382813 19.5207088,9.85400455 C19.5086131,9.86139308 19.4963944,9.86850117 19.484277,9.87512423 C19.4642939,9.88620608 19.4438914,9.89662336 19.4232215,9.90632664 C19.4060985,9.91432095 19.3887956,9.92180358 19.3710585,9.92889604 C19.3515792,9.93668426 19.3317977,9.94387751 19.3121425,9.95026191 C19.2968513,9.95527128 19.2814633,9.95990227 19.2658396,9.96427903 C19.2444365,9.97016637 19.2227461,9.9753602 19.2007258,9.97975993 C19.1833753,9.98329783 19.165949,9.98637192 19.1489612,9.98898066 L19.1489612,9.98898066 L19.0810965,9.99538514 L19.0260965,9.99838514 L19.019,9.999 L19,10 L19,10 L18.980824,9.99981982 L18.9409686,9.9982669 C18.9308872,9.99767439 18.9208131,9.99692996 18.909968,9.99600202 C18.890153,9.99423388 18.8705042,9.99188777 18.8515331,9.9889822 C18.834051,9.98637192 18.8166247,9.98329783 18.7992059,9.97983485 C18.7772539,9.9753602 18.7555635,9.97016637 18.734007,9.96415486 C18.7185367,9.95990227 18.7031487,9.95527128 18.6882636,9.95045332 L18.6882636,9.95045332 L18.628664,9.92877451 C18.6112044,9.92180358 18.5939015,9.91432095 18.5769009,9.90634622 C18.5561086,9.89662336 18.5357061,9.88620608 18.5159379,9.87532883 C18.5036056,9.86850117 18.4913869,9.86139308 18.4793398,9.85393257 C18.453725,9.8382813 18.4288693,9.82150991 18.4046934,9.80366542 L18.4046934,9.80366542 L18.3832499,9.78721404 L18.3832499,9.78721404 L18.2928932,9.70710678 L15.2928932,6.70710678 L15.2097046,6.61289944 C14.9046797,6.22060824 14.9324093,5.65337718 15.2928932,5.29289322 C15.6834175,4.90236893 16.3165825,4.90236893 16.7071068,5.29289322 L16.7071068,5.29289322 L18,6.585 L18,3 L18.0067277,2.88337887 C18.0644928,2.38604019 18.4871642,2 19,2 Z"/>
</svg>
