<svg xmlns="http://www.w3.org/2000/svg" width="24" height="24" viewBox="0 0 24 24">
  <path d="M4.52208505,2.72095688 C5.47762004,1.77927581 7.22128571,1.72781329 8.22738936,2.72184753 C8.70259974,3.19135719 9.41178862,4.08449218 10.4144951,5.46181341 L10.4144951,5.46181341 L10.8313731,6.03870872 C11.3555433,6.76899296 11.3280844,7.75926528 10.7642511,8.45938065 C10.7210065,8.51307781 10.582854,8.66056357 10.4050339,8.84606553 L10.4050339,8.84606553 L9.3813961,9.89202907 C9.38007237,9.89335292 9.3785969,9.90207676 9.40077137,9.96983629 L9.40077137,9.96983629 L9.51158448,10.2722451 C9.76276981,10.9240586 10.3855732,11.7842989 11.2979335,12.6977091 C12.2090183,13.6098423 13.0682484,14.2329509 13.7195112,14.4843127 C14.0701791,14.6196567 14.0956678,14.6168813 14.1021233,14.6104366 L14.1021233,14.6104366 L15.1665741,13.5618807 C15.2678896,13.4645062 15.3479077,13.3893722 15.4116425,13.3317821 L15.4116425,13.3317821 L15.5296831,13.229828 C16.2299796,12.6660654 17.220383,12.6388533 17.9505791,13.163312 C19.5485829,14.3110679 20.5367899,15.0712596 21.0954145,15.601315 L21.0954145,15.601315 L21.2750323,15.7790939 C22.2656493,16.8085656 22.2135101,18.4739852 21.2809211,19.4598495 C21.0735185,19.6791001 20.8293152,19.9273441 20.5559836,20.1972004 L20.5559836,20.1972004 L20.1250991,20.6172712 C17.2258067,23.518269 11.2706037,21.63814 6.81588884,17.1782988 C2.36441158,12.7216988 0.479867638,6.76603888 3.356415,3.88750264 C3.54531543,3.69561653 3.68673197,3.55231943 3.8158625,3.4223836 L3.8158625,3.4223836 Z M15.0010965,6.05838514 L15.0020965,6.05838514 L15.0000965,6.01838514 L15,6 L15.0000451,5.99040127 L15.0001802,5.98082404 L15.0017331,5.94096861 C15.0023256,5.93088722 15.00307,5.92081308 15.003998,5.90996805 C15.0057661,5.89015296 15.0081122,5.87050421 15.0110178,5.85153313 C15.0136281,5.83405099 15.0167022,5.81662474 15.0201652,5.7992059 C15.0246398,5.77725392 15.0298336,5.75556352 15.0358451,5.73400703 L15.0358451,5.73400703 L15.0495467,5.68826359 C15.0561225,5.66820232 15.0633157,5.6484208 15.0712255,5.62866398 C15.0781964,5.61120435 15.085679,5.5939015 15.0936538,5.57690085 C15.1033766,5.5561086 15.1137939,5.53570605 15.1246712,5.5159379 C15.1314988,5.50360556 15.1386069,5.49138689 15.1460674,5.47933981 C15.1617187,5.45372505 15.1784901,5.42886931 15.1963346,5.40469339 L15.1963346,5.40469339 L15.2270965,5.36638514 L15.2310965,5.36138514 L15.2320965,5.35938514 L15.2270965,5.36638514 L15.2196888,5.37455101 L15.2320965,5.35938514 L15.2360965,5.35538514 L15.242208,5.34743396 L15.242208,5.34743396 L15.2928932,5.29289322 L18.2928932,2.29289322 L18.3871006,2.20970461 C18.7793918,1.90467972 19.3466228,1.93240926 19.7071068,2.29289322 C20.0976311,2.68341751 20.0976311,3.31658249 19.7071068,3.70710678 L19.7071068,3.70710678 L18.415,5 L22,5 L22.1166211,5.00672773 C22.6139598,5.06449284 23,5.48716416 23,6 C23,6.55228475 22.5522847,7 22,7 L22,7 L18.415,7 L19.7071068,8.29289322 L19.7902954,8.38710056 C20.0953203,8.77939176 20.0675907,9.34662282 19.7071068,9.70710678 C19.3165825,10.0976311 18.6834175,10.0976311 18.2928932,9.70710678 L18.2928932,9.70710678 L15.2928932,6.70710678 L15.2196888,6.62544899 C15.2173721,6.62256244 15.2150711,6.61966276 15.2097046,6.61289944 C15.2051745,6.60707334 15.2007179,6.60120864 15.1963135,6.5951593 C15.1784901,6.57113069 15.1617187,6.54627495 15.1459955,6.52070875 C15.1386069,6.50861311 15.1314988,6.49639444 15.1248758,6.48427695 C15.1137939,6.46429395 15.1033766,6.4438914 15.0936734,6.42322155 C15.085679,6.4060985 15.0781964,6.38879565 15.071104,6.37105852 C15.0633157,6.3515792 15.0561225,6.33179768 15.0497381,6.31214252 L15.0497381,6.31214252 L15.035721,6.26583961 C15.0298336,6.24443648 15.0246398,6.22274608 15.0202401,6.20072576 L15.0202401,6.20072576 L15.0110193,6.14896122 C15.0037612,6.10036209 15,6.05062028 15,6 L15.0010965,6.05838514 Z"/>
</svg>
