<svg xmlns="http://www.w3.org/2000/svg" width="24" height="24" viewBox="0 0 24 24">
  <path d="M4.52208505,2.72095688 C5.47762004,1.77927581 7.22128571,1.72781329 8.22738936,2.72184753 C8.70259974,3.19135719 9.41178862,4.08449218 10.4144951,5.46181341 L10.4144951,5.46181341 L10.8313731,6.03870872 C11.3555433,6.76899296 11.3280844,7.75926528 10.7642511,8.45938065 C10.7210065,8.51307781 10.582854,8.66056357 10.4050339,8.84606553 L10.4050339,8.84606553 L9.3813961,9.89202907 C9.38007237,9.89335292 9.3785969,9.90207676 9.40077137,9.96983629 L9.40077137,9.96983629 L9.51158448,10.2722451 C9.76276981,10.9240586 10.3855732,11.7842989 11.2979335,12.6977091 C12.2090183,13.6098423 13.0682484,14.2329509 13.7195112,14.4843127 C14.0701791,14.6196567 14.0956678,14.6168813 14.1021233,14.6104366 L14.1021233,14.6104366 L15.1665741,13.5618807 C15.2678896,13.4645062 15.3479077,13.3893722 15.4116425,13.3317821 L15.4116425,13.3317821 L15.5296831,13.229828 C16.2299796,12.6660654 17.220383,12.6388533 17.9505791,13.163312 C19.5485829,14.3110679 20.5367899,15.0712596 21.0954145,15.601315 L21.0954145,15.601315 L21.2750323,15.7790939 C22.2656493,16.8085656 22.2135101,18.4739852 21.2809211,19.4598495 C21.0735185,19.6791001 20.8293152,19.9273441 20.5559836,20.1972004 L20.5559836,20.1972004 L20.1250991,20.6172712 C17.2258067,23.518269 11.2706037,21.63814 6.81588884,17.1782988 C2.36441158,12.7216988 0.479867638,6.76603888 3.356415,3.88750264 C3.54531543,3.69561653 3.68673197,3.55231943 3.8158625,3.4223836 L3.8158625,3.4223836 Z M21.6616216,3.25016214 C22.04389,3.58745772 22.1069484,4.15185442 21.826988,4.5624086 L21.7498379,4.66162164 L18.2204261,8.66162164 C17.8507691,9.08056628 17.2177832,9.11049089 16.8105077,8.75139549 L16.7207504,8.66162164 L15.2501621,6.99495497 C14.8847586,6.58083096 14.9242544,5.94889902 15.3383784,5.58349548 C15.7206467,5.2461999 16.2885028,5.25390727 16.6610031,5.5828086 L16.7498379,5.6717117 L17.47,6.488 L20.2501621,3.33837836 C20.6155657,2.92425435 21.2474976,2.8847586 21.6616216,3.25016214 Z"/>
</svg>
