<svg xmlns="http://www.w3.org/2000/svg" width="24" height="24" viewBox="0 0 24 24">
  <g fill="none" fill-rule="evenodd">
    <path fill="#000" fill-rule="nonzero" d="M14.6959966,6.71359457 L21.0875013,16.9400021 C21.672922,17.8766752 21.3881757,19.1105759 20.4515026,19.6959966 C20.1336394,19.8946611 19.7663442,20 19.3915047,20 L6.60849528,20 C5.50392578,20 4.60849528,19.1045695 4.60849528,18 C4.60849528,17.6251606 4.71383417,17.2578653 4.91249868,16.9400021 L11.3040034,6.71359457 C11.8894241,5.77692151 13.1233248,5.49217518 14.0599979,6.07759584 C14.3175361,6.23855726 14.5350352,6.45605631 14.6959966,6.71359457 Z" transform="rotate(90 13 12)"/>
    <path fill="#000" fill-rule="nonzero" d="M14.6959966,6.71359457 L21.0875013,16.9400021 C21.672922,17.8766752 21.3881757,19.1105759 20.4515026,19.6959966 C20.1336394,19.8946611 19.7663442,20 19.3915047,20 L6.60849528,20 C5.50392578,20 4.60849528,19.1045695 4.60849528,18 C4.60849528,17.6251606 4.71383417,17.2578653 4.91249868,16.9400021 L11.3040034,6.71359457 C11.8894241,5.77692151 13.1233248,5.49217518 14.0599979,6.07759584 C14.3175361,6.23855726 14.5350352,6.45605631 14.6959966,6.71359457 Z" transform="rotate(90 13 12)"/>
  </g>
</svg>
