<svg xmlns="http://www.w3.org/2000/svg" width="24" height="24" viewBox="0 0 24 24">
  <path d="M12,2 C12.5128358,2 12.9355072,2.38604019 12.9932723,2.88337887 L13,3 L13,11 L21,11 C21.5522847,11 22,11.4477153 22,12 C22,12.5128358 21.6139598,12.9355072 21.1166211,12.9932723 L21,13 L13,13 L13,21 C13,21.5522847 12.5522847,22 12,22 C11.4871642,22 11.0644928,21.6139598 11.0067277,21.1166211 L11,21 L11,13 L3,13 C2.44771525,13 2,12.5522847 2,12 C2,11.4871642 2.38604019,11.0644928 2.88337887,11.0067277 L3,11 L11,11 L11,3 C11,2.44771525 11.4477153,2 12,2 Z"/>
</svg>
