<svg xmlns="http://www.w3.org/2000/svg" width="24" height="24" viewBox="0 0 24 24">
  <path d="M19,1 C20.1045695,1 21,1.8954305 21,3 L21,21.5992961 C21,21.8754385 20.7761424,22.0992961 20.5,22.0992961 C20.3500334,22.0992961 20.2079858,22.0319827 20.1130214,21.915915 L18.3869786,19.8063072 C18.2121149,19.5925848 17.8971035,19.5610837 17.6833811,19.7359475 C17.6576467,19.7570029 17.6340768,19.7805728 17.6130214,19.8063072 L15.3869786,22.5270261 C15.2121149,22.7407485 14.8971035,22.7722496 14.6833811,22.5973858 C14.6576467,22.5763304 14.6340768,22.5527605 14.6130214,22.5270261 L12.3869786,19.8063072 C12.2121149,19.5925848 11.8971035,19.5610837 11.6833811,19.7359475 C11.6576467,19.7570029 11.6340768,19.7805728 11.6130214,19.8063072 L9.38697865,22.5270261 C9.21211486,22.7407485 8.89710351,22.7722496 8.6833811,22.5973858 C8.6576467,22.5763304 8.63407677,22.5527605 8.61302135,22.5270261 L6.38697865,19.8063072 C6.21211486,19.5925848 5.89710351,19.5610837 5.6833811,19.7359475 C5.6576467,19.7570029 5.63407677,19.7805728 5.61302135,19.8063072 L3.88697865,21.915915 C3.71211486,22.1296374 3.39710351,22.1611385 3.1833811,21.9862747 C3.06731339,21.8913102 3,21.7492627 3,21.5992961 L3,3 C3,1.8954305 3.8954305,1 5,1 L19,1 Z M6.5,13.5 C5.67157288,13.5 5,14.1715729 5,15 C5,15.8284271 5.67157288,16.5 6.5,16.5 C7.32842712,16.5 8,15.8284271 8,15 C8,14.1715729 7.32842712,13.5 6.5,13.5 Z M18,14 L11,14 L10.8833789,14.0067277 C10.3860402,14.0644928 10,14.4871642 10,15 C10,15.5522847 10.4477153,16 11,16 L11,16 L18,16 L18.1166211,15.9932723 C18.6139598,15.9355072 19,15.5128358 19,15 C19,14.4477153 18.5522847,14 18,14 L18,14 Z M6.5,8.5 C5.67157288,8.5 5,9.17157288 5,10 C5,10.8284271 5.67157288,11.5 6.5,11.5 C7.32842712,11.5 8,10.8284271 8,10 C8,9.17157288 7.32842712,8.5 6.5,8.5 Z M18,9 L11,9 L10.8833789,9.00672773 C10.3860402,9.06449284 10,9.48716416 10,10 C10,10.5522847 10.4477153,11 11,11 L11,11 L18,11 L18.1166211,10.9932723 C18.6139598,10.9355072 19,10.5128358 19,10 C19,9.44771525 18.5522847,9 18,9 L18,9 Z M6.5,3.5 C5.67157288,3.5 5,4.17157288 5,5 C5,5.82842712 5.67157288,6.5 6.5,6.5 C7.32842712,6.5 8,5.82842712 8,5 C8,4.17157288 7.32842712,3.5 6.5,3.5 Z M18,4 L11,4 L10.8833789,4.00672773 C10.3860402,4.06449284 10,4.48716416 10,5 C10,5.55228475 10.4477153,6 11,6 L11,6 L18,6 L18.1166211,5.99327227 C18.6139598,5.93550716 19,5.51283584 19,5 C19,4.44771525 18.5522847,4 18,4 L18,4 Z"/>
</svg>
