<svg xmlns="http://www.w3.org/2000/svg" width="24" height="24" viewBox="0 0 24 24">
  <path d="M19,1 C20.1045695,1 21,1.8954305 21,3 L21,21.5992961 C21,21.8754385 20.7761424,22.0992961 20.5,22.0992961 C20.3500334,22.0992961 20.2079858,22.0319827 20.1130214,21.915915 L18.3869786,19.8063072 C18.2121149,19.5925848 17.8971035,19.5610837 17.6833811,19.7359475 C17.6576467,19.7570029 17.6340768,19.7805728 17.6130214,19.8063072 L15.3869786,22.5270261 C15.2121149,22.7407485 14.8971035,22.7722496 14.6833811,22.5973858 C14.6576467,22.5763304 14.6340768,22.5527605 14.6130214,22.5270261 L12.3869786,19.8063072 C12.2121149,19.5925848 11.8971035,19.5610837 11.6833811,19.7359475 C11.6576467,19.7570029 11.6340768,19.7805728 11.6130214,19.8063072 L9.38697865,22.5270261 C9.21211486,22.7407485 8.89710351,22.7722496 8.6833811,22.5973858 C8.6576467,22.5763304 8.63407677,22.5527605 8.61302135,22.5270261 L6.38697865,19.8063072 C6.21211486,19.5925848 5.89710351,19.5610837 5.6833811,19.7359475 C5.6576467,19.7570029 5.63407677,19.7805728 5.61302135,19.8063072 L3.88697865,21.915915 C3.71211486,22.1296374 3.39710351,22.1611385 3.1833811,21.9862747 C3.06731339,21.8913102 3,21.7492627 3,21.5992961 L3,3 C3,1.8954305 3.8954305,1 5,1 L19,1 Z M6.5,12 C5.67157288,12 5,12.6715729 5,13.5 C5,14.3284271 5.67157288,15 6.5,15 C7.32842712,15 8,14.3284271 8,13.5 C8,12.6715729 7.32842712,12 6.5,12 Z M18,12.5 L11,12.5 L10.8833789,12.5067277 C10.3860402,12.5644928 10,12.9871642 10,13.5 C10,14.0522847 10.4477153,14.5 11,14.5 L11,14.5 L18,14.5 L18.1166211,14.4932723 C18.6139598,14.4355072 19,14.0128358 19,13.5 C19,12.9477153 18.5522847,12.5 18,12.5 L18,12.5 Z M12,4 C10.3431458,4 9,5.34314575 9,7 C9,8.65685425 10.3431458,10 12,10 C13.6568542,10 15,8.65685425 15,7 C15,5.34314575 13.6568542,4 12,4 Z"/>
</svg>
