<svg xmlns="http://www.w3.org/2000/svg" width="24" height="24" viewBox="0 0 24 24">
  <path d="M12,2 C14.6666667,2 17.3333333,2.66666667 20,4 L20,13.06 C19.9983832,16.0877148 18.2876373,18.8550978 15.58,20.21 L12,22 L8.42,20.21 C5.71236267,18.8550978 4.00161681,16.0877148 4,13.06 L4,4 C6.66666667,2.66666667 9.33333333,2 12,2 Z M12,11 C11.4477153,11 11,11.4477153 11,12 L11,15 C11,15.5522847 11.4477153,16 12,16 C12.5522847,16 13,15.5522847 13,15 L13,12 C13,11.4477153 12.5522847,11 12,11 Z M12,8 C11.4477153,8 11,8.44771525 11,9 C11,9.55228475 11.4477153,10 12,10 C12.5522847,10 13,9.55228475 13,9 C13,8.44771525 12.5522847,8 12,8 Z"/>
</svg>
