<svg xmlns="http://www.w3.org/2000/svg" width="24" height="24" viewBox="0 0 24 24">
  <path d="M12,2 C14.6666667,2 17.3333333,2.66666667 20,4 L20,13.06 C19.9983832,16.0877148 18.2876373,18.8550978 15.58,20.21 L12,22 L8.42,20.21 C5.71236267,18.8550978 4.00161681,16.0877148 4,13.06 L4,4 C6.66666667,2.66666667 9.33333333,2 12,2 Z M12,15 C11.4477153,15 11,15.4477153 11,16 C11,16.5522847 11.4477153,17 12,17 C12.5522847,17 13,16.5522847 13,16 C13,15.4477153 12.5522847,15 12,15 Z M12.1,7 C11,7 10,7.6 9.5,8.5 L9.5,8.5 L9.47382857,8.54710857 L9.42052358,8.6585764 C9.23714337,9.11159999 9.40918266,9.64069568 9.84096572,9.89468572 L9.84096572,9.89468572 L9.85,9.9 L9.95782931,9.95473156 C10.3968515,10.1440978 10.9184586,9.98130389 11.1671582,9.55851454 C11.1711627,9.55170695 11.1750832,9.54485031 11.1789188,9.53794618 L11.1789188,9.53794618 L11.2,9.5 L11.2796875,9.39238281 C11.4765625,9.153125 11.75,9 12.1,9 C12.7,9 13.1,9.3 13.1,9.9 C13.1,10.2 13,10.4 12.5,10.7 C11.9,11.1 11,11.7 11,13 L11,13 L11,14 L13,14 L13,13 L13.0027047,12.9477085 C13.0214876,12.7801653 13.1454545,12.6727273 13.6,12.4 C14.2,12 15.1,11.4 15.1,10 C15.1,8.3 13.8,7 12.1,7 Z"/>
</svg>
