<svg xmlns="http://www.w3.org/2000/svg" width="24" height="24" viewBox="0 0 24 24">
  <path d="M12,2 C14.4975513,2 16.9865973,2.64004039 19.457348,3.9107122 C19.7905481,4.08207225 20,4.42531804 20,4.8 L20,4.8 L20,12.9545192 C19.9983921,16.0512364 18.2945636,18.886178 15.589848,20.2782878 L15.589848,20.2782878 L12.457348,21.8892878 C12.1703164,22.0369041 11.8296836,22.0369041 11.542652,21.8892878 L11.542652,21.8892878 L8.4098626,20.2781389 C5.70543642,18.886178 4.00160786,16.0512364 4,12.954 L4,12.954 L4,4.8 C4,4.42531804 4.20945189,4.08207225 4.54265199,3.9107122 C7.01340272,2.64004039 9.50244869,2 12,2 Z M11.9999999,4 C10.1020241,4 8.19753622,4.42871908 6.27997802,5.29246051 L6.27997802,5.29246051 L5.99999987,5.422 L5.99999987,12.9534808 C6.00117793,15.2226085 7.20070087,17.2994237 9.10982748,18.3833971 L9.10982748,18.3833971 L9.32484801,18.4997122 L11.999,19.875 L14.6748626,18.4998611 C16.6361611,17.490386 17.9056883,15.4585585 17.9949625,13.2052396 L17.9949625,13.2052396 L17.9999999,12.954 L17.9999999,5.423 L17.720022,5.29246051 C15.9394322,4.49041489 14.1701123,4.06346508 12.4068112,4.00656432 L12.4068112,4.00656432 Z M11.3871006,8.20970461 C11.7793918,7.90467972 12.3466228,7.93240926 12.7071068,8.29289322 C13.0976311,8.68341751 13.0976311,9.31658249 12.7071068,9.70710678 L12.7071068,9.70710678 L11.415,11 L15,11 L15.1166211,11.0067277 C15.6139598,11.0644928 16,11.4871642 16,12 C16,12.5522847 15.5522847,13 15,13 L15,13 L11.415,13 L12.7071068,14.2928932 L12.7902954,14.3871006 C13.0953203,14.7793918 13.0675907,15.3466228 12.7071068,15.7071068 C12.3165825,16.0976311 11.6834175,16.0976311 11.2928932,15.7071068 L11.2928932,15.7071068 L8.29289322,12.7071068 L8.21968877,12.625449 C8.2173721,12.6225624 8.21507113,12.6196628 8.20970461,12.6128994 C8.20517454,12.6070733 8.20071786,12.6012086 8.19631351,12.5951593 C8.17849009,12.5711307 8.1617187,12.546275 8.14599545,12.5207088 C8.13860692,12.5086131 8.13149883,12.4963944 8.12487577,12.484277 C8.11379392,12.4642939 8.10337664,12.4438914 8.09367336,12.4232215 L8.09367336,12.4232215 L8.07110396,12.3710585 C8.06331574,12.3515792 8.05612249,12.3317977 8.04973809,12.3121425 C8.04472872,12.2968513 8.04009773,12.2814633 8.03572097,12.2658396 C8.02983363,12.2444365 8.0246398,12.2227461 8.02024007,12.2007258 C8.01670217,12.1833753 8.01362808,12.165949 8.01101934,12.1489612 L8.01101934,12.1489612 L8.003,12.081 L8.002,12.059 L8.00278786,12.0752385 L8.00278786,12.0752385 L8.0017331,12.0590314 L8.001,12.019 L8,12 L8,12 L8.00018018,11.980824 L8.0017331,11.9409686 C8.00232561,11.9308872 8.00307004,11.9208131 8.00399798,11.909968 L8.00399798,11.909968 L8.0110178,11.8515331 C8.01362808,11.834051 8.01670217,11.8166247 8.02016515,11.7992059 C8.0246398,11.7772539 8.02983363,11.7555635 8.03584514,11.734007 C8.04009773,11.7185367 8.04472872,11.7031487 8.04954668,11.6882636 C8.05612249,11.6682023 8.06331574,11.6484208 8.07122549,11.628664 L8.07122549,11.628664 L8.09365378,11.5769009 C8.10337664,11.5561086 8.11379392,11.5357061 8.12467117,11.5159379 L8.12467117,11.5159379 L8.14606743,11.4793398 C8.1617187,11.453725 8.17849009,11.4288693 8.19633458,11.4046934 L8.19633458,11.4046934 L8.22,11.374 L8.216,11.378 L8.21968877,11.374551 L8.232,11.359 L8.24220802,11.347434 L8.24220802,11.347434 L8.29289322,11.2928932 L11.2928932,8.29289322 Z"/>
</svg>
