<svg xmlns="http://www.w3.org/2000/svg" width="24" height="24" viewBox="0 0 24 24">
  <path d="M12,2 C14.4975513,2 16.9865973,2.64004039 19.457348,3.9107122 C19.7905481,4.08207225 20,4.42531804 20,4.8 L20,4.8 L20,12.9545192 C19.9983921,16.0512364 18.2945636,18.886178 15.589848,20.2782878 L15.589848,20.2782878 L12.457348,21.8892878 C12.1703164,22.0369041 11.8296836,22.0369041 11.542652,21.8892878 L11.542652,21.8892878 L8.4098626,20.2781389 C5.70543642,18.886178 4.00160786,16.0512364 4,12.954 L4,12.954 L4,4.8 C4,4.42531804 4.20945189,4.08207225 4.54265199,3.9107122 C7.01340272,2.64004039 9.50244869,2 12,2 Z M11.9999999,4 C10.1020241,4 8.19753622,4.42871908 6.27997802,5.29246051 L6.27997802,5.29246051 L5.99999987,5.422 L5.99999987,12.9534808 C6.00117793,15.2226085 7.20070087,17.2994237 9.10982748,18.3833971 L9.10982748,18.3833971 L9.32484801,18.4997122 L11.999,19.875 L14.6748626,18.4998611 C16.6361611,17.490386 17.9056883,15.4585585 17.9949625,13.2052396 L17.9949625,13.2052396 L17.9999999,12.954 L17.9999999,5.423 L17.720022,5.29246051 C15.9394322,4.49041489 14.1701123,4.06346508 12.4068112,4.00656432 L12.4068112,4.00656432 Z M12,8 C12.5522847,8 13,8.44771525 13,9 L13,9 L13,12.585 L14.2928932,11.2928932 L14.3871006,11.2097046 C14.7793918,10.9046797 15.3466228,10.9324093 15.7071068,11.2928932 C16.0976311,11.6834175 16.0976311,12.3165825 15.7071068,12.7071068 L15.7071068,12.7071068 L12.7071068,15.7071068 L12.625449,15.7803112 C12.6225624,15.7826279 12.6196628,15.7849289 12.6128994,15.7902954 C12.6070733,15.7948255 12.6012086,15.7992821 12.5951593,15.8036865 C12.5711307,15.8215099 12.546275,15.8382813 12.5207088,15.8540045 C12.5086131,15.8613931 12.4963944,15.8685012 12.484277,15.8751242 C12.4642939,15.8862061 12.4438914,15.8966234 12.4232215,15.9063266 L12.4232215,15.9063266 L12.3710585,15.928896 C12.3515792,15.9366843 12.3317977,15.9438775 12.3121425,15.9502619 C12.2968513,15.9552713 12.2814633,15.9599023 12.2658396,15.964279 C12.2444365,15.9701664 12.2227461,15.9753602 12.2007258,15.9797599 C12.1833753,15.9832978 12.165949,15.9863719 12.1489612,15.9889807 L12.1489612,15.9889807 L12.08,15.996 L12.045,15.998 L12.019,15.999 L12,16 C11.9935938,16 11.9872016,15.9999398 11.980824,15.9998198 L11.980824,15.9998198 L11.9409686,15.9982669 C11.9308872,15.9976744 11.9208131,15.99693 11.909968,15.996002 L11.909968,15.996002 L11.8515331,15.9889822 C11.834051,15.9863719 11.8166247,15.9832978 11.7992059,15.9798348 C11.7772539,15.9753602 11.7555635,15.9701664 11.734007,15.9641549 C11.7185367,15.9599023 11.7031487,15.9552713 11.6882636,15.9504533 C11.6682023,15.9438775 11.6484208,15.9366843 11.628664,15.9287745 L11.628664,15.9287745 L11.5769009,15.9063462 C11.5561086,15.8966234 11.5357061,15.8862061 11.5159379,15.8753288 L11.5159379,15.8753288 L11.4793398,15.8539326 C11.453725,15.8382813 11.4288693,15.8215099 11.4046934,15.8036654 L11.4046934,15.8036654 L11.38,15.784 L11.3832499,15.787214 L11.378,15.783 L11.374551,15.7803112 L11.359,15.767 L11.347434,15.757792 L11.347434,15.757792 L11.2928932,15.7071068 L8.29289322,12.7071068 L8.20970461,12.6128994 C7.90467972,12.2206082 7.93240926,11.6533772 8.29289322,11.2928932 C8.68341751,10.9023689 9.31658249,10.9023689 9.70710678,11.2928932 L9.70710678,11.2928932 L11,12.585 L11,9 L11.0067277,8.88337887 C11.0644928,8.38604019 11.4871642,8 12,8 Z"/>
</svg>
