<svg xmlns="http://www.w3.org/2000/svg" width="24" height="24" viewBox="0 0 24 24">
  <path d="M12,2 C14.4975513,2 16.9865973,2.64004039 19.457348,3.9107122 C19.7905481,4.08207225 20,4.42531804 20,4.8 L20,4.8 L20,12.9545192 C19.9983921,16.0512364 18.2945636,18.886178 15.589848,20.2782878 L15.589848,20.2782878 L12.457348,21.8892878 C12.1703164,22.0369041 11.8296836,22.0369041 11.542652,21.8892878 L11.542652,21.8892878 L8.4098626,20.2781389 C5.70543642,18.886178 4.00160786,16.0512364 4,12.954 L4,12.954 L4,4.8 C4,4.42531804 4.20945189,4.08207225 4.54265199,3.9107122 C7.01340272,2.64004039 9.50244869,2 12,2 Z M11.9999999,4 C10.1020241,4 8.19753622,4.42871908 6.27997802,5.29246051 L6.27997802,5.29246051 L5.99999987,5.422 L5.99999987,12.9534808 C6.00117793,15.2226085 7.20070087,17.2994237 9.10982748,18.3833971 L9.10982748,18.3833971 L9.32484801,18.4997122 L11.999,19.875 L14.6748626,18.4998611 C16.6361611,17.490386 17.9056883,15.4585585 17.9949625,13.2052396 L17.9949625,13.2052396 L17.9999999,12.954 L17.9999999,5.423 L17.720022,5.29246051 C15.9394322,4.49041489 14.1701123,4.06346508 12.4068112,4.00656432 L12.4068112,4.00656432 Z M12,15 C12.5522847,15 13,15.4477153 13,16 C13,16.5522847 12.5522847,17 12,17 C11.4477153,17 11,16.5522847 11,16 C11,15.4477153 11.4477153,15 12,15 Z M12.1,7 C13.8,7 15.1,8.3 15.1,10 C15.1,11.4 14.2,12 13.6,12.4 C13.1454545,12.6727273 13.0214876,12.7801653 13.0027047,12.9477085 L13,13 L13,14 L11,14 L11,13 C11,11.7 11.9,11.1 12.5,10.7 C13,10.4 13.1,10.2 13.1,9.9 C13.1,9.3 12.7,9 12.1,9 C11.75,9 11.4765625,9.153125 11.2796875,9.39238281 L11.2,9.5 L11.1789188,9.53794618 C11.1750832,9.54485031 11.1711627,9.55170695 11.1671582,9.55851454 C10.9184586,9.98130389 10.3968515,10.1440978 9.95782931,9.95473156 L9.85,9.9 L9.84096572,9.89468572 C9.40918266,9.64069568 9.23714337,9.11159999 9.42052358,8.6585764 L9.47382857,8.54710857 L9.5,8.5 C10,7.6 11,7 12.1,7 Z"/>
</svg>
