<svg xmlns="http://www.w3.org/2000/svg" width="24" height="24" viewBox="0 0 24 24">
  <path d="M12,2 C9.50244869,2 7.01340272,2.64004039 4.54265199,3.9107122 C4.20945189,4.08207225 4,4.42531804 4,4.8 L4,12.954 C4.00160786,16.0512364 5.70543642,18.886178 8.4098626,20.2781389 L11.542652,21.8892878 C11.8296836,22.0369041 12.1703164,22.0369041 12.457348,21.8892878 L15.589848,20.2782878 C18.2945636,18.886178 19.9983921,16.0512364 20,12.9545192 L20,4.8 C20,4.42531804 19.7905481,4.08207225 19.457348,3.9107122 C16.9865973,2.64004039 14.4975513,2 12,2 Z M12.4068112,4.00656432 C14.1701123,4.06346508 15.9394322,4.49041489 17.720022,5.29246051 L17.9999999,5.423 L17.9999999,12.954 L17.9949625,13.2052396 C17.9056883,15.4585585 16.6361611,17.490386 14.6748626,18.4998611 L11.999,19.875 L9.32484801,18.4997122 L9.10982748,18.3833971 C7.20070087,17.2994237 6.00117793,15.2226085 5.99999987,12.9534808 L5.99999987,5.422 L6.27997802,5.29246051 C8.19753622,4.42871908 10.1020241,4 11.9999999,4 L12.4068112,4.00656432 Z"/>
</svg>
