<svg xmlns="http://www.w3.org/2000/svg" width="24" height="24" viewBox="0 0 24 24">
  <path d="M17,2 C17.5128358,2 17.9355072,2.38604019 17.9932723,2.88337887 L18,3 L18,21 C18,21.5522847 17.5522847,22 17,22 C16.4871642,22 16.0644928,21.6139598 16.0067277,21.1166211 L16,21 L16.0004165,12.6679456 C15.9495456,12.7246248 15.8922773,12.7754059 15.8296687,12.8192319 L8.57346234,17.8985764 C8.12101305,18.2152909 7.49748259,18.1052561 7.18076808,17.6528068 C7.0631096,17.4847232 7,17.2845165 7,17.0793444 L7,6.92065556 C7,6.36837081 7.44771525,5.92065556 8,5.92065556 C8.2051721,5.92065556 8.40537881,5.98376517 8.57346234,6.10142364 L15.8296687,11.1807681 C15.8940757,11.225853 15.951544,11.2771552 16.0018303,11.3332963 L16,3 C16,2.44771525 16.4477153,2 17,2 Z"/>
</svg>
