<svg xmlns="http://www.w3.org/2000/svg" width="24" height="24" viewBox="0 0 24 24">
  <path d="M16.9984011,2 C17.5112369,2 17.9339082,2.38604019 17.9916733,2.88337887 L17.9984011,3 L17.9984011,21 C17.9984011,21.5522847 17.5506858,22 16.9984011,22 C16.4855652,22 16.0628939,21.6139598 16.0051288,21.1166211 L15.9984011,21 L15.998,13.179 L8.52999894,17.8479983 C7.89725333,18.2434643 7.08590034,17.831082 7.0063469,17.1154423 L7,17 L7,7 C7,6.21456446 7.86395093,5.73572169 8.52999894,6.1520017 L8.52999894,6.1520017 L15.998,10.82 L15.9984011,3 C15.9984011,2.44771525 16.4461163,2 16.9984011,2 Z M9,8.803 L9,15.196 L14.115,12 L9,8.803 Z"/>
</svg>
