<svg xmlns="http://www.w3.org/2000/svg" width="24" height="24" viewBox="0 0 24 24">
  <g fill="none" fill-rule="evenodd">
    <g fill="#000" fill-rule="nonzero" transform="translate(15 9)">
      <path d="M0.292893219,0.292893219 C0.65337718,-0.0675907428 1.22060824,-0.0953202783 1.61289944,0.209704612 L1.70710678,0.292893219 L5.70710678,4.29289322 C6.09763107,4.68341751 6.09763107,5.31658249 5.70710678,5.70710678 C5.34662282,6.06759074 4.77939176,6.09532028 4.38710056,5.79029539 L4.29289322,5.70710678 L0.292893219,1.70710678 C-0.0976310729,1.31658249 -0.0976310729,0.683417511 0.292893219,0.292893219 Z"/>
      <path d="M4.29289322,0.292893219 C4.68341751,-0.0976310729 5.31658249,-0.0976310729 5.70710678,0.292893219 C6.06759074,0.65337718 6.09532028,1.22060824 5.79029539,1.61289944 L5.70710678,1.70710678 L1.70710678,5.70710678 C1.31658249,6.09763107 0.683417511,6.09763107 0.292893219,5.70710678 C-0.0675907428,5.34662282 -0.0953202783,4.77939176 0.209704612,4.38710056 L0.292893219,4.29289322 L4.29289322,0.292893219 Z"/>
    </g>
    <path fill="#000" fill-rule="nonzero" d="M11.375305,4.21913119 L6.649,8 L4,8 C2.8954305,8 2,8.8954305 2,10 L2,14 L2.00548574,14.1492623 C2.08183488,15.1841222 2.9456382,16 4,16 L6.65,16 L11.375305,19.7808688 C12.0300683,20.3046795 13,19.8385062 13,19 L13,5 C13,4.16149379 12.0300683,3.69532051 11.375305,4.21913119 Z M11,7.079 L11,16.92 L7.62469505,14.2191312 C7.447382,14.0772808 7.2270715,14 7,14 L4,14 L4,10 L7,10 C7.2270715,10 7.447382,9.92271925 7.62469505,9.78086881 L11,7.079 Z"/>
  </g>
</svg>
