<svg xmlns="http://www.w3.org/2000/svg" width="24" height="24" viewBox="0 0 24 24">
  <g fill="none" fill-rule="evenodd">
    <path fill="#000" fill-rule="nonzero" d="M11.375305,4.21913119 L6.649,8 L4,8 C2.8954305,8 2,8.8954305 2,10 L2,14 L2.00548574,14.1492623 C2.08183488,15.1841222 2.9456382,16 4,16 L6.65,16 L11.375305,19.7808688 C12.0300683,20.3046795 13,19.8385062 13,19 L13,5 C13,4.16149379 12.0300683,3.69532051 11.375305,4.21913119 Z M11,7.079 L11,16.92 L7.62469505,14.2191312 C7.447382,14.0772808 7.2270715,14 7,14 L4,14 L4,10 L7,10 C7.2270715,10 7.447382,9.92271925 7.62469505,9.78086881 L11,7.079 Z"/>
    <path fill="#000" fill-rule="nonzero" d="M22.6568542,7 C23.209139,7 23.6568542,7.44771525 23.6568542,8 C23.6568542,12.9705627 19.627417,17 14.6568542,17 C14.1045695,17 13.6568542,16.5522847 13.6568542,16 C13.6568542,15.4477153 14.1045695,15 14.6568542,15 C18.5228475,15 21.6568542,11.8659932 21.6568542,8 C21.6568542,7.44771525 22.1045695,7 22.6568542,7 Z" transform="rotate(-45 18.657 12)"/>
    <path fill="#000" fill-rule="nonzero" d="M17.7299963,9.237633 C18.2822811,9.237633 18.7299963,9.68534825 18.7299963,10.237633 C18.7299963,12.9990567 16.4914201,15.237633 13.7299963,15.237633 C13.1777116,15.237633 12.7299963,14.7899177 12.7299963,14.237633 C12.7299963,13.6853482 13.1777116,13.237633 13.7299963,13.237633 C15.3868506,13.237633 16.7299963,11.8944872 16.7299963,10.237633 C16.7299963,9.68534825 17.1777116,9.237633 17.7299963,9.237633 Z" transform="rotate(-45 15.73 12.238)"/>
  </g>
</svg>
