<svg xmlns="http://www.w3.org/2000/svg" width="24" height="24" viewBox="0 0 24 24">
  <g fill="none" fill-rule="evenodd">
    <path fill="#000" fill-rule="nonzero" d="M4,16 C2.8954305,16 2,15.1045695 2,14 L2,10 C2,8.8954305 2.8954305,8 4,8 L7,8 L11.3598156,4.36682033 C11.7840925,4.01325625 12.4146572,4.07058032 12.7682213,4.49485721 C12.9179838,4.67457221 13,4.90110511 13,5.13504161 L13,18.8649584 C13,19.4172431 12.5522847,19.8649584 12,19.8649584 C11.7660635,19.8649584 11.5395306,19.7829422 11.3598156,19.6331797 L7,16 L4,16 Z"/>
    <path fill="#000" fill-rule="nonzero" d="M22.6568542,7 C23.209139,7 23.6568542,7.44771525 23.6568542,8 C23.6568542,12.9705627 19.627417,17 14.6568542,17 C14.1045695,17 13.6568542,16.5522847 13.6568542,16 C13.6568542,15.4477153 14.1045695,15 14.6568542,15 C18.5228475,15 21.6568542,11.8659932 21.6568542,8 C21.6568542,7.44771525 22.1045695,7 22.6568542,7 Z" transform="rotate(-45 18.657 12)"/>
    <path fill="#000" fill-rule="nonzero" d="M17.7299963,9.237633 C18.2822811,9.237633 18.7299963,9.68534825 18.7299963,10.237633 C18.7299963,12.9990567 16.4914201,15.237633 13.7299963,15.237633 C13.1777116,15.237633 12.7299963,14.7899177 12.7299963,14.237633 C12.7299963,13.6853482 13.1777116,13.237633 13.7299963,13.237633 C15.3868506,13.237633 16.7299963,11.8944872 16.7299963,10.237633 C16.7299963,9.68534825 17.1777116,9.237633 17.7299963,9.237633 Z" transform="rotate(-45 15.73 12.238)"/>
  </g>
</svg>
