<svg xmlns="http://www.w3.org/2000/svg" width="24" height="24" viewBox="0 0 24 24">
  <g fill="none" fill-rule="evenodd">
    <g fill="#000" fill-rule="nonzero" transform="translate(15 9)">
      <path d="M0.292893219,0.292893219 C0.65337718,-0.0675907428 1.22060824,-0.0953202783 1.61289944,0.209704612 L1.70710678,0.292893219 L5.70710678,4.29289322 C6.09763107,4.68341751 6.09763107,5.31658249 5.70710678,5.70710678 C5.34662282,6.06759074 4.77939176,6.09532028 4.38710056,5.79029539 L4.29289322,5.70710678 L0.292893219,1.70710678 C-0.0976310729,1.31658249 -0.0976310729,0.683417511 0.292893219,0.292893219 Z"/>
      <path d="M4.29289322,0.292893219 C4.68341751,-0.0976310729 5.31658249,-0.0976310729 5.70710678,0.292893219 C6.06759074,0.65337718 6.09532028,1.22060824 5.79029539,1.61289944 L5.70710678,1.70710678 L1.70710678,5.70710678 C1.31658249,6.09763107 0.683417511,6.09763107 0.292893219,5.70710678 C-0.0675907428,5.34662282 -0.0953202783,4.77939176 0.209704612,4.38710056 L0.292893219,4.29289322 L4.29289322,0.292893219 Z"/>
    </g>
    <path fill="#000" fill-rule="nonzero" d="M4,16 C2.8954305,16 2,15.1045695 2,14 L2,10 C2,8.8954305 2.8954305,8 4,8 L7,8 L11.3598156,4.36682033 C11.7840925,4.01325625 12.4146572,4.07058032 12.7682213,4.49485721 C12.9179838,4.67457221 13,4.90110511 13,5.13504161 L13,18.8649584 C13,19.4172431 12.5522847,19.8649584 12,19.8649584 C11.7660635,19.8649584 11.5395306,19.7829422 11.3598156,19.6331797 L7,16 L4,16 Z"/>
  </g>
</svg>
