<svg xmlns="http://www.w3.org/2000/svg" width="24" height="24" viewBox="0 0 24 24">
  <path d="M19,4 L5,4 C3.34314575,4 2,5.34314575 2,7 L2,15 C2,16.6568542 3.34314575,18 5,18 L5,21 L5.00593493,21.1118423 C5.08426422,21.8419811 5.92179093,22.2539898 6.5547002,21.8320503 L12.302,18 L19,18 C20.6568542,18 22,16.6568542 22,15 L22,7 C22,5.34314575 20.6568542,4 19,4 Z M5,6 L19,6 C19.5522847,6 20,6.44771525 20,7 L20,15 C20,15.5522847 19.5522847,16 19,16 L12,16 L11.8822697,16.0069536 C11.7265215,16.0254182 11.5767138,16.0803404 11.4452998,16.1679497 L7,19.13 L7,17 C7,16.4477153 6.55228475,16 6,16 L5,16 C4.44771525,16 4,15.5522847 4,15 L4,7 C4,6.44771525 4.44771525,6 5,6 Z"/>
</svg>
