<svg xmlns="http://www.w3.org/2000/svg" width="24" height="24" viewBox="0 0 24 24">
  <path d="M14,9 C15.1045695,9 16,9.8954305 16,11 L16,11 L16,17 C16,18.1045695 15.1045695,19 14,19 L14,19 L7.999,19 L5.28033009,21.7196699 C5.1396778,21.8603222 4.94891237,21.9393398 4.75,21.9393398 C4.37030423,21.9393398 4.05650904,21.6571859 4.00684662,21.2911104 L4,21.1893398 L4,19 C2.8954305,19 2,18.1045695 2,17 L2,17 L2,11 C2,9.8954305 2.8954305,9 4,9 L4,9 Z M14,11 L4,11 L4,17 L14,17 L14,11 Z M20,3 C21.1045695,3 22,3.8954305 22,5 L22,11 C22,12.1045695 21.1045695,13 20,13 L18,13 L18,9 C18,7.9456382 17.1841222,7.08183488 16.1492623,7.00548574 L16,7 L10,7 L10,5 C10,3.8954305 10.8954305,3 12,3 L20,3 Z"/>
</svg>
