<svg xmlns="http://www.w3.org/2000/svg" width="24" height="24" viewBox="0 0 24 24">
  <path d="M19,4 C20.6568542,4 22,5.34314575 22,7 L22,15 C22,16.6568542 20.6568542,18 19,18 L11.999,18 L6.58123819,21.8705441 C6.44555759,21.9674589 6.28836421,22.0285206 6.12420152,22.0490687 L6,22.0568107 C5.48716416,22.0568107 5.06449284,21.6707705 5.00672773,21.1734318 L5,21.0568107 L5,18 C3.34314575,18 2,16.6568542 2,15 L2,7 C2,5.34314575 3.34314575,4 5,4 L19,4 Z M7,9.5 C6.17157288,9.5 5.5,10.1715729 5.5,11 C5.5,11.8284271 6.17157288,12.5 7,12.5 C7.82842712,12.5 8.5,11.8284271 8.5,11 C8.5,10.1715729 7.82842712,9.5 7,9.5 Z M12,9.5 C11.1715729,9.5 10.5,10.1715729 10.5,11 C10.5,11.8284271 11.1715729,12.5 12,12.5 C12.8284271,12.5 13.5,11.8284271 13.5,11 C13.5,10.1715729 12.8284271,9.5 12,9.5 Z M17,9.5 C16.1715729,9.5 15.5,10.1715729 15.5,11 C15.5,11.8284271 16.1715729,12.5 17,12.5 C17.8284271,12.5 18.5,11.8284271 18.5,11 C18.5,10.1715729 17.8284271,9.5 17,9.5 Z"/>
</svg>
