<svg xmlns="http://www.w3.org/2000/svg" width="24" height="24" viewBox="0 0 24 24">
  <path d="M19,4 C20.6568542,4 22,5.34314575 22,7 L22,7 L22,15 C22,16.6568542 20.6568542,18 19,18 L19,18 L12.302,18 L6.5547002,21.8320503 C5.92179093,22.2539898 5.08426422,21.8419811 5.00593493,21.1118423 L5.00593493,21.1118423 L5,21 L5,18 C3.34314575,18 2,16.6568542 2,15 L2,15 L2,7 C2,5.34314575 3.34314575,4 5,4 L5,4 Z M19,6 L5,6 C4.44771525,6 4,6.44771525 4,7 L4,7 L4,15 C4,15.5522847 4.44771525,16 5,16 L5,16 L6,16 C6.55228475,16 7,16.4477153 7,17 L7,17 L7,19.13 L11.4452998,16.1679497 C11.5767138,16.0803404 11.7265215,16.0254182 11.8822697,16.0069536 L11.8822697,16.0069536 L12,16 L19,16 C19.5522847,16 20,15.5522847 20,15 L20,15 L20,7 C20,6.44771525 19.5522847,6 19,6 L19,6 Z M7,9.5 C7.82842712,9.5 8.5,10.1715729 8.5,11 C8.5,11.8284271 7.82842712,12.5 7,12.5 C6.17157288,12.5 5.5,11.8284271 5.5,11 C5.5,10.1715729 6.17157288,9.5 7,9.5 Z M12,9.5 C12.8284271,9.5 13.5,10.1715729 13.5,11 C13.5,11.8284271 12.8284271,12.5 12,12.5 C11.1715729,12.5 10.5,11.8284271 10.5,11 C10.5,10.1715729 11.1715729,9.5 12,9.5 Z M17,9.5 C17.8284271,9.5 18.5,10.1715729 18.5,11 C18.5,11.8284271 17.8284271,12.5 17,12.5 C16.1715729,12.5 15.5,11.8284271 15.5,11 C15.5,10.1715729 16.1715729,9.5 17,9.5 Z"/>
</svg>
