<svg xmlns="http://www.w3.org/2000/svg" width="24" height="24" viewBox="0 0 24 24">
  <path d="M20,7 C21.0543618,7 21.9181651,7.81587779 21.9945143,8.85073766 L22,9 L22,20.7928932 C22,21.0690356 21.7761424,21.2928932 21.5,21.2928932 C21.3673918,21.2928932 21.2402148,21.2402148 21.1464466,21.1464466 L19,19 L8,19 C6.9456382,19 6.08183488,18.1841222 6.00548574,17.1492623 L6,17 L6,16 L18,16 C19.0543618,16 19.9181651,15.1841222 19.9945143,14.1492623 L20,14 L20,7 Z M16,2 C17.1045695,2 18,2.8954305 18,4 L18,12 C18,13.1045695 17.1045695,14 16,14 L5,14 L2.85355339,16.1464466 C2.7597852,16.2402148 2.63260824,16.2928932 2.5,16.2928932 C2.25454011,16.2928932 2.05039163,16.1160181 2.00805567,15.8827689 L2,15.7928932 L2,4 C2,2.8954305 2.8954305,2 4,2 L16,2 Z"/>
</svg>
