<svg xmlns="http://www.w3.org/2000/svg" width="24" height="24" viewBox="0 0 24 24">
  <path d="M20.0009007,7.17102423 C21.1073865,7.56251032 21.9157364,8.58476477 21.9938052,9.80564227 L22,10 L22,20.7928932 L21.9919443,20.8827689 C21.9496084,21.1160181 21.7454599,21.2928932 21.5,21.2928932 C21.3939134,21.2928932 21.2913028,21.259179 21.2064928,21.197684 L21.1464466,21.1464466 L19,19 L9,19 L8.82372721,18.9949073 C7.30724616,18.9070404 6.09295962,17.6927538 6.00509269,16.1762728 L6,16 L8,16 L8.00672773,16.1166211 L8.02641071,16.2292908 C8.12141588,16.6342517 8.46255383,16.9443941 8.88337887,16.9932723 L9,17 L20,17 L20.0009007,7.17102423 Z M15,2 C16.5976809,2 17.9036609,3.24891996 17.9949073,4.82372721 L18,5 L18,11 C18,12.5976809 16.75108,13.9036609 15.1762728,13.9949073 L15,14 L4.999,14 L4,14.999 L4,15 L3.999,15 L2.85355339,16.1464466 C2.77853884,16.2214612 2.68214268,16.2701783 2.57868937,16.2866645 L2.5,16.2928932 C2.25454011,16.2928932 2.05039163,16.1160181 2.00805567,15.8827689 L2,15.7928932 L2,5 C2,3.40231912 3.24891996,2.09633912 4.82372721,2.00509269 L5,2 L15,2 Z M15,4 L5,4 C4.48716416,4 4.06449284,4.38604019 4.00672773,4.88337887 L4,5 L4,12 L15,12 C15.4733869,12 15.8699473,11.6710663 15.9735893,11.2292908 L15.9932723,11.1166211 L16,11 L16,5 C16,4.44771525 15.5522847,4 15,4 Z"/>
</svg>
