<svg xmlns="http://www.w3.org/2000/svg" width="24" height="24" viewBox="0 0 24 24">
  <path d="M2,6 C2,4.34314575 3.34314575,3 5,3 L5,3 L19,3 C20.6568542,3 22,4.34314575 22,6 L22,6 L22,16 C22,17.6568542 20.6568542,19 19,19 L19,19 L5,19 L2.85355339,21.1464466 C2.7597852,21.2402148 2.63260824,21.2928932 2.5,21.2928932 C2.22385763,21.2928932 2,21.0690356 2,20.7928932 L2,20.7928932 Z M19,5 L5,5 C4.44771525,5 4,5.44771525 4,6 L4,6 L4,17 L19,17 C19.5128358,17 19.9355072,16.6139598 19.9932723,16.1166211 L19.9932723,16.1166211 L20,16 L20,6 C20,5.44771525 19.5522847,5 19,5 L19,5 Z"/>
</svg>
