<svg xmlns="http://www.w3.org/2000/svg" width="24" height="24" viewBox="0 0 24 24">
  <path d="M9.76047481,4.63408584 L8.90091806,7.54072685 C8.77591633,7.96342743 8.38888334,8.25442626 7.94809549,8.25712635 L4.27119027,8.27964968 C3.50383289,8.28435023 2.7895979,8.67225365 2.36786911,9.31334979 C1.67127274,10.3722892 1.96500983,11.7954322 3.02394927,12.4920286 L5.38555257,14.0455492 C5.74699425,14.2833144 5.91454942,14.7265462 5.80078338,15.1439545 L4.88917732,18.4886426 C4.67268428,19.2829569 4.85815059,20.13294 5.38585039,20.7648714 C6.27726638,21.8323605 7.86527266,21.9750959 8.9327617,21.0836799 L11.3590344,19.0575999 C11.7301547,18.7476926 12.2698453,18.7476926 12.6409656,19.0575999 L15.0672383,21.0836799 C15.6991697,21.6113797 16.5491529,21.796846 17.3434671,21.580353 C18.6852611,21.2146425 19.4765332,19.8304366 19.1108227,18.4886426 L18.1992166,15.1439545 C18.0854506,14.7265462 18.2530058,14.2833144 18.6144474,14.0455492 L20.9760507,12.4920286 C21.6171469,12.0702998 22.0050503,11.3560648 22.0097948,10.5887074 C22.017515,9.32121422 20.9963029,8.28741387 19.7288097,8.27964968 L16.0519045,8.25712635 C15.6111167,8.25442626 15.2240837,7.96342743 15.0990819,7.54072685 L14.2395252,4.63408584 C14.0150504,3.87501118 13.4213508,3.28131163 12.6622761,3.0568368 C11.4254205,2.69107179 10.1262398,3.39723023 9.76047481,4.63408584 Z M12.0951127,4.97473294 C12.2041271,5.00697086 12.2893911,5.09223492 12.321629,5.20124931 L13.1811858,8.10789031 C13.556191,9.37599207 14.71729,10.2489885 16.0396535,10.2570888 L19.7165587,10.2796122 C19.8795031,10.2806103 20.0107865,10.413512 20.009794,10.5764564 C20.0091841,10.6751051 19.9593166,10.7669246 19.8768996,10.8211406 L17.5152963,12.3746612 C16.4309712,13.0879569 15.9283057,14.4176521 16.2696038,15.669877 L17.1812099,19.0145651 C17.2564614,19.2906634 17.0936429,19.5754887 16.8175447,19.6507402 C16.6541002,19.6952875 16.4792008,19.6571245 16.3491696,19.5485407 L13.9228969,17.5224607 C12.809536,16.592739 11.190464,16.592739 10.0771031,17.5224607 L7.65083043,19.5485407 C7.43117534,19.7319656 7.10441444,19.7025953 6.92098955,19.4829402 C6.81240581,19.3529089 6.77424277,19.1780095 6.81879012,19.0145651 L7.73039618,15.669877 C8.07169429,14.4176521 7.56902877,13.0879569 6.48470374,12.3746612 L4.12310043,10.8211406 C3.98696696,10.7315886 3.94920517,10.5486344 4.03875711,10.412501 C4.09297306,10.3300839 4.18479256,10.2802164 4.28344129,10.2796122 L7.96034651,10.2570888 C9.28271005,10.2489885 10.443809,9.37599207 10.8188142,8.10789031 L11.678371,5.20124931 C11.7243341,5.04582234 11.872931,4.94874824 12.0283609,4.96209878 L12.0951127,4.97473294 Z"/>
</svg>
