<svg xmlns="http://www.w3.org/2000/svg" width="24" height="24" viewBox="0 0 24 24">
  <path d="M9.76047481,4.63408584 L8.90091806,7.54072685 C8.77591633,7.96342743 8.38888334,8.25442626 7.94809549,8.25712635 L4.27119027,8.27964968 C3.50383289,8.28435023 2.7895979,8.67225365 2.36786911,9.31334979 C1.67127274,10.3722892 1.96500983,11.7954322 3.02394927,12.4920286 L5.38555257,14.0455492 C5.74699425,14.2833144 5.91454942,14.7265462 5.80078338,15.1439545 L4.88917732,18.4886426 C4.67268428,19.2829569 4.85815059,20.13294 5.38585039,20.7648714 C6.27726638,21.8323605 7.86527266,21.9750959 8.9327617,21.0836799 L11.3590344,19.0575999 C11.7301547,18.7476926 12.2698453,18.7476926 12.6409656,19.0575999 L15.0672383,21.0836799 C15.6991697,21.6113797 16.5491529,21.796846 17.3434671,21.580353 C18.6852611,21.2146425 19.4765332,19.8304366 19.1108227,18.4886426 L18.1992166,15.1439545 C18.0854506,14.7265462 18.2530058,14.2833144 18.6144474,14.0455492 L20.9760507,12.4920286 C21.6171469,12.0702998 22.0050503,11.3560648 22.0097948,10.5887074 C22.017515,9.32121422 20.9963029,8.28741387 19.7288097,8.27964968 L16.0519045,8.25712635 C15.6111167,8.25442626 15.2240837,7.96342743 15.0990819,7.54072685 L14.2395252,4.63408584 C14.0150504,3.87501118 13.4213508,3.28131163 12.6622761,3.0568368 C11.4254205,2.69107179 10.1262398,3.39723023 9.76047481,4.63408584 Z"/>
</svg>
