<svg xmlns="http://www.w3.org/2000/svg" width="24" height="24" viewBox="0 0 24 24">
  <path d="M21,12 C21.5522847,12 22,12.4477153 22,13 L22,13 L22,19 L21.9949073,19.1762728 C21.9036609,20.75108 20.5976809,22 19,22 L19,22 L5,22 L4.82372721,21.9949073 C3.24891996,21.9036609 2,20.5976809 2,19 L2,19 L2,13 L2.00672773,12.8833789 C2.06449284,12.3860402 2.48716416,12 3,12 C3.55228475,12 4,12.4477153 4,13 L4,13 L4,19 L4.00672773,19.1166211 C4.06449284,19.6139598 4.48716416,20 5,20 L5,20 L19,20 L19.1166211,19.9932723 C19.6139598,19.9355072 20,19.5128358 20,19 L20,19 L20,13 L20.0067277,12.8833789 C20.0644928,12.3860402 20.4871642,12 21,12 Z M12,2 C12.0064615,2 12.0129086,2.00006128 12.0193409,2.0001833 L12.0590314,2.0017331 C12.0691128,2.00232561 12.0791869,2.00307004 12.0892501,2.00396641 C12.1096949,2.00574796 12.1294204,2.00810098 12.1489612,2.01101934 C12.165949,2.01362808 12.1833753,2.01670217 12.2007258,2.02024007 C12.2227461,2.0246398 12.2444365,2.02983363 12.2658396,2.03572097 C12.2814633,2.04009773 12.2968513,2.04472872 12.3121425,2.04973809 C12.3317977,2.05612249 12.3515792,2.06331574 12.3710585,2.07110396 C12.3887956,2.07819642 12.4060985,2.08567905 12.4232215,2.09367336 C12.4438914,2.10337664 12.4642939,2.11379392 12.484277,2.12487577 C12.4963944,2.13149883 12.5086131,2.13860692 12.5207088,2.14599545 C12.546275,2.1617187 12.5711307,2.17849009 12.5951593,2.19631351 C12.6343256,2.22531295 12.6717127,2.25749917 12.7071068,2.29289322 L12.6167501,2.21278596 C12.6196628,2.21507113 12.6225624,2.2173721 12.625449,2.21968877 L12.7071068,2.29289322 L16.9497475,6.53553391 L17.0329361,6.62974124 C17.337961,7.02203245 17.3102314,7.58926351 16.9497475,7.94974747 C16.5592232,8.34027176 15.9260582,8.34027176 15.5355339,7.94974747 L15.5355339,7.94974747 L13,5.414 L13,15 L12.9932723,15.1166211 C12.9355072,15.6139598 12.5128358,16 12,16 C11.4477153,16 11,15.5522847 11,15 L11,15 L11,5.414 L8.46446609,7.94974747 L8.37025876,8.03293607 C7.97796755,8.33796097 7.41073649,8.31023143 7.05025253,7.94974747 C6.65972824,7.55922318 6.65972824,6.9260582 7.05025253,6.53553391 L7.05025253,6.53553391 L11.2928932,2.29289322 L11.374551,2.21968877 C11.3774376,2.2173721 11.3803372,2.21507113 11.3832499,2.21278596 C11.3929267,2.20517454 11.3987914,2.20071786 11.4046934,2.19633458 C11.4288693,2.17849009 11.453725,2.1617187 11.4793398,2.14606743 C11.4913869,2.13860692 11.5036056,2.13149883 11.5159379,2.12467117 C11.5357061,2.11379392 11.5561086,2.10337664 11.5769009,2.09365378 C11.5939015,2.08567905 11.6112044,2.07819642 11.628664,2.07122549 C11.6484208,2.06331574 11.6682023,2.05612249 11.6882636,2.04954668 C11.7031487,2.04472872 11.7185367,2.04009773 11.734007,2.03584514 C11.7555635,2.02983363 11.7772539,2.0246398 11.7992059,2.02016515 C11.8166247,2.01670217 11.834051,2.01362808 11.8515331,2.0110178 C11.8996379,2.00376119 11.9493797,2 12,2 L11.9107499,2.00396641 C11.9208131,2.00307004 11.9308872,2.00232561 11.9409686,2.0017331 L11.981,2.001 Z"/>
</svg>
