<svg xmlns="http://www.w3.org/2000/svg" width="24" height="24" viewBox="0 0 24 24">
  <g fill="none" fill-rule="evenodd">
    <path fill="#000" fill-rule="nonzero" d="M19,2 C20.6568542,2 22,3.34314575 22,5 L22,5 L22,19 C22,20.6568542 20.6568542,22 19,22 L19,22 L5,22 C3.34314575,22 2,20.6568542 2,19 L2,19 L2,5 C2,3.34314575 3.34314575,2 5,2 L5,2 Z M19,4 L5,4 C4.44771525,4 4,4.44771525 4,5 L4,5 L4,19 C4,19.5522847 4.44771525,20 5,20 L5,20 L19,20 C19.5522847,20 20,19.5522847 20,19 L20,19 L20.0009007,17.8289758 C19.6878673,17.9397302 19.350972,18 19,18 L19,18 L15,18 C13.3431458,18 12,16.6568542 12,15 L12,15 L12,9 C12,7.34314575 13.3431458,6 15,6 L15,6 L19,6 C19.350972,6 19.6878673,6.06026977 20.0009007,6.17102423 L20,5 C20,4.44771525 19.5522847,4 19,4 L19,4 Z M19,8 L15,8 C14.4477153,8 14,8.44771525 14,9 L14,9 L14,15 C14,15.5522847 14.4477153,16 15,16 L15,16 L19,16 C19.5522847,16 20,15.5522847 20,15 L20,15 L20,9 C20,8.44771525 19.5522847,8 19,8 L19,8 Z"/>
    <circle cx="17.5" cy="12" r="1.5" fill="#000" fill-rule="nonzero"/>
  </g>
</svg>
