<svg xmlns="http://www.w3.org/2000/svg" viewBox="0 0 24 24">
  <path d="M12 1c3.52 0 6.37.71 8.55 2.17A1 1 0 0121 4v8.91a9.23 9.23 0 01-4.97 8.2l-3.58 1.78a1 1 0 01-.9 0L7.97 21.1A9.23 9.23 0 013 12.9V4a1 1 0 01.45-.83C5.63 1.7 8.48 1 12 1zm0 2c-2.85 0-5.15.5-6.9 1.5l-.1.05v8.36c0 2.6 1.43 5.07 3.64 6.28l.23.13L12 20.88l3.13-1.56A7.22 7.22 0 0019 13.18l.01-.27V4.56l-.1-.06c-1.66-.94-3.81-1.45-6.45-1.5zm3.77 8.36l.01.01.02.03.05.08.03.04.03.06.02.05a.99.99 0 01.06.22v.09l.01.04v.09l-.01.08a1.08 1.08 0 01-.06.22l-.02.05a1.02 1.02 0 01-.13.2l-.07.09-3 3a1 1 0 01-1.5-1.32l.08-.1L12.6 13H9a1 1 0 01-.12-2h3.71l-1.3-1.3a1 1 0 011.32-1.49l.1.08 3 3 .06.08v-.01z"/>
</svg>
