<svg xmlns="http://www.w3.org/2000/svg" width="24" height="24" viewBox="0 0 24 24">
  <path d="M9.37135227,3.70432092 C10.1698214,2.25255887 11.9939942,1.72296031 13.4457562,2.52142944 C13.9442354,2.79559297 14.3544842,3.20584177 14.6286477,3.70432092 L14.6286477,3.70432092 L22.2461053,17.5542438 C23.0445744,19.0060058 22.5149759,20.8301786 21.0632138,21.6286477 C20.6202789,21.8722619 20.1229665,22 19.6174576,22 L19.6174576,22 L4.38254244,22 C2.72568819,22 1.38254244,20.6568542 1.38254244,19 C1.38254244,18.4944911 1.5102805,17.9971787 1.75389472,17.5542438 L1.75389472,17.5542438 Z M12,17 C11.4477153,17 11,17.4477153 11,18 C11,18.5522847 11.4477153,19 12,19 C12.5522847,19 13,18.5522847 13,18 C13,17.4477153 12.5522847,17 12,17 Z M15,14 L9,14 L8.88337887,14.0067277 C8.38604019,14.0644928 8,14.4871642 8,15 C8,15.5522847 8.44771525,16 9,16 L9,16 L15,16 L15.1166211,15.9932723 C15.6139598,15.9355072 16,15.5128358 16,15 C16,14.4477153 15.5522847,14 15,14 L15,14 Z M12,11 C11.4477153,11 11,11.4477153 11,12 C11,12.5522847 11.4477153,13 12,13 C12.5522847,13 13,12.5522847 13,12 C13,11.4477153 12.5522847,11 12,11 Z"/>
</svg>
