<svg xmlns="http://www.w3.org/2000/svg" width="24" height="24" viewBox="0 0 24 24">
  <path d="M3,13 L3.11662113,13.0067277 C3.61395981,13.0644928 4,13.4871642 4,14 L4,14 L4,20 L10,20 L10.1166211,20.0067277 C10.6139598,20.0644928 11,20.4871642 11,21 C11,21.5522847 10.5522847,22 10,22 L10,22 L3,22 L2.88337887,21.9932723 C2.38604019,21.9355072 2,21.5128358 2,21 L2,21 L2,14 L2.00672773,13.8833789 C2.06449284,13.3860402 2.48716416,13 3,13 L3,13 Z M21,2 L21.1166211,2.00672773 C21.6139598,2.06449284 22,2.48716416 22,3 L22,3 L22,10 L21.9932723,10.1166211 C21.9355072,10.6139598 21.5128358,11 21,11 L21,11 L20.8833789,10.9932723 C20.3860402,10.9355072 20,10.5128358 20,10 L20,10 L20,4 L14,4 L13.8833789,3.99327227 C13.3860402,3.93550716 13,3.51283584 13,3 C13,2.44771525 13.4477153,2 14,2 L14,2 L21,2 Z"/>
</svg>
