<svg xmlns="http://www.w3.org/2000/svg" viewBox="0 0 24 24">
  <path d="M12 2a10 10 0 0 1 6.77 17.36l1.44 1.43a1 1 0 0 1-1.32 1.5l-.1-.08-1.63-1.64a9.95 9.95 0 0 1-10.32 0l-1.63 1.64a1 1 0 0 1-1.5-1.32l.08-.1 1.44-1.43A10 10 0 0 1 12 2zm0 4a1 1 0 0 0-1 1v5.13a1 1 0 0 0 .3.58l3 3 .09.08a1 1 0 0 0 1.32-.08l.08-.1a1 1 0 0 0-.08-1.32L13 11.6V6.88A1 1 0 0 0 12 6zM5.7 1.3a1 1 0 0 1 .1 1.3l-.08.1-3 3a1 1 0 0 1-1.5-1.32l.08-.1 3-3a1 1 0 0 1 1.42 0zm13.91-.09.1.08 3 3a1 1 0 0 1-1.32 1.5l-.1-.08-3-3a1 1 0 0 1 1.32-1.5z"/>
</svg>
