<svg xmlns="http://www.w3.org/2000/svg" viewBox="0 0 24 24">
  <path d="M19 2a3 3 0 0 1 3 2.82V19a3 3 0 0 1-2.82 3H5a3 3 0 0 1-3-2.82v-3.04a1 1 0 0 1 2-.11V19a1 1 0 0 0 .88 1H19a1 1 0 0 0 1-.88V5a1 1 0 0 0-.88-1H5a1 1 0 0 0-1 .88v2.98a1 1 0 0 1-2 .11V5a3 3 0 0 1 2.82-3H19zm-8.95 5.05a1 1 0 0 1 1.41 0l4.25 4.24A1 1 0 0 1 16 12v-.09a1 1 0 0 1 0 .06V12a1.02 1.02 0 0 1-.2.6 1 1 0 0 1-.1.1l.09-.08h-.01l-.07.09-4.25 4.24-.09.08a1 1 0 0 1-1.32-1.5L12.58 13h-9.7A1 1 0 0 1 3 11h9.59l-2.54-2.54-.08-.09a1 1 0 0 1 .08-1.32z"/>
</svg>
