<svg xmlns="http://www.w3.org/2000/svg" width="24" height="24" viewBox="0 0 24 24">
  <path d="M5.38 20.78h-.02.02l.03.03a1.04 1.04 0 0 0 .28.14h.02l.03.02a1 1 0 0 0 .03 0h.03a1 1 0 0 0 .08.02h.03a1 1 0 0 0 .03 0l.04.01h.08a1 1 0 0 0 .03 0h.03l.02-.01a1 1 0 0 0 .09-.02h.03l.03-.01a1 1 0 0 0 .23-.1l.02-.02.05-.03.02-.02.02-.01.08-.07 4-4a1 1 0 0 0-1.32-1.5l-.1.08L7 17.6V4a1 1 0 0 0-2-.12V17.6l-2.3-2.3a1 1 0 0 0-1.49 1.32l.08.1 4 4 .06.05.01.01.01.01zm12 0h-.02.02l.03.03a1.04 1.04 0 0 0 .28.14h.02l.03.02a1 1 0 0 0 .03 0h.03a1 1 0 0 0 .08.02h.03a1 1 0 0 0 .03 0l.04.01h.08a1 1 0 0 0 .03 0h.03l.02-.01a1 1 0 0 0 .09-.02h.03l.03-.01a1 1 0 0 0 .23-.1l.02-.02.05-.03.02-.02.02-.01.08-.07 4-4a1 1 0 0 0-1.32-1.5l-.1.08L19 17.6V4a1 1 0 0 0-2-.12V17.6l-2.3-2.3a1 1 0 0 0-1.49 1.32l.08.1 4 4 .06.05.01.01.02.01z"/>
</svg>
