<svg xmlns="http://www.w3.org/2000/svg" width="24" height="24" viewBox="0 0 24 24">
  <path d="M21,20 C21.5522847,20 22,20.4477153 22,21 C22,21.5128358 21.6139598,21.9355072 21.1166211,21.9932723 L21,22 L3,22 C2.44771525,22 2,21.5522847 2,21 C2,20.4871642 2.38604019,20.0644928 2.88337887,20.0067277 L3,20 L21,20 Z M12,2 L12.0332497,2.00054235 L12.0590314,2.0017331 L12.0850857,2.00356892 C12.1065782,2.00537984 12.1278772,2.00787051 12.1489612,2.01101934 L12.1489612,2.01101934 L12.1764315,2.01559786 C12.1845447,2.01704462 12.1926434,2.01859202 12.2007941,2.02016515 C12.2227461,2.0246398 12.2444365,2.02983363 12.265993,2.03584514 C12.2814633,2.04009773 12.2968513,2.04472872 12.3117364,2.04954668 C12.3317977,2.05612249 12.3515792,2.06331574 12.371336,2.07122549 L12.371336,2.07122549 L12.4230991,2.09365378 C12.4419547,2.10247102 12.4604898,2.11185933 12.4781534,2.12142608 C12.4935488,2.12981337 12.5087703,2.13863517 12.5244138,2.14837237 C12.5456983,2.16150681 12.5664533,2.17541687 12.5864257,2.1898147 L12.5864257,2.1898147 L12.624,2.219 L12.7071068,2.29289322 L18.363961,7.94974747 L18.4471496,8.04395481 C18.7521745,8.43624601 18.724445,9.00347707 18.363961,9.36396103 C17.9734367,9.75448532 17.3402718,9.75448532 16.9497475,9.36396103 L16.9497475,9.36396103 L12.9991458,5.415 L13,17 L12.9932723,17.1166211 C12.9355072,17.6139598 12.5128358,18 12,18 C11.4477153,18 11,17.5522847 11,17 L11,17 L10.9991458,5.415 L7.05025253,9.36396103 L6.95604519,9.44714964 C6.56375399,9.75217453 5.99652293,9.72444499 5.63603897,9.36396103 C5.24551468,8.97343674 5.24551468,8.34027176 5.63603897,7.94974747 L5.63603897,7.94974747 L11.2928932,2.29289322 C11.3199072,2.26587927 11.3484595,2.2404037 11.3787805,2.21624472 C11.3917355,2.20595004 11.4048869,2.19602294 11.4178133,2.1868509 C11.4377852,2.17252629 11.4583066,2.15891923 11.4793822,2.14593987 C11.4928304,2.13772719 11.5064305,2.12986112 11.5197141,2.12267436 C11.5371537,2.1131069 11.5549095,2.1040443 11.5735404,2.09519221 C11.5932325,2.08591191 11.613165,2.07731015 11.6330072,2.06948879 C11.6508514,2.06244532 11.6689468,2.0559003 11.6870335,2.05000842 C11.7025958,2.04489522 11.7182588,2.04017413 11.7341604,2.03572097 C11.7555635,2.02983363 11.7772539,2.0246398 11.7992742,2.02024007 C11.8166247,2.01670217 11.834051,2.01362808 11.8510388,2.01101934 L11.8510388,2.01101934 L11.917,2.003 L11.919,2.003 L11.9247615,2.00278786 L11.929,2.002 L11.92,2.003 L12,2 Z" transform="matrix(1 0 0 -1 0 24)"/>
</svg>
