<svg xmlns="http://www.w3.org/2000/svg" width="24" height="24" viewBox="0 0 24 24">
  <path d="M12 9a1 1 0 0 1 1 1v9.59l2.54-2.54.09-.08a1 1 0 0 1 1.32 1.5l-4.24 4.24a1 1 0 0 1-.53.27h-.03A1 1 0 0 1 12 23h.09-.15a1 1 0 0 1-.65-.3l.1.09a1 1 0 0 1-.1-.08l-4.24-4.25-.08-.09a1 1 0 0 1 1.5-1.32L11 19.58v-9.7A1 1 0 0 1 12 9zm5-8h.18A3 3 0 0 1 20 4v8.18A3 3 0 0 1 17 15h-1.12a1 1 0 0 1 .12-2h1.12a1 1 0 0 0 .88-1V3.88A1 1 0 0 0 17 3H6.88A1 1 0 0 0 6 4v8.12A1 1 0 0 0 7 13h1.12A1 1 0 0 1 8 15H6.82A3 3 0 0 1 4 12V3.82A3 3 0 0 1 7 1h10z"/>
</svg>
