<svg xmlns="http://www.w3.org/2000/svg" viewBox="0 0 24 24">
  <path d="M20 4h.18A3 3 0 0 1 23 7v10.18A3 3 0 0 1 20 20h-8.18A3 3 0 0 1 9 17v-1.12a1 1 0 0 1 2 .12v1.12a1 1 0 0 0 1 .88h8.12a1 1 0 0 0 .88-1V6.88A1 1 0 0 0 20 6h-8.12A1 1 0 0 0 11 7v1.12A1 1 0 0 1 9 8V6.82A3 3 0 0 1 12 4h8zM5.63 6.97a1 1 0 0 1 1.32 1.5L4.41 11h9.72a1 1 0 0 1-.12 2h-9.6l2.54 2.54.08.09a1 1 0 0 1-1.5 1.32L1.3 12.71l-.07-.08A1 1 0 0 1 1 12v.09a1 1 0 0 1 0-.07V12a1.02 1.02 0 0 1 .2-.6 1 1 0 0 1 .1-.1l-.09.08a1 1 0 0 1 .08-.09l4.25-4.24z"/>
</svg>
