<svg xmlns="http://www.w3.org/2000/svg" width="24" height="24" viewBox="0 0 24 24">
  <path d="M12 4a3 3 0 0 1 3 2.82V8a1 1 0 0 1-2 .12V7a1 1 0 0 0-.88-1H4a1 1 0 0 0-1 .88V17a1 1 0 0 0 .88 1H12a1 1 0 0 0 1-.88V16a1 1 0 0 1 2-.12V17a3 3 0 0 1-2.82 3H4a3 3 0 0 1-3-2.82V7a3 3 0 0 1 2.82-3H12zm6.37 2.97.1.08 4.24 4.24a1 1 0 0 1 .08.1l-.08-.1A1 1 0 0 1 23 12v.03a1 1 0 0 1 0 .06V12a1 1 0 0 1-.22.63l-.07.08-4.25 4.24a1 1 0 0 1-1.5-1.32l.09-.1L19.59 13H10a1 1 0 0 1-.12-2h9.7l-2.53-2.54a1 1 0 0 1 1.32-1.5z"/>
</svg>
