<svg xmlns="http://www.w3.org/2000/svg" viewBox="0 0 24 24">
  <path d="m14.61 13.21.1.08L20 18.6V15a1 1 0 0 1 2-.12v6.19l-.01.08a1.08 1.08 0 0 1-.06.22l-.02.05a1.02 1.02 0 0 1-.1.18l-.02.02-.08.08-.04.04.04-.03-.06.05h-.01l-.01.02h-.02l-.01.02-.08.05-.04.03-.06.03-.05.02a.99.99 0 0 1-.06.02h-.02l-.02.01a1 1 0 0 1-.07.02h-.05a1 1 0 0 1-.03.01h-.04A1 1 0 0 1 21 22h-6a1 1 0 0 1-.12-2h3.71l-5.3-5.3a1 1 0 0 1 1.32-1.49zM9 2a1 1 0 0 1 .12 2h-3.7l5.29 5.3a1 1 0 0 1-1.32 1.49l-.1-.08L4 5.4V9a1 1 0 0 1-2 .12V2.95v.03-.06l.01-.07a1.08 1.08 0 0 1 .06-.22l.02-.05a1.02 1.02 0 0 1 .1-.18l.02-.02.08-.08.06-.06-.06.05.06-.05.01-.01.01-.01h.02l.01-.02.08-.05.04-.03.06-.03.05-.02.06-.02h.02l.02-.01a1 1 0 0 1 .07-.02h.05A1 1 0 0 1 2.88 2h.04a1 1 0 0 1 .06 0H9z"/>
</svg>
