<svg xmlns="http://www.w3.org/2000/svg" viewBox="0 0 24 24">
  <path d="M21 14a1 1 0 0 1 1 1v4.18A3 3 0 0 1 19 22H4.82A3 3 0 0 1 2 19v-4.12A1 1 0 0 1 4 15v4.12A1 1 0 0 0 5 20h14.12a1 1 0 0 0 .88-1v-4.12a1 1 0 0 1 1-.88zM18.7 3.3a1 1 0 0 1 .09 1.31l-.08.1L11.4 12h3.71a1 1 0 0 1 0 2H8.88a1 1 0 0 1-.03-.01h-.02l-.03-.01h-.04l-.07-.03a.95.95 0 0 1-.06-.02l-.05-.02a1.02 1.02 0 0 1-.18-.1l-.05-.05.04.03a1 1 0 0 1-.24-.27l-.03-.04a1.04 1.04 0 0 1-.03-.06l-.02-.05a.99.99 0 0 1-.06-.22v-.13.03L8 13.02V6.88a1 1 0 0 1 2 0v3.7l7.3-7.29.09-.08a1 1 0 0 1 1.32.08z"/>
</svg>
