<svg xmlns="http://www.w3.org/2000/svg" viewBox="0 0 24 24">
  <path d="M7.86 2h.11a1 1 0 0 1-.11 2H4.88A1 1 0 0 0 4 5v14.12A1 1 0 0 0 5 20h14.12a1 1 0 0 0 .88-1V4.88A1 1 0 0 0 19 4h-2.97a1 1 0 0 1 .11-2h3.04A3 3 0 0 1 22 5v14.18A3 3 0 0 1 19 22H4.82A3 3 0 0 1 2 19V4.82A3 3 0 0 1 5 2h2.86zM12 2a1 1 0 0 1 1 .88v9.72l2.54-2.54a1 1 0 0 1 1.5 1.32l-.09.1-4.24 4.24a1 1 0 0 1-.1.08l.1-.08a1 1 0 0 1-.53.27h-.03a1 1 0 0 1-.06.02h-.18.09a1 1 0 0 1-.7-.3l-4.25-4.24a1 1 0 0 1 1.32-1.5l.1.09L11 12.59V3a1 1 0 0 1 1-1z"/>
</svg>
