<svg xmlns="http://www.w3.org/2000/svg" width="24" height="24" viewBox="0 0 24 24">
  <path d="M21 14a1 1 0 0 1 1 1v4.18A3 3 0 0 1 19 22H4.82A3 3 0 0 1 2 19v-4.12A1 1 0 0 1 4 15v4.12A1 1 0 0 0 5 20h14.12a1 1 0 0 0 .88-1v-4.12a1 1 0 0 1 1-.88zm-9.63 1.78-.08-.07-4.24-4.25-.08-.09a1 1 0 0 1 1.4-1.4l.1.08L11 12.59V2.88a1 1 0 0 1 2 0v9.72l2.54-2.54.09-.08a1 1 0 0 1 1.4 1.4l-.08.1-4.24 4.24a1 1 0 0 1-.53.27h-.03l-.08.02h-.16a.98.98 0 0 1-.4-.13h-.01l-.02-.02a1.05 1.05 0 0 1-.06-.04l-.04-.03z"/>
</svg>
