<svg xmlns="http://www.w3.org/2000/svg" width="24" height="24" viewBox="0 0 24 24">
  <path d="M11,20 C10.4477153,20 10,19.5522847 10,19 C10,18.4871642 10.3860402,18.0644928 10.8833789,18.0067277 L11,18 L16.585,18 L4.29289322,5.70710678 C3.90236893,5.31658249 3.90236893,4.68341751 4.29289322,4.29289322 C4.65337718,3.93240926 5.22060824,3.90467972 5.61289944,4.20970461 L5.70710678,4.29289322 L17.999,16.584 L18,11 C18,10.4477153 18.4477153,10 19,10 C19.5128358,10 19.9355072,10.3860402 19.9932723,10.8833789 L20,11 L19.9998557,18.9828385 C19.9999518,18.9885475 20,18.9942681 20,19 L19.9994506,19.0332468 C19.9989328,19.0489091 19.9980491,19.0645616 19.9967993,19.0801904 L20,19 C20,19.0506203 19.9962388,19.1003621 19.9889807,19.1489612 C19.9863719,19.165949 19.9832978,19.1833753 19.9797599,19.2007258 C19.9753602,19.2227461 19.9701664,19.2444365 19.964279,19.2658396 C19.9599023,19.2814633 19.9552713,19.2968513 19.9502619,19.3121425 C19.9438775,19.3317977 19.9366843,19.3515792 19.928896,19.3710585 C19.9218036,19.3887956 19.914321,19.4060985 19.9063266,19.4232215 C19.8966234,19.4438914 19.8862061,19.4642939 19.8751242,19.484277 C19.8685012,19.4963944 19.8613931,19.5086131 19.8540045,19.5207088 C19.8382813,19.546275 19.8215099,19.5711307 19.8036865,19.5951593 C19.7992821,19.6012086 19.7948255,19.6070733 19.7902954,19.6128994 C19.7381101,19.6796608 19.6796608,19.7381101 19.6148064,19.7887351 L19.7071068,19.7071068 C19.6717127,19.7425008 19.6343256,19.774687 19.5953066,19.8036654 C19.5711307,19.8215099 19.546275,19.8382813 19.5206602,19.8539326 C19.5086131,19.8613931 19.4963944,19.8685012 19.4840621,19.8753288 C19.4642939,19.8862061 19.4438914,19.8966234 19.4230991,19.9063462 C19.4060985,19.914321 19.3887956,19.9218036 19.371336,19.9287745 C19.3515792,19.9366843 19.3317977,19.9438775 19.3117364,19.9504533 C19.3053947,19.9524725 19.298628,19.9546094 19.2918437,19.9566726 L19.2708729,19.9628803 C19.2471983,19.9695267 19.2231682,19.9753235 19.1988177,19.9802356 C19.1912936,19.9816652 19.1838686,19.9830759 19.1764315,19.9844021 L19.1539846,19.9882174 L19.1539846,19.9882174 L19.1166211,19.9932723 C19.1068117,19.9944116 19.0969589,19.995409 19.087065,19.9962623 C19.077172,19.9970773 19.0681046,19.9977336 19.0590314,19.9982669 L19.033,19.998 L19,20 L11,20 Z"/>
</svg>
