<svg xmlns="http://www.w3.org/2000/svg" width="24" height="24" viewBox="0 0 24 24">
  <path d="m10.65 13.24.06.06.08.08.01.02a1.04 1.04 0 0 1 .1.18l.03.05a.95.95 0 0 1 .06.22v.13L11 14v6.12A1 1 0 0 1 9 20v-3.59l-5.3 5.3-.09.08a1 1 0 0 1-1.32-1.5L7.6 15H3.88A1 1 0 0 1 4 13h6.02a1 1 0 0 1 .06 0h.04a1 1 0 0 1 .03.01h.03l.02.01a1 1 0 0 1 .07.02h.02l.02.01.06.02.05.02.06.03.04.03.08.05.01.01.02.01v.01-.01l.02.02zm2.71-2.47-.01-.01-.06-.05.04.03-.04-.04-.08-.08-.01-.02a1.04 1.04 0 0 1-.1-.18l-.03-.05A.95.95 0 0 1 13 10v.05-6.17A1 1 0 0 1 15 4v3.58l5.3-5.29.09-.08a1 1 0 0 1 1.32 1.5L16.4 9h3.71a1 1 0 0 1-.12 2h-6a.98.98 0 0 1-.08 0h-.04a1 1 0 0 1-.03-.01h-.03l-.02-.01a1 1 0 0 1-.07-.02h-.02l-.02-.01a.99.99 0 0 1-.06-.02l-.05-.02a1.04 1.04 0 0 1-.06-.03l-.04-.03a1.03 1.03 0 0 1-.08-.05l-.01-.01-.04-.03h.01z"/>
</svg>
