<svg xmlns="http://www.w3.org/2000/svg" width="24" height="24" viewBox="0 0 24 24">
  <path d="M17.06 17.42a1 1 0 0 1-1.49 1.32l-2.53-2.53v4.48l-.01.13a1 1 0 0 1-2-.13v-4.48L8.5 18.74l-.09.08a1 1 0 0 1-1.32-1.5l4.24-4.23a.98.98 0 0 1 .06-.06l.03-.02a1 1 0 0 1 .03-.03h.01l.02-.02a1 1 0 0 1 .07-.04l.02-.01.01-.01a.99.99 0 0 1 .06-.03l.05-.02a1.04 1.04 0 0 1 .2-.05h.07-.02.22a.78.78 0 0 1 .15.03 1.02 1.02 0 0 1 .43.26l-.04-.04.03.02.01.02L17 17.33zM17 5.26a1 1 0 0 1 0 1.41l-4.26 4.26a1 1 0 0 1-.05.04l-.02.02a1 1 0 0 1-.03.02l-.02.02-.02.01a1 1 0 0 1-.06.04h-.02a1.6 1.6 0 0 1-.13.07 1.04 1.04 0 0 1-.2.05h-.29a1.04 1.04 0 0 1-.25-.07l-.06-.03a1.11 1.11 0 0 1-.14-.09l-.05-.04-.05-.04.04.03h-.01l-.03-.03L7.1 6.67 7 6.58a1 1 0 0 1 1.5-1.32l2.54 2.53V3.18a1 1 0 0 1 2 .13v4.48l2.53-2.53.09-.08a1 1 0 0 1 1.33.08z"/>
</svg>
