<svg xmlns="http://www.w3.org/2000/svg" width="24" height="24" viewBox="0 0 24 24">
  <path d="M3.22 5.38v-.02.02l-.03.03a1.04 1.04 0 0 0-.14.28v.02l-.02.03a1 1 0 0 0 0 .03v.03a1 1 0 0 0-.02.08v.03a1 1 0 0 0 0 .03L3 5.98v.08a1 1 0 0 0 0 .03v.03l.01.02a1 1 0 0 0 .02.09v.03l.01.03a1 1 0 0 0 .1.23l.02.02.03.05.02.02.01.02.07.08 4 4a1 1 0 0 0 1.5-1.32l-.08-.1L6.4 7H20a1 1 0 0 0 .12-2H6.4l2.3-2.3a1 1 0 0 0-1.32-1.49l-.1.08-4 4-.05.06-.01.01-.01.01zm0 12v-.02.02l-.03.03a1.04 1.04 0 0 0-.14.28v.02l-.02.03a1 1 0 0 0 0 .03v.03a1 1 0 0 0-.02.08v.03a1 1 0 0 0 0 .03l-.01.04v.08a1 1 0 0 0 0 .03v.03l.01.02a1 1 0 0 0 .02.09v.03l.01.03a1 1 0 0 0 .1.23l.02.02.03.05.02.02.01.02.07.08 4 4a1 1 0 0 0 1.5-1.32l-.08-.1L6.4 19H20a1 1 0 0 0 .12-2H6.4l2.3-2.3a1 1 0 0 0-1.32-1.49l-.1.08-4 4-.05.06-.01.01-.01.02z"/>
</svg>
