<svg xmlns="http://www.w3.org/2000/svg" viewBox="0 0 24 24">
  <path d="M21 14a1 1 0 0 1 1 1v4.18A3 3 0 0 1 19 22H4.82A3 3 0 0 1 2 19v-4.12A1 1 0 0 1 4 15v4.12A1 1 0 0 0 5 20h14.12a1 1 0 0 0 .88-1v-4.12a1 1 0 0 1 1-.88zm-5-.94v.01l-.01.08a1.08 1.08 0 0 1-.06.22l-.02.05a1.02 1.02 0 0 1-.12.2l-.08.09-.09.07.09-.07a1 1 0 0 1-.19.14l-.04.03-.06.03-.05.02a.99.99 0 0 1-.06.02h-.02l-.02.01a1 1 0 0 1-.07.02h-.05a1 1 0 0 1-.03.01h-.09L15 14H9a1 1 0 0 1-.12-2h3.71l-7.3-7.3a1 1 0 0 1 1.32-1.49l.1.08L14 10.6V7a1 1 0 0 1 2-.12v6.18z"/>
</svg>
