<svg xmlns="http://www.w3.org/2000/svg" width="24" height="24" viewBox="0 0 24 24">
  <path d="M19 2h.18A3 3 0 0 1 22 5v2.97a1 1 0 0 1-2-.11V4.88A1 1 0 0 0 19 4H4.88A1 1 0 0 0 4 5v14.12A1 1 0 0 0 5 20h14.12a1 1 0 0 0 .88-1v-2.97a1 1 0 0 1 2 .11v3.04A3 3 0 0 1 19 22H4.82A3 3 0 0 1 2 19V4.82A3 3 0 0 1 5 2h14zm-5.05 5.05a1 1 0 0 1 .08 1.32l-.08.1L11.41 11H21a1 1 0 0 1 .12 2H11.4l2.54 2.54a1 1 0 0 1-1.32 1.5l-.1-.09-4.24-4.24-.07-.08v-.01l.07.09A1 1 0 0 1 8 12v-.02a1 1 0 0 1 0-.07V12a1 1 0 0 1 .3-.7l4.24-4.25a1 1 0 0 1 1.41 0z"/>
</svg>
