<svg xmlns="http://www.w3.org/2000/svg" viewBox="0 0 24 24">
  <path d="M21 14a1 1 0 0 1 1 1v4.18A3 3 0 0 1 19 22H4.82A3 3 0 0 1 2 19v-4.12A1 1 0 0 1 4 15v4.12A1 1 0 0 0 5 20h14.12a1 1 0 0 0 .88-1v-4.12a1 1 0 0 1 1-.88zm-2.19-6.58a1.04 1.04 0 0 1 .16.32l.01.06A1.1 1.1 0 0 1 19 8v.09l-.01.06-.01.05-.01.06a1.07 1.07 0 0 1-.04.1l-.01.04-.01.02a1.03 1.03 0 0 1-.13.2l-.07.09-4.25 4.24a1 1 0 0 1-1.5-1.32l.09-.1L15.59 9H6a1 1 0 0 1-.12-2h9.72l-2.54-2.54a1 1 0 0 1 1.32-1.5l.1.09 4.24 4.24.07.08.03.05z"/>
</svg>
