<svg xmlns="http://www.w3.org/2000/svg" width="24" height="24" viewBox="0 0 24 24">
  <path d="M21 18a1 1 0 0 1-1 1H6.41l2.3 2.3.08.09a1 1 0 0 1-1.5 1.32l-4-4-.07-.08-.01-.02-.02-.02-.03-.05-.01-.02a.88.88 0 0 1-.06-.1l-.02-.05a.95.95 0 0 1-.03-.08v-.03l-.01-.03a.73.73 0 0 1-.02-.09v-.05a1 1 0 0 1 0-.03L3 18.02v-.08a1 1 0 0 1 0-.03v-.03a.77.77 0 0 1 .02-.08v-.03a1 1 0 0 1 .01-.03l.01-.03.01-.02.02-.06.02-.05.03-.06.03-.04.04-.07.03-.03v-.02h.02l.05-.07 4-4 .1-.08a1 1 0 0 1 1.32 1.5L6.4 17h13.72a1 1 0 0 1 .88 1zm-.22-12.63v.01l.03.03a1.04 1.04 0 0 1 .14.28v.02l.02.03a1 1 0 0 1 0 .03v.03a1 1 0 0 1 .02.08v.03a1 1 0 0 1 0 .03l.01.04v.08a1 1 0 0 1 0 .03v.03l-.01.02a1 1 0 0 1-.02.09v.03l-.01.03a1 1 0 0 1-.1.23l-.02.02-.03.05-.02.02-.01.02-.07.08-4 4a1 1 0 0 1-1.5-1.32l.08-.1L17.6 7H4a1 1 0 0 1-.12-2H17.6l-2.3-2.3a1 1 0 0 1 1.32-1.49l.1.08 4 4 .05.06.01.01.01.01z"/>
</svg>
