<svg xmlns="http://www.w3.org/2000/svg" viewBox="0 0 24 24">
  <path d="M10.02 13a1 1 0 0 1 .06 0h.04a1 1 0 0 1 .03.01h.03l.02.01a1 1 0 0 1 .07.02h.02l.02.01.06.02.05.02.06.03.04.03.08.05.01.01.02.01v.01-.01l.02.02.06.06.08.08.01.02a1.04 1.04 0 0 1 .1.18l.03.05a.95.95 0 0 1 .06.22v.13L11 14v6.12A1 1 0 0 1 9 20v-3.59l-5.3 5.3-.09.08a1 1 0 0 1-1.32-1.5L7.6 15H3.88A1 1 0 0 1 4 13zm3 .85a1.08 1.08 0 0 1 .05-.22l.02-.05a1.02 1.02 0 0 1 .1-.18l.02-.02.08-.08.06-.06-.06.05.06-.05.01-.01.01-.01h.02l.01-.02.08-.05.04-.03.06-.03.05-.02.06-.02h.02l.02-.01a1 1 0 0 1 .07-.02h.05a1 1 0 0 1 .03-.01h.04a1 1 0 0 1 .06-.01H20a1 1 0 0 1 .12 2H16.4l5.3 5.3a1 1 0 0 1-1.32 1.49l-.1-.08L15 16.4V20a1 1 0 0 1-2 .12v-6.2l.01-.07zM3.61 2.21l.09.08L9 7.6V4a1 1 0 0 1 2-.12v6.19l-.01.08a1.08 1.08 0 0 1-.06.22l-.02.05a1.02 1.02 0 0 1-.1.18l-.02.02-.08.08-.04.04.04-.03-.06.05h-.01l-.01.02h-.02l-.01.02-.08.05-.04.03-.06.03-.05.02a.99.99 0 0 1-.06.02h-.02l-.02.01a1 1 0 0 1-.07.02h-.05a1 1 0 0 1-.03.01h-.04A1 1 0 0 1 10 11H4a1 1 0 0 1-.12-2h3.7L2.3 3.7a1 1 0 0 1 1.32-1.49zm16.77 0a1 1 0 0 1 1.32 1.5L16.4 9h3.71a1 1 0 0 1-.12 2h-6a.98.98 0 0 1-.08 0h-.04a1 1 0 0 1-.03-.01h-.03l-.02-.01a1 1 0 0 1-.07-.02h-.02l-.02-.01a.99.99 0 0 1-.06-.02l-.05-.02a1.04 1.04 0 0 1-.06-.03l-.04-.03a1.03 1.03 0 0 1-.08-.05l-.01-.01-.04-.03h.01-.01l-.06-.05.04.03-.04-.04-.08-.08-.01-.02a1.04 1.04 0 0 1-.1-.18l-.03-.05A.95.95 0 0 1 13 10v.05-6.17A1 1 0 0 1 15 4v3.58l5.3-5.29z"/>
</svg>
