<svg xmlns="http://www.w3.org/2000/svg" viewBox="0 0 24 24">
  <path d="M21 14a1 1 0 0 1 1 1v4.18A3 3 0 0 1 19 22H4.82A3 3 0 0 1 2 19v-4.12A1 1 0 0 1 4 15v4.12A1 1 0 0 0 5 20h14.12a1 1 0 0 0 .88-1v-4.12a1 1 0 0 1 1-.88zm1-11.03V3v-.06 6.18a1 1 0 0 1-2 0V5.4l-7.3 7.3-.09.08a1 1 0 0 1-1.4-1.4l.08-.1L18.6 4h-3.71a1 1 0 0 1 0-2h6.23a1 1 0 0 1 .03.01h.02l.03.01h.04l.07.03.06.02.05.02a1.02 1.02 0 0 1 .18.1l.01.02.02.01v.01l.02.01a1 1 0 0 1 .06.05l-.08-.07a1 1 0 0 1 .22.26l.03.04.03.06.02.05a.99.99 0 0 1 .06.22v.12z"/>
</svg>
