<svg xmlns="http://www.w3.org/2000/svg" width="24" height="24" viewBox="0 0 24 24">
  <path d="M17.45 6.97a1 1 0 0 1 1.33 1.5L16.24 11h4.61a1 1 0 0 1-.12 2h-4.49l2.54 2.54.08.08a1 1 0 0 1-1.5 1.33l-4.24-4.24a.98.98 0 0 1-.06-.06l-.02-.03a1 1 0 0 1-.02-.03l-.01-.02-.02-.02a1 1 0 0 1-.03-.06l-.01-.02-.01-.02a.99.99 0 0 1-.03-.06l-.02-.05a1.04 1.04 0 0 1-.05-.2v-.07.02-.02l-.01-.07v-.12a.78.78 0 0 1 .04-.16 1.02 1.02 0 0 1 .25-.43l-.04.04.03-.02.01-.02 4.24-4.24zM5.3 7.05a1 1 0 0 1 1.42 0l4.25 4.26a1 1 0 0 1 .05.04l.02.03a1 1 0 0 1 .02.03l.01.02.02.02a1 1 0 0 1 .04.06v.02a1.6 1.6 0 0 1 .06.13 1.04 1.04 0 0 1 .05.2v.05l.01.02v.22a1.04 1.04 0 0 1-.08.24l-.02.06a1.11 1.11 0 0 1-.1.14l-.03.05-.05.05.04-.04-.01.02-.03.02-4.25 4.26-.09.08a1 1 0 0 1-1.33-1.5L7.83 13H3.22a1 1 0 0 1 .12-2h4.49L5.29 8.46l-.07-.08a1 1 0 0 1 .07-1.33z"/>
</svg>
