<svg xmlns="http://www.w3.org/2000/svg" width="24" height="24" viewBox="0 0 24 24">
  <path d="M9 12v.08l-.01.07a1.08 1.08 0 0 1-.06.22l-.02.05a1.02 1.02 0 0 1-.13.2l-.07.09-3 3a1 1 0 0 1-1.5-1.32l.08-.1L5.6 13H2a1 1 0 0 1-.12-2H5.6L4.3 9.7a1 1 0 0 1 1.32-1.49l.1.08 3 3 .07.08v.01l.02.02.05.08.03.04.03.06.02.05a.99.99 0 0 1 .06.22v.09l.01.04V12zm4-9v18a1 1 0 0 1-2 .12V3a1 1 0 0 1 2-.12V3zm10 9a1 1 0 0 1-1 1h-3.59l1.3 1.3.08.09a1 1 0 0 1-1.5 1.32l-3-3-.07-.08a3.01 3.01 0 0 1-.1-.15 1.02 1.02 0 0 1-.03-.06l-.02-.05a.95.95 0 0 1-.06-.22v-.13L15 12v-.09l.01-.06a1.1 1.1 0 0 1 .06-.22l.02-.05.03-.06.03-.04.05-.08.02-.02.01-.02.01-.01.05-.06 3-3 .1-.08a1 1 0 0 1 1.32 1.5L18.4 11h3.71a1 1 0 0 1 .88 1z"/>
</svg>
