<svg xmlns="http://www.w3.org/2000/svg" viewBox="0 0 24 24">
  <path d="M21 14a1 1 0 0 1 1 1v4.18A3 3 0 0 1 19 22H4.82A3 3 0 0 1 2 19v-4.12A1 1 0 0 1 4 15v4.12A1 1 0 0 0 5 20h14.12a1 1 0 0 0 .88-1v-4.12a1 1 0 0 1 1-.88zM12 2h.08l.07.01.05.01a.93.93 0 0 1 .39.17.82.82 0 0 1 .04.03l.08.07 4.24 4.25a1 1 0 0 1-.53 1.69l-.12.01h-.12a1 1 0 0 1-.55-.2l-.1-.09L13 5.41V15a1 1 0 0 1-.88 1H12a1 1 0 0 1-1-.88V5.4L8.46 7.95a1 1 0 0 1-.53.28l-.11.01H7.7a1 1 0 0 1-.73-1.61l.08-.1 4.24-4.24.06-.05.02-.02-.01.02.02-.02h-.01l.05-.03.03-.02.03-.02a.83.83 0 0 1 .2-.1 1.05 1.05 0 0 1 .23-.05H12z"/>
</svg>
