<svg xmlns="http://www.w3.org/2000/svg" viewBox="0 0 24 24">
  <path d="M14 2a3 3 0 0 1 3 2.82V6h2a3 3 0 0 1 3 2.82V19a3 3 0 0 1-2.82 3H5a3 3 0 0 1-3-2.82V9a3 3 0 0 1 2.82-3H7V5a3 3 0 0 1 2.82-3H14zm5 6H5a1 1 0 0 0-1 .88V19a1 1 0 0 0 .88 1H19a1 1 0 0 0 1-.88V9a1 1 0 0 0-1-1zm-8.39 3.21.1.08L12 12.6l1.3-1.3a1 1 0 0 1 1.49 1.32l-.08.1L13.4 14l1.3 1.3a1 1 0 0 1-1.32 1.49l-.1-.08L12 15.4l-1.3 1.3a1 1 0 0 1-1.49-1.32l.08-.1L10.6 14l-1.3-1.3a1 1 0 0 1 1.32-1.49zM14 4h-4a1 1 0 0 0-1 .88V6h6V5a1 1 0 0 0-.88-1H14z"/>
</svg>
