<svg xmlns="http://www.w3.org/2000/svg" width="24" height="24" viewBox="0 0 24 24">
  <path d="M12.09 2a6 6 0 0 1 5.95 5.26l.42 3.39 2.4 3.73a3 3 0 0 1-.75 4.04l-.15.1a3 3 0 0 1-1.62.48h-2.47a4 4 0 0 1-7.74 0H5.66a3 3 0 0 1-2.52-4.62l2.4-3.73.42-3.4A6 6 0 0 1 11.68 2h.23zm1.64 17h-3.46l.04.07a2 2 0 0 0 1.54.92L12 20a2 2 0 0 0 1.68-.91l.05-.09zM12.1 4h-.18a4 4 0 0 0-3.97 3.5l-.45 3.62a1 1 0 0 1-.15.42l-2.52 3.92A1 1 0 0 0 5.66 17h12.68a1 1 0 0 0 .84-1.54l-2.52-3.92a1 1 0 0 1-.15-.42l-.45-3.62A4 4 0 0 0 12.09 4z"/>
</svg>
