<svg xmlns="http://www.w3.org/2000/svg" width="24" height="24" viewBox="0 0 24 24">
  <path d="M22 10v10a3 3 0 0 1-3 3H5a3 3 0 0 1-3-3V10h20zm-10 8a1 1 0 1 0 0 2 1 1 0 0 0 0-2zm0-6c-.63 0-1.15.16-1.57.44a2.5 2.5 0 0 0-.85.97.75.75 0 1 0 1.34.68 1 1 0 0 1 .34-.4c.14-.1.37-.19.74-.19.28 0 .55.09.74.22.16.13.26.29.26.53 0 .18-.04.26-.08.32a.96.96 0 0 1-.27.24l-.26.16-.32.2c-.22.15-.49.36-.7.66a.75.75 0 0 0 1.25.84.96.96 0 0 1 .28-.25l.26-.16.32-.2a2.03 2.03 0 0 0 1.02-1.81 2.1 2.1 0 0 0-.86-1.72A2.76 2.76 0 0 0 12 12zM7 3v1.12a1 1 0 0 0 2 0V3h6v1.12a1 1 0 0 0 2 0V3h2a3 3 0 0 1 3 3v2H2V6a3 3 0 0 1 3-3h2zm9-2a1 1 0 0 1 1 .88V3h-2V2a1 1 0 0 1 1-1zM8 1a1 1 0 0 1 1 .88V3H7V2a1 1 0 0 1 1-1z"/>
</svg>
