<svg xmlns="http://www.w3.org/2000/svg" width="24" height="24" viewBox="0 0 24 24">
  <path d="M13.17 3a3 3 0 0 1 2.12.88L16.42 5H20a3 3 0 0 1 3 2.82V18a3 3 0 0 1-3 3H4a3 3 0 0 1-3-3V8a3 3 0 0 1 3-3h3.58l1.13-1.12A3 3 0 0 1 10.63 3l.2-.01zm0 2h-2.34a1 1 0 0 0-.7.3L8.7 6.7A1 1 0 0 1 8 7H4a1 1 0 0 0-1 1v10a1 1 0 0 0 1 1h16a1 1 0 0 0 1-1V8a1 1 0 0 0-1-1h-4a1 1 0 0 1-.7-.3l-1.42-1.4a1 1 0 0 0-.7-.3zM12 9a4 4 0 1 1 0 8 4 4 0 0 1 0-8zm0 2a2 2 0 1 0 0 4 2 2 0 0 0 0-4zm7-3a1 1 0 1 1 0 2 1 1 0 0 1 0-2z"/>
</svg>
