<svg xmlns="http://www.w3.org/2000/svg" width="24" height="24" viewBox="0 0 24 24">
  <path d="M5.41421356,2 C5.96649831,2 6.41421356,2.44771525 6.41421356,3 L6.41421356,3 L6.41421356,21 L6.40748583,21.1166211 C6.34972072,21.6139598 5.9270494,22 5.41421356,22 C4.86192881,22 4.41421356,21.5522847 4.41421356,21 L4.41421356,21 L4.41421356,3 L4.42094129,2.88337887 C4.4787064,2.38604019 4.90137772,2 5.41421356,2 Z M11.4142136,5.41421356 C11.6794301,5.41421356 11.933784,5.5195704 12.1213203,5.70710678 L17.7071068,11.2928932 C18.0976311,11.6834175 18.0976311,12.3165825 17.7071068,12.7071068 L12.1213203,18.2928932 C11.7307961,18.6834175 11.0976311,18.6834175 10.7071068,18.2928932 C10.5195704,18.1053568 10.4142136,17.8510029 10.4142136,17.5857864 L10.4142136,6.41421356 C10.4142136,5.86192881 10.8619288,5.41421356 11.4142136,5.41421356 Z" transform="matrix(-1 0 0 1 22.414 0)"/>
</svg>
