<svg xmlns="http://www.w3.org/2000/svg" width="24" height="24" viewBox="0 0 24 24">
  <path d="M21,13 C21.5128358,13 21.9355072,13.3860402 21.9932723,13.8833789 L22,14 L22,21 C22,21.5128358 21.6139598,21.9355072 21.1166211,21.9932723 L21,22 L14,22 C13.4477153,22 13,21.5522847 13,21 C13,20.4871642 13.3860402,20.0644928 13.8833789,20.0067277 L14,20 L20,20 L20,14 C20,13.4871642 20.3860402,13.0644928 20.8833789,13.0067277 L21,13 Z M10,2 C10.5522847,2 11,2.44771525 11,3 C11,3.51283584 10.6139598,3.93550716 10.1166211,3.99327227 L10,4 L4,4 L4,10 C4,10.5128358 3.61395981,10.9355072 3.11662113,10.9932723 L3,11 C2.48716416,11 2.06449284,10.6139598 2.00672773,10.1166211 L2,10 L2,3 C2,2.48716416 2.38604019,2.06449284 2.88337887,2.00672773 L3,2 L10,2 Z"/>
</svg>
