<svg xmlns="http://www.w3.org/2000/svg" viewBox="0 0 24 24">
  <path d="M16 1a1 1 0 0 1 1 .88V3h1a3 3 0 0 1 3 2.82V20a3 3 0 0 1-2.82 3H6a3 3 0 0 1-3-2.82V6a3 3 0 0 1 2.82-3H7V2a1 1 0 0 1 .88-1H16zM7 5H6a1 1 0 0 0-1 .88V20a1 1 0 0 0 .88 1H18a1 1 0 0 0 1-.88V6a1 1 0 0 0-1-1h-1v1a1 1 0 0 1-.88 1H8a1 1 0 0 1-1-.88V5zm3.61 6.21.1.08L12 12.6l1.3-1.3a1 1 0 0 1 1.49 1.32l-.08.1L13.4 14l1.3 1.3a1 1 0 0 1-1.32 1.49l-.1-.08L12 15.4l-1.3 1.3a1 1 0 0 1-1.49-1.32l.08-.1L10.6 14l-1.3-1.3a1 1 0 0 1 1.32-1.49zM15 3H9v2h6V3z"/>
</svg>
