<svg xmlns="http://www.w3.org/2000/svg" width="24" height="24" viewBox="0 0 24 24">
  <path d="M16,1 C16.5128358,1 16.9355072,1.38604019 16.9932723,1.88337887 L17,2 L17,3 L19,3 C20.1045695,3 21,3.8954305 21,5 L21,21 C21,22.1045695 20.1045695,23 19,23 L5,23 C3.8954305,23 3,22.1045695 3,21 L3,5 C3,3.8954305 3.8954305,3 5,3 L7,3 L7,2 C7,1.48716416 7.38604019,1.06449284 7.88337887,1.00672773 L8,1 L16,1 Z M13,15 L11,15 L10.8151403,15.0049586 C9.41840278,15.0804956 8.5,16.0076133 8.5,17 C8.5,17.5 8.5,18 9.5,18 L9.5,18 L14.5,18 L14.6575789,17.9954561 C15.5,17.9444444 15.5,17.4722222 15.5,17 C15.5,15.9644661 14.5,15 13,15 L13,15 Z M12,10 C10.8954305,10 10,10.8954305 10,12 C10,13.1045695 10.8954305,14 12,14 C13.1045695,14 14,13.1045695 14,12 C14,10.8954305 13.1045695,10 12,10 Z M15,3 L9,3 L9,5 L15,5 L15,3 Z"/>
</svg>
