<svg xmlns="http://www.w3.org/2000/svg" width="24" height="24" viewBox="0 0 24 24">
  <path d="M12.5 3a8 8 0 0 1 8 8.36l-.03.3.06.03a5 5 0 0 1 2.46 4.08L23 16a5 5 0 0 1-4.78 5H6.5a1 1 0 0 1-.32-.05h-.01l-.22-.04A6 6 0 0 1 1 15.23V15a6 6 0 0 1 3.57-5.49l.08-.03.02-.12A8 8 0 0 1 12.25 3zM12 9a1 1 0 0 0-1 .88v3.71l-1.3-1.3a1 1 0 0 0-1.49 1.32l.08.1 3 3 .06.05.02.02h.01l.02.02.08.05.04.03.06.03.05.02a.99.99 0 0 0 .22.06h.09l.04.01h.1l.07-.01a1.08 1.08 0 0 0 .22-.06l.05-.02a1.02 1.02 0 0 0 .2-.13l.09-.07 3-3a1 1 0 0 0-1.32-1.5l-.1.08L13 13.6V10a1 1 0 0 0-1-1z"/>
</svg>
