<svg xmlns="http://www.w3.org/2000/svg" width="24" height="24" viewBox="0 0 24 24">
  <path d="M12 1a11 11 0 1 1 0 22 11 11 0 0 1 0-22zm3.4 7.05a3.83 3.83 0 0 0-6.8 0c-.22.45-.4.94-.53 1.45h-.19a1 1 0 0 0-.12 1.97v1.06A1 1 0 0 0 8 14.5h.07c.13.51.31 1 .54 1.45a3.83 3.83 0 0 0 6.78 0 1 1 0 1 0-1.78-.9l-.08.14c-.7 1.12-2.53 1.08-3.14-.14a5.16 5.16 0 0 1-.23-.55h1.96a1 1 0 0 0-.12-2H9.76a8.38 8.38 0 0 1 0-1h2.36a1 1 0 0 0-.12-2h-1.84c.07-.2.15-.38.23-.55.64-1.27 2.58-1.27 3.22 0l.05.1a1 1 0 0 0 1.73-1z"/>
</svg>
