<svg xmlns="http://www.w3.org/2000/svg" width="24" height="24" viewBox="0 0 24 24">
  <path d="M12 1a11 11 0 1 1 0 22 11 11 0 0 1 0-22zm0 4a1 1 0 0 0-1 1v.57c-1.76.25-3 1.2-3 2.93 0 1.7.86 2.44 3 3.21v2.65a5.13 5.13 0 0 1-1.45-.7 1 1 0 1 0-1.1 1.67c.83.56 1.69.92 2.55 1.08v.71a1 1 0 0 0 2-.12v-.57c1.76-.25 3-1.2 3-2.93 0-1.7-.9-2.45-3-3.21V8.64c.47.14.95.36 1.45.7a1 1 0 0 0 1.1-1.67A6.81 6.81 0 0 0 13 6.59v-.71A1 1 0 0 0 12 5zm1 8.44c.75.34 1 .63 1 1.06 0 .44-.34.76-1 .9zM11 8.6v1.96c-.77-.34-1-.63-1-1.06 0-.44.34-.76 1-.9z"/>
</svg>
