<svg xmlns="http://www.w3.org/2000/svg" width="24" height="24" viewBox="0 0 24 24">
  <path d="M12 1v6.18a3 3 0 0 0 2.82 2.81L15 10h6v11a2 2 0 0 1-2 2H5a2 2 0 0 1-2-2V3c0-1.1.9-2 2-2h7zm0 11h-.09l-.06.01a1.1 1.1 0 0 0-.22.06l-.05.02-.06.03-.04.03-.08.05-.02.02h-.01l-.08.07-3 3-.08.1a1 1 0 0 0 1.5 1.32L11 15.4v3.71a1 1 0 0 0 2-.12V15.4l1.3 1.3.09.08a1 1 0 0 0 1.32-1.5l-3-3-.08-.07a3 3 0 0 0-.15-.1 1.02 1.02 0 0 0-.06-.03l-.05-.02a.95.95 0 0 0-.22-.06H12zm2-10.82a2 2 0 0 1 .59.4l5.82 5.83a2 2 0 0 1 .41.59h-5.94a1 1 0 0 1-.87-.88L14 7V1.18z"/>
</svg>
