<svg xmlns="http://www.w3.org/2000/svg" width="24" height="24" viewBox="0 0 24 24">
  <path d="M12 1v6.18a3 3 0 0 0 2.82 2.81L15 10h6v11a2 2 0 0 1-2 2H5a2 2 0 0 1-2-2V3c0-1.1.9-2 2-2h7zm0 11a1 1 0 0 0-1 .88v3.71l-1.3-1.3a1 1 0 0 0-1.49 1.32l.08.1 3 3 .06.05.02.02h.01l.02.02.08.05.04.03.06.03.05.02a.99.99 0 0 0 .22.06h.09l.04.01h.1l.07-.01a1.08 1.08 0 0 0 .22-.06l.05-.02a1.02 1.02 0 0 0 .2-.13l.09-.07 3-3a1 1 0 0 0-1.32-1.5l-.1.08L13 16.6V13a1 1 0 0 0-1-1zm2-10.82a2 2 0 0 1 .59.4l5.82 5.83a2 2 0 0 1 .41.59h-5.94a1 1 0 0 1-.87-.88L14 7V1.18z"/>
</svg>
