<svg xmlns="http://www.w3.org/2000/svg" width="24" height="24" viewBox="0 0 24 24">
  <path d="M12,1 L12,8 C12,8.55228475 12.4477153,9 13,9 L20,9 L20,21 C20,22.1045695 19.1045695,23 18,23 L6,23 C4.8954305,23 4,22.1045695 4,21 L4,3 C4,1.8954305 4.8954305,1 6,1 L12,1 Z M10,3 L6,3 L6,21 L18,21 L18,11 L13,11 C11.4023191,11 10.0963391,9.75108004 10.0050927,8.17627279 L10,8 L10,3 Z M8.38710056,13.7097046 C8.77939176,13.4046797 9.34662282,13.4324093 9.70710678,13.7928932 L9.70710678,13.7928932 L12,16.085 L14.2928932,13.7928932 L14.3871006,13.7097046 C14.7793918,13.4046797 15.3466228,13.4324093 15.7071068,13.7928932 C16.0976311,14.1834175 16.0976311,14.8165825 15.7071068,15.2071068 L15.7071068,15.2071068 L12.7071068,18.2071068 L12.6128994,18.2902954 C12.2206082,18.5953203 11.6533772,18.5675907 11.2928932,18.2071068 L11.2928932,18.2071068 L8.29289322,15.2071068 L8.20970461,15.1128994 C7.90467972,14.7206082 7.93240926,14.1533772 8.29289322,13.7928932 L8.29289322,13.7928932 Z M14,1 L20,7 L15,7 C14.4871642,7 14.0644928,6.61395981 14.0067277,6.11662113 L14,6 L14,1 Z"/>
</svg>
