<svg xmlns="http://www.w3.org/2000/svg" width="24" height="24" viewBox="0 0 24 24">
  <path d="M13.59 1a2 2 0 0 1 1.28.47l.13.12L20.41 7A2 2 0 0 1 21 8.24l.01.17V20a3 3 0 0 1-2.82 3H6a3 3 0 0 1-3-2.82V4a3 3 0 0 1 2.82-3h7.77zM12 3H6a1 1 0 0 0-1 .88V20a1 1 0 0 0 .88 1H18a1 1 0 0 0 1-.88V10h-4a3 3 0 0 1-3-2.82V3zm3.7 14.3a1 1 0 1 1-1.4 1.4 1 1 0 0 1 1.4-1.4zm0-6a1 1 0 0 1 .09 1.31l-.08.1-6 6a1 1 0 0 1-1.5-1.32l.08-.1 6-6a1 1 0 0 1 1.42 0zm-6 0a1 1 0 1 1-1.4 1.4 1 1 0 0 1 1.4-1.4zM14 3.4V7a1 1 0 0 0 .88 1h3.71L14 3.42z"/>
</svg>
