<svg xmlns="http://www.w3.org/2000/svg" width="24" height="24" viewBox="0 0 24 24">
  <path d="M13.59 1a2 2 0 0 1 1.28.47l.13.12L20.41 7A2 2 0 0 1 21 8.24l.01.17V20a3 3 0 0 1-2.82 3H6a3 3 0 0 1-3-2.82V4a3 3 0 0 1 2.82-3h7.77zM12 3H6a1 1 0 0 0-1 .88V20a1 1 0 0 0 .88 1H18a1 1 0 0 0 1-.88V10h-4a3 3 0 0 1-3-2.82V3zm0 14a1 1 0 1 1 0 2 1 1 0 0 1 0-2zm0-6c.55 0 1.16.16 1.64.53.5.37.86.96.86 1.72a2.03 2.03 0 0 1-1.02 1.81l-.31.2-.27.16a.96.96 0 0 0-.28.25.75.75 0 0 1-1.24-.84c.2-.3.47-.5.69-.66l.31-.2c.1-.06.19-.1.27-.16.15-.1.23-.17.27-.24a.54.54 0 0 0 .08-.32c0-.24-.1-.4-.26-.53a1.26 1.26 0 0 0-.74-.22c-.37 0-.6.09-.74.19a1 1 0 0 0-.34.4.75.75 0 0 1-1.34-.68c.17-.33.43-.7.85-.97.42-.28.94-.44 1.57-.44zm2-7.58V7a1 1 0 0 0 .88 1h3.71L14 3.42z"/>
</svg>
