<svg xmlns="http://www.w3.org/2000/svg" width="24" height="24" viewBox="0 0 24 24">
  <path d="M13.59 1a2 2 0 0 1 1.28.47l.13.12L20.41 7A2 2 0 0 1 21 8.24l.01.17V20a3 3 0 0 1-2.82 3H6a3 3 0 0 1-3-2.82V4a3 3 0 0 1 2.82-3h7.77zM12 3H6a1 1 0 0 0-1 .88V20a1 1 0 0 0 .88 1H18a1 1 0 0 0 1-.88V10h-4a3 3 0 0 1-3-2.82V3zm-1.39 9.21.1.08L12 13.6l1.3-1.3a1 1 0 0 1 1.49 1.32l-.08.1L13.4 15l1.3 1.3a1 1 0 0 1-1.32 1.49l-.1-.08L12 16.4l-1.3 1.3a1 1 0 0 1-1.49-1.32l.08-.1L10.6 15l-1.3-1.3a1 1 0 0 1 1.32-1.49zM14 3.41V7a1 1 0 0 0 .88 1h3.71L14 3.42z"/>
</svg>
