<svg xmlns="http://www.w3.org/2000/svg" width="24" height="24" viewBox="0 0 24 24">
  <path d="M13.59 1a2 2 0 0 1 1.28.47l.13.12L20.41 7A2 2 0 0 1 21 8.24l.01.17V20a3 3 0 0 1-2.82 3H6a3 3 0 0 1-3-2.82V4a3 3 0 0 1 2.82-3h7.77zM12 3H6a1 1 0 0 0-1 .88V20a1 1 0 0 0 .88 1H18a1 1 0 0 0 1-.88V10h-4a3 3 0 0 1-3-2.82V3zm0 8h.08l.07.01a1.08 1.08 0 0 1 .22.06l.05.02a1.02 1.02 0 0 1 .2.13l.09.07 3 3a1 1 0 0 1-1.32 1.5l-.1-.08L13 14.4V18a1 1 0 0 1-2 .12V14.4l-1.3 1.3a1 1 0 0 1-1.49-1.32l.08-.1 3-3 .08-.07h.01l.02-.02.08-.05.04-.03.06-.03.05-.02a.99.99 0 0 1 .22-.06h.09l.04-.01H12zm2-7.58V7a1 1 0 0 0 .88 1h3.71L14 3.42z"/>
</svg>
