<svg xmlns="http://www.w3.org/2000/svg" width="24" height="24" viewBox="0 0 24 24">
  <path d="M12,1 L12,8 C12,8.55228475 12.4477153,9 13,9 L20,9 L20,21 C20,22.1045695 19.1045695,23 18,23 L6,23 C4.8954305,23 4,22.1045695 4,21 L4,3 C4,1.8954305 4.8954305,1 6,1 L12,1 Z M12.6128994,12.7097046 C12.2206082,12.4046797 11.6533772,12.4324093 11.2928932,12.7928932 L11.2928932,12.7928932 L8.29289322,15.7928932 L8.20970461,15.8871006 C7.90467972,16.2793918 7.93240926,16.8466228 8.29289322,17.2071068 L8.29289322,17.2071068 L8.38710056,17.2902954 C8.77939176,17.5953203 9.34662282,17.5675907 9.70710678,17.2071068 L9.70710678,17.2071068 L12,14.915 L14.2928932,17.2071068 L14.3871006,17.2902954 C14.7793918,17.5953203 15.3466228,17.5675907 15.7071068,17.2071068 C16.0976311,16.8165825 16.0976311,16.1834175 15.7071068,15.7928932 L15.7071068,15.7928932 L12.7071068,12.7928932 Z M14,1 L20,7 L15,7 C14.4871642,7 14.0644928,6.61395981 14.0067277,6.11662113 L14,6 L14,1 Z"/>
</svg>
