<svg xmlns="http://www.w3.org/2000/svg" width="24" height="24" viewBox="0 0 24 24">
  <path d="M13.59 1a2 2 0 0 1 1.28.47l.13.12L20.41 7A2 2 0 0 1 21 8.24l.01.17V20a3 3 0 0 1-2.82 3H6a3 3 0 0 1-3-2.82V4a3 3 0 0 1 2.82-3h7.77zM12 3H6a1 1 0 0 0-1 .88V20a1 1 0 0 0 .88 1H18a1 1 0 0 0 1-.88V10h-4a3 3 0 0 1-3-2.82V3zm.22 8.18c.1.05.18.13.23.23l.87 1.77 1.96.28a.5.5 0 0 1 .27.86l-1.41 1.38.33 1.94a.5.5 0 0 1-.72.53L12 17.25l-1.75.92a.5.5 0 0 1-.72-.53l.33-1.94-1.41-1.38a.5.5 0 0 1 .27-.86l1.96-.28.87-1.77a.5.5 0 0 1 .67-.23zM14 3.42V7a1 1 0 0 0 .88 1h3.71L14 3.42z"/>
</svg>
