<svg xmlns="http://www.w3.org/2000/svg" width="24" height="24" viewBox="0 0 24 24">
  <path d="M12 1v6.18a3 3 0 0 0 2.82 2.81L15 10h6v11a2 2 0 0 1-2 2H5a2 2 0 0 1-2-2V3c0-1.1.9-2 2-2h7zm3.78 14.38-.01-.02v.01l-.06-.08-3-3-.1-.08a1 1 0 0 0-1.32 1.5L12.6 15H8.88A1 1 0 0 0 9 17h3.59l-1.3 1.3-.08.09a1 1 0 0 0 1.5 1.32l3-3 .07-.08a3 3 0 0 0 .1-.15l.03-.06.02-.05a.95.95 0 0 0 .06-.22v-.13L16 16v-.09l-.01-.06a1.1 1.1 0 0 0-.06-.22l-.02-.05a1.04 1.04 0 0 0-.03-.06l-.03-.04a1.03 1.03 0 0 0-.05-.08l-.02-.03zM14 1.18a2 2 0 0 1 .59.4l5.82 5.83a2 2 0 0 1 .41.59h-5.94a1 1 0 0 1-.87-.88L14 7V1.18z"/>
</svg>
