<svg xmlns="http://www.w3.org/2000/svg" width="24" height="24" viewBox="0 0 24 24">
  <path d="M12 1v6.18a3 3 0 0 0 2.82 2.81L15 10h6v11a2 2 0 0 1-2 2H5a2 2 0 0 1-2-2V3c0-1.1.9-2 2-2h7zm-.61 11.21-.1.08-3 3-.05.06-.02.02-.02.03-.05.08-.03.04-.03.06-.02.05a.99.99 0 0 0-.06.22v.09l-.01.04v.1-.02.02l.01.07a1.08 1.08 0 0 0 .06.22l.02.05a1.02 1.02 0 0 0 .13.2l.07.09 3 3a1 1 0 0 0 1.5-1.32l-.08-.1L11.4 17H15a1 1 0 0 0 .12-2H11.4l1.3-1.3a1 1 0 0 0-1.32-1.49zM14 1.18a2 2 0 0 1 .59.4l5.82 5.83a2 2 0 0 1 .41.59h-5.94a1 1 0 0 1-.87-.88L14 7V1.18z"/>
</svg>
