<svg xmlns="http://www.w3.org/2000/svg" width="24" height="24" viewBox="0 0 24 24">
  <path d="M17.5527864,13.1055728 C18.2176875,12.7731223 19,13.256618 19,14 L19,14 L19,18 C19,18.3787721 18.7859976,18.7250352 18.4472136,18.8944272 L18.4472136,18.8944272 L12.4472136,21.8944272 C12.1656861,22.0351909 11.8343139,22.0351909 11.5527864,21.8944272 L11.5527864,21.8944272 L5.5527864,18.8944272 C5.21400238,18.7250352 5,18.3787721 5,18 L5,18 L5,14 C5,13.256618 5.7823125,12.7731223 6.4472136,13.1055728 L6.4472136,13.1055728 L12,15.881 Z M17,15.618 L12.4472136,17.8944272 C12.1656861,18.0351909 11.8343139,18.0351909 11.5527864,17.8944272 L11.5527864,17.8944272 L7,15.618 L7,17.382 L12,19.881 L17,17.381 L17,15.618 Z M11.5527864,2.10557281 C11.8343139,1.96480906 12.1656861,1.96480906 12.4472136,2.10557281 L12.4472136,2.10557281 L22.4472136,7.10557281 C23.1842621,7.47409708 23.1842621,8.52590292 22.4472136,8.89442719 L22.4472136,8.89442719 L12.4472136,13.8944272 C12.1656861,14.0351909 11.8343139,14.0351909 11.5527864,13.8944272 L11.5527864,13.8944272 L1.5527864,8.89442719 C0.815737865,8.52590292 0.815737865,7.47409708 1.5527864,7.10557281 L1.5527864,7.10557281 Z M12,4.118 L4.236,8 L12,11.881 L19.763,8 L12,4.118 Z"/>
</svg>
