<svg xmlns="http://www.w3.org/2000/svg" width="24" height="24" viewBox="0 0 24 24">
  <path d="M8 7.5a3 3 0 0 1-2 2.83V21a1 1 0 0 1-2 .12V10.33a3 3 0 0 1 0-5.66V3a1 1 0 0 1 2-.12v1.79A3 3 0 0 1 8 7.5zm-2 0a1 1 0 1 0-2 0 1 1 0 0 0 2 0zm9 4a3 3 0 0 1-2 2.83V21a1 1 0 0 1-2 .12v-6.79a3 3 0 0 1 0-5.66V3a1 1 0 0 1 2-.12v5.79a3 3 0 0 1 2 2.83zm-2 0a1 1 0 1 0-2 0 1 1 0 0 0 2 0zm9 4.5a3 3 0 0 1-2 2.83v2.29a1 1 0 0 1-2-.12v-2.17a3 3 0 0 1 0-5.66V2.88A1 1 0 0 1 20 3v10.17A3 3 0 0 1 22 16zm-2 0a1 1 0 1 0-2 0 1 1 0 0 0 2 0z"/>
</svg>
