<svg xmlns="http://www.w3.org/2000/svg" width="24" height="24" viewBox="0 0 24 24">
  <path d="M15.74 3c-1.2.07-2.36.55-3.49 1.44l-.25.2h-.01A6.2 6.2 0 0 0 8 3C4.37 3 2 5.53 2 9.5c0 2.65 1.03 4.44 3.69 6.96a48.25 48.25 0 0 0 5.75 4.37 1 1 0 0 0 1.12 0l.78-.53a43.69 43.69 0 0 0 4.97-3.84C20.97 13.94 22 12.15 22 9.5 22 5.53 19.63 3 16 3h-.26zM16 5c2.5 0 4 1.6 4 4.5 0 2-.77 3.33-3.06 5.5l-.17.16c-.92.85-2.32 1.93-4.2 3.23l-.57.4-.2-.13A42.15 42.15 0 0 1 7.07 15C4.76 12.83 4 11.5 4 9.5 4 6.6 5.5 5 8 5c1.04 0 2.13.55 3.3 1.7a1 1 0 0 0 1.4 0C13.88 5.56 14.97 5 16 5z"/>
</svg>
