<svg xmlns="http://www.w3.org/2000/svg" viewBox="0 0 24 24">
  <path d="M16.32 1a2 2 0 0 1 1.72.98l5.35 9a2 2 0 0 1 0 2.04l-5.35 9a2 2 0 0 1-1.72.98H7.68a2 2 0 0 1-1.72-.98l-5.35-9a2 2 0 0 1 0-2.04l5.35-9A2 2 0 0 1 7.68 1h8.64zM7.64 9.95l-.09.1a1 1 0 0 0 1.5 1.31L11 9.41v7.71a1 1 0 0 0 2-.12V9.41l1.95 1.95.1.09a1 1 0 0 0 1.31-1.5l-3.65-3.66-.08-.07a3.01 3.01 0 0 0-.15-.1l-.06-.03a1 1 0 0 0-.1-.04l-.05-.01a.94.94 0 0 0-.12-.03h-.13L12 6h-.09l-.06.01a1.1 1.1 0 0 0-.28.09 1.06 1.06 0 0 0-.15.09l-.04.03h-.01l-.02.02-.06.05-3.65 3.66z"/>
</svg>
