<svg xmlns="http://www.w3.org/2000/svg" width="24" height="24" viewBox="0 0 24 24">
  <path d="M16.32 1a2 2 0 0 1 1.72.98l5.35 9a2 2 0 0 1 0 2.04l-5.35 9a2 2 0 0 1-1.72.98H7.68a2 2 0 0 1-1.72-.98l-5.35-9a2 2 0 0 1 0-2.04l5.35-9A2 2 0 0 1 7.68 1h8.64zm1.46 10.38v-.01l-.02-.02-.05-.06-3.66-3.65-.1-.09a1 1 0 0 0-1.31 1.5L14.59 11H6.88A1 1 0 0 0 7 13h7.59l-1.95 1.95-.09.1a1 1 0 0 0 1.5 1.31l3.66-3.65.07-.08a3 3 0 0 0 .1-.15l.03-.06.02-.05a.95.95 0 0 0 .06-.22v-.13L18 12v-.09a.94.94 0 0 0-.1-.34 1.06 1.06 0 0 0-.09-.15l-.03-.04z"/>
</svg>
