<svg xmlns="http://www.w3.org/2000/svg" viewBox="0 0 24 24">
  <path d="M16.32 1a3 3 0 0 1 2.63 1.55l4.4 8c.5.9.5 2 0 2.9l-4.4 8A3 3 0 0 1 16.32 23H7.68a3 3 0 0 1-2.63-1.55l-4.4-8a3 3 0 0 1 0-2.9l4.4-8A3 3 0 0 1 7.68 1zm0 2H7.68a1 1 0 0 0-.87.52l-4.4 8a1 1 0 0 0 0 .96l4.4 8a1 1 0 0 0 .87.52h8.64a1 1 0 0 0 .87-.52l4.4-8a1 1 0 0 0 0-.96l-4.4-8a1 1 0 0 0-.87-.52zM6 12.02v-.11a.94.94 0 0 1 .1-.34 1.06 1.06 0 0 1 .09-.15l.03-.04v-.01l.02-.02.05-.06 3.66-3.65.1-.09a1 1 0 0 1 1.31 1.5L9.41 11h7.71a1 1 0 0 1-.12 2H9.41l1.95 1.95.09.1a1 1 0 0 1-1.5 1.31l-3.66-3.65-.07-.08-.01-.02-.02-.02a1.05 1.05 0 0 1-.17-.39v-.05L6 12.07v-.05z"/>
</svg>
