<svg xmlns="http://www.w3.org/2000/svg" width="24" height="24" viewBox="0 0 24 24">
  <path d="M16.32 1a2 2 0 0 1 1.72.98l5.35 9a2 2 0 0 1 0 2.04l-5.35 9a2 2 0 0 1-1.72.98H7.68a2 2 0 0 1-1.72-.98l-5.35-9a2 2 0 0 1 0-2.04l5.35-9A2 2 0 0 1 7.68 1h8.64zM12 15a1 1 0 1 0 0 2 1 1 0 0 0 0-2zm.1-8C11 7 10 7.6 9.5 8.5l-.03.05-.05.1a1 1 0 0 0 .42 1.24l.01.01.1.05a.96.96 0 0 0 1.23-.41l.02-.04.08-.1a1 1 0 0 1 .82-.4c.6 0 1 .3 1 .9 0 .3-.1.5-.6.8-.6.4-1.5 1-1.5 2.3v1h2v-1.05c.02-.17.15-.28.6-.55.6-.4 1.5-1 1.5-2.4 0-1.7-1.3-3-3-3z"/>
</svg>
