<svg xmlns="http://www.w3.org/2000/svg" viewBox="0 0 24 24">
  <path d="M16.32 1a3 3 0 0 1 2.63 1.55l4.4 8c.5.9.5 2 0 2.9l-4.4 8A3 3 0 0 1 16.32 23H7.68a3 3 0 0 1-2.63-1.55l-4.4-8a3 3 0 0 1 0-2.9l4.4-8A3 3 0 0 1 7.68 1zm0 2H7.68a1 1 0 0 0-.87.52l-4.4 8a1 1 0 0 0 0 .96l4.4 8a1 1 0 0 0 .87.52h8.64a1 1 0 0 0 .87-.52l4.4-8a1 1 0 0 0 0-.96l-4.4-8a1 1 0 0 0-.87-.52zm-6.7 5.21.09.08L12 10.6l2.3-2.3a1 1 0 0 1 1.49 1.32l-.08.1L13.4 12l2.3 2.3a1 1 0 0 1-1.32 1.49l-.1-.08L12 13.4l-2.3 2.3a1 1 0 0 1-1.49-1.32l.08-.1L10.6 12 8.3 9.7a1 1 0 0 1 1.32-1.49z"/>
</svg>
