<svg xmlns="http://www.w3.org/2000/svg" width="24" height="24" viewBox="0 0 24 24">
  <path d="M16.32 1a2 2 0 0 1 1.72.98l5.35 9a2 2 0 0 1 0 2.04l-5.35 9a2 2 0 0 1-1.72.98H7.68a2 2 0 0 1-1.72-.98l-5.35-9a2 2 0 0 1 0-2.04l5.35-9A2 2 0 0 1 7.68 1h8.64zM6.22 11.38l-.03.04a1.04 1.04 0 0 0-.19.49v.16l.01.08a1.09 1.09 0 0 0 .14.37l.04.07.02.02.01.02.07.08 3.66 3.65a1 1 0 0 0 1.5-1.32l-.09-.09L9.41 13H17a1 1 0 0 0 .12-2H9.4l1.95-1.95a1 1 0 0 0-1.32-1.5l-.09.09-3.66 3.65-.05.06-.01.02v-.02.02h-.01z"/>
</svg>
