<svg xmlns="http://www.w3.org/2000/svg" width="24" height="24" viewBox="0 0 24 24">
  <path d="M6 16h.12A1 1 0 0 1 7 17a3 3 0 0 0 2.82 3h4.36a3 3 0 0 0 2.81-2.82L17 17v-.12a1 1 0 0 1 .88-.87L18 16h4v4a2 2 0 0 1-2 2H4a2 2 0 0 1-2-2v-4h4zM20 2a2 2 0 0 1 2 2v10h-4.18A3 3 0 0 0 15 17a1 1 0 0 1-.88 1H9.88a1 1 0 0 1-.87-.88L9 17v-.18a3 3 0 0 0-2.82-2.81L6 14H2V4c0-1.1.9-2 2-2h16zm-8 3h-.09l-.06.01a1.1 1.1 0 0 0-.22.06l-.05.02-.06.03-.04.03-.08.05-.02.01-.01.01-.08.07-3 3-.08.1a1 1 0 0 0 1.5 1.32L11 8.4v3.71a1 1 0 0 0 2-.12V8.41l1.3 1.3.09.08a1 1 0 0 0 1.32-1.5l-3-3-.08-.07a3.01 3.01 0 0 0-.15-.1 1.02 1.02 0 0 0-.06-.03l-.05-.02a.95.95 0 0 0-.22-.06h-.13L12 5z"/>
</svg>
