<svg xmlns="http://www.w3.org/2000/svg" width="24" height="24" viewBox="0 0 24 24">
  <path d="M19 2a3 3 0 0 1 3 2.82V19a3 3 0 0 1-2.82 3H5a3 3 0 0 1-3-2.82V5a3 3 0 0 1 2.82-3H19zm0 2H5a1 1 0 0 0-1 .88V14h2a2 2 0 0 1 2 2c0 1.1.9 2 2 2h4a2 2 0 0 0 2-2c0-1.1.9-2 2-2h2V5a1 1 0 0 0-.88-1H19zm-6.78 2.18c.1.05.18.13.23.23l.87 1.77 1.96.28a.5.5 0 0 1 .27.86l-1.41 1.38.33 1.94a.5.5 0 0 1-.72.53L12 12.25l-1.75.92a.5.5 0 0 1-.72-.53l.33-1.94-1.41-1.38a.5.5 0 0 1 .27-.86l1.96-.28.87-1.77a.5.5 0 0 1 .67-.23z"/>
</svg>
