<svg xmlns="http://www.w3.org/2000/svg" width="24" height="24" viewBox="0 0 24 24">
  <path d="M14.1715729,4 C14.9672223,4 15.7302841,4.31607052 16.2928932,4.87867966 L16.2928932,4.87867966 L21.2928932,9.87867966 C22.4644661,11.0502525 22.4644661,12.9497475 21.2928932,14.1213203 L21.2928932,14.1213203 L16.2928932,19.1213203 C15.7302841,19.6839295 14.9672223,20 14.1715729,20 L14.1715729,20 L5,20 C3.34314575,20 2,18.6568542 2,17 L2,17 L2,7 C2,5.34314575 3.34314575,4 5,4 L5,4 Z M14.1715729,6 L5,6 C4.44771525,6 4,6.44771525 4,7 L4,7 L4,17 C4,17.5522847 4.44771525,18 5,18 L5,18 L14.1715729,18 C14.4367894,18 14.6911433,17.8946432 14.8786797,17.7071068 L14.8786797,17.7071068 L19.8786797,12.7071068 C20.2692039,12.3165825 20.2692039,11.6834175 19.8786797,11.2928932 L19.8786797,11.2928932 L14.8786797,6.29289322 C14.6911433,6.10535684 14.4367894,6 14.1715729,6 L14.1715729,6 Z M8.61289944,8.20970461 L8.70710678,8.29289322 L11.7071068,11.2928932 C12.0675907,11.6533772 12.0953203,12.2206082 11.7902954,12.6128994 L11.7071068,12.7071068 L8.70710678,15.7071068 C8.31658249,16.0976311 7.68341751,16.0976311 7.29289322,15.7071068 C6.93240926,15.3466228 6.90467972,14.7793918 7.20970461,14.3871006 L7.29289322,14.2928932 L9.585,12 L7.29289322,9.70710678 C6.93240926,9.34662282 6.90467972,8.77939176 7.20970461,8.38710056 L7.29289322,8.29289322 C7.65337718,7.93240926 8.22060824,7.90467972 8.61289944,8.20970461 Z"/>
</svg>
