<svg xmlns="http://www.w3.org/2000/svg" width="24" height="24">
  <path fill-rule="evenodd" d="M4.83.06c-.51.13-.9.27-1.06.38-.36.26-.52.88-.33 1.26.12.25.3.36.97.6a10.39 10.39 0 0 1 3.84 2.43 10.24 10.24 0 0 1 2.6 10.01 10.32 10.32 0 0 1-4.41 5.9c-.56.35-1.36.74-1.92.94-.57.2-.72.28-.87.43-.24.24-.36.8-.25 1.1.14.35.57.55 1.71.8.35.09.5.09 2.63.09h2.27l.44-.1a12.25 12.25 0 0 0 9.3-9.58c.3-1.49.3-3.24 0-4.72a12.24 12.24 0 0 0-6.51-8.58 11.73 11.73 0 0 0-2.32-.88l-.5-.14H7.75C5.57 0 5.01.02 4.82.06m4.1 1.72c1.33.16 2.68.6 3.82 1.23a10.34 10.34 0 0 1 5.1 7.21 10.27 10.27 0 0 1-4.4 10.26 10.64 10.64 0 0 1-2.86 1.32c-.8.24-2.02.42-2.57.4l-.26-.02.38-.27a12.51 12.51 0 0 0 3.33-3.59 12.31 12.31 0 0 0 1.3-9.78 12.31 12.31 0 0 0-5-6.8c-.04-.04.7-.01 1.16.04"/>
</svg>
