<svg xmlns="http://www.w3.org/2000/svg" width="24" height="24" viewBox="0 0 24 24">
  <path d="M12 6a6 6 0 0 1 3 11.2V20a3 3 0 0 1-6 0v-2.8A6 6 0 0 1 12 6zm1 12h-2v2a1 1 0 0 0 .88 1H12a1 1 0 0 0 1-1v-2zM12 8a4 4 0 1 0 0 8 4 4 0 0 0 0-8zm10 3a1 1 0 0 1 .12 2H21a1 1 0 0 1-.12-2H22zM3 11a1 1 0 0 1 .12 2H2a1 1 0 0 1-.12-2H3zm16.78-6.78a1 1 0 0 1 .08 1.32l-.08.1-.7.7a1 1 0 0 1-1.5-1.32l.08-.1.7-.7a1 1 0 0 1 1.42 0zM5.54 4.14l.1.08.7.7a1 1 0 0 1-1.32 1.5l-.1-.08-.7-.7a1 1 0 0 1 1.32-1.5zM12 1a1 1 0 0 1 1 .88V3a1 1 0 0 1-2 .12V2a1 1 0 0 1 1-1z"/>
</svg>
