<svg xmlns="http://www.w3.org/2000/svg" width="24" height="24" viewBox="0 0 24 24">
  <path d="M12,6 C15.3137085,6 18,8.6862915 18,12 C18,14.2204495 16.793836,16.1591844 15.000963,17.1967496 L15,20 C15,21.6568542 13.6568542,23 12,23 C10.3431458,23 9,21.6568542 9,20 L9,20 L9.00003939,17.1973296 C7.20661355,16.159907 6,14.2208633 6,12 C6,8.6862915 8.6862915,6 12,6 Z M13,18 L11,18 L11,20 C11,20.5128358 11.3860402,20.9355072 11.8833789,20.9932723 L11.8833789,20.9932723 L12,21 C12.5522847,21 13,20.5522847 13,20 L13,20 L13,18 Z M12,8 C9.790861,8 8,9.790861 8,12 C8,14.209139 9.790861,16 12,16 C14.209139,16 16,14.209139 16,12 C16,9.790861 14.209139,8 12,8 Z M22,11 C22.5522847,11 23,11.4477153 23,12 C23,12.5128358 22.6139598,12.9355072 22.1166211,12.9932723 L22,13 L21,13 C20.4477153,13 20,12.5522847 20,12 C20,11.4871642 20.3860402,11.0644928 20.8833789,11.0067277 L21,11 L22,11 Z M3,11 C3.55228475,11 4,11.4477153 4,12 C4,12.5128358 3.61395981,12.9355072 3.11662113,12.9932723 L3,13 L2,13 C1.44771525,13 1,12.5522847 1,12 C1,11.4871642 1.38604019,11.0644928 1.88337887,11.0067277 L2,11 L3,11 Z M19.7781746,4.22182541 C20.1386586,4.58230937 20.1663881,5.14954042 19.8613632,5.54183163 L19.7781746,5.63603897 L19.0710678,6.34314575 C18.6805435,6.73367004 18.0473785,6.73367004 17.6568542,6.34314575 C17.2963703,5.98266179 17.2686408,5.41543073 17.5736656,5.02313953 L17.6568542,4.92893219 L18.363961,4.22182541 C18.7544853,3.83130112 19.3876503,3.83130112 19.7781746,4.22182541 Z M5.54183163,4.1386368 L5.63603897,4.22182541 L6.34314575,4.92893219 C6.73367004,5.31945648 6.73367004,5.95262146 6.34314575,6.34314575 C5.98266179,6.70362971 5.41543073,6.73135925 5.02313953,6.42633436 L4.92893219,6.34314575 L4.22182541,5.63603897 C3.83130112,5.24551468 3.83130112,4.6123497 4.22182541,4.22182541 C4.58230937,3.86134145 5.14954042,3.83361191 5.54183163,4.1386368 Z M12,1 C12.5128358,1 12.9355072,1.38604019 12.9932723,1.88337887 L13,2 L13,3 C13,3.55228475 12.5522847,4 12,4 C11.4871642,4 11.0644928,3.61395981 11.0067277,3.11662113 L11,3 L11,2 C11,1.44771525 11.4477153,1 12,1 Z"/>
</svg>
