<svg xmlns="http://www.w3.org/2000/svg" viewBox="0 0 24 24">
  <path d="M13.41 3.51a4 4 0 0 1 5.52-.13l.14.13 1.42 1.42a4 4 0 0 1 .13 5.51l-.13.15-4.25 4.24a4 4 0 0 1-5.51.14l-.14-.14-.71-.7a1 1 0 0 1 1.33-1.5l.08.08.71.7a2 2 0 0 0 2.72.1l.1-.1 4.25-4.24a2 2 0 0 0 .1-2.72l-.1-.1-1.41-1.42a2 2 0 0 0-2.72-.1l-.11.1-1.42 1.41a1 1 0 0 1-1.49-1.32l.08-.1 1.41-1.4zM7.76 9.17a4 4 0 0 1 5.51-.14l.14.14.71.7a1 1 0 0 1-1.33 1.5l-.08-.08-.71-.7a2 2 0 0 0-2.72-.1l-.1.1-4.25 4.24a2 2 0 0 0-.1 2.72l.1.1 1.41 1.42a2 2 0 0 0 2.72.1l.11-.1 1.42-1.41a1 1 0 0 1 1.49 1.32l-.08.1-1.41 1.4a4 4 0 0 1-5.52.14l-.14-.13-1.42-1.42a4 4 0 0 1-.13-5.51l.13-.15 4.25-4.24z"/>
</svg>
