<svg xmlns="http://www.w3.org/2000/svg" width="24" height="24" viewBox="0 0 24 24">
  <path d="M12 10.5c2.1 0 3.5 1.25 4.28 3.22l.01.03.09.04a5.24 5.24 0 0 1 2.61 4.02L19 18c0 .73-.02 1.16-.11 1.69-.23 1.35-.86 2.35-2.07 2.76-.63.2-1.22.24-1.87.13-.2-.03-.4-.08-.63-.14l-.83-.23a5.5 5.5 0 0 0-3.24.07l-.48.14-.31.08-.4.08c-.66.1-1.25.08-1.88-.13-1.7-.57-2.16-2.01-2.18-4.19V18a4.84 4.84 0 0 1 2.6-4.2l.11-.06.1-.25c.77-1.77 2.07-2.9 3.95-2.98zm0 2c-1.24 0-2.05.8-2.55 2.32a1 1 0 0 1-.63.63l-.17.06A2.83 2.83 0 0 0 7 18v.25c.01 1.36.26 2.11.82 2.3.3.1.56.11.9.06l.3-.06 1.02-.28a7.33 7.33 0 0 1 4.24.09l.74.2.26.05c.34.05.6.04.9-.06.38-.13.62-.5.74-1.2.05-.29.07-.55.08-.93V18c0-.9-.87-2.24-1.82-2.55l-.1-.04a1 1 0 0 1-.53-.6c-.5-1.5-1.3-2.31-2.55-2.31zm6.53-3.1c.77-1.3 2.07-1.8 3.47-1 1.4.82 1.63 2.19.87 3.5-.87 1.5-2.4 2.55-3.87 1.7-1.47-.85-1.33-2.7-.47-4.2zM2 8.4c1.4-.81 2.7-.31 3.47 1 .86 1.5 1 3.35-.47 4.2-1.47.85-3-.2-3.87-1.7C.37 10.6.6 9.22 2 8.4zm18.92 1.69c-.3-.16-.42-.09-.65.31-.18.32-.33.74-.35 1.07-.02.26.01.36.08.4.07.03.17.02.38-.13.28-.19.57-.52.75-.84.25-.43.23-.56-.13-.77zm-17.19.31c-.25-.43-.37-.48-.73-.27l-.08.05c-.28.18-.28.32-.05.72.18.32.47.65.75.84.21.15.31.16.38.13.07-.04.1-.14.08-.4a2.76 2.76 0 0 0-.35-1.07zm3.7-8.26c2.23-.6 3.19.4 3.84 2.77l.09.31c.55 2.07-.16 4.19-1.87 4.64-1.7.46-3.37-1.01-3.93-3.08-.73-2.72-.5-4 1.86-4.64zm5.38 3.08c.73-2.72 1.56-3.72 3.93-3.08 2.24.6 2.57 1.94 1.95 4.32l-.08.32c-.56 2.07-2.23 3.54-3.94 3.08-1.7-.45-2.41-2.57-1.86-4.64zm-3.47.21c-.4-1.45-.54-1.6-1.4-1.36l-.1.02c-.7.2-.8.4-.49 1.63l.14.54c.3 1.13 1.05 1.79 1.49 1.67.43-.11.75-1.06.44-2.19zm6.79-1.39c-.71-.18-.9-.05-1.24 1.17l-.15.53c-.3 1.13.02 2.08.45 2.2.43.1 1.18-.55 1.48-1.68l.09-.31c.38-1.46.33-1.65-.53-1.88z"/>
</svg>
