<svg xmlns="http://www.w3.org/2000/svg" width="24" height="24" viewBox="0 0 24 24">
  <path d="M12.17 10.5c2.1 0 3.49 1.25 4.27 3.22l.02.03.08.04a5.24 5.24 0 0 1 2.62 4.02V18c0 .73-.01 1.16-.1 1.69-.24 1.35-.87 2.35-2.08 2.76-.62.2-1.22.24-1.87.13-.2-.03-.4-.08-.62-.14l-.84-.23a5.5 5.5 0 0 0-3.23.07l-.49.14-.3.08-.41.08c-.65.1-1.25.08-1.87-.13-1.7-.57-2.17-2.01-2.18-4.19V18a4.84 4.84 0 0 1 2.6-4.2l.1-.06.11-.25c.77-1.77 2.06-2.9 3.95-2.98zm6.53-1.1c.76-1.31 2.06-1.81 3.47-1 1.4.82 1.62 2.19.86 3.5-.87 1.5-2.39 2.55-3.86 1.7-1.48-.85-1.34-2.7-.47-4.2zm-16.53-1c1.4-.81 2.7-.31 3.46 1 .87 1.5 1.01 3.35-.46 4.2-1.48.85-3-.2-3.87-1.7-.76-1.31-.54-2.68.87-3.5zm5.42-6.26c2.24-.6 3.2.4 3.85 2.77l.08.31c.56 2.07-.16 4.19-1.86 4.64-1.7.46-3.38-1.01-3.93-3.08-.73-2.72-.51-4 1.86-4.64zm5.39 3.08c.72-2.72 1.56-3.72 3.93-3.08 2.24.6 2.57 1.94 1.95 4.32l-.09.32c-.55 2.07-2.23 3.54-3.93 3.08-1.7-.45-2.42-2.57-1.86-4.64z"/>
</svg>
