<svg xmlns="http://www.w3.org/2000/svg" width="24" height="24" viewBox="0 0 24 24">
  <path d="M18 14c2.68 0 4 1.51 4 3.5v.5c0 1.05-.95 2-2 2h-5a1 1 0 0 1-.44-.1l-.07.02-.15.04-.16.03L14 20H4c-1.35 0-1.94-.68-2-1.77v-.73c0-2.43 2.16-3.4 5.5-3.5H10zm-8 2H7.8c-2.42.03-3.7.54-3.8 1.4v.6h9.97c-.02 0 .01-.03.03-.02V18v-.6c-.07-.84-1.37-1.36-3.73-1.4H10zm8 0h-2.2l.03.06c.1.23.15.49.17.77V18h4v-.5c0-.94-.49-1.5-2-1.5zM17 6a3 3 0 1 1 0 6 3 3 0 0 1 0-6zM9 4a4 4 0 1 1 0 8 4 4 0 0 1 0-8zm8 4a1 1 0 1 0 0 2 1 1 0 0 0 0-2zM9 6a2 2 0 1 0 0 4 2 2 0 0 0 0-4z"/>
</svg>
