<svg xmlns="http://www.w3.org/2000/svg" width="24" height="24" viewBox="0 0 24 24">
  <path d="M10,16 C12.9230769,16 15.8461538,16.9493754 15.9941334,19.3106425 L16,19.5 L16,20.5 C16,20.975 16,21.90125 15.142625,21.9926875 L15,22 L3,22 C2.1,22 2.01,21.19 2.001,20.6635 L2,19.5 C2,17.0641026 4.84812623,16.0522682 7.76928134,16.0019808 L8,16 L10,16 Z M9,6 C11.209139,6 13,7.790861 13,10 C13,12.209139 11.209139,14 9,14 C6.790861,14 5,12.209139 5,10 C5,7.790861 6.790861,6 9,6 Z M21,6 C21.5522847,6 22,6.44771525 22,7 C22,7.51283584 21.6139598,7.93550716 21.1166211,7.99327227 L21,8 L15,8 C14.4477153,8 14,7.55228475 14,7 C14,6.48716416 14.3860402,6.06449284 14.8833789,6.00672773 L15,6 L21,6 Z M21,2 C21.5522847,2 22,2.44771525 22,3 C22,3.51283584 21.6139598,3.93550716 21.1166211,3.99327227 L21,4 L15,4 C14.4477153,4 14,3.55228475 14,3 C14,2.48716416 14.3860402,2.06449284 14.8833789,2.00672773 L15,2 L21,2 Z"/>
</svg>
