<svg xmlns="http://www.w3.org/2000/svg" width="24" height="24" viewBox="0 0 24 24">
  <path d="M10.4676228,16.0003645 L11.0076763,16.0057544 C14.4141691,16.0682088 15.80903,16.6867426 15.9842893,19.0917479 L15.9953786,19.2802927 L16,19.5 L16,20.5 C16,20.7383924 15.9971539,20.817813 15.9690676,20.9648045 C15.9064905,21.2923056 15.7318635,21.5826456 15.4244325,21.7746571 C15.1451825,21.9490675 14.9786076,21.9883117 14.4919729,21.9973073 L14,22 L4,22 L3.65107363,21.9952256 C2.49782794,21.9601842 2.04900063,21.7156474 2.0039004,20.7255244 L2.00017148,20.5789484 L2,19.5 C2,16.7811217 3.40027757,16.074116 6.99322939,16.0059404 L7.53477183,16.0003645 L10.4676228,16.0003645 Z M7.53716646,18.0003616 C4.63739326,18.0073055 4.03538181,18.220675 4.00155904,19.3876232 L3.99999999,19.4998411 L3.999,20 L14,20 L14.0002452,19.5221452 L13.9966548,19.3478329 C13.9474604,18.265257 13.4009903,18.0221242 10.7281847,18.0016669 L7.53716646,18.0003616 Z M9,6 C11.209139,6 13,7.790861 13,10 C13,12.209139 11.209139,14 9,14 C6.790861,14 5,12.209139 5,10 C5,7.790861 6.790861,6 9,6 Z M9,8 C7.8954305,8 7,8.8954305 7,10 C7,11.1045695 7.8954305,12 9,12 C10.1045695,12 11,11.1045695 11,10 C11,8.8954305 10.1045695,8 9,8 Z M21.1616337,3.25016214 C21.543902,3.58745772 21.6069605,4.15185442 21.327,4.5624086 L21.2498499,4.66162164 L17.7204382,8.66162164 C17.3507811,9.08056628 16.7177952,9.11049089 16.3105198,8.75139549 L16.2207624,8.66162164 L14.7501742,6.99495497 C14.3847707,6.58083096 14.4242664,5.94889902 14.8383904,5.58349548 C15.2206588,5.2461999 15.7885149,5.25390727 16.1610152,5.5828086 L16.2498499,5.6717117 L16.9700121,6.488 L19.7501742,3.33837836 C20.1155778,2.92425435 20.7475097,2.8847586 21.1616337,3.25016214 Z"/>
</svg>
