<svg xmlns="http://www.w3.org/2000/svg" width="24" height="24" viewBox="0 0 24 24">
  <path d="M18 1a3 3 0 0 1 3 3v16.89A1.5 1.5 0 0 1 18.5 22l-1.44-1.28-1.47 1.56a1.5 1.5 0 0 1-2 .17l-.12-.1a4.53 4.53 0 0 1-.02-.02L12 20.8l-1.4 1.5a1.5 1.5 0 0 1-2 .16l-.13-.1a4.53 4.53 0 0 1-.02-.02l-1.51-1.61L5.5 22a1.5 1.5 0 0 1-2.01-.02l-.11-.1a1.5 1.5 0 0 1-.38-1V4a3 3 0 0 1 3-3zm0 2H6a1 1 0 0 0-1 1v15.77l.97-.86a1.5 1.5 0 0 1 1.98-.01l.11.1 1.44 1.54 1.42-1.52.17-.15a1.5 1.5 0 0 1 2 .17l1.41 1.5L15.94 19a1.5 1.5 0 0 1 1.97-.19l.12.1.97.86V4a1 1 0 0 0-.88-1H18zm-2 10a1 1 0 0 1 .12 2H8a1 1 0 0 1-.12-2H16zm0-4a1 1 0 0 1 .12 2H8a1 1 0 0 1-.12-2H16zm0-4a1 1 0 0 1 .12 2H8a1 1 0 0 1-.12-2H16z"/>
</svg>
