<svg xmlns="http://www.w3.org/2000/svg" viewBox="0 0 24 24">
  <path d="M20 11a1 1 0 0 1 1 1 9 9 0 0 1-9 9 9.16 9.16 0 0 1-6-2.24V21a1 1 0 0 1-2 0v-5.02a1 1 0 0 1 0-.06V16a1 1 0 0 1 .07-.36v-.02a.8.8 0 0 1 .03-.06l.01-.02a1 1 0 0 1 .38-.4l.03-.02a1 1 0 0 1 .04-.02l.02-.01-.08.04a1 1 0 0 1 .38-.12h.03a1 1 0 0 1 .07-.01H10a1 1 0 0 1 0 2H7.04c1.3 1.25 3.08 2 4.96 2a7 7 0 0 0 7-7 1 1 0 0 1 1-1zm-1-9a1 1 0 0 1 1 1v5.03a1 1 0 0 1 0 .04V8a1 1 0 0 1-.07.36l-.01.04-.03.06v.01l-.02.02a1 1 0 0 1-.14.19l-.02.03a1 1 0 0 1-.22.16l.1-.06-.05.03a1 1 0 0 1-.03.02l-.02.01a1.02 1.02 0 0 1-.08.04l-.02.01h-.01l-.04.02a1 1 0 0 1-.03.01l-.03.01h-.02a1 1 0 0 1-.23.04H14a1 1 0 0 1 0-2h2.98A7.1 7.1 0 0 0 12 5a7 7 0 0 0-7 7 1 1 0 1 1-2 0 9 9 0 0 1 9-9c2.27 0 4.39.81 6 2.22V3a1 1 0 0 1 1-1z"/>
</svg>
