<svg xmlns="http://www.w3.org/2000/svg" viewBox="0 0 24 24">
  <path d="m2.21 18.62.08.09A1 1 0 0 1 2 18v-.02a1 1 0 0 1 0-.07V18a1 1 0 0 1 .3-.7l4-4a1 1 0 0 1 1.49 1.31l-.08.1L5.4 17H17a3 3 0 0 0 3-2.82V12a1 1 0 0 1 2-.12V14a5 5 0 0 1-4.78 5H5.4l2.3 2.3a1 1 0 0 1 .08 1.31l-.08.1a1 1 0 0 1-1.32.08l-.1-.08-4-4a1 1 0 0 1-.08-.1zM17.61 1.2l.1.08 4 4a1 1 0 0 1 .08.1l-.08-.1A1 1 0 0 1 22 6v.03a1 1 0 0 1 0 .06V6a1 1 0 0 1-.28.69l-.01.02-4 4a1 1 0 0 1-1.5-1.32l.08-.1L18.6 7H7a3 3 0 0 0-3 2.82V12a1 1 0 0 1-2 .12V10a5 5 0 0 1 4.78-5H18.6l-2.3-2.3a1 1 0 0 1-.08-1.31l.08-.1a1 1 0 0 1 1.32-.08z"/>
</svg>
