<svg xmlns="http://www.w3.org/2000/svg" width="24" height="24" viewBox="0 0 24 24">
  <path d="M12,1 C15.3333333,1 18.3333333,2 21,4 L21,13 C20.9981811,16.3304863 19.073592,19.5406076 16.0275,21.031 L12,23 L7.9725,21.031 C4.926408,19.5406076 3.00181891,16.3304863 3,13 L3,4 C5.66666667,2 8.66666667,1 12,1 Z M12.6128994,9.20970461 C12.2206082,8.90467972 11.6533772,8.93240926 11.2928932,9.29289322 L11.2928932,9.29289322 L8.29289322,12.2928932 L8.20970461,12.3871006 C7.90467972,12.7793918 7.93240926,13.3466228 8.29289322,13.7071068 L8.29289322,13.7071068 L8.38710056,13.7902954 C8.77939176,14.0953203 9.34662282,14.0675907 9.70710678,13.7071068 L9.70710678,13.7071068 L12,11.415 L14.2928932,13.7071068 L14.3871006,13.7902954 C14.7793918,14.0953203 15.3466228,14.0675907 15.7071068,13.7071068 C16.0976311,13.3165825 16.0976311,12.6834175 15.7071068,12.2928932 L15.7071068,12.2928932 L12.7071068,9.29289322 Z"/>
</svg>
