<svg xmlns="http://www.w3.org/2000/svg" viewBox="0 0 24 24">
  <path d="M12 1c3.33 0 6.33 1 9 3v9a9.03 9.03 0 0 1-4.97 8.03L12 23l-4.03-1.97A9.03 9.03 0 0 1 3 13V4c2.67-2 5.67-3 9-3zm3.78 10.38-.01-.02v.01l-.06-.08-3-3-.1-.08a1 1 0 0 0-1.32 1.5L12.6 11H8.88A1 1 0 0 0 9 13h3.59l-1.3 1.3-.08.09a1 1 0 0 0 1.5 1.32l3-3 .07-.08a3 3 0 0 0 .1-.15l.03-.06.02-.05a.95.95 0 0 0 .06-.22v-.13L16 12v-.09l-.01-.06a1.1 1.1 0 0 0-.06-.22l-.02-.05a1.04 1.04 0 0 0-.03-.06l-.03-.04a1.03 1.03 0 0 0-.05-.08l-.02-.03z"/>
</svg>
