<svg xmlns="http://www.w3.org/2000/svg" width="24" height="24" viewBox="0 0 24 24">
  <path d="M12 1c3.52 0 6.37.71 8.55 2.17A1 1 0 0 1 21 4v8.91a9.23 9.23 0 0 1-4.97 8.2l-3.58 1.78a1 1 0 0 1-.9 0L7.97 21.1A9.23 9.23 0 0 1 3 12.9V4a1 1 0 0 1 .45-.83C5.63 1.7 8.48 1 12 1zm0 2c-2.85 0-5.15.5-6.9 1.5l-.1.05v8.36c0 2.6 1.43 5.07 3.64 6.28l.23.13L12 20.88l3.13-1.56A7.22 7.22 0 0 0 19 13.18l.01-.27V4.56l-.1-.06c-1.66-.94-3.81-1.45-6.45-1.5zm-1.39 6.21.1.08L12 10.6l1.3-1.3a1 1 0 0 1 1.49 1.32l-.08.1L13.4 12l1.3 1.3a1 1 0 0 1-1.32 1.49l-.1-.08L12 13.4l-1.3 1.3a1 1 0 0 1-1.49-1.32l.08-.1L10.6 12l-1.3-1.3a1 1 0 0 1 1.32-1.49z"/>
</svg>
