<svg xmlns="http://www.w3.org/2000/svg" width="24" height="24" viewBox="0 0 24 24">
  <path d="M16,2 C16.5128358,2 16.9355072,2.38604019 16.9932723,2.88337887 L17,3 L17,21 C17,21.5522847 16.5522847,22 16,22 C15.4871642,22 15.0644928,21.6139598 15.0067277,21.1166211 L15,21 L15.0004165,12.6679456 C14.9495456,12.7246248 14.8922773,12.7754059 14.8296687,12.8192319 L7.57346234,17.8985764 C7.12101305,18.2152909 6.49748259,18.1052561 6.18076808,17.6528068 C6.0631096,17.4847232 6,17.2845165 6,17.0793444 L6,6.92065556 C6,6.36837081 6.44771525,5.92065556 7,5.92065556 C7.2051721,5.92065556 7.40537881,5.98376517 7.57346234,6.10142364 L14.8296687,11.1807681 C14.8940757,11.225853 14.951544,11.2771552 15.0018303,11.3332963 L15,3 C15,2.44771525 15.4477153,2 16,2 Z" transform="matrix(-1 0 0 1 23 0)"/>
</svg>
