<svg xmlns="http://www.w3.org/2000/svg" width="24" height="24" viewBox="0 0 24 24">
  <path d="M12 20.45a4 4 0 0 1-2.53-1c-.4-.34-.87-.58-1.38-.71-.7-.04-1.4.01-2.09.16a.26.26 0 0 1-.29-.21c-.18-.75-.23-1-.35-1C4 17.51 3.19 17.2 3 16.83c-.19-.37 0-.32.15-.34 1.12-.2 2.14-.8 2.85-1.68.4-.45.74-.95 1-1.5a1 1 0 0 0 .1-.82c-.17-.41-.75-.59-1.38-.8-.34-.13-.89-.41-.82-.8.07-.39.43-.48.95-.44.28.14.6.23.91.24.19.01.38-.04.53-.16-.22-1.39-.16-2.8.18-4.17A4.79 4.79 0 0 1 12 3.55a4.79 4.79 0 0 1 4.56 2.82c.34 1.36.4 2.78.18 4.17.15.12.33.17.52.16.32-.01.63-.1.91-.24.52 0 .9.15 1 .44.1.29-.48.67-.82.8-.63.21-1.21.39-1.38.8a1 1 0 0 0 .1.82c.26.55.6 1.05 1 1.5.7.88 1.7 1.48 2.82 1.68.11 0 .19.11.15.34-.04.23-1 .67-2.3.88-.12 0-.18.22-.35 1a.26.26 0 0 1-.29.21 7.61 7.61 0 0 0-2.12-.11c-.5.13-.98.37-1.38.71a4 4 0 0 1-2.53 1l-.07-.08z"/>
</svg>
