<svg xmlns="http://www.w3.org/2000/svg" width="24" height="24" viewBox="0 0 24 24">
  <path d="M15,17 L15.1166211,17.0067277 C15.6139598,17.0644928 16,17.4871642 16,18 C16,18.5522847 15.5522847,19 15,19 L15,19 L9,19 L8.88337887,18.9932723 C8.38604019,18.9355072 8,18.5128358 8,18 C8,17.4477153 8.44771525,17 9,17 L9,17 L15,17 Z M18,11 L18.1166211,11.0067277 C18.6139598,11.0644928 19,11.4871642 19,12 C19,12.5522847 18.5522847,13 18,13 L18,13 L6,13 L5.88337887,12.9932723 C5.38604019,12.9355072 5,12.5128358 5,12 C5,11.4477153 5.44771525,11 6,11 L6,11 L18,11 Z M21,5 L21.1166211,5.00672773 C21.6139598,5.06449284 22,5.48716416 22,6 C22,6.55228475 21.5522847,7 21,7 L21,7 L3,7 L2.88337887,6.99327227 C2.38604019,6.93550716 2,6.51283584 2,6 C2,5.44771525 2.44771525,5 3,5 L3,5 L21,5 Z" transform="matrix(1 0 0 -1 0 24)"/>
</svg>
