<svg xmlns="http://www.w3.org/2000/svg" width="24" height="24" viewBox="0 0 24 24">
  <path d="M15,3 C19.5522847,3 23,6.44771525 23,11 C23,15.5522847 19.5522847,19 15,19 L15,19 L14.492,19 L14.4215793,19.0906275 C13.7103901,19.9663638 12.948642,20.6393906 11.8907103,21.256749 L11.8907103,21.256749 L11.5946555,21.4238497 L11.2369286,21.6140163 L10.9086251,21.7821926 C9.57755795,22.4597178 8,21.4937799 8,20 L8,20 L8,19 C4.27285013,19 1,15.3634999 1,11 C1,6.5377729 4.49099359,3 9,3 L9,3 Z M15,5 L9,5 C5.60156611,5 3,7.6364271 3,11 C3,14.3031668 5.42714987,17 8,17 L8,17 L9,17 C9.55228475,17 10,17.4477153 10,18 L10,18 L10,19.999 L10.3113445,19.8411503 L10.6455572,19.6634269 C11.7740931,19.0468761 12.4641772,18.4017399 13.194037,17.4080341 C13.3824481,17.1515119 13.6817197,17 14,17 L14,17 L15,17 C18.4477153,17 21,14.4477153 21,11 C21,7.55228475 18.4477153,5 15,5 L15,5 Z M15.1616337,8.25016214 C15.543902,8.58745772 15.6069605,9.15185442 15.327,9.5624086 L15.2498499,9.66162164 L11.7204382,13.6616216 C11.3507811,14.0805663 10.7177952,14.1104909 10.3105198,13.7513955 L10.2207624,13.6616216 L8.75017421,11.994955 C8.38477067,11.580831 8.42426642,10.948899 8.83839043,10.5834955 C9.22065875,10.2461999 9.78851489,10.2539073 10.1610152,10.5828086 L10.2498499,10.6717117 L10.9700121,11.488 L13.7501742,8.33837836 C14.1155778,7.92425435 14.7475097,7.8847586 15.1616337,8.25016214 Z"/>
</svg>
