<svg xmlns="http://www.w3.org/2000/svg" width="24" height="24" viewBox="0 0 24 24">
  <path d="M15,3 C19.5522847,3 23,6.44771525 23,11 C23,15.5522847 19.5522847,19 15,19 L15,19 L14.492,19 L14.4215793,19.0906275 C13.7103901,19.9663638 12.948642,20.6393906 11.8907103,21.256749 L11.8907103,21.256749 L11.5946555,21.4238497 L11.2369286,21.6140163 L10.9086251,21.7821926 C9.57755795,22.4597178 8,21.4937799 8,20 L8,20 L8,19 C4.27285013,19 1,15.3634999 1,11 C1,6.5377729 4.49099359,3 9,3 L9,3 Z M11.6128994,7.20970461 C11.2206082,6.90467972 10.6533772,6.93240926 10.2928932,7.29289322 L10.2928932,7.29289322 L10.2097046,7.38710056 C9.90467972,7.77939176 9.93240926,8.34662282 10.2928932,8.70710678 L10.2928932,8.70710678 L12.585,11 L10.2928932,13.2928932 L10.2097046,13.3871006 C9.90467972,13.7793918 9.93240926,14.3466228 10.2928932,14.7071068 C10.6834175,15.0976311 11.3165825,15.0976311 11.7071068,14.7071068 L11.7071068,14.7071068 L14.7071068,11.7071068 L14.7902954,11.6128994 C15.0953203,11.2206082 15.0675907,10.6533772 14.7071068,10.2928932 L14.7071068,10.2928932 L11.7071068,7.29289322 Z"/>
</svg>
