<svg xmlns="http://www.w3.org/2000/svg" width="24" height="24" viewBox="0 0 24 24">
  <g fill="none" fill-rule="evenodd">
    <path fill="#000" fill-opacity=".2" fill-rule="nonzero" d="M12,0 C5.373,0 0,5.373 0,12 C0,18.627 5.373,24 12,24 C18.627,24 24,18.627 24,12 C24,5.373 18.627,0 12,0 Z M12,2 C17.523,2 22,6.477 22,12 C22,17.523 17.523,22 12,22 C6.477,22 2,17.523 2,12 C2,6.477 6.477,2 12,2 Z"/>
    <path fill="#000" fill-rule="nonzero" d="M12,0 C18.627,0 24,5.373 24,12 C24,12.5522847 23.5522847,13 23,13 C22.4477153,13 22,12.5522847 22,12 C22,6.477 17.523,2 12,2 C11.4477153,2 11,1.55228475 11,1 C11,0.44771525 11.4477153,0 12,0 Z"/>
  </g>
</svg>
