<svg width="0" height="0" style="position:absolute"><symbol viewBox="0 0 24 24" id="24--arrow"><path fill="none" stroke="currentColor" stroke-linecap="round" stroke-linejoin="round" stroke-width="2" d="M20 12H4m0 0l5.657 5.657M4 12l5.657-5.657"/></symbol><symbol viewBox="0 0 24 24" id="24--arrow-bottom-left"><path fill="none" stroke="currentColor" stroke-linecap="round" stroke-linejoin="round" stroke-width="2" d="M19 5L5 19m0 0h8m-8 0v-8"/></symbol><symbol viewBox="0 0 24 24" id="24--arrow-bottom-right"><path fill="none" stroke="currentColor" stroke-linecap="round" stroke-linejoin="round" stroke-width="2" d="M5 5l14 14m0 0v-8m0 8h-8"/></symbol><symbol viewBox="0 0 24 24" id="24--arrow-box"><path fill="none" stroke="currentColor" stroke-linecap="round" stroke-linejoin="round" stroke-width="2" d="M12 3L7.757 7.243M12 3l4.242 4.243M12 15V3m3.429 8H18v10H6V11h2.571"/></symbol><symbol viewBox="0 0 24 24" id="24--arrow-box-bottom-left"><path fill="none" stroke="currentColor" stroke-linecap="round" stroke-linejoin="round" stroke-width="2" d="M13 11l-9 9m0 0v-6m0 6h6m3-4h6V4H7v8"/></symbol><symbol viewBox="0 0 24 24" id="24--arrow-box-bottom-right"><path fill="none" stroke="currentColor" stroke-linecap="round" stroke-linejoin="round" stroke-width="2" d="M11 11l9 9m0 0v-8m0 8h-8m-1-4H5V4h12v8"/></symbol><symbol viewBox="0 0 24 24" id="24--arrow-box-down"><path fill="none" stroke="currentColor" stroke-linecap="round" stroke-linejoin="round" stroke-width="2" d="M12 21l-4.243-4.243M12 21l4.242-4.243M12 9v12m3.429-8H18V3H6v10h2.571"/></symbol><symbol viewBox="0 0 24 24" id="24--arrow-box-left"><path fill="none" stroke="currentColor" stroke-linecap="round" stroke-linejoin="round" stroke-width="2" d="M3 12l4.243-4.243M3 12l4.243 4.242M15 12H3m8 3.429V18h10V6H11v2.571"/></symbol><symbol viewBox="0 0 24 24" id="24--arrow-box-right"><path fill="none" stroke="currentColor" stroke-linecap="round" stroke-linejoin="round" stroke-width="2" d="M21 12l-4.243-4.243M21 12l-4.243 4.242M9 12h12m-8 3.429V18H3V6h10v2.571"/></symbol><symbol viewBox="0 0 24 24" id="24--arrow-box-top-left"><path fill="none" stroke="currentColor" stroke-linecap="round" stroke-linejoin="round" stroke-width="2" d="M13 13L4 4m0 0v6m0-6h6m3 4h6v12H7v-8"/></symbol><symbol viewBox="0 0 24 24" id="24--arrow-box-top-right"><path fill="none" stroke="currentColor" stroke-linecap="round" stroke-linejoin="round" stroke-width="2" d="M11 13l9-9m0 0v6m0-6h-6m-3 4H5v12h12v-8"/></symbol><symbol viewBox="0 0 24 24" id="24--arrow-box-up"><path fill="none" stroke="currentColor" stroke-linecap="round" stroke-linejoin="round" stroke-width="2" d="M12 3L7.757 7.243M12 3l4.242 4.243M12 15V3m3.429 8H18v10H6V11h2.571"/></symbol><symbol viewBox="0 0 24 24" id="24--arrow-down"><path fill="none" stroke="currentColor" stroke-linecap="round" stroke-linejoin="round" stroke-width="2" d="M12 4v16m0 0l5.657-5.657M12 20l-5.657-5.657"/></symbol><symbol viewBox="0 0 24 24" id="24--arrow-left"><path fill="none" stroke="currentColor" stroke-linecap="round" stroke-linejoin="round" stroke-width="2" d="M20 12H4m0 0l5.657 5.657M4 12l5.657-5.657"/></symbol><symbol viewBox="0 0 24 24" id="24--arrow-long"><path fill="none" stroke="currentColor" stroke-linecap="round" stroke-linejoin="round" stroke-width="2" d="M22 12H2m0 0l5.657 5.657M2 12l5.657-5.657"/></symbol><symbol viewBox="0 0 24 24" id="24--arrow-long-bottom-left"><path fill="none" stroke="currentColor" stroke-linecap="round" stroke-linejoin="round" stroke-width="2" d="M21 3L3 21m0 0h8m-8 0v-8"/></symbol><symbol viewBox="0 0 24 24" id="24--arrow-long-bottom-right"><path fill="none" stroke="currentColor" stroke-linecap="round" stroke-linejoin="round" stroke-width="2" d="M3 3l18 18m0 0v-8m0 8h-8"/></symbol><symbol viewBox="0 0 24 24" id="24--arrow-long-down"><path fill="none" stroke="currentColor" stroke-linecap="round" stroke-linejoin="round" stroke-width="2" d="M12 2v20m0 0l5.657-5.657M12 22l-5.657-5.657"/></symbol><symbol viewBox="0 0 24 24" id="24--arrow-long-left"><path fill="none" stroke="currentColor" stroke-linecap="round" stroke-linejoin="round" stroke-width="2" d="M22 12H2m0 0l5.657 5.657M2 12l5.657-5.657"/></symbol><symbol viewBox="0 0 24 24" id="24--arrow-long-right"><path fill="none" stroke="currentColor" stroke-linecap="round" stroke-linejoin="round" stroke-width="2" d="M2 12h20m0 0l-5.657-5.657M22 12l-5.657 5.657"/></symbol><symbol viewBox="0 0 24 24" id="24--arrow-long-top-left"><path fill="none" stroke="currentColor" stroke-linecap="round" stroke-linejoin="round" stroke-width="2" d="M21 21L3 3m0 0v8m0-8h8"/></symbol><symbol viewBox="0 0 24 24" id="24--arrow-long-top-right"><path fill="none" stroke="currentColor" stroke-linecap="round" stroke-linejoin="round" stroke-width="2" d="M3 21L21 3m0 0v8m0-8h-8"/></symbol><symbol viewBox="0 0 24 24" id="24--arrow-long-up"><path fill="none" stroke="currentColor" stroke-linecap="round" stroke-linejoin="round" stroke-width="2" d="M12 22V2m0 0L6.343 7.657M12 2l5.657 5.657"/></symbol><symbol viewBox="0 0 24 24" id="24--arrow-right"><path fill="none" stroke="currentColor" stroke-linecap="round" stroke-linejoin="round" stroke-width="2" d="M4 12h16m0 0l-5.657-5.657M20 12l-5.657 5.657"/></symbol><symbol viewBox="0 0 24 24" id="24--arrow-short"><path fill="none" stroke="currentColor" stroke-linecap="round" stroke-linejoin="round" stroke-width="2" d="M18 12H6m0 0l5.657 5.657M6 12l5.657-5.657"/></symbol><symbol viewBox="0 0 24 24" id="24--arrow-short-bottom-left"><path fill="none" stroke="currentColor" stroke-linecap="round" stroke-linejoin="round" stroke-width="2" d="M16 8l-9 9m0 0h8m-8 0V9"/></symbol><symbol viewBox="0 0 24 24" id="24--arrow-short-bottom-right"><path fill="none" stroke="currentColor" stroke-linecap="round" stroke-linejoin="round" stroke-width="2" d="M8 8l9 9m0 0V9m0 8H9"/></symbol><symbol viewBox="0 0 24 24" id="24--arrow-short-down"><path fill="none" stroke="currentColor" stroke-linecap="round" stroke-linejoin="round" stroke-width="2" d="M12 18l5.657-5.657M12 18l-5.657-5.657M12 6v12"/></symbol><symbol viewBox="0 0 24 24" id="24--arrow-short-left"><path fill="none" stroke="currentColor" stroke-linecap="round" stroke-linejoin="round" stroke-width="2" d="M18 12H6m0 0l5.657 5.657M6 12l5.657-5.657"/></symbol><symbol viewBox="0 0 24 24" id="24--arrow-short-right"><path fill="none" stroke="currentColor" stroke-linecap="round" stroke-linejoin="round" stroke-width="2" d="M18 12l-5.657-5.657M18 12l-5.657 5.657M6 12h12"/></symbol><symbol viewBox="0 0 24 24" id="24--arrow-short-top-left"><path fill="none" stroke="currentColor" stroke-linecap="round" stroke-linejoin="round" stroke-width="2" d="M16 16L7 7m0 0v8m0-8h8"/></symbol><symbol viewBox="0 0 24 24" id="24--arrow-short-top-right"><path fill="none" stroke="currentColor" stroke-linecap="round" stroke-linejoin="round" stroke-width="2" d="M8 16l9-9m0 0v8m0-8H9"/></symbol><symbol viewBox="0 0 24 24" id="24--arrow-short-up"><path fill="none" stroke="currentColor" stroke-linecap="round" stroke-linejoin="round" stroke-width="2" d="M12 6l-5.657 5.657M12 6l5.657 5.657M12 18V6"/></symbol><symbol viewBox="0 0 24 24" id="24--arrow-top-left"><path fill="none" stroke="currentColor" stroke-linecap="round" stroke-linejoin="round" stroke-width="2" d="M19 19L5 5m0 0v8m0-8h8"/></symbol><symbol viewBox="0 0 24 24" id="24--arrow-top-right"><path fill="none" stroke="currentColor" stroke-linecap="round" stroke-linejoin="round" stroke-width="2" d="M5 19L19 5m0 0v8m0-8h-8"/></symbol><symbol viewBox="0 0 24 24" id="24--arrow-up"><path fill="none" stroke="currentColor" stroke-linecap="round" stroke-linejoin="round" stroke-width="2" d="M12 20V4m0 0L6.343 9.657M12 4l5.657 5.657"/></symbol><symbol viewBox="0 0 24 24" id="24--arrow-wide"><path fill="none" stroke="currentColor" stroke-linecap="round" stroke-linejoin="round" stroke-width="2" d="M22 12H2m0 0l8.485 8.486M2 12l8.485-8.485"/></symbol><symbol viewBox="0 0 24 24" id="24--arrow-wide-bottom-left"><path fill="none" stroke="currentColor" stroke-linecap="round" stroke-linejoin="round" stroke-width="2" d="M21 3L3 21m0 0h12M3 21V9"/></symbol><symbol viewBox="0 0 24 24" id="24--arrow-wide-bottom-right"><path fill="none" stroke="currentColor" stroke-linecap="round" stroke-linejoin="round" stroke-width="2" d="M3 3l18 18m0 0V9m0 12H9"/></symbol><symbol viewBox="0 0 24 24" id="24--arrow-wide-down"><path fill="none" stroke="currentColor" stroke-linecap="round" stroke-linejoin="round" stroke-width="2" d="M12 2v20m0 0l8.486-8.485M12 22l-8.485-8.485"/></symbol><symbol viewBox="0 0 24 24" id="24--arrow-wide-left"><path fill="none" stroke="currentColor" stroke-linecap="round" stroke-linejoin="round" stroke-width="2" d="M22 12H2m0 0l8.485 8.486M2 12l8.485-8.485"/></symbol><symbol viewBox="0 0 24 24" id="24--arrow-wide-right"><path fill="none" stroke="currentColor" stroke-linecap="round" stroke-linejoin="round" stroke-width="2" d="M2 12h20m0 0l-8.485-8.485M22 12l-8.485 8.486"/></symbol><symbol viewBox="0 0 24 24" id="24--arrow-wide-top-left"><path fill="none" stroke="currentColor" stroke-linecap="round" stroke-linejoin="round" stroke-width="2" d="M21 21L3 3m0 0v12M3 3h12"/></symbol><symbol viewBox="0 0 24 24" id="24--arrow-wide-top-right"><path fill="none" stroke="currentColor" stroke-linecap="round" stroke-linejoin="round" stroke-width="2" d="M3 21L21 3m0 0H9m12 0v12"/></symbol><symbol viewBox="0 0 24 24" id="24--arrow-wide-up"><path fill="none" stroke="currentColor" stroke-linecap="round" stroke-linejoin="round" stroke-width="2" d="M12 22V2m0 0l-8.485 8.485M12 2l8.486 8.485"/></symbol><symbol viewBox="0 0 24 24" id="24--arrows"><path fill="none" stroke="currentColor" stroke-linecap="round" stroke-linejoin="round" stroke-width="2" d="M20 6H4m0 0l4 4M4 6l4-4m12 16H4m0 0l4 4m-4-4l4-4"/></symbol><symbol viewBox="0 0 24 24" id="24--arrows-down"><path fill="none" stroke="currentColor" stroke-linecap="round" stroke-linejoin="round" stroke-width="2" d="M18 4v16m0 0l-4-4m4 4l4-4M6 4v16m0 0l-4-4m4 4l4-4"/></symbol><symbol viewBox="0 0 24 24" id="24--arrows-down-up"><path fill="none" stroke="currentColor" stroke-linecap="round" stroke-linejoin="round" stroke-width="2" d="M18 20V4m0 0l-4 4m4-4l4 4M6 4v16m0 0l-4-4m4 4l4-4"/></symbol><symbol viewBox="0 0 24 24" id="24--arrows-left"><path fill="none" stroke="currentColor" stroke-linecap="round" stroke-linejoin="round" stroke-width="2" d="M20 6H4m0 0l4 4M4 6l4-4m12 16H4m0 0l4 4m-4-4l4-4"/></symbol><symbol viewBox="0 0 24 24" id="24--arrows-left-right"><path fill="none" stroke="currentColor" stroke-linecap="round" stroke-linejoin="round" stroke-width="2" d="M20 6H4m0 0l4 4M4 6l4-4M4 18h16m0 0l-4 4m4-4l-4-4"/></symbol><symbol viewBox="0 0 24 24" id="24--arrows-right"><path fill="none" stroke="currentColor" stroke-linecap="round" stroke-linejoin="round" stroke-width="2" d="M4 6h16m0 0l-4 4m4-4l-4-4M4 18h16m0 0l-4 4m4-4l-4-4"/></symbol><symbol viewBox="0 0 24 24" id="24--arrows-right-left"><path fill="none" stroke="currentColor" stroke-linecap="round" stroke-linejoin="round" stroke-width="2" d="M4 6h16m0 0l-4 4m4-4l-4-4m4 16H4m0 0l4 4m-4-4l4-4"/></symbol><symbol viewBox="0 0 24 24" id="24--arrows-up"><path fill="none" stroke="currentColor" stroke-linecap="round" stroke-linejoin="round" stroke-width="2" d="M18 20V4m0 0l-4 4m4-4l4 4M6 20V4m0 0L2 8m4-4l4 4"/></symbol><symbol viewBox="0 0 24 24" id="24--arrows-up-down"><path fill="none" stroke="currentColor" stroke-linecap="round" stroke-linejoin="round" stroke-width="2" d="M18 4v16m0 0l-4-4m4 4l4-4M6 20V4m0 0L2 8m4-4l4 4"/></symbol><symbol viewBox="0 0 24 24" id="24--calendar"><path d="M17 11H7v2h10v-2zm2-7h-1V2h-2v2H8V2H6v2H5c-1.11 0-1.99.9-1.99 2L3 20a2 2 0 002 2h14c1.1 0 2-.9 2-2V6c0-1.1-.9-2-2-2zm0 16H5V9h14v11zm-5-5H7v2h7v-2z"/></symbol><symbol viewBox="0 0 24 24" id="24--check"><path fill="none" stroke="currentColor" stroke-linecap="round" stroke-linejoin="round" stroke-width="2" d="M4 13l4.706 5L20 6"/></symbol><symbol viewBox="0 0 24 24" id="24--check-circle"><path d="M12 1c6.075 0 11 4.925 11 11s-4.925 11-11 11S1 18.075 1 12 5.925 1 12 1zm5.662 6.25a1 1 0 00-1.412.088l-6.309 7.15-2.191-2.483-.089-.089a1 1 0 00-1.41 1.412l2.94 3.334.09.09a1 1 0 001.41-.09l7.059-8 .077-.1a1 1 0 00-.165-1.312z"/></symbol><symbol viewBox="0 0 24 24" id="24--check-circle-border"><g fill="none" fill-rule="evenodd" stroke="currentColor" stroke-linecap="round" stroke-linejoin="round" stroke-width="2" transform="translate(2 2)"><circle cx="10" cy="10" r="10"/><path d="M5 10.667L7.941 14 15 6"/></g></symbol><symbol viewBox="0 0 24 24" id="24--check-hexagon"><path d="M17 2l6 10-6 10H7L1 12 7 2h10zm-.315 6.272a1 1 0 00-1.413.043l-4.92 5.225-1.624-1.725-.091-.086a1 1 0 00-1.365 1.456l2.353 2.5.088.084a1 1 0 001.368-.084l5.647-6 .08-.096a1 1 0 00-.123-1.317z"/></symbol><symbol viewBox="0 0 24 24" id="24--check-hexagon-border"><g fill="none" fill-rule="evenodd" stroke="currentColor" stroke-linecap="round" stroke-linejoin="round" stroke-width="2"><path d="M22 12l-5 9H7l-5-9 5-9h10z"/><path d="M8 12.5l2.353 2.5L16 9"/></g></symbol><symbol viewBox="0 0 24 24" id="24--check-large"><path fill="none" stroke="currentColor" stroke-linecap="round" stroke-linejoin="round" stroke-width="2" d="M2 13.75L7.882 20 22 5"/></symbol><symbol viewBox="0 0 24 24" id="24--check-rounded"><path d="M18 2a4 4 0 014 4v12a4 4 0 01-4 4H6a4 4 0 01-4-4V6a4 4 0 014-4h12zm-.338 5.25a1 1 0 00-1.412.088l-6.309 7.15-2.191-2.483-.089-.089a1 1 0 00-1.41 1.412l2.94 3.334.09.09a1 1 0 001.41-.09l7.059-8 .077-.1a1 1 0 00-.165-1.312z"/></symbol><symbol viewBox="0 0 24 24" id="24--check-rounded-border"><g fill="none" fill-rule="evenodd" stroke="currentColor" stroke-linecap="round" stroke-linejoin="round" stroke-width="2" transform="translate(3 3)"><rect width="18" height="18" rx="4"/><path d="M4 9.667L6.941 13 14 5"/></g></symbol><symbol viewBox="0 0 24 24" id="24--check-small"><path fill="none" stroke="currentColor" stroke-linecap="round" stroke-linejoin="round" stroke-width="2" d="M6 13.25L9.529 17 18 8"/></symbol><symbol viewBox="0 0 24 24" id="24--check-square"><path d="M22 2v20H2V2h20zm-4.338 5.25a1 1 0 00-1.412.088l-6.309 7.15-2.191-2.483-.089-.089a1 1 0 00-1.41 1.412l2.94 3.334.09.09a1 1 0 001.41-.09l7.059-8 .077-.1a1 1 0 00-.165-1.312z"/></symbol><symbol viewBox="0 0 24 24" id="24--check-square-border"><g fill="none" fill-rule="evenodd" stroke="currentColor" stroke-linecap="round" stroke-linejoin="round" stroke-width="2"><path d="M3 3h18v18H3z"/><path d="M7 12.667L9.941 16 17 8"/></g></symbol><symbol viewBox="0 0 24 24" id="24--check-triangle"><path d="M12 2l11 20H1L12 2zm2.662 10.25a1 1 0 00-1.412.088l-2.78 3.15-.72-.816-.089-.09a1 1 0 00-1.41 1.413l1.47 1.667.09.09a1 1 0 001.41-.09l3.529-4 .077-.1a1 1 0 00-.165-1.312z"/></symbol><symbol viewBox="0 0 24 24" id="24--check-triangle-border"><g fill="none" fill-rule="evenodd" stroke="currentColor" stroke-linecap="round" stroke-linejoin="round" stroke-width="2"><path d="M12 3l10 18H2z"/><path d="M9 15.333L10.471 17 14 13"/></g></symbol><symbol viewBox="0 0 24 24" id="24--checked"><path d="M8.902 14.748L19.6 4.02l2.124 2.118L8.907 18.992l-2.124-2.118.001-.001-3.874-3.875 2.121-2.121z"/></symbol><symbol viewBox="0 0 24 24" id="24--chevron"><path fill="none" stroke="currentColor" stroke-linecap="round" stroke-linejoin="round" stroke-width="2" d="M9 11.657l5.657 5.657M9 11.657L14.657 6"/></symbol><symbol viewBox="0 0 24 24" id="24--chevron-bottom-left"><path fill="none" stroke="currentColor" stroke-linecap="round" stroke-linejoin="round" stroke-width="2" d="M8 16h8m-8 0V8"/></symbol><symbol viewBox="0 0 24 24" id="24--chevron-bottom-right"><path fill="none" stroke="currentColor" stroke-linecap="round" stroke-linejoin="round" stroke-width="2" d="M16 16V8m0 8H8"/></symbol><symbol viewBox="0 0 24 24" id="24--chevron-down"><path fill="none" stroke="currentColor" stroke-linecap="round" stroke-linejoin="round" stroke-width="2" d="M11.657 14.657L17.314 9m-5.657 5.657L6 9"/></symbol><symbol viewBox="0 0 24 24" id="24--chevron-left"><path fill="none" stroke="currentColor" stroke-linecap="round" stroke-linejoin="round" stroke-width="2" d="M9 11.657l5.657 5.657M9 11.657L14.657 6"/></symbol><symbol viewBox="0 0 24 24" id="24--chevron-right"><path fill="none" stroke="currentColor" stroke-linecap="round" stroke-linejoin="round" stroke-width="2" d="M14.657 11.657L9 6m5.657 5.657L9 17.314"/></symbol><symbol viewBox="0 0 24 24" id="24--chevron-top-left"><path fill="none" stroke="currentColor" stroke-linecap="round" stroke-linejoin="round" stroke-width="2" d="M8 8v8m0-8h8"/></symbol><symbol viewBox="0 0 24 24" id="24--chevron-top-right"><path fill="none" stroke="currentColor" stroke-linecap="round" stroke-linejoin="round" stroke-width="2" d="M16 8H8m8 0v8"/></symbol><symbol viewBox="0 0 24 24" id="24--chevron-up"><path fill="none" stroke="currentColor" stroke-linecap="round" stroke-linejoin="round" stroke-width="2" d="M11.657 9L6 14.657M11.657 9l5.657 5.657"/></symbol><symbol viewBox="0 0 24 24" id="24--chevron-wide"><path fill="none" stroke="currentColor" stroke-linecap="round" stroke-linejoin="round" stroke-width="2" d="M6 12l8.485 8.486M6 12l8.485-8.485"/></symbol><symbol viewBox="0 0 24 24" id="24--chevron-wide-bottom-left"><path fill="none" stroke="currentColor" stroke-linecap="round" stroke-linejoin="round" stroke-width="2" d="M6 18h12M6 18V6"/></symbol><symbol viewBox="0 0 24 24" id="24--chevron-wide-bottom-right"><path fill="none" stroke="currentColor" stroke-linecap="round" stroke-linejoin="round" stroke-width="2" d="M18 18V6m0 12H6"/></symbol><symbol viewBox="0 0 24 24" id="24--chevron-wide-down"><path fill="none" stroke="currentColor" stroke-linecap="round" stroke-linejoin="round" stroke-width="2" d="M12 17l8.486-8.485M12 17L3.515 8.515"/></symbol><symbol viewBox="0 0 24 24" id="24--chevron-wide-left"><path fill="none" stroke="currentColor" stroke-linecap="round" stroke-linejoin="round" stroke-width="2" d="M6 12l8.485 8.486M6 12l8.485-8.485"/></symbol><symbol viewBox="0 0 24 24" id="24--chevron-wide-right"><path fill="none" stroke="currentColor" stroke-linecap="round" stroke-linejoin="round" stroke-width="2" d="M17 12L8.515 3.515M17 12l-8.485 8.486"/></symbol><symbol viewBox="0 0 24 24" id="24--chevron-wide-top-left"><path fill="none" stroke="currentColor" stroke-linecap="round" stroke-linejoin="round" stroke-width="2" d="M7 7v12M7 7h12"/></symbol><symbol viewBox="0 0 24 24" id="24--chevron-wide-top-right"><path fill="none" stroke="currentColor" stroke-linecap="round" stroke-linejoin="round" stroke-width="2" d="M18 7H6m12 0v12"/></symbol><symbol viewBox="0 0 24 24" id="24--chevron-wide-up"><path fill="none" stroke="currentColor" stroke-linecap="round" stroke-linejoin="round" stroke-width="2" d="M12 7l-8.485 8.485M12 7l8.486 8.485"/></symbol><symbol viewBox="0 0 24 24" id="24--clipboard"><path d="M19 3h-4.18C14.4 1.84 13.3 1 12 1c-1.3 0-2.4.84-2.82 2H5c-1.1 0-2 .9-2 2v16c0 1.1.9 2 2 2h14c1.1 0 2-.9 2-2V5c0-1.1-.9-2-2-2zm-7 0c.55 0 1 .45 1 1s-.45 1-1 1-1-.45-1-1 .45-1 1-1zm7 18H5V5h2v3h10V5h2v16z"/></symbol><symbol viewBox="0 0 24 24" id="24--clock"><g fill="none" fill-rule="evenodd" stroke="currentColor" stroke-linecap="round" stroke-linejoin="round" stroke-width="2" transform="translate(2 2)"><circle cx="10" cy="10" r="10"/><path d="M10 15v-5l3-3"/></g></symbol><symbol viewBox="0 0 24 24" id="24--cog"><path d="M19.43 12.98c.04-.32.07-.64.07-.98 0-.34-.03-.66-.07-.98l2.11-1.65c.19-.15.24-.42.12-.64l-2-3.46a.503.503 0 00-.61-.22l-2.49 1c-.52-.4-1.08-.73-1.69-.98l-.38-2.65A.488.488 0 0014 2h-4c-.25 0-.46.18-.49.42l-.38 2.65c-.61.25-1.17.59-1.69.98l-2.49-1c-.23-.09-.49 0-.61.22l-2 3.46c-.13.22-.07.49.12.64l2.11 1.65c-.04.32-.07.65-.07.98 0 .33.03.66.07.98l-2.11 1.65c-.19.15-.24.42-.12.64l2 3.46c.12.22.39.3.61.22l2.49-1c.52.4 1.08.73 1.69.98l.38 2.65c.03.24.24.42.49.42h4c.25 0 .46-.18.49-.42l.38-2.65c.61-.25 1.17-.59 1.69-.98l2.49 1c.23.09.49 0 .61-.22l2-3.46c.12-.22.07-.49-.12-.64l-2.11-1.65zM12 15.5c-1.93 0-3.5-1.57-3.5-3.5s1.57-3.5 3.5-3.5 3.5 1.57 3.5 3.5-1.57 3.5-3.5 3.5z"/></symbol><symbol viewBox="0 0 24 24" id="24--cross"><path fill="none" stroke="currentColor" stroke-linecap="round" stroke-linejoin="round" stroke-width="2" d="M6 6l12 12M6 18L18 6"/></symbol><symbol viewBox="0 0 24 24" id="24--cross-circle"><path d="M12 1c6.075 0 11 4.925 11 11s-4.925 11-11 11S1 18.075 1 12 5.925 1 12 1zM8.613 7.21a1 1 0 00-1.32 1.497L10.585 12l-3.292 3.293-.083.094a1 1 0 001.497 1.32L12 13.415l3.293 3.292.094.083a1 1 0 001.32-1.497L13.415 12l3.292-3.293.083-.094a1 1 0 00-1.497-1.32L12 10.585 8.707 7.293z"/></symbol><symbol viewBox="0 0 24 24" id="24--cross-circle-border"><g fill="none" fill-rule="evenodd" stroke="currentColor" stroke-linecap="round" stroke-linejoin="round" stroke-width="2"><circle cx="12" cy="12" r="10"/><path d="M8 8l8 8m-8 0l8-8"/></g></symbol><symbol viewBox="0 0 24 24" id="24--cross-hexagon"><path d="M17 2l6 10-6 10H7L1 12 7 2h10zM9.613 8.21a1 1 0 00-1.32 1.497L10.585 12l-2.292 2.293-.083.094a1 1 0 001.497 1.32L12 13.415l2.293 2.292.094.083a1 1 0 001.32-1.497L13.415 12l2.292-2.293.083-.094a1 1 0 00-1.497-1.32L12 10.585 9.707 8.293z"/></symbol><symbol viewBox="0 0 24 24" id="24--cross-hexagon-border"><path fill="none" stroke="currentColor" stroke-linecap="round" stroke-linejoin="round" stroke-width="2" d="M22 12l-5 9H7l-5-9 5-9h10zM9 9l6 6m-6 0l6-6"/></symbol><symbol viewBox="0 0 24 24" id="24--cross-large"><path fill="none" stroke="currentColor" stroke-linecap="round" stroke-linejoin="round" stroke-width="2" d="M3 3l18 18M3 21L21 3"/></symbol><symbol viewBox="0 0 24 24" id="24--cross-rounded"><path d="M18 2a4 4 0 014 4v12a4 4 0 01-4 4H6a4 4 0 01-4-4V6a4 4 0 014-4h12zM8.613 7.21a1 1 0 00-1.32 1.497L10.585 12l-3.292 3.293-.083.094a1 1 0 001.497 1.32L12 13.415l3.293 3.292.094.083a1 1 0 001.32-1.497L13.415 12l3.292-3.293.083-.094a1 1 0 00-1.497-1.32L12 10.585 8.707 7.293z"/></symbol><symbol viewBox="0 0 24 24" id="24--cross-rounded-border"><g fill="none" fill-rule="evenodd" stroke="currentColor" stroke-linecap="round" stroke-linejoin="round" stroke-width="2"><rect width="18" height="18" x="3" y="3" rx="4"/><path d="M8 8l8 8m-8 0l8-8"/></g></symbol><symbol viewBox="0 0 24 24" id="24--cross-small"><path fill="none" stroke="currentColor" stroke-linecap="round" stroke-linejoin="round" stroke-width="2" d="M8 8l8 8m-8 0l8-8"/></symbol><symbol viewBox="0 0 24 24" id="24--cross-square"><path d="M22 2v20H2V2h20zM8.613 7.21a1 1 0 00-1.32 1.497L10.585 12l-3.292 3.293-.083.094a1 1 0 001.497 1.32L12 13.415l3.293 3.292.094.083a1 1 0 001.32-1.497L13.415 12l3.292-3.293.083-.094a1 1 0 00-1.497-1.32L12 10.585 8.707 7.293z"/></symbol><symbol viewBox="0 0 24 24" id="24--cross-square-border"><path fill="none" stroke="currentColor" stroke-linecap="round" stroke-linejoin="round" stroke-width="2" d="M3 3h18v18H3zm5 5l8 8m-8 0l8-8"/></symbol><symbol viewBox="0 0 24 24" id="24--cross-triangle"><path d="M12 2l11 20H1L12 2zm-1.387 10.21a1 1 0 00-1.32 1.497L10.585 15l-1.292 1.293-.083.094a1 1 0 001.497 1.32L12 16.415l1.293 1.292.094.083a1 1 0 001.32-1.497L13.415 15l1.292-1.293.083-.094a1 1 0 00-1.497-1.32L12 13.585l-1.293-1.292z"/></symbol><symbol viewBox="0 0 24 24" id="24--cross-triangle-border"><path fill="none" stroke="currentColor" stroke-linecap="round" stroke-linejoin="round" stroke-width="2" d="M12 3l10 18H2zm-2 10l4 4m-4 0l4-4"/></symbol><symbol viewBox="0 0 24 24" id="24--dash"><path d="M5 11h14v2H5z"/></symbol><symbol viewBox="0 0 24 24" id="24--dot-medium"><circle cx="12" cy="12" r="5"/></symbol><symbol viewBox="0 0 24 24" id="24--education"><path d="M5 13.18v4L12 21l7-3.82v-4L12 17l-7-3.82zM12 3L1 9l11 6 9-4.91V17h2V9L12 3z"/></symbol><symbol viewBox="0 0 24 24" id="24--ellipsis"><g transform="translate(4 10)"><circle cx="2" cy="2" r="2"/><circle cx="8" cy="2" r="2"/><circle cx="14" cy="2" r="2"/></g></symbol><symbol viewBox="0 0 24 24" id="24--exit"><path d="M10.09 15.59L11.5 17l5-5-5-5-1.41 1.41L12.67 11H3v2h9.67l-2.58 2.59zM19 3H5a2 2 0 00-2 2v4h2V5h14v14H5v-4H3v4a2 2 0 002 2h14c1.1 0 2-.9 2-2V5c0-1.1-.9-2-2-2z"/></symbol><symbol viewBox="0 0 24 24" id="24--hamburger"><path d="M23 17a1 1 0 010 2H1a1 1 0 010-2h22zm0-6a1 1 0 010 2H1a1 1 0 110-2h22zm0-6.045a1 1 0 010 2H1a1 1 0 110-2h22z"/></symbol><symbol viewBox="0 0 24 24" id="24--help"><g transform="translate(8 4)"><circle cx="4.105" cy="13.5" r="1.5"/><path d="M4.105 0A4.006 4.006 0 00.334 2.667L0 3.609l1.885.667.333-.943A2.002 2.002 0 016.105 4c0 .632-.245.839-.952 1.347-.864.62-2.048 1.47-2.048 3.653v1h2V9c0-1.157.482-1.503 1.214-2.028C7.073 6.431 8.105 5.69 8.105 4c0-2.206-1.794-4-4-4z"/></g></symbol><symbol viewBox="0 0 24 24" id="24--help-circle"><path d="M12 1c6.075 0 11 4.925 11 11s-4.925 11-11 11S1 18.075 1 12 5.925 1 12 1zm0 15a1 1 0 100 2 1 1 0 000-2zm0-10c-2.21 0-4 1.79-4 4h2l.006-.149A2.007 2.007 0 0112 8c1.1 0 2 .9 2 2 0 2-3 1.75-3 5h2l.012-.242C13.218 12.728 16 12.408 16 10c0-2.21-1.79-4-4-4z"/></symbol><symbol viewBox="0 0 24 24" id="24--help-circle-border"><g fill="none" fill-rule="evenodd" transform="translate(2 2)"><circle cx="10" cy="10" r="10" stroke="currentColor" stroke-linecap="round" stroke-linejoin="round" stroke-width="2"/><path fill="currentColor" fill-rule="nonzero" d="M10 14a1 1 0 110 2 1 1 0 010-2zm0-10c2.21 0 4 1.79 4 4 0 2.5-3 2.75-3 5H9c0-3.25 3-3 3-5 0-1.1-.9-2-2-2s-2 .9-2 2H6c0-2.21 1.79-4 4-4z"/></g></symbol><symbol viewBox="0 0 24 24" id="24--help-hexagon"><path d="M17 2l6 10-6 10H7L1 12 7 2h10zm-5 14a1 1 0 100 2 1 1 0 000-2zm0-10c-2.21 0-4 1.79-4 4h2l.006-.149A2.007 2.007 0 0112 8c1.1 0 2 .9 2 2 0 2-3 1.75-3 5h2l.012-.242C13.218 12.728 16 12.408 16 10c0-2.21-1.79-4-4-4z"/></symbol><symbol viewBox="0 0 24 24" id="24--help-hexagon-border"><g fill="none" fill-rule="evenodd"><path stroke="currentColor" stroke-linecap="round" stroke-linejoin="round" stroke-width="2" d="M22 12l-5 9H7l-5-9 5-9h10z"/><path fill="currentColor" fill-rule="nonzero" d="M12 16a1 1 0 110 2 1 1 0 010-2zm0-10c2.21 0 4 1.79 4 4 0 2.5-3 2.75-3 5h-2c0-3.25 3-3 3-5 0-1.1-.9-2-2-2s-2 .9-2 2H8c0-2.21 1.79-4 4-4z"/></g></symbol><symbol viewBox="0 0 24 24" id="24--help-large"><g transform="translate(6 3)"><circle cx="5.5" cy="16.5" r="1.5"/><path d="M5.571 0C3.276 0 1.217 1.394.453 3.467L0 4.692l2.558.867.452-1.226C3.394 3.297 4.423 2.6 5.571 2.6c1.497 0 2.715 1.166 2.715 2.6 0 .822-.333 1.09-1.292 1.751-1.173.806-2.78 1.911-2.78 4.749V13h2.714v-1.3c0-1.504.655-1.954 1.648-2.636C9.6 8.36 11 7.397 11 5.2 11 2.332 8.565 0 5.571 0z"/></g></symbol><symbol viewBox="0 0 24 24" id="24--help-rounded"><path d="M18 2a4 4 0 014 4v12a4 4 0 01-4 4H6a4 4 0 01-4-4V6a4 4 0 014-4h12zm-6 14a1 1 0 100 2 1 1 0 000-2zm0-10c-2.21 0-4 1.79-4 4h2l.006-.149A2.007 2.007 0 0112 8c1.1 0 2 .9 2 2 0 2-3 1.75-3 5h2l.012-.242C13.218 12.728 16 12.408 16 10c0-2.21-1.79-4-4-4z"/></symbol><symbol viewBox="0 0 24 24" id="24--help-rounded-border"><g fill="none" fill-rule="evenodd" transform="translate(3 3)"><rect width="18" height="18" stroke="currentColor" stroke-linecap="round" stroke-linejoin="round" stroke-width="2" rx="4"/><path fill="currentColor" fill-rule="nonzero" d="M9 13a1 1 0 110 2 1 1 0 010-2zM9 3c2.21 0 4 1.79 4 4 0 2.5-3 2.75-3 5H8c0-3.25 3-3 3-5 0-1.1-.9-2-2-2s-2 .9-2 2H5c0-2.21 1.79-4 4-4z"/></g></symbol><symbol viewBox="0 0 24 24" id="24--help-small"><path d="M12 16a1 1 0 110 2 1 1 0 010-2zm0-10c2.21 0 4 1.79 4 4 0 2.5-3 2.75-3 5h-2c0-3.25 3-3 3-5 0-1.1-.9-2-2-2s-2 .9-2 2H8c0-2.21 1.79-4 4-4z"/></symbol><symbol viewBox="0 0 24 24" id="24--help-square"><path d="M22 2v20H2V2h20zM12 16a1 1 0 100 2 1 1 0 000-2zm0-10c-2.21 0-4 1.79-4 4h2l.006-.149A2.007 2.007 0 0112 8c1.1 0 2 .9 2 2 0 2-3 1.75-3 5h2l.012-.242C13.218 12.728 16 12.408 16 10c0-2.21-1.79-4-4-4z"/></symbol><symbol viewBox="0 0 24 24" id="24--help-square-border"><g fill="none" fill-rule="evenodd"><path stroke="currentColor" stroke-linecap="round" stroke-linejoin="round" stroke-width="2" d="M3 3h18v18H3z"/><path fill="currentColor" fill-rule="nonzero" d="M12 16a1 1 0 110 2 1 1 0 010-2zm0-10c2.21 0 4 1.79 4 4 0 2.5-3 2.75-3 5h-2c0-3.25 3-3 3-5 0-1.1-.9-2-2-2s-2 .9-2 2H8c0-2.21 1.79-4 4-4z"/></g></symbol><symbol viewBox="0 0 24 24" id="24--help-triangle"><path d="M12 2l11 20H1L12 2zm0 15a1 1 0 100 2 1 1 0 000-2zm0-6c-1.151 0-2.083.994-2.083 2.222h1.041l.006-.12c.057-.555.501-.99 1.036-.99.573 0 1.042.5 1.042 1.11 0 1.111-1.563.972-1.563 2.778h1.042l.015-.21c.163-1.06 1.547-1.26 1.547-2.568C14.083 11.994 13.151 11 12 11z"/></symbol><symbol viewBox="0 0 24 24" id="24--help-triangle-border"><g fill="none" fill-rule="evenodd"><path stroke="currentColor" stroke-linecap="round" stroke-linejoin="round" stroke-width="2" d="M12 3l10 18H2z"/><path fill="currentColor" fill-rule="nonzero" d="M12 17a1 1 0 110 2 1 1 0 010-2zm0-6c1.151 0 2.083.994 2.083 2.222 0 1.39-1.562 1.528-1.562 2.778h-1.042c0-1.806 1.563-1.667 1.563-2.778 0-.61-.47-1.11-1.042-1.11-.573 0-1.042.5-1.042 1.11H9.917C9.917 11.994 10.849 11 12 11z"/></g></symbol><symbol viewBox="0 0 24 24" id="24--house"><path d="M12.065 3.002l.073.007.038.006.068.015a1 1 0 01.379.187l8.99 6.994a1 1 0 01-1.123 1.65l-.104-.072L19 10.711V20a1 1 0 01-1 1h-4v-6h-4v6H6a1 1 0 01-1-1v-9.29l-1.386 1.08a1 1 0 01-1.322-1.496l.094-.083 8.992-6.994a.99.99 0 01.33-.174l.048-.013.069-.014.035-.006c.025-.004.05-.006.075-.008h.13z"/></symbol><symbol viewBox="0 0 24 24" id="24--info"><g transform="translate(9 4)"><path d="M4 6c0-.6-.4-1-1-1H0v2h2v6H0v2h6v-2H4V6z"/><circle cx="2.5" cy="1.5" r="1.5"/></g></symbol><symbol viewBox="0 0 24 24" id="24--info-circle"><path d="M12 1c6.075 0 11 4.925 11 11s-4.925 11-11 11S1 18.075 1 12 5.925 1 12 1zm0 9h-2v2h1v4H9v2h6v-2h-2v-5l-.006-.125c-.052-.53-.437-.875-.994-.875zm-.5-4a1.5 1.5 0 100 3 1.5 1.5 0 000-3z"/></symbol><symbol viewBox="0 0 24 24" id="24--info-circle-border"><g fill="none" fill-rule="evenodd" transform="translate(2 2)"><circle cx="10" cy="10" r="10" stroke="currentColor" stroke-linecap="round" stroke-linejoin="round" stroke-width="2"/><g fill="currentColor" fill-rule="nonzero" transform="translate(7 4)"><path d="M4 5c0-.6-.4-1-1-1H1v2h1v4H0v2h6v-2H4V5z"/><circle cx="2.5" cy="1.5" r="1.5"/></g></g></symbol><symbol viewBox="0 0 24 24" id="24--info-hexagon"><path d="M17 2l6 10-6 10H7L1 12 7 2h10zm-5 8h-2v2h1v4H9v2h6v-2h-2v-5l-.006-.125c-.052-.53-.437-.875-.994-.875zm-.5-4a1.5 1.5 0 100 3 1.5 1.5 0 000-3z"/></symbol><symbol viewBox="0 0 24 24" id="24--info-hexagon-border"><g fill="none" fill-rule="evenodd"><path stroke="currentColor" stroke-linecap="round" stroke-linejoin="round" stroke-width="2" d="M22 12l-5 9H7l-5-9 5-9h10z"/><g fill="currentColor" fill-rule="nonzero" transform="translate(9 6)"><path d="M4 5c0-.6-.4-1-1-1H1v2h1v4H0v2h6v-2H4V5z"/><circle cx="2.5" cy="1.5" r="1.5"/></g></g></symbol><symbol viewBox="0 0 24 24" id="24--info-large"><g transform="translate(8 2)"><path d="M5 7.047C5 6.147 4.9 6 4 6H0v2h3v10H0v2h8v-2H5V7.047z"/><circle cx="4" cy="2" r="2"/></g></symbol><symbol viewBox="0 0 24 24" id="24--info-rounded"><path d="M18 2a4 4 0 014 4v12a4 4 0 01-4 4H6a4 4 0 01-4-4V6a4 4 0 014-4h12zm-6 8h-2v2h1v4H9v2h6v-2h-2v-5l-.006-.125c-.052-.53-.437-.875-.994-.875zm-.5-4a1.5 1.5 0 100 3 1.5 1.5 0 000-3z"/></symbol><symbol viewBox="0 0 24 24" id="24--info-rounded-border"><g fill="none" fill-rule="evenodd" transform="translate(3 3)"><rect width="18" height="18" stroke="currentColor" stroke-linecap="round" stroke-linejoin="round" stroke-width="2" rx="4"/><g fill="currentColor" fill-rule="nonzero" transform="translate(6 3)"><path d="M4 5c0-.6-.4-1-1-1H1v2h1v4H0v2h6v-2H4V5z"/><circle cx="2.5" cy="1.5" r="1.5"/></g></g></symbol><symbol viewBox="0 0 24 24" id="24--info-small"><g transform="translate(9 6)"><path d="M4 5c0-.6-.4-1-1-1H1v2h1v4H0v2h6v-2H4V5z"/><circle cx="2.5" cy="1.5" r="1.5"/></g></symbol><symbol viewBox="0 0 24 24" id="24--info-square"><path d="M22 2v20H2V2h20zm-10 8h-2v2h1v4H9v2h6v-2h-2v-5l-.006-.125c-.052-.53-.437-.875-.994-.875zm-.5-4a1.5 1.5 0 100 3 1.5 1.5 0 000-3z"/></symbol><symbol viewBox="0 0 24 24" id="24--info-square-border"><g fill="none" fill-rule="evenodd"><path stroke="currentColor" stroke-linecap="round" stroke-linejoin="round" stroke-width="2" d="M3 3h18v18H3z"/><g fill="currentColor" fill-rule="nonzero" transform="translate(9 6)"><path d="M4 5c0-.6-.4-1-1-1H1v2h1v4H0v2h6v-2H4V5z"/><circle cx="2.5" cy="1.5" r="1.5"/></g></g></symbol><symbol viewBox="0 0 24 24" id="24--info-triangle"><path d="M12 2l11 20H1L12 2zm1 12h-2v5h2v-5zm-1-3a1 1 0 100 2 1 1 0 000-2z"/></symbol><symbol viewBox="0 0 24 24" id="24--info-triangle-border"><g fill="none" fill-rule="evenodd"><path stroke="currentColor" stroke-linecap="round" stroke-linejoin="round" stroke-width="2" d="M12 3l10 18H2z"/><g fill="currentColor" fill-rule="nonzero" transform="translate(11 10)"><circle cx="1" cy="1" r="1"/><path d="M0 3h2v5H0z"/></g></g></symbol><symbol viewBox="0 0 24 24" id="24--lock"><path d="M18 8h-1V6c0-2.76-2.24-5-5-5S7 3.24 7 6v2H6c-1.1 0-2 .9-2 2v10c0 1.1.9 2 2 2h12c1.1 0 2-.9 2-2V10c0-1.1-.9-2-2-2zm-6 9c-1.1 0-2-.9-2-2s.9-2 2-2 2 .9 2 2-.9 2-2 2zm3.1-9H8.9V6c0-1.71 1.39-3.1 3.1-3.1 1.71 0 3.1 1.39 3.1 3.1v2z"/></symbol><symbol viewBox="0 0 24 24" id="24--magnifier-circled"><path d="M12 1c6.075 0 11 4.925 11 11s-4.925 11-11 11S1 18.075 1 12 5.925 1 12 1zM7.469 7.469a5.015 5.015 0 006.314 7.728l2.54 2.54a1 1 0 001.414-1.414l-2.54-2.54a5.015 5.015 0 00-7.728-6.314zm3.561.561a3 3 0 110 6 3 3 0 010-6z"/></symbol><symbol viewBox="0 0 24 24" id="24--map-pin"><path d="M12 2C8.13 2 5 5.13 5 9c0 5.25 7 13 7 13s7-7.75 7-13c0-3.87-3.13-7-7-7zm0 9.5a2.5 2.5 0 110-5 2.5 2.5 0 010 5z"/></symbol><symbol viewBox="0 0 24 24" id="24--minus"><path fill="none" stroke="currentColor" stroke-linecap="round" stroke-linejoin="round" stroke-width="2" d="M6 12h12"/></symbol><symbol viewBox="0 0 24 24" id="24--minus-circle"><path d="M12 1c6.075 0 11 4.925 11 11s-4.925 11-11 11S1 18.075 1 12 5.925 1 12 1zm5 10H7l-.117.007A1 1 0 007 13h10l.117-.007A1 1 0 0017 11z"/></symbol><symbol viewBox="0 0 24 24" id="24--minus-circle-border"><g fill="none" fill-rule="evenodd" stroke="currentColor" stroke-linecap="round" stroke-linejoin="round" stroke-width="2" transform="translate(2 2)"><circle cx="10" cy="10" r="10"/><path d="M5 10h10"/></g></symbol><symbol viewBox="0 0 24 24" id="24--minus-hexagon"><path d="M17 2l6 10-6 10H7L1 12 7 2h10zm-1 9H8l-.117.007A1 1 0 008 13h8l.117-.007A1 1 0 0016 11z"/></symbol><symbol viewBox="0 0 24 24" id="24--minus-hexagon-border"><path fill="none" stroke="currentColor" stroke-linecap="round" stroke-linejoin="round" stroke-width="2" d="M22 12l-5 9H7l-5-9 5-9h10zM8 12h8"/></symbol><symbol viewBox="0 0 24 24" id="24--minus-large"><path fill="none" stroke="currentColor" stroke-linecap="round" stroke-linejoin="round" stroke-width="2" d="M3 12h18"/></symbol><symbol viewBox="0 0 24 24" id="24--minus-rounded"><path d="M18 2a4 4 0 014 4v12a4 4 0 01-4 4H6a4 4 0 01-4-4V6a4 4 0 014-4h12zm-1 9H7l-.117.007A1 1 0 007 13h10l.117-.007A1 1 0 0017 11z"/></symbol><symbol viewBox="0 0 24 24" id="24--minus-rounded-border"><g fill="none" fill-rule="evenodd" stroke="currentColor" stroke-linecap="round" stroke-linejoin="round" stroke-width="2" transform="translate(3 3)"><rect width="18" height="18" rx="4"/><path d="M4 9h10"/></g></symbol><symbol viewBox="0 0 24 24" id="24--minus-small"><path fill="none" stroke="currentColor" stroke-linecap="round" stroke-linejoin="round" stroke-width="2" d="M8 12h8"/></symbol><symbol viewBox="0 0 24 24" id="24--minus-square"><path d="M22 2v20H2V2h20zm-5 9H7l-.117.007A1 1 0 007 13h10l.117-.007A1 1 0 0017 11z"/></symbol><symbol viewBox="0 0 24 24" id="24--minus-square-border"><path fill="none" stroke="currentColor" stroke-linecap="round" stroke-linejoin="round" stroke-width="2" d="M3 3h18v18H3zm4 9h10"/></symbol><symbol viewBox="0 0 24 24" id="24--minus-triangle"><path d="M12 2l11 20H1L12 2zm3 12H9l-.117.007A1 1 0 009 16h6l.117-.007A1 1 0 0015 14z"/></symbol><symbol viewBox="0 0 24 24" id="24--minus-triangle-border"><path fill="none" stroke="currentColor" stroke-linecap="round" stroke-linejoin="round" stroke-width="2" d="M12 3l10 18H2zM9 15h6"/></symbol><symbol viewBox="0 0 24 24" id="24--person-circled"><path d="M12 2C6.48 2 2 6.48 2 12s4.48 10 10 10 10-4.48 10-10S17.52 2 12 2zm0 3c1.66 0 3 1.34 3 3s-1.34 3-3 3-3-1.34-3-3 1.34-3 3-3zm0 14.2a7.2 7.2 0 01-6-3.22c.03-1.99 4-3.08 6-3.08 1.99 0 5.97 1.09 6 3.08a7.2 7.2 0 01-6 3.22z"/></symbol><symbol viewBox="0 0 24 24" id="24--plus"><path fill="none" stroke="currentColor" stroke-linecap="round" stroke-linejoin="round" stroke-width="2" d="M6 12h12m-6-6v12"/></symbol><symbol viewBox="0 0 24 24" id="24--plus-circle"><path d="M12 1c6.075 0 11 4.925 11 11s-4.925 11-11 11S1 18.075 1 12 5.925 1 12 1zm0 6a1 1 0 00-1 1l-.001 3H8l-.117.007A1 1 0 008 13h2.999L11 16l.007.117A1 1 0 0013 16l-.001-3H16l.117-.007A1 1 0 0016 11h-3.001L13 8l-.007-.117A1 1 0 0012 7z"/></symbol><symbol viewBox="0 0 24 24" id="24--plus-circle-border"><g fill="none" fill-rule="evenodd" stroke="currentColor" stroke-linecap="round" stroke-linejoin="round" stroke-width="2" transform="translate(2 2)"><circle cx="10" cy="10" r="10"/><path d="M6 10h8m-4-4v8"/></g></symbol><symbol viewBox="0 0 24 24" id="24--plus-hexagon"><path d="M17 2l6 10-6 10H7L1 12 7 2h10zm-5 5a1 1 0 00-1 1l-.001 3H8l-.117.007A1 1 0 008 13h2.999L11 16l.007.117A1 1 0 0013 16l-.001-3H16l.117-.007A1 1 0 0016 11h-3.001L13 8l-.007-.117A1 1 0 0012 7z"/></symbol><symbol viewBox="0 0 24 24" id="24--plus-hexagon-border"><path fill="none" stroke="currentColor" stroke-linecap="round" stroke-linejoin="round" stroke-width="2" d="M22 12l-5 9H7l-5-9 5-9h10zM8 12h8m-4-4v8"/></symbol><symbol viewBox="0 0 24 24" id="24--plus-large"><path fill="none" stroke="currentColor" stroke-linecap="round" stroke-linejoin="round" stroke-width="2" d="M3 12h18m-9-9v18"/></symbol><symbol viewBox="0 0 24 24" id="24--plus-rounded"><path d="M18 2a4 4 0 014 4v12a4 4 0 01-4 4H6a4 4 0 01-4-4V6a4 4 0 014-4h12zm-6 5a1 1 0 00-1 1l-.001 3H8l-.117.007A1 1 0 008 13h2.999L11 16l.007.117A1 1 0 0013 16l-.001-3H16l.117-.007A1 1 0 0016 11h-3.001L13 8l-.007-.117A1 1 0 0012 7z"/></symbol><symbol viewBox="0 0 24 24" id="24--plus-rounded-border"><g fill="none" fill-rule="evenodd" stroke="currentColor" stroke-linecap="round" stroke-linejoin="round" stroke-width="2" transform="translate(3 3)"><rect width="18" height="18" rx="4"/><path d="M5 9h8M9 5v8"/></g></symbol><symbol viewBox="0 0 24 24" id="24--plus-small"><path fill="none" stroke="currentColor" stroke-linecap="round" stroke-linejoin="round" stroke-width="2" d="M8 12h8m-4-4v8"/></symbol><symbol viewBox="0 0 24 24" id="24--plus-square"><path d="M22 2v20H2V2h20zM12 7a1 1 0 00-1 1l-.001 3H8l-.117.007A1 1 0 008 13h2.999L11 16l.007.117A1 1 0 0013 16l-.001-3H16l.117-.007A1 1 0 0016 11h-3.001L13 8l-.007-.117A1 1 0 0012 7z"/></symbol><symbol viewBox="0 0 24 24" id="24--plus-square-border"><path fill="none" stroke="currentColor" stroke-linecap="round" stroke-linejoin="round" stroke-width="2" d="M3 3h18v18H3zm5 9h8m-4-4v8"/></symbol><symbol viewBox="0 0 24 24" id="24--plus-triangle"><path d="M12 2l11 20H1L12 2zm0 9a1 1 0 00-1 1l-.001 2H9l-.117.007A1 1 0 009 16h1.999L11 18l.007.117A1 1 0 0013 18l-.001-2H15l.117-.007A1 1 0 0015 14h-2.001L13 12l-.007-.117A1 1 0 0012 11z"/></symbol><symbol viewBox="0 0 24 24" id="24--plus-triangle-border"><path fill="none" stroke="currentColor" stroke-linecap="round" stroke-linejoin="round" stroke-width="2" d="M12 3l10 18H2zm0 9v6m-3-3h6"/></symbol><symbol viewBox="0 0 24 24" id="24--radio"><path d="M12 .75C18.209.75 23.25 5.791 23.25 12S18.209 23.25 12 23.25.75 18.209.75 12 5.791.75 12 .75zm0 18A6.754 6.754 0 015.25 12 6.754 6.754 0 0112 5.25 6.754 6.754 0 0118.75 12 6.754 6.754 0 0112 18.75z"/></symbol><symbol viewBox="0 0 24 24" id="24--receipt-list"><path d="M21 0H3a1 1 0 00-1 1v23l4-3 3 3 3-3 3 3 3-3 4 3V1a1 1 0 00-1-1zm-8 16H6v-2h7v2zm0-4H6v-2h7v2zm0-4H6V6h7v2zm5 8h-3v-2h3v2zm0-4h-3v-2h3v2zm0-4h-3V6h3v2z"/></symbol><symbol viewBox="0 0 24 24" id="24--receipt-scroll"><path d="M23 0H7a1 1 0 00-1 1v16H3c-1.654 0-3 1.346-3 3v4h14v-3.583c0-.808.645-1.417 1.5-1.417.723 0 1.5.47 1.5 1.5 0 1.93 1.57 3.5 3.5 3.5s3.5-1.57 3.5-3.5V1a1 1 0 00-1-1zM12 20.417V22H2v-2a1 1 0 011-1h9.304c-.196.43-.304.909-.304 1.417zM20 13H10v-2h10v2zm0-6H10V5h10v2z"/></symbol><symbol viewBox="0 0 24 24" id="24--speech-bubbles"><path d="M21 6h-2v9H6v2c0 .55.45 1 1 1h11l4 4V7c0-.55-.45-1-1-1zm-4 6V3c0-.55-.45-1-1-1H3c-.55 0-1 .45-1 1v14l4-4h10c.55 0 1-.45 1-1z"/></symbol><symbol viewBox="0 0 24 24" id="24--spinner"><path d="M12 2c5.523 0 10 4.477 10 10h-2a8 8 0 00-8-8V2z"/></symbol><symbol viewBox="0 0 24 24" id="24--warning"><g transform="translate(10 4)"><circle cx="2" cy="13.5" r="1.5"/><path d="M1 0h2v10H1z"/></g></symbol><symbol viewBox="0 0 24 24" id="24--warning-circle"><path d="M12 1c6.075 0 11 4.925 11 11s-4.925 11-11 11S1 18.075 1 12 5.925 1 12 1zm0 15a1 1 0 100 2 1 1 0 000-2zm1-10h-2v8h2V6z"/></symbol><symbol viewBox="0 0 24 24" id="24--warning-circle-border"><g fill="none" fill-rule="evenodd" transform="translate(2 2)"><circle cx="10" cy="10" r="10" stroke="currentColor" stroke-linecap="round" stroke-linejoin="round" stroke-width="2"/><circle cx="10" cy="15" r="1" fill="currentColor" fill-rule="nonzero"/><path fill="currentColor" fill-rule="nonzero" d="M9 4h2v8H9z"/></g></symbol><symbol viewBox="0 0 24 24" id="24--warning-hexagon"><path d="M17 2l6 10-6 10H7L1 12 7 2h10zm-5 14a1 1 0 100 2 1 1 0 000-2zm1-10h-2v8h2V6z"/></symbol><symbol viewBox="0 0 24 24" id="24--warning-hexagon-border"><g fill="none" fill-rule="evenodd"><path stroke="currentColor" stroke-linecap="round" stroke-linejoin="round" stroke-width="2" d="M22 12l-5 9H7l-5-9 5-9h10z"/><g fill="currentColor" fill-rule="nonzero" transform="translate(11 6)"><circle cx="1" cy="11" r="1"/><path d="M0 0h2v8H0z"/></g></g></symbol><symbol viewBox="0 0 24 24" id="24--warning-large"><g transform="translate(10 2)"><circle cx="2" cy="18" r="2"/><path d="M0 0h4L3 14H1z"/></g></symbol><symbol viewBox="0 0 24 24" id="24--warning-rounded"><path d="M18 2a4 4 0 014 4v12a4 4 0 01-4 4H6a4 4 0 01-4-4V6a4 4 0 014-4h12zm-6 14a1 1 0 100 2 1 1 0 000-2zm1-10h-2v8h2V6z"/></symbol><symbol viewBox="0 0 24 24" id="24--warning-rounded-border"><g fill="none" fill-rule="evenodd" transform="translate(3 3)"><rect width="18" height="18" stroke="currentColor" stroke-linecap="round" stroke-linejoin="round" stroke-width="2" rx="4"/><circle cx="9" cy="14" r="1" fill="currentColor" fill-rule="nonzero"/><path fill="currentColor" fill-rule="nonzero" d="M8 3h2v8H8z"/></g></symbol><symbol viewBox="0 0 24 24" id="24--warning-small"><g transform="translate(11 6)"><circle cx="1" cy="11" r="1"/><path d="M0 0h2v8H0z"/></g></symbol><symbol viewBox="0 0 24 24" id="24--warning-square"><path d="M22 2v20H2V2h20zM12 16a1 1 0 100 2 1 1 0 000-2zm1-10h-2v8h2V6z"/></symbol><symbol viewBox="0 0 24 24" id="24--warning-square-border"><g fill="none" fill-rule="evenodd" transform="translate(3 3)"><path stroke="currentColor" stroke-linecap="round" stroke-linejoin="round" stroke-width="2" d="M0 0h18v18H0z"/><circle cx="9" cy="14" r="1" fill="currentColor" fill-rule="nonzero"/><path fill="currentColor" fill-rule="nonzero" d="M8 3h2v8H8z"/></g></symbol><symbol viewBox="0 0 24 24" id="24--warning-triangle"><path d="M12 2l11 20H1L12 2zm0 15a1 1 0 100 2 1 1 0 000-2zm1-7h-2v6h2v-6z"/></symbol><symbol viewBox="0 0 24 24" id="24--warning-triangle-border"><g fill="none" fill-rule="evenodd"><path stroke="currentColor" stroke-linecap="round" stroke-linejoin="round" stroke-width="2" d="M12 3l10 18H2z"/><g fill="currentColor" fill-rule="nonzero" transform="translate(11 10)"><circle cx="1" cy="8" r="1"/><path d="M0 0h2v6H0z"/></g></g></symbol><symbol fill-rule="evenodd" stroke-linejoin="round" stroke-miterlimit="2" clip-rule="evenodd" viewBox="0 0 24 24" id="tests--affinity"><path d="M18.295 9.705l-1.41-1.41-4.59 4.58-4.59-4.58-1.41 1.41 6 6 6-6z"/></symbol><symbol viewBox="0 0 24 24" id="tests--sketch"><defs><path id="a" d="M4-2L2.59-.59 7.17 4 2.59 8.59 4 10l6-6z"/></defs><g fill="currentColor" fill-rule="evenodd" transform="translate(6 8)"><mask id="b"><use xmlns:xlink="http://www.w3.org/1999/xlink" xlink:href="#a"/></mask><use transform="rotate(90 6.295 4)" xlink:href="#a"/><g mask="url(#b)"><path d="M-6-8h24v24H-6z"/></g></g></symbol><symbol viewBox="0 0 24 24" id="tests--zeplin"><defs><path id="a" d="M4-2L2.59-.59 7.17 4 2.59 8.59 4 10l6-6z"/></defs><g fill="currentColor" fill-rule="evenodd" transform="translate(6 8)"><mask id="b"><use xmlns:xlink="http://www.w3.org/1999/xlink" xlink:href="#a"/></mask><use transform="rotate(90 6.295 4)" xlink:href="#a"/><g mask="url(#b)"><path d="M-6-8h24v24H-6z"/></g></g></symbol></svg>