<svg width="0" height="0" style="position:absolute"><symbol viewBox="0 0 24 24" id="24--arrow"><path d="M10.36 5.64a1 1 0 01.09 1.32l-.09.09L6.41 11H20a1 1 0 01.12 2H6.4l3.95 3.95a1 1 0 01-1.32 1.5l-.09-.09-5.66-5.65-.07-.08v-.01l.07.09A1 1 0 013 12v-.02a1 1 0 010-.07V12a1 1 0 01.3-.7l5.65-5.66a1 1 0 011.41 0z"/></symbol><symbol viewBox="0 0 24 24" id="24--arrow-bottom-left"><path d="M19.7 4.3a1 1 0 01.09 1.31l-.08.1L7.4 18H13a1 1 0 01.12 2H4.97a1 1 0 01-.06 0h-.03l-.03-.01h-.03l-.02-.01a1 1 0 01-.59-.37l.08.1A1 1 0 014 19v-8a1 1 0 012-.12v5.7L18.3 4.3a1 1 0 011.4 0z"/></symbol><symbol viewBox="0 0 24 24" id="24--arrow-bottom-right"><path d="M11 20a1 1 0 01-.12-2h5.71L4.29 5.7a1 1 0 011.32-1.49l.1.08L18 16.6V11a1 1 0 012-.12v8.15a1 1 0 010 .05V19a1 1 0 01-.39.79l.1-.08a1 1 0 01-.42.25h-.02a1 1 0 01-.1.02h-.02l-.03.01a1 1 0 01-.06 0h-.03L19 20h-8z"/></symbol><symbol viewBox="0 0 24 24" id="24--arrow-box-in"><path d="M12 8h.06a1 1 0 01.65.3l-.1-.09.02.01.08.07 4.24 4.25.08.09a1 1 0 01-1.5 1.32L13 11.41v9.72a1 1 0 01-2-.12v-9.59l-2.54 2.54-.09.08a1 1 0 01-1.32-1.5l4.24-4.24.08-.07A1 1 0 0112 8h-.09a1 1 0 01.03 0h.04zm7-6a3 3 0 013 2.82V19a3 3 0 01-2.82 3h-3.04a1 1 0 01-.11-2H19a1 1 0 001-.88V5a1 1 0 00-.88-1H5a1 1 0 00-1 .88V19a1 1 0 00.88 1h2.98a1 1 0 01.11 2H5a3 3 0 01-3-2.82V5a3 3 0 012.82-3H19z"/></symbol><symbol viewBox="0 0 24 24" id="24--arrow-box-in-bottom-left"><path d="M19 2a3 3 0 013 2.82V19a3 3 0 01-2.82 3H5a3 3 0 01-3-2.82V8a1 1 0 012-.12V19a1 1 0 00.88 1H19a1 1 0 001-.88V5a1 1 0 00-.88-1H9a1 1 0 01-.12-2H19zM6.61 5.21l.1.08L14 12.6V7a1 1 0 012-.12v8.15a1 1 0 010 .06V15a1 1 0 01-.39.79l.1-.08a1 1 0 01-.42.25h-.02a1 1 0 01-.1.02h-.02a1 1 0 01-.03.01h-.09L15 16H7a1 1 0 01-.12-2h5.71l-7.3-7.3a1 1 0 011.32-1.49z"/></symbol><symbol viewBox="0 0 24 24" id="24--arrow-box-in-bottom-right"><path d="M15 2h.12A1 1 0 0115 4H4.88A1 1 0 004 5v14.12A1 1 0 005 20h14.12a1 1 0 00.88-1V7.88A1 1 0 0122 8v11.18A3 3 0 0119 22H4.82A3 3 0 012 19V4.82A3 3 0 015 2h10zM9 16a1.02 1.02 0 01-.12 0l-.03-.01h-.03l-.02-.01a1 1 0 01-.5-.27l.09.08A1 1 0 018 15v.09a1 1 0 010-.06V6.88A1 1 0 0110 7v5.59l7.3-7.3.09-.08a1 1 0 011.32 1.5L11.4 14h5.71a1 1 0 01-.12 2z"/></symbol><symbol viewBox="0 0 24 24" id="24--arrow-box-in-down"><path d="M7.86 2h.11a1 1 0 01-.11 2H4.88A1 1 0 004 5v14.12A1 1 0 005 20h14.12a1 1 0 00.88-1V4.88A1 1 0 0019 4h-2.97a1 1 0 01.11-2h3.04A3 3 0 0122 5v14.18A3 3 0 0119 22H4.82A3 3 0 012 19V4.82A3 3 0 015 2h2.86zM12 2a1 1 0 011 .88v9.72l2.54-2.54a1 1 0 011.5 1.32l-.09.1-4.24 4.24a1 1 0 01-.1.08l.1-.08a1 1 0 01-.53.27h-.03a1 1 0 01-.06.02h-.18.09a1 1 0 01-.7-.3l-4.25-4.24a1 1 0 011.32-1.5l.1.09L11 12.59V3a1 1 0 011-1z"/></symbol><symbol viewBox="0 0 24 24" id="24--arrow-box-in-left"><path d="M19 2h.18A3 3 0 0122 5v2.97a1 1 0 01-2-.11V4.88A1 1 0 0019 4H4.88A1 1 0 004 5v14.12A1 1 0 005 20h14.12a1 1 0 00.88-1v-2.97a1 1 0 012 .11v3.04A3 3 0 0119 22H4.82A3 3 0 012 19V4.82A3 3 0 015 2h14zm-5.05 5.05a1 1 0 01.08 1.32l-.08.1L11.41 11H21a1 1 0 01.12 2H11.4l2.54 2.54a1 1 0 01-1.32 1.5l-.1-.09-4.24-4.24-.07-.08v-.01l.07.09A1 1 0 018 12v-.02a1 1 0 010-.07V12a1 1 0 01.3-.7l4.24-4.25a1 1 0 011.41 0z"/></symbol><symbol viewBox="0 0 24 24" id="24--arrow-box-in-right"><path d="M19 2a3 3 0 013 2.82V19a3 3 0 01-2.82 3H5a3 3 0 01-3-2.82v-3.04a1 1 0 012-.11V19a1 1 0 00.88 1H19a1 1 0 001-.88V5a1 1 0 00-.88-1H5a1 1 0 00-1 .88v2.98a1 1 0 01-2 .11V5a3 3 0 012.82-3H19zm-8.95 5.05a1 1 0 011.41 0l4.25 4.24A1 1 0 0116 12v-.09a1 1 0 010 .06V12a1.02 1.02 0 01-.2.6 1 1 0 01-.1.1l.09-.08h-.01l-.07.09-4.25 4.24-.09.08a1 1 0 01-1.32-1.5L12.58 13h-9.7A1 1 0 013 11h9.59l-2.54-2.54-.08-.09a1 1 0 01.08-1.32z"/></symbol><symbol viewBox="0 0 24 24" id="24--arrow-box-in-top-left"><path d="M19 2a3 3 0 013 2.82V16a1 1 0 01-2 .12V5a1 1 0 00-.88-1H5a1 1 0 00-1 .88V19a1 1 0 00.88 1H15a1 1 0 01.12 2H5a3 3 0 01-3-2.82V5a3 3 0 012.82-3H19zM9 8h8a1 1 0 01.12 2H11.4l7.3 7.3a1 1 0 01-1.32 1.49l-.1-.08-7.3-7.3L10 17a1 1 0 01-2 .12V8.97a1 1 0 010-.06V9a1 1 0 01.37-.78h.02l-.1.07a1 1 0 01.42-.25h.02a1 1 0 01.07-.02h.05A1 1 0 018.88 8H9z"/></symbol><symbol viewBox="0 0 24 24" id="24--arrow-box-in-top-right"><path d="M19 2h.18A3 3 0 0122 5v14.18A3 3 0 0119 22H8.88A1 1 0 019 20h10.12a1 1 0 00.88-1V4.88A1 1 0 0019 4H4.88A1 1 0 004 5v11.12A1 1 0 012 16V4.82A3 3 0 015 2h14zm-4 6h.12a1 1 0 01.06.02h.02a1 1 0 01.5.27l-.09-.08.02.01A1 1 0 0116 9v-.09a1 1 0 010 .06v8.15a1 1 0 01-2-.12v-5.59l-7.3 7.3-.09.08a1 1 0 01-1.32-1.5l7.3-7.3L7 10h-.12A1 1 0 017 8h8z"/></symbol><symbol viewBox="0 0 24 24" id="24--arrow-box-in-up"><path d="M12 8h.06a1 1 0 01.65.3l-.1-.09.02.01.08.07 4.24 4.25.08.09a1 1 0 01-1.5 1.32L13 11.41v9.72a1 1 0 01-2-.12v-9.59l-2.54 2.54-.09.08a1 1 0 01-1.32-1.5l4.24-4.24.08-.07A1 1 0 0112 8h-.09a1 1 0 01.03 0h.04zm7-6a3 3 0 013 2.82V19a3 3 0 01-2.82 3h-3.04a1 1 0 01-.11-2H19a1 1 0 001-.88V5a1 1 0 00-.88-1H5a1 1 0 00-1 .88V19a1 1 0 00.88 1h2.98a1 1 0 01.11 2H5a3 3 0 01-3-2.82V5a3 3 0 012.82-3H19z"/></symbol><symbol viewBox="0 0 24 24" id="24--arrow-box-out"><path d="M8 9a1 1 0 01.12 2H7a1 1 0 00-1 .88V20a1 1 0 00.88 1H17a1 1 0 001-.88V12a1 1 0 00-.88-1H16a1 1 0 01-.12-2H17a3 3 0 013 2.82V20a3 3 0 01-2.82 3H7a3 3 0 01-3-2.82V12a3 3 0 012.82-3H8zm4-8h.06a1 1 0 01.03 0H12a1 1 0 01.63.22l.08.07 4.24 4.25a1 1 0 01-1.32 1.5l-.1-.09L13 4.41V14a1 1 0 01-2 .12V4.4L8.46 6.95a1 1 0 01-1.5-1.32l.09-.1 4.24-4.24.08-.07h.01l-.09.07a1 1 0 01.65-.29H12z"/></symbol><symbol viewBox="0 0 24 24" id="24--arrow-box-out-bottom-left"><path d="M11.39 11.21a1 1 0 011.32 1.5L5.4 20h3.71A1 1 0 019 22H2.88a1 1 0 01-.06-.02H2.8a1 1 0 01-.5-.27l.09.08A1 1 0 012 21v.09a1 1 0 010-.07v-6.14A1 1 0 014 15v3.58l7.3-7.29zM18 2h.18A3 3 0 0121 5v10.18A3 3 0 0118 18h-5.12a1 1 0 01.12-2h5.12a1 1 0 00.88-1V4.88A1 1 0 0018 4H7.88A1 1 0 007 5v7.45a1 1 0 01-2-.12V4.82A3 3 0 018 2h10z"/></symbol><symbol viewBox="0 0 24 24" id="24--arrow-box-out-bottom-right"><path d="M12.61 11.21l.1.08L20 18.6V15a1 1 0 012-.12v6.15a1 1 0 010 .06V21a1 1 0 01-.39.79l.1-.08a1 1 0 01-.42.25h-.02a1 1 0 01-.1.02h-.02a1 1 0 01-.03.01h-.09L21 22h-6a1 1 0 01-.12-2h3.71l-7.3-7.3a1 1 0 011.32-1.49zM16 2a3 3 0 013 2.82v7.51a1 1 0 01-2 .12V5a1 1 0 00-.88-1H6a1 1 0 00-1 .88V15a1 1 0 00.88 1H11a1 1 0 01.12 2H6a3 3 0 01-3-2.82V5a3 3 0 012.82-3H16z"/></symbol><symbol viewBox="0 0 24 24" id="24--arrow-box-out-down"><path d="M12 9a1 1 0 011 1v9.59l2.54-2.54.09-.08a1 1 0 011.32 1.5l-4.24 4.24a1 1 0 01-.53.27h-.03A1 1 0 0112 23h.09-.15a1 1 0 01-.65-.3l.1.09a1 1 0 01-.1-.08l-4.24-4.25-.08-.09a1 1 0 011.5-1.32L11 19.58v-9.7A1 1 0 0112 9zm5-8h.18A3 3 0 0120 4v8.18A3 3 0 0117 15h-1.12a1 1 0 01.12-2h1.12a1 1 0 00.88-1V3.88A1 1 0 0017 3H6.88A1 1 0 006 4v8.12A1 1 0 007 13h1.12A1 1 0 018 15H6.82A3 3 0 014 12V3.82A3 3 0 017 1h10z"/></symbol><symbol viewBox="0 0 24 24" id="24--arrow-box-out-left"><path d="M20 4h.18A3 3 0 0123 7v10.18A3 3 0 0120 20h-8.18A3 3 0 019 17v-1.12a1 1 0 012 .12v1.12a1 1 0 001 .88h8.12a1 1 0 00.88-1V6.88A1 1 0 0020 6h-8.12A1 1 0 0011 7v1.12A1 1 0 019 8V6.82A3 3 0 0112 4h8zM5.63 6.97a1 1 0 011.32 1.5L4.41 11h9.72a1 1 0 01-.12 2h-9.6l2.54 2.54.08.09a1 1 0 01-1.5 1.32L1.3 12.71l-.07-.08A1 1 0 011 12v.09a1 1 0 010-.07V12a1.02 1.02 0 01.2-.6 1 1 0 01.1-.1l-.09.08a1 1 0 01.08-.09l4.25-4.24z"/></symbol><symbol viewBox="0 0 24 24" id="24--arrow-box-out-right"><path d="M12 4a3 3 0 013 2.82V8a1 1 0 01-2 .12V7a1 1 0 00-.88-1H4a1 1 0 00-1 .88V17a1 1 0 00.88 1H12a1 1 0 001-.88V16a1 1 0 012-.12V17a3 3 0 01-2.82 3H4a3 3 0 01-3-2.82V7a3 3 0 012.82-3H12zm6.37 2.97l.1.08 4.24 4.24a1 1 0 01.08.1l-.08-.1A1 1 0 0123 12v.03a1 1 0 010 .06V12a1 1 0 01-.22.63l-.07.08-4.25 4.24a1 1 0 01-1.5-1.32l.09-.1L19.59 13H10a1 1 0 01-.12-2h9.7l-2.53-2.54a1 1 0 011.32-1.5z"/></symbol><symbol viewBox="0 0 24 24" id="24--arrow-box-out-top-left"><path d="M18 6a3 3 0 013 2.82V19a3 3 0 01-2.82 3H8a3 3 0 01-3-2.82v-7.51a1 1 0 012-.12V19a1 1 0 00.88 1H18a1 1 0 001-.88V9a1 1 0 00-.88-1H13a1 1 0 01-.12-2H18zM9 2a1 1 0 01.12 2H5.4l7.3 7.3a1 1 0 01-1.32 1.49l-.1-.08L4 5.4V9a1 1 0 01-2 .12V2.98a1 1 0 010-.07V3a1 1 0 01.37-.78h.02l-.1.07a1 1 0 01.42-.25h.02a1 1 0 01.07-.02h.05A1 1 0 012.88 2h.04A1 1 0 013 2h6z"/></symbol><symbol viewBox="0 0 24 24" id="24--arrow-box-out-top-right"><path d="M11 6h.12A1 1 0 0111 8H5.88A1 1 0 005 9v10.12A1 1 0 006 20h10.12a1 1 0 00.88-1v-7.45a1 1 0 012 .12v7.51A3 3 0 0116 22H5.82A3 3 0 013 19V8.82A3 3 0 016 6h5zm10-4h.12a1 1 0 01.06.02h.02a1 1 0 01.5.27l-.09-.08.02.01A1 1 0 0122 3v-.09a1 1 0 010 .06v6.15A1 1 0 0120 9V5.41l-7.3 7.3-.09.08a1 1 0 01-1.32-1.5L18.6 4h-3.71A1 1 0 0115 2h6z"/></symbol><symbol viewBox="0 0 24 24" id="24--arrow-box-out-up"><path d="M8 9a1 1 0 01.12 2H7a1 1 0 00-1 .88V20a1 1 0 00.88 1H17a1 1 0 001-.88V12a1 1 0 00-.88-1H16a1 1 0 01-.12-2H17a3 3 0 013 2.82V20a3 3 0 01-2.82 3H7a3 3 0 01-3-2.82V12a3 3 0 012.82-3H8zm4-8h.06a1 1 0 01.03 0H12a1 1 0 01.63.22l.08.07 4.24 4.25a1 1 0 01-1.32 1.5l-.1-.09L13 4.41V14a1 1 0 01-2 .12V4.4L8.46 6.95a1 1 0 01-1.5-1.32l.09-.1 4.24-4.24.08-.07h.01l-.09.07a1 1 0 01.65-.29H12z"/></symbol><symbol viewBox="0 0 24 24" id="24--arrow-down"><path d="M12 3a1 1 0 011 .88V17.6l3.95-3.95a1 1 0 011.5 1.32l-.09.09-5.65 5.66a1 1 0 01-.1.08l.1-.08a1 1 0 01-.4.24h-.02a1 1 0 01-.06.02h-.03a1 1 0 01-.2.03h-.03a1 1 0 01-.06 0h-.03l-.02-.01a1 1 0 01-.09-.02h-.03a1 1 0 01-.03-.01l-.02-.01a1 1 0 01-.1-.03l-.02-.02a1 1 0 01-.28-.2l-5.65-5.65a1 1 0 011.32-1.5l.09.09L11 17.59V4a1 1 0 011-1z"/></symbol><symbol viewBox="0 0 24 24" id="24--arrow-left"><path d="M10.36 5.64a1 1 0 01.09 1.32l-.09.09L6.41 11H20a1 1 0 01.12 2H6.4l3.95 3.95a1 1 0 01-1.32 1.5l-.09-.09-5.66-5.65-.07-.08v-.01l.07.09A1 1 0 013 12v-.02a1 1 0 010-.07V12a1 1 0 01.3-.7l5.65-5.66a1 1 0 011.41 0z"/></symbol><symbol viewBox="0 0 24 24" id="24--arrow-long"><path d="M8.36 5.64a1 1 0 01.09 1.32l-.09.09L4.41 11H22a1 1 0 01.12 2H4.4l3.95 3.95a1 1 0 01-1.32 1.5l-.09-.09-5.66-5.65-.07-.08v-.01l.07.09A1 1 0 011 12v-.02a1 1 0 010-.07V12a1 1 0 01.3-.7l5.65-5.66a1 1 0 011.41 0z"/></symbol><symbol viewBox="0 0 24 24" id="24--arrow-long-bottom-left"><path d="M2 13a1 1 0 012-.12v5.7L20.3 2.3a1 1 0 011.49 1.32l-.08.1L5.4 20H11a1 1 0 01.12 2H2.97a1 1 0 01-.06 0h-.03l-.03-.01h-.03l-.02-.01a1 1 0 01-.59-.37l.08.1A1 1 0 012 21v-8z"/></symbol><symbol viewBox="0 0 24 24" id="24--arrow-long-bottom-right"><path d="M3.61 2.21l.1.08L20 18.6V13a1 1 0 012-.12v8.15a1 1 0 010 .06V21a1 1 0 01-.39.79l.1-.08a1 1 0 01-.42.25h-.02a1 1 0 01-.1.02h-.02l-.03.01A1 1 0 0121 22h-8a1 1 0 01-.12-2h5.7L2.3 3.7a1 1 0 011.32-1.49z"/></symbol><symbol viewBox="0 0 24 24" id="24--arrow-long-down"><path d="M12 1a1 1 0 011 .88V19.6l3.95-3.95a1 1 0 011.5 1.32l-.09.09-5.65 5.66a1 1 0 01-.1.08l.1-.08a1 1 0 01-.4.24h-.02a1 1 0 01-.06.02h-.03a1 1 0 01-.2.03h-.03a1 1 0 01-.06 0h-.03l-.02-.01a1 1 0 01-.09-.02h-.03a1 1 0 01-.03-.01l-.02-.01a1 1 0 01-.1-.03l-.02-.02a1 1 0 01-.28-.2l-5.65-5.65a1 1 0 011.32-1.5l.09.09L11 19.59V2a1 1 0 011-1z"/></symbol><symbol viewBox="0 0 24 24" id="24--arrow-long-left"><path d="M8.36 5.64a1 1 0 01.09 1.32l-.09.09L4.41 11H22a1 1 0 01.12 2H4.4l3.95 3.95a1 1 0 01-1.32 1.5l-.09-.09-5.66-5.65-.07-.08v-.01l.07.09A1 1 0 011 12v-.02a1 1 0 010-.07V12a1 1 0 01.3-.7l5.65-5.66a1 1 0 011.41 0z"/></symbol><symbol viewBox="0 0 24 24" id="24--arrow-long-right"><path d="M16.96 5.55l.09.09 5.66 5.65a1 1 0 01.07.09l-.07-.09A1 1 0 0123 12v.03a1 1 0 010 .06V12a1 1 0 01-.21.62h-.01l-.07.09-5.66 5.65a1 1 0 01-1.5-1.32l.09-.09L19.59 13H2a1 1 0 01-.12-2H19.6l-3.95-3.95a1 1 0 011.32-1.5z"/></symbol><symbol viewBox="0 0 24 24" id="24--arrow-long-top-left"><path d="M11 2a1 1 0 01.12 2h-5.7L21.7 20.3a1 1 0 01-1.32 1.49l-.1-.08L4 5.4V11a1 1 0 01-2 .12V2.98a1 1 0 010-.07V3a1 1 0 01.37-.78h.02l-.1.07a1 1 0 01.42-.25h.02a1 1 0 01.07-.02h.05A1 1 0 012.88 2h.04A1 1 0 013 2h8z"/></symbol><symbol viewBox="0 0 24 24" id="24--arrow-long-top-right"><path d="M21 2h.02a1 1 0 01.06 0H21a1 1 0 01.18.02h.02a1 1 0 01.41.19l.02.01a1 1 0 01.16.16l-.08-.09a1 1 0 01.28.6v.02a1 1 0 010 .06L22 3v8a1 1 0 01-2 .12V5.4L3.7 21.71a1 1 0 01-1.49-1.32l.08-.1L18.6 4H13a1 1 0 01-.12-2H21z"/></symbol><symbol viewBox="0 0 24 24" id="24--arrow-long-up"><path d="M12 1h.06a1 1 0 01.03 0h.03l.02.01a1 1 0 01.09.02h.03l.03.01a1 1 0 01.23.1l.02.02.03.02a1 1 0 01.06.04l.08.07 5.65 5.66a1 1 0 01-1.32 1.5l-.09-.09L13 4.41V22a1 1 0 01-2 .12V4.4L7.05 8.36a1 1 0 01-1.5-1.32l.09-.09 5.65-5.66.08-.07-.08.07a1 1 0 01.42-.25h.03a1 1 0 01.03-.01h.03a1 1 0 01.08-.02h.03a1 1 0 01.03 0l.04-.01H12z"/></symbol><symbol viewBox="0 0 24 24" id="24--arrow-right"><path d="M14.96 5.55l.09.09 5.66 5.65a1 1 0 01.07.09l-.07-.09A1 1 0 0121 12v.03a1 1 0 010 .06V12a1 1 0 01-.21.62h-.01l-.07.09-5.66 5.65a1 1 0 01-1.5-1.32l.09-.09L17.59 13H4a1 1 0 01-.12-2H17.6l-3.95-3.95a1 1 0 011.32-1.5z"/></symbol><symbol viewBox="0 0 24 24" id="24--arrow-short"><path d="M12.36 5.64a1 1 0 01.09 1.32l-.09.09L8.41 11H18a1 1 0 01.12 2H8.4l3.95 3.95a1 1 0 01-1.32 1.5l-.09-.09-5.66-5.65-.07-.08v-.01l.07.09A1 1 0 015 12v-.02a1 1 0 010-.07V12a1 1 0 01.3-.7l5.65-5.66a1 1 0 011.41 0z"/></symbol><symbol viewBox="0 0 24 24" id="24--arrow-short-bottom-left"><path d="M16.7 7.3a1 1 0 01.09 1.31l-.08.1L9.4 16H15a1 1 0 01.12 2H6.97a1 1 0 01-.06 0h-.03l-.03-.01h-.03l-.02-.01a1 1 0 01-.59-.37l.08.1A1 1 0 016 17V9a1 1 0 012-.12v5.7l7.3-7.29a1 1 0 011.4 0z"/></symbol><symbol viewBox="0 0 24 24" id="24--arrow-short-bottom-right"><path d="M9 18a1 1 0 01-.12-2h5.71l-7.3-7.3a1 1 0 011.32-1.49l.1.08L16 14.6V9a1 1 0 012-.12v8.15a1 1 0 010 .06V17a1 1 0 01-.39.79l.1-.08a1 1 0 01-.42.25h-.02a1 1 0 01-.1.02h-.02l-.03.01A1 1 0 0117 18H9z"/></symbol><symbol viewBox="0 0 24 24" id="24--arrow-short-down"><path d="M12 5a1 1 0 011 .88v9.72l3.95-3.95a1 1 0 011.5 1.32l-.09.09-5.65 5.66a1 1 0 01-.1.08l.1-.08a1 1 0 01-.53.27h-.03a1 1 0 01-.06.02h-.18.09a1 1 0 01-.7-.3l-5.66-5.65a1 1 0 011.32-1.5l.09.09L11 15.59V6a1 1 0 011-1z"/></symbol><symbol viewBox="0 0 24 24" id="24--arrow-short-left"><path d="M12.36 5.64a1 1 0 01.09 1.32l-.09.09L8.41 11H18a1 1 0 01.12 2H8.4l3.95 3.95a1 1 0 01-1.32 1.5l-.09-.09-5.66-5.65-.07-.08v-.01l.07.09A1 1 0 015 12v-.02a1 1 0 010-.07V12a1 1 0 01.3-.7l5.65-5.66a1 1 0 011.41 0z"/></symbol><symbol viewBox="0 0 24 24" id="24--arrow-short-right"><path d="M12.96 5.55l.09.09 5.66 5.65a1 1 0 01.07.09l-.07-.09A1 1 0 0119 12v.03a1 1 0 010 .06V12a1 1 0 01-.22.63l-.07.08-5.66 5.65a1 1 0 01-1.5-1.32l.09-.09L15.59 13H6a1 1 0 01-.12-2h9.72l-3.95-3.95a1 1 0 011.32-1.5z"/></symbol><symbol viewBox="0 0 24 24" id="24--arrow-short-top-left"><path d="M15 6a1 1 0 01.12 2H9.4l7.3 7.3a1 1 0 01-1.32 1.49l-.1-.08L8 9.4V15a1 1 0 01-2 .12V6.98a1 1 0 010-.07V7a1 1 0 01.37-.78h.02l-.1.07a1 1 0 01.42-.25h.02a1 1 0 01.07-.02h.05A1 1 0 016.88 6h.04A1 1 0 017 6h8z"/></symbol><symbol viewBox="0 0 24 24" id="24--arrow-short-top-right"><path d="M17 6h.02a1 1 0 01.06 0H17a1 1 0 01.18.02h.02a1 1 0 01.41.19l.02.01a1 1 0 01.16.16l-.08-.09a1 1 0 01.28.6v.02a1 1 0 010 .06L18 7v8a1 1 0 01-2 .12V9.4l-7.3 7.3a1 1 0 01-1.49-1.32l.08-.1L14.6 8H9a1 1 0 01-.12-2H17z"/></symbol><symbol viewBox="0 0 24 24" id="24--arrow-short-up"><path d="M12 5h.06a1 1 0 01.03 0H12a1 1 0 01.63.22l.08.07 5.65 5.66a1 1 0 01-1.32 1.5l-.09-.09L13 8.41V18a1 1 0 01-2 .12V8.4l-3.95 3.95a1 1 0 01-1.5-1.32l.09-.09 5.65-5.66.08-.07-.08.07a1 1 0 01.65-.29H12z"/></symbol><symbol viewBox="0 0 24 24" id="24--arrow-top-left"><path d="M13 4a1 1 0 01.12 2h-5.7L19.7 18.3a1 1 0 01-1.32 1.49l-.1-.08L6 7.4V13a1 1 0 01-2 .12V4.98a1 1 0 010-.07V5a1 1 0 01.37-.78h.02l-.1.07a1 1 0 01.42-.25h.02a1 1 0 01.07-.02h.05A1 1 0 014.88 4H13z"/></symbol><symbol viewBox="0 0 24 24" id="24--arrow-top-right"><path d="M19 4h.02a1 1 0 01.06 0H19a1 1 0 01.18.02h.02a1 1 0 01.41.19l.02.01a1 1 0 01.16.16l-.08-.09a1 1 0 01.28.6v.02a1 1 0 010 .06L20 5v8a1 1 0 01-2 .12V7.4L5.7 19.71a1 1 0 01-1.49-1.32l.08-.1L16.6 6H11a1 1 0 01-.12-2H19z"/></symbol><symbol viewBox="0 0 24 24" id="24--arrow-up"><path d="M12 3h.06a1 1 0 01.03 0h.03l.02.01a1 1 0 01.09.02h.03l.03.01a1 1 0 01.23.1l.02.02.03.02a1 1 0 01.06.04l.08.07 5.65 5.66a1 1 0 01-1.32 1.5l-.09-.09L13 6.41V20a1 1 0 01-2 .12V6.4l-3.95 3.95a1 1 0 01-1.5-1.32l.09-.09 5.65-5.66.08-.07-.08.07a1 1 0 01.42-.25h.03a1 1 0 01.03-.01h.03a1 1 0 01.08-.02h.03a1 1 0 01.03 0l.04-.01H12z"/></symbol><symbol viewBox="0 0 24 24" id="24--arrow-wide"><path d="M11.2 2.8a1 1 0 01.08 1.33l-.09.1L4.41 11H22a1 1 0 01.12 2H4.4l6.78 6.78a1 1 0 01-1.32 1.5l-.1-.09-8.48-8.48-.07-.08.07.08a1 1 0 01-.13-.17l-.01-.02h-.01l-.01-.03A1 1 0 011 12v-.02a1 1 0 010-.07V12a1 1 0 01.3-.7l8.48-8.5a1 1 0 011.41 0z"/></symbol><symbol viewBox="0 0 24 24" id="24--arrow-wide-bottom-left"><path d="M21.7 2.3a1 1 0 01.09 1.31l-.08.1L5.4 20H15a1 1 0 01.12 2H2.97a1 1 0 01-.06 0h-.03l-.03-.01h-.03l-.02-.01a1 1 0 01-.59-.37l.08.1A1 1 0 012 21V9a1 1 0 012-.12v9.7L20.3 2.3a1 1 0 011.4 0z"/></symbol><symbol viewBox="0 0 24 24" id="24--arrow-wide-bottom-right"><path d="M9 22a1 1 0 01-.12-2h9.72L2.29 3.7a1 1 0 011.32-1.49l.1.08L20 18.6V9a1 1 0 012-.12v12.15a1 1 0 010 .05V21a1 1 0 01-.39.79l.1-.08a1 1 0 01-.42.25h-.02a1 1 0 01-.1.02h-.02l-.03.01a1 1 0 01-.06 0h-.03L21 22H9z"/></symbol><symbol viewBox="0 0 24 24" id="24--arrow-wide-down"><path d="M12 1a1 1 0 011 .88V19.6l6.78-6.78a1 1 0 011.5 1.32l-.09.1-8.48 8.48a1 1 0 01-.09.07l.09-.07a1 1 0 01-.17.13l-.02.01v.01a1 1 0 01-.18.08h-.02a1 1 0 01-.1.03l-.02.01a1 1 0 01-.2.02h-.03a1 1 0 01-.06 0h-.03l-.02-.01a1 1 0 01-.38-.14h-.02l-.03-.03a1 1 0 01-.14-.11l-8.48-8.49a1 1 0 011.32-1.5l.1.09L11 19.59V2a1 1 0 011-1z"/></symbol><symbol viewBox="0 0 24 24" id="24--arrow-wide-left"><path d="M11.2 2.8a1 1 0 01.08 1.33l-.09.1L4.41 11H22a1 1 0 01.12 2H4.4l6.78 6.78a1 1 0 01-1.32 1.5l-.1-.09-8.48-8.48-.07-.08.07.08a1 1 0 01-.13-.17l-.01-.02h-.01l-.01-.03A1 1 0 011 12v-.02a1 1 0 010-.07V12a1 1 0 01.3-.7l8.48-8.5a1 1 0 011.41 0z"/></symbol><symbol viewBox="0 0 24 24" id="24--arrow-wide-right"><path d="M14.13 2.72l.1.09 8.48 8.48a1 1 0 01.08.1l-.08-.1A1 1 0 0123 12v.03a1 1 0 010 .06V12a1 1 0 01-.13.49l-.01.02a1 1 0 01-.08.11l-.07.09-8.49 8.48a1 1 0 01-1.5-1.32l.09-.1L19.59 13H2a1 1 0 01-.12-2H19.6l-6.8-6.78a1 1 0 011.32-1.5z"/></symbol><symbol viewBox="0 0 24 24" id="24--arrow-wide-top-left"><path d="M15 2a1 1 0 01.12 2H5.4l16.3 16.3a1 1 0 01-1.32 1.49l-.1-.08L4 5.4V15a1 1 0 01-2 .12V2.98a1 1 0 010-.07V3a1 1 0 01.37-.78h.02l-.1.07a1 1 0 01.42-.25h.02a1 1 0 01.07-.02h.05A1 1 0 012.88 2H15z"/></symbol><symbol viewBox="0 0 24 24" id="24--arrow-wide-top-right"><path d="M21 2h.02a1 1 0 01.06 0H21a1 1 0 01.18.02h.02a1 1 0 01.41.19l.02.01a1 1 0 01.16.16l-.08-.09a1 1 0 01.29.68V15a1 1 0 01-2 .12V5.4L3.7 21.71a1 1 0 01-1.49-1.32l.08-.1L18.6 4H9a1 1 0 01-.12-2H21z"/></symbol><symbol viewBox="0 0 24 24" id="24--arrow-wide-up"><path d="M12 1h.06a1 1 0 01.03 0h.03l.02.01h.04a1 1 0 01.05.02h.03a1 1 0 01.23.1l.02.01a1 1 0 01.11.08l.09.07 8.48 8.49a1 1 0 01-1.32 1.5l-.1-.09L13 4.41V22a1 1 0 01-2 .12V4.4l-6.78 6.8a1 1 0 01-1.5-1.32l.09-.1 8.48-8.48.08-.07h.01l-.09.07a1 1 0 01.48-.26h.03a1 1 0 01.08-.02h.03a1 1 0 01.03 0l.04-.01H12z"/></symbol><symbol viewBox="0 0 24 24" id="24--arrows"><path d="M8.7 13.3a1 1 0 01.09 1.31l-.08.1L6.4 17H20a1 1 0 01.12 2H6.4l2.3 2.3a1 1 0 01-1.32 1.49l-.1-.08-4-4-.07-.08v-.01l.07.09A1 1 0 013 18v-.02a1 1 0 010-.07V18a1 1 0 01.3-.7l4-4a1 1 0 011.4 0zm0-12a1 1 0 01.1 1.3l-.08.1L6.4 5H20a1 1 0 01.12 2H6.4l2.3 2.3a1 1 0 01-1.32 1.49l-.1-.08-4-4-.07-.08v-.01l.07.09A1 1 0 013 6v-.02a1 1 0 010-.07V6a1 1 0 01.3-.7l4-4a1 1 0 011.4 0z"/></symbol><symbol viewBox="0 0 24 24" id="24--arrows-down"><path d="M18 3a1 1 0 011 1v14.24l2.62-2.62.1-.08a1 1 0 011.32 1.5l-4 4a1 1 0 01-.54.27l-.11.02h-.12a1 1 0 01-.65-.3l-4-4-.08-.09a1 1 0 011.5-1.32L17 17.6V3.88A1 1 0 0118 3zM6 3a1 1 0 011 1v14.24l2.62-2.62.1-.08a1 1 0 011.32 1.5l-4 4a1 1 0 01-.54.27l-.11.02h-.12a1 1 0 01-.65-.3l-4-4-.08-.09a1 1 0 011.5-1.32L5 17.6V3.88A1 1 0 016 3z"/></symbol><symbol viewBox="0 0 24 24" id="24--arrows-down-up"><path d="M6 3a1 1 0 011 1v14.24l2.62-2.62.1-.08a1 1 0 011.32 1.5l-4 4a1 1 0 01-.54.27l-.11.02h-.12a1 1 0 01-.65-.3l-4-4-.08-.09a1 1 0 011.5-1.32L5 17.6V3.88A1 1 0 016 3zm12 0a1 1 0 01.84.46l.01.02a1 1 0 01.1.06l.09.08 4 4a1 1 0 01-1.32 1.5l-.1-.08L19 6.4V20a1 1 0 01-2 .12V7.07l-1.96 1.97a1 1 0 01-1.5-1.32l.08-.1L17 4.24V4a1 1 0 011-1z"/></symbol><symbol viewBox="0 0 24 24" id="24--arrows-left"><path d="M8.7 13.3a1 1 0 01.09 1.31l-.08.1L6.4 17H20a1 1 0 01.12 2H6.4l2.3 2.3a1 1 0 01-1.32 1.49l-.1-.08-4-4-.07-.08v-.01l.07.09A1 1 0 013 18v-.02a1 1 0 010-.07V18a1 1 0 01.3-.7l4-4a1 1 0 011.4 0zm0-12a1 1 0 01.1 1.3l-.08.1L6.4 5H20a1 1 0 01.12 2H6.4l2.3 2.3a1 1 0 01-1.32 1.49l-.1-.08-4-4-.07-.08v-.01l.07.09A1 1 0 013 6v-.02a1 1 0 010-.07V6a1 1 0 01.3-.7l4-4a1 1 0 011.4 0z"/></symbol><symbol viewBox="0 0 24 24" id="24--arrows-left-right"><path d="M15.3 13.3a1 1 0 011.4 0l4 4a1 1 0 01.08.07v.01l.02.02a1.03 1.03 0 01.2.6v-.09a1 1 0 010 .06V18a1.02 1.02 0 01-.15.52v.02l-.04.05a1 1 0 01-.1.12l.08-.1-.01.02-.07.08-4 4-.1.08a1 1 0 01-1.32-1.5l2.3-2.3L4 19h-.12A1 1 0 014 17h13.58l-2.29-2.3-.08-.09a1 1 0 01.08-1.32zm-6.6-12a1 1 0 01.1 1.3l-.08.1L6.4 5H20a1 1 0 01.12 2H6.4l2.3 2.3a1 1 0 01-1.32 1.49l-.1-.08-4-4-.07-.08v-.01l.07.09A1 1 0 013 6v-.02a1 1 0 010-.07V6a1 1 0 01.3-.7l4-4a1 1 0 011.4 0z"/></symbol><symbol viewBox="0 0 24 24" id="24--arrows-right"><path d="M15.3 13.3a1 1 0 011.4 0l4 4a1 1 0 01.08.07v.01l.02.02a1.03 1.03 0 01.2.6v-.09a1 1 0 010 .06V18a1.02 1.02 0 01-.15.52v.02l-.04.05a1 1 0 01-.1.12l.08-.1-.01.02-.07.08-4 4-.1.08a1 1 0 01-1.32-1.5l2.3-2.3L4 19h-.12A1 1 0 014 17h13.58l-2.29-2.3-.08-.09a1 1 0 01.08-1.32zm0-12a1 1 0 011.4 0l4 4a1 1 0 01.08.07v.01l.02.02a1.03 1.03 0 01.2.6v-.09a1 1 0 010 .06V6a1.02 1.02 0 01-.15.52v.02l-.04.05a1 1 0 01-.1.12l.08-.1-.01.02-.07.08-4 4-.1.08a1 1 0 01-1.32-1.5L17.6 7H3.88A1 1 0 014 5h13.58L15.3 2.7l-.08-.09a1 1 0 01.08-1.32z"/></symbol><symbol viewBox="0 0 24 24" id="24--arrows-right-left"><path d="M8.7 13.3a1 1 0 01.09 1.31l-.08.1L6.4 17H20a1 1 0 01.12 2H6.4l2.3 2.3a1 1 0 01-1.32 1.49l-.1-.08-4-4-.07-.08v-.01l.07.09A1 1 0 013 18v-.02a1 1 0 010-.07V18a1 1 0 01.3-.7l4-4a1 1 0 011.4 0zm6.6-12a1 1 0 011.4 0l4 4a1 1 0 01.08.07v.01l.02.02a1.03 1.03 0 01.2.6v-.09a1 1 0 010 .06V6a1.02 1.02 0 01-.15.52v.02l-.04.05a1 1 0 01-.1.12l.08-.1-.01.02-.07.08-4 4-.1.08a1 1 0 01-1.32-1.5L17.6 7H3.88A1 1 0 014 5h13.58L15.3 2.7l-.08-.09a1 1 0 01.08-1.32z"/></symbol><symbol viewBox="0 0 24 24" id="24--arrows-up"><path d="M18 3a1 1 0 01.84.46l.01.02a1 1 0 01.1.06l.09.08 4 4a1 1 0 01-1.32 1.5l-.1-.08L19 6.4V20a1 1 0 01-2 .12V7.07l-1.96 1.97a1 1 0 01-1.5-1.32l.08-.1L17 4.24V4a1 1 0 011-1zM6 3a1 1 0 01.84.46l.01.02a1 1 0 01.1.06l.09.08 4 4a1 1 0 01-1.32 1.5l-.1-.08L7 6.4V20a1 1 0 01-2 .12V7.07L3.04 9.04a1 1 0 01-1.5-1.32l.08-.1L5 4.24V4a1 1 0 011-1z"/></symbol><symbol viewBox="0 0 24 24" id="24--arrows-up-down"><path d="M18 3a1 1 0 011 1v14.24l2.62-2.62.1-.08a1 1 0 011.32 1.5l-4 4a1 1 0 01-.54.27l-.11.02h-.12a1 1 0 01-.65-.3l-4-4-.08-.09a1 1 0 011.5-1.32L17 17.6V3.88A1 1 0 0118 3zM6 3a1 1 0 01.84.46l.01.02a1 1 0 01.1.06l.09.08 4 4a1 1 0 01-1.32 1.5l-.1-.08L7 6.4V20a1 1 0 01-2 .12V7.07L3.04 9.04a1 1 0 01-1.5-1.32l.08-.1L5 4.24V4a1 1 0 011-1z"/></symbol><symbol viewBox="0 0 24 24" id="24--briefcase"><path d="M9 16v2h6v-2h7v4a2 2 0 01-2 2H4a2 2 0 01-2-2v-4h7zm5-14a3 3 0 013 2.82V6h3a2 2 0 012 2v6h-7v-2H9v2H2V8c0-1.1.9-2 2-2h3V5a3 3 0 012.82-3H14zm0 2h-4a1 1 0 00-1 .88V6h6V5a1 1 0 00-.88-1H14z"/></symbol><symbol viewBox="0 0 24 24" id="24--calculator"><path d="M18 1a2 2 0 012 2v18a2 2 0 01-2 2H6a2 2 0 01-2-2V3c0-1.1.9-2 2-2h12zm-1.5 12c-.83 0-1.5.67-1.5 1.5v5a1.5 1.5 0 003 0v-5c0-.83-.67-1.5-1.5-1.5zm-9 5a1.5 1.5 0 100 3 1.5 1.5 0 000-3zm4.5 0a1.5 1.5 0 100 3 1.5 1.5 0 000-3zm-4.5-5a1.5 1.5 0 100 3 1.5 1.5 0 000-3zm4.5 0a1.5 1.5 0 100 3 1.5 1.5 0 000-3zM7.5 8a1.5 1.5 0 100 3 1.5 1.5 0 000-3zM12 8a1.5 1.5 0 100 3 1.5 1.5 0 000-3zm4.5 0a1.5 1.5 0 100 3 1.5 1.5 0 000-3zm0-5h-9a1.5 1.5 0 000 3h9a1.5 1.5 0 000-3z"/></symbol><symbol viewBox="0 0 24 24" id="24--calendar"><path d="M22 10v10a2 2 0 01-2 2H4a2 2 0 01-2-2V10h20zm-6-6v1.12a1 1 0 002 0V4h2a2 2 0 012 1.85V8H2V6c0-1.1.9-2 2-2h2V3a1 1 0 012-.12V4H6v1.12a1 1 0 002 0V4h8zm1-2a1 1 0 011 .88V4h-2V3a1 1 0 011-1z"/></symbol><symbol viewBox="0 0 24 24" id="24--calendar-check"><path d="M22 10v10a2 2 0 01-2 2H4a2 2 0 01-2-2V10h20zm-7.34 3.25a1 1 0 00-1.41.09l-2.78 3.15-.72-.82-.09-.09A1 1 0 008.25 17l1.47 1.67.1.1a1 1 0 001.4-.1l3.53-4 .08-.1a1 1 0 00-.17-1.31zM16 4v1.12a1 1 0 002 0V4h2a2 2 0 012 1.85V8H2V6c0-1.1.9-2 2-2h2V3a1 1 0 012-.12V4H6v1.12a1 1 0 002 0V4h8zm1-2a1 1 0 011 .88V4h-2V3a1 1 0 011-1z"/></symbol><symbol viewBox="0 0 24 24" id="24--calendar-check-outline"><path d="M6 4v1.12a1 1 0 002 0V4h8v1.12a1 1 0 002 0V4h2a2 2 0 012 1.85V19a3 3 0 01-2.82 3H5a3 3 0 01-3-2.82V6c0-1.1.9-2 2-2h2zm14 4H4v11a1 1 0 00.77.97l.11.02L5 20h14a1 1 0 001-.88V8zm-5.34 3.25a1 1 0 01.17 1.31l-.08.1-3.53 4a1 1 0 01-1.4.1l-.1-.1L8.25 15a1 1 0 011.41-1.4l.09.08.72.82 2.78-3.15a1 1 0 011.41-.09zM17 2a1 1 0 011 .88V4h-2V3a1 1 0 011-1zM7 2a1 1 0 011 .88V4H6V3a1 1 0 011-1z"/></symbol><symbol viewBox="0 0 24 24" id="24--calendar-cross"><path d="M22 10v10a2 2 0 01-2 2H4a2 2 0 01-2-2V10h20zm-11.39 3.21a1 1 0 00-1.32 1.5L10.6 16l-1.3 1.3-.08.09a1 1 0 001.5 1.32L12 17.4l1.3 1.3.09.08a1 1 0 001.32-1.5L13.4 16l1.3-1.3.08-.09a1 1 0 00-1.5-1.32L12 14.6l-1.3-1.3zM16 4v1.12a1 1 0 002 0V4h2a2 2 0 012 1.85V8H2V6c0-1.1.9-2 2-2h2V3a1 1 0 012-.12V4H6v1.12a1 1 0 002 0V4h8zm1-2a1 1 0 011 .88V4h-2V3a1 1 0 011-1z"/></symbol><symbol viewBox="0 0 24 24" id="24--calendar-cross-outline"><path d="M6 4v1.12a1 1 0 002 0V4h8v1.12a1 1 0 002 0V4h2a2 2 0 012 1.85V19a3 3 0 01-2.82 3H5a3 3 0 01-3-2.82V6c0-1.1.9-2 2-2h2zm14 4H4v11a1 1 0 00.77.97l.11.02L5 20h14a1 1 0 001-.88V8zm-9.39 3.21l.1.08L12 12.6l1.3-1.3a1 1 0 011.49 1.32l-.08.1L13.4 14l1.3 1.3a1 1 0 01-1.32 1.49l-.1-.08L12 15.4l-1.3 1.3a1 1 0 01-1.49-1.32l.08-.1L10.6 14l-1.3-1.3a1 1 0 011.32-1.49zM17 2a1 1 0 011 .88V4h-2V3a1 1 0 011-1zM7 2a1 1 0 011 .88V4H6V3a1 1 0 011-1z"/></symbol><symbol viewBox="0 0 24 24" id="24--calendar-help"><path d="M22 10v10a2 2 0 01-2 2H4a2 2 0 01-2-2V10h20zm-10 9a1 1 0 100 2 1 1 0 000-2zm.1-8c-1.1 0-2.1.6-2.6 1.5l-.03.05-.05.1a1 1 0 00.42 1.24l.01.01.1.05a.96.96 0 001.23-.41l.02-.04.08-.1a1 1 0 01.82-.4c.6 0 1 .3 1 .9 0 .3-.1.5-.6.8-.6.4-1.5 1-1.5 2.3v1h2v-1.05c.02-.17.15-.28.6-.55.6-.4 1.5-1 1.5-2.4 0-1.7-1.3-3-3-3zM6 4v1.12a1 1 0 002 0V4h8v1.12a1 1 0 002 0V4h2a2 2 0 012 1.85V8H2V6c0-1.1.9-2 2-2h2zm11-2a1 1 0 011 .88V4h-2V3a1 1 0 011-1zM7 2a1 1 0 011 .88V4H6V3a1 1 0 011-1z"/></symbol><symbol viewBox="0 0 24 24" id="24--calendar-help-outline"><path d="M6 4v1.12a1 1 0 002 0V4h8v1.12a1 1 0 002 0V4h2a2 2 0 012 1.85V19a3 3 0 01-2.82 3H5a3 3 0 01-3-2.82V6c0-1.1.9-2 2-2h2zm14 4H4v11a1 1 0 00.77.97l.11.02L5 20h14a1 1 0 001-.88V8zm-8 9a1 1 0 110 2 1 1 0 010-2zm.1-8c1.7 0 3 1.3 3 3 0 1.4-.9 2-1.5 2.4-.45.27-.58.38-.6.55V16h-2v-1c0-1.3.9-1.9 1.5-2.3.5-.3.6-.5.6-.8 0-.6-.4-.9-1-.9a1 1 0 00-.82.4l-.08.1-.02.04a.96.96 0 01-1.22.41l-.11-.05a1 1 0 01-.43-1.24l.05-.11.03-.05C10 9.6 11 9 12.1 9zM17 2a1 1 0 011 .88V4h-2V3a1 1 0 011-1zM7 2a1 1 0 011 .88V4H6V3a1 1 0 011-1z"/></symbol><symbol viewBox="0 0 24 24" id="24--calendar-info"><path d="M22 10v10a2 2 0 01-2 2H4a2 2 0 01-2-2V10h20zm-10 5a1 1 0 00-1 1v3a1 1 0 002 0v-3a1 1 0 00-1-1zm0-3a1 1 0 100 2 1 1 0 000-2zm4-8v1.12a1 1 0 002 0V4h2a2 2 0 012 1.85V8H2V6c0-1.1.9-2 2-2h2V3a1 1 0 012-.12V4H6v1.12a1 1 0 002 0V4h8zm1-2a1 1 0 011 .88V4h-2V3a1 1 0 011-1z"/></symbol><symbol viewBox="0 0 24 24" id="24--calendar-info-outline"><path d="M6 4v1.12a1 1 0 002 0V4h8v1.12a1 1 0 002 0V4h2a2 2 0 012 1.85V19a3 3 0 01-2.82 3H5a3 3 0 01-3-2.82V6c0-1.1.9-2 2-2h2zm14 4H4v11a1 1 0 00.77.97l.11.02L5 20h14a1 1 0 001-.88V8zm-8 5a1 1 0 011 1v3a1 1 0 01-2 0v-3a1 1 0 011-1zm0-3a1 1 0 110 2 1 1 0 010-2zm5-8a1 1 0 011 .88V4h-2V3a1 1 0 011-1zM7 2a1 1 0 011 .88V4H6V3a1 1 0 011-1z"/></symbol><symbol viewBox="0 0 24 24" id="24--calendar-list"><path d="M22 10v10a2 2 0 01-2 2H4a2 2 0 01-2-2V10h20zm-4 7H5.88A1 1 0 006 19h12.12a1 1 0 00-.12-2zm0-4H5.88A1 1 0 006 15h12.12a1 1 0 00-.12-2zM6 4v1.12a1 1 0 002 0V4h8v1.12a1 1 0 002 0V4h2a2 2 0 012 1.85V8H2V6c0-1.1.9-2 2-2h2zm11-2a1 1 0 011 .88V4h-2V3a1 1 0 011-1zM7 2a1 1 0 011 .88V4H6V3a1 1 0 011-1z"/></symbol><symbol viewBox="0 0 24 24" id="24--calendar-list-outline"><path d="M6 4v1.12a1 1 0 002 0V4h8v1.12a1 1 0 002 0V4h2a2 2 0 012 1.85V19a3 3 0 01-2.82 3H5a3 3 0 01-3-2.82V6c0-1.1.9-2 2-2h2zm14 4H4v11a1 1 0 00.77.97l.11.02L5 20h14a1 1 0 001-.88V8zm-3 7a1 1 0 01.12 2H7a1 1 0 01-.12-2H17zm0-4a1 1 0 01.12 2H7a1 1 0 01-.12-2H17zm0-9a1 1 0 011 .88V4h-2V3a1 1 0 011-1zM7 2a1 1 0 011 .88V4H6V3a1 1 0 011-1z"/></symbol><symbol viewBox="0 0 24 24" id="24--calendar-minus"><path d="M22 10v10a2 2 0 01-2 2H4a2 2 0 01-2-2V10h20zm-7 5H8.88A1 1 0 009 17h6.12a1 1 0 00-.12-2zm1-11v1.12a1 1 0 002 0V4h2a2 2 0 012 1.85V8H2V6c0-1.1.9-2 2-2h2V3a1 1 0 012-.12V4H6v1.12a1 1 0 002 0V4h8zm1-2a1 1 0 011 .88V4h-2V3a1 1 0 011-1z"/></symbol><symbol viewBox="0 0 24 24" id="24--calendar-minus-outline"><path d="M6 4v1.12a1 1 0 002 0V4h8v1.12a1 1 0 002 0V4h2a2 2 0 012 1.85V19a3 3 0 01-2.82 3H5a3 3 0 01-3-2.82V6c0-1.1.9-2 2-2h2zm14 4H4v11a1 1 0 00.77.97l.11.02L5 20h14a1 1 0 001-.88V8zm-5 5a1 1 0 01.12 2H9a1 1 0 01-.12-2H15zm2-11a1 1 0 011 .88V4h-2V3a1 1 0 011-1zM7 2a1 1 0 011 .88V4H6V3a1 1 0 011-1z"/></symbol><symbol viewBox="0 0 24 24" id="24--calendar-outline"><path d="M16 4v1.12a1 1 0 002 0V4h2a2 2 0 012 1.85V19a3 3 0 01-3 3H5a3 3 0 01-3-3V6c0-1.1.9-2 2-2h2V3a1 1 0 012-.12V4H6v1.12a1 1 0 002 0V4h8zm4 4H4v11a1 1 0 00.88 1H19a1 1 0 001-1V8zm-3-6a1 1 0 011 .88V4h-2V3a1 1 0 011-1z"/></symbol><symbol viewBox="0 0 24 24" id="24--calendar-plus"><path d="M22 10v10a2 2 0 01-2 2H4a2 2 0 01-2-2V10h20zm-10 2a1 1 0 00-1 1v2H8.88A1 1 0 009 17h2v2.12a1 1 0 002-.12v-2h2.12a1 1 0 00-.12-2h-2v-2.12a1 1 0 00-1-.88zm4-8v1.12a1 1 0 002 0V4h2a2 2 0 012 1.85V8H2V6c0-1.1.9-2 2-2h2V3a1 1 0 012-.12V4H6v1.12a1 1 0 002 0V4h8zm1-2a1 1 0 011 .88V4h-2V3a1 1 0 011-1z"/></symbol><symbol viewBox="0 0 24 24" id="24--calendar-plus-outline"><path d="M6 4v1.12a1 1 0 002 0V4h8v1.12a1 1 0 002 0V4h2a2 2 0 012 1.85V19a3 3 0 01-2.82 3H5a3 3 0 01-3-2.82V6c0-1.1.9-2 2-2h2zm14 4H4v11a1 1 0 00.77.97l.11.02L5 20h14a1 1 0 001-.88V8zm-8 2a1 1 0 011 .88V13h2a1 1 0 01.12 2H13v2a1 1 0 01-2 .12V15H9a1 1 0 01-.12-2H11v-2a1 1 0 011-1zm5-8a1 1 0 011 .88V4h-2V3a1 1 0 011-1zM7 2a1 1 0 011 .88V4H6V3a1 1 0 011-1z"/></symbol><symbol viewBox="0 0 24 24" id="24--calendar-warning"><path d="M22 10v10a2 2 0 01-2 2H4a2 2 0 01-2-2V10h20zm-10 8a1 1 0 100 2 1 1 0 000-2zm0-6a1 1 0 00-1 1v3a1 1 0 002 0v-3a1 1 0 00-1-1zm4-8v1.12a1 1 0 002 0V4h2a2 2 0 012 1.85V8H2V6c0-1.1.9-2 2-2h2V3a1 1 0 012-.12V4H6v1.12a1 1 0 002 0V4h8zm1-2a1 1 0 011 .88V4h-2V3a1 1 0 011-1z"/></symbol><symbol viewBox="0 0 24 24" id="24--calendar-warning-outline"><path d="M6 4v1.12a1 1 0 002 0V4h8v1.12a1 1 0 002 0V4h2a2 2 0 012 1.85V19a3 3 0 01-2.82 3H5a3 3 0 01-3-2.82V6c0-1.1.9-2 2-2h2zm14 4H4v11a1 1 0 00.77.97l.11.02L5 20h14a1 1 0 001-.88V8zm-8 8a1 1 0 110 2 1 1 0 010-2zm0-6a1 1 0 011 1v3a1 1 0 01-2 0v-3a1 1 0 011-1zm5-8a1 1 0 011 .88V4h-2V3a1 1 0 011-1zM7 2a1 1 0 011 .88V4H6V3a1 1 0 011-1z"/></symbol><symbol viewBox="0 0 24 24" id="24--check"><path d="M19.27 5.31a1 1 0 011.54 1.28l-.08.1-11.3 12a1 1 0 01-1.36.08l-.1-.08-4.7-5a1 1 0 011.37-1.46l.09.08 3.97 4.23L19.27 5.31z"/></symbol><symbol viewBox="0 0 24 24" id="24--check-circle"><path d="M12 1a11 11 0 110 22 11 11 0 010-22zm5.66 6.25a1 1 0 00-1.41.09l-6.3 7.15L7.74 12l-.09-.1a1 1 0 00-1.41 1.42l2.94 3.33.1.1a1 1 0 001.4-.1l7.06-8 .08-.1a1 1 0 00-.17-1.31z"/></symbol><symbol viewBox="0 0 24 24" id="24--check-circle-outline"><path d="M12 1a11 11 0 110 22 11 11 0 010-22zm0 2a9 9 0 100 18 9 9 0 000-18zm5.66 4.25a1 1 0 01.17 1.31l-.08.1-7.06 8a1 1 0 01-1.4.1l-.1-.1-2.94-3.33a1 1 0 011.41-1.41l.09.09 2.2 2.48 6.3-7.15a1 1 0 011.41-.09z"/></symbol><symbol viewBox="0 0 24 24" id="24--check-hexagon"><path d="M16.32 1a2 2 0 011.72.98l5.35 9a2 2 0 010 2.04l-5.35 9a2 2 0 01-1.72.98H7.68a2 2 0 01-1.72-.98l-5.35-9a2 2 0 010-2.04l5.35-9A2 2 0 017.68 1h8.64zm.37 7.27a1 1 0 00-1.42.04l-4.92 5.23-1.62-1.73-.1-.08a1 1 0 00-1.36 1.46l2.35 2.5.1.08a1 1 0 001.36-.08l5.65-6 .08-.1a1 1 0 00-.12-1.32z"/></symbol><symbol viewBox="0 0 24 24" id="24--check-hexagon-outline"><path d="M16.32 1a3 3 0 012.63 1.55l4.4 8c.5.9.5 2 0 2.9l-4.4 8A3 3 0 0116.32 23H7.68a3 3 0 01-2.63-1.55l-4.4-8a3 3 0 010-2.9l4.4-8A3 3 0 017.68 1zm0 2H7.68a1 1 0 00-.87.52l-4.4 8a1 1 0 000 .96l4.4 8a1 1 0 00.87.52h8.64a1 1 0 00.87-.52l4.4-8a1 1 0 000-.96l-4.4-8a1 1 0 00-.87-.52zm.37 5.27a1 1 0 01.12 1.32l-.08.1-5.65 6a1 1 0 01-1.37.08l-.09-.08-2.35-2.5a1 1 0 011.37-1.46l.09.08 1.62 1.73 4.92-5.23a1 1 0 011.42-.04z"/></symbol><symbol viewBox="0 0 24 24" id="24--check-large"><path d="M21.27 4.31a1 1 0 011.54 1.28l-.08.1-14.12 15a1 1 0 01-1.37.08l-.09-.08-5.88-6.25a1 1 0 011.37-1.46l.09.08 5.15 5.48 13.4-14.23z"/></symbol><symbol viewBox="0 0 24 24" id="24--check-small"><path d="M17.27 7.31a1 1 0 011.54 1.28l-.08.1-8.47 9a1 1 0 01-1.37.08l-.09-.08-3.53-3.75a1 1 0 011.37-1.46l.09.08 2.8 2.98 7.74-8.23z"/></symbol><symbol viewBox="0 0 24 24" id="24--check-square"><path d="M20 2a2 2 0 012 2v16a2 2 0 01-2 2H4a2 2 0 01-2-2V4c0-1.1.9-2 2-2h16zm-2.34 5.25a1 1 0 00-1.41.09l-6.3 7.15L7.74 12l-.09-.1a1 1 0 00-1.41 1.42l2.94 3.33.1.1a1 1 0 001.4-.1l7.06-8 .08-.1a1 1 0 00-.17-1.31z"/></symbol><symbol viewBox="0 0 24 24" id="24--check-square-outline"><path d="M19 2a3 3 0 013 3v14a3 3 0 01-3 3H5a3 3 0 01-3-3V5a3 3 0 013-3zm0 2H5a1 1 0 00-1 1v14a1 1 0 001 1h14a1 1 0 001-1V5a1 1 0 00-1-1zm-1.34 3.25a1 1 0 01.17 1.31l-.08.1-7.06 8a1 1 0 01-1.4.1l-.1-.1-2.94-3.33a1 1 0 011.41-1.41l.09.09 2.2 2.48 6.3-7.15a1 1 0 011.41-.09z"/></symbol><symbol viewBox="0 0 24 24" id="24--check-triangle"><path d="M9.37 3.7a3 3 0 015.26 0l7.62 13.85A3 3 0 0119.62 22H4.38a3 3 0 01-2.63-4.45zm5.3 8.55a1 1 0 00-1.42.09l-2.78 3.15-.72-.82-.09-.09A1 1 0 008.25 16l1.47 1.67.1.1a1 1 0 001.4-.1l3.53-4 .08-.1a1 1 0 00-.17-1.31z"/></symbol><symbol viewBox="0 0 24 24" id="24--check-triangle-outline"><path d="M9.37 3.7a3 3 0 015.26 0l7.62 13.85A3 3 0 0119.62 22H4.38a3 3 0 01-2.63-4.45zm3 .52a1 1 0 00-1.25.45L3.51 18.52A1 1 0 004.38 20h15.24a1 1 0 00.87-1.48L12.88 4.67a1 1 0 00-.4-.4zm2.3 8.03a1 1 0 01.16 1.31l-.08.1-3.53 4a1 1 0 01-1.4.1l-.1-.1L8.25 16a1 1 0 011.41-1.4l.09.08.72.82 2.78-3.15a1 1 0 011.41-.09z"/></symbol><symbol viewBox="0 0 24 24" id="24--checked"><path d="M8.9 14.75L19.6 4.02l2.12 2.12L8.91 18.99l-2.13-2.12L2.91 13l2.12-2.12z"/></symbol><symbol viewBox="0 0 24 24" id="24--chevron"><path d="M15.36 5.3a1 1 0 01.09 1.31l-.09.1-4.95 4.95 4.95 4.95a1 1 0 01-1.32 1.5l-.09-.09-5.66-5.66a1 1 0 010-1.41l5.66-5.66a1 1 0 011.41 0z"/></symbol><symbol viewBox="0 0 24 24" id="24--chevron-bottom-left"><path d="M8 7a1 1 0 011 .88V15h7a1 1 0 01.12 2H8a1 1 0 01-1-1V8a1 1 0 011-1z"/></symbol><symbol viewBox="0 0 24 24" id="24--chevron-bottom-right"><path d="M16 7a1 1 0 011 .88V16a1 1 0 01-1 1H8a1 1 0 01-.12-2H15V8a1 1 0 011-1z"/></symbol><symbol viewBox="0 0 24 24" id="24--chevron-down"><path d="M6.61 8.21l.1.08 4.95 4.95L16.6 8.3a1 1 0 011.5 1.32l-.09.1-5.66 5.65a1 1 0 01-.53.28l-.11.02h-.12a1 1 0 01-.65-.3L5.29 9.71a1 1 0 011.32-1.5z"/></symbol><symbol viewBox="0 0 24 24" id="24--chevron-left"><path d="M15.36 5.3a1 1 0 01.09 1.31l-.09.1-4.95 4.95 4.95 4.95a1 1 0 01-1.32 1.5l-.09-.09-5.66-5.66a1 1 0 010-1.41l5.66-5.66a1 1 0 011.41 0z"/></symbol><symbol viewBox="0 0 24 24" id="24--chevron-right"><path d="M9.61 5.21l.1.08 5.65 5.66a1 1 0 01.09 1.32l-.09.1-5.65 5.65a1 1 0 01-1.5-1.32l.08-.1 4.95-4.94L8.3 6.7a1 1 0 011.32-1.5z"/></symbol><symbol viewBox="0 0 24 24" id="24--chevron-top-left"><path d="M16 7a1 1 0 01.12 2H9v7a1 1 0 01-2 .12V8a1 1 0 011-1h8z"/></symbol><symbol viewBox="0 0 24 24" id="24--chevron-top-right"><path d="M16 7a1 1 0 011 .88V16a1 1 0 01-2 .12V9H8a1 1 0 01-.12-2H16z"/></symbol><symbol viewBox="0 0 24 24" id="24--chevron-up"><path d="M12.27 8.21l.1.08 5.65 5.66a1 1 0 01-1.32 1.5l-.1-.09-4.94-4.95-4.95 4.95a1 1 0 01-1.5-1.32l.08-.09 5.66-5.66A1 1 0 0111.6 8h.12a1 1 0 01.55.21z"/></symbol><symbol viewBox="0 0 24 24" id="24--chevron-wide"><path d="M15.2 2.8a1 1 0 01.08 1.33l-.09.1L7.41 12l7.78 7.78a1 1 0 01-1.32 1.5l-.1-.09-8.48-8.48a1 1 0 010-1.42l8.49-8.48a1 1 0 011.41 0z"/></symbol><symbol viewBox="0 0 24 24" id="24--chevron-wide-bottom-left"><path d="M6 5a1 1 0 011 .88V17h11a1 1 0 01.12 2H6a1 1 0 01-1-.88V6a1 1 0 011-1z"/></symbol><symbol viewBox="0 0 24 24" id="24--chevron-wide-bottom-right"><path d="M18 5a1 1 0 011 .88V18a1 1 0 01-.88 1H6a1 1 0 01-.12-2H17V6a1 1 0 011-1z"/></symbol><symbol viewBox="0 0 24 24" id="24--chevron-wide-down"><path d="M4.13 7.72l.1.09L12 15.59l7.78-7.78a1 1 0 011.5 1.32l-.09.1-8.48 8.48a1 1 0 01-.53.27l-.12.02h-.12a1 1 0 01-.65-.3L2.81 9.23a1 1 0 011.32-1.5z"/></symbol><symbol viewBox="0 0 24 24" id="24--chevron-wide-left"><path d="M15.2 2.8a1 1 0 01.08 1.33l-.09.1L7.41 12l7.78 7.78a1 1 0 01-1.32 1.5l-.1-.09-8.48-8.48a1 1 0 010-1.42l8.49-8.48a1 1 0 011.41 0z"/></symbol><symbol viewBox="0 0 24 24" id="24--chevron-wide-right"><path d="M9.13 2.72l.1.09 8.48 8.48a1 1 0 01.08 1.32l-.08.1-8.49 8.48a1 1 0 01-1.5-1.32l.09-.1L15.59 12 7.8 4.22a1 1 0 011.32-1.5z"/></symbol><symbol viewBox="0 0 24 24" id="24--chevron-wide-top-left"><path d="M19 6a1 1 0 01.12 2H8v11a1 1 0 01-2 .12V7a1 1 0 01.88-1H19z"/></symbol><symbol viewBox="0 0 24 24" id="24--chevron-wide-top-right"><path d="M18 6a1 1 0 011 1v12a1 1 0 01-2 .12V8H6a1 1 0 01-.12-2H18z"/></symbol><symbol viewBox="0 0 24 24" id="24--chevron-wide-up"><path d="M12.61 6.21l.1.08 8.48 8.49a1 1 0 01-1.32 1.5l-.1-.09L12 8.41 4.22 16.2a1 1 0 01-1.5-1.32l.09-.1 8.48-8.48a1 1 0 01.65-.29h.12a1 1 0 01.55.21z"/></symbol><symbol viewBox="0 0 24 24" id="24--clock"><path d="M12 1a11 11 0 110 22 11 11 0 010-22zm5.78 6.38a1 1 0 00-1.4-.16l-4.3 3.44L9.7 8.29l-.1-.08a1 1 0 00-1.32 1.5l3 3 .1.08a1 1 0 001.23 0l5-4 .1-.1a1 1 0 00.06-1.31z"/></symbol><symbol viewBox="0 0 24 24" id="24--cog"><path d="M20.87 13.45a9.03 9.03 0 000-2.9l2.1-2.03a1 1 0 00.17-1.22l-1.5-2.6a1 1 0 00-1.14-.46l-2.8.8a9.02 9.02 0 00-2.53-1.45l-.7-2.83A1 1 0 0013.5 0h-3a1 1 0 00-.97.76l-.7 2.83c-.92.34-1.77.83-2.53 1.45l-2.8-.8a1 1 0 00-1.14.46L.86 7.3a1 1 0 00.17 1.22l2.1 2.03a9.03 9.03 0 000 2.9l-2.1 2.03a1 1 0 00-.17 1.22l1.5 2.6a1 1 0 001.14.46l2.8-.8a8.85 8.85 0 002.53 1.45l.7 2.83a1 1 0 00.97.76h3a1 1 0 00.97-.76l.7-2.83a9.02 9.02 0 002.53-1.45l2.8.8a1 1 0 001.14-.46l1.5-2.6a1 1 0 00-.17-1.22l-2.1-2.03zM12 16a4 4 0 110-8 4 4 0 010 8z"/></symbol><symbol viewBox="0 0 24 24" id="24--cross"><path d="M6.61 5.21l.1.08L12 10.6l5.3-5.3a1 1 0 011.49 1.32l-.08.1L13.4 12l5.3 5.3a1 1 0 01-1.32 1.49l-.1-.08L12 13.4l-5.3 5.3a1 1 0 01-1.49-1.32l.08-.1L10.6 12 5.3 6.7a1 1 0 011.32-1.49z"/></symbol><symbol viewBox="0 0 24 24" id="24--cross-circle"><path d="M12 1a11 11 0 110 22 11 11 0 010-22zM8.61 7.21a1 1 0 00-1.32 1.5L10.6 12l-3.3 3.3-.08.09a1 1 0 001.5 1.32L12 13.4l3.3 3.3.09.08a1 1 0 001.32-1.5L13.4 12l3.3-3.3.08-.09a1 1 0 00-1.5-1.32L12 10.6 8.7 7.3z"/></symbol><symbol viewBox="0 0 24 24" id="24--cross-circle-outline"><path d="M12 1a11 11 0 110 22 11 11 0 010-22zm0 2a9 9 0 100 18 9 9 0 000-18zM8.61 7.21l.1.08L12 10.6l3.3-3.3a1 1 0 011.49 1.32l-.08.1L13.4 12l3.3 3.3a1 1 0 01-1.32 1.49l-.1-.08L12 13.4l-3.3 3.3a1 1 0 01-1.49-1.32l.08-.1L10.6 12 7.3 8.7a1 1 0 011.32-1.49z"/></symbol><symbol viewBox="0 0 24 24" id="24--cross-hexagon"><path d="M16.32 1a2 2 0 011.72.98l5.35 9a2 2 0 010 2.04l-5.35 9a2 2 0 01-1.72.98H7.68a2 2 0 01-1.72-.98l-5.35-9a2 2 0 010-2.04l5.35-9A2 2 0 017.68 1h8.64zm-6.7 7.21a1 1 0 00-1.33 1.5L10.6 12l-2.3 2.3-.08.09a1 1 0 001.5 1.32L12 13.4l2.3 2.3.09.08a1 1 0 001.32-1.5L13.4 12l2.3-2.3.08-.09a1 1 0 00-1.5-1.32L12 10.6 9.7 8.3z"/></symbol><symbol viewBox="0 0 24 24" id="24--cross-hexagon-outline"><path d="M16.32 1a3 3 0 012.63 1.55l4.4 8c.5.9.5 2 0 2.9l-4.4 8A3 3 0 0116.32 23H7.68a3 3 0 01-2.63-1.55l-4.4-8a3 3 0 010-2.9l4.4-8A3 3 0 017.68 1zm0 2H7.68a1 1 0 00-.87.52l-4.4 8a1 1 0 000 .96l4.4 8a1 1 0 00.87.52h8.64a1 1 0 00.87-.52l4.4-8a1 1 0 000-.96l-4.4-8a1 1 0 00-.87-.52zm-6.7 5.21l.09.08L12 10.6l2.3-2.3a1 1 0 011.49 1.32l-.08.1L13.4 12l2.3 2.3a1 1 0 01-1.32 1.49l-.1-.08L12 13.4l-2.3 2.3a1 1 0 01-1.49-1.32l.08-.1L10.6 12 8.3 9.7a1 1 0 011.32-1.49z"/></symbol><symbol viewBox="0 0 24 24" id="24--cross-large"><path d="M4.61 3.21l.1.08L12 10.6l7.3-7.3a1 1 0 011.49 1.32l-.08.1L13.4 12l7.3 7.3a1 1 0 01-1.32 1.49l-.1-.08L12 13.4l-7.3 7.3a1 1 0 01-1.49-1.32l.08-.1L10.6 12 3.3 4.7a1 1 0 011.32-1.49z"/></symbol><symbol viewBox="0 0 24 24" id="24--cross-small"><path d="M8.61 7.21l.1.08L12 10.6l3.3-3.3a1 1 0 011.49 1.32l-.08.1L13.4 12l3.3 3.3a1 1 0 01-1.32 1.49l-.1-.08L12 13.4l-3.3 3.3a1 1 0 01-1.49-1.32l.08-.1L10.6 12 7.3 8.7a1 1 0 011.32-1.49z"/></symbol><symbol viewBox="0 0 24 24" id="24--cross-square"><path d="M20 2a2 2 0 012 2v16a2 2 0 01-2 2H4a2 2 0 01-2-2V4c0-1.1.9-2 2-2h16zM8.61 7.21a1 1 0 00-1.32 1.5L10.6 12l-3.3 3.3-.08.09a1 1 0 001.5 1.32L12 13.4l3.3 3.3.09.08a1 1 0 001.32-1.5L13.4 12l3.3-3.3.08-.09a1 1 0 00-1.5-1.32L12 10.6 8.7 7.3z"/></symbol><symbol viewBox="0 0 24 24" id="24--cross-square-outline"><path d="M19 2a3 3 0 013 3v14a3 3 0 01-3 3H5a3 3 0 01-3-3V5a3 3 0 013-3zm0 2H5a1 1 0 00-1 1v14a1 1 0 001 1h14a1 1 0 001-1V5a1 1 0 00-1-1zM8.61 7.21l.1.08L12 10.6l3.3-3.3a1 1 0 011.49 1.32l-.08.1L13.4 12l3.3 3.3a1 1 0 01-1.32 1.49l-.1-.08L12 13.4l-3.3 3.3a1 1 0 01-1.49-1.32l.08-.1L10.6 12 7.3 8.7a1 1 0 011.32-1.49z"/></symbol><symbol viewBox="0 0 24 24" id="24--cross-triangle"><path d="M9.37 3.7a3 3 0 015.26 0l7.62 13.85A3 3 0 0119.62 22H4.38a3 3 0 01-2.63-4.45zm1.24 8.51a1 1 0 00-1.32 1.5L10.6 15l-1.3 1.3-.08.09a1 1 0 001.5 1.32L12 16.4l1.3 1.3.09.08a1 1 0 001.32-1.5L13.4 15l1.3-1.3.08-.09a1 1 0 00-1.5-1.32L12 13.6l-1.3-1.3z"/></symbol><symbol viewBox="0 0 24 24" id="24--cross-triangle-outline"><path d="M9.37 3.7a3 3 0 015.26 0l7.62 13.85A3 3 0 0119.62 22H4.38a3 3 0 01-2.63-4.45zm3 .52a1 1 0 00-1.25.45L3.51 18.52A1 1 0 004.38 20h15.24a1 1 0 00.87-1.48L12.88 4.67a1 1 0 00-.4-.4zm-1.76 7.99l.1.08L12 13.6l1.3-1.3a1 1 0 011.49 1.32l-.08.1L13.4 15l1.3 1.3a1 1 0 01-1.32 1.49l-.1-.08L12 16.4l-1.3 1.3a1 1 0 01-1.49-1.32l.08-.1L10.6 15l-1.3-1.3a1 1 0 011.32-1.49z"/></symbol><symbol viewBox="0 0 24 24" id="24--dash"><path d="M5 11h14v2H5z"/></symbol><symbol viewBox="0 0 24 24" id="24--dot-medium"><circle cx="12" cy="12" r="5"/></symbol><symbol viewBox="0 0 24 24" id="24--download"><path d="M21 12a1 1 0 011 1v6.18A3 3 0 0119 22H4.82A3 3 0 012 19v-6.12A1 1 0 014 13v6.12A1 1 0 005 20h14.12a1 1 0 00.88-1v-6.12a1 1 0 011-.88zM12 2a1 1 0 011 .88v9.72l2.54-2.54a1 1 0 011.5 1.32l-.09.1-4.24 4.24a1 1 0 01-.1.08l.1-.08a1 1 0 01-.53.27h-.03a1 1 0 01-.06.02h-.18.09a1 1 0 01-.7-.3l-4.25-4.24a1 1 0 011.32-1.5l.1.09L11 12.59V3a1 1 0 011-1z"/></symbol><symbol viewBox="0 0 24 24" id="24--education"><path d="M18.93 13.61a.5.5 0 01.07.25v2.85a.5.5 0 01-.25.43l-6.5 3.72a.5.5 0 01-.5 0l-6.5-3.72a.5.5 0 01-.25-.43v-2.85a.5.5 0 01.75-.43l6 3.43a.5.5 0 00.5 0l6-3.43a.5.5 0 01.68.18zM11.76 3.13a.5.5 0 01.48 0l9.96 5.43a.5.5 0 010 .88l-.2.1V16a1 1 0 01-2 .12v-5.48l-7.76 4.23a.5.5 0 01-.39.04l-.09-.04L1.8 9.44a.5.5 0 010-.88z"/></symbol><symbol viewBox="0 0 24 24" id="24--ellipsis"><path d="M6 10a2 2 0 110 4 2 2 0 010-4zm6 0a2 2 0 110 4 2 2 0 010-4zm6 0a2 2 0 110 4 2 2 0 010-4z"/></symbol><symbol viewBox="0 0 24 24" id="24--hamburger"><path d="M23 17a1 1 0 010 2H1a1 1 0 010-2h22zm0-6a1 1 0 010 2H1a1 1 0 010-2h22zm0-6a1 1 0 010 2H1a1 1 0 110-2h22z"/></symbol><symbol viewBox="0 0 24 24" id="24--help"><path d="M12.1 16a1.5 1.5 0 110 3 1.5 1.5 0 010-3zm0-12a4 4 0 014 4c0 1.69-1.03 2.43-1.78 2.97-.73.53-1.21.87-1.21 2.03v1h-2v-1c0-2.18 1.18-3.03 2.04-3.65.71-.51.96-.72.96-1.35a2 2 0 00-3.9-.67l-.04.11a1 1 0 01-1.23.5l-.1-.04a1 1 0 01-.5-1.23A4 4 0 0112.1 4z"/></symbol><symbol viewBox="0 0 24 24" id="24--help-circle"><path d="M12 1a11 11 0 110 22 11 11 0 010-22zm0 14a1 1 0 100 2 1 1 0 000-2zm.1-8C11 7 10 7.6 9.5 8.5l-.03.05-.05.1a1 1 0 00.42 1.24l.01.01.1.05a.96.96 0 001.23-.41l.02-.04.08-.1a1 1 0 01.82-.4c.6 0 1 .3 1 .9 0 .3-.1.5-.6.8-.6.4-1.5 1-1.5 2.3v1h2v-1.05c.02-.17.15-.28.6-.55.6-.4 1.5-1 1.5-2.4 0-1.7-1.3-3-3-3z"/></symbol><symbol viewBox="0 0 24 24" id="24--help-circle-outline"><path d="M12 1a11 11 0 110 22 11 11 0 010-22zm0 2a9 9 0 100 18 9 9 0 000-18zm0 12a1 1 0 110 2 1 1 0 010-2zm.1-8c1.7 0 3 1.3 3 3 0 1.4-.9 2-1.5 2.4-.45.27-.58.38-.6.55V14h-2v-1c0-1.3.9-1.9 1.5-2.3.5-.3.6-.5.6-.8 0-.6-.4-.9-1-.9a1 1 0 00-.82.4l-.08.1-.02.04a.96.96 0 01-1.22.41l-.11-.05a1 1 0 01-.43-1.24l.05-.11.03-.05C10 7.6 11 7 12.1 7z"/></symbol><symbol viewBox="0 0 24 24" id="24--help-hexagon"><path d="M16.32 1a2 2 0 011.72.98l5.35 9a2 2 0 010 2.04l-5.35 9a2 2 0 01-1.72.98H7.68a2 2 0 01-1.72-.98l-5.35-9a2 2 0 010-2.04l5.35-9A2 2 0 017.68 1h8.64zM12 15a1 1 0 100 2 1 1 0 000-2zm.1-8C11 7 10 7.6 9.5 8.5l-.03.05-.05.1a1 1 0 00.42 1.24l.01.01.1.05a.96.96 0 001.23-.41l.02-.04.08-.1a1 1 0 01.82-.4c.6 0 1 .3 1 .9 0 .3-.1.5-.6.8-.6.4-1.5 1-1.5 2.3v1h2v-1.05c.02-.17.15-.28.6-.55.6-.4 1.5-1 1.5-2.4 0-1.7-1.3-3-3-3z"/></symbol><symbol viewBox="0 0 24 24" id="24--help-hexagon-outline"><path d="M16.32 1a3 3 0 012.63 1.55l4.4 8c.5.9.5 2 0 2.9l-4.4 8A3 3 0 0116.32 23H7.68a3 3 0 01-2.63-1.55l-4.4-8a3 3 0 010-2.9l4.4-8A3 3 0 017.68 1zM7.68 3a1 1 0 00-.87.52l-4.4 8a1 1 0 000 .96l4.4 8a1 1 0 00.87.52h8.64a1 1 0 00.87-.52l4.4-8a1 1 0 000-.96l-4.4-8a1 1 0 00-.87-.52zM12 15a1 1 0 110 2 1 1 0 010-2zm.1-8c1.7 0 3 1.3 3 3 0 1.4-.9 2-1.5 2.4-.45.27-.58.38-.6.55V14h-2v-1c0-1.3.9-1.9 1.5-2.3.5-.3.6-.5.6-.8 0-.6-.4-.9-1-.9a1 1 0 00-.82.4l-.08.1-.02.04a.96.96 0 01-1.22.41l-.11-.05a1 1 0 01-.43-1.24l.05-.11.03-.05C10 7.6 11 7 12.1 7z"/></symbol><symbol viewBox="0 0 24 24" id="24--help-large"><path d="M11.5 18a1.5 1.5 0 110 3 1.5 1.5 0 010-3zm.07-15c3 0 5.43 2.33 5.43 5.2 0 2.2-1.4 3.16-2.42 3.86-1 .69-1.65 1.14-1.65 2.64V16H10.2v-1.3c0-2.84 1.61-3.94 2.78-4.75.96-.66 1.3-.93 1.3-1.75 0-1.43-1.22-2.6-2.72-2.6-1.15 0-2.18.7-2.56 1.73l-.05.13c-.3.6-1 .9-1.64.68l-.08-.03a1.27 1.27 0 01-.79-1.64A5.43 5.43 0 0111.57 3z"/></symbol><symbol viewBox="0 0 24 24" id="24--help-small"><path d="M12 15a1 1 0 110 2 1 1 0 010-2zm.1-8c1.7 0 3 1.3 3 3 0 1.4-.9 2-1.5 2.4-.5.3-.6.4-.6.6v1h-2v-1c0-1.3.9-1.9 1.5-2.3.5-.3.6-.5.6-.8 0-.6-.4-.9-1-.9-.4 0-.7.2-.9.5l-.02.04a.96.96 0 01-1.33.36 1 1 0 01-.38-1.35l.03-.05C10 7.6 11 7 12.1 7z"/></symbol><symbol viewBox="0 0 24 24" id="24--help-square"><path d="M20 2a2 2 0 012 2v16a2 2 0 01-2 2H4a2 2 0 01-2-2V4c0-1.1.9-2 2-2h16zm-8 13a1 1 0 100 2 1 1 0 000-2zm.1-8C11 7 10 7.6 9.5 8.5l-.03.05-.05.1a1 1 0 00.42 1.24l.01.01.1.05a.96.96 0 001.23-.41l.02-.04.08-.1a1 1 0 01.82-.4c.6 0 1 .3 1 .9 0 .3-.1.5-.6.8-.6.4-1.5 1-1.5 2.3v1h2v-1.05c.02-.17.15-.28.6-.55.6-.4 1.5-1 1.5-2.4 0-1.7-1.3-3-3-3z"/></symbol><symbol viewBox="0 0 24 24" id="24--help-square-outline"><path d="M19 2H5a3 3 0 00-3 3v14a3 3 0 003 3h14a3 3 0 003-3V5a3 3 0 00-3-3zM5 4h14a1 1 0 011 1v14a1 1 0 01-1 1H5a1 1 0 01-1-1V5a1 1 0 011-1z"/><path d="M12 15a1 1 0 110 2 1 1 0 010-2zm.1-8c1.7 0 3 1.3 3 3 0 1.4-.9 2-1.5 2.4-.5.3-.6.4-.6.6v1h-2v-1c0-1.3.9-1.9 1.5-2.3.5-.3.6-.5.6-.8 0-.6-.4-.9-1-.9-.4 0-.7.2-.9.5l-.02.04a.96.96 0 01-1.33.36 1 1 0 01-.38-1.35l.03-.05C10 7.6 11 7 12.1 7z"/></symbol><symbol viewBox="0 0 24 24" id="24--help-triangle"><path d="M9.37 3.7a3 3 0 015.26 0l7.62 13.85A3 3 0 0119.62 22H4.38a3 3 0 01-2.63-4.45zM12 17a1 1 0 100 2 1 1 0 000-2zm.1-8c-1.1 0-2.1.6-2.6 1.5l-.03.05-.05.1a1 1 0 00.42 1.24l.01.01.1.05c.45.2.97.03 1.22-.4v-.01l.03-.04.08-.1a1 1 0 01.82-.4c.6 0 1 .3 1 .9 0 .3-.1.5-.6.8-.6.4-1.5 1-1.5 2.3v1h2v-1.05c.02-.17.15-.28.6-.55.6-.4 1.5-1 1.5-2.4 0-1.7-1.3-3-3-3z"/></symbol><symbol viewBox="0 0 24 24" id="24--help-triangle-outline"><path d="M9.37 3.7a3 3 0 015.26 0l7.62 13.85A3 3 0 0119.62 22H4.38a3 3 0 01-2.63-4.45zm3 .52a1 1 0 00-1.25.45L3.51 18.52A1 1 0 004.38 20h15.24a1 1 0 00.87-1.48L12.88 4.67a1 1 0 00-.4-.4zM12 17a1 1 0 110 2 1 1 0 010-2zm.1-8c1.7 0 3 1.3 3 3 0 1.4-.9 2-1.5 2.4-.45.27-.58.38-.6.55V16h-2v-1c0-1.3.9-1.9 1.5-2.3.5-.3.6-.5.6-.8 0-.6-.4-.9-1-.9a1 1 0 00-.82.4l-.08.1-.02.04-.01.02a.96.96 0 01-1.21.4l-.11-.06a1 1 0 01-.43-1.24l.05-.11.03-.05C10 9.6 11 9 12.1 9z"/></symbol><symbol viewBox="0 0 24 24" id="24--house"><path d="M12.07 3h.07l.04.02.06.01a1 1 0 01.38.19l9 7a1 1 0 01-1.13 1.64l-.1-.07L19 10.7V19a2 2 0 01-2 2h-3v-5a1 1 0 00-.88-1H11a1 1 0 00-1 .88V21H7a2 2 0 01-2-2v-8.29l-1.39 1.08a1 1 0 01-1.32-1.5l.1-.08 8.99-7a1 1 0 01.33-.17l.05-.01.06-.01.04-.01h.21z"/></symbol><symbol viewBox="0 0 24 24" id="24--info"><path d="M12 9c.6 0 1 .4 1 1v7h1a1 1 0 010 2h-4a1 1 0 010-2h1v-6h-1a1 1 0 010-2zm-.5-5a1.5 1.5 0 110 3 1.5 1.5 0 010-3z"/></symbol><symbol viewBox="0 0 24 24" id="24--info-circle"><path d="M12 23a11 11 0 100-22 11 11 0 000 22zm0-15a1.5 1.5 0 110-3 1.5 1.5 0 010 3zm0 11a1 1 0 01-1-1v-7a1 1 0 012 0v7a1 1 0 01-1 1z"/></symbol><symbol viewBox="0 0 24 24" id="24--info-circle-outline"><path d="M12 23a11 11 0 100-22 11 11 0 000 22zm0-2a9 9 0 110-18 9 9 0 010 18zm0-13a1.5 1.5 0 100-3 1.5 1.5 0 000 3zm0 11a1 1 0 001-1v-7a1 1 0 00-2 0v7a1 1 0 001 1z"/></symbol><symbol viewBox="0 0 24 24" id="24--info-hexagon"><path d="M16.32 23a2 2 0 001.72-.98l5.35-9a2 2 0 000-2.04l-5.35-9A2 2 0 0016.32 1H7.68a2 2 0 00-1.72.98l-5.35 9a2 2 0 000 2.04l5.35 9a2 2 0 001.72.98h8.64zM12 8a1.5 1.5 0 110-3 1.5 1.5 0 010 3zm0 11a1 1 0 01-1-1v-7a1 1 0 012 0v7a1 1 0 01-1 1z"/></symbol><symbol viewBox="0 0 24 24" id="24--info-hexagon-outline"><path d="M16.32 23a3 3 0 002.63-1.55l4.4-8c.5-.9.5-2 0-2.9l-4.4-8A3 3 0 0016.32 1H7.68a3 3 0 00-2.63 1.55l-4.4 8a3 3 0 000 2.9l4.4 8A3 3 0 007.68 23zm0-2H7.68a1 1 0 01-.87-.52l-4.4-8a1 1 0 010-.96l4.4-8A1 1 0 017.68 3h8.64c.36 0 .7.2.87.52l4.4 8a1 1 0 010 .96l-4.4 8a1 1 0 01-.87.52zM12 8a1.5 1.5 0 100-3 1.5 1.5 0 000 3zm0 11a1 1 0 001-1v-7a1 1 0 00-2 0v7a1 1 0 001 1z"/></symbol><symbol viewBox="0 0 24 24" id="24--info-large"><path d="M12 8c.9 0 1 .15 1 1.05V20h2a1 1 0 110 2H9a1 1 0 010-2h2V10H9a1 1 0 01-1-1v-.12A1 1 0 019 8zm0-6a2 2 0 110 4 2 2 0 010-4z"/></symbol><symbol viewBox="0 0 24 24" id="24--info-small"><path d="M12 8a1 1 0 100-2 1 1 0 000 2zm0 10a1 1 0 001-1v-6a1 1 0 00-2 0v6a1 1 0 001 1z"/></symbol><symbol viewBox="0 0 24 24" id="24--info-square"><path d="M20 22a2 2 0 002-2V4a2 2 0 00-2-2H4a2 2 0 00-2 2v16c0 1.1.9 2 2 2h16zM12 8a1.5 1.5 0 110-3 1.5 1.5 0 010 3zm0 11a1 1 0 01-1-1v-7a1 1 0 012 0v7a1 1 0 01-1 1z"/></symbol><symbol viewBox="0 0 24 24" id="24--info-square-outline"><path d="M19 22a3 3 0 003-3V5a3 3 0 00-3-3H5a3 3 0 00-3 3v14a3 3 0 003 3zm0-2H5a1 1 0 01-1-1V5a1 1 0 011-1h14a1 1 0 011 1v14a1 1 0 01-1 1zM12 9a1.5 1.5 0 100-3 1.5 1.5 0 000 3zm0 9a1 1 0 001-1v-5a1 1 0 00-2 0v5a1 1 0 001 1z"/></symbol><symbol viewBox="0 0 24 24" id="24--info-triangle"><path d="M9.37 3.7a3 3 0 015.26 0l7.62 13.85A3 3 0 0119.62 22H4.38a3 3 0 01-2.63-4.45zM12 12a1 1 0 00-1 1v5a1 1 0 002 0v-5a1 1 0 00-1-1zm0-5a1.5 1.5 0 100 3 1.5 1.5 0 000-3z"/></symbol><symbol viewBox="0 0 24 24" id="24--info-triangle-outline"><path d="M9.37 3.7L1.75 17.55A3 3 0 004.38 22h15.24a3 3 0 002.63-4.45L14.63 3.7a3 3 0 00-5.26 0zm3.11.57c.17.1.3.23.4.4l7.61 13.85a1 1 0 01-.87 1.48H4.38a1 1 0 01-.87-1.48l7.61-13.85a1 1 0 011.26-.45l.1.05z"/><path d="M12 10a1.5 1.5 0 100-3 1.5 1.5 0 000 3zm0 9a1 1 0 001-1v-5a1 1 0 00-2 0v5a1 1 0 001 1z"/></symbol><symbol viewBox="0 0 24 24" id="24--list"><path d="M21 19a1 1 0 01.12 2H3a1 1 0 01-.12-2H21zm0-5a1 1 0 01.12 2H3a1 1 0 01-.12-2H21zm0-5a1 1 0 01.12 2H3a1 1 0 01-.12-2H21zm0-5a1 1 0 01.12 2H3a1 1 0 01-.12-2H21z"/></symbol><symbol viewBox="0 0 24 24" id="24--list-check"><path d="M8.66 16.25a1 1 0 01.17 1.31l-.08.1-3.53 4a1 1 0 01-1.4.1l-.1-.1L2.25 20a1 1 0 011.41-1.4l.09.08.72.82 2.78-3.15a1 1 0 011.41-.09zM21 18a1 1 0 01.12 2H13a1 1 0 01-.12-2H21zM8.66 9.25a1 1 0 01.17 1.31l-.08.1-3.53 4a1 1 0 01-1.4.1l-.1-.1L2.25 13a1 1 0 011.41-1.4l.09.08.72.82 2.78-3.15a1 1 0 011.41-.09zM21 11a1 1 0 01.12 2H13a1 1 0 01-.12-2H21zM8.66 2.25a1 1 0 01.17 1.31l-.08.1-3.53 4a1 1 0 01-1.4.1l-.1-.1L2.25 6a1 1 0 011.41-1.4l.09.08.72.82 2.78-3.15a1 1 0 011.41-.09zM21 4a1 1 0 01.12 2H13a1 1 0 01-.12-2H21z"/></symbol><symbol viewBox="0 0 24 24" id="24--list-check-square"><path d="M20 2a2 2 0 012 2v16a2 2 0 01-2 2H4a2 2 0 01-2-2V4c0-1.1.9-2 2-2h16zm-9.34 11.25a1 1 0 00-1.41.09l-2.78 3.15-.72-.82-.09-.09A1 1 0 004.25 17l1.47 1.67.1.1a1 1 0 001.4-.1l3.53-4 .08-.1a1 1 0 00-.17-1.31zM18 15h-4.12a1 1 0 00.12 2h4.12a1 1 0 00-.12-2zm-7.34-9.75a1 1 0 00-1.41.09L6.47 8.49l-.72-.82-.09-.09A1 1 0 004.25 9l1.47 1.67.1.1a1 1 0 001.4-.1l3.53-4 .08-.1a1 1 0 00-.17-1.31zM18 7h-4.12A1 1 0 0014 9h4.12A1 1 0 0018 7z"/></symbol><symbol viewBox="0 0 24 24" id="24--list-point"><path d="M4 16a2 2 0 110 4 2 2 0 010-4zm17 1a1 1 0 01.12 2H9a1 1 0 01-.12-2H21zM4 10a2 2 0 110 4 2 2 0 010-4zm17 1a1 1 0 01.12 2H9a1 1 0 01-.12-2H21zM4 4a2 2 0 110 4 2 2 0 010-4zm17 1a1 1 0 01.12 2H9a1 1 0 01-.12-2H21z"/></symbol><symbol viewBox="0 0 24 24" id="24--list-point-square"><path d="M20 2a2 2 0 012 2v16a2 2 0 01-2 2H4a2 2 0 01-2-2V4c0-1.1.9-2 2-2h16zM5.5 15.5a1.5 1.5 0 100 3 1.5 1.5 0 000-3zM19 16H9.88a1 1 0 00.12 2h9.12a1 1 0 00-.12-2zM5.5 10.5a1.5 1.5 0 100 3 1.5 1.5 0 000-3zM19 11H9.88a1 1 0 00.12 2h9.12a1 1 0 00-.12-2zM5.5 5.5a1.5 1.5 0 100 3 1.5 1.5 0 000-3zM19 6H9.88A1 1 0 0010 8h9.12A1 1 0 0019 6z"/></symbol><symbol viewBox="0 0 24 24" id="24--list-square"><path d="M20 2a2 2 0 012 2v16a2 2 0 01-2 2H4a2 2 0 01-2-2V4c0-1.1.9-2 2-2h16zm-1 14H4.88A1 1 0 005 18h14.12a1 1 0 00-.12-2zm0-5H4.88A1 1 0 005 13h14.12a1 1 0 00-.12-2zm0-5H4.88A1 1 0 005 8h14.12A1 1 0 0019 6z"/></symbol><symbol viewBox="0 0 24 24" id="24--lock"><path d="M12 1a5 5 0 015 4.78V8h1a2 2 0 012 2v10a2 2 0 01-2 2H6a2 2 0 01-2-2V10c0-1.1.9-2 2-2h1V6a5 5 0 015-5zm0 10a2 2 0 00-1 3.73V18a1 1 0 002 0v-3.27A2 2 0 0012 11zm0-8a3 3 0 00-3 2.82V8h6V6a3 3 0 00-3-3z"/></symbol><symbol viewBox="0 0 24 24" id="24--magnifier-circle"><path d="M12 1a11 11 0 110 22 11 11 0 010-22zM7.47 7.47a5.01 5.01 0 006.31 7.73l2.54 2.54a1 1 0 001.42-1.42l-2.54-2.54a5.01 5.01 0 00-7.73-6.31zm3.56.56a3 3 0 110 6 3 3 0 010-6z"/></symbol><symbol viewBox="0 0 24 24" id="24--map-pin"><path d="M12 2a7 7 0 00-7 7c0 5.25 7 13 7 13s7-7.75 7-13a7 7 0 00-7-7zm0 9.5a2.5 2.5 0 110-5 2.5 2.5 0 010 5z"/></symbol><symbol viewBox="0 0 24 24" id="24--minus"><path d="M18 11a1 1 0 01.12 2H6a1 1 0 01-.12-2H18z"/></symbol><symbol viewBox="0 0 24 24" id="24--minus-circle"><path d="M12 1a11 11 0 110 22 11 11 0 010-22zm5 10H6.88A1 1 0 007 13h10.12a1 1 0 00-.12-2z"/></symbol><symbol viewBox="0 0 24 24" id="24--minus-circle-outline"><path d="M12 1a11 11 0 110 22 11 11 0 010-22zm0 2a9 9 0 100 18 9 9 0 000-18zm5 8a1 1 0 01.12 2H7a1 1 0 01-.12-2H17z"/></symbol><symbol viewBox="0 0 24 24" id="24--minus-hexagon"><path d="M16.32 1a2 2 0 011.72.98l5.35 9a2 2 0 010 2.04l-5.35 9a2 2 0 01-1.72.98H7.68a2 2 0 01-1.72-.98l-5.35-9a2 2 0 010-2.04l5.35-9A2 2 0 017.68 1h8.64zM16 11H7.88A1 1 0 008 13h8.12a1 1 0 00-.12-2z"/></symbol><symbol viewBox="0 0 24 24" id="24--minus-hexagon-outline"><path d="M16.32 1a3 3 0 012.63 1.55l4.4 8c.5.9.5 2 0 2.9l-4.4 8A3 3 0 0116.32 23H7.68a3 3 0 01-2.63-1.55l-4.4-8a3 3 0 010-2.9l4.4-8A3 3 0 017.68 1zm0 2H7.68a1 1 0 00-.87.52l-4.4 8a1 1 0 000 .96l4.4 8a1 1 0 00.87.52h8.64a1 1 0 00.87-.52l4.4-8a1 1 0 000-.96l-4.4-8a1 1 0 00-.87-.52zM16 11a1 1 0 01.12 2H8a1 1 0 01-.12-2H16z"/></symbol><symbol viewBox="0 0 24 24" id="24--minus-large"><path d="M21 11a1 1 0 01.12 2H3a1 1 0 01-.12-2H21z"/></symbol><symbol viewBox="0 0 24 24" id="24--minus-small"><path d="M16 11a1 1 0 01.12 2H8a1 1 0 01-.12-2H16z"/></symbol><symbol viewBox="0 0 24 24" id="24--minus-square"><path d="M20 2a2 2 0 012 2v16a2 2 0 01-2 2H4a2 2 0 01-2-2V4c0-1.1.9-2 2-2h16zm-3 9H6.88A1 1 0 007 13h10.12a1 1 0 00-.12-2z"/></symbol><symbol viewBox="0 0 24 24" id="24--minus-square-outline"><path d="M19 2a3 3 0 013 3v14a3 3 0 01-3 3H5a3 3 0 01-3-3V5a3 3 0 013-3zm0 2H5a1 1 0 00-1 1v14a1 1 0 001 1h14a1 1 0 001-1V5a1 1 0 00-1-1zm-2 7a1 1 0 01.12 2H7a1 1 0 01-.12-2H17z"/></symbol><symbol viewBox="0 0 24 24" id="24--minus-triangle"><path d="M9.37 3.7a3 3 0 015.26 0l7.62 13.85A3 3 0 0119.62 22H4.38a3 3 0 01-2.63-4.45zM15 13H8.88A1 1 0 009 15h6.12a1 1 0 00-.12-2z"/></symbol><symbol viewBox="0 0 24 24" id="24--minus-triangle-outline"><path d="M9.37 3.7a3 3 0 015.26 0l7.62 13.85A3 3 0 0119.62 22H4.38a3 3 0 01-2.63-4.45zm3 .52a1 1 0 00-1.25.45L3.51 18.52A1 1 0 004.38 20h15.24a1 1 0 00.87-1.48L12.88 4.67a1 1 0 00-.4-.4zM15 13a1 1 0 01.12 2H9a1 1 0 01-.12-2H15z"/></symbol><symbol viewBox="0 0 24 24" id="24--person-circle"><path d="M12 1a11 11 0 100 22 11 11 0 000-22zm0 4a3 3 0 110 6 3 3 0 010-6zm0 15a8.52 8.52 0 01-7-3.58c.04-2.2 4.67-3.42 7-3.42 2.32 0 6.96 1.21 7 3.42A8.52 8.52 0 0112 20z"/></symbol><symbol viewBox="0 0 24 24" id="24--plus"><path d="M12 5a1 1 0 011 .88V11h5a1 1 0 01.12 2H13v5a1 1 0 01-2 .12V13H6a1 1 0 01-.12-2H11V6a1 1 0 011-1z"/></symbol><symbol viewBox="0 0 24 24" id="24--plus-circle"><path d="M12 1a11 11 0 110 22 11 11 0 010-22zm0 6a1 1 0 00-1 1v3H7.88A1 1 0 008 13h3v3.12a1 1 0 002-.12v-3h3.12a1 1 0 00-.12-2h-3V7.88A1 1 0 0012 7z"/></symbol><symbol viewBox="0 0 24 24" id="24--plus-circle-outline"><path d="M12 1a11 11 0 110 22 11 11 0 010-22zm0 2a9 9 0 100 18 9 9 0 000-18zm0 4a1 1 0 011 .88V11h3a1 1 0 01.12 2H13v3a1 1 0 01-2 .12V13H8a1 1 0 01-.12-2H11V8a1 1 0 011-1z"/></symbol><symbol viewBox="0 0 24 24" id="24--plus-hexagon"><path d="M16.32 1a2 2 0 011.72.98l5.35 9a2 2 0 010 2.04l-5.35 9a2 2 0 01-1.72.98H7.68a2 2 0 01-1.72-.98l-5.35-9a2 2 0 010-2.04l5.35-9A2 2 0 017.68 1h8.64zM12 7a1 1 0 00-1 1v3H7.88A1 1 0 008 13h3v3.12a1 1 0 002-.12v-3h3.12a1 1 0 00-.12-2h-3V7.88A1 1 0 0012 7z"/></symbol><symbol viewBox="0 0 24 24" id="24--plus-hexagon-outline"><path d="M16.32 1a3 3 0 012.63 1.55l4.4 8c.5.9.5 2 0 2.9l-4.4 8A3 3 0 0116.32 23H7.68a3 3 0 01-2.63-1.55l-4.4-8a3 3 0 010-2.9l4.4-8A3 3 0 017.68 1zm0 2H7.68a1 1 0 00-.87.52l-4.4 8a1 1 0 000 .96l4.4 8a1 1 0 00.87.52h8.64a1 1 0 00.87-.52l4.4-8a1 1 0 000-.96l-4.4-8a1 1 0 00-.87-.52zM12 7a1 1 0 011 .88V11h3a1 1 0 01.12 2H13v3a1 1 0 01-2 .12V13H8a1 1 0 01-.12-2H11V8a1 1 0 011-1z"/></symbol><symbol viewBox="0 0 24 24" id="24--plus-large"><path d="M12 2a1 1 0 011 .88V11h8a1 1 0 01.12 2H13v8a1 1 0 01-2 .12V13H3a1 1 0 01-.12-2H11V3a1 1 0 011-1z"/></symbol><symbol viewBox="0 0 24 24" id="24--plus-small"><path d="M12 7a1 1 0 011 .88V11h3a1 1 0 01.12 2H13v3a1 1 0 01-2 .12V13H8a1 1 0 01-.12-2H11V8a1 1 0 011-1z"/></symbol><symbol viewBox="0 0 24 24" id="24--plus-square"><path d="M20 2a2 2 0 012 2v16a2 2 0 01-2 2H4a2 2 0 01-2-2V4c0-1.1.9-2 2-2h16zm-8 5a1 1 0 00-1 1v3H7.88A1 1 0 008 13h3v3.12a1 1 0 002-.12v-3h3.12a1 1 0 00-.12-2h-3V7.88A1 1 0 0012 7z"/></symbol><symbol viewBox="0 0 24 24" id="24--plus-square-outline"><path d="M19 2a3 3 0 013 3v14a3 3 0 01-3 3H5a3 3 0 01-3-3V5a3 3 0 013-3zm0 2H5a1 1 0 00-1 1v14a1 1 0 001 1h14a1 1 0 001-1V5a1 1 0 00-1-1zm-7 3a1 1 0 011 .88V11h3a1 1 0 01.12 2H13v3a1 1 0 01-2 .12V13H8a1 1 0 01-.12-2H11V8a1 1 0 011-1z"/></symbol><symbol viewBox="0 0 24 24" id="24--plus-triangle"><path d="M9.37 3.7a3 3 0 015.26 0l7.62 13.85A3 3 0 0119.62 22H4.38a3 3 0 01-2.63-4.45zM12 10a1 1 0 00-1 1v2H8.88A1 1 0 009 15h2v2.12a1 1 0 002-.12v-2h2.12a1 1 0 00-.12-2h-2v-2.12a1 1 0 00-1-.88z"/></symbol><symbol viewBox="0 0 24 24" id="24--plus-triangle-outline"><path d="M9.37 3.7a3 3 0 015.26 0l7.62 13.85A3 3 0 0119.62 22H4.38a3 3 0 01-2.63-4.45zm3 .52a1 1 0 00-1.25.45L3.51 18.52A1 1 0 004.38 20h15.24a1 1 0 00.87-1.48L12.88 4.67a1 1 0 00-.4-.4zM12 10a1 1 0 011 .88V13h2a1 1 0 01.12 2H13v2a1 1 0 01-2 .12V15H9a1 1 0 01-.12-2H11v-2a1 1 0 011-1z"/></symbol><symbol viewBox="0 0 24 24" id="24--radio"><path d="M12 .75a11.26 11.26 0 11-.01 22.51A11.26 11.26 0 0112 .75zm0 18a6.75 6.75 0 110-13.5 6.75 6.75 0 010 13.5z"/></symbol><symbol viewBox="0 0 24 24" id="24--receipt"><path d="M19 1a2 2 0 012 2v18.6a.5.5 0 01-.89.32L18.4 19.8a.5.5 0 00-.78 0l-2.22 2.72a.5.5 0 01-.78 0L12.4 19.8a.5.5 0 00-.78 0L9.4 22.53a.5.5 0 01-.78 0L6.4 19.8a.5.5 0 00-.78 0L3.9 21.9a.5.5 0 01-.9-.3V3c0-1.1.9-2 2-2h14zM6.5 12.5a1.5 1.5 0 100 3 1.5 1.5 0 000-3zM18 13h-7.12a1 1 0 00.12 2h7.12a1 1 0 00-.12-2zm-6-9a3 3 0 100 6 3 3 0 000-6z"/></symbol><symbol viewBox="0 0 24 24" id="24--receipt-list"><path d="M19 1a2 2 0 012 2v18.6a.5.5 0 01-.89.32L18.4 19.8a.5.5 0 00-.78 0l-2.22 2.72a.5.5 0 01-.78 0L12.4 19.8a.5.5 0 00-.78 0L9.4 22.53a.5.5 0 01-.78 0L6.4 19.8a.5.5 0 00-.78 0L3.9 21.9a.5.5 0 01-.9-.3V3c0-1.1.9-2 2-2h14zM6.5 13.5a1.5 1.5 0 100 3 1.5 1.5 0 000-3zM18 14h-7.12a1 1 0 00.12 2h7.12a1 1 0 00-.12-2zM6.5 8.5a1.5 1.5 0 100 3 1.5 1.5 0 000-3zM18 9h-7.12a1 1 0 00.12 2h7.12A1 1 0 0018 9zM6.5 3.5a1.5 1.5 0 100 3 1.5 1.5 0 000-3zM18 4h-7.12A1 1 0 0011 6h7.12A1 1 0 0018 4z"/></symbol><symbol viewBox="0 0 24 24" id="24--speech-bubbles"><path d="M20 7a2 2 0 012 1.85V20.8a.5.5 0 01-.85.35L19 19H8a2 2 0 01-2-1.85V16h12a2 2 0 002-1.85V7zm-4-5a2 2 0 012 2v8a2 2 0 01-2 2H5l-2.15 2.15a.5.5 0 01-.84-.27L2 15.8V4c0-1.1.9-2 2-2h12z"/></symbol><symbol viewBox="0 0 24 24" id="24--spinner"><path d="M12 2a10 10 0 0110 10h-2a8 8 0 00-8-8V2z"/></symbol><symbol viewBox="0 0 24 24" id="24--upload"><path d="M21 12a1 1 0 011 1v6.18A3 3 0 0119 22H4.82A3 3 0 012 19v-6.12A1 1 0 014 13v6.12A1 1 0 005 20h14.12a1 1 0 00.88-1v-6.12a1 1 0 011-.88zM12 2h.06a1 1 0 01.65.3l-.1-.09.02.01.08.07 4.24 4.25.08.09a1 1 0 01-1.5 1.32L13 5.41v9.71a1 1 0 01-2-.12V5.41L8.46 7.95l-.09.08a1 1 0 01-1.32-1.5l4.24-4.24.08-.07A1 1 0 0112 2h-.09a1 1 0 01.03 0h.04z"/></symbol><symbol viewBox="0 0 24 24" id="24--warning"><path d="M12 16a1.5 1.5 0 110 3 1.5 1.5 0 010-3zm0-12a1 1 0 011 1v8a1 1 0 01-2 0V5a1 1 0 011-1z"/></symbol><symbol viewBox="0 0 24 24" id="24--warning-circle"><path d="M12 1a11 11 0 110 22 11 11 0 010-22zm0 15a1.5 1.5 0 100 3 1.5 1.5 0 000-3zm0-11a1 1 0 00-1 1v7a1 1 0 002 0V6a1 1 0 00-1-1z"/></symbol><symbol viewBox="0 0 24 24" id="24--warning-circle-outline"><path d="M12 1a11 11 0 110 22 11 11 0 010-22zm0 2a9 9 0 100 18 9 9 0 000-18zm0 13a1.5 1.5 0 110 3 1.5 1.5 0 010-3zm0-11a1 1 0 011 1v7a1 1 0 01-2 0V6a1 1 0 011-1z"/></symbol><symbol viewBox="0 0 24 24" id="24--warning-hexagon"><path d="M16.32 1a2 2 0 011.72.98l5.35 9a2 2 0 010 2.04l-5.35 9a2 2 0 01-1.72.98H7.68a2 2 0 01-1.72-.98l-5.35-9a2 2 0 010-2.04l5.35-9A2 2 0 017.68 1h8.64zM12 16a1.5 1.5 0 100 3 1.5 1.5 0 000-3zm0-11a1 1 0 00-1 1v7a1 1 0 002 0V6a1 1 0 00-1-1z"/></symbol><symbol viewBox="0 0 24 24" id="24--warning-hexagon-outline"><path d="M16.32 1a3 3 0 012.63 1.55l4.4 8c.5.9.5 2 0 2.9l-4.4 8A3 3 0 0116.32 23H7.68a3 3 0 01-2.63-1.55l-4.4-8a3 3 0 010-2.9l4.4-8A3 3 0 017.68 1zm0 2H7.68a1 1 0 00-.87.52l-4.4 8a1 1 0 000 .96l4.4 8a1 1 0 00.87.52h8.64a1 1 0 00.87-.52l4.4-8a1 1 0 000-.96l-4.4-8a1 1 0 00-.87-.52zM12 16a1.5 1.5 0 110 3 1.5 1.5 0 010-3zm0-11a1 1 0 011 1v7a1 1 0 01-2 0V6a1 1 0 011-1z"/></symbol><symbol viewBox="0 0 24 24" id="24--warning-large"><path d="M12 18a2 2 0 110 4 2 2 0 010-4zm.93-16a1 1 0 011 1.07l-.86 12a1 1 0 01-1 .93h-.14a1 1 0 01-1-.93l-.85-12A1 1 0 0111 2h1.93z"/></symbol><symbol viewBox="0 0 24 24" id="24--warning-small"><path d="M12 16a1 1 0 110 2 1 1 0 010-2zm0-10a1 1 0 011 1v6a1 1 0 01-2 0V7a1 1 0 011-1z"/></symbol><symbol viewBox="0 0 24 24" id="24--warning-square"><path d="M20 2a2 2 0 012 2v16a2 2 0 01-2 2H4a2 2 0 01-2-2V4c0-1.1.9-2 2-2h16zm-8 14a1.5 1.5 0 100 3 1.5 1.5 0 000-3zm0-11a1 1 0 00-1 1v7a1 1 0 002 0V6a1 1 0 00-1-1z"/></symbol><symbol viewBox="0 0 24 24" id="24--warning-square-outline"><path d="M19 2a3 3 0 013 3v14a3 3 0 01-3 3H5a3 3 0 01-3-3V5a3 3 0 013-3zm0 2H5a1 1 0 00-1 1v14a1 1 0 001 1h14a1 1 0 001-1V5a1 1 0 00-1-1zm-7 11a1.5 1.5 0 110 3 1.5 1.5 0 010-3zm0-9a1 1 0 011 1v5a1 1 0 01-2 0V7a1 1 0 011-1z"/></symbol><symbol viewBox="0 0 24 24" id="24--warning-triangle"><path d="M9.37 3.7a3 3 0 015.26 0l7.62 13.85A3 3 0 0119.62 22H4.38a3 3 0 01-2.63-4.45zM12 16a1.5 1.5 0 100 3 1.5 1.5 0 000-3zm0-9a1 1 0 00-1 1v5a1 1 0 002 0V8a1 1 0 00-1-1z"/></symbol><symbol viewBox="0 0 24 24" id="24--warning-triangle-outline"><path d="M9.37 3.7a3 3 0 015.26 0l7.62 13.85A3 3 0 0119.62 22H4.38a3 3 0 01-2.63-4.45zm3 .52a1 1 0 00-1.25.45L3.51 18.52A1 1 0 004.38 20h15.24a1 1 0 00.87-1.48L12.88 4.67a1 1 0 00-.4-.4zM12 16a1.5 1.5 0 110 3 1.5 1.5 0 010-3zm0-9a1 1 0 011 1v5a1 1 0 01-2 0V8a1 1 0 011-1z"/></symbol><symbol fill-rule="evenodd" stroke-linejoin="round" stroke-miterlimit="2" clip-rule="evenodd" viewBox="0 0 24 24" id="tests--affinity"><path d="M18.3 9.7l-1.41-1.4-4.6 4.57L7.72 8.3 6.3 9.7l6 6 6-6z"/></symbol><symbol viewBox="0 0 24 24" id="tests--sketch"><defs><path id="hxa" d="M4-2L2.59-.59 7.17 4 2.59 8.59 4 10l6-6z"/></defs><g fill="none" fill-rule="evenodd" transform="translate(6 8)"><mask id="hxb" fill="#fff"><use xlink:href="#hxa"/></mask><use fill="#000" transform="rotate(90 6.3 4)" xlink:href="#hxa"/><g fill="#003453" mask="url(#hxb)"><path d="M-6-8h24v24H-6z"/></g></g></symbol><symbol viewBox="0 0 24 24" id="tests--zeplin"><defs><path id="hya" d="M4-2L2.59-.59 7.17 4 2.59 8.59 4 10l6-6z"/></defs><g fill="none" fill-rule="evenodd" transform="translate(6 8)"><mask id="hyb" fill="#fff"><use xlink:href="#hya"/></mask><use fill="#000" transform="rotate(90 6.3 4)" xlink:href="#hya"/><g fill="#003453" mask="url(#hyb)"><path d="M-6-8h24v24H-6z"/></g></g></symbol></svg>