<svg xmlns="http://www.w3.org/2000/svg" width="24" height="24" viewBox="0 0 24 24">
  <path d="M20,2 C21.1045695,2 22,2.8954305 22,4 L22,20 C22,21.1045695 21.1045695,22 20,22 L4,22 C2.8954305,22 2,21.1045695 2,20 L2,4 C2,2.8954305 2.8954305,2 4,2 L20,2 Z M9.29289322,7.29289322 C8.93240926,7.65337718 8.90467972,8.22060824 9.20970461,8.61289944 L9.29289322,8.70710678 L12.585,12 L9.29289322,15.2928932 C8.93240926,15.6533772 8.90467972,16.2206082 9.20970461,16.6128994 L9.29289322,16.7071068 C9.65337718,17.0675907 10.2206082,17.0953203 10.6128994,16.7902954 L10.7071068,16.7071068 L14.7071068,12.7071068 C15.0675907,12.3466228 15.0953203,11.7793918 14.7902954,11.3871006 L14.7071068,11.2928932 L10.7071068,7.29289322 C10.3165825,6.90236893 9.68341751,6.90236893 9.29289322,7.29289322 Z"/>
</svg>
