<svg xmlns="http://www.w3.org/2000/svg" width="24" height="24" viewBox="0 0 24 24">
  <path d="m8.27 7.8-5.6.82-.13.02a1.36 1.36 0 0 0-.63 2.3l4.06 3.92L5 20.41l-.01.12a1.36 1.36 0 0 0 1.98 1.31L12 19.22l5.02 2.62.1.06c.98.4 2.05-.42 1.87-1.49l-.96-5.55 4.06-3.92.08-.1c.7-.8.24-2.06-.83-2.22l-5.62-.81-2.5-5.06c-.5-1-1.94-1-2.44 0L8.28 7.8zm3.73-3 2.17 4.36.06.11c.15.24.4.4.69.44l4.83.7-3.49 3.39-.08.09a1 1 0 0 0-.2.8l.82 4.78-4.34-2.26-.1-.05a1 1 0 0 0-.82.05L7.2 19.47l.83-4.79.01-.12a1 1 0 0 0-.3-.76l-3.5-3.39 4.84-.7a1 1 0 0 0 .75-.55L12 4.8z"/>
</svg>
