<svg xmlns="http://www.w3.org/2000/svg" viewBox="0 0 24 24">
  <path d="M12 20a1 1 0 0 1 1 .88V22a1 1 0 0 1-2 .12V21a1 1 0 0 1 1-1zm-5.66-2.34a1 1 0 0 1 .08 1.32l-.08.1-.7.7a1 1 0 0 1-1.5-1.33l.08-.09.7-.7a1 1 0 0 1 1.42 0zm12.64-.08.1.08.7.7a1 1 0 0 1-1.33 1.5l-.09-.08-.7-.7a1 1 0 0 1 1.32-1.5zM12 6a6 6 0 1 1 0 12 6 6 0 0 1 0-12zm0 2a4 4 0 1 0 0 8 4 4 0 0 0 0-8zm10 3a1 1 0 0 1 .12 2H21a1 1 0 0 1-.12-2H22zM3 11a1 1 0 0 1 .12 2H2a1 1 0 0 1-.12-2H3zm16.78-6.78a1 1 0 0 1 .08 1.33l-.08.09-.7.7a1 1 0 0 1-1.5-1.32l.08-.1.7-.7a1 1 0 0 1 1.42 0zM5.55 4.14l.09.08.7.7a1 1 0 0 1-1.32 1.5l-.1-.08-.7-.7a1 1 0 0 1 1.33-1.5zM12 1a1 1 0 0 1 1 .88V3a1 1 0 0 1-2 .12V2a1 1 0 0 1 1-1z"/>
</svg>
