<svg xmlns="http://www.w3.org/2000/svg" width="24" height="24" viewBox="0 0 24 24">
  <path d="M13 2a1 1 0 0 1 .7.3l7.6 7.58a3 3 0 0 1 0 4.24l-7.18 7.17a3 3 0 0 1-4.24 0l-7.59-7.58A1 1 0 0 1 2 13V5a3 3 0 0 1 3-3zm2.78 9.38-.01-.02v.01l-.06-.08-3-3-.1-.08a1 1 0 0 0-1.32 1.5L12.6 11H8.88A1 1 0 0 0 9 13h3.59l-1.3 1.3-.08.09a1 1 0 0 0 1.5 1.32l3-3 .07-.08a3 3 0 0 0 .1-.15l.03-.06.02-.05a.95.95 0 0 0 .06-.22v-.09.01-.05L16 12v-.09l-.01-.06a1.1 1.1 0 0 0-.06-.22l-.02-.05a1.04 1.04 0 0 0-.03-.06l-.03-.04a1.03 1.03 0 0 0-.05-.08l-.02-.03z"/>
</svg>
