<svg xmlns="http://www.w3.org/2000/svg" width="24" height="24" viewBox="0 0 24 24">
  <path d="M13 2a1 1 0 0 1 .7.3l7.6 7.58a3 3 0 0 1 0 4.24l-7.18 7.17a3 3 0 0 1-4.24 0l-7.59-7.58A1 1 0 0 1 2 13V5a3 3 0 0 1 3-3zm-1 12a1 1 0 1 0 0 2 1 1 0 0 0 0-2zm0-6c-.63 0-1.15.16-1.57.44a2.5 2.5 0 0 0-.85.97.75.75 0 1 0 1.34.68 1 1 0 0 1 .34-.4c.14-.1.37-.19.74-.19.28 0 .55.09.74.22.16.13.26.29.26.53 0 .18-.04.26-.08.32a.96.96 0 0 1-.27.24l-.26.16-.32.2c-.22.15-.49.36-.7.66a.75.75 0 0 0 1.25.84.96.96 0 0 1 .28-.25l.26-.16.32-.2a2.03 2.03 0 0 0 1.02-1.81 2.1 2.1 0 0 0-.86-1.72A2.76 2.76 0 0 0 12 8z"/>
</svg>
