<svg xmlns="http://www.w3.org/2000/svg" width="24" height="24" viewBox="0 0 24 24">
  <path d="M13,2 C13.2652165,2 13.5195704,2.10535684 13.7071068,2.29289322 L13.7071068,2.29289322 L21.2928932,9.87867966 C22.4644661,11.0502525 22.4644661,12.9497475 21.2928932,14.1213203 L21.2928932,14.1213203 L14.1213203,21.2928932 C12.9497475,22.4644661 11.0502525,22.4644661 9.87867966,21.2928932 L9.87867966,21.2928932 L2.29289322,13.7071068 C2.10535684,13.5195704 2,13.2652165 2,13 L2,13 L2,5 C2,3.34314575 3.34314575,2 5,2 L5,2 Z M12.585,4 L5,4 C4.44771525,4 4,4.44771525 4,5 L4,5 L4,12.585 L11.2928932,19.8786797 C11.6533772,20.2391636 12.2206082,20.2668932 12.6128994,19.9618683 L12.6128994,19.9618683 L12.7071068,19.8786797 L19.8786797,12.7071068 C20.2692039,12.3165825 20.2692039,11.6834175 19.8786797,11.2928932 L19.8786797,11.2928932 L12.585,4 Z M11.6128994,8.20970461 L11.7071068,8.29289322 L14.7071068,11.2928932 C15.0675907,11.6533772 15.0953203,12.2206082 14.7902954,12.6128994 L14.7071068,12.7071068 L11.7071068,15.7071068 C11.3165825,16.0976311 10.6834175,16.0976311 10.2928932,15.7071068 C9.93240926,15.3466228 9.90467972,14.7793918 10.2097046,14.3871006 L10.2928932,14.2928932 L12.585,12 L10.2928932,9.70710678 C9.93240926,9.34662282 9.90467972,8.77939176 10.2097046,8.38710056 L10.2928932,8.29289322 C10.6533772,7.93240926 11.2206082,7.90467972 11.6128994,8.20970461 Z"/>
</svg>
