<svg xmlns="http://www.w3.org/2000/svg" width="24" height="24" viewBox="0 0 24 24">
  <path d="M20 4a3 3 0 0 1 3 2.82V10a1 1 0 0 1-.88 1H21a1 1 0 0 0-.98.78l-.02.1V12c0 .48.35.9.78.98l.1.02H22a1 1 0 0 1 1 .88V17a3 3 0 0 1-2.82 3H4a3 3 0 0 1-3-2.82V14a1 1 0 0 1 .88-1H3a1 1 0 0 0 .98-.78l.02-.1V12a1 1 0 0 0-.78-.98l-.1-.02H2a1 1 0 0 1-1-.88V7a3 3 0 0 1 2.82-3H20zm0 2H4a1 1 0 0 0-1 .88V9h.22A3 3 0 0 1 6 11.87v.36A3 3 0 0 1 3.17 15H3v2a1 1 0 0 0 .77.97l.11.02L4 18h16a1 1 0 0 0 1-.88V15h-.22A3 3 0 0 1 18 12.13v-.36A3 3 0 0 1 20.83 9H21V7a1 1 0 0 0-1-1zm-4.3 8.3a1 1 0 1 1-1.4 1.4 1 1 0 0 1 1.4-1.4zm0-6a1 1 0 0 1 .09 1.31l-.08.1-6 6a1 1 0 0 1-1.5-1.32l.08-.1 6-6a1 1 0 0 1 1.42 0zm-6 0a1 1 0 1 1-1.4 1.4 1 1 0 0 1 1.4-1.4z"/>
</svg>
