<svg xmlns="http://www.w3.org/2000/svg" width="24" height="24" viewBox="0 0 24 24">
  <path d="M20 4a3 3 0 0 1 3 3v3a1 1 0 0 1-1 1h-1a1 1 0 0 0-1 .89V12c0 .52.4.96.89 1H22a1 1 0 0 1 1 1v3a3 3 0 0 1-3 3H4a3 3 0 0 1-3-3v-3a1 1 0 0 1 1-1h1a1 1 0 0 0 1-.89V12a1 1 0 0 0-.89-1H2a1 1 0 0 1-1-1V7a3 3 0 0 1 3-3zm0 2H4a1 1 0 0 0-1 1v2h.22A3 3 0 0 1 6 12.05v.18A3 3 0 0 1 3 15v2a1 1 0 0 0 .88 1H20a1 1 0 0 0 1-1v-2h-.22A3 3 0 0 1 18 11.95v-.18A3 3 0 0 1 21 9V7a1 1 0 0 0-1-1zm-7 7c1.5 0 2.5.96 2.5 2 0 .47 0 .94-.84 1H9.5c-1 0-1-.5-1-1 0-1 .92-1.92 2.32-2H13zm-1-5a2 2 0 1 1 0 4 2 2 0 0 1 0-4z"/>
</svg>
