<svg xmlns="http://www.w3.org/2000/svg" width="24" height="24" viewBox="0 0 24 24">
  <path d="M20 4a3 3 0 0 1 3 3v3a1 1 0 0 1-1 1h-1a1 1 0 0 0-1 .89V12c0 .52.4.96.89 1H22a1 1 0 0 1 1 1v3a3 3 0 0 1-3 3H4a3 3 0 0 1-3-3v-3a1 1 0 0 1 1-1h1a1 1 0 0 0 1-.89V12a1 1 0 0 0-.89-1H2a1 1 0 0 1-1-1V7a3 3 0 0 1 3-3zm0 2H4a1 1 0 0 0-1 1v2h.22A3 3 0 0 1 6 12.05v.18A3 3 0 0 1 3 15v2a1 1 0 0 0 .88 1H20a1 1 0 0 0 1-1v-2h-.22A3 3 0 0 1 18 11.95v-.18A3 3 0 0 1 21 9V7a1 1 0 0 0-1-1zm-8 2a1 1 0 0 1 1 1v3.59l1.3-1.3.09-.08a1 1 0 0 1 1.32 1.5l-3 3-.08.07a3 3 0 0 1-.15.1l-.06.03-.05.02a.95.95 0 0 1-.22.06h-.13L12 16h-.09l-.06-.01a1.1 1.1 0 0 1-.22-.06l-.05-.02a1.04 1.04 0 0 1-.06-.03l-.04-.03a1.03 1.03 0 0 1-.08-.05l-.02-.02-.02-.01-.01-.01-.06-.05-3-3-.08-.1a1 1 0 0 1 1.5-1.32L11 12.6V8.88A1 1 0 0 1 12 8z"/>
</svg>
