<svg xmlns="http://www.w3.org/2000/svg" width="24" height="24" viewBox="0 0 24 24">
  <path d="m16.83 10.44.06.11 5 10a1 1 0 0 1-1.73 1l-.05-.1L18.88 19h-5.76l-1.23 2.45a1 1 0 0 1-1.23.5l-.1-.06a1 1 0 0 1-.5-1.23l.05-.1 5-10a1 1 0 0 1 1.64-.22l.08.1zM9 2a1 1 0 0 1 1 .88V4h5a1 1 0 0 1 .12 2h-1.54a18.94 18.94 0 0 1-3.3 7.28l.49.53a1 1 0 1 1-1.44 1.38L9 14.85a19.04 19.04 0 0 1-5.55 4.17 1 1 0 0 1-.9-1.79 17.05 17.05 0 0 0 5.16-3.94 19.03 19.03 0 0 1-2.22-3.9 1 1 0 0 1 1.84-.78A16.96 16.96 0 0 0 9 11.65c1.17-1.7 2.03-3.6 2.53-5.65H3a1 1 0 0 1-.12-2H8V3a1 1 0 0 1 1-1zm7 11.24L14.12 17h3.76L16 13.24z"/>
</svg>
