<svg xmlns="http://www.w3.org/2000/svg" width="24" height="24" viewBox="0 0 24 24">
  <path d="M9.37135227,3.70432092 C10.1698214,2.25255887 11.9939942,1.72296031 13.4457562,2.52142944 C13.9442354,2.79559297 14.3544842,3.20584177 14.6286477,3.70432092 L14.6286477,3.70432092 L22.2461053,17.5542438 C23.0445744,19.0060058 22.5149759,20.8301786 21.0632138,21.6286477 C20.6202789,21.8722619 20.1229665,22 19.6174576,22 L19.6174576,22 L4.38254244,22 C2.72568819,22 1.38254244,20.6568542 1.38254244,19 C1.38254244,18.4944911 1.5102805,17.9971787 1.75389472,17.5542438 L1.75389472,17.5542438 Z M12.3764912,4.2235543 C11.9128771,4.03449217 11.3709293,4.2188035 11.1237841,4.66815842 L11.1237841,4.66815842 L3.50632653,18.5180813 C3.42512179,18.6657262 3.38254244,18.831497 3.38254244,19 C3.38254244,19.5522847 3.83025769,20 4.38254244,20 L4.38254244,20 L19.6174576,20 C19.7859605,20 19.9517313,19.9574206 20.0993763,19.8762159 C20.583297,19.6100595 20.7598298,19.0020019 20.4936735,18.5180813 L20.4936735,18.5180813 L12.8762159,4.66815842 C12.7848281,4.5019987 12.6480785,4.3652491 12.4819187,4.27386126 L12.4819187,4.27386126 Z M15,16 C15.5522847,16 16,16.4477153 16,17 C16,17.5128358 15.6139598,17.9355072 15.1166211,17.9932723 L15,18 L9,18 C8.44771525,18 8,17.5522847 8,17 C8,16.4871642 8.38604019,16.0644928 8.88337887,16.0067277 L9,16 L15,16 Z M14,12 C14.5522847,12 15,12.4477153 15,13 C15,13.5128358 14.6139598,13.9355072 14.1166211,13.9932723 L14,14 L10,14 C9.44771525,14 9,13.5522847 9,13 C9,12.4871642 9.38604019,12.0644928 9.88337887,12.0067277 L10,12 L14,12 Z"/>
</svg>
