<svg xmlns="http://www.w3.org/2000/svg" viewBox="0 0 24 24">
  <path d="M9.37 3.7a3 3 0 0 1 5.26 0l7.62 13.85A3 3 0 0 1 19.62 22H4.38a3 3 0 0 1-2.63-4.45zm3 .52a1 1 0 0 0-1.25.45L3.51 18.52A1 1 0 0 0 4.38 20h15.24a1 1 0 0 0 .87-1.48L12.88 4.67a1 1 0 0 0-.4-.4zM12 10a1 1 0 0 1 1 1v3.59l1.3-1.3.09-.08a1 1 0 0 1 1.32 1.5l-3 3-.08.07-.02.01-.01.01a1.04 1.04 0 0 1-.29.15l-.04.01a.94.94 0 0 1-.12.03h-.13L12 18h-.06a1.15 1.15 0 0 1-.2-.04l-.05-.01a.99.99 0 0 1-.29-.15l-.02-.02-.03-.02-.06-.05-3-3-.08-.1a1 1 0 0 1 1.5-1.32L11 14.6v-3.71a1 1 0 0 1 1-.88z"/>
</svg>
