<svg xmlns="http://www.w3.org/2000/svg" width="24" height="24" viewBox="0 0 24 24">
  <path d="M15,3 C19.5522847,3 23,6.44771525 23,11 C23,15.5522847 19.5522847,19 15,19 L15,19 L14.492,19 L14.4215793,19.0906275 C13.7103901,19.9663638 12.948642,20.6393906 11.8907103,21.256749 L11.8907103,21.256749 L11.5946555,21.4238497 L11.2369286,21.6140163 L10.9086251,21.7821926 C9.57755795,22.4597178 8,21.4937799 8,20 L8,20 L8,19 C4.27285013,19 1,15.3634999 1,11 C1,6.5377729 4.49099359,3 9,3 L9,3 Z M13,12 L11,12 L10.8151403,12.0049586 C9.41840278,12.0804956 8.5,13.0076133 8.5,14 C8.5,14.5 8.5,15 9.5,15 L9.5,15 L14.5,15 L14.6575789,14.9954561 C15.5,14.9444444 15.5,14.4722222 15.5,14 C15.5,12.9644661 14.5,12 13,12 L13,12 Z M12,7 C10.8954305,7 10,7.8954305 10,9 C10,10.1045695 10.8954305,11 12,11 C13.1045695,11 14,10.1045695 14,9 C14,7.8954305 13.1045695,7 12,7 Z"/>
</svg>
