<svg xmlns="http://www.w3.org/2000/svg" width="24" height="24" viewBox="0 0 24 24">
  <path d="M15,3 C19.5522847,3 23,6.44771525 23,11 C23,15.5522847 19.5522847,19 15,19 L15,19 L14.492,19 L14.4215793,19.0906275 C13.7103901,19.9663638 12.948642,20.6393906 11.8907103,21.256749 L11.8907103,21.256749 L11.5946555,21.4238497 L11.2369286,21.6140163 L10.9086251,21.7821926 C9.57755795,22.4597178 8,21.4937799 8,20 L8,20 L8,19 C4.27285013,19 1,15.3634999 1,11 C1,6.5377729 4.49099359,3 9,3 L9,3 Z M15,5 L9,5 C5.60156611,5 3,7.6364271 3,11 C3,14.3031668 5.42714987,17 8,17 L8,17 L9,17 C9.55228475,17 10,17.4477153 10,18 L10,18 L10,19.999 L10.3113445,19.8411503 L10.6455572,19.6634269 C11.7740931,19.0468761 12.4641772,18.4017399 13.194037,17.4080341 C13.3824481,17.1515119 13.6817197,17 14,17 L14,17 L15,17 C18.4477153,17 21,14.4477153 21,11 C21,7.55228475 18.4477153,5 15,5 L15,5 Z M12.3871006,7.20970461 C12.7793918,6.90467972 13.3466228,6.93240926 13.7071068,7.29289322 L13.7071068,7.29289322 L13.7902954,7.38710056 C14.0953203,7.77939176 14.0675907,8.34662282 13.7071068,8.70710678 L13.7071068,8.70710678 L11.415,11 L13.7071068,13.2928932 L13.7902954,13.3871006 C14.0953203,13.7793918 14.0675907,14.3466228 13.7071068,14.7071068 C13.3165825,15.0976311 12.6834175,15.0976311 12.2928932,14.7071068 L12.2928932,14.7071068 L9.29289322,11.7071068 L9.20970461,11.6128994 C8.90467972,11.2206082 8.93240926,10.6533772 9.29289322,10.2928932 L9.29289322,10.2928932 L12.2928932,7.29289322 Z"/>
</svg>
