<svg xmlns="http://www.w3.org/2000/svg" width="24" height="24" viewBox="0 0 24 24">
  <path d="M15.5857864,16 C15.8510029,16 16.1053568,16.1053568 16.2928932,16.2928932 C16.6834175,16.6834175 16.6834175,17.3165825 16.2928932,17.7071068 L16.2928932,17.7071068 L12.7071068,21.2928932 C12.3165825,21.6834175 11.6834175,21.6834175 11.2928932,21.2928932 L11.2928932,21.2928932 L7.70710678,17.7071068 C7.5195704,17.5195704 7.41421356,17.2652165 7.41421356,17 C7.41421356,16.4477153 7.86192881,16 8.41421356,16 L8.41421356,16 Z M21,11 C21.5522847,11 22,11.4477153 22,12 C22,12.5128358 21.6139598,12.9355072 21.1166211,12.9932723 L21,13 L3,13 C2.44771525,13 2,12.5522847 2,12 C2,11.4871642 2.38604019,11.0644928 2.88337887,11.0067277 L3,11 L21,11 Z M12.7071068,2.70710678 L16.2928932,6.29289322 C16.6834175,6.68341751 16.6834175,7.31658249 16.2928932,7.70710678 C16.1053568,7.89464316 15.8510029,8 15.5857864,8 L8.41421356,8 C7.86192881,8 7.41421356,7.55228475 7.41421356,7 C7.41421356,6.73478351 7.5195704,6.4804296 7.70710678,6.29289322 L11.2928932,2.70710678 C11.6834175,2.31658249 12.3165825,2.31658249 12.7071068,2.70710678 Z" transform="rotate(90 12 12)"/>
</svg>
