<svg xmlns="http://www.w3.org/2000/svg" width="24" height="24" viewBox="0 0 24 24">
  <path d="M17,2 C17.5128358,2 17.9355072,2.38604019 17.9932723,2.88337887 L18,3 L18,21 C18,21.5522847 17.5522847,22 17,22 C16.4871642,22 16.0644928,21.6139598 16.0067277,21.1166211 L16,21 L16,3 C16,2.44771525 16.4477153,2 17,2 Z M7,5.41421356 C7.26521649,5.41421356 7.5195704,5.5195704 7.70710678,5.70710678 L13.2928932,11.2928932 C13.6834175,11.6834175 13.6834175,12.3165825 13.2928932,12.7071068 L7.70710678,18.2928932 C7.31658249,18.6834175 6.68341751,18.6834175 6.29289322,18.2928932 C6.10535684,18.1053568 6,17.8510029 6,17.5857864 L6,6.41421356 C6,5.86192881 6.44771525,5.41421356 7,5.41421356 Z"/>
</svg>
