<svg xmlns="http://www.w3.org/2000/svg" width="24" height="24" viewBox="0 0 24 24">
  <path d="M12,0 C18.627417,0 24,5.372583 24,12 C24,18.627417 18.627417,24 12,24 C5.372583,24 0,18.627417 0,12 C0,5.372583 5.372583,0 12,0 Z M7.46888943,7.46888943 C5.64799083,9.28978803 5.50214409,12.1938675 7.13144476,14.1880397 C8.76074542,16.1822119 11.6356002,16.6182844 13.7829779,15.1969779 L16.3229779,17.7369779 C16.7153568,18.1159501 17.3390627,18.1105303 17.7247965,17.7247965 C18.1105303,17.3390627 18.1159501,16.7153568 17.7369779,16.3229779 L15.1969779,13.7829779 C16.6182844,11.6356002 16.1822119,8.76074542 14.1880397,7.13144476 C12.1938675,5.50214409 9.28978803,5.64799083 7.46888943,7.46888943 Z M11.0299779,8.02997792 C12.6868322,8.02997792 14.0299779,9.37312367 14.0299779,11.0299779 C14.0299779,12.6868322 12.6868322,14.0299779 11.0299779,14.0299779 C9.37312367,14.0299779 8.02997792,12.6868322 8.02997792,11.0299779 C8.02997792,9.37312367 9.37312367,8.02997792 11.0299779,8.02997792 Z" />
</svg>