<svg xmlns="http://www.w3.org/2000/svg" width="24" height="24" viewBox="0 0 24 24">
  <path d="M17,2 L23,12 L17,22 L7,22 L1,12 L7,2 L17,2 Z M16.6853647,8.27180001 C16.2831909,7.89328354 15.6503165,7.91246155 15.2718,8.3146353 L15.2718,8.3146353 L10.352,13.54 L8.72819999,11.8146353 L8.63655559,11.7286314 C8.25368331,11.4118643 7.68587261,11.4224002 7.3146353,11.7718 C6.91246155,12.1503165 6.89328354,12.7831909 7.27180001,13.1853647 L7.27180001,13.1853647 L9.62474118,15.6853647 L9.71331242,15.7688394 C10.1134372,16.1027381 10.7145073,16.0749132 11.0811412,15.6853647 L11.0811412,15.6853647 L16.7282,9.6853647 L16.808497,9.58868088 C17.1014998,9.18733072 17.056602,8.62119983 16.6853647,8.27180001 Z"/>
</svg>
