<svg xmlns="http://www.w3.org/2000/svg" width="24" height="24" viewBox="0 0 24 24">
  <path d="M12,1 C18.0751322,1 23,5.92486775 23,12 C23,18.0751322 18.0751322,23 12,23 C5.92486775,23 1,18.0751322 1,12 C1,5.92486775 5.92486775,1 12,1 Z M17.6616337,7.25017421 C17.2475097,6.88477067 16.6155778,6.92426642 16.2501742,7.33839043 L16.2501742,7.33839043 L9.94101207,14.4880121 L7.74984993,12.0050571 L7.66101521,11.916154 C7.28851489,11.5872527 6.72065875,11.5795453 6.33839043,11.9168409 C5.92426642,12.2822444 5.88477067,12.9141764 6.25017421,13.3283004 L6.25017421,13.3283004 L9.19135068,16.6616337 L9.28110804,16.7514076 C9.68838348,17.110503 10.3213694,17.0805783 10.6910264,16.6616337 L10.6910264,16.6616337 L17.7498499,8.66163371 L17.827,8.56242067 C18.1069605,8.15186649 18.043902,7.58746979 17.6616337,7.25017421 Z"/>
</svg>
