<svg xmlns="http://www.w3.org/2000/svg" width="24" height="24" viewBox="0 0 24 24">
  <g transform="translate(8 4)">
    <circle cx="4.105" cy="13.5" r="1.5"/>
    <path d="M4.105,0 C2.414,0 0.897,1.072 0.334,2.667 L8.8817842e-15,3.609 L1.885,4.276 L2.218,3.333 C2.501,2.536 3.259,2 4.105,2 C5.208,2 6.105,2.897 6.105,4 C6.105,4.632 5.86,4.839 5.153,5.347 C4.289,5.967 3.105,6.817 3.105,9 L3.105,10 L5.105,10 L5.105,9 C5.105,7.843 5.587,7.497 6.319,6.972 C7.073,6.431 8.105,5.69 8.105,4 C8.105,1.794 6.311,0 4.105,0 Z"/>
  </g>
</svg>
