<svg xmlns="http://www.w3.org/2000/svg" width="24" height="24" viewBox="0 0 24 24">
  <g fill="none" fill-rule="evenodd">
    <polygon stroke="#000" stroke-linecap="round" stroke-linejoin="round" stroke-width="2" points="12 3 22 21 2 21"/>
    <path fill="#000" fill-rule="nonzero" d="M12,17 C12.5522847,17 13,17.4477153 13,18 C13,18.5522847 12.5522847,19 12,19 C11.4477153,19 11,18.5522847 11,18 C11,17.4477153 11.4477153,17 12,17 Z M12,11 C13.1510417,11 14.0833333,11.9944444 14.0833333,13.2222222 C14.0833333,14.6111111 12.5208333,14.75 12.5208333,16 L12.5208333,16 L11.4791667,16 C11.4791667,14.1944444 13.0416667,14.3333333 13.0416667,13.2222222 C13.0416667,12.6111111 12.5729167,12.1111111 12,12.1111111 C11.4270833,12.1111111 10.9583333,12.6111111 10.9583333,13.2222222 L10.9583333,13.2222222 L9.91666667,13.2222222 C9.91666667,11.9944444 10.8489583,11 12,11 Z"/>
  </g>
</svg>
