<svg xmlns="http://www.w3.org/2000/svg" width="24" height="24" viewBox="0 0 24 24">
  <g fill="none" fill-rule="evenodd" transform="translate(3 3)">
    <rect width="18" height="18" stroke="#000" stroke-linecap="round" stroke-linejoin="round" stroke-width="2" rx="4"/>
    <path fill="#000" fill-rule="nonzero" d="M9,13 C9.55228475,13 10,13.4477153 10,14 C10,14.5522847 9.55228475,15 9,15 C8.44771525,15 8,14.5522847 8,14 C8,13.4477153 8.44771525,13 9,13 Z M9,3 C11.21,3 13,4.79 13,7 C13,9.5 10,9.75 10,12 L10,12 L8,12 C8,8.75 11,9 11,7 C11,5.9 10.1,5 9,5 C7.9,5 7,5.9 7,7 L7,7 L5,7 C5,4.79 6.79,3 9,3 Z"/>
  </g>
</svg>
