<svg xmlns="http://www.w3.org/2000/svg" width="24" height="24" viewBox="0 0 24 24">
  <g fill="none" fill-rule="evenodd" transform="translate(2 2)">
    <circle cx="10" cy="10" r="10" stroke="#000" stroke-linecap="round" stroke-linejoin="round" stroke-width="2"/>
    <path fill="#000" fill-rule="nonzero" d="M10,14 C10.5522847,14 11,14.4477153 11,15 C11,15.5522847 10.5522847,16 10,16 C9.44771525,16 9,15.5522847 9,15 C9,14.4477153 9.44771525,14 10,14 Z M10,4 C12.21,4 14,5.79 14,8 C14,10.5 11,10.75 11,13 L11,13 L9,13 C9,9.75 12,10 12,8 C12,6.9 11.1,6 10,6 C8.9,6 8,6.9 8,8 L8,8 L6,8 C6,5.79 7.79,4 10,4 Z"/>
  </g>
</svg>
