<svg xmlns="http://www.w3.org/2000/svg" width="24" height="24" viewBox="0 0 24 24">
  <path d="M12,1 C18.0751322,1 23,5.92486775 23,12 C23,18.0751322 18.0751322,23 12,23 C5.92486775,23 1,18.0751322 1,12 C1,5.92486775 5.92486775,1 12,1 Z M12,10 L10,10 L10,12 L11,12 L11,16 L9,16 L9,18 L15,18 L15,16 L13,16 L13,11 L12.9939504,10.8745627 C12.9418367,10.344898 12.5571429,10 12,10 L12,10 Z M11.5,6 C10.6715729,6 10,6.67157288 10,7.5 C10,8.32842712 10.6715729,9 11.5,9 C12.3284271,9 13,8.32842712 13,7.5 C13,6.67157288 12.3284271,6 11.5,6 Z"/>
</svg>
