<svg xmlns="http://www.w3.org/2000/svg" width="24" height="24" viewBox="0 0 24 24">
  <path d="M12,2 L23,22 L1,22 L12,2 Z M12,11 C11.4477153,11 11,11.4477153 11,12 L11,12 L10.999,14 L9,14 L8.88337887,14.0067277 C8.38604019,14.0644928 8,14.4871642 8,15 C8,15.5522847 8.44771525,16 9,16 L9,16 L10.999,16 L11,18 L11.0067277,18.1166211 C11.0644928,18.6139598 11.4871642,19 12,19 C12.5522847,19 13,18.5522847 13,18 L13,18 L12.999,16 L15,16 L15.1166211,15.9932723 C15.6139598,15.9355072 16,15.5128358 16,15 C16,14.4477153 15.5522847,14 15,14 L15,14 L12.999,14 L13,12 L12.9932723,11.8833789 C12.9355072,11.3860402 12.5128358,11 12,11 Z"/>
</svg>
