<svg xmlns="http://www.w3.org/2000/svg" viewBox="0 0 24 24">
  <path d="M12.5 3a8 8 0 018 8.36l-.03.3.06.03a5 5 0 012.46 4.08L23 16a5 5 0 01-4.78 5H6.5a1 1 0 01-.32-.05h-.01l-.22-.04A6 6 0 011 15.23V15a6 6 0 013.57-5.49l.08-.03.02-.12A8 8 0 0112.25 3zm0 2a6 6 0 00-5.96 5.33 1 1 0 01-.7.84 4 4 0 00.76 7.81h.06l.06.02h11.43a3 3 0 00.9-5.81 1 1 0 01-.65-1.12A6 6 0 0012.5 5zm-.28 5.18c.1.05.18.13.23.23l.87 1.77 1.96.28a.5.5 0 01.27.86l-1.41 1.38.33 1.94a.5.5 0 01-.72.53L12 16.25l-1.75.92a.5.5 0 01-.72-.53l.33-1.94-1.41-1.38a.5.5 0 01.27-.86l1.96-.28.87-1.77a.5.5 0 01.67-.23z"/>
</svg>
