<svg xmlns="http://www.w3.org/2000/svg" width="24" height="24" viewBox="0 0 24 24">
  <path d="M13,19 C13.5522847,19 14,19.4477153 14,20 C14,20.5128358 13.6139598,20.9355072 13.1166211,20.9932723 L13,21 L3,21 C2.44771525,21 2,20.5522847 2,20 C2,19.4871642 2.38604019,19.0644928 2.88337887,19.0067277 L3,19 L13,19 Z M21,15 C21.5522847,15 22,15.4477153 22,16 C22,16.5128358 21.6139598,16.9355072 21.1166211,16.9932723 L21,17 L3,17 C2.44771525,17 2,16.5522847 2,16 C2,15.4871642 2.38604019,15.0644928 2.88337887,15.0067277 L3,15 L21,15 Z M21,11 C21.5522847,11 22,11.4477153 22,12 C22,12.5128358 21.6139598,12.9355072 21.1166211,12.9932723 L21,13 L3,13 C2.44771525,13 2,12.5522847 2,12 C2,11.4871642 2.38604019,11.0644928 2.88337887,11.0067277 L3,11 L21,11 Z M21,7 C21.5522847,7 22,7.44771525 22,8 C22,8.51283584 21.6139598,8.93550716 21.1166211,8.99327227 L21,9 L3,9 C2.44771525,9 2,8.55228475 2,8 C2,7.48716416 2.38604019,7.06449284 2.88337887,7.00672773 L3,7 L21,7 Z M21,3 C21.5522847,3 22,3.44771525 22,4 C22,4.51283584 21.6139598,4.93550716 21.1166211,4.99327227 L21,5 L3,5 C2.44771525,5 2,4.55228475 2,4 C2,3.48716416 2.38604019,3.06449284 2.88337887,3.00672773 L3,3 L21,3 Z"/>
</svg>
