<svg xmlns="http://www.w3.org/2000/svg" viewBox="0 0 24 24">
  <path d="M20 4a3 3 0 013 3v3a1 1 0 01-1 1h-1a1 1 0 00-1 .89V12c0 .52.4.96.89 1H22a1 1 0 011 1v3a3 3 0 01-3 3H4a3 3 0 01-3-3v-3a1 1 0 011-1h1a1 1 0 001-.89V12a1 1 0 00-.89-1H2a1 1 0 01-1-1V7a3 3 0 013-3zm0 2H4a1 1 0 00-1 1v2h.22A3 3 0 016 12.05v.18A3 3 0 013 15v2a1 1 0 00.88 1H20a1 1 0 001-1v-2h-.22A3 3 0 0118 11.95v-.18A3 3 0 0121 9V7a1 1 0 00-1-1zm-4.23 5.36l.01.01.02.03.05.08.03.04.03.06.02.05a.99.99 0 01.06.22v.09l.01.04v.09-.01.02l-.01.07a1.08 1.08 0 01-.06.22l-.02.05a1.02 1.02 0 01-.13.2l-.07.09-3 3a1 1 0 01-1.5-1.32l.08-.1L12.6 13H9a1 1 0 01-.12-2h3.71l-1.3-1.3a1 1 0 011.32-1.49l.1.08 3 3 .06.08v-.01z"/>
</svg>
