<svg xmlns="http://www.w3.org/2000/svg" viewBox="0 0 24 24">
  <path d="M20 4a3 3 0 013 2.82V10h-1a2 2 0 00-.15 4H23v3a3 3 0 01-2.82 3H4a3 3 0 01-3-2.82V14h1a2 2 0 00.15-4H1V7a3 3 0 012.82-3H20zm-4.22 7.38l-.01-.02v.01l-.06-.08-3-3-.1-.08a1 1 0 00-1.32 1.5L12.6 11H8.88A1 1 0 009 13h3.59l-1.3 1.3-.08.09a1 1 0 001.5 1.32l3-3 .07-.08a3 3 0 00.1-.15l.03-.06.02-.05a.95.95 0 00.06-.22v-.09.01-.05L16 12v-.09l-.01-.06a1.1 1.1 0 00-.06-.22l-.02-.05a1.04 1.04 0 00-.03-.06l-.03-.04a1.03 1.03 0 00-.05-.08l-.02-.03z"/>
</svg>
