<svg xmlns="http://www.w3.org/2000/svg" viewBox="0 0 24 24">
  <path d="M12 2a10 10 0 016.77 17.36l1.44 1.43a1 1 0 01-1.32 1.5l-.1-.08-1.63-1.64a9.95 9.95 0 01-10.32 0l-1.63 1.64a1 1 0 01-1.5-1.32l.08-.1 1.44-1.43A10 10 0 0112 2zm0 2a8 8 0 100 16 8 8 0 000-16zm0 2a1 1 0 011 .88v4.71l2.7 2.7a1 1 0 01.09 1.32l-.08.1a1 1 0 01-1.32.08l-.1-.08-3-3a1 1 0 01-.28-.58L11 12V7a1 1 0 011-1zM5.7 1.3a1 1 0 01.1 1.3l-.08.1-3 3a1 1 0 01-1.5-1.32l.08-.1 3-3a1 1 0 011.42 0zm13.91-.09l.1.08 3 3a1 1 0 01-1.32 1.5l-.1-.08-3-3a1 1 0 011.32-1.5z"/>
</svg>
