<svg xmlns="http://www.w3.org/2000/svg" viewBox="0 0 24 24">
  <path d="M20.99 10.57a4.85 4.85 0 01-.94 9.16l-.2.04V21c0 .55-.5.94-1.02.83l-.1-.02-.26-.1c-1.57-.54-2.6-1.1-3.05-1.81l-.03-.05H15a4.8 4.8 0 01-3.34-1.33c.36-.37.63-.75.81-1.12h.49c.55.47 1.26.75 2.04.75h1c.47 0 .85.38.85.85 0 .07.27.29.85.57l.31.14.14.06V19c0-.43.32-.79.74-.84l.11-.01a3.15 3.15 0 001.68-5.81c.16-.53.27-1.08.3-1.66l.01-.1zM12 2a7 7 0 110 14h-.69l-.04.06a9.44 9.44 0 01-3.14 2.48l-.35.18-.33.17A1 1 0 016 18v-2.07l-.18-.03A7 7 0 010 9.24V9a7 7 0 017-7zm0 2H7a5 5 0 000 10 1 1 0 011 1v1.3l.14-.1a5.23 5.23 0 001.64-1.52l.08-.13a1 1 0 01.89-.55H12a5 5 0 000-10z"/>
</svg>
