<svg xmlns="http://www.w3.org/2000/svg" viewBox="0 0 24 24">
  <path d="M20 11a1 1 0 011 1 9 9 0 01-9 9 9.16 9.16 0 01-6-2.24V21a1 1 0 01-2 0v-5.02a1 1 0 010-.06V16a1 1 0 01.07-.36v-.02a.8.8 0 01.03-.06l.01-.02a1 1 0 01.38-.4l.03-.02a1 1 0 01.04-.02l.02-.01-.08.04a1 1 0 01.38-.12h.03a1 1 0 01.07-.01H10a1 1 0 010 2H7.04c1.3 1.25 3.08 2 4.96 2a7 7 0 007-7 1 1 0 011-1zm-1-9a1 1 0 011 1v5.03a1 1 0 010 .04V8a1 1 0 01-.07.36l-.01.04-.03.06v.01l-.02.02a1 1 0 01-.14.19l-.02.03a1 1 0 01-.22.16l.1-.06-.05.03a1 1 0 01-.03.02l-.02.01a1.02 1.02 0 01-.08.04l-.02.01h-.01l-.04.02a1 1 0 01-.03.01l-.03.01h-.02a1 1 0 01-.23.04H14a1 1 0 010-2h2.98A7.1 7.1 0 0012 5a7 7 0 00-7 7 1 1 0 11-2 0 9 9 0 019-9c2.27 0 4.39.81 6 2.22V3a1 1 0 011-1z"/>
</svg>
