<svg xmlns="http://www.w3.org/2000/svg" width="24" height="24" viewBox="0 0 24 24">
  <path d="M22,10 L22,20 C22,21.1045695 21.1045695,22 20,22 L4,22 C2.8954305,22 2,21.1045695 2,20 L2,10 L22,10 Z M18,17 L6,17 L5.88337887,17.0067277 C5.38604019,17.0644928 5,17.4871642 5,18 C5,18.5522847 5.44771525,19 6,19 L6,19 L18,19 L18.1166211,18.9932723 C18.6139598,18.9355072 19,18.5128358 19,18 C19,17.4477153 18.5522847,17 18,17 L18,17 Z M18,13 L6,13 L5.88337887,13.0067277 C5.38604019,13.0644928 5,13.4871642 5,14 C5,14.5522847 5.44771525,15 6,15 L6,15 L18,15 L18.1166211,14.9932723 C18.6139598,14.9355072 19,14.5128358 19,14 C19,13.4477153 18.5522847,13 18,13 L18,13 Z M6,4 L6,5 L6.00672773,5.11662113 C6.06449284,5.61395981 6.48716416,6 7,6 C7.51283584,6 7.93550716,5.61395981 7.99327227,5.11662113 L8,5 L8,4 L16,4 L16,5 L16.0067277,5.11662113 C16.0644928,5.61395981 16.4871642,6 17,6 C17.5128358,6 17.9355072,5.61395981 17.9932723,5.11662113 L18,5 L18,4 L20,4 C21.0543618,4 21.9181651,4.81587779 21.9945143,5.85073766 L22,6 L22,8 L2,8 L2,6 C2,4.8954305 2.8954305,4 4,4 L6,4 Z M17,2 C17.5128358,2 17.9355072,2.38604019 17.9932723,2.88337887 L18,3 L18,4 L16,4 L16,3 C16,2.44771525 16.4477153,2 17,2 Z M7,2 C7.51283584,2 7.93550716,2.38604019 7.99327227,2.88337887 L8,3 L8,4 L6,4 L6,3 C6,2.44771525 6.44771525,2 7,2 Z"/>
</svg>
