<svg xmlns="http://www.w3.org/2000/svg" width="24" height="24" viewBox="0 0 24 24">
  <path d="M22,10 L22,20 C22,21.1045695 21.1045695,22 20,22 L4,22 C2.8954305,22 2,21.1045695 2,20 L2,10 L22,10 Z M14.2928932,18.2928932 C13.9023689,18.6834175 13.9023689,19.3165825 14.2928932,19.7071068 C14.6834175,20.0976311 15.3165825,20.0976311 15.7071068,19.7071068 C16.0976311,19.3165825 16.0976311,18.6834175 15.7071068,18.2928932 C15.3165825,17.9023689 14.6834175,17.9023689 14.2928932,18.2928932 Z M14.3871006,12.2097046 L14.2928932,12.2928932 L8.29289322,18.2928932 L8.20970461,18.3871006 C7.90467972,18.7793918 7.93240926,19.3466228 8.29289322,19.7071068 C8.65337718,20.0675907 9.22060824,20.0953203 9.61289944,19.7902954 L9.70710678,19.7071068 L15.7071068,13.7071068 L15.7902954,13.6128994 C16.0953203,13.2206082 16.0675907,12.6533772 15.7071068,12.2928932 C15.3466228,11.9324093 14.7793918,11.9046797 14.3871006,12.2097046 Z M8.29289322,12.2928932 C7.90236893,12.6834175 7.90236893,13.3165825 8.29289322,13.7071068 C8.68341751,14.0976311 9.31658249,14.0976311 9.70710678,13.7071068 C10.0976311,13.3165825 10.0976311,12.6834175 9.70710678,12.2928932 C9.31658249,11.9023689 8.68341751,11.9023689 8.29289322,12.2928932 Z M16,4 L16,5 L16.0067277,5.11662113 C16.0644928,5.61395981 16.4871642,6 17,6 C17.5128358,6 17.9355072,5.61395981 17.9932723,5.11662113 L18,5 L18,4 L20,4 C21.0543618,4 21.9181651,4.81587779 21.9945143,5.85073766 L22,6 L22,8 L2,8 L2,6 C2,4.8954305 2.8954305,4 4,4 L6,4 L6,3 C6,2.44771525 6.44771525,2 7,2 C7.51283584,2 7.93550716,2.38604019 7.99327227,2.88337887 L8,3 L8,4 L6,4 L6,5 L6.00672773,5.11662113 C6.06449284,5.61395981 6.48716416,6 7,6 C7.51283584,6 7.93550716,5.61395981 7.99327227,5.11662113 L8,5 L8,4 L16,4 Z M17,2 C17.5128358,2 17.9355072,2.38604019 17.9932723,2.88337887 L18,3 L18,4 L16,4 L16,3 C16,2.44771525 16.4477153,2 17,2 Z"/>
</svg>
