<svg xmlns="http://www.w3.org/2000/svg" width="24" height="24" viewBox="0 0 24 24">
  <path d="M6,4 L6,5 L6.00672773,5.11662113 C6.06449284,5.61395981 6.48716416,6 7,6 C7.51283584,6 7.93550716,5.61395981 7.99327227,5.11662113 L8,5 L8,4 L16,4 L16,5 L16.0067277,5.11662113 C16.0644928,5.61395981 16.4871642,6 17,6 C17.5128358,6 17.9355072,5.61395981 17.9932723,5.11662113 L18,5 L18,4 L20,4 C21.0543618,4 21.9181651,4.81587779 21.9945143,5.85073766 L22,6 L22,19 C22,20.5976809 20.75108,21.9036609 19.1762728,21.9949073 L19,22 L5,22 C3.40231912,22 2.09633912,20.75108 2.00509269,19.1762728 L2,19 L2,6 C2,4.8954305 2.8954305,4 4,4 L6,4 Z M20,8 L4,8 L4,19 C4,19.4733869 4.32893365,19.8699473 4.77070917,19.9735893 L4.88337887,19.9932723 L5,20 L19,20 C19.5128358,20 19.9355072,19.6139598 19.9932723,19.1166211 L20,19 L20,8 Z M12.0001686,16 C12.5524586,16 13.0001686,16.4477 13.0001686,17 C13.0001686,17.5523 12.5524586,18 12.0001686,18 C11.4478886,18 11.0001686,17.5523 11.0001686,17 C11.0001686,16.4477 11.4478886,16 12.0001686,16 Z M12.0001686,10 C12.5537486,10 13.1555886,10.16344 13.6376686,10.525 C14.1397686,10.90158 14.5001686,11.48991 14.5001686,12.25 C14.5001686,12.69838 14.3847686,13.07994 14.1710686,13.4004 C13.9664386,13.70737 13.7009186,13.91339 13.4787086,14.06154 C13.3700286,14.134 13.2594286,14.20036 13.1657686,14.25656 L13.1657686,14.25656 C13.0591686,14.32052 12.9769786,14.37001 12.9005986,14.42093 C12.7478286,14.52279 12.6695886,14.59803 12.6242286,14.66609 C12.3944886,15.01075 11.9288386,15.10391 11.5841786,14.87417 C11.2395186,14.64442 11.1463586,14.17878 11.3760986,13.83412 C11.5807386,13.52712 11.8462486,13.32107 12.0684786,13.1729 C12.1772086,13.10041 12.2878586,13.03402 12.3815586,12.9778 L12.3815586,12.9778 C12.4880486,12.9139 12.5702386,12.86441 12.6466286,12.81349 C12.7994086,12.71162 12.8776486,12.63639 12.9229986,12.56835 C12.9593586,12.51381 13.0001686,12.42662 13.0001686,12.25 C13.0001686,12.01009 12.9022286,11.84842 12.7376686,11.725 C12.5530786,11.58656 12.2799186,11.5 12.0001686,11.5 C11.6314086,11.5 11.4046986,11.59004 11.2599386,11.68654 C11.1104886,11.78617 11.0014986,11.92438 10.9209886,12.08541 C10.7357486,12.45589 10.2852386,12.60606 9.91475858,12.42082 C9.54426858,12.23558 9.39409858,11.78507 9.57934858,11.41459 C9.74882858,11.07562 10.0148386,10.71383 10.4278886,10.43846 C10.8456386,10.15996 11.3689286,10 12.0001686,10 Z M17,2 C17.5128358,2 17.9355072,2.38604019 17.9932723,2.88337887 L18,3 L18,4 L16,4 L16,3 C16,2.44771525 16.4477153,2 17,2 Z M7,2 C7.51283584,2 7.93550716,2.38604019 7.99327227,2.88337887 L8,3 L8,4 L6,4 L6,3 C6,2.44771525 6.44771525,2 7,2 Z"/>
</svg>
