<svg xmlns="http://www.w3.org/2000/svg" width="24" height="24" viewBox="0 0 24 24">
  <path d="M6,4 L6,5 L6.00672773,5.11662113 C6.06449284,5.61395981 6.48716416,6 7,6 C7.51283584,6 7.93550716,5.61395981 7.99327227,5.11662113 L8,5 L8,4 L16,4 L16,5 L16.0067277,5.11662113 C16.0644928,5.61395981 16.4871642,6 17,6 C17.5128358,6 17.9355072,5.61395981 17.9932723,5.11662113 L18,5 L18,4 L20,4 C21.0543618,4 21.9181651,4.81587779 21.9945143,5.85073766 L22,6 L22,19 C22,20.5976809 20.75108,21.9036609 19.1762728,21.9949073 L19,22 L5,22 C3.40231912,22 2.09633912,20.75108 2.00509269,19.1762728 L2,19 L2,6 C2,4.8954305 2.8954305,4 4,4 L6,4 Z M20,8 L4,8 L4,19 C4,19.4733869 4.32893365,19.8699473 4.77070917,19.9735893 L4.88337887,19.9932723 L5,20 L19,20 C19.5128358,20 19.9355072,19.6139598 19.9932723,19.1166211 L20,19 L20,8 Z M12,10 C12.5522847,10 13,10.4477153 13,11 L13,11 L13,14.585 L14.2928932,13.2928932 L14.3871006,13.2097046 C14.7793918,12.9046797 15.3466228,12.9324093 15.7071068,13.2928932 C16.0976311,13.6834175 16.0976311,14.3165825 15.7071068,14.7071068 L15.7071068,14.7071068 L12.7071068,17.7071068 L12.625449,17.7803112 C12.6225624,17.7826279 12.6196628,17.7849289 12.6128994,17.7902954 C12.6070733,17.7948255 12.6012086,17.7992821 12.5951593,17.8036865 C12.5711307,17.8215099 12.546275,17.8382813 12.5207088,17.8540045 C12.5086131,17.8613931 12.4963944,17.8685012 12.484277,17.8751242 C12.4642939,17.8862061 12.4438914,17.8966234 12.4232215,17.9063266 L12.4232215,17.9063266 L12.3710585,17.928896 C12.3515792,17.9366843 12.3317977,17.9438775 12.3121425,17.9502619 C12.2968513,17.9552713 12.2814633,17.9599023 12.2658396,17.964279 C12.2444365,17.9701664 12.2227461,17.9753602 12.2007258,17.9797599 C12.1833753,17.9832978 12.165949,17.9863719 12.1489612,17.9889807 L12.1489612,17.9889807 L12.08,17.996 L12.026,17.999 L12.019,17.999 L12,18 C11.9935938,18 11.9872016,17.9999398 11.980824,17.9998198 L11.980824,17.9998198 L11.9409686,17.9982669 C11.9308872,17.9976744 11.9208131,17.99693 11.909968,17.996002 L11.909968,17.996002 L11.8515331,17.9889822 C11.834051,17.9863719 11.8166247,17.9832978 11.7992059,17.9798348 C11.7772539,17.9753602 11.7555635,17.9701664 11.734007,17.9641549 C11.7185367,17.9599023 11.7031487,17.9552713 11.6882636,17.9504533 C11.6682023,17.9438775 11.6484208,17.9366843 11.628664,17.9287745 L11.628664,17.9287745 L11.5769009,17.9063462 C11.5561086,17.8966234 11.5357061,17.8862061 11.5159379,17.8753288 L11.5159379,17.8753288 L11.4793398,17.8539326 C11.453725,17.8382813 11.4288693,17.8215099 11.4046934,17.8036654 L11.4046934,17.8036654 L11.38,17.784 L11.3832499,17.787214 L11.378,17.783 L11.374551,17.7803112 L11.359,17.767 L11.347434,17.757792 L11.347434,17.757792 L11.2928932,17.7071068 L8.29289322,14.7071068 L8.20970461,14.6128994 C7.90467972,14.2206082 7.93240926,13.6533772 8.29289322,13.2928932 C8.68341751,12.9023689 9.31658249,12.9023689 9.70710678,13.2928932 L9.70710678,13.2928932 L11,14.585 L11,11 L11.0067277,10.8833789 C11.0644928,10.3860402 11.4871642,10 12,10 Z M17,2 C17.5128358,2 17.9355072,2.38604019 17.9932723,2.88337887 L18,3 L18,4 L16,4 L16,3 C16,2.44771525 16.4477153,2 17,2 Z M7,2 C7.51283584,2 7.93550716,2.38604019 7.99327227,2.88337887 L8,3 L8,4 L6,4 L6,3 C6,2.44771525 6.44771525,2 7,2 Z"/>
</svg>
