<svg xmlns="http://www.w3.org/2000/svg" width="24" height="24" viewBox="0 0 24 24">
  <path d="M22,10 L22,20 C22,21.1045695 21.1045695,22 20,22 L4,22 C2.8954305,22 2,21.1045695 2,20 L2,10 L22,10 Z M11.5986316,12.3314633 L11.551632,12.4084929 L10.6774832,14.1797118 L8.72282709,14.4637399 C8.61400857,14.4795522 8.51343737,14.5307958 8.43668307,14.6095376 C8.26534919,14.7853081 8.24950906,15.0549569 8.38698464,15.2480838 L8.4457204,15.3165866 L9.86012284,16.6952882 L9.52622772,18.6420462 C9.50763929,18.750425 9.52529663,18.861909 9.57646617,18.9592393 C9.69068875,19.1765035 9.94224519,19.2748945 10.1684021,19.2038269 L10.2517024,19.1691344 L12,18.25 L13.7482976,19.1691344 C13.8456278,19.220304 13.9571118,19.2379613 14.0654907,19.2193729 C14.307418,19.1778791 14.4787285,18.9690392 14.4810256,18.7319901 L14.4737723,18.6420462 L14.1398772,16.6952882 L15.5542796,15.3165866 C15.6330214,15.2398323 15.684265,15.1392611 15.7000773,15.0304426 C15.735374,14.7875338 15.5896933,14.5600726 15.3649561,14.4846358 L15.2771729,14.4637399 L13.3225168,14.1797118 L12.448368,12.4084929 C12.3997029,12.3098866 12.3198892,12.2300728 12.2212829,12.1814077 C12.0011701,12.0727756 11.7398239,12.1410368 11.5986316,12.3314633 Z M16,4 L16,5 L16.0067277,5.11662113 C16.0644928,5.61395981 16.4871642,6 17,6 C17.5128358,6 17.9355072,5.61395981 17.9932723,5.11662113 L18,5 L18,4 L20,4 C21.0543618,4 21.9181651,4.81587779 21.9945143,5.85073766 L22,6 L22,8 L2,8 L2,6 C2,4.8954305 2.8954305,4 4,4 L6,4 L6,3 C6,2.44771525 6.44771525,2 7,2 C7.51283584,2 7.93550716,2.38604019 7.99327227,2.88337887 L8,3 L8,4 L6,4 L6,5 L6.00672773,5.11662113 C6.06449284,5.61395981 6.48716416,6 7,6 C7.51283584,6 7.93550716,5.61395981 7.99327227,5.11662113 L8,5 L8,4 L16,4 Z M17,2 C17.5128358,2 17.9355072,2.38604019 17.9932723,2.88337887 L18,3 L18,4 L16,4 L16,3 C16,2.44771525 16.4477153,2 17,2 Z"/>
</svg>
