<svg xmlns="http://www.w3.org/2000/svg" viewBox="0 0 24 24">
  <path d="M14 2a3 3 0 013 2.82V6h2a3 3 0 013 2.82V19a3 3 0 01-2.82 3H5a3 3 0 01-3-2.82V9a3 3 0 012.82-3H7V5a3 3 0 012.82-3H14zm5 6H5a1 1 0 00-1 .88V19a1 1 0 00.88 1H19a1 1 0 001-.88V9a1 1 0 00-1-1zM8 14.06v-.15l.01-.06a1.1 1.1 0 01.06-.22l.02-.05.03-.06.03-.04.05-.08.02-.03.01-.01.01-.01.05-.06 3-3 .1-.08a1 1 0 011.32 1.5L11.4 13h3.71a1 1 0 01-.12 2H11.4l1.3 1.3.08.09a1 1 0 01-1.5 1.32l-3-3-.07-.08a3.01 3.01 0 01-.1-.15 1.02 1.02 0 01-.03-.06l-.02-.05A.95.95 0 018 14v.06zM14 4h-4a1 1 0 00-1 .88V6h6V5a1 1 0 00-.88-1H14z"/>
</svg>
