<svg xmlns="http://www.w3.org/2000/svg" viewBox="0 0 24 24">
  <path d="M11 4a1 1 0 01.7.3L13.42 6H19a3 3 0 013 2.82V17a3 3 0 01-3 3H5a3 3 0 01-3-3V7a3 3 0 013-3zm-.41 2H5a1 1 0 00-1 1v10a1 1 0 001 1h14a1 1 0 001-1V9a1 1 0 00-1-1h-6a1 1 0 01-.7-.3L10.58 6zm5.18 6.36l.01.01.02.03.05.08.03.04.03.06.02.05a.99.99 0 01.06.22v.09l.01.04v.09-.01.02l-.01.07a1.08 1.08 0 01-.06.22l-.02.05a1.02 1.02 0 01-.13.2l-.07.09-3 3a1 1 0 01-1.5-1.32l.08-.1L12.6 14H9a1 1 0 01-.12-2h3.71l-1.3-1.3a1 1 0 011.32-1.49l.1.08 3 3 .06.08v-.01z"/>
</svg>
