<svg xmlns="http://www.w3.org/2000/svg" viewBox="0 0 24 24">
  <path d="M6 16h.12A1 1 0 017 17a3 3 0 002.82 3h4.36a3 3 0 002.81-2.82L17 17v-.12a1 1 0 01.88-.87L18 16h4v4a2 2 0 01-2 2H4a2 2 0 01-2-2v-4h4zM20 2a2 2 0 012 2v10h-4.18A3 3 0 0015 17a1 1 0 01-.88 1H9.88a1 1 0 01-.87-.88L9 17v-.18a3 3 0 00-2.82-2.81L6 14H2V4c0-1.1.9-2 2-2h16zm-8 9a1 1 0 100 2 1 1 0 000-2zm0-6c-.63 0-1.15.16-1.57.44a2.5 2.5 0 00-.85.97.75.75 0 101.34.68 1 1 0 01.34-.4c.14-.1.37-.19.74-.19.28 0 .55.09.74.22.16.13.26.29.26.53 0 .18-.04.26-.08.32a.96.96 0 01-.27.24l-.26.16-.32.2c-.22.15-.49.36-.7.66a.75.75 0 001.25.84.96.96 0 01.28-.25l.26-.16.32-.2a2.03 2.03 0 001.02-1.81 2.1 2.1 0 00-.86-1.72A2.76 2.76 0 0012 5z"/>
</svg>
