<?xml version="1.0" encoding="utf-8"?>
<svg xmlns="http://www.w3.org/2000/svg">
<symbol id="arrow-bottom-left" viewBox="0 0 24 24">
  <path fill="none" stroke="currentColor" stroke-linecap="round" stroke-linejoin="round" stroke-width="2" d="M19 5L5 19m0 0h8m-8 0v-8"/>

</symbol>
<symbol id="arrow-bottom-right" viewBox="0 0 24 24">
  <path fill="none" stroke="currentColor" stroke-linecap="round" stroke-linejoin="round" stroke-width="2" d="M5 5l14 14m0 0v-8m0 8h-8"/>

</symbol>
<symbol id="arrow-down" viewBox="0 0 24 24">
  <path fill="none" stroke="currentColor" stroke-linecap="round" stroke-linejoin="round" stroke-width="2" d="M12 4v16m0 0l5.657-5.657M12 20l-5.657-5.657"/>

</symbol>
<symbol id="arrow-left" viewBox="0 0 24 24">
  <path fill="none" stroke="currentColor" stroke-linecap="round" stroke-linejoin="round" stroke-width="2" d="M20 12H4m0 0l5.657 5.657M4 12l5.657-5.657"/>

</symbol>
<symbol id="arrow-long-bottom-left" viewBox="0 0 24 24">
  <path fill="none" stroke="currentColor" stroke-linecap="round" stroke-linejoin="round" stroke-width="2" d="M21 3L3 21m0 0h8m-8 0v-8"/>

</symbol>
<symbol id="arrow-long-bottom-right" viewBox="0 0 24 24">
  <path fill="none" stroke="currentColor" stroke-linecap="round" stroke-linejoin="round" stroke-width="2" d="M3 3l18 18m0 0v-8m0 8h-8"/>

</symbol>
<symbol id="arrow-long-down" viewBox="0 0 24 24">
  <path fill="none" stroke="currentColor" stroke-linecap="round" stroke-linejoin="round" stroke-width="2" d="M12 2v20m0 0l5.657-5.657M12 22l-5.657-5.657"/>

</symbol>
<symbol id="arrow-long-left" viewBox="0 0 24 24">
  <path fill="none" stroke="currentColor" stroke-linecap="round" stroke-linejoin="round" stroke-width="2" d="M22 12H2m0 0l5.657 5.657M2 12l5.657-5.657"/>

</symbol>
<symbol id="arrow-long-right" viewBox="0 0 24 24">
  <path fill="none" stroke="currentColor" stroke-linecap="round" stroke-linejoin="round" stroke-width="2" d="M2 12h20m0 0l-5.657-5.657M22 12l-5.657 5.657"/>

</symbol>
<symbol id="arrow-long-top-left" viewBox="0 0 24 24">
  <path fill="none" stroke="currentColor" stroke-linecap="round" stroke-linejoin="round" stroke-width="2" d="M21 21L3 3m0 0v8m0-8h8"/>

</symbol>
<symbol id="arrow-long-top-right" viewBox="0 0 24 24">
  <path fill="none" stroke="currentColor" stroke-linecap="round" stroke-linejoin="round" stroke-width="2" d="M3 21L21 3m0 0v8m0-8h-8"/>

</symbol>
<symbol id="arrow-long-up" viewBox="0 0 24 24">
  <path fill="none" stroke="currentColor" stroke-linecap="round" stroke-linejoin="round" stroke-width="2" d="M12 22V2m0 0L6.343 7.657M12 2l5.657 5.657"/>

</symbol>
<symbol id="arrow-long" viewBox="0 0 24 24">
  <path fill="none" stroke="currentColor" stroke-linecap="round" stroke-linejoin="round" stroke-width="2" d="M22 12H2m0 0l5.657 5.657M2 12l5.657-5.657"/>

</symbol>
<symbol id="arrow-right" viewBox="0 0 24 24">
  <path fill="none" stroke="currentColor" stroke-linecap="round" stroke-linejoin="round" stroke-width="2" d="M4 12h16m0 0l-5.657-5.657M20 12l-5.657 5.657"/>

</symbol>
<symbol id="arrow-top-left" viewBox="0 0 24 24">
  <path fill="none" stroke="currentColor" stroke-linecap="round" stroke-linejoin="round" stroke-width="2" d="M19 19L5 5m0 0v8m0-8h8"/>

</symbol>
<symbol id="arrow-top-right" viewBox="0 0 24 24">
  <path fill="none" stroke="currentColor" stroke-linecap="round" stroke-linejoin="round" stroke-width="2" d="M5 19L19 5m0 0v8m0-8h-8"/>

</symbol>
<symbol id="arrow-up" viewBox="0 0 24 24">
  <path fill="none" stroke="currentColor" stroke-linecap="round" stroke-linejoin="round" stroke-width="2" d="M12 20V4m0 0L6.343 9.657M12 4l5.657 5.657"/>

</symbol>
<symbol id="arrow-wide-bottom-left" viewBox="0 0 24 24">
  <path fill="none" stroke="currentColor" stroke-linecap="round" stroke-linejoin="round" stroke-width="2" d="M21 3L3 21m0 0h12M3 21V9"/>

</symbol>
<symbol id="arrow-wide-bottom-right" viewBox="0 0 24 24">
  <path fill="none" stroke="currentColor" stroke-linecap="round" stroke-linejoin="round" stroke-width="2" d="M3 3l18 18m0 0V9m0 12H9"/>

</symbol>
<symbol id="arrow-wide-down" viewBox="0 0 24 24">
  <path fill="none" stroke="currentColor" stroke-linecap="round" stroke-linejoin="round" stroke-width="2" d="M12 2v20m0 0l8.486-8.485M12 22l-8.485-8.485"/>

</symbol>
<symbol id="arrow-wide-left" viewBox="0 0 24 24">
  <path fill="none" stroke="currentColor" stroke-linecap="round" stroke-linejoin="round" stroke-width="2" d="M22 12H2m0 0l8.485 8.486M2 12l8.485-8.485"/>

</symbol>
<symbol id="arrow-wide-right" viewBox="0 0 24 24">
  <path fill="none" stroke="currentColor" stroke-linecap="round" stroke-linejoin="round" stroke-width="2" d="M2 12h20m0 0l-8.485-8.485M22 12l-8.485 8.486"/>

</symbol>
<symbol id="arrow-wide-top-left" viewBox="0 0 24 24">
  <path fill="none" stroke="currentColor" stroke-linecap="round" stroke-linejoin="round" stroke-width="2" d="M21 21L3 3m0 0v12M3 3h12"/>

</symbol>
<symbol id="arrow-wide-top-right" viewBox="0 0 24 24">
  <path fill="none" stroke="currentColor" stroke-linecap="round" stroke-linejoin="round" stroke-width="2" d="M3 21L21 3m0 0H9m12 0v12"/>

</symbol>
<symbol id="arrow-wide-up" viewBox="0 0 24 24">
  <path fill="none" stroke="currentColor" stroke-linecap="round" stroke-linejoin="round" stroke-width="2" d="M12 22V2m0 0l-8.485 8.485M12 2l8.486 8.485"/>

</symbol>
<symbol id="arrow-wide" viewBox="0 0 24 24">
  <path fill="none" stroke="currentColor" stroke-linecap="round" stroke-linejoin="round" stroke-width="2" d="M22 12H2m0 0l8.485 8.486M2 12l8.485-8.485"/>

</symbol>
<symbol id="arrow" viewBox="0 0 24 24">
  <path fill="none" stroke="currentColor" stroke-linecap="round" stroke-linejoin="round" stroke-width="2" d="M20 12H4m0 0l5.657 5.657M4 12l5.657-5.657"/>

</symbol>
<symbol id="arrows-down-up" viewBox="0 0 24 24">
  <path fill="none" stroke="currentColor" stroke-linecap="round" stroke-linejoin="round" stroke-width="2" d="M18 20V4m0 0l-4 4m4-4l4 4M6 4v16m0 0l-4-4m4 4l4-4"/>

</symbol>
<symbol id="arrows-down" viewBox="0 0 24 24">
  <path fill="none" stroke="currentColor" stroke-linecap="round" stroke-linejoin="round" stroke-width="2" d="M18 4v16m0 0l-4-4m4 4l4-4M6 4v16m0 0l-4-4m4 4l4-4"/>

</symbol>
<symbol id="arrows-left-right" viewBox="0 0 24 24">
  <path fill="none" stroke="currentColor" stroke-linecap="round" stroke-linejoin="round" stroke-width="2" d="M20 6H4m0 0l4 4M4 6l4-4M4 18h16m0 0l-4 4m4-4l-4-4"/>

</symbol>
<symbol id="arrows-left" viewBox="0 0 24 24">
  <path fill="none" stroke="currentColor" stroke-linecap="round" stroke-linejoin="round" stroke-width="2" d="M20 6H4m0 0l4 4M4 6l4-4m12 16H4m0 0l4 4m-4-4l4-4"/>

</symbol>
<symbol id="arrows-right-left" viewBox="0 0 24 24">
  <path fill="none" stroke="currentColor" stroke-linecap="round" stroke-linejoin="round" stroke-width="2" d="M4 6h16m0 0l-4 4m4-4l-4-4m4 16H4m0 0l4 4m-4-4l4-4"/>

</symbol>
<symbol id="arrows-right" viewBox="0 0 24 24">
  <path fill="none" stroke="currentColor" stroke-linecap="round" stroke-linejoin="round" stroke-width="2" d="M4 6h16m0 0l-4 4m4-4l-4-4M4 18h16m0 0l-4 4m4-4l-4-4"/>

</symbol>
<symbol id="arrows-up-down" viewBox="0 0 24 24">
  <path fill="none" stroke="currentColor" stroke-linecap="round" stroke-linejoin="round" stroke-width="2" d="M18 4v16m0 0l-4-4m4 4l4-4M6 20V4m0 0L2 8m4-4l4 4"/>

</symbol>
<symbol id="arrows-up" viewBox="0 0 24 24">
  <path fill="none" stroke="currentColor" stroke-linecap="round" stroke-linejoin="round" stroke-width="2" d="M18 20V4m0 0l-4 4m4-4l4 4M6 20V4m0 0L2 8m4-4l4 4"/>

</symbol>
<symbol id="arrows" viewBox="0 0 24 24">
  <path fill="none" stroke="currentColor" stroke-linecap="round" stroke-linejoin="round" stroke-width="2" d="M20 6H4m0 0l4 4M4 6l4-4m12 16H4m0 0l4 4m-4-4l4-4"/>

</symbol>
<symbol id="calendar" viewBox="0 0 24 24">
  <path d="M17 11H7v2h10v-2zm2-7h-1V2h-2v2H8V2H6v2H5c-1.11 0-1.99.9-1.99 2L3 20a2 2 0 002 2h14c1.1 0 2-.9 2-2V6c0-1.1-.9-2-2-2zm0 16H5V9h14v11zm-5-5H7v2h7v-2z"/>

</symbol>
<symbol id="check" viewBox="0 0 24 24">
  <path d="M8.902 14.748L19.6 4.02l2.124 2.118L8.907 18.992l-2.124-2.118.001-.001-3.874-3.875 2.121-2.121z"/>

</symbol>
<symbol id="checkbox" viewBox="0 0 24 24">
  <path d="M8.902 14.748L19.6 4.02l2.124 2.118L8.907 18.992l-2.124-2.118.001-.001-3.874-3.875 2.121-2.121 3.871 3.871z"/>

</symbol>
<symbol id="chevron-bottom-left" viewBox="0 0 24 24">
  <path fill="none" stroke="currentColor" stroke-linecap="round" stroke-linejoin="round" stroke-width="2" d="M8 16h8m-8 0V8"/>

</symbol>
<symbol id="chevron-bottom-right" viewBox="0 0 24 24">
  <path fill="none" stroke="currentColor" stroke-linecap="round" stroke-linejoin="round" stroke-width="2" d="M16 16V8m0 8H8"/>

</symbol>
<symbol id="chevron-down" viewBox="0 0 24 24">
  <path fill="none" stroke="currentColor" stroke-linecap="round" stroke-linejoin="round" stroke-width="2" d="M11.657 14.657L17.314 9m-5.657 5.657L6 9"/>

</symbol>
<symbol id="chevron-left" viewBox="0 0 24 24">
  <path fill="none" stroke="currentColor" stroke-linecap="round" stroke-linejoin="round" stroke-width="2" d="M9 11.657l5.657 5.657M9 11.657L14.657 6"/>

</symbol>
<symbol id="chevron-right" viewBox="0 0 24 24">
  <path fill="none" stroke="currentColor" stroke-linecap="round" stroke-linejoin="round" stroke-width="2" d="M14.657 11.657L9 6m5.657 5.657L9 17.314"/>

</symbol>
<symbol id="chevron-top-left" viewBox="0 0 24 24">
  <path fill="none" stroke="currentColor" stroke-linecap="round" stroke-linejoin="round" stroke-width="2" d="M8 8v8m0-8h8"/>

</symbol>
<symbol id="chevron-top-right" viewBox="0 0 24 24">
  <path fill="none" stroke="currentColor" stroke-linecap="round" stroke-linejoin="round" stroke-width="2" d="M16 8H8m8 0v8"/>

</symbol>
<symbol id="chevron-up" viewBox="0 0 24 24">
  <path fill="none" stroke="currentColor" stroke-linecap="round" stroke-linejoin="round" stroke-width="2" d="M11.657 9L6 14.657M11.657 9l5.657 5.657"/>

</symbol>
<symbol id="chevron-wide-bottom-left" viewBox="0 0 24 24">
  <path fill="none" stroke="currentColor" stroke-linecap="round" stroke-linejoin="round" stroke-width="2" d="M6 18h12M6 18V6"/>

</symbol>
<symbol id="chevron-wide-bottom-right" viewBox="0 0 24 24">
  <path fill="none" stroke="currentColor" stroke-linecap="round" stroke-linejoin="round" stroke-width="2" d="M18 18V6m0 12H6"/>

</symbol>
<symbol id="chevron-wide-down" viewBox="0 0 24 24">
  <path fill="none" stroke="currentColor" stroke-linecap="round" stroke-linejoin="round" stroke-width="2" d="M12 17l8.486-8.485M12 17L3.515 8.515"/>

</symbol>
<symbol id="chevron-wide-left" viewBox="0 0 24 24">
  <path fill="none" stroke="currentColor" stroke-linecap="round" stroke-linejoin="round" stroke-width="2" d="M6 12l8.485 8.486M6 12l8.485-8.485"/>

</symbol>
<symbol id="chevron-wide-right" viewBox="0 0 24 24">
  <path fill="none" stroke="currentColor" stroke-linecap="round" stroke-linejoin="round" stroke-width="2" d="M17 12L8.515 3.515M17 12l-8.485 8.486"/>

</symbol>
<symbol id="chevron-wide-top-left" viewBox="0 0 24 24">
  <path fill="none" stroke="currentColor" stroke-linecap="round" stroke-linejoin="round" stroke-width="2" d="M7 7v12M7 7h12"/>

</symbol>
<symbol id="chevron-wide-top-right" viewBox="0 0 24 24">
  <path fill="none" stroke="currentColor" stroke-linecap="round" stroke-linejoin="round" stroke-width="2" d="M18 7H6m12 0v12"/>

</symbol>
<symbol id="chevron-wide-up" viewBox="0 0 24 24">
  <path fill="none" stroke="currentColor" stroke-linecap="round" stroke-linejoin="round" stroke-width="2" d="M12 7l-8.485 8.485M12 7l8.486 8.485"/>

</symbol>
<symbol id="chevron-wide" viewBox="0 0 24 24">
  <path fill="none" stroke="currentColor" stroke-linecap="round" stroke-linejoin="round" stroke-width="2" d="M6 12l8.485 8.486M6 12l8.485-8.485"/>

</symbol>
<symbol id="chevron" viewBox="0 0 24 24">
  <path fill="none" stroke="currentColor" stroke-linecap="round" stroke-linejoin="round" stroke-width="2" d="M9 11.657l5.657 5.657M9 11.657L14.657 6"/>

</symbol>
<symbol id="clipboard" viewBox="0 0 24 24">
  <path d="M19 3h-4.18C14.4 1.84 13.3 1 12 1c-1.3 0-2.4.84-2.82 2H5c-1.1 0-2 .9-2 2v16c0 1.1.9 2 2 2h14c1.1 0 2-.9 2-2V5c0-1.1-.9-2-2-2zm-7 0c.55 0 1 .45 1 1s-.45 1-1 1-1-.45-1-1 .45-1 1-1zm7 18H5V5h2v3h10V5h2v16z"/>

</symbol>
<symbol id="clock" viewBox="0 0 24 24">
  <path d="M11.99 2C6.47 2 2 6.48 2 12s4.47 10 9.99 10C17.52 22 22 17.52 22 12S17.52 2 11.99 2zM12 4c4.42 0 8 3.58 8 8s-3.58 8-8 8-8-3.58-8-8 3.58-8 8-8zm.5 3H11v6l5.25 3.15.75-1.23-4.5-2.67V7z"/>

</symbol>
<symbol id="cog" viewBox="0 0 24 24">
  <path d="M19.43 12.98c.04-.32.07-.64.07-.98 0-.34-.03-.66-.07-.98l2.11-1.65c.19-.15.24-.42.12-.64l-2-3.46a.503.503 0 00-.61-.22l-2.49 1c-.52-.4-1.08-.73-1.69-.98l-.38-2.65A.488.488 0 0014 2h-4c-.25 0-.46.18-.49.42l-.38 2.65c-.61.25-1.17.59-1.69.98l-2.49-1c-.23-.09-.49 0-.61.22l-2 3.46c-.13.22-.07.49.12.64l2.11 1.65c-.04.32-.07.65-.07.98 0 .33.03.66.07.98l-2.11 1.65c-.19.15-.24.42-.12.64l2 3.46c.12.22.39.3.61.22l2.49-1c.52.4 1.08.73 1.69.98l.38 2.65c.03.24.24.42.49.42h4c.25 0 .46-.18.49-.42l.38-2.65c.61-.25 1.17-.59 1.69-.98l2.49 1c.23.09.49 0 .61-.22l2-3.46c.12-.22.07-.49-.12-.64l-2.11-1.65zM12 15.5c-1.93 0-3.5-1.57-3.5-3.5s1.57-3.5 3.5-3.5 3.5 1.57 3.5 3.5-1.57 3.5-3.5 3.5z"/>

</symbol>
<symbol id="cross-large" viewBox="0 0 24 24">
  <path d="M3.324 2l8.675 8.676 8.232-8.231 1.324 1.324L13.323 12 22 20.676 20.676 22 12 13.323l-8.231 8.232-1.324-1.324L10.676 12 2 3.324z"/>

</symbol>
<symbol id="cross" viewBox="0 0 24 24">
  <path d="M19 6.41L17.59 5 12 10.59 6.41 5 5 6.41 10.59 12 5 17.59 6.41 19 12 13.41 17.59 19 19 17.59 13.41 12z"/>

</symbol>
<symbol id="dash" viewBox="0 0 24 24">
  <path d="M5 11h14v2H5z"/>

</symbol>
<symbol id="dot-medium" viewBox="0 0 24 24">
  <circle cx="5" cy="5" r="5" transform="translate(7 7)"/>

</symbol>
<symbol id="education" viewBox="0 0 24 24">
  <path d="M5 13.18v4L12 21l7-3.82v-4L12 17l-7-3.82zM12 3L1 9l11 6 9-4.91V17h2V9L12 3z"/>

</symbol>
<symbol id="ellipsis" viewBox="0 0 24 24">
  <g transform="translate(4 10)">
    <circle cx="2" cy="2" r="2"/>
    <circle cx="8" cy="2" r="2"/>
    <circle cx="14" cy="2" r="2"/>
  </g>

</symbol>
<symbol id="exit" viewBox="0 0 24 24">
  <path d="M10.09 15.59L11.5 17l5-5-5-5-1.41 1.41L12.67 11H3v2h9.67l-2.58 2.59zM19 3H5a2 2 0 00-2 2v4h2V5h14v14H5v-4H3v4a2 2 0 002 2h14c1.1 0 2-.9 2-2V5c0-1.1-.9-2-2-2z"/>

</symbol>
<symbol id="hamburger" viewBox="0 0 24 24">
  <path d="M23 17a1 1 0 010 2H1a1 1 0 010-2h22zm0-6a1 1 0 010 2H1a1 1 0 110-2h22zm0-6.045a1 1 0 010 2H1a1 1 0 110-2h22z"/>

</symbol>
<symbol id="help" viewBox="0 0 24 24">
  <path d="M12 2C6.48 2 2 6.48 2 12s4.48 10 10 10 10-4.48 10-10S17.52 2 12 2zm1 17h-2v-2h2v2zm2.07-7.75l-.9.92C13.45 12.9 13 13.5 13 15h-2v-.5c0-1.1.45-2.1 1.17-2.83l1.24-1.26c.37-.36.59-.86.59-1.41 0-1.1-.9-2-2-2s-2 .9-2 2H8c0-2.21 1.79-4 4-4s4 1.79 4 4c0 .88-.36 1.68-.93 2.25z"/>

</symbol>
<symbol id="house" viewBox="0 0 24 24">
  <path d="M10 20v-6h4v6h5v-8h3L12 3 2 12h3v8z"/>

</symbol>
<symbol id="info-circled" viewBox="0 0 24 24">
  <path d="M11 17h2v-6h-2v6zm1-15C6.48 2 2 6.48 2 12s4.48 10 10 10 10-4.48 10-10S17.52 2 12 2zm0 18c-4.41 0-8-3.59-8-8s3.59-8 8-8 8 3.59 8 8-3.59 8-8 8zM11 9h2V7h-2v2z"/>

</symbol>
<symbol id="lock" viewBox="0 0 24 24">
  <path d="M18 8h-1V6c0-2.76-2.24-5-5-5S7 3.24 7 6v2H6c-1.1 0-2 .9-2 2v10c0 1.1.9 2 2 2h12c1.1 0 2-.9 2-2V10c0-1.1-.9-2-2-2zm-6 9c-1.1 0-2-.9-2-2s.9-2 2-2 2 .9 2 2-.9 2-2 2zm3.1-9H8.9V6c0-1.71 1.39-3.1 3.1-3.1 1.71 0 3.1 1.39 3.1 3.1v2z"/>

</symbol>
<symbol id="magnifier-circled" viewBox="0 0 24 24">
  <path d="M12 0c6.627 0 12 5.373 12 12s-5.373 12-12 12S0 18.627 0 12 5.373 0 12 0zM7.469 7.469a5.015 5.015 0 006.314 7.728l2.54 2.54a1 1 0 001.414-1.414l-2.54-2.54a5.015 5.015 0 00-7.728-6.314zm3.561.561a3 3 0 110 6 3 3 0 010-6z"/>

</symbol>
<symbol id="map-pin" viewBox="0 0 24 24">
  <path d="M12 2C8.13 2 5 5.13 5 9c0 5.25 7 13 7 13s7-7.75 7-13c0-3.87-3.13-7-7-7zm0 9.5a2.5 2.5 0 110-5 2.5 2.5 0 010 5z"/>

</symbol>
<symbol id="person-circled" viewBox="0 0 24 24">
  <path d="M12 2C6.48 2 2 6.48 2 12s4.48 10 10 10 10-4.48 10-10S17.52 2 12 2zm0 3c1.66 0 3 1.34 3 3s-1.34 3-3 3-3-1.34-3-3 1.34-3 3-3zm0 14.2a7.2 7.2 0 01-6-3.22c.03-1.99 4-3.08 6-3.08 1.99 0 5.97 1.09 6 3.08a7.2 7.2 0 01-6 3.22z"/>

</symbol>
<symbol id="radio" viewBox="0 0 24 24">
  <path d="M12 .75C18.209.75 23.25 5.791 23.25 12S18.209 23.25 12 23.25.75 18.209.75 12 5.791.75 12 .75zm0 18A6.754 6.754 0 015.25 12 6.754 6.754 0 0112 5.25 6.754 6.754 0 0118.75 12 6.754 6.754 0 0112 18.75z"/>

</symbol>
<symbol id="receipt-list" viewBox="0 0 24 24">
  <path d="M21 0H3a1 1 0 00-1 1v23l4-3 3 3 3-3 3 3 3-3 4 3V1a1 1 0 00-1-1zm-8 16H6v-2h7v2zm0-4H6v-2h7v2zm0-4H6V6h7v2zm5 8h-3v-2h3v2zm0-4h-3v-2h3v2zm0-4h-3V6h3v2z"/>

</symbol>
<symbol id="receipt-scroll" viewBox="0 0 24 24">
  <path d="M23 0H7a1 1 0 00-1 1v16H3c-1.654 0-3 1.346-3 3v4h14v-3.583c0-.808.645-1.417 1.5-1.417.723 0 1.5.47 1.5 1.5 0 1.93 1.57 3.5 3.5 3.5s3.5-1.57 3.5-3.5V1a1 1 0 00-1-1zM12 20.417V22H2v-2a1 1 0 011-1h9.304c-.196.43-.304.909-.304 1.417zM20 13H10v-2h10v2zm0-6H10V5h10v2z"/>

</symbol>
<symbol id="speech-bubbles" viewBox="0 0 24 24">
  <path d="M21 6h-2v9H6v2c0 .55.45 1 1 1h11l4 4V7c0-.55-.45-1-1-1zm-4 6V3c0-.55-.45-1-1-1H3c-.55 0-1 .45-1 1v14l4-4h10c.55 0 1-.45 1-1z"/>

</symbol>
<symbol id="spinner" viewBox="0 0 24 24">
  <path d="M12 2c5.523 0 10 4.477 10 10h-2a8 8 0 00-8-8V2z"/>

</symbol>
<symbol id="warning" viewBox="0 0 24 24">
  <path d="M1 21h22L12 2 1 21zm12-3h-2v-2h2v2zm0-4h-2v-4h2v4z"/>

</symbol></svg>