<?xml version="1.0" encoding="utf-8"?>
<svg xmlns="http://www.w3.org/2000/svg">
<symbol id="calendar" viewBox="0 0 24 24">
  <path d="M17 10H7v2h10v-2zm2-7h-1V1h-2v2H8V1H6v2H5c-1.11 0-1.99.9-1.99 2L3 19c0 1.1.89 2 2 2h14c1.1 0 2-.9 2-2V5c0-1.1-.9-2-2-2zm0 16H5V8h14v11zm-5-5H7v2h7v-2z"/>

</symbol>
<symbol id="checkbox" viewBox="0 0 24 24">
  <path d="M8.902 14.748L19.6 4.02l2.124 2.118L8.907 18.992l-2.124-2.118.001-.001-3.874-3.875 2.121-2.121 3.871 3.871z"/>

</symbol>
<symbol id="chevron" viewBox="0 0 24 24">
  <path d="M13.992 18l1.408-1.41L10.826 12 15.4 7.41 13.992 6 8 12l5.992 6z"/>

</symbol>
<symbol id="clipboard" viewBox="0 0 24 24"><path d="M19 2h-4.18C14.4.84 13.3 0 12 0c-1.3 0-2.4.84-2.82 2H5c-1.1 0-2 .9-2 2v16c0 1.1.9 2 2 2h14c1.1 0 2-.9 2-2V4c0-1.1-.9-2-2-2zm-7 0c.55 0 1 .45 1 1s-.45 1-1 1-1-.45-1-1 .45-1 1-1zm7 18H5V4h2v3h10V4h2v16z"/>
</symbol>
<symbol id="clock" viewBox="0 0 24 24">
  <path d="M11.99 2C6.47 2 2 6.48 2 12s4.47 10 9.99 10C17.52 22 22 17.52 22 12S17.52 2 11.99 2zM12 4c4.42 0 8 3.58 8 8s-3.58 8-8 8-8-3.58-8-8 3.58-8 8-8zm.5 3H11v6l5.25 3.15.75-1.23-4.5-2.67V7z"/>

</symbol>
<symbol id="cog" viewBox="0 0 24 24"><path d="M19.43 12.98c.04-.32.07-.64.07-.98s-.03-.66-.07-.98l2.11-1.65c.19-.15.24-.42.12-.64l-2-3.46c-.12-.22-.39-.3-.61-.22l-2.49 1c-.52-.4-1.08-.73-1.69-.98l-.38-2.65C14.46 2.18 14.25 2 14 2h-4c-.25 0-.46.18-.49.42l-.38 2.65c-.61.25-1.17.59-1.69.98l-2.49-1c-.23-.09-.49 0-.61.22l-2 3.46c-.13.22-.07.49.12.64l2.11 1.65c-.04.32-.07.65-.07.98s.03.66.07.98l-2.11 1.65c-.19.15-.24.42-.12.64l2 3.46c.12.22.39.3.61.22l2.49-1c.52.4 1.08.73 1.69.98l.38 2.65c.03.24.24.42.49.42h4c.25 0 .46-.18.49-.42l.38-2.65c.61-.25 1.17-.59 1.69-.98l2.49 1c.23.09.49 0 .61-.22l2-3.46c.12-.22.07-.49-.12-.64l-2.11-1.65zM12 15.5c-1.93 0-3.5-1.57-3.5-3.5s1.57-3.5 3.5-3.5 3.5 1.57 3.5 3.5-1.57 3.5-3.5 3.5z"/>
</symbol>
<symbol id="cross-large" viewBox="0 0 24 24">
  <path d="M3.324 2l8.675 8.676 8.232-8.231 1.324 1.324L13.323 12 22 20.676 20.676 22 12 13.323l-8.231 8.232-1.324-1.324L10.676 12 2 3.324 3.324 2z"/>

</symbol>
<symbol id="cross" viewBox="0 0 24 24">
  <path d="M19 6.41L17.59 5 12 10.59 6.41 5 5 6.41 10.59 12 5 17.59 6.41 19 12 13.41 17.59 19 19 17.59 13.41 12 19 6.41z"/>

</symbol>
<symbol id="dash" viewBox="0 0 24 24">
  <path d="M5 11h14v2H5z"/>

</symbol>
<symbol id="dot-medium" viewBox="0 0 24 24">
  <circle cx="12" cy="12" r="5"/>

</symbol>
<symbol id="education" viewBox="0 0 24 24">
 <path d="M5 13.18v4L12 21l7-3.82v-4L12 17l-7-3.82zM12 3L1 9l11 6 9-4.91V17h2V9L12 3z"/>

</symbol>
<symbol id="ellipsis" viewBox="0 0 24 24">
  <circle cx="6" cy="12" r="2"/>
  <circle cx="12" cy="12" r="2"/>
  <circle cx="18" cy="12" r="2"/>

</symbol>
<symbol id="exit" viewBox="0 0 24 24"><path d="M10.09 15.59L11.5 17l5-5-5-5-1.41 1.41L12.67 11H3v2h9.67l-2.58 2.59zM19 3H5c-1.11 0-2 .9-2 2v4h2V5h14v14H5v-4H3v4c0 1.1.89 2 2 2h14c1.1 0 2-.9 2-2V5c0-1.1-.9-2-2-2z"/>
</symbol>
<symbol id="hamburger" viewBox="0 0 24 24">
  <path d="M23 17a1 1 0 0 1 0 2H1a1 1 0 0 1 0-2h22zm0-6a1 1 0 0 1 0 2H1a1 1 0 0 1 0-2h22zm0-6.045a1 1 0 0 1 0 2H1a1 1 0 0 1 0-2h22z"/>

</symbol>
<symbol id="house" viewBox="0 0 24 24">
  <path d="M10 20v-6h4v6h5v-8h3L12 3 2 12h3v8z"/>

</symbol>
<symbol id="info-circled" viewBox="0 0 24 24"><path d="M11 17h2v-6h-2v6zm1-15C6.48 2 2 6.48 2 12s4.48 10 10 10 10-4.48 10-10S17.52 2 12 2zm0 18c-4.41 0-8-3.59-8-8s3.59-8 8-8 8 3.59 8 8-3.59 8-8 8zM11 9h2V7h-2v2z"/>
</symbol>
<symbol id="lock" viewBox="0 0 24 24">
  <path d="M18 8h-1V6c0-2.76-2.24-5-5-5S7 3.24 7 6v2H6c-1.1 0-2 .9-2 2v10c0 1.1.9 2 2 2h12c1.1 0 2-.9 2-2V10c0-1.1-.9-2-2-2zm-6 9c-1.1 0-2-.9-2-2s.9-2 2-2 2 .9 2 2-.9 2-2 2zm3.1-9H8.9V6c0-1.71 1.39-3.1 3.1-3.1 1.71 0 3.1 1.39 3.1 3.1v2z"/>

</symbol>
<symbol id="magnifier-circled" viewBox="0 0 24 24">
  <path d="M12,0 C18.627417,0 24,5.372583 24,12 C24,18.627417 18.627417,24 12,24 C5.372583,24 0,18.627417 0,12 C0,5.372583 5.372583,0 12,0 Z M7.46888943,7.46888943 C5.64799083,9.28978803 5.50214409,12.1938675 7.13144476,14.1880397 C8.76074542,16.1822119 11.6356002,16.6182844 13.7829779,15.1969779 L16.3229779,17.7369779 C16.7153568,18.1159501 17.3390627,18.1105303 17.7247965,17.7247965 C18.1105303,17.3390627 18.1159501,16.7153568 17.7369779,16.3229779 L15.1969779,13.7829779 C16.6182844,11.6356002 16.1822119,8.76074542 14.1880397,7.13144476 C12.1938675,5.50214409 9.28978803,5.64799083 7.46888943,7.46888943 Z M11.0299779,8.02997792 C12.6868322,8.02997792 14.0299779,9.37312367 14.0299779,11.0299779 C14.0299779,12.6868322 12.6868322,14.0299779 11.0299779,14.0299779 C9.37312367,14.0299779 8.02997792,12.6868322 8.02997792,11.0299779 C8.02997792,9.37312367 9.37312367,8.02997792 11.0299779,8.02997792 Z"/>

</symbol>
<symbol id="map-pin" viewBox="0 0 24 24">
  <path d="M12 2C8.13 2 5 5.13 5 9c0 5.25 7 13 7 13s7-7.75 7-13c0-3.87-3.13-7-7-7zm0 9.5a2.5 2.5 0 0 1 0-5 2.5 2.5 0 0 1 0 5z"/>

</symbol>
<symbol id="person-circled" viewBox="0 0 24 24"><path d="M12 2C6.48 2 2 6.48 2 12s4.48 10 10 10 10-4.48 10-10S17.52 2 12 2zm0 3c1.66 0 3 1.34 3 3s-1.34 3-3 3-3-1.34-3-3 1.34-3 3-3zm0 14.2c-2.5 0-4.71-1.28-6-3.22.03-1.99 4-3.08 6-3.08 1.99 0 5.97 1.09 6 3.08-1.29 1.94-3.5 3.22-6 3.22z"/>
</symbol>
<symbol id="radio" viewBox="0 0 24 24">
 <path d="M12 .75C18.209.75 23.25 5.791 23.25 12S18.209 23.25 12 23.25.75 18.209.75 12 5.791.75 12 .75zm0 18A6.754 6.754 0 0 1 5.25 12 6.754 6.754 0 0 1 12 5.25 6.754 6.754 0 0 1 18.75 12 6.754 6.754 0 0 1 12 18.75z"/>

</symbol>
<symbol id="receipt-list" viewBox="0 0 24 24">
  <path d="M21,0H3C2.448,0,2,0.447,2,1v23l4-3l3,3l3-3l3,3l3-3l4,3V1C22,0.447,21.552,0,21,0z M13,16H6v-2h7V16z M13,12H6v-2h7V12z M13,8H6V6h7V8z M18,16h-3v-2h3V16z M18,12h-3v-2h3V12z M18,8h-3V6h3V8z"/>

</symbol>
<symbol id="receipt-scroll" viewBox="0 0 24 24">
  <path d="M23,0H7C6.447,0,6,0.447,6,1v16H3c-1.654,0-3,1.346-3,3v4h14v-3.583C14,19.609,14.645,19,15.5,19 c0.723,0,1.5,0.47,1.5,1.5c0,1.93,1.57,3.5,3.5,3.5s3.5-1.57,3.5-3.5V1C24,0.447,23.553,0,23,0z M12,20.417V22H2v-2 c0-0.552,0.448-1,1-1h9.304C12.108,19.43,12,19.909,12,20.417z M20,13H10v-2h10V13z M20,7H10V5h10V7z"/>

</symbol>
<symbol id="speech-bubbles" viewBox="0 0 24 24">
  <path d="M21 6h-2v9H6v2c0 .55.45 1 1 1h11l4 4V7c0-.55-.45-1-1-1zm-4 6V3c0-.55-.45-1-1-1H3c-.55 0-1 .45-1 1v14l4-4h10c.55 0 1-.45 1-1z"/>

</symbol>
<symbol id="spinner" viewBox="0 0 24 24">
  <path d="M12,2 C17.5228475,2 22,6.4771525 22,12 L22,12 L20,12 C20,7.581722 16.418278,4 12,4 L12,4 Z"/>

</symbol>
<symbol id="warning" viewBox="0 0 24 24"><path d="M1 21h22L12 2 1 21zm12-3h-2v-2h2v2zm0-4h-2v-4h2v4z"/>
</symbol></svg>