<?xml version="1.0" encoding="utf-8"?>
<svg xmlns="http://www.w3.org/2000/svg">
<symbol id="help" viewBox="0 0 24 24"><path d="M6.667 0A6.67 6.67 0 000 6.667a6.67 6.67 0 006.667 6.666 6.67 6.67 0 006.666-6.666A6.67 6.67 0 006.667 0zm.666 11.333H6V10h1.333v1.333zm1.38-5.166l-.6.613c-.48.487-.78.887-.78 1.887H6v-.334c0-.733.3-1.4.78-1.886l.827-.84c.246-.24.393-.574.393-.94 0-.734-.6-1.334-1.333-1.334-.734 0-1.334.6-1.334 1.334H4a2.666 2.666 0 115.333 0c0 .586-.24 1.12-.62 1.5z"/>
</symbol>
<symbol id="warning" viewBox="0 0 24 24"><path d="M0 12.667h14.667L7.333 0 0 12.667zm8-2H6.667V9.333H8v1.334zM8 8H6.667V5.333H8V8z"/>
</symbol></svg>