<svg xmlns="http://www.w3.org/2000/svg" width="24" height="24" viewBox="0 0 24 24">
  <path d="M18.5857864,2 C19.0986223,2 19.5212936,2.38604019 19.5790587,2.88337887 L19.5857864,3 L19.5857864,21 C19.5857864,21.5522847 19.1380712,22 18.5857864,22 C18.0729506,22 17.6502793,21.6139598 17.5925142,21.1166211 L17.5857864,21 L17.5857864,3 C17.5857864,2.44771525 18.0335017,2 18.5857864,2 Z M12.5857864,5.41421356 C13.1380712,5.41421356 13.5857864,5.86192881 13.5857864,6.41421356 L13.5857864,6.41421356 L13.5857864,17.5857864 C13.5857864,17.8510029 13.4804296,18.1053568 13.2928932,18.2928932 C12.9023689,18.6834175 12.2692039,18.6834175 11.8786797,18.2928932 L11.8786797,18.2928932 L6.29289322,12.7071068 C5.90236893,12.3165825 5.90236893,11.6834175 6.29289322,11.2928932 L6.29289322,11.2928932 L11.8786797,5.70710678 C12.066216,5.5195704 12.3205699,5.41421356 12.5857864,5.41421356 Z" transform="matrix(-1 0 0 1 25.586 0)"/>
</svg>
