<svg xmlns="http://www.w3.org/2000/svg" width="24" height="24" viewBox="0 0 24 24">
  <path d="M21,16.5857864 L21.1166211,16.5925142 C21.6139598,16.6502793 22,17.0729506 22,17.5857864 C22,18.1380712 21.5522847,18.5857864 21,18.5857864 L21,18.5857864 L3,18.5857864 L2.88337887,18.5790587 C2.38604019,18.5212936 2,18.0986223 2,17.5857864 C2,17.0335017 2.44771525,16.5857864 3,16.5857864 L3,16.5857864 L21,16.5857864 Z M12.7071068,5.29289322 L18.2928932,10.8786797 C18.6834175,11.2692039 18.6834175,11.9023689 18.2928932,12.2928932 C18.1053568,12.4804296 17.8510029,12.5857864 17.5857864,12.5857864 L6.41421356,12.5857864 C5.86192881,12.5857864 5.41421356,12.1380712 5.41421356,11.5857864 C5.41421356,11.3205699 5.5195704,11.066216 5.70710678,10.8786797 L11.2928932,5.29289322 C11.6834175,4.90236893 12.3165825,4.90236893 12.7071068,5.29289322 Z" transform="matrix(1 0 0 -1 0 23.586)"/>
</svg>
