<svg xmlns="http://www.w3.org/2000/svg" width="24" height="24" viewBox="0 0 24 24">
  <path d="M7,2 C7.55228475,2 8,2.44771525 8,3 L8,3 L8,21 L7.99327227,21.1166211 C7.93550716,21.6139598 7.51283584,22 7,22 C6.44771525,22 6,21.5522847 6,21 L6,21 L6,3 L6.00672773,2.88337887 C6.06449284,2.38604019 6.48716416,2 7,2 Z M17,5.41421356 C17.5522847,5.41421356 18,5.86192881 18,6.41421356 L18,6.41421356 L18,17.5857864 C18,17.8510029 17.8946432,18.1053568 17.7071068,18.2928932 C17.3165825,18.6834175 16.6834175,18.6834175 16.2928932,18.2928932 L16.2928932,18.2928932 L10.7071068,12.7071068 C10.3165825,12.3165825 10.3165825,11.6834175 10.7071068,11.2928932 L10.7071068,11.2928932 L16.2928932,5.70710678 C16.4804296,5.5195704 16.7347835,5.41421356 17,5.41421356 Z"/>
</svg>
