<svg xmlns="http://www.w3.org/2000/svg" viewBox="0 0 24 24">
  <path d="M21 14a1 1 0 011 1v4.18A3 3 0 0119 22H4.82A3 3 0 012 19v-4.12A1 1 0 014 15v4.12A1 1 0 005 20h14.12a1 1 0 00.88-1v-4.12a1 1 0 011-.88zM10.95 3.05a1 1 0 01.08 1.32l-.08.1L8.41 7h9.71a1 1 0 010 2H8.4l2.54 2.54.08.09a1 1 0 01-1.4 1.4l-.1-.08L5.3 8.71l-.07-.08a1 1 0 01-.1-.15l-.01-.03-.02-.03a.97.97 0 01-.06-.16V8.2L5 8.15v-.13.03-.07a1 1 0 010-.07l.01-.06.01-.05.01-.06a1.08 1.08 0 01.04-.1l.02-.06a1.02 1.02 0 01.1-.16l.03-.05.07-.08 4.25-4.24.09-.08a1 1 0 011.32.08z"/>
</svg>
