<svg xmlns="http://www.w3.org/2000/svg" viewBox="0 0 24 24">
  <path d="M16 1a1 1 0 011 .88V3h2a2 2 0 012 2v16a2 2 0 01-2 2H5a2 2 0 01-2-2V5c0-1.1.9-2 2-2h2V2a1 1 0 01.88-1H16zm-4 15a1 1 0 100 2 1 1 0 000-2zm0-6c-.63 0-1.15.16-1.57.44a2.5 2.5 0 00-.85.97.75.75 0 101.34.68 1 1 0 01.34-.4c.14-.1.37-.19.74-.19.28 0 .55.09.74.22.16.13.26.29.26.53 0 .18-.04.26-.08.32a.96.96 0 01-.27.24l-.26.16-.32.2c-.22.15-.49.36-.7.66a.75.75 0 001.25.84.96.96 0 01.28-.25l.26-.16.32-.2a2.03 2.03 0 001.02-1.81 2.1 2.1 0 00-.86-1.72A2.76 2.76 0 0012 10zm3-7H9v2h6V3z"/>
</svg>
