<svg xmlns="http://www.w3.org/2000/svg" viewBox="0 0 24 24">
  <path d="M12 1a11 11 0 018.8 17.6l.06-.08c.03-.05.04-.04.05.02l.04.11a5 5 0 00.34.75 9.8 9.8 0 001.42 1.9 1 1 0 01-.59 1.7 9.26 9.26 0 01-4.91-.58l-.96-.43-.21.08c-1.33.57-2.5.88-3.7.92L12 23a11 11 0 010-22zm0 2a9 9 0 100 18 8.6 8.6 0 003.6-.91c.47-.22.9-.15 1.42.06l.81.36.2.09c.55.22 1.11.37 1.74.44l.16.02-.08-.13c-.82-1.26-1.24-2.57-.73-3.41l.08-.12A9 9 0 0012 3zm.44 3.36c.2.1.36.26.46.46l1.16 2.35 2.6.38a1 1 0 01.55 1.7l-1.88 1.83.44 2.59a1 1 0 01-1.45 1.05L12 15.5l-2.32 1.22a1 1 0 01-1.45-1.05l.44-2.59-1.88-1.83a1 1 0 01.56-1.7l2.6-.38 1.15-2.35a1 1 0 011.34-.46z"/>
</svg>
