<svg xmlns="http://www.w3.org/2000/svg" width="24" height="24" viewBox="0 0 24 24">
  <path d="M12.0652442,3.00211989 L12.1377604,3.00936558 L12.1759448,3.01539482 L12.1759448,3.01539482 L12.2436549,3.03009271 L12.2436549,3.03009271 C12.2597499,3.0339151 12.2756147,3.03831307 12.2913968,3.04311564 C12.4098548,3.07926258 12.5224973,3.13745919 12.6224085,3.21701248 L21.6139406,10.2106478 C22.0498878,10.5497178 22.1284223,11.1779934 21.7893522,11.6139406 C21.4763645,12.0163534 20.9169531,12.1142252 20.4898575,11.8602134 L20.3860594,11.7893522 L18.999954,10.7111199 L19,20 C19,20.5522847 18.5522847,21 18,21 L14,21 L14,15 L10,15 L10,21 L6,21 C5.44771525,21 5,20.5522847 5,20 L4.99995403,10.7101199 L3.61394061,11.7893522 C3.17799342,12.1284223 2.54971782,12.0498878 2.21064778,11.6139406 C1.89766006,11.2115278 1.940501,10.6452376 2.29182819,10.2938094 L2.38605939,10.2106478 L11.3775915,3.21701248 C11.4775027,3.13745919 11.5901452,3.07926258 11.7087392,3.04327014 L11.7561822,3.02991983 L11.7561822,3.02991983 L11.8245599,3.01550139 L11.8245599,3.01550139 L11.859962,3.00968282 L11.859962,3.00968282 C11.8851132,3.00631099 11.9098991,3.00375408 11.9347558,3.00211989 L12.0652442,3.00211989 Z"/>
</svg>
