<svg xmlns="http://www.w3.org/2000/svg" width="24" height="24" viewBox="0 0 24 24">
  <path d="M11,0 C17.0751323,0 22,4.92486775 22,11 C22,17.0751323 17.0751323,22 11,22 C4.92486775,22 0,17.0751323 0,11 C0,4.92486775 4.92486775,0 11,0 Z M6.46888943,6.46888943 C4.64799083,8.28978803 4.50214409,11.1938675 6.13144476,13.1880397 C7.76074542,15.1822119 10.6356002,15.6182844 12.7829779,14.1969779 L15.3229779,16.7369779 C15.7153568,17.1159501 16.3390627,17.1105303 16.7247965,16.7247965 C17.1105303,16.3390627 17.1159501,15.7153568 16.7369779,15.3229779 L14.1969779,12.7829779 C15.6182844,10.6356002 15.1822119,7.76074542 13.1880397,6.13144476 C11.1938675,4.50214409 8.28978803,4.64799083 6.46888943,6.46888943 Z M10.0299779,7.02997792 C11.6868322,7.02997792 13.0299779,8.37312367 13.0299779,10.0299779 C13.0299779,11.6868322 11.6868322,13.0299779 10.0299779,13.0299779 C8.37312367,13.0299779 7.02997792,11.6868322 7.02997792,10.0299779 C7.02997792,8.37312367 8.37312367,7.02997792 10.0299779,7.02997792 Z" transform="translate(1 1)"/>
</svg>
