<svg xmlns="http://www.w3.org/2000/svg" width="24" height="24" viewBox="0 0 24 24">
  <path d="M23,0 L7,0 C6.447,0 6,0.447 6,1 L6,17 L3,17 C1.346,17 0,18.346 0,20 L0,24 L14,24 L14,20.417 C14,19.609 14.645,19 15.5,19 C16.223,19 17,19.47 17,20.5 C17,22.43 18.57,24 20.5,24 C22.43,24 24,22.43 24,20.5 L24,1 C24,0.447 23.553,0 23,0 Z M12,20.417 L12,22 L2,22 L2,20 C2,19.448 2.448,19 3,19 L12.304,19 C12.108,19.43 12,19.909 12,20.417 Z M20,13 L10,13 L10,11 L20,11 L20,13 Z M20,7 L10,7 L10,5 L20,5 L20,7 Z"/>
</svg>
