<svg xmlns="http://www.w3.org/2000/svg" width="24" height="24" viewBox="0 0 24 24">
  <path d="M10,16 C12.9230769,16 15.8461538,16.9493754 15.9941334,19.3106425 L16,19.5 L16,20.5 C16,20.975 16,21.90125 15.142625,21.9926875 L15,22 L3,22 C2.1,22 2.01,21.19 2.001,20.6635 L2,19.5 C2,17.0641026 4.84812623,16.0522682 7.76928134,16.0019808 L8,16 L10,16 Z M9,6 C11.209139,6 13,7.790861 13,10 C13,12.209139 11.209139,14 9,14 C6.790861,14 5,12.209139 5,10 C5,7.790861 6.790861,6 9,6 Z M21,3 C21.5522847,3 22,3.44771525 22,4 C22,4.51283584 21.6139598,4.93550716 21.1166211,4.99327227 L21,5 L15,5 C14.4477153,5 14,4.55228475 14,4 C14,3.48716416 14.3860402,3.06449284 14.8833789,3.00672773 L15,3 L21,3 Z"/>
</svg>
