<svg xmlns="http://www.w3.org/2000/svg" width="24" height="24" viewBox="0 0 24 24">
  <path d="M11.3871006,10.2097046 C11.7793918,9.90467972 12.3466228,9.93240926 12.7071068,10.2928932 L12.7071068,10.2928932 L18.7071068,16.2928932 L18.7902954,16.3871006 C19.0953203,16.7793918 19.0675907,17.3466228 18.7071068,17.7071068 L18.7071068,17.7071068 L18.6128994,17.7902954 C18.2206082,18.0953203 17.6533772,18.0675907 17.2928932,17.7071068 L17.2928932,17.7071068 L12,12.415 L6.70710678,17.7071068 L6.61289944,17.7902954 C6.22060824,18.0953203 5.65337718,18.0675907 5.29289322,17.7071068 C4.90236893,17.3165825 4.90236893,16.6834175 5.29289322,16.2928932 L5.29289322,16.2928932 L11.2928932,10.2928932 Z M21,6 C21.5522847,6 22,6.44771525 22,7 C22,7.51283584 21.6139598,7.93550716 21.1166211,7.99327227 L21,8 L3,8 C2.44771525,8 2,7.55228475 2,7 C2,6.48716416 2.38604019,6.06449284 2.88337887,6.00672773 L3,6 L21,6 Z"/>
</svg>
