<svg xmlns="http://www.w3.org/2000/svg" viewBox="0 0 24 24">
  <path d="M16 1a1 1 0 011 .88V3h1a3 3 0 013 2.82V20a3 3 0 01-2.82 3H6a3 3 0 01-3-2.82V6a3 3 0 012.82-3H7V2a1 1 0 01.88-1H16zM7 5H6a1 1 0 00-1 .88V20a1 1 0 00.88 1H18a1 1 0 001-.88V6a1 1 0 00-1-1h-1v1a1 1 0 01-.88 1H8a1 1 0 01-1-.88V5zm5 5h.08l.07.01a1.08 1.08 0 01.22.06l.05.02a1.02 1.02 0 01.2.13l.09.07 3 3a1 1 0 01-1.32 1.5l-.1-.08L13 13.4V17a1 1 0 01-2 .12V13.4l-1.3 1.3a1 1 0 01-1.49-1.32l.08-.1 3-3 .08-.07h.01l.02-.02.08-.05.04-.03.06-.03.05-.02a.99.99 0 01.22-.06h.09l.04-.01H12zm3-7H9v2h6V3z"/>
</svg>
