<svg xmlns="http://www.w3.org/2000/svg" viewBox="0 0 24 24">
  <path d="M16 1a1 1 0 011 .88V3h1a3 3 0 013 2.82V20a3 3 0 01-2.82 3H6a3 3 0 01-3-2.82V6a3 3 0 012.82-3H7V2a1 1 0 01.88-1H16zM7 5H6a1 1 0 00-1 .88V20a1 1 0 00.88 1H18a1 1 0 001-.88V6a1 1 0 00-1-1h-1v1a1 1 0 01-.88 1H8a1 1 0 01-1-.88V5zm5 5a1 1 0 011 1v3.59l1.3-1.3.09-.08a1 1 0 011.32 1.5l-3 3-.08.07a3 3 0 01-.15.1l-.06.03-.05.02a.95.95 0 01-.22.06h-.13L12 18h-.09l-.06-.01a1.1 1.1 0 01-.22-.06l-.05-.02a1.04 1.04 0 01-.06-.03l-.04-.03a1.03 1.03 0 01-.08-.05l-.02-.02-.02-.01-.01-.01-.06-.05-3-3-.08-.1a1 1 0 011.5-1.32L11 14.6v-3.71a1 1 0 011-.88zm3-7H9v2h6V3z"/>
</svg>
