<svg xmlns="http://www.w3.org/2000/svg" width="24" height="24" viewBox="0 0 24 24">
  <path d="M12,1 C18.0751322,1 23,5.92486775 23,12 C23,18.0751322 18.0751322,23 12,23 C5.92486775,23 1,18.0751322 1,12 C1,5.92486775 5.92486775,1 12,1 Z M12,3 C7.02943725,3 3,7.02943725 3,12 C3,16.9705627 7.02943725,21 12,21 C16.9705627,21 21,16.9705627 21,12 C21,7.02943725 16.9705627,3 12,3 Z M17.7808688,7.37530495 C18.0993392,7.77339289 18.0642589,8.34021683 17.7177783,8.69642431 L17.624695,8.78086881 L12.624695,12.7808688 C12.2599615,13.0726556 11.7475795,13.0702762 11.3871883,12.7903262 L11.2928932,12.7071068 L8.29289322,9.70710678 C7.90236893,9.31658249 7.90236893,8.68341751 8.29289322,8.29289322 C8.65337718,7.93240926 9.22060824,7.90467972 9.61289944,8.20970461 L9.70710678,8.29289322 L12.074,10.659 L16.375305,7.21913119 C16.8065669,6.87412164 17.4358593,6.94404302 17.7808688,7.37530495 Z"/>
</svg>
