<svg xmlns="http://www.w3.org/2000/svg" width="24" height="24" viewBox="0 0 24 24">
  <path d="M19,5 C20.6568542,5 22,6.34314575 22,8 L22,8 L22,16 C22,17.6568542 20.6568542,19 19,19 L19,19 L5,19 C3.34314575,19 2,17.6568542 2,16 L2,16 L2,8 C2,6.34314575 3.34314575,5 5,5 L5,5 Z M20,11 L4,11 L4,16 C4,16.5128358 4.38604019,16.9355072 4.88337887,16.9932723 L5,17 L19,17 C19.5522847,17 20,16.5522847 20,16 L20,16 L20,11 Z M19,7 L5,7 C4.44771525,7 4,7.44771525 4,8 L4,8 L4,9 L20,9 L20,8 C20,7.44771525 19.5522847,7 19,7 L19,7 Z"/>
</svg>
