<svg xmlns="http://www.w3.org/2000/svg" width="24" height="24" viewBox="0 0 24 24">
  <path d="M4.61289944,3.20970461 L4.70710678,3.29289322 L12,10.585 L19.2928932,3.29289322 C19.6834175,2.90236893 20.3165825,2.90236893 20.7071068,3.29289322 C21.0675907,3.65337718 21.0953203,4.22060824 20.7902954,4.61289944 L20.7071068,4.70710678 L13.415,12 L20.7071068,19.2928932 C21.0976311,19.6834175 21.0976311,20.3165825 20.7071068,20.7071068 C20.3466228,21.0675907 19.7793918,21.0953203 19.3871006,20.7902954 L19.2928932,20.7071068 L12,13.415 L4.70710678,20.7071068 C4.31658249,21.0976311 3.68341751,21.0976311 3.29289322,20.7071068 C2.93240926,20.3466228 2.90467972,19.7793918 3.20970461,19.3871006 L3.29289322,19.2928932 L10.585,12 L3.29289322,4.70710678 C2.90236893,4.31658249 2.90236893,3.68341751 3.29289322,3.29289322 C3.65337718,2.93240926 4.22060824,2.90467972 4.61289944,3.20970461 Z"/>
</svg>
