<svg xmlns="http://www.w3.org/2000/svg" width="24" height="24" viewBox="0 0 24 24">
  <path d="M12,15 C12.5522847,15 13,15.4477153 13,16 C13,16.5522847 12.5522847,17 12,17 C11.4477153,17 11,16.5522847 11,16 C11,15.4477153 11.4477153,15 12,15 Z M12.1,7 C13.8,7 15.1,8.3 15.1,10 C15.1,11.4 14.2,12 13.6,12.4 C13.1,12.7 13,12.8 13,13 L13,13 L13,14 L11,14 L11,13 C11,11.7 11.9,11.1 12.5,10.7 C13,10.4 13.1,10.2 13.1,9.9 C13.1,9.3 12.7,9 12.1,9 C11.7,9 11.4,9.2 11.2,9.5 L11.2,9.5 L11.1789188,9.53794618 C11.1750832,9.54485031 11.1711627,9.55170695 11.1671582,9.55851454 C10.8977336,10.0165363 10.3080218,10.1694246 9.85,9.9 L9.85,9.9 L9.84096572,9.89468572 C9.37320074,9.61952985 9.21027394,9.02150692 9.47382857,8.54710857 L9.47382857,8.54710857 L9.5,8.5 C10,7.6 11,7 12.1,7 Z"/>
</svg>
