<svg xmlns="http://www.w3.org/2000/svg" width="24" height="24" viewBox="0 0 24 24">
  <path d="M15.8786797,2.70710678 L2.29289322,16.2928932 C2.10535684,16.4804296 2,16.7347835 2,17 L2,21 C2,21.5522847 2.44771525,22 3,22 L7,22 C7.26521649,22 7.5195704,21.8946432 7.70710678,21.7071068 L21.2928932,8.12132034 C22.4644661,6.94974747 22.4644661,5.05025253 21.2928932,3.87867966 L20.1213203,2.70710678 C18.9497475,1.53553391 17.0502525,1.53553391 15.8786797,2.70710678 Z M19.8786797,5.29289322 L19.9618683,5.38710056 C20.2668932,5.77939176 20.2391636,6.34662282 19.8786797,6.70710678 L6.584,20 L4,20 L4,17.414 L17.2928932,4.12132034 C17.6834175,3.73079605 18.3165825,3.73079605 18.7071068,4.12132034 L19.8786797,5.29289322 Z"/>
</svg>
