<svg xmlns="http://www.w3.org/2000/svg" width="24" height="24" viewBox="0 0 24 24">
  <path d="M15,17 C15.5522847,17 16,17.4477153 16,18 C16,18.5128358 15.6139598,18.9355072 15.1166211,18.9932723 L15,19 L9,19 C8.44771525,19 8,18.5522847 8,18 C8,17.4871642 8.38604019,17.0644928 8.88337887,17.0067277 L9,17 L15,17 Z M18,11 C18.5522847,11 19,11.4477153 19,12 C19,12.5128358 18.6139598,12.9355072 18.1166211,12.9932723 L18,13 L6,13 C5.44771525,13 5,12.5522847 5,12 C5,11.4871642 5.38604019,11.0644928 5.88337887,11.0067277 L6,11 L18,11 Z M21,5 C21.5522847,5 22,5.44771525 22,6 C22,6.51283584 21.6139598,6.93550716 21.1166211,6.99327227 L21,7 L3,7 C2.44771525,7 2,6.55228475 2,6 C2,5.48716416 2.38604019,5.06449284 2.88337887,5.00672773 L3,5 L21,5 Z"/>
</svg>
