<svg xmlns="http://www.w3.org/2000/svg" viewBox="0 0 24 24">
  <path d="M16 1a1 1 0 011 .88V3h1a4 4 0 014 3.8V19a4 4 0 01-3.8 4H6a4 4 0 01-4-3.8V7a4 4 0 013.8-4H7V2a1 1 0 012-.12V3h6V2a1 1 0 011-1zm4 10H4v8a2 2 0 001.85 2H18a2 2 0 002-1.85V11zm-4.3 7.3a1 1 0 11-1.4 1.4 1 1 0 011.4-1.4zm0-6a1 1 0 01.09 1.31l-.08.1-6 6a1 1 0 01-1.5-1.32l.08-.1 6-6a1 1 0 011.42 0zm-6 0a1 1 0 11-1.4 1.4 1 1 0 011.4-1.4zM7 5H6a2 2 0 00-2 1.85V9h16V7a2 2 0 00-1.85-2H17v1a1 1 0 01-2 .12V5H9v1a1 1 0 01-2 .12V5z"/>
</svg>
