<svg xmlns="http://www.w3.org/2000/svg" viewBox="0 0 24 24">
  <path d="M16 1a1 1 0 011 .88V3h1a4 4 0 014 3.8V19a4 4 0 01-3.8 4H6a4 4 0 01-4-3.8V7a4 4 0 013.8-4H7V2a1 1 0 012-.12V3h6V2a1 1 0 011-1zm4 10H4v8a2 2 0 001.85 2H18a2 2 0 002-1.85V11zm-7.78 1.68c.1.05.18.13.23.23l.87 1.77 1.96.28a.5.5 0 01.27.86l-1.41 1.38.33 1.94a.5.5 0 01-.72.53L12 18.75l-1.75.92a.5.5 0 01-.72-.53l.33-1.94-1.41-1.38a.5.5 0 01.27-.86l1.96-.28.87-1.77a.5.5 0 01.67-.23zM7 5H6a2 2 0 00-2 1.85V9h16V7a2 2 0 00-1.85-2H17v1a1 1 0 01-2 .12V5H9v1a1 1 0 01-2 .12V5z"/>
</svg>
