<svg xmlns="http://www.w3.org/2000/svg" viewBox="0 0 24 24">
  <path d="M12.5 3a8 8 0 018 8.36l-.03.3.06.03a5 5 0 012.46 4.08L23 16a5 5 0 01-4.78 5H6.5a1 1 0 01-.32-.05h-.01l-.22-.04A6 6 0 011 15.23V15a6 6 0 013.57-5.49l.08-.03.02-.12A8 8 0 0112.25 3zm0 2a6 6 0 00-5.96 5.33 1 1 0 01-.7.84 4 4 0 00.76 7.81h.06l.06.02h11.43a3 3 0 00.9-5.81 1 1 0 01-.65-1.12A6 6 0 0012.5 5zm-1.89 5.21l.1.08L12 11.6l1.3-1.3a1 1 0 011.49 1.32l-.08.1L13.4 13l1.3 1.3a1 1 0 01-1.32 1.49l-.1-.08L12 14.4l-1.3 1.3a1 1 0 01-1.49-1.32l.08-.1L10.6 13l-1.3-1.3a1 1 0 011.32-1.49z"/>
</svg>
