<svg xmlns="http://www.w3.org/2000/svg" width="24" height="24" viewBox="0 0 24 24">
  <path d="M21,12 C21.5522847,12 22,12.4477153 22,13 L22,13 L22,19 L21.9949073,19.1762728 C21.9036609,20.75108 20.5976809,22 19,22 L19,22 L5,22 L4.82372721,21.9949073 C3.24891996,21.9036609 2,20.5976809 2,19 L2,19 L2,13 L2.00672773,12.8833789 C2.06449284,12.3860402 2.48716416,12 3,12 C3.55228475,12 4,12.4477153 4,13 L4,13 L4,19 L4.00672773,19.1166211 C4.06449284,19.6139598 4.48716416,20 5,20 L5,20 L19,20 L19.1166211,19.9932723 C19.6139598,19.9355072 20,19.5128358 20,19 L20,19 L20,13 L20.0067277,12.8833789 C20.0644928,12.3860402 20.4871642,12 21,12 Z M13.998,13.059 L13.997,13.075 L13.9889807,13.1489612 L13.9889807,13.1489612 C13.9863719,13.165949 13.9832978,13.1833753 13.9797599,13.2007258 C13.9753602,13.2227461 13.9701664,13.2444365 13.964279,13.2658396 C13.9599023,13.2814633 13.9552713,13.2968513 13.9502619,13.3121425 C13.9438775,13.3317977 13.9366843,13.3515792 13.928896,13.3710585 L13.9063266,13.4232215 L13.9063266,13.4232215 C13.8966234,13.4438914 13.8862061,13.4642939 13.8751242,13.484277 C13.8685012,13.4963944 13.8613931,13.5086131 13.8540045,13.5207088 C13.8382813,13.546275 13.8215099,13.5711307 13.8036865,13.5951593 C13.7992821,13.6012086 13.7948255,13.6070733 13.7902954,13.6128994 L13.7073018,13.7068684 L13.7073018,13.7068684 L13.623,13.78 L13.7071068,13.7071068 C13.6717127,13.7425008 13.6343256,13.774687 13.5953066,13.8036654 C13.5711307,13.8215099 13.546275,13.8382813 13.5206602,13.8539326 L13.4840621,13.8753288 L13.4840621,13.8753288 C13.4642939,13.8862061 13.4438914,13.8966234 13.4230991,13.9063462 L13.371336,13.9287745 L13.371336,13.9287745 C13.3515792,13.9366843 13.3317977,13.9438775 13.3117364,13.9504533 L13.2918437,13.9566726 L13.2918437,13.9566726 L13.2708729,13.9628803 C13.2471983,13.9695267 13.2231682,13.9753235 13.1988177,13.9802356 L13.1764315,13.9844021 L13.1764315,13.9844021 L13.1539846,13.9882174 C13.1416037,13.9901309 13.1291477,13.9918173 13.1166211,13.9932723 L13.0801904,13.9967993 C13.0731418,13.9973629 13.0660884,13.9978521 13.0590314,13.9982669 L13.033,13.998 L13,14 L7,14 C6.44771525,14 6,13.5522847 6,13 C6,12.4871642 6.38604019,12.0644928 6.88337887,12.0067277 L7,12 L10.585,12 L3.29289322,4.70710678 C2.90236893,4.31658249 2.90236893,3.68341751 3.29289322,3.29289322 C3.65337718,2.93240926 4.22060824,2.90467972 4.61289944,3.20970461 L4.70710678,3.29289322 L12,10.585 L12,7 C12,6.44771525 12.4477153,6 13,6 C13.5128358,6 13.9355072,6.38604019 13.9932723,6.88337887 L14,7 L14,13 L13.9994829,13.0322546 L13.998,13.059 Z"/>
</svg>
