<svg xmlns="http://www.w3.org/2000/svg" width="24" height="24" viewBox="0 0 24 24">
  <path d="M21,12 C21.5522847,12 22,12.4477153 22,13 L22,13 L22,19 L21.9949073,19.1762728 C21.9036609,20.75108 20.5976809,22 19,22 L19,22 L5,22 L4.82372721,21.9949073 C3.24891996,21.9036609 2,20.5976809 2,19 L2,19 L2,13 L2.00672773,12.8833789 C2.06449284,12.3860402 2.48716416,12 3,12 C3.55228475,12 4,12.4477153 4,13 L4,13 L4,19 L4.00672773,19.1166211 C4.06449284,19.6139598 4.48716416,20 5,20 L5,20 L19,20 L19.1166211,19.9932723 C19.6139598,19.9355072 20,19.5128358 20,19 L20,19 L20,13 L20.0067277,12.8833789 C20.0644928,12.3860402 20.4871642,12 21,12 Z M20.7071068,3.29289322 C21.0675907,3.65337718 21.0953203,4.22060824 20.7902954,4.61289944 L20.7071068,4.70710678 L13.414,12 L17,12 L17.1166211,12.0067277 C17.6139598,12.0644928 18,12.4871642 18,13 C18,13.5128358 17.6139598,13.9355072 17.1166211,13.9932723 L17,14 L11,14 L10.966,13.998 L10.9409686,13.9982669 L10.919,13.995 L10.8833789,13.9932723 C10.8708523,13.9918173 10.8583963,13.9901309 10.8460154,13.9882174 L10.8349767,13.9863787 L10.8349767,13.9863787 L10.8011823,13.9802356 L10.7649012,13.9722083 L10.7649012,13.9722083 L10.6878575,13.9502619 L10.6878575,13.9502619 C10.6682023,13.9438775 10.6484208,13.9366843 10.6289415,13.928896 L10.5767785,13.9063266 L10.5767785,13.9063266 C10.5561086,13.8966234 10.5357061,13.8862061 10.515723,13.8751242 C10.5036056,13.8685012 10.4913869,13.8613931 10.4792912,13.8540045 C10.453725,13.8382813 10.4288693,13.8215099 10.4048407,13.8036865 L10.3474524,13.7577946 L10.3474524,13.7577946 L10.3851936,13.7887351 C10.3203392,13.7381101 10.2618899,13.6796608 10.2112649,13.6148064 C10.2062285,13.6084584 10.2012357,13.6019058 10.1963346,13.5953066 C10.1784901,13.5711307 10.1617187,13.546275 10.1460674,13.5206602 L10.1246712,13.4840621 L10.1246712,13.4840621 C10.1137939,13.4642939 10.1033766,13.4438914 10.0936538,13.4230991 L10.0712255,13.371336 L10.0712255,13.371336 C10.0633157,13.3515792 10.0561225,13.3317977 10.0495467,13.3117364 C10.0447287,13.2968513 10.0400977,13.2814633 10.0358451,13.265993 C10.0298336,13.2444365 10.0246398,13.2227461 10.0201652,13.2007941 C10.0167022,13.1833753 10.0136281,13.165949 10.0110178,13.1484669 L10.003,13.081 L10.001,13.019 L10.001,13.054 L10.0001861,13.0193545 L10.0001861,13.0193545 L10,7 L10.0067277,6.88337887 C10.0644928,6.38604019 10.4871642,6 11,6 C11.5128358,6 11.9355072,6.38604019 11.9932723,6.88337887 L12,7 L12,10.584 L19.2928932,3.29289322 L19.3871006,3.20970461 C19.7793918,2.90467972 20.3466228,2.93240926 20.7071068,3.29289322 Z"/>
</svg>
