<svg xmlns="http://www.w3.org/2000/svg" width="24" height="24" viewBox="0 0 24 24">
  <path d="M16.9560452,5.55285036 L17.0502525,5.63603897 L22.7071068,11.2928932 C22.7341207,11.3199072 22.7595963,11.3484595 22.7833908,11.3784075 L22.7071068,11.2928932 C22.7465715,11.332358 22.7820481,11.3743006 22.8135366,11.4182204 C22.8274737,11.4377852 22.8410808,11.4583066 22.8539326,11.4793398 C22.8622728,11.4928304 22.8701389,11.5064305 22.8776583,11.5201698 C22.8868931,11.5371537 22.8959557,11.5549095 22.9044938,11.5729619 C22.9140881,11.5932325 22.9226898,11.613165 22.930613,11.6333026 C22.9375547,11.6508514 22.9440997,11.6689468 22.9501291,11.6872762 C22.9551048,11.7025958 22.9598259,11.7182588 22.9641549,11.734007 C22.9701664,11.7555635 22.9753602,11.7772539 22.9798348,11.7992059 C22.9832978,11.8166247 22.9863719,11.834051 22.9889822,11.8515331 C22.9920941,11.8718856 22.994564,11.8929426 22.9963697,11.914189 C22.9978612,11.9321496 22.9988858,11.9495547 22.9994578,11.9669718 C22.9998151,11.9775981 23,11.9887775 23,12 L22.9994578,12.0330282 C22.9988882,12.0503712 22.9978699,12.0677023 22.9964029,12.0850024 L23,12 C23,12.0506203 22.9962388,12.1003621 22.9889807,12.1489612 C22.9863441,12.1661068 22.9832818,12.1834538 22.9797599,12.2007258 C22.9753602,12.2227461 22.9701664,12.2444365 22.964279,12.2658396 C22.9599023,12.2814633 22.9552713,12.2968513 22.9502619,12.3121425 C22.9438775,12.3317977 22.9366843,12.3515792 22.928896,12.3710585 C22.9218036,12.3887956 22.914321,12.4060985 22.9063266,12.4232215 C22.897529,12.4419547 22.8881407,12.4604898 22.8782035,12.4786822 C22.8701866,12.4935488 22.8613648,12.5087703 22.8521085,12.5238 C22.8384932,12.5456983 22.8245831,12.5664533 22.8099369,12.5866395 C22.8026914,12.5967524 22.7949756,12.606968 22.7870379,12.6170661 C22.7848777,12.6197272 22.7826022,12.6225945 22.7803112,12.625449 L22.7071068,12.7071068 L17.0502525,18.363961 C16.6597282,18.7544853 16.0265633,18.7544853 15.636039,18.363961 C15.275555,18.0034771 15.2478255,17.436246 15.5528504,17.0439548 L15.636039,16.9497475 L19.585,12.9991458 L2,13 C1.44771525,13 1,12.5522847 1,12 C1,11.4871642 1.38604019,11.0644928 1.88337887,11.0067277 L2,11 L19.585,10.9991458 L15.636039,7.05025253 C15.2455147,6.65972824 15.2455147,6.02656326 15.636039,5.63603897 C15.9965229,5.27555501 16.563754,5.24782547 16.9560452,5.55285036 Z"/>
</svg>
