<svg xmlns="http://www.w3.org/2000/svg" width="24" height="24" viewBox="0 0 24 24">
  <path d="M2,13 C2,12.4477153 2.44771525,12 3,12 C3.51283584,12 3.93550716,12.3860402 3.99327227,12.8833789 L4,13 L4,18.584 L20.2928932,2.29289322 C20.6834175,1.90236893 21.3165825,1.90236893 21.7071068,2.29289322 C22.0675907,2.65337718 22.0953203,3.22060824 21.7902954,3.61289944 L21.7071068,3.70710678 L5.414,20 L11,20 C11.5522847,20 12,20.4477153 12,21 C12,21.5128358 11.6139598,21.9355072 11.1166211,21.9932723 L11,22 L3,22 L2.96774538,21.9994829 C2.94973363,21.9989053 2.93173451,21.9978436 2.9137692,21.9962979 L2.88337887,21.9932723 L2.88337887,21.9932723 L2.84653191,21.9882226 C2.83886575,21.9870384 2.83121072,21.9857649 2.82356849,21.9844021 L2.80118228,21.9802356 C2.77683175,21.9753235 2.75280168,21.9695267 2.72912705,21.9628803 C2.71523112,21.9589028 2.70150571,21.9547331 2.68785748,21.9502619 C2.66820232,21.9438775 2.6484208,21.9366843 2.62894148,21.928896 C2.61120435,21.9218036 2.5939015,21.914321 2.57677845,21.9063266 C2.5561086,21.8966234 2.53570605,21.8862061 2.51572305,21.8751242 C2.50360556,21.8685012 2.49138689,21.8613931 2.47929125,21.8540045 C2.45372505,21.8382813 2.42886931,21.8215099 2.4048407,21.8036865 C2.39879136,21.7992821 2.39292666,21.7948255 2.38710056,21.7902954 C2.32033919,21.7381101 2.2618899,21.6796608 2.21126487,21.6148064 L2.29289322,21.7071068 C2.25749917,21.6717127 2.22531295,21.6343256 2.19633458,21.5953066 C2.17849009,21.5711307 2.1617187,21.546275 2.14606743,21.5206602 C2.13860692,21.5086131 2.13149883,21.4963944 2.12467117,21.4840621 C2.11379392,21.4642939 2.10337664,21.4438914 2.09365378,21.4230991 C2.08567905,21.4060985 2.07819642,21.3887956 2.07122549,21.371336 C2.06331574,21.3515792 2.05612249,21.3317977 2.04954668,21.3117364 C2.04472872,21.2968513 2.04009773,21.2814633 2.03584514,21.265993 C2.02983363,21.2444365 2.0246398,21.2227461 2.02016515,21.2007941 C2.01670217,21.1833753 2.01362808,21.165949 2.0110178,21.1484669 C2.00810098,21.1294204 2.00574796,21.1096949 2.00397748,21.0898018 C2.00189498,21.0659949 2.00063489,21.042681 2.00018615,21.0193545 C2.00006128,21.0129086 2,21.0064615 2,21 L2,13 Z"/>
</svg>
