<svg xmlns="http://www.w3.org/2000/svg" width="24" height="24" viewBox="0 0 24 24">
  <path d="M3,2 C3.51283584,2 3.93550716,2.38604019 3.99327227,2.88337887 L4,3 L4,21 C4,21.5522847 3.55228475,22 3,22 C2.48716416,22 2.06449284,21.6139598 2.00672773,21.1166211 L2,21 L2,3 C2,2.44771525 2.44771525,2 3,2 Z M14.636039,5.63603897 C15.0265633,5.24551468 15.6597282,5.24551468 16.0502525,5.63603897 L16.0502525,5.63603897 L21.7071068,11.2928932 C21.7341207,11.3199072 21.7595963,11.3484595 21.7837553,11.3787805 C21.79405,11.3917355 21.8039771,11.4048869 21.8131491,11.4178133 C21.8274737,11.4377852 21.8410808,11.4583066 21.8540601,11.4793822 C21.8622728,11.4928304 21.8701389,11.5064305 21.8773256,11.5197141 C21.8868931,11.5371537 21.8959557,11.5549095 21.9048078,11.5735404 C21.9140881,11.5932325 21.9226898,11.613165 21.9305112,11.6330072 C21.9375547,11.6508514 21.9440997,11.6689468 21.9499916,11.6870335 C21.9551048,11.7025958 21.9598259,11.7182588 21.964279,11.7341604 C21.9701664,11.7555635 21.9753602,11.7772539 21.9797599,11.7992742 C21.9832978,11.8166247 21.9863719,11.834051 21.9889807,11.8510388 L21.9889807,11.8510388 L21.996,11.918 L21.998,11.98 L21.9985413,11.945839 L21.9985413,11.945839 L21.9998203,11.9809819 L21.9998009,12.0200189 C21.9993428,12.0430382 21.9980946,12.0660447 21.9960897,12.0890432 C21.9943118,12.1091935 21.9919361,12.1291721 21.9889467,12.1487043 C21.9863441,12.1661068 21.9832818,12.1834538 21.9798348,12.2007941 C21.9753602,12.2227461 21.9701664,12.2444365 21.9641549,12.265993 C21.9599023,12.2814633 21.9552713,12.2968513 21.9504533,12.3117364 C21.9438775,12.3317977 21.9366843,12.3515792 21.9287745,12.371336 L21.9287745,12.371336 L21.9063462,12.4230991 C21.897529,12.4419547 21.8881407,12.4604898 21.8785739,12.4781534 C21.8701866,12.4935488 21.8613648,12.5087703 21.8516276,12.5244138 C21.8384932,12.5456983 21.8245831,12.5664533 21.8101853,12.5864257 L21.8101853,12.5864257 L21.78,12.624 L21.7837361,12.6211577 L21.7803112,12.625449 L21.773,12.633 L21.7614296,12.6483271 L21.7614296,12.6483271 L21.7071068,12.7071068 L16.0502525,18.363961 L15.9560452,18.4471496 C15.563754,18.7521745 14.9965229,18.724445 14.636039,18.363961 C14.2455147,17.9734367 14.2455147,17.3402718 14.636039,16.9497475 L14.636039,16.9497475 L18.586,12.9991458 L7,13 L6.88337887,12.9932723 C6.38604019,12.9355072 6,12.5128358 6,12 C6,11.4477153 6.44771525,11 7,11 L7,11 L18.586,10.9991458 L14.636039,7.05025253 L14.5528504,6.95604519 C14.2478255,6.56375399 14.275555,5.99652293 14.636039,5.63603897 Z" transform="matrix(-1 0 0 1 24 0)"/>
</svg>
