<svg xmlns="http://www.w3.org/2000/svg" width="24" height="24" viewBox="0 0 24 24">
  <g fill="none" fill-rule="evenodd">
    <path fill="#000" fill-rule="nonzero" d="M19.3871006,3.20970461 C19.7793918,2.90467972 20.3466228,2.93240926 20.7071068,3.29289322 C21.0976311,3.68341751 21.0976311,4.31658249 20.7071068,4.70710678 L20.7071068,4.70710678 L13.414,12 L17,12 L17.1166211,12.0067277 C17.6139598,12.0644928 18,12.4871642 18,13 C18,13.5522847 17.5522847,14 17,14 L17,14 L11,14 L10.966,13.998 L10.9409686,13.9982669 L10.9409686,13.9982669 L10.919,13.995 L10.8833789,13.9932723 C10.8708523,13.9918173 10.8583963,13.9901309 10.8460154,13.9882174 C10.8388658,13.9870384 10.8312107,13.9857649 10.8235685,13.9844021 L10.8011823,13.9802356 C10.7768318,13.9753235 10.7528017,13.9695267 10.7291271,13.9628803 C10.7152311,13.9589028 10.7015057,13.9547331 10.6878575,13.9502619 C10.6682023,13.9438775 10.6484208,13.9366843 10.6289415,13.928896 C10.6112044,13.9218036 10.5939015,13.914321 10.5767785,13.9063266 C10.5561086,13.8966234 10.5357061,13.8862061 10.515723,13.8751242 C10.5036056,13.8685012 10.4913869,13.8613931 10.4792912,13.8540045 C10.453725,13.8382813 10.4288693,13.8215099 10.4048407,13.8036865 C10.3656744,13.774687 10.3282873,13.7425008 10.2928932,13.7071068 L10.3851936,13.7887351 C10.3203392,13.7381101 10.2618899,13.6796608 10.2112649,13.6148064 C10.2062285,13.6084584 10.2012357,13.6019058 10.1963346,13.5953066 C10.1784901,13.5711307 10.1617187,13.546275 10.1460674,13.5206602 C10.1386069,13.5086131 10.1314988,13.4963944 10.1246712,13.4840621 C10.1137939,13.4642939 10.1033766,13.4438914 10.0936538,13.4230991 C10.085679,13.4060985 10.0781964,13.3887956 10.0712255,13.371336 C10.0633157,13.3515792 10.0561225,13.3317977 10.0495467,13.3117364 C10.0447287,13.2968513 10.0400977,13.2814633 10.0358451,13.265993 C10.0298336,13.2444365 10.0246398,13.2227461 10.0201652,13.2007941 C10.0167022,13.1833753 10.0136281,13.165949 10.0110178,13.1484669 C10.0037612,13.1003621 10,13.0506203 10,13 L10.0039664,13.0892501 C10.001895,13.0659949 10.0006349,13.042681 10.0001861,13.0193545 L10,13 L10,7 L10.0067277,6.88337887 C10.0644928,6.38604019 10.4871642,6 11,6 C11.5522847,6 12,6.44771525 12,7 L12,7 L12,10.584 L19.2928932,3.29289322 Z"/>
    <path fill="#000" fill-rule="nonzero" d="M21,12 C21.5128358,12 21.9355072,12.3860402 21.9932723,12.8833789 L22,13 L22,19 C22,20.5976809 20.75108,21.9036609 19.1762728,21.9949073 L19,22 L5,22 C3.40231912,22 2.09633912,20.75108 2.00509269,19.1762728 L2,19 L2,13 C2,12.4477153 2.44771525,12 3,12 C3.51283584,12 3.93550716,12.3860402 3.99327227,12.8833789 L4,13 L4,19 C4,19.5128358 4.38604019,19.9355072 4.88337887,19.9932723 L5,20 L19,20 C19.5128358,20 19.9355072,19.6139598 19.9932723,19.1166211 L20,19 L20,13 C20,12.4477153 20.4477153,12 21,12 Z" transform="matrix(-1 0 0 1 24 0)"/>
  </g>
</svg>
