<svg xmlns="http://www.w3.org/2000/svg" width="24" height="24" viewBox="0 0 24 24">
  <path d="M12,5 C12.5128358,5 12.9355072,5.38604019 12.9932723,5.88337887 L13,6 L12.9991458,15.585 L16.9497475,11.636039 C17.3402718,11.2455147 17.9734367,11.2455147 18.363961,11.636039 C18.724445,11.9965229 18.7521745,12.563754 18.4471496,12.9560452 L18.363961,13.0502525 L12.7071068,18.7071068 C12.6786695,18.735544 12.6485275,18.7622766 12.6168472,18.7871379 L12.7071068,18.7071068 C12.6690359,18.7451777 12.628659,18.7795372 12.5864257,18.8101853 C12.5664533,18.8245831 12.5456983,18.8384932 12.5244138,18.8516276 C12.5087703,18.8613648 12.4935488,18.8701866 12.4781534,18.8785739 C12.4604898,18.8881407 12.4419547,18.897529 12.4230991,18.9063462 C12.4060985,18.914321 12.3887956,18.9218036 12.371336,18.9287745 C12.3515792,18.9366843 12.3317977,18.9438775 12.3117364,18.9504533 C12.2968513,18.9552713 12.2814633,18.9599023 12.265993,18.9641549 C12.2444365,18.9701664 12.2227461,18.9753602 12.2007941,18.9798348 C12.1926434,18.981408 12.1845447,18.9829554 12.1764315,18.9844021 L12.1489612,18.9889807 C12.1278772,18.9921295 12.1065782,18.9946202 12.0850857,18.9964311 L12.0590314,18.9982669 L12.0590314,18.9982669 L12.0332497,18.9994576 C12.0222108,18.9998183 12.0111266,19 12,19 L11.9661458,18.998 L11.9409686,18.9982669 C11.9322314,18.9977534 11.9234996,18.9971258 11.9147758,18.996384 L12,19 C11.9493797,19 11.8996379,18.9962388 11.8510388,18.9889807 C11.834051,18.9863719 11.8166247,18.9832978 11.7992742,18.9797599 C11.7772539,18.9753602 11.7555635,18.9701664 11.7341604,18.964279 C11.7182588,18.9598259 11.7025958,18.9551048 11.6870335,18.9499916 C11.6689468,18.9440997 11.6508514,18.9375547 11.6330072,18.9305112 C11.613165,18.9226898 11.5932325,18.9140881 11.5735404,18.9048078 C11.5549095,18.8959557 11.5371537,18.8868931 11.5197141,18.8773256 C11.5064305,18.8701389 11.4928304,18.8622728 11.4793822,18.8540601 C11.4583066,18.8410808 11.4377852,18.8274737 11.4178133,18.8131491 C11.4048869,18.8039771 11.3917355,18.79405 11.3787805,18.7837553 C11.3484595,18.7595963 11.3199072,18.7341207 11.2928932,18.7071068 L5.63603897,13.0502525 C5.24551468,12.6597282 5.24551468,12.0265633 5.63603897,11.636039 C5.99652293,11.275555 6.56375399,11.2478255 6.95604519,11.5528504 L7.05025253,11.636039 L10.9991458,15.585 L11,6 C11,5.44771525 11.4477153,5 12,5 Z"/>
</svg>
