<svg xmlns="http://www.w3.org/2000/svg" width="24" height="24" viewBox="0 0 24 24">
  <path d="M21,2 C21.5128358,2 21.9355072,2.38604019 21.9932723,2.88337887 L22,3 L22,21 C22,21.5522847 21.5522847,22 21,22 C20.4871642,22 20.0644928,21.6139598 20.0067277,21.1166211 L20,21 L20,3 C20,2.44771525 20.4477153,2 21,2 Z M2.29289322,11.2928932 L7.94974747,5.63603897 L8.04395481,5.55285036 C8.43624601,5.24782547 9.00347707,5.27555501 9.36396103,5.63603897 C9.75448532,6.02656326 9.75448532,6.65972824 9.36396103,7.05025253 L9.36396103,7.05025253 L5.415,10.9991458 L17,11 L17.1166211,11.0067277 C17.6139598,11.0644928 18,11.4871642 18,12 C18,12.5522847 17.5522847,13 17,13 L17,13 L5.415,12.9991458 L9.36396103,16.9497475 L9.44714964,17.0439548 C9.75217453,17.436246 9.72444499,18.0034771 9.36396103,18.363961 C8.97343674,18.7544853 8.34027176,18.7544853 7.94974747,18.363961 L7.94974747,18.363961 L2.29289322,12.7071068 L2.21968877,12.625449 C2.21739784,12.6225945 2.21512226,12.6197272 2.20970461,12.6128994 C2.2029095,12.6041603 2.19627953,12.5953343 2.19006311,12.5866395 C2.17541687,12.5664533 2.16150681,12.5456983 2.14789148,12.5238 C2.13863517,12.5087703 2.12981337,12.4935488 2.12179647,12.4786822 C2.11185933,12.4604898 2.10247102,12.4419547 2.09367336,12.4232215 L2.09367336,12.4232215 L2.07110396,12.3710585 C2.06331574,12.3515792 2.05612249,12.3317977 2.04973809,12.3121425 C2.04472872,12.2968513 2.04009773,12.2814633 2.03572097,12.2658396 C2.02983363,12.2444365 2.0246398,12.2227461 2.02024007,12.2007258 C2.01671819,12.1834538 2.01365592,12.1661068 2.01101934,12.1489612 L2.01101934,12.1489612 L2.00359713,12.0850024 L2.00359713,12.0850024 L2.002,12.059 L2.002,12.07 L2.0017331,12.0590314 L2.0017331,12.0590314 L2.00054218,12.0330282 L2.00054218,11.9669718 C2.00111418,11.9495547 2.00213878,11.9321496 2.0036303,11.914189 C2.00543596,11.8929426 2.00790593,11.8718856 2.0110178,11.8515331 C2.01362808,11.834051 2.01670217,11.8166247 2.02016515,11.7992059 C2.0246398,11.7772539 2.02983363,11.7555635 2.03584514,11.734007 C2.04017413,11.7182588 2.04489522,11.7025958 2.04987089,11.6872762 C2.0559003,11.6689468 2.06244532,11.6508514 2.06938695,11.6333026 C2.07731015,11.613165 2.08591191,11.5932325 2.09550623,11.5729619 C2.1040443,11.5549095 2.1131069,11.5371537 2.12234168,11.5201698 C2.12986112,11.5064305 2.13772719,11.4928304 2.14606743,11.4793398 C2.15891923,11.4583066 2.17252629,11.4377852 2.1864634,11.4182204 L2.1864634,11.4182204 L2.22,11.374 L2.21660919,11.3784075 L2.222,11.371 L2.29289322,11.2928932 Z" transform="matrix(-1 0 0 1 24 0)"/>
</svg>
