<svg xmlns="http://www.w3.org/2000/svg" width="24" height="24" viewBox="0 0 24 24">
  <path d="M12,6 C12.5522847,6 13,6.44771525 13,7 L13,7 L12.9991458,18.586 L16.9497475,14.636039 L17.0439548,14.5528504 C17.436246,14.2478255 18.0034771,14.275555 18.363961,14.636039 C18.7544853,15.0265633 18.7544853,15.6597282 18.363961,16.0502525 L18.363961,16.0502525 L12.7071068,21.7071068 L12.625449,21.7803112 C12.6225945,21.7826022 12.6197272,21.7848777 12.6128994,21.7902954 C12.6041603,21.7970905 12.5953343,21.8037205 12.5866395,21.8099369 C12.5664533,21.8245831 12.5456983,21.8384932 12.5238,21.8521085 C12.5087703,21.8613648 12.4935488,21.8701866 12.4786822,21.8782035 C12.4604898,21.8881407 12.4419547,21.897529 12.4232215,21.9063266 L12.4232215,21.9063266 L12.3710585,21.928896 C12.3515792,21.9366843 12.3317977,21.9438775 12.3121425,21.9502619 C12.2968513,21.9552713 12.2814633,21.9599023 12.2658396,21.964279 C12.2444365,21.9701664 12.2227461,21.9753602 12.2007258,21.9797599 C12.1834538,21.9832818 12.1661068,21.9863441 12.1489612,21.9889807 L12.1489612,21.9889807 L12.08,21.996 L12.027,21.999 L12.0181458,21.999 L12,22 C11.9935385,22 11.9870914,21.9999387 11.9806591,21.9998167 L11.9806591,21.9998167 L11.9409686,21.9982669 L11.9409686,21.9982669 L11.9101982,21.9960225 C11.8903051,21.994252 11.8705796,21.991899 11.8515331,21.9889822 C11.834051,21.9863719 11.8166247,21.9832978 11.7992059,21.9798348 C11.7772539,21.9753602 11.7555635,21.9701664 11.734007,21.9641549 C11.7182588,21.9598259 11.7025958,21.9551048 11.6872762,21.9501291 C11.6689468,21.9440997 11.6508514,21.9375547 11.6333026,21.930613 C11.613165,21.9226898 11.5932325,21.9140881 11.5729619,21.9044938 C11.5549095,21.8959557 11.5371537,21.8868931 11.5201698,21.8776583 C11.5064305,21.8701389 11.4928304,21.8622728 11.4793398,21.8539326 C11.4583066,21.8410808 11.4377852,21.8274737 11.4182204,21.8135366 L11.4182204,21.8135366 L11.376,21.781 L11.375,21.78 L11.375,21.781 L11.374551,21.7803112 L11.367,21.774 L11.3538862,21.7633128 L11.3538862,21.7633128 L11.2928932,21.7071068 L5.63603897,16.0502525 L5.55285036,15.9560452 C5.24782547,15.563754 5.27555501,14.9965229 5.63603897,14.636039 C6.02656326,14.2455147 6.65972824,14.2455147 7.05025253,14.636039 L7.05025253,14.636039 L10.9991458,18.586 L11,7 L11.0067277,6.88337887 C11.0644928,6.38604019 11.4871642,6 12,6 Z M21,2 C21.5522847,2 22,2.44771525 22,3 C22,3.51283584 21.6139598,3.93550716 21.1166211,3.99327227 L21,4 L3,4 C2.44771525,4 2,3.55228475 2,3 C2,2.48716416 2.38604019,2.06449284 2.88337887,2.00672773 L3,2 L21,2 Z" transform="matrix(1 0 0 -1 0 24)"/>
</svg>
