<svg xmlns="http://www.w3.org/2000/svg" width="24" height="24" viewBox="0 0 24 24">
  <g fill="none" fill-rule="evenodd">
    <path fill="#000" fill-rule="nonzero" d="M11.9139111,2 L11.676036,2.0046538 C8.75514199,2.1191094 6.32568856,4.33223373 5.96024383,7.25579159 L5.535,10.65 L3.13979557,14.3777272 C2.82872214,14.8616192 2.663331,15.4247451 2.663331,16 C2.663331,17.6568542 4.00647675,19 5.663331,19 L18.336669,19 C18.9119239,19 19.4750498,18.8346089 19.9589418,18.5235354 L20.1097078,18.4201056 C21.3807589,17.4907213 21.7229774,15.7198185 20.8602044,14.3777272 L18.464,10.65 L18.0397562,7.25579159 C17.6644346,4.25321866 15.1120285,2 12.0860889,2 L11.9139111,2 Z"/>
    <path fill="#000" fill-rule="nonzero" d="M14.9999911,17 L8.99999114,17 C8.43640172,17 7.98414097,17.4655157 8.00041708,18.0288789 L8.00550978,18.2051517 C8.12899296,20.3435937 9.87822792,22 11.9999911,22 C14.209139,22 15.9999911,20.209139 15.9999911,18 C15.9999911,17.4477153 15.5522847,17 14.9999911,17 Z M13.731,19 L13.6777876,19.0890209 C13.3211231,19.6373876 12.7029079,20 12,20 L11.8498089,19.9944293 C11.2050445,19.9464325 10.6429261,19.5919665 10.3124679,19.0742854 L10.269,19 L13.731,19 Z"/>
  </g>
</svg>
