<svg xmlns="http://www.w3.org/2000/svg" width="24" height="24" viewBox="0 0 24 24">
  <path d="M22,10 L22,20 C22,21.1045695 21.1045695,22 20,22 L4,22 C2.8954305,22 2,21.1045695 2,20 L2,10 L22,10 Z M15.1616337,13.2501621 C14.7475097,12.8847586 14.1155778,12.9242544 13.7501742,13.3383784 L13.7501742,13.3383784 L10.9700121,16.488 L10.2498499,15.6717117 L10.1610152,15.5828086 C9.78851489,15.2539073 9.22065875,15.2461999 8.83839043,15.5834955 C8.42426642,15.948899 8.38477067,16.580831 8.75017421,16.994955 L8.75017421,16.994955 L10.2207624,18.6616216 L10.3105198,18.7513955 C10.7177952,19.1104909 11.3507811,19.0805663 11.7204382,18.6616216 L11.7204382,18.6616216 L15.2498499,14.6616216 L15.327,14.5624086 C15.6069605,14.1518544 15.543902,13.5874577 15.1616337,13.2501621 Z M16,4 L16,5 L16.0067277,5.11662113 C16.0644928,5.61395981 16.4871642,6 17,6 C17.5128358,6 17.9355072,5.61395981 17.9932723,5.11662113 L18,5 L18,4 L20,4 C21.0543618,4 21.9181651,4.81587779 21.9945143,5.85073766 L22,6 L22,8 L2,8 L2,6 C2,4.8954305 2.8954305,4 4,4 L6,4 L6,3 C6,2.44771525 6.44771525,2 7,2 C7.51283584,2 7.93550716,2.38604019 7.99327227,2.88337887 L8,3 L8,4 L6,4 L6,5 L6.00672773,5.11662113 C6.06449284,5.61395981 6.48716416,6 7,6 C7.51283584,6 7.93550716,5.61395981 7.99327227,5.11662113 L8,5 L8,4 L16,4 Z M17,2 C17.5128358,2 17.9355072,2.38604019 17.9932723,2.88337887 L18,3 L18,4 L16,4 L16,3 C16,2.44771525 16.4477153,2 17,2 Z"/>
</svg>
