<svg xmlns="http://www.w3.org/2000/svg" width="24" height="24" viewBox="0 0 24 24">
  <path d="M6,4 L6,5 L6.00672773,5.11662113 C6.06449284,5.61395981 6.48716416,6 7,6 C7.51283584,6 7.93550716,5.61395981 7.99327227,5.11662113 L8,5 L8,4 L16,4 L16,5 L16.0067277,5.11662113 C16.0644928,5.61395981 16.4871642,6 17,6 C17.5128358,6 17.9355072,5.61395981 17.9932723,5.11662113 L18,5 L18,4 L20,4 C21.0543618,4 21.9181651,4.81587779 21.9945143,5.85073766 L22,6 L22,19 C22,20.5976809 20.75108,21.9036609 19.1762728,21.9949073 L19,22 L5,22 C3.40231912,22 2.09633912,20.75108 2.00509269,19.1762728 L2,19 L2,6 C2,4.8954305 2.8954305,4 4,4 L6,4 Z M20,8 L4,8 L4,19 C4,19.4733869 4.32893365,19.8699473 4.77070917,19.9735893 L4.88337887,19.9932723 L5,20 L19,20 C19.5128358,20 19.9355072,19.6139598 19.9932723,19.1166211 L20,19 L20,8 Z M12.6128994,11.7097046 L12.7071068,11.7928932 L15.7071068,14.7928932 C16.0976311,15.1834175 16.0976311,15.8165825 15.7071068,16.2071068 C15.3466228,16.5675907 14.7793918,16.5953203 14.3871006,16.2902954 L14.2928932,16.2071068 L12,13.915 L9.70710678,16.2071068 C9.34662282,16.5675907 8.77939176,16.5953203 8.38710056,16.2902954 L8.29289322,16.2071068 C7.93240926,15.8466228 7.90467972,15.2793918 8.20970461,14.8871006 L8.29289322,14.7928932 L11.2928932,11.7928932 C11.6533772,11.4324093 12.2206082,11.4046797 12.6128994,11.7097046 Z M17,2 C17.5128358,2 17.9355072,2.38604019 17.9932723,2.88337887 L18,3 L18,4 L16,4 L16,3 C16,2.44771525 16.4477153,2 17,2 Z M7,2 C7.51283584,2 7.93550716,2.38604019 7.99327227,2.88337887 L8,3 L8,4 L6,4 L6,3 C6,2.44771525 6.44771525,2 7,2 Z"/>
</svg>
