<svg xmlns="http://www.w3.org/2000/svg" width="24" height="24" viewBox="0 0 24 24">
  <path d="M6,4 L6,5 L6.00672773,5.11662113 C6.06449284,5.61395981 6.48716416,6 7,6 C7.51283584,6 7.93550716,5.61395981 7.99327227,5.11662113 L8,5 L8,4 L16,4 L16,5 L16.0067277,5.11662113 C16.0644928,5.61395981 16.4871642,6 17,6 C17.5128358,6 17.9355072,5.61395981 17.9932723,5.11662113 L18,5 L18,4 L20,4 C21.0543618,4 21.9181651,4.81587779 21.9945143,5.85073766 L22,6 L22,19 C22,20.5976809 20.75108,21.9036609 19.1762728,21.9949073 L19,22 L5,22 C3.40231912,22 2.09633912,20.75108 2.00509269,19.1762728 L2,19 L2,6 C2,4.8954305 2.8954305,4 4,4 L6,4 Z M20,8 L4,8 L4,19 C4,19.4733869 4.32893365,19.8699473 4.77070917,19.9735893 L4.88337887,19.9932723 L5,20 L19,20 C19.5128358,20 19.9355072,19.6139598 19.9932723,19.1166211 L20,19 L20,8 Z M12,17 C12.5522847,17 13,17.4477153 13,18 C13,18.5522847 12.5522847,19 12,19 C11.4477153,19 11,18.5522847 11,18 C11,17.4477153 11.4477153,17 12,17 Z M12.1,9 C13.8,9 15.1,10.3 15.1,12 C15.1,13.4 14.2,14 13.6,14.4 C13.1454545,14.6727273 13.0214876,14.7801653 13.0027047,14.9477085 L13,15 L13,16 L11,16 L11,15 C11,13.7 11.9,13.1 12.5,12.7 C13,12.4 13.1,12.2 13.1,11.9 C13.1,11.3 12.7,11 12.1,11 C11.75,11 11.4765625,11.153125 11.2796875,11.3923828 L11.2,11.5 L11.1789188,11.5379462 C11.1750832,11.5448503 11.1711627,11.5517069 11.1671582,11.5585145 C10.9184586,11.9813039 10.3968515,12.1440978 9.95782931,11.9547316 L9.85,11.9 L9.84096572,11.8946857 C9.40918266,11.6406957 9.23714337,11.1116 9.42052358,10.6585764 L9.47382857,10.5471086 L9.5,10.5 C10,9.6 11,9 12.1,9 Z M17,2 C17.5128358,2 17.9355072,2.38604019 17.9932723,2.88337887 L18,3 L18,4 L16,4 L16,3 C16,2.44771525 16.4477153,2 17,2 Z M7,2 C7.51283584,2 7.93550716,2.38604019 7.99327227,2.88337887 L8,3 L8,4 L6,4 L6,3 C6,2.44771525 6.44771525,2 7,2 Z"/>
</svg>
