<svg xmlns="http://www.w3.org/2000/svg" width="24" height="24" viewBox="0 0 24 24">
  <path d="M22,10 L22,20 C22,21.1045695 21.1045695,22 20,22 L4,22 C2.8954305,22 2,21.1045695 2,20 L2,10 L22,10 Z M12.6128994,13.7097046 C12.2206082,13.4046797 11.6533772,13.4324093 11.2928932,13.7928932 L11.2928932,13.7928932 L8.29289322,16.7928932 L8.20970461,16.8871006 C7.90467972,17.2793918 7.93240926,17.8466228 8.29289322,18.2071068 L8.29289322,18.2071068 L8.38710056,18.2902954 C8.77939176,18.5953203 9.34662282,18.5675907 9.70710678,18.2071068 L9.70710678,18.2071068 L12,15.915 L14.2928932,18.2071068 L14.3871006,18.2902954 C14.7793918,18.5953203 15.3466228,18.5675907 15.7071068,18.2071068 C16.0976311,17.8165825 16.0976311,17.1834175 15.7071068,16.7928932 L15.7071068,16.7928932 L12.7071068,13.7928932 Z M6,4 L6,5 L6.00672773,5.11662113 C6.06449284,5.61395981 6.48716416,6 7,6 C7.51283584,6 7.93550716,5.61395981 7.99327227,5.11662113 L8,5 L8,4 L16,4 L16,5 L16.0067277,5.11662113 C16.0644928,5.61395981 16.4871642,6 17,6 C17.5128358,6 17.9355072,5.61395981 17.9932723,5.11662113 L18,5 L18,4 L20,4 C21.0543618,4 21.9181651,4.81587779 21.9945143,5.85073766 L22,6 L22,8 L2,8 L2,6 C2,4.8954305 2.8954305,4 4,4 L6,4 Z M17,2 C17.5128358,2 17.9355072,2.38604019 17.9932723,2.88337887 L18,3 L18,4 L16,4 L16,3 C16,2.44771525 16.4477153,2 17,2 Z M7,2 C7.51283584,2 7.93550716,2.38604019 7.99327227,2.88337887 L8,3 L8,4 L6,4 L6,3 C6,2.44771525 6.44771525,2 7,2 Z"/>
</svg>
