<svg xmlns="http://www.w3.org/2000/svg" width="24" height="24" viewBox="0 0 24 24">
  <path d="M22,10 L22,20 C22,21.1045695 21.1045695,22 20,22 L4,22 C2.8954305,22 2,21.1045695 2,20 L2,10 L22,10 Z M12,19 C11.4477153,19 11,19.4477153 11,20 C11,20.5522847 11.4477153,21 12,21 C12.5522847,21 13,20.5522847 13,20 C13,19.4477153 12.5522847,19 12,19 Z M12.1,11 C11,11 10,11.6 9.5,12.5 L9.5,12.5 L9.47382857,12.5471086 L9.42052358,12.6585764 C9.23714337,13.1116 9.40918266,13.6406957 9.84096572,13.8946857 L9.84096572,13.8946857 L9.85,13.9 L9.95782931,13.9547316 C10.3968515,14.1440978 10.9184586,13.9813039 11.1671582,13.5585145 C11.1711627,13.5517069 11.1750832,13.5448503 11.1789188,13.5379462 L11.1789188,13.5379462 L11.2,13.5 L11.2796875,13.3923828 C11.4765625,13.153125 11.75,13 12.1,13 C12.7,13 13.1,13.3 13.1,13.9 C13.1,14.2 13,14.4 12.5,14.7 C11.9,15.1 11,15.7 11,17 L11,17 L11,18 L13,18 L13,17 L13.0027047,16.9477085 C13.0214876,16.7801653 13.1454545,16.6727273 13.6,16.4 C14.2,16 15.1,15.4 15.1,14 C15.1,12.3 13.8,11 12.1,11 Z M6,4 L6,5 L6.00672773,5.11662113 C6.06449284,5.61395981 6.48716416,6 7,6 C7.51283584,6 7.93550716,5.61395981 7.99327227,5.11662113 L8,5 L8,4 L16,4 L16,5 L16.0067277,5.11662113 C16.0644928,5.61395981 16.4871642,6 17,6 C17.5128358,6 17.9355072,5.61395981 17.9932723,5.11662113 L18,5 L18,4 L20,4 C21.0543618,4 21.9181651,4.81587779 21.9945143,5.85073766 L22,6 L22,8 L2,8 L2,6 C2,4.8954305 2.8954305,4 4,4 L6,4 Z M17,2 C17.5128358,2 17.9355072,2.38604019 17.9932723,2.88337887 L18,3 L18,4 L16,4 L16,3 C16,2.44771525 16.4477153,2 17,2 Z M7,2 C7.51283584,2 7.93550716,2.38604019 7.99327227,2.88337887 L8,3 L8,4 L6,4 L6,3 C6,2.44771525 6.44771525,2 7,2 Z"/>
</svg>
