<svg xmlns="http://www.w3.org/2000/svg" width="24" height="24" viewBox="0 0 24 24">
  <path d="M6,4 L6,5 L6.00672773,5.11662113 C6.06449284,5.61395981 6.48716416,6 7,6 C7.51283584,6 7.93550716,5.61395981 7.99327227,5.11662113 L8,5 L8,4 L16,4 L16,5 L16.0067277,5.11662113 C16.0644928,5.61395981 16.4871642,6 17,6 C17.5128358,6 17.9355072,5.61395981 17.9932723,5.11662113 L18,5 L18,4 L20,4 C21.0543618,4 21.9181651,4.81587779 21.9945143,5.85073766 L22,6 L22,19 C22,20.5976809 20.75108,21.9036609 19.1762728,21.9949073 L19,22 L5,22 C3.40231912,22 2.09633912,20.75108 2.00509269,19.1762728 L2,19 L2,6 C2,4.8954305 2.8954305,4 4,4 L6,4 Z M20,8 L4,8 L4,19 C4,19.4733869 4.32893365,19.8699473 4.77070917,19.9735893 L4.88337887,19.9932723 L5,20 L19,20 C19.5128358,20 19.9355072,19.6139598 19.9932723,19.1166211 L20,19 L20,8 Z M12.2212829,10.6814077 C12.3198892,10.7300728 12.3997029,10.8098866 12.448368,10.9084929 L13.3225168,12.6797118 L15.2771729,12.9637399 C15.5504453,13.0034487 15.7397861,13.2571702 15.7000773,13.5304426 C15.684265,13.6392611 15.6330214,13.7398323 15.5542796,13.8165866 L14.1398772,15.1952882 L14.4737723,17.1420462 C14.5204528,17.4142144 14.3376589,17.6726924 14.0654907,17.7193729 C13.9571118,17.7379613 13.8456278,17.720304 13.7482976,17.6691344 L12,16.75 L10.2517024,17.6691344 C10.0072801,17.7976348 9.70496657,17.7036616 9.57646617,17.4592393 C9.52529663,17.361909 9.50763929,17.250425 9.52622772,17.1420462 L9.86012284,15.1952882 L8.4457204,13.8165866 C8.24797861,13.623836 8.24393246,13.3072794 8.43668307,13.1095376 C8.51343737,13.0307958 8.61400857,12.9795522 8.72282709,12.9637399 L10.6774832,12.6797118 L11.551632,10.9084929 C11.6738431,10.660866 11.973656,10.5591965 12.2212829,10.6814077 Z M17,2 C17.5128358,2 17.9355072,2.38604019 17.9932723,2.88337887 L18,3 L18,4 L16,4 L16,3 C16,2.44771525 16.4477153,2 17,2 Z M7,2 C7.51283584,2 7.93550716,2.38604019 7.99327227,2.88337887 L8,3 L8,4 L6,4 L6,3 C6,2.44771525 6.44771525,2 7,2 Z"/>
</svg>
