<svg xmlns="http://www.w3.org/2000/svg" width="24" height="24" viewBox="0 0 24 24">
  <path d="M12.360732,8 C13.7311899,8 14.9190706,8.92701648 15.2625196,10.2384584 L15.302474,10.4116516 L15.9809205,13.8038839 C15.9941998,13.8702808 16.0006051,13.9362003 16.0006789,14.0009803 L16,14 L16,21 C16,21.5522847 15.5522847,22 15,22 C14.4477153,22 14,21.5522847 14,21 L14,20 L4,20 L4,21 C4,21.5522847 3.55228475,22 3,22 C2.44771525,22 2,21.5522847 2,21 L2,14 L2.00492771,13.9029159 L2.00492771,13.9029159 L2.0197591,13.8038839 L2.69820556,10.4116516 C2.96697447,9.06780703 4.1089515,8.08479702 5.46228201,8.00521259 L5.63994759,8 L12.360732,8 Z M6,15 C5.44771525,15 5,15.4477153 5,16 C5,16.5522847 5.44771525,17 6,17 C6.55228475,17 7,16.5522847 7,16 C7,15.4477153 6.55228475,15 6,15 Z M12,15 C11.4477153,15 11,15.4477153 11,16 C11,16.5522847 11.4477153,17 12,17 C12.5522847,17 13,16.5522847 13,16 C13,15.4477153 12.5522847,15 12,15 Z M12.3603922,10 L5.63960781,10 C5.2026502,10 4.82137462,10.2827196 4.68885599,10.6898752 L4.65902713,10.8038839 L4.219,13 L13.78,13 L13.3409729,10.8038839 C13.2630688,10.4143637 12.9650745,10.1157911 12.59205,10.0270869 L12.4780368,10.0068907 L12.3603922,10 Z M19.5001686,8 C20.0524586,8 20.5001686,8.4477 20.5001686,9 C20.5001686,9.5523 20.0524586,10 19.5001686,10 C18.9478886,10 18.5001686,9.5523 18.5001686,9 C18.5001686,8.4477 18.9478886,8 19.5001686,8 Z M19.5001686,2 C20.0537486,2 20.6555886,2.16344 21.1376686,2.525 C21.6397686,2.90158 22.0001686,3.48991 22.0001686,4.25 C22.0001686,4.69838 21.8847686,5.07994 21.6710686,5.4004 C21.4664386,5.70737 21.2009186,5.91339 20.9787086,6.06154 C20.8700286,6.134 20.7594286,6.20036 20.6657686,6.25656 L20.6657686,6.25656 C20.5591686,6.32052 20.4769786,6.37001 20.4005986,6.42093 C20.2478286,6.52279 20.1695886,6.59803 20.1242286,6.66609 C19.8944886,7.01075 19.4288386,7.10391 19.0841786,6.87417 C18.7395186,6.64442 18.6463586,6.17878 18.8760986,5.83412 C19.0807386,5.52712 19.3462486,5.32107 19.5684786,5.1729 C19.6772086,5.10041 19.7878586,5.03402 19.8815586,4.9778 L19.8815586,4.9778 C19.9880486,4.9139 20.0702386,4.86441 20.1466286,4.81349 C20.2994086,4.71162 20.3776486,4.63639 20.4229986,4.56835 C20.4593586,4.51381 20.5001686,4.42662 20.5001686,4.25 C20.5001686,4.01009 20.4022286,3.84842 20.2376686,3.725 C20.0530786,3.58656 19.7799186,3.5 19.5001686,3.5 C19.1314086,3.5 18.9046986,3.59004 18.7599386,3.68654 C18.6104886,3.78617 18.5014986,3.92438 18.4209886,4.08541 C18.2357486,4.45589 17.7852386,4.60606 17.4147586,4.42082 C17.0442686,4.23558 16.8940986,3.78507 17.0793486,3.41459 C17.2488286,3.07562 17.5148386,2.71383 17.9278886,2.43846 C18.3456386,2.15996 18.8689286,2 19.5001686,2 Z"/>
</svg>
