<svg xmlns="http://www.w3.org/2000/svg" width="24" height="24" viewBox="0 0 24 24">
  <path d="M14,15 L4,15 L4,19 L14,19 L14,15 Z M6,16 C6.55228475,16 7,16.4477153 7,17 C7,17.5522847 6.55228475,18 6,18 C5.44771525,18 5,17.5522847 5,17 C5,16.4477153 5.44771525,16 6,16 Z M12,16 C12.5522847,16 13,16.4477153 13,17 C13,17.5522847 12.5522847,18 12,18 C11.4477153,18 11,17.5522847 11,17 C11,16.4477153 11.4477153,16 12,16 Z M12.3603922,10 L5.63960781,10 C5.2026502,10 4.82137462,10.2827196 4.68885599,10.6898752 L4.65902713,10.8038839 L4.219,13 L13.78,13 L13.3409729,10.8038839 C13.2630688,10.4143637 12.9650745,10.1157911 12.59205,10.0270869 L12.4780368,10.0068907 L12.3603922,10 Z M19,2 C19.5128358,2 19.9355072,2.38604019 19.9932723,2.88337887 L20,3 L19.999,5 L22,5 C22.5522847,5 23,5.44771525 23,6 C23,6.51283584 22.6139598,6.93550716 22.1166211,6.99327227 L22,7 L19.999,7 L20,9 C20,9.55228475 19.5522847,10 19,10 C18.4871642,10 18.0644928,9.61395981 18.0067277,9.11662113 L18,9 L17.999,7 L16,7 C15.4477153,7 15,6.55228475 15,6 C15,5.48716416 15.3860402,5.06449284 15.8833789,5.00672773 L16,5 L17.999,5 L18,3 C18,2.44771525 18.4477153,2 19,2 Z M2.009,13.869 L2.007,13.88 L2.00846437,13.8692981 C2.01005324,13.8571263 2.01186099,13.8450233 2.01388354,13.8329931 L2.01941932,13.8038839 L2.69786578,10.4116516 C2.96663469,9.06780703 4.10861172,8.08479702 5.46194223,8.00521259 L5.63960781,8 L12.3603922,8 C13.7308501,8 14.9187309,8.92701648 15.2621798,10.2384584 L15.3021342,10.4116516 L15.9805807,13.8038839 L15.9861158,13.8338552 L15.9861158,13.8338552 L15.9959318,13.9084099 L15.997,13.944 L15.9974718,13.9265341 C15.9979296,13.9325682 15.998332,13.9385947 15.9986795,13.9446132 L16,14 L16,20 L15.9999633,20.0086633 L16,21 C16,21.5522847 15.5522847,22 15,22 C14.4477153,22 14,21.5522847 14,21 L4,21 C4,21.5522847 3.55228475,22 3,22 C2.44771525,22 2,21.5522847 2,21 L2.00057563,13.9657469 L2.00057563,13.9657469 L2.0043585,13.906016 L2.009,13.869 Z"/>
</svg>
