<svg xmlns="http://www.w3.org/2000/svg" width="24" height="24" viewBox="0 0 24 24">
  <path d="M14,15 L4,15 L4,19 L14,19 L14,15 Z M6,16 C6.55228475,16 7,16.4477153 7,17 C7,17.5522847 6.55228475,18 6,18 C5.44771525,18 5,17.5522847 5,17 C5,16.4477153 5.44771525,16 6,16 Z M12,16 C12.5522847,16 13,16.4477153 13,17 C13,17.5522847 12.5522847,18 12,18 C11.4477153,18 11,17.5522847 11,17 C11,16.4477153 11.4477153,16 12,16 Z M12.3603922,10 L5.63960781,10 C5.2026502,10 4.82137462,10.2827196 4.68885599,10.6898752 L4.65902713,10.8038839 L4.219,13 L13.78,13 L13.3409729,10.8038839 C13.2630688,10.4143637 12.9650745,10.1157911 12.59205,10.0270869 L12.4780368,10.0068907 L12.3603922,10 Z M15.001,6.059 L15.002,6.059 L15,6.018 L15,6 L15.0000451,5.99040127 L15.0001802,5.98082404 L15.0017331,5.94096861 C15.0023256,5.93088722 15.00307,5.92081308 15.003998,5.90996805 L15.003998,5.90996805 L15.0110178,5.85153313 C15.0136281,5.83405099 15.0167022,5.81662474 15.0201652,5.7992059 C15.0246398,5.77725392 15.0298336,5.75556352 15.0358451,5.73400703 C15.0400977,5.71853672 15.0447287,5.70314866 15.0495467,5.68826359 C15.0561225,5.66820232 15.0633157,5.6484208 15.0712255,5.62866398 L15.0712255,5.62866398 L15.0936538,5.57690085 C15.1033766,5.5561086 15.1137939,5.53570605 15.1246712,5.5159379 L15.1246712,5.5159379 L15.1460674,5.47933981 C15.1617187,5.45372505 15.1784901,5.42886931 15.1963346,5.40469339 L15.1963346,5.40469339 L15.22,5.374 L15.216,5.378 L15.2196888,5.37455101 L15.232,5.359 L15.242208,5.34743396 L15.242208,5.34743396 L15.2928932,5.29289322 L18.2928932,2.29289322 L18.3871006,2.20970461 C18.7793918,1.90467972 19.3466228,1.93240926 19.7071068,2.29289322 C20.0976311,2.68341751 20.0976311,3.31658249 19.7071068,3.70710678 L19.7071068,3.70710678 L18.415,5 L22,5 L22.1166211,5.00672773 C22.6139598,5.06449284 23,5.48716416 23,6 C23,6.55228475 22.5522847,7 22,7 L22,7 L18.415,7 L19.7071068,8.29289322 L19.7902954,8.38710056 C20.0953203,8.77939176 20.0675907,9.34662282 19.7071068,9.70710678 C19.3165825,10.0976311 18.6834175,10.0976311 18.2928932,9.70710678 L18.2928932,9.70710678 L15.2928932,6.70710678 L15.2196888,6.62544899 C15.2173721,6.62256244 15.2150711,6.61966276 15.2097046,6.61289944 C15.2051745,6.60707334 15.2007179,6.60120864 15.1963135,6.5951593 C15.1784901,6.57113069 15.1617187,6.54627495 15.1459955,6.52070875 C15.1386069,6.50861311 15.1314988,6.49639444 15.1248758,6.48427695 C15.1137939,6.46429395 15.1033766,6.4438914 15.0936734,6.42322155 L15.0936734,6.42322155 L15.071104,6.37105852 C15.0633157,6.3515792 15.0561225,6.33179768 15.0497381,6.31214252 C15.0447287,6.29685134 15.0400977,6.28146328 15.035721,6.26583961 C15.0298336,6.24443648 15.0246398,6.22274608 15.0202401,6.20072576 C15.0167022,6.18337526 15.0136281,6.16594901 15.0110193,6.14896122 C15.0037612,6.10036209 15,6.05062028 15,6 L15.001,6.059 Z M2.009,13.869 L2.007,13.88 L2.00846437,13.8692981 C2.01005324,13.8571263 2.01186099,13.8450233 2.01388354,13.8329931 L2.01941932,13.8038839 L2.69786578,10.4116516 C2.96663469,9.06780703 4.10861172,8.08479702 5.46194223,8.00521259 L5.63960781,8 L12.3603922,8 C13.7308501,8 14.9187309,8.92701648 15.2621798,10.2384584 L15.3021342,10.4116516 L15.9805807,13.8038839 L15.9861158,13.8338552 L15.9861158,13.8338552 L15.9959318,13.9084099 L15.997,13.944 L15.9974718,13.9265341 C15.9979296,13.9325682 15.998332,13.9385947 15.9986795,13.9446132 L16,14 L16,20 L15.9999633,20.0086633 L16,21 C16,21.5522847 15.5522847,22 15,22 C14.4477153,22 14,21.5522847 14,21 L4,21 C4,21.5522847 3.55228475,22 3,22 C2.44771525,22 2,21.5522847 2,21 L2.00057563,13.9657469 L2.00057563,13.9657469 L2.0043585,13.906016 L2.009,13.869 Z"/>
</svg>
