<svg xmlns="http://www.w3.org/2000/svg" width="24" height="24" viewBox="0 0 24 24">
  <path d="M12.360732,8 C13.7311899,8 14.9190706,8.92701648 15.2625196,10.2384584 L15.302474,10.4116516 L15.9809205,13.8038839 C15.9941998,13.8702808 16.0006051,13.9362003 16.0006789,14.0009803 L16,14 L16,21 C16,21.5522847 15.5522847,22 15,22 C14.4477153,22 14,21.5522847 14,21 L14,20 L4,20 L4,21 C4,21.5522847 3.55228475,22 3,22 C2.44771525,22 2,21.5522847 2,21 L2,14 L2.00492771,13.9029159 L2.00492771,13.9029159 L2.0197591,13.8038839 L2.69820556,10.4116516 C2.96697447,9.06780703 4.1089515,8.08479702 5.46228201,8.00521259 L5.63994759,8 L12.360732,8 Z M6,15 C5.44771525,15 5,15.4477153 5,16 C5,16.5522847 5.44771525,17 6,17 C6.55228475,17 7,16.5522847 7,16 C7,15.4477153 6.55228475,15 6,15 Z M12,15 C11.4477153,15 11,15.4477153 11,16 C11,16.5522847 11.4477153,17 12,17 C12.5522847,17 13,16.5522847 13,16 C13,15.4477153 12.5522847,15 12,15 Z M12.3603922,10 L5.63960781,10 C5.2026502,10 4.82137462,10.2827196 4.68885599,10.6898752 L4.65902713,10.8038839 L4.219,13 L13.78,13 L13.3409729,10.8038839 C13.2630688,10.4143637 12.9650745,10.1157911 12.59205,10.0270869 L12.4780368,10.0068907 L12.3603922,10 Z M19,8 C19.5522847,8 20,8.44771525 20,9 C20,9.55228475 19.5522847,10 19,10 C18.4477153,10 18,9.55228475 18,9 C18,8.44771525 18.4477153,8 19,8 Z M19,2 C19.5522847,2 20,2.44771525 20,3 L20,6 C20,6.55228475 19.5522847,7 19,7 C18.4477153,7 18,6.55228475 18,6 L18,3 C18,2.44771525 18.4477153,2 19,2 Z"/>
</svg>
