<svg xmlns="http://www.w3.org/2000/svg" width="24" height="24" viewBox="0 0 24 24">
  <path d="M12.7071068,14.7071068 L18.2928932,20.2928932 C18.6834175,20.6834175 18.6834175,21.3165825 18.2928932,21.7071068 C18.1053568,21.8946432 17.8510029,22 17.5857864,22 L6.41421356,22 C5.86192881,22 5.41421356,21.5522847 5.41421356,21 C5.41421356,20.7347835 5.5195704,20.4804296 5.70710678,20.2928932 L11.2928932,14.7071068 C11.6834175,14.3165825 12.3165825,14.3165825 12.7071068,14.7071068 Z M17.5857864,2 C17.8510029,2 18.1053568,2.10535684 18.2928932,2.29289322 C18.6834175,2.68341751 18.6834175,3.31658249 18.2928932,3.70710678 L18.2928932,3.70710678 L12.7071068,9.29289322 C12.3165825,9.68341751 11.6834175,9.68341751 11.2928932,9.29289322 L11.2928932,9.29289322 L5.70710678,3.70710678 C5.5195704,3.5195704 5.41421356,3.26521649 5.41421356,3 C5.41421356,2.44771525 5.86192881,2 6.41421356,2 L6.41421356,2 Z"/>
</svg>
