<svg xmlns="http://www.w3.org/2000/svg" width="24" height="24" viewBox="0 0 24 24">
  <path d="M21,16 L21.1166211,16.0067277 C21.6139598,16.0644928 22,16.4871642 22,17 C22,17.5522847 21.5522847,18 21,18 L21,18 L3,18 L2.88337887,17.9932723 C2.38604019,17.9355072 2,17.5128358 2,17 C2,16.4477153 2.44771525,16 3,16 L3,16 L21,16 Z M12.7071068,6.70710678 L18.2928932,12.2928932 C18.6834175,12.6834175 18.6834175,13.3165825 18.2928932,13.7071068 C18.1053568,13.8946432 17.8510029,14 17.5857864,14 L6.41421356,14 C5.86192881,14 5.41421356,13.5522847 5.41421356,13 C5.41421356,12.7347835 5.5195704,12.4804296 5.70710678,12.2928932 L11.2928932,6.70710678 C11.6834175,6.31658249 12.3165825,6.31658249 12.7071068,6.70710678 Z" transform="matrix(1 0 0 -1 0 24)"/>
</svg>
