<svg xmlns="http://www.w3.org/2000/svg" width="24" height="24" viewBox="0 0 24 24">
  <path d="M17.5857864,13 C17.8510029,13 18.1053568,13.1053568 18.2928932,13.2928932 C18.6834175,13.6834175 18.6834175,14.3165825 18.2928932,14.7071068 L18.2928932,14.7071068 L12.7071068,20.2928932 C12.3165825,20.6834175 11.6834175,20.6834175 11.2928932,20.2928932 L11.2928932,20.2928932 L5.70710678,14.7071068 C5.5195704,14.5195704 5.41421356,14.2652165 5.41421356,14 C5.41421356,13.4477153 5.86192881,13 6.41421356,13 L6.41421356,13 Z M17.5857864,3 C17.8510029,3 18.1053568,3.10535684 18.2928932,3.29289322 C18.6834175,3.68341751 18.6834175,4.31658249 18.2928932,4.70710678 L18.2928932,4.70710678 L12.7071068,10.2928932 C12.3165825,10.6834175 11.6834175,10.6834175 11.2928932,10.2928932 L11.2928932,10.2928932 L5.70710678,4.70710678 C5.5195704,4.5195704 5.41421356,4.26521649 5.41421356,4 C5.41421356,3.44771525 5.86192881,3 6.41421356,3 L6.41421356,3 Z"/>
</svg>
