<svg xmlns="http://www.w3.org/2000/svg" width="24" height="24" viewBox="0 0 24 24">
  <path d="M21,16 L21.1166211,16.0067277 C21.6139598,16.0644928 22,16.4871642 22,17 C22,17.5522847 21.5522847,18 21,18 L21,18 L3,18 L2.88337887,17.9932723 C2.38604019,17.9355072 2,17.5128358 2,17 C2,16.4477153 2.44771525,16 3,16 L3,16 L21,16 Z M17.5857864,6 C17.8510029,6 18.1053568,6.10535684 18.2928932,6.29289322 C18.6834175,6.68341751 18.6834175,7.31658249 18.2928932,7.70710678 L18.2928932,7.70710678 L12.7071068,13.2928932 C12.3165825,13.6834175 11.6834175,13.6834175 11.2928932,13.2928932 L11.2928932,13.2928932 L5.70710678,7.70710678 C5.5195704,7.5195704 5.41421356,7.26521649 5.41421356,7 C5.41421356,6.44771525 5.86192881,6 6.41421356,6 L6.41421356,6 Z"/>
</svg>
