<svg xmlns="http://www.w3.org/2000/svg" width="24" height="24" viewBox="0 0 24 24">
  <path d="M17.5857864,10.4142136 C17.8510029,10.4142136 18.1053568,10.5195704 18.2928932,10.7071068 C18.6834175,11.0976311 18.6834175,11.7307961 18.2928932,12.1213203 L18.2928932,12.1213203 L12.7071068,17.7071068 C12.3165825,18.0976311 11.6834175,18.0976311 11.2928932,17.7071068 L11.2928932,17.7071068 L5.70710678,12.1213203 C5.5195704,11.933784 5.41421356,11.6794301 5.41421356,11.4142136 C5.41421356,10.8619288 5.86192881,10.4142136 6.41421356,10.4142136 L6.41421356,10.4142136 Z M21,4.41421356 C21.5522847,4.41421356 22,4.86192881 22,5.41421356 C22,5.9270494 21.6139598,6.34972072 21.1166211,6.40748583 L21,6.41421356 L3,6.41421356 C2.44771525,6.41421356 2,5.96649831 2,5.41421356 C2,4.90137772 2.38604019,4.4787064 2.88337887,4.42094129 L3,4.41421356 L21,4.41421356 Z" transform="matrix(1 0 0 -1 0 22.414)"/>
</svg>
