<svg xmlns="http://www.w3.org/2000/svg" width="24" height="24" viewBox="0 0 24 24">
  <path d="M12.7071068,16.7071068 L16.2928932,20.2928932 C16.6834175,20.6834175 16.6834175,21.3165825 16.2928932,21.7071068 C16.1053568,21.8946432 15.8510029,22 15.5857864,22 L8.41421356,22 C7.86192881,22 7.41421356,21.5522847 7.41421356,21 C7.41421356,20.7347835 7.5195704,20.4804296 7.70710678,20.2928932 L11.2928932,16.7071068 C11.6834175,16.3165825 12.3165825,16.3165825 12.7071068,16.7071068 Z M3,11 L21,11 C21.5522847,11 22,11.4477153 22,12 C22,12.5128358 21.6139598,12.9355072 21.1166211,12.9932723 L21,13 L3,13 C2.44771525,13 2,12.5522847 2,12 C2,11.4871642 2.38604019,11.0644928 2.88337887,11.0067277 L3,11 Z M15.5857864,2 C15.8510029,2 16.1053568,2.10535684 16.2928932,2.29289322 C16.6834175,2.68341751 16.6834175,3.31658249 16.2928932,3.70710678 L16.2928932,3.70710678 L12.7071068,7.29289322 C12.3165825,7.68341751 11.6834175,7.68341751 11.2928932,7.29289322 L11.2928932,7.29289322 L7.70710678,3.70710678 C7.5195704,3.5195704 7.41421356,3.26521649 7.41421356,3 C7.41421356,2.44771525 7.86192881,2 8.41421356,2 L8.41421356,2 Z" transform="rotate(90 12 12)"/>
</svg>
