<svg xmlns="http://www.w3.org/2000/svg" width="24" height="24" viewBox="0 0 24 24">
  <path d="M17.5857864,14 C17.8510029,14 18.1053568,14.1053568 18.2928932,14.2928932 C18.6834175,14.6834175 18.6834175,15.3165825 18.2928932,15.7071068 L18.2928932,15.7071068 L12.7071068,21.2928932 C12.3165825,21.6834175 11.6834175,21.6834175 11.2928932,21.2928932 L11.2928932,21.2928932 L5.70710678,15.7071068 C5.5195704,15.5195704 5.41421356,15.2652165 5.41421356,15 C5.41421356,14.4477153 5.86192881,14 6.41421356,14 L6.41421356,14 Z M12.7071068,2.70710678 L18.2928932,8.29289322 C18.6834175,8.68341751 18.6834175,9.31658249 18.2928932,9.70710678 C18.1053568,9.89464316 17.8510029,10 17.5857864,10 L6.41421356,10 C5.86192881,10 5.41421356,9.55228475 5.41421356,9 C5.41421356,8.73478351 5.5195704,8.4804296 5.70710678,8.29289322 L11.2928932,2.70710678 C11.6834175,2.31658249 12.3165825,2.31658249 12.7071068,2.70710678 Z"/>
</svg>
