<svg xmlns="http://www.w3.org/2000/svg" width="24" height="24" viewBox="0 0 24 24">
  <path d="M12.7071068,10.7071068 L18.2928932,16.2928932 C18.6834175,16.6834175 18.6834175,17.3165825 18.2928932,17.7071068 C18.1053568,17.8946432 17.8510029,18 17.5857864,18 L6.41421356,18 C5.86192881,18 5.41421356,17.5522847 5.41421356,17 C5.41421356,16.7347835 5.5195704,16.4804296 5.70710678,16.2928932 L11.2928932,10.7071068 C11.6834175,10.3165825 12.3165825,10.3165825 12.7071068,10.7071068 Z M21,6 C21.5522847,6 22,6.44771525 22,7 C22,7.51283584 21.6139598,7.93550716 21.1166211,7.99327227 L21,8 L3,8 C2.44771525,8 2,7.55228475 2,7 C2,6.48716416 2.38604019,6.06449284 2.88337887,6.00672773 L3,6 L21,6 Z"/>
</svg>
