<svg xmlns="http://www.w3.org/2000/svg" width="24" height="24" viewBox="0 0 24 24">
  <path d="M17,2 C17.5128358,2 17.9355072,2.38604019 17.9932723,2.88337887 L18,3 L18,21 C18,21.5522847 17.5522847,22 17,22 C16.4871642,22 16.0644928,21.6139598 16.0067277,21.1166211 L16,21 L16,3 C16,2.44771525 16.4477153,2 17,2 Z M13,5.41421356 C13.5522847,5.41421356 14,5.86192881 14,6.41421356 L14,6.41421356 L14,17.5857864 C14,17.8510029 13.8946432,18.1053568 13.7071068,18.2928932 C13.3165825,18.6834175 12.6834175,18.6834175 12.2928932,18.2928932 L12.2928932,18.2928932 L6.70710678,12.7071068 C6.31658249,12.3165825 6.31658249,11.6834175 6.70710678,11.2928932 L6.70710678,11.2928932 L12.2928932,5.70710678 C12.4804296,5.5195704 12.7347835,5.41421356 13,5.41421356 Z" transform="matrix(-1 0 0 1 24 0)"/>
</svg>
