<svg xmlns="http://www.w3.org/2000/svg" width="24" height="24" viewBox="0 0 24 24">
  <path d="M20.5857864,13 C20.8510029,13 21.1053568,13.1053568 21.2928932,13.2928932 C21.6834175,13.6834175 21.6834175,14.3165825 21.2928932,14.7071068 L21.2928932,14.7071068 L14.7071068,21.2928932 C14.5195704,21.4804296 14.2652165,21.5857864 14,21.5857864 C13.4477153,21.5857864 13,21.1380712 13,20.5857864 L13,20.5857864 L13,14 C13,13.4477153 13.4477153,13 14,13 L14,13 Z M10,2.41421356 C10.5522847,2.41421356 11,2.86192881 11,3.41421356 L11,3.41421356 L11,10 C11,10.5522847 10.5522847,11 10,11 L10,11 L3.41421356,11 C3.14899707,11 2.89464316,10.8946432 2.70710678,10.7071068 C2.31658249,10.3165825 2.31658249,9.68341751 2.70710678,9.29289322 L2.70710678,9.29289322 L9.29289322,2.70710678 C9.4804296,2.5195704 9.73478351,2.41421356 10,2.41421356 Z"/>
</svg>
