<svg xmlns="http://www.w3.org/2000/svg" width="24" height="24" viewBox="0 0 24 24">
  <path d="M12.7071068,13.7071068 L18.2928932,19.2928932 C18.6834175,19.6834175 18.6834175,20.3165825 18.2928932,20.7071068 C18.1053568,20.8946432 17.8510029,21 17.5857864,21 L6.41421356,21 C5.86192881,21 5.41421356,20.5522847 5.41421356,20 C5.41421356,19.7347835 5.5195704,19.4804296 5.70710678,19.2928932 L11.2928932,13.7071068 C11.6834175,13.3165825 12.3165825,13.3165825 12.7071068,13.7071068 Z M12.7071068,3.70710678 L18.2928932,9.29289322 C18.6834175,9.68341751 18.6834175,10.3165825 18.2928932,10.7071068 C18.1053568,10.8946432 17.8510029,11 17.5857864,11 L6.41421356,11 C5.86192881,11 5.41421356,10.5522847 5.41421356,10 C5.41421356,9.73478351 5.5195704,9.4804296 5.70710678,9.29289322 L11.2928932,3.70710678 C11.6834175,3.31658249 12.3165825,3.31658249 12.7071068,3.70710678 Z"/>
</svg>
