<svg xmlns="http://www.w3.org/2000/svg" width="24" height="24" viewBox="0 0 24 24">
  <path d="M7,2 C7.55228475,2 8,2.44771525 8,3 L8,3 L8,21 L7.99327227,21.1166211 C7.93550716,21.6139598 7.51283584,22 7,22 C6.44771525,22 6,21.5522847 6,21 L6,21 L6,3 L6.00672773,2.88337887 C6.06449284,2.38604019 6.48716416,2 7,2 Z M11,5.41421356 C11.2652165,5.41421356 11.5195704,5.5195704 11.7071068,5.70710678 L17.2928932,11.2928932 C17.6834175,11.6834175 17.6834175,12.3165825 17.2928932,12.7071068 L11.7071068,18.2928932 C11.3165825,18.6834175 10.6834175,18.6834175 10.2928932,18.2928932 C10.1053568,18.1053568 10,17.8510029 10,17.5857864 L10,6.41421356 C10,5.86192881 10.4477153,5.41421356 11,5.41421356 Z" transform="matrix(-1 0 0 1 24 0)"/>
</svg>
