<svg xmlns="http://www.w3.org/2000/svg" width="24" height="24" viewBox="0 0 24 24">
  <path d="M17.5857864,10 C17.8510029,10 18.1053568,10.1053568 18.2928932,10.2928932 C18.6834175,10.6834175 18.6834175,11.3165825 18.2928932,11.7071068 L18.2928932,11.7071068 L12.7071068,17.2928932 C12.3165825,17.6834175 11.6834175,17.6834175 11.2928932,17.2928932 L11.2928932,17.2928932 L5.70710678,11.7071068 C5.5195704,11.5195704 5.41421356,11.2652165 5.41421356,11 C5.41421356,10.4477153 5.86192881,10 6.41421356,10 L6.41421356,10 Z M21,6 C21.5522847,6 22,6.44771525 22,7 C22,7.51283584 21.6139598,7.93550716 21.1166211,7.99327227 L21,8 L3,8 C2.44771525,8 2,7.55228475 2,7 C2,6.48716416 2.38604019,6.06449284 2.88337887,6.00672773 L3,6 L21,6 Z" transform="matrix(1 0 0 -1 0 24)"/>
</svg>
