<svg xmlns="http://www.w3.org/2000/svg" width="24" height="24" viewBox="0 0 24 24">
  <path d="M21,13 C21.5522847,13 22,13.4477153 22,14 C22,14.5128358 21.6139598,14.9355072 21.1166211,14.9932723 L21,15 L15,15 L15,21 C15,21.5128358 14.6139598,21.9355072 14.1166211,21.9932723 L14,22 C13.4871642,22 13.0644928,21.6139598 13.0067277,21.1166211 L13,21 L13,14 C13,13.4871642 13.3860402,13.0644928 13.8833789,13.0067277 L14,13 L21,13 Z M10,2 C10.5128358,2 10.9355072,2.38604019 10.9932723,2.88337887 L11,3 L11,10 C11,10.5128358 10.6139598,10.9355072 10.1166211,10.9932723 L10,11 L3,11 C2.44771525,11 2,10.5522847 2,10 C2,9.48716416 2.38604019,9.06449284 2.88337887,9.00672773 L3,9 L9,9 L9,3 C9,2.48716416 9.38604019,2.06449284 9.88337887,2.00672773 L10,2 Z"/>
</svg>
