<svg xmlns="http://www.w3.org/2000/svg" width="24" height="24" viewBox="0 0 24 24">
  <path d="M11.3871006,11.2097046 C11.7793918,10.9046797 12.3466228,10.9324093 12.7071068,11.2928932 L12.7071068,11.2928932 L18.7071068,17.2928932 L18.7902954,17.3871006 C19.0953203,17.7793918 19.0675907,18.3466228 18.7071068,18.7071068 L18.7071068,18.7071068 L18.6128994,18.7902954 C18.2206082,19.0953203 17.6533772,19.0675907 17.2928932,18.7071068 L17.2928932,18.7071068 L12,13.415 L6.70710678,18.7071068 L6.61289944,18.7902954 C6.22060824,19.0953203 5.65337718,19.0675907 5.29289322,18.7071068 C4.90236893,18.3165825 4.90236893,17.6834175 5.29289322,17.2928932 L5.29289322,17.2928932 L11.2928932,11.2928932 Z M11.3871006,5.20970461 C11.7793918,4.90467972 12.3466228,4.93240926 12.7071068,5.29289322 L12.7071068,5.29289322 L18.7071068,11.2928932 L18.7902954,11.3871006 C19.0953203,11.7793918 19.0675907,12.3466228 18.7071068,12.7071068 L18.7071068,12.7071068 L18.6128994,12.7902954 C18.2206082,13.0953203 17.6533772,13.0675907 17.2928932,12.7071068 L17.2928932,12.7071068 L12,7.415 L6.70710678,12.7071068 L6.61289944,12.7902954 C6.22060824,13.0953203 5.65337718,13.0675907 5.29289322,12.7071068 C4.90236893,12.3165825 4.90236893,11.6834175 5.29289322,11.2928932 L5.29289322,11.2928932 L11.2928932,5.29289322 Z" transform="rotate(90 12 12)"/>
</svg>
