<svg xmlns="http://www.w3.org/2000/svg" width="24" height="24" viewBox="0 0 24 24">
  <path d="M12.6128994,16.2097046 L12.7071068,16.2928932 L16.7071068,20.2928932 C17.0976311,20.6834175 17.0976311,21.3165825 16.7071068,21.7071068 C16.3466228,22.0675907 15.7793918,22.0953203 15.3871006,21.7902954 L15.2928932,21.7071068 L12,18.415 L8.70710678,21.7071068 C8.34662282,22.0675907 7.77939176,22.0953203 7.38710056,21.7902954 L7.29289322,21.7071068 C6.93240926,21.3466228 6.90467972,20.7793918 7.20970461,20.3871006 L7.29289322,20.2928932 L11.2928932,16.2928932 C11.6533772,15.9324093 12.2206082,15.9046797 12.6128994,16.2097046 Z M3,11 L21,11 C21.5522847,11 22,11.4477153 22,12 C22,12.5128358 21.6139598,12.9355072 21.1166211,12.9932723 L21,13 L3,13 C2.44771525,13 2,12.5522847 2,12 C2,11.4871642 2.38604019,11.0644928 2.88337887,11.0067277 L3,11 Z M7.38710056,2.20970461 C7.77939176,1.90467972 8.34662282,1.93240926 8.70710678,2.29289322 L8.70710678,2.29289322 L12,5.585 L15.2928932,2.29289322 L15.3871006,2.20970461 C15.7793918,1.90467972 16.3466228,1.93240926 16.7071068,2.29289322 C17.0976311,2.68341751 17.0976311,3.31658249 16.7071068,3.70710678 L16.7071068,3.70710678 L12.7071068,7.70710678 L12.6128994,7.79029539 C12.2206082,8.09532028 11.6533772,8.06759074 11.2928932,7.70710678 L11.2928932,7.70710678 L7.29289322,3.70710678 L7.20970461,3.61289944 C6.90467972,3.22060824 6.93240926,2.65337718 7.29289322,2.29289322 L7.29289322,2.29289322 Z"/>
</svg>
