<svg xmlns="http://www.w3.org/2000/svg" width="24" height="24" viewBox="0 0 24 24">
  <path d="M5.38710056,10.2097046 C5.77939176,9.90467972 6.34662282,9.93240926 6.70710678,10.2928932 L6.70710678,10.2928932 L12,15.585 L17.2928932,10.2928932 L17.3871006,10.2097046 C17.7793918,9.90467972 18.3466228,9.93240926 18.7071068,10.2928932 C19.0976311,10.6834175 19.0976311,11.3165825 18.7071068,11.7071068 L18.7071068,11.7071068 L12.7071068,17.7071068 L12.6128994,17.7902954 C12.2206082,18.0953203 11.6533772,18.0675907 11.2928932,17.7071068 L11.2928932,17.7071068 L5.29289322,11.7071068 L5.20970461,11.6128994 C4.90467972,11.2206082 4.93240926,10.6533772 5.29289322,10.2928932 L5.29289322,10.2928932 Z M21,6 C21.5522847,6 22,6.44771525 22,7 C22,7.51283584 21.6139598,7.93550716 21.1166211,7.99327227 L21,8 L3,8 C2.44771525,8 2,7.55228475 2,7 C2,6.48716416 2.38604019,6.06449284 2.88337887,6.00672773 L3,6 L21,6 Z" transform="matrix(0 1 1 0 0 0)"/>
</svg>
