<svg xmlns="http://www.w3.org/2000/svg" width="24" height="24" viewBox="0 0 24 24">
  <path d="M12,1 C18.0751322,1 23,5.92486775 23,12 C23,18.0751322 18.0751322,23 12,23 C5.92486775,23 1,18.0751322 1,12 C1,5.92486775 5.92486775,1 12,1 Z M12,3 C7.02943725,3 3,7.02943725 3,12 C3,16.9705627 7.02943725,21 12,21 C16.9705627,21 21,16.9705627 21,12 C21,7.02943725 16.9705627,3 12,3 Z M17,13 C17.5522847,13 18,13.4477153 18,14 C18,14.5128358 17.6139598,14.9355072 17.1166211,14.9932723 L17,15 L7,15 C6.44771525,15 6,14.5522847 6,14 C6,13.4871642 6.38604019,13.0644928 6.88337887,13.0067277 L7,13 L17,13 Z M17,9 C17.5522847,9 18,9.44771525 18,10 C18,10.5128358 17.6139598,10.9355072 17.1166211,10.9932723 L17,11 L7,11 C6.44771525,11 6,10.5522847 6,10 C6,9.48716416 6.38604019,9.06449284 6.88337887,9.00672773 L7,9 L17,9 Z"/>
</svg>
