<svg xmlns="http://www.w3.org/2000/svg" width="24" height="24" viewBox="0 0 24 24">
  <path d="M12,1 C18.0751322,1 23,5.92486775 23,12 C23,18.0751322 18.0751322,23 12,23 C5.92486775,23 1,18.0751322 1,12 C1,5.92486775 5.92486775,1 12,1 Z M12,11 C11.4477153,11 11,11.4477153 11,12 L11,17 C11,17.5522847 11.4477153,18 12,18 C12.5522847,18 13,17.5522847 13,17 L13,12 C13,11.4477153 12.5522847,11 12,11 Z M12,6 C11.1715729,6 10.5,6.67157288 10.5,7.5 C10.5,8.32842712 11.1715729,9 12,9 C12.8284271,9 13.5,8.32842712 13.5,7.5 C13.5,6.67157288 12.8284271,6 12,6 Z"/>
</svg>
