<svg xmlns="http://www.w3.org/2000/svg" width="24" height="24" viewBox="0 0 24 24">
  <path d="M12,1 C18.0751322,1 23,5.92486775 23,12 C23,18.0751322 18.0751322,23 12,23 C5.92486775,23 1,18.0751322 1,12 C1,5.92486775 5.92486775,1 12,1 Z M17,13 L7,13 L6.88337887,13.0067277 C6.38604019,13.0644928 6,13.4871642 6,14 C6,14.5522847 6.44771525,15 7,15 L7,15 L17,15 L17.1166211,14.9932723 C17.6139598,14.9355072 18,14.5128358 18,14 C18,13.4477153 17.5522847,13 17,13 L17,13 Z M17,9 L7,9 L6.88337887,9.00672773 C6.38604019,9.06449284 6,9.48716416 6,10 C6,10.5522847 6.44771525,11 7,11 L7,11 L17,11 L17.1166211,10.9932723 C17.6139598,10.9355072 18,10.5128358 18,10 C18,9.44771525 17.5522847,9 17,9 L17,9 Z"/>
</svg>
