<svg xmlns="http://www.w3.org/2000/svg" width="24" height="24" viewBox="0 0 24 24">
  <path d="M16,1 C16.5128358,1 16.9355072,1.38604019 16.9932723,1.88337887 L17,2 L17,3 L18,3 C19.5976809,3 20.9036609,4.24891996 20.9949073,5.82372721 L21,6 L21,20 C21,21.5976809 19.75108,22.9036609 18.1762728,22.9949073 L18,23 L6,23 C4.40231912,23 3.09633912,21.75108 3.00509269,20.1762728 L3,20 L3,6 C3,4.40231912 4.24891996,3.09633912 5.82372721,3.00509269 L6,3 L7,3 L7,2 C7,1.48716416 7.38604019,1.06449284 7.88337887,1.00672773 L8,1 L16,1 Z M7,5 L6,5 C5.48716416,5 5.06449284,5.38604019 5.00672773,5.88337887 L5,6 L5,20 C5,20.5128358 5.38604019,20.9355072 5.88337887,20.9932723 L6,21 L18,21 C18.5128358,21 18.9355072,20.6139598 18.9932723,20.1166211 L19,20 L19,6 C19,5.44771525 18.5522847,5 18,5 L17,5 L17,6 C17,6.51283584 16.6139598,6.93550716 16.1166211,6.99327227 L16,7 L8,7 C7.48716416,7 7.06449284,6.61395981 7.00672773,6.11662113 L7,6 L7,5 Z M14.6616216,11.2501621 C15.04389,11.5874577 15.1069484,12.1518544 14.826988,12.5624086 L14.7498379,12.6616216 L11.2204261,16.6616216 C10.8507691,17.0805663 10.2177832,17.1104909 9.81050773,16.7513955 L9.72075038,16.6616216 L8.25016214,14.994955 C7.8847586,14.580831 7.92425435,13.948899 8.33837836,13.5834955 C8.72064668,13.2461999 9.28850282,13.2539073 9.66100314,13.5828086 L9.74983786,13.6717117 L10.47,14.488 L13.2501621,11.3383784 C13.6155657,10.9242544 14.2474976,10.8847586 14.6616216,11.2501621 Z M15,3 L9,3 L9,5 L15,5 L15,3 Z"/>
</svg>
