<svg xmlns="http://www.w3.org/2000/svg" width="24" height="24" viewBox="0 0 24 24">
  <path d="M16,1 C16.5128358,1 16.9355072,1.38604019 16.9932723,1.88337887 L17,2 L17,3 L19,3 C20.1045695,3 21,3.8954305 21,5 L21,21 C21,22.1045695 20.1045695,23 19,23 L5,23 C3.8954305,23 3,22.1045695 3,21 L3,5 C3,3.8954305 3.8954305,3 5,3 L7,3 L7,2 C7,1.48716416 7.38604019,1.06449284 7.88337887,1.00672773 L8,1 L16,1 Z M14.6616216,11.2501621 C14.2474976,10.8847586 13.6155657,10.9242544 13.2501621,11.3383784 L13.2501621,11.3383784 L10.47,14.488 L9.74983786,13.6717117 L9.66100314,13.5828086 C9.28850282,13.2539073 8.72064668,13.2461999 8.33837836,13.5834955 C7.92425435,13.948899 7.8847586,14.580831 8.25016214,14.994955 L8.25016214,14.994955 L9.72075038,16.6616216 L9.81050773,16.7513955 C10.2177832,17.1104909 10.8507691,17.0805663 11.2204261,16.6616216 L11.2204261,16.6616216 L14.7498379,12.6616216 L14.826988,12.5624086 C15.1069484,12.1518544 15.04389,11.5874577 14.6616216,11.2501621 Z M15,3 L9,3 L9,5 L15,5 L15,3 Z"/>
</svg>
