<svg xmlns="http://www.w3.org/2000/svg" width="24" height="24" viewBox="0 0 24 24">
  <path d="M12.5,3 C16.918278,3 20.5,6.581722 20.5,11 C20.5,11.1204206 20.4973322,11.2405319 20.4920144,11.3602705 L20.4920144,11.3602705 L20.472,11.654 L20.5287365,11.6859719 C21.9683651,12.5292172 22.9183208,14.0574067 22.9949844,15.7749408 L22.9949844,15.7749408 L23,16 C23,18.6686219 20.9044736,20.8633628 18.2241536,20.9948042 L18.2241536,20.9948042 L18,21 L6.5,21 C6.38859112,21 6.28147754,20.9817932 6.18145173,20.9482064 L6.18145173,20.9482064 L6.166,20.942 L5.94889404,20.9081606 C3.19270368,20.4215684 1.11197825,18.064907 1.0043751,15.2308104 L1.0043751,15.2308104 L1,15 C1,12.5890868 2.43448394,10.4577805 4.56984355,9.51249345 L4.56984355,9.51249345 L4.646,9.48 L4.66919046,9.36089212 C5.4117318,5.78500472 8.52762508,3.12063681 12.2455902,3.00398632 L12.2455902,3.00398632 Z M12,16 C11.4477153,16 11,16.4477153 11,17 C11,17.5522847 11.4477153,18 12,18 C12.5522847,18 13,17.5522847 13,17 C13,16.4477153 12.5522847,16 12,16 Z M12.1,8 C11,8 10,8.6 9.5,9.5 L9.5,9.5 L9.47382857,9.54710857 L9.42052358,9.6585764 C9.23714337,10.1116 9.40918266,10.6406957 9.84096572,10.8946857 L9.84096572,10.8946857 L9.85,10.9 L9.95782931,10.9547316 C10.3968515,11.1440978 10.9184586,10.9813039 11.1671582,10.5585145 C11.1711627,10.5517069 11.1750832,10.5448503 11.1789188,10.5379462 L11.1789188,10.5379462 L11.2,10.5 L11.2796875,10.3923828 C11.4765625,10.153125 11.75,10 12.1,10 C12.7,10 13.1,10.3 13.1,10.9 C13.1,11.2 13,11.4 12.5,11.7 C11.9,12.1 11,12.7 11,14 L11,14 L11,15 L13,15 L13,14 L13.0027047,13.9477085 C13.0214876,13.7801653 13.1454545,13.6727273 13.6,13.4 C14.2,13 15.1,12.4 15.1,11 C15.1,9.3 13.8,8 12.1,8 Z"/>
</svg>
