<svg xmlns="http://www.w3.org/2000/svg" width="24" height="24" viewBox="0 0 24 24">
  <path d="M12.5,3 C16.918278,3 20.5,6.581722 20.5,11 C20.5,11.1204206 20.4973322,11.2405319 20.4920144,11.3602705 L20.4920144,11.3602705 L20.472,11.654 L20.5287365,11.6859719 C21.9683651,12.5292172 22.9183208,14.0574067 22.9949844,15.7749408 L22.9949844,15.7749408 L23,16 C23,18.6686219 20.9044736,20.8633628 18.2241536,20.9948042 L18.2241536,20.9948042 L18,21 L6.5,21 C6.38859112,21 6.28147754,20.9817932 6.18145173,20.9482064 L6.18145173,20.9482064 L6.166,20.942 L5.94889404,20.9081606 C3.19270368,20.4215684 1.11197825,18.064907 1.0043751,15.2308104 L1.0043751,15.2308104 L1,15 C1,12.5890868 2.43448394,10.4577805 4.56984355,9.51249345 L4.56984355,9.51249345 L4.646,9.48 L4.66919046,9.36089212 C5.4117318,5.78500472 8.52762508,3.12063681 12.2455902,3.00398632 L12.2455902,3.00398632 Z M14.6616216,10.2501621 C14.2474976,9.8847586 13.6155657,9.92425435 13.2501621,10.3383784 L13.2501621,10.3383784 L10.47,13.488 L9.74983786,12.6717117 L9.66100314,12.5828086 C9.28850282,12.2539073 8.72064668,12.2461999 8.33837836,12.5834955 C7.92425435,12.948899 7.8847586,13.580831 8.25016214,13.994955 L8.25016214,13.994955 L9.72075038,15.6616216 L9.81050773,15.7513955 C10.2177832,16.1104909 10.8507691,16.0805663 11.2204261,15.6616216 L11.2204261,15.6616216 L14.7498379,11.6616216 L14.826988,11.5624086 C15.1069484,11.1518544 15.04389,10.5874577 14.6616216,10.2501621 Z"/>
</svg>
