<svg xmlns="http://www.w3.org/2000/svg" width="24" height="24" viewBox="0 0 24 24">
  <path d="M12,1 L12,8 C12,8.55228475 12.4477153,9 13,9 L20,9 L20,21 C20,22.1045695 19.1045695,23 18,23 L6,23 C4.8954305,23 4,22.1045695 4,21 L4,3 C4,1.8954305 4.8954305,1 6,1 L12,1 Z M10,3 L6,3 L6,21 L18,21 L18,11 L13,11 C11.4023191,11 10.0963391,9.75108004 10.0050927,8.17627279 L10,8 L10,3 Z M14.6616216,13.2501621 C15.04389,13.5874577 15.1069484,14.1518544 14.826988,14.5624086 L14.7498379,14.6616216 L11.2204261,18.6616216 C10.8507691,19.0805663 10.2177832,19.1104909 9.81050773,18.7513955 L9.72075038,18.6616216 L8.25016214,16.994955 C7.8847586,16.580831 7.92425435,15.948899 8.33837836,15.5834955 C8.72064668,15.2461999 9.28850282,15.2539073 9.66100314,15.5828086 L9.74983786,15.6717117 L10.47,16.488 L13.2501621,13.3383784 C13.6155657,12.9242544 14.2474976,12.8847586 14.6616216,13.2501621 Z M14,1 L20,7 L15,7 C14.4871642,7 14.0644928,6.61395981 14.0067277,6.11662113 L14,6 L14,1 Z"/>
</svg>
