<svg xmlns="http://www.w3.org/2000/svg" width="24" height="24" viewBox="0 0 24 24">
  <path d="M12,1 L12,8 C12,8.55228475 12.4477153,9 13,9 L20,9 L20,21 C20,22.1045695 19.1045695,23 18,23 L6,23 C4.8954305,23 4,22.1045695 4,21 L4,3 C4,1.8954305 4.8954305,1 6,1 L12,1 Z M12,19 C11.4477153,19 11,19.4477153 11,20 C11,20.5522847 11.4477153,21 12,21 C12.5522847,21 13,20.5522847 13,20 C13,19.4477153 12.5522847,19 12,19 Z M12.1,11 C11,11 10,11.6 9.5,12.5 L9.5,12.5 L9.47382857,12.5471086 L9.42052358,12.6585764 C9.23714337,13.1116 9.40918266,13.6406957 9.84096572,13.8946857 L9.84096572,13.8946857 L9.85,13.9 L9.95782931,13.9547316 C10.3968515,14.1440978 10.9184586,13.9813039 11.1671582,13.5585145 C11.1711627,13.5517069 11.1750832,13.5448503 11.1789188,13.5379462 L11.1789188,13.5379462 L11.2,13.5 L11.2796875,13.3923828 C11.4765625,13.153125 11.75,13 12.1,13 C12.7,13 13.1,13.3 13.1,13.9 C13.1,14.2 13,14.4 12.5,14.7 C11.9,15.1 11,15.7 11,17 L11,17 L11,18 L13,18 L13,17 L13.0027047,16.9477085 C13.0214876,16.7801653 13.1454545,16.6727273 13.6,16.4 C14.2,16 15.1,15.4 15.1,14 C15.1,12.3 13.8,11 12.1,11 Z M14,1 L20,7 L15,7 C14.4871642,7 14.0644928,6.61395981 14.0067277,6.11662113 L14,6 L14,1 Z"/>
</svg>
