<svg xmlns="http://www.w3.org/2000/svg" width="24" height="24" viewBox="0 0 24 24">
  <path d="M12,1 L12,8 C12,8.55228475 12.4477153,9 13,9 L20,9 L20,21 C20,22.1045695 19.1045695,23 18,23 L6,23 C4.8954305,23 4,22.1045695 4,21 L4,3 C4,1.8954305 4.8954305,1 6,1 L12,1 Z M10,3 L6,3 L6,21 L18,21 L18,11 L13,11 C11.4023191,11 10.0963391,9.75108004 10.0050927,8.17627279 L10,8 L10,3 Z M12.6128994,13.7097046 L12.7071068,13.7928932 L15.7071068,16.7928932 C16.0976311,17.1834175 16.0976311,17.8165825 15.7071068,18.2071068 C15.3466228,18.5675907 14.7793918,18.5953203 14.3871006,18.2902954 L14.2928932,18.2071068 L12,15.915 L9.70710678,18.2071068 C9.34662282,18.5675907 8.77939176,18.5953203 8.38710056,18.2902954 L8.29289322,18.2071068 C7.93240926,17.8466228 7.90467972,17.2793918 8.20970461,16.8871006 L8.29289322,16.7928932 L11.2928932,13.7928932 C11.6533772,13.4324093 12.2206082,13.4046797 12.6128994,13.7097046 Z M14,1 L20,7 L15,7 C14.4871642,7 14.0644928,6.61395981 14.0067277,6.11662113 L14,6 L14,1 Z"/>
</svg>
