<svg xmlns="http://www.w3.org/2000/svg" width="24" height="24" viewBox="0 0 24 24">
  <path d="M7.5,16 C8.80625206,16 9.91751442,16.8348501 10.3293257,18.0000889 L21,18 C21.5522847,18 22,18.4477153 22,19 C22,19.5128358 21.6139598,19.9355072 21.1166211,19.9932723 L21,20 L10.3289758,20.0009007 C9.91688515,21.1656226 8.80588222,22 7.5,22 C6.19411778,22 5.08311485,21.1656226 4.67102423,20.0009007 L3,20 C2.44771525,20 2,19.5522847 2,19 C2,18.4871642 2.38604019,18.0644928 2.88337887,18.0067277 L3,18 L4.67067428,18.0000889 C5.08248558,16.8348501 6.19374794,16 7.5,16 Z M7.5,18 C6.94771525,18 6.5,18.4477153 6.5,19 C6.5,19.5522847 6.94771525,20 7.5,20 C8.05228475,20 8.5,19.5522847 8.5,19 C8.5,18.4477153 8.05228475,18 7.5,18 Z M11.5,9 C12.8062521,9 13.9175144,9.8348501 14.3293257,11.0000889 L21,11 C21.5522847,11 22,11.4477153 22,12 C22,12.5128358 21.6139598,12.9355072 21.1166211,12.9932723 L21,13 L14.3289758,13.0009007 C13.9168852,14.1656226 12.8058822,15 11.5,15 C10.1941178,15 9.08311485,14.1656226 8.67102423,13.0009007 L3,13 C2.44771525,13 2,12.5522847 2,12 C2,11.4871642 2.38604019,11.0644928 2.88337887,11.0067277 L3,11 L8.67067428,11.0000889 C9.08248558,9.8348501 10.1937479,9 11.5,9 Z M11.5,11 C10.9477153,11 10.5,11.4477153 10.5,12 C10.5,12.5522847 10.9477153,13 11.5,13 C12.0522847,13 12.5,12.5522847 12.5,12 C12.5,11.4477153 12.0522847,11 11.5,11 Z M16,2 C17.3062521,2 18.4175144,2.8348501 18.8293257,4.00008893 L21,4 L21.1166211,4.00672773 C21.6139598,4.06449284 22,4.48716416 22,5 C22,5.55228475 21.5522847,6 21,6 L21,6 L18.8289758,6.00090072 C18.4168852,7.16562257 17.3058822,8 16,8 C14.6941178,8 13.5831148,7.16562257 13.1710242,6.00090072 L3,6 L2.88337887,5.99327227 C2.38604019,5.93550716 2,5.51283584 2,5 C2,4.44771525 2.44771525,4 3,4 L3,4 L13.1706743,4.00008893 C13.5824856,2.8348501 14.6937479,2 16,2 Z M16,4 C15.4477153,4 15,4.44771525 15,5 C15,5.55228475 15.4477153,6 16,6 C16.5522847,6 17,5.55228475 17,5 C17,4.44771525 16.5522847,4 16,4 Z" transform="rotate(90 12 12)"/>
</svg>
