<svg xmlns="http://www.w3.org/2000/svg" width="24" height="24" viewBox="0 0 24 24">
  <path d="M12,4 C16.9257257,4 20.4002621,5.96587307 22.2459344,9.85735085 C22.8890854,11.2133921 22.8890849,12.7866168 22.2396823,14.1555959 L22.2396823,14.1555959 L22.0944882,14.4504602 C20.2118503,18.1404082 16.7915597,20 12,20 C7.07427433,20 3.5997379,18.0341269 1.75406558,14.1426491 C1.11091457,12.7866079 1.11091511,11.2133832 1.76031773,9.84440411 L1.76031773,9.84440411 L1.90551181,9.54953978 C3.7881497,5.85959182 7.20844031,4 12,4 Z M12,6 C7.9240337,6 5.20850602,7.47641638 3.69354907,10.4454813 L3.69354907,10.4454813 L3.56112141,10.7144039 C3.17523012,11.5280287 3.1752298,12.4719638 3.56112052,13.2855888 C5.05813868,16.4419524 7.81187354,18 12,18 C16.0759663,18 18.791494,16.5235836 20.3064509,13.5545187 L20.3064509,13.5545187 L20.4388786,13.2855961 C20.8247699,12.4719713 20.8247702,11.5280362 20.4388795,10.7144112 C18.9418613,7.55804762 16.1881265,6 12,6 Z M12,8 C14.209139,8 16,9.790861 16,12 C16,14.209139 14.209139,16 12,16 C9.790861,16 8,14.209139 8,12 C8,9.790861 9.790861,8 12,8 Z M12,10 C10.8954305,10 10,10.8954305 10,12 C10,13.1045695 10.8954305,14 12,14 C13.1045695,14 14,13.1045695 14,12 C14,10.8954305 13.1045695,10 12,10 Z"/>
</svg>
