<svg xmlns="http://www.w3.org/2000/svg" width="24" height="24" viewBox="0 0 24 24">
  <path d="M12,4 C16.68496,4 20.0838545,6.05770467 22.1966836,10.173114 C22.7854296,11.3198847 22.7854299,12.6801063 22.1966846,13.8268773 L22.1966846,13.8268773 L22.0316254,14.1393905 C19.9087106,18.0464635 16.5648355,20 12,20 C7.31504004,20 3.9161455,17.9422953 1.80331638,13.826886 C1.21457042,12.6801153 1.21457007,11.3198937 1.80331541,10.1731227 L1.80331541,10.1731227 L1.96837458,9.86060952 C4.09128941,5.95353651 7.43516454,4 12,4 Z M12,9 C10.3431458,9 9,10.3431458 9,12 C9,13.6568542 10.3431458,15 12,15 C13.6568542,15 15,13.6568542 15,12 C15,10.3431458 13.6568542,9 12,9 Z"/>
</svg>
