<svg xmlns="http://www.w3.org/2000/svg" width="24" height="24" viewBox="0 0 24 24">
  <path d="M11,4 L13,6 L20,6 C21.1045695,6 22,6.8954305 22,8 L22,18 C22,19.1045695 21.1045695,20 20,20 L4,20 C2.8954305,20 2,19.1045695 2,18 L2,6 C2,4.8954305 2.8954305,4 4,4 L11,4 Z M8.38710056,10.7097046 L8.29289322,10.7928932 C7.93240926,11.1533772 7.90467972,11.7206082 8.20970461,12.1128994 L8.29289322,12.2071068 L11.2928932,15.2071068 C11.6533772,15.5675907 12.2206082,15.5953203 12.6128994,15.2902954 L12.7071068,15.2071068 L15.7071068,12.2071068 C16.0976311,11.8165825 16.0976311,11.1834175 15.7071068,10.7928932 C15.3466228,10.4324093 14.7793918,10.4046797 14.3871006,10.7097046 L14.2928932,10.7928932 L12,13.085 L9.70710678,10.7928932 C9.34662282,10.4324093 8.77939176,10.4046797 8.38710056,10.7097046 Z"/>
</svg>
