<svg xmlns="http://www.w3.org/2000/svg" width="24" height="24" viewBox="0 0 24 24">
  <path d="M11,4 C11.2652165,4 11.5195704,4.10535684 11.7071068,4.29289322 L11.7071068,4.29289322 L13.415,6 L19,6 C20.5976809,6 21.9036609,7.24891996 21.9949073,8.82372721 L21.9949073,8.82372721 L22,9 L22,17 C22,18.6568542 20.6568542,20 19,20 L19,20 L5,20 C3.34314575,20 2,18.6568542 2,17 L2,17 L2,7 C2,5.34314575 3.34314575,4 5,4 L5,4 Z M10.585,6 L5,6 C4.44771525,6 4,6.44771525 4,7 L4,7 L4,17 C4,17.5522847 4.44771525,18 5,18 L5,18 L12,18 L12,18 C11.4477153,18 11,17.5522847 11,17 C11,16.4477153 11.4477153,16 12,16 C12.5522847,16 13,16.4477153 13,17 C13,17.5522847 12.5522847,18 12,18 L19,18 C19.5522847,18 20,17.5522847 20,17 L20,17 L20,9 C20,8.44771525 19.5522847,8 19,8 L19,8 L13,8 C12.7347835,8 12.4804296,7.89464316 12.2928932,7.70710678 L12.2928932,7.70710678 L10.585,6 Z M12.1,8 C13.8,8 15.1,9.3 15.1,11 C15.1,12.4 14.2,13 13.6,13.4 C13.1454545,13.6727273 13.0214876,13.7801653 13.0027047,13.9477085 L13,14 L13,15 L11,15 L11,14 C11,12.7 11.9,12.1 12.5,11.7 C13,11.4 13.1,11.2 13.1,10.9 C13.1,10.3 12.7,10 12.1,10 C11.75,10 11.4765625,10.153125 11.2796875,10.3923828 L11.2,10.5 L11.1789188,10.5379462 C11.1750832,10.5448503 11.1711627,10.5517069 11.1671582,10.5585145 C10.9184586,10.9813039 10.3968515,11.1440978 9.95782931,10.9547316 L9.85,10.9 L9.84096572,10.8946857 C9.40918266,10.6406957 9.23714337,10.1116 9.42052358,9.6585764 L9.47382857,9.54710857 L9.5,9.5 C10,8.6 11,8 12.1,8 Z"/>
</svg>
