<svg xmlns="http://www.w3.org/2000/svg" width="24" height="24" viewBox="0 0 24 24">
  <path d="M11,4 L13,6 L20,6 C21.1045695,6 22,6.8954305 22,8 L22,18 C22,19.1045695 21.1045695,20 20,20 L4,20 C2.8954305,20 2,19.1045695 2,18 L2,6 C2,4.8954305 2.8954305,4 4,4 L11,4 Z M14.6616216,10.2501621 C14.2474976,9.8847586 13.6155657,9.92425435 13.2501621,10.3383784 L13.2501621,10.3383784 L10.47,13.488 L9.74983786,12.6717117 L9.66100314,12.5828086 C9.28850282,12.2539073 8.72064668,12.2461999 8.33837836,12.5834955 C7.92425435,12.948899 7.8847586,13.580831 8.25016214,13.994955 L8.25016214,13.994955 L9.72075038,15.6616216 L9.81050773,15.7513955 C10.2177832,16.1104909 10.8507691,16.0805663 11.2204261,15.6616216 L11.2204261,15.6616216 L14.7498379,11.6616216 L14.826988,11.5624086 C15.1069484,11.1518544 15.04389,10.5874577 14.6616216,10.2501621 Z"/>
</svg>
