<svg xmlns="http://www.w3.org/2000/svg" width="24" height="24" viewBox="0 0 24 24">
  <path d="M11,4 L13,6 L20,6 C21.1045695,6 22,6.8954305 22,8 L22,18 C22,19.1045695 21.1045695,20 20,20 L4,20 C2.8954305,20 2,19.1045695 2,18 L2,6 C2,4.8954305 2.8954305,4 4,4 L11,4 Z M12.3871006,9.20970461 L12.2928932,9.29289322 L9.29289322,12.2928932 C8.93240926,12.6533772 8.90467972,13.2206082 9.20970461,13.6128994 L9.29289322,13.7071068 L12.2928932,16.7071068 C12.6834175,17.0976311 13.3165825,17.0976311 13.7071068,16.7071068 C14.0675907,16.3466228 14.0953203,15.7793918 13.7902954,15.3871006 L13.7071068,15.2928932 L11.415,13 L13.7071068,10.7071068 C14.0675907,10.3466228 14.0953203,9.77939176 13.7902954,9.38710056 L13.7071068,9.29289322 C13.3466228,8.93240926 12.7793918,8.90467972 12.3871006,9.20970461 Z"/>
</svg>
