<svg xmlns="http://www.w3.org/2000/svg" width="24" height="24" viewBox="0 0 24 24">
  <path d="M11,4 C11.2652165,4 11.5195704,4.10535684 11.7071068,4.29289322 L11.7071068,4.29289322 L13.415,6 L19,6 C20.5976809,6 21.9036609,7.24891996 21.9949073,8.82372721 L21.9949073,8.82372721 L22,9 L22,17 C22,18.6568542 20.6568542,20 19,20 L19,20 L5,20 C3.34314575,20 2,18.6568542 2,17 L2,17 L2,7 C2,5.34314575 3.34314575,4 5,4 L5,4 Z M10.585,6 L5,6 C4.44771525,6 4,6.44771525 4,7 L4,7 L4,17 C4,17.5522847 4.44771525,18 5,18 L5,18 L19,18 C19.5522847,18 20,17.5522847 20,17 L20,17 L20,9 C20,8.44771525 19.5522847,8 19,8 L19,8 L13,8 C12.7347835,8 12.4804296,7.89464316 12.2928932,7.70710678 L12.2928932,7.70710678 L10.585,6 Z M14.6616216,10.2501621 C15.04389,10.5874577 15.1069484,11.1518544 14.826988,11.5624086 L14.7498379,11.6616216 L11.2204261,15.6616216 C10.8507691,16.0805663 10.2177832,16.1104909 9.81050773,15.7513955 L9.72075038,15.6616216 L8.25016214,13.994955 C7.8847586,13.580831 7.92425435,12.948899 8.33837836,12.5834955 C8.72064668,12.2461999 9.28850282,12.2539073 9.66100314,12.5828086 L9.74983786,12.6717117 L10.47,13.488 L13.2501621,10.3383784 C13.6155657,9.92425435 14.2474976,9.8847586 14.6616216,10.2501621 Z"/>
</svg>
