<svg xmlns="http://www.w3.org/2000/svg" width="24" height="24" viewBox="0 0 24 24">
  <path d="M11,4 L13,6 L20,6 C21.1045695,6 22,6.8954305 22,8 L22,18 C22,19.1045695 21.1045695,20 20,20 L4,20 C2.8954305,20 2,19.1045695 2,18 L2,6 C2,4.8954305 2.8954305,4 4,4 L11,4 Z M11.6128994,9.20970461 C11.2206082,8.90467972 10.6533772,8.93240926 10.2928932,9.29289322 L10.2928932,9.29289322 L10.2097046,9.38710056 C9.90467972,9.77939176 9.93240926,10.3466228 10.2928932,10.7071068 L10.2928932,10.7071068 L12.585,13 L10.2928932,15.2928932 L10.2097046,15.3871006 C9.90467972,15.7793918 9.93240926,16.3466228 10.2928932,16.7071068 C10.6834175,17.0976311 11.3165825,17.0976311 11.7071068,16.7071068 L11.7071068,16.7071068 L14.7071068,13.7071068 L14.7902954,13.6128994 C15.0953203,13.2206082 15.0675907,12.6533772 14.7071068,12.2928932 L14.7071068,12.2928932 L11.7071068,9.29289322 Z"/>
</svg>
