<svg xmlns="http://www.w3.org/2000/svg" width="24" height="24" viewBox="0 0 24 24">
  <path d="M11,4 L13,6 L20,6 C21.1045695,6 22,6.8954305 22,8 L22,18 C22,19.1045695 21.1045695,20 20,20 L4,20 C2.8954305,20 2,19.1045695 2,18 L2,6 C2,4.8954305 2.8954305,4 4,4 L11,4 Z M12,16 C11.4477153,16 11,16.4477153 11,17 C11,17.5522847 11.4477153,18 12,18 C12.5522847,18 13,17.5522847 13,17 C13,16.4477153 12.5522847,16 12,16 Z M12.1,8 C11,8 10,8.6 9.5,9.5 L9.5,9.5 L9.47382857,9.54710857 L9.42052358,9.6585764 C9.23714337,10.1116 9.40918266,10.6406957 9.84096572,10.8946857 L9.84096572,10.8946857 L9.85,10.9 L9.95782931,10.9547316 C10.3968515,11.1440978 10.9184586,10.9813039 11.1671582,10.5585145 C11.1711627,10.5517069 11.1750832,10.5448503 11.1789188,10.5379462 L11.1789188,10.5379462 L11.2,10.5 L11.2796875,10.3923828 C11.4765625,10.153125 11.75,10 12.1,10 C12.7,10 13.1,10.3 13.1,10.9 C13.1,11.2 13,11.4 12.5,11.7 C11.9,12.1 11,12.7 11,14 L11,14 L11,15 L13,15 L13,14 L13.0027047,13.9477085 C13.0214876,13.7801653 13.1454545,13.6727273 13.6,13.4 C14.2,13 15.1,12.4 15.1,11 C15.1,9.3 13.8,8 12.1,8 Z"/>
</svg>
