<svg xmlns="http://www.w3.org/2000/svg" width="24" height="24" viewBox="0 0 24 24">
  <path d="M10.5542438,0.653894716 L2.55424375,5.05389472 C1.59559898,5.58114934 1,6.58846875 1,7.68254244 L1,16.3174576 C1,17.4115312 1.59559898,18.4188507 2.55424375,18.9461053 L10.5542438,23.3461053 C11.4544917,23.8412416 12.5455083,23.8412416 13.4457562,23.3461053 L21.4457562,18.9461053 C22.404401,18.4188507 23,17.4115312 23,16.3174576 L23,7.68254244 C23,6.58846875 22.404401,5.58114934 21.4457562,5.05389472 L13.4457562,0.653894716 C12.5455083,0.158758351 11.4544917,0.158758351 10.5542438,0.653894716 Z M12.4819187,2.40632653 L20.4819187,6.80632653 C20.801467,6.98207807 21,7.31785121 21,7.68254244 L21,16.3174576 C21,16.6821488 20.801467,17.0179219 20.4819187,17.1936735 L12.4819187,21.5936735 C12.1818361,21.7587189 11.8181639,21.7587189 11.5180813,21.5936735 L3.51808125,17.1936735 C3.19853299,17.0179219 3,16.6821488 3,16.3174576 L3,7.68254244 C3,7.31785121 3.19853299,6.98207807 3.51808125,6.80632653 L11.5180813,2.40632653 C11.8181639,2.24128108 12.1818361,2.24128108 12.4819187,2.40632653 Z" transform="rotate(90 12 12)"/>
</svg>
