<svg xmlns="http://www.w3.org/2000/svg" width="24" height="24" viewBox="0 0 24 24">
  <path d="M19,2 C20.5976809,2 21.9036609,3.24891996 21.9949073,4.82372721 L22,5 L22,19 C22,20.5976809 20.75108,21.9036609 19.1762728,21.9949073 L19,22 L5,22 C3.40231912,22 2.09633912,20.75108 2.00509269,19.1762728 L2,19 L2,5 C2,3.40231912 3.24891996,2.09633912 4.82372721,2.00509269 L5,2 L19,2 Z M19,4 L5,4 C4.48716416,4 4.06449284,4.38604019 4.00672773,4.88337887 L4,5 L4,14 L6,14 C7.1045695,14 8,14.8954305 8,16 C8,17.1045695 8.8954305,18 10,18 L14,18 C15.1045695,18 16,17.1045695 16,16 C16,14.8954305 16.8954305,14 18,14 L20,14 L20,5 C20,4.48716416 19.6139598,4.06449284 19.1166211,4.00672773 L19,4 Z M12.3871006,6.20970461 C12.7793918,5.90467972 13.3466228,5.93240926 13.7071068,6.29289322 L13.7071068,6.29289322 L13.7902954,6.38710056 C14.0953203,6.77939176 14.0675907,7.34662282 13.7071068,7.70710678 L13.7071068,7.70710678 L11.415,10 L13.7071068,12.2928932 L13.7902954,12.3871006 C14.0953203,12.7793918 14.0675907,13.3466228 13.7071068,13.7071068 C13.3165825,14.0976311 12.6834175,14.0976311 12.2928932,13.7071068 L12.2928932,13.7071068 L9.29289322,10.7071068 L9.20970461,10.6128994 C8.90467972,10.2206082 8.93240926,9.65337718 9.29289322,9.29289322 L9.29289322,9.29289322 L12.2928932,6.29289322 Z"/>
</svg>
