<svg xmlns="http://www.w3.org/2000/svg" width="24" height="24" viewBox="0 0 24 24">
  <path d="M19,2 C20.5976809,2 21.9036609,3.24891996 21.9949073,4.82372721 L22,5 L22,19 C22,20.5976809 20.75108,21.9036609 19.1762728,21.9949073 L19,22 L5,22 C3.40231912,22 2.09633912,20.75108 2.00509269,19.1762728 L2,19 L2,5 C2,3.40231912 3.24891996,2.09633912 4.82372721,2.00509269 L5,2 L19,2 Z M19,4 L5,4 C4.48716416,4 4.06449284,4.38604019 4.00672773,4.88337887 L4,5 L4,14 L6,14 C7.1045695,14 8,14.8954305 8,16 C8,17.1045695 8.8954305,18 10,18 L14,18 C15.1045695,18 16,17.1045695 16,16 C16,14.8954305 16.8954305,14 18,14 L20,14 L20,5 C20,4.48716416 19.6139598,4.06449284 19.1166211,4.00672773 L19,4 Z M12,13 C12.5522847,13 13,13.4477153 13,14 C13,14.5522847 12.5522847,15 12,15 C11.4477153,15 11,14.5522847 11,14 C11,13.4477153 11.4477153,13 12,13 Z M12.1,5 C13.8,5 15.1,6.3 15.1,8 C15.1,9.4 14.2,10 13.6,10.4 C13.1454545,10.6727273 13.0214876,10.7801653 13.0027047,10.9477085 L13,11 L13,12 L11,12 L11,11 C11,9.7 11.9,9.1 12.5,8.7 C13,8.4 13.1,8.2 13.1,7.9 C13.1,7.3 12.7,7 12.1,7 C11.75,7 11.4765625,7.153125 11.2796875,7.39238281 L11.2,7.5 L11.1789188,7.53794618 C11.1750832,7.54485031 11.1711627,7.55170695 11.1671582,7.55851454 C10.9184586,7.98130389 10.3968515,8.1440978 9.95782931,7.95473156 L9.85,7.9 L9.84096572,7.89468572 C9.40918266,7.64069568 9.23714337,7.11159999 9.42052358,6.6585764 L9.47382857,6.54710857 L9.5,6.5 C10,5.6 11,5 12.1,5 Z"/>
</svg>
