<svg xmlns="http://www.w3.org/2000/svg" width="24" height="24" viewBox="0 0 24 24">
  <g fill="none" fill-rule="evenodd">
    <path fill="#000" fill-rule="nonzero" d="M15,9 C15.5522847,9 16,9.44771525 16,10 C16,10.5128358 15.6139598,10.9355072 15.1166211,10.9932723 L15,11 L9,11 C8.44771525,11 8,10.5522847 8,10 C8,9.48716416 8.38604019,9.06449284 8.88337887,9.00672773 L9,9 L15,9 Z"/>
    <path fill="#000" fill-rule="nonzero" d="M19,2 C20.6568542,2 22,3.34314575 22,5 L22,5 L22,19 C22,20.6568542 20.6568542,22 19,22 L19,22 L5,22 C3.34314575,22 2,20.6568542 2,19 L2,19 L2,5 C2,3.34314575 3.34314575,2 5,2 L5,2 Z M4,14 L6,14 C7.1045695,14 8,14.8954305 8,16 C8,17.1045695 8.8954305,18 10,18 L14,18 C15.1045695,18 16,17.1045695 16,16 C16,14.8954305 16.8954305,14 18,14 L20,14 L20,5 C20,4.44771525 19.5522847,4 19,4 L19,4 L5,4 C4.44771525,4 4,4.44771525 4,5 L4,5 L4,14 Z"/>
  </g>
</svg>
