<svg xmlns="http://www.w3.org/2000/svg" width="24" height="24" viewBox="0 0 24 24">
  <g fill="none" fill-rule="evenodd">
    <path fill="#000" fill-rule="nonzero" d="M10.6128994,7.20970461 L10.7071068,7.29289322 L12,8.585 L13.2928932,7.29289322 C13.6834175,6.90236893 14.3165825,6.90236893 14.7071068,7.29289322 C15.0675907,7.65337718 15.0953203,8.22060824 14.7902954,8.61289944 L14.7071068,8.70710678 L13.415,10 L14.7071068,11.2928932 C15.0976311,11.6834175 15.0976311,12.3165825 14.7071068,12.7071068 C14.3466228,13.0675907 13.7793918,13.0953203 13.3871006,12.7902954 L13.2928932,12.7071068 L12,11.415 L10.7071068,12.7071068 C10.3165825,13.0976311 9.68341751,13.0976311 9.29289322,12.7071068 C8.93240926,12.3466228 8.90467972,11.7793918 9.20970461,11.3871006 L9.29289322,11.2928932 L10.585,10 L9.29289322,8.70710678 C8.90236893,8.31658249 8.90236893,7.68341751 9.29289322,7.29289322 C9.65337718,6.93240926 10.2206082,6.90467972 10.6128994,7.20970461 Z"/>
    <path fill="#000" fill-rule="nonzero" d="M19,2 C20.6568542,2 22,3.34314575 22,5 L22,5 L22,19 C22,20.6568542 20.6568542,22 19,22 L19,22 L5,22 C3.34314575,22 2,20.6568542 2,19 L2,19 L2,5 C2,3.34314575 3.34314575,2 5,2 L5,2 Z M4,14 L6,14 C7.1045695,14 8,14.8954305 8,16 C8,17.1045695 8.8954305,18 10,18 L14,18 C15.1045695,18 16,17.1045695 16,16 C16,14.8954305 16.8954305,14 18,14 L20,14 L20,5 C20,4.44771525 19.5522847,4 19,4 L19,4 L5,4 C4.44771525,4 4,4.44771525 4,5 L4,5 L4,14 Z"/>
  </g>
</svg>
