<svg xmlns="http://www.w3.org/2000/svg" width="24" height="24" viewBox="0 0 24 24">
  <g fill="none" fill-rule="evenodd">
    <path fill="#000" fill-rule="nonzero" d="M13.2501621,7.33837836 C13.6155657,6.92425435 14.2474976,6.8847586 14.6616216,7.25016214 C15.04389,7.58745772 15.1069484,8.15185442 14.826988,8.5624086 L14.7498379,8.66162164 L11.2204261,12.6616216 C10.8507691,13.0805663 10.2177832,13.1104909 9.81050773,12.7513955 L9.72075038,12.6616216 L8.25016214,10.994955 C7.8847586,10.580831 7.92425435,9.94889902 8.33837836,9.58349548 C8.72064668,9.2461999 9.28850282,9.25390727 9.66100314,9.5828086 L9.74983786,9.6717117 L10.47,10.488 L13.2501621,7.33837836 Z"/>
    <path fill="#000" fill-rule="nonzero" d="M19,2 C20.6568542,2 22,3.34314575 22,5 L22,5 L22,19 C22,20.6568542 20.6568542,22 19,22 L19,22 L5,22 C3.34314575,22 2,20.6568542 2,19 L2,19 L2,5 C2,3.34314575 3.34314575,2 5,2 L5,2 Z M4,14 L6,14 C7.1045695,14 8,14.8954305 8,16 C8,17.1045695 8.8954305,18 10,18 L14,18 C15.1045695,18 16,17.1045695 16,16 C16,14.8954305 16.8954305,14 18,14 L20,14 L20,5 C20,4.44771525 19.5522847,4 19,4 L19,4 L5,4 C4.44771525,4 4,4.44771525 4,5 L4,5 L4,14 Z"/>
  </g>
</svg>
