<svg xmlns="http://www.w3.org/2000/svg" width="24" height="24" viewBox="0 0 24 24">
  <path d="M6,16 L6.11662113,16.0067277 C6.61395981,16.0644928 7,16.4871642 7,17 C7,18.5976809 8.24891996,19.9036609 9.82372721,19.9949073 L10,20 L14,20 L14.1762728,19.9949073 C15.6927538,19.9070404 16.9070404,18.6927538 16.9949073,17.1762728 L17,17 L17.0067277,16.8833789 C17.0600494,16.424297 17.424297,16.0600494 17.8833789,16.0067277 L18,16 L22,16 L22,20 C22,21.1045695 21.1045695,22 20,22 L4,22 C2.8954305,22 2,21.1045695 2,20 L2,16 L6,16 Z M20,2 C21.1045695,2 22,2.8954305 22,4 L22,14 L18,14 L17.8237272,14.0050927 C16.24892,14.0963391 15,15.4023191 15,17 C15,17.5128358 14.6139598,17.9355072 14.1166211,17.9932723 L14,18 L10,18 L9.88337887,17.9932723 C9.42429701,17.9399506 9.06004937,17.575703 9.00672773,17.1166211 L9,17 L8.99490731,16.8237272 C8.90704038,15.3072462 7.69275384,14.0929596 6.17627279,14.0050927 L6,14 L2,14 L2,4 C2,2.8954305 2.8954305,2 4,2 L20,2 Z M12.3871006,5.20970461 L12.2928932,5.29289322 L9.29289322,8.29289322 C8.93240926,8.65337718 8.90467972,9.22060824 9.20970461,9.61289944 L9.29289322,9.70710678 L12.2928932,12.7071068 C12.6834175,13.0976311 13.3165825,13.0976311 13.7071068,12.7071068 C14.0675907,12.3466228 14.0953203,11.7793918 13.7902954,11.3871006 L13.7071068,11.2928932 L11.415,9 L13.7071068,6.70710678 C14.0675907,6.34662282 14.0953203,5.77939176 13.7902954,5.38710056 L13.7071068,5.29289322 C13.3466228,4.93240926 12.7793918,4.90467972 12.3871006,5.20970461 Z"/>
</svg>
