<svg xmlns="http://www.w3.org/2000/svg" width="24" height="24" viewBox="0 0 24 24">
  <path d="M12,7.99992368 C12.9,7.99992368 13,8.14736328 13,9.04736328 L13,9.04736328 L13,20 L15,20 C15.5522848,20 16,20.4477152 16,21 C16,21.5522847 15.5522848,22 15,22 L15,22 L8.99999998,22 C8.44771524,22 8,21.5522847 8,21 C8,20.4477152 8.44771524,20 8.99999998,20 L8.99999998,20 L11,20 L11,10 L9,10 C8.44771525,10 8,9.55228475 8,9 L8,9 L8.00672773,8.88330255 C8.06449284,8.38596387 8.48716416,7.99992368 9,7.99992368 L9,7.99992368 Z M12,2 C13.1045695,2 14,2.8954305 14,4 C14,5.1045695 13.1045695,6 12,6 C10.8954305,6 10,5.1045695 10,4 C10,2.8954305 10.8954305,2 12,2 Z"/>
</svg>
