<svg xmlns="http://www.w3.org/2000/svg" width="24" height="24" viewBox="0 0 24 24">
  <g fill="none" fill-rule="evenodd">
    <path fill="#000" fill-rule="nonzero" d="M9.37135227,3.70432092 L1.75389472,17.5542438 C1.5102805,17.9971787 1.38254244,18.4944911 1.38254244,19 C1.38254244,20.6568542 2.72568819,22 4.38254244,22 L19.6174576,22 C20.1229665,22 20.6202789,21.8722619 21.0632138,21.6286477 C22.5149759,20.8301786 23.0445744,19.0060058 22.2461053,17.5542438 L14.6286477,3.70432092 C14.3544842,3.20584177 13.9442354,2.79559297 13.4457562,2.52142944 C11.9939942,1.72296031 10.1698214,2.25255887 9.37135227,3.70432092 Z M12.4819187,4.27386126 C12.6480785,4.3652491 12.7848281,4.5019987 12.8762159,4.66815842 L20.4936735,18.5180813 C20.7598298,19.0020019 20.583297,19.6100595 20.0993763,19.8762159 C19.9517313,19.9574206 19.7859605,20 19.6174576,20 L4.38254244,20 C3.83025769,20 3.38254244,19.5522847 3.38254244,19 C3.38254244,18.831497 3.42512179,18.6657262 3.50632653,18.5180813 L11.1237841,4.66815842 C11.3709293,4.2188035 11.9128771,4.03449217 12.3764912,4.2235543 L12.4819187,4.27386126 Z"/>
    <path fill="#000" fill-rule="nonzero" d="M12,16 C12.8284271,16 13.5,16.6715729 13.5,17.5 C13.5,18.3284271 12.8284271,19 12,19 C11.1715729,19 10.5,18.3284271 10.5,17.5 C10.5,16.6715729 11.1715729,16 12,16 Z M12,7 C12.5522847,7 13,7.44771525 13,8 L13,13 C13,13.5522847 12.5522847,14 12,14 C11.4477153,14 11,13.5522847 11,13 L11,8 C11,7.44771525 11.4477153,7 12,7 Z" transform="matrix(1 0 0 -1 0 26)"/>
  </g>
</svg>
