<svg xmlns="http://www.w3.org/2000/svg" width="24" height="24" viewBox="0 0 24 24">
  <path d="M14.1715729,4 C14.9672223,4 15.7302841,4.31607052 16.2928932,4.87867966 L16.2928932,4.87867966 L21.2928932,9.87867966 C22.4644661,11.0502525 22.4644661,12.9497475 21.2928932,14.1213203 L21.2928932,14.1213203 L16.2928932,19.1213203 C15.7302841,19.6839295 14.9672223,20 14.1715729,20 L14.1715729,20 L5,20 C3.34314575,20 2,18.6568542 2,17 L2,17 L2,7 C2,5.34314575 3.34314575,4 5,4 L5,4 Z M14.1715729,6 L5,6 C4.44771525,6 4,6.44771525 4,7 L4,7 L4,17 C4,17.5522847 4.44771525,18 5,18 L5,18 L14.1715729,18 C14.4367894,18 14.6911433,17.8946432 14.8786797,17.7071068 L14.8786797,17.7071068 L19.8786797,12.7071068 C20.2692039,12.3165825 20.2692039,11.6834175 19.8786797,11.2928932 L19.8786797,11.2928932 L14.8786797,6.29289322 C14.6911433,6.10535684 14.4367894,6 14.1715729,6 L14.1715729,6 Z M10,15 C10.5522847,15 11,15.4477153 11,16 C11,16.5522847 10.5522847,17 10,17 C9.44771525,17 9,16.5522847 9,16 C9,15.4477153 9.44771525,15 10,15 Z M10.1,7 C11.8,7 13.1,8.3 13.1,10 C13.1,11.4 12.2,12 11.6,12.4 C11.1454545,12.6727273 11.0214876,12.7801653 11.0027047,12.9477085 L11,13 L11,14 L9,14 L9,13 C9,11.7 9.9,11.1 10.5,10.7 C11,10.4 11.1,10.2 11.1,9.9 C11.1,9.3 10.7,9 10.1,9 C9.75,9 9.4765625,9.153125 9.2796875,9.39238281 L9.2,9.5 L9.17891879,9.53794618 C9.17508316,9.54485031 9.17116267,9.55170695 9.1671582,9.55851454 C8.91845858,9.98130389 8.3968515,10.1440978 7.95782931,9.95473156 L7.85,9.9 L7.84096572,9.89468572 C7.40918266,9.64069568 7.23714337,9.11159999 7.42052358,8.6585764 L7.47382857,8.54710857 L7.5,8.5 C8,7.6 9,7 10.1,7 Z"/>
</svg>
