<svg xmlns="http://www.w3.org/2000/svg" width="24" height="24" viewBox="0 0 24 24">
  <path d="M15.0924635,4 C15.6691887,4 16.2178408,4.24896086 16.5976169,4.68299078 L21.8476169,10.6829908 C22.5074124,11.4370428 22.5074124,12.5629572 21.8476169,13.3170092 L16.5976169,19.3170092 C16.2178408,19.7510391 15.6691887,20 15.0924635,20 L4,20 C2.8954305,20 2,19.1045695 2,18 L2,6 C2,4.8954305 2.8954305,4 4,4 L15.0924635,4 Z M10,15 C9.44771525,15 9,15.4477153 9,16 C9,16.5522847 9.44771525,17 10,17 C10.5522847,17 11,16.5522847 11,16 C11,15.4477153 10.5522847,15 10,15 Z M10.1,7 C9,7 8,7.6 7.5,8.5 L7.5,8.5 L7.47382857,8.54710857 L7.42052358,8.6585764 C7.23714337,9.11159999 7.40918266,9.64069568 7.84096572,9.89468572 L7.84096572,9.89468572 L7.85,9.9 L7.95782931,9.95473156 C8.3968515,10.1440978 8.91845858,9.98130389 9.1671582,9.55851454 C9.17116267,9.55170695 9.17508316,9.54485031 9.17891879,9.53794618 L9.17891879,9.53794618 L9.2,9.5 L9.2796875,9.39238281 C9.4765625,9.153125 9.75,9 10.1,9 C10.7,9 11.1,9.3 11.1,9.9 C11.1,10.2 11,10.4 10.5,10.7 C9.9,11.1 9,11.7 9,13 L9,13 L9,14 L11,14 L11,13 L11.0027047,12.9477085 C11.0214876,12.7801653 11.1454545,12.6727273 11.6,12.4 C12.2,12 13.1,11.4 13.1,10 C13.1,8.3 11.8,7 10.1,7 Z"/>
</svg>
