<svg xmlns="http://www.w3.org/2000/svg" width="24" height="24" viewBox="0 0 24 24">
  <g fill="none" fill-rule="evenodd">
    <path fill="#000" fill-rule="nonzero" d="M3.2260427,13.3667622 L3.15932752,13.4577046 C2.73484126,14.1067865 3.19472012,15 4,15 L10,15 L10,21 C10,21.9397844 11.1788503,22.3605908 11.7739573,21.6332378 L20.7739573,10.6332378 L20.8406725,10.5422954 C21.2651587,9.89321349 20.8052799,9 20,9 L14,9 L14,3 C14,2.06021557 12.8211497,1.63940919 12.2260427,2.36676221 L3.2260427,13.3667622 Z M12,5.8 L12,10 L12.0067277,10.1166211 C12.0644928,10.6139598 12.4871642,11 13,11 L17.889,11 L12,18.198 L12,14 L11.9932723,13.8833789 C11.9355072,13.3860402 11.5128358,13 11,13 L6.109,13 L12,5.8 Z"/>
    <path fill="#000" fill-rule="nonzero" d="M3.2260427,13.3667622 L3.15932752,13.4577046 C2.73484126,14.1067865 3.19472012,15 4,15 L10,15 L10,21 C10,21.9397844 11.1788503,22.3605908 11.7739573,21.6332378 L20.7739573,10.6332378 L20.8406725,10.5422954 C21.2651587,9.89321349 20.8052799,9 20,9 L14,9 L14,3 C14,2.06021557 12.8211497,1.63940919 12.2260427,2.36676221 L3.2260427,13.3667622 Z M12,5.8 L12,10 L12.0067277,10.1166211 C12.0644928,10.6139598 12.4871642,11 13,11 L17.889,11 L12,18.198 L12,14 L11.9932723,13.8833789 C11.9355072,13.3860402 11.5128358,13 11,13 L6.109,13 L12,5.8 Z"/>
  </g>
</svg>
