<svg xmlns="http://www.w3.org/2000/svg" width="24" height="24" viewBox="0 0 24 24">
  <path d="M20,2 C21.1045695,2 22,2.8954305 22,4 L22,20 C22,21.1045695 21.1045695,22 20,22 L4,22 C2.8954305,22 2,21.1045695 2,20 L2,4 C2,2.8954305 2.8954305,2 4,2 L20,2 Z M19,16 L5,16 L4.88337887,16.0067277 C4.38604019,16.0644928 4,16.4871642 4,17 C4,17.5522847 4.44771525,18 5,18 L5,18 L19,18 L19.1166211,17.9932723 C19.6139598,17.9355072 20,17.5128358 20,17 C20,16.4477153 19.5522847,16 19,16 L19,16 Z M19,11 L5,11 L4.88337887,11.0067277 C4.38604019,11.0644928 4,11.4871642 4,12 C4,12.5522847 4.44771525,13 5,13 L5,13 L19,13 L19.1166211,12.9932723 C19.6139598,12.9355072 20,12.5128358 20,12 C20,11.4477153 19.5522847,11 19,11 L19,11 Z M19,6 L5,6 L4.88337887,6.00672773 C4.38604019,6.06449284 4,6.48716416 4,7 C4,7.55228475 4.44771525,8 5,8 L5,8 L19,8 L19.1166211,7.99327227 C19.6139598,7.93550716 20,7.51283584 20,7 C20,6.44771525 19.5522847,6 19,6 L19,6 Z"/>
</svg>
