<svg xmlns="http://www.w3.org/2000/svg" width="24" height="24" viewBox="0 0 24 24">
  <path d="M12,2 C6.4771525,2 2,6.4771525 2,12 C2,17.5228475 6.4771525,22 12,22 C13.7428198,22 15.4231571,21.552739 16.9087204,20.7143231 C17.7158487,20.2587995 17.522668,19.0453614 16.6139872,18.8629965 C13.3710234,18.2121597 11,15.3496725 11,12 C11,8.65017019 13.3711536,5.78789674 16.614507,5.13762359 C17.5232628,4.95542343 17.7166352,3.74194227 16.9095198,3.28631212 C15.4234065,2.44737625 13.7430567,2 12,2 Z M12.3478827,4.00741831 C12.6945194,4.02222951 13.0372453,4.05914307 13.374502,4.11747247 L13.581,4.157 L13.5006777,4.20286245 C10.7882063,5.76999766 9,8.70074768 9,12 L9.00412044,12.2740464 C9.10004798,15.4608109 10.8633658,18.2733499 13.500152,19.7972813 L13.581,19.842 L13.3743861,19.8825638 C12.9247446,19.9603084 12.4653751,20 12,20 C7.581722,20 4,16.418278 4,12 C4,7.581722 7.581722,4 12,4 L12.3478827,4.00741831 Z"/>
</svg>
