<svg xmlns="http://www.w3.org/2000/svg" width="24" height="24" viewBox="0 0 24 24">
  <path d="M19.7071068,4.29289322 C20.0675907,4.65337718 20.0953203,5.22060824 19.7902954,5.61289944 L19.7071068,5.70710678 L5.70710678,19.7071068 C5.31658249,20.0976311 4.68341751,20.0976311 4.29289322,19.7071068 C3.93240926,19.3466228 3.90467972,18.7793918 4.20970461,18.3871006 L4.29289322,18.2928932 L18.2928932,4.29289322 C18.6834175,3.90236893 19.3165825,3.90236893 19.7071068,4.29289322 Z M16.5857864,16.5857864 C17.366835,15.8047379 18.633165,15.8047379 19.4142136,16.5857864 C20.1952621,17.366835 20.1952621,18.633165 19.4142136,19.4142136 C18.633165,20.1952621 17.366835,20.1952621 16.5857864,19.4142136 C15.8047379,18.633165 15.8047379,17.366835 16.5857864,16.5857864 Z M4.58578644,4.58578644 C5.36683502,3.80473785 6.63316498,3.80473785 7.41421356,4.58578644 C8.19526215,5.36683502 8.19526215,6.63316498 7.41421356,7.41421356 C6.63316498,8.19526215 5.36683502,8.19526215 4.58578644,7.41421356 C3.80473785,6.63316498 3.80473785,5.36683502 4.58578644,4.58578644 Z"/>
</svg>
