<svg xmlns="http://www.w3.org/2000/svg" width="24" height="24" viewBox="0 0 24 24">
  <path d="M11.7777778,16 C15.0355351,16 17.852067,17.5939369 17.9943627,19.5914822 L18,19.75 L18,20.5 C18,21.2848257 17.2856399,21.9288736 16.3756157,21.9944941 L16.2222222,22 L3.77777778,22 C2.85146199,22 2.08470299,21.3941828 2.00655748,20.6289401 L2,20.5 L2,19.75 C2,17.7320365 4.7329997,16.0863569 7.96598822,16.0032898 L8.22222222,16 L11.7777778,16 Z M10,6 C12.209139,6 14,7.790861 14,10 C14,12.209139 12.209139,14 10,14 C7.790861,14 6,12.209139 6,10 C6,7.790861 7.790861,6 10,6 Z M22,6 C22.5522847,6 23,6.44771525 23,7 C23,7.51283584 22.6139598,7.93550716 22.1166211,7.99327227 L22,8 L16,8 C15.4477153,8 15,7.55228475 15,7 C15,6.48716416 15.3860402,6.06449284 15.8833789,6.00672773 L16,6 L22,6 Z M22,2 C22.5522847,2 23,2.44771525 23,3 C23,3.51283584 22.6139598,3.93550716 22.1166211,3.99327227 L22,4 L16,4 C15.4477153,4 15,3.55228475 15,3 C15,2.48716416 15.3860402,2.06449284 15.8833789,2.00672773 L16,2 L22,2 Z"/>
</svg>
