<svg xmlns="http://www.w3.org/2000/svg" width="24" height="24" viewBox="0 0 24 24">
  <path d="M11.7777778,16 C15.0355351,16 17.852067,17.5939369 17.9943627,19.5914822 L18,19.75 L18,20.5 C18,21.2848257 17.2856399,21.9288736 16.3756157,21.9944941 L16.2222222,22 L3.77777778,22 C2.85146199,22 2.08470299,21.3941828 2.00655748,20.6289401 L2,20.5 L2,19.75 C2,17.7320365 4.7329997,16.0863569 7.96598822,16.0032898 L8.22222222,16 L11.7777778,16 Z M10,6 C12.209139,6 14,7.790861 14,10 C14,12.209139 12.209139,14 10,14 C7.790861,14 6,12.209139 6,10 C6,7.790861 7.790861,6 10,6 Z M22.767,5.359 L22.7803112,5.37455101 L22.7837744,5.37889067 L22.779,5.374 L22.8036654,5.40469339 L22.8036654,5.40469339 C22.8215099,5.42886931 22.8382813,5.45372505 22.8539326,5.47933981 L22.8753288,5.5159379 L22.8753288,5.5159379 C22.8862061,5.53570605 22.8966234,5.5561086 22.9063462,5.57690085 L22.9287745,5.62866398 L22.9287745,5.62866398 C22.9366843,5.6484208 22.9438775,5.66820232 22.9504533,5.68826359 C22.9552713,5.70314866 22.9599023,5.71853672 22.9641549,5.73400703 C22.9701664,5.75556352 22.9753602,5.77725392 22.9798348,5.7992059 C22.9832978,5.81662474 22.9863719,5.83405099 22.9889822,5.85153313 L22.996002,5.90996805 L22.996002,5.90996805 C22.99693,5.92081308 22.9976744,5.93088722 22.9982669,5.94096861 L22.9998198,5.98082404 C22.9999398,5.9872016 23,5.99359377 23,6 L22.999,6.019 L22.9982669,6.05903139 L22.997,6.075 L22.9889807,6.14896122 L22.9889807,6.14896122 C22.9863719,6.16594901 22.9832978,6.18337526 22.9797599,6.20072576 C22.9753602,6.22274608 22.9701664,6.24443648 22.964279,6.26583961 C22.9599023,6.28146328 22.9552713,6.29685134 22.9502619,6.31214252 C22.9438775,6.33179768 22.9366843,6.3515792 22.928896,6.37105852 L22.9063266,6.42322155 L22.9063266,6.42322155 C22.8966234,6.4438914 22.8862061,6.46429395 22.8751242,6.48427695 C22.8685012,6.49639444 22.8613931,6.50861311 22.8540045,6.52070875 C22.8382813,6.54627495 22.8215099,6.57113069 22.8036865,6.5951593 C22.7992821,6.60120864 22.7948255,6.60707334 22.7902954,6.61289944 C22.7849289,6.61966276 22.7826279,6.62256244 22.7803112,6.62544899 L22.7071068,6.70710678 L19.7071068,9.70710678 C19.3165825,10.0976311 18.6834175,10.0976311 18.2928932,9.70710678 C17.9324093,9.34662282 17.9046797,8.77939176 18.2097046,8.38710056 L18.2928932,8.29289322 L19.585,7 L16,7 C15.4477153,7 15,6.55228475 15,6 C15,5.48716416 15.3860402,5.06449284 15.8833789,5.00672773 L16,5 L19.585,5 L18.2928932,3.70710678 C17.9023689,3.31658249 17.9023689,2.68341751 18.2928932,2.29289322 C18.6533772,1.93240926 19.2206082,1.90467972 19.6128994,2.20970461 L19.7071068,2.29289322 L22.7071068,5.29289322 L22.775,5.37 L22.767,5.359 Z"/>
</svg>
