<svg xmlns="http://www.w3.org/2000/svg" width="24" height="24" viewBox="0 0 24 24">
  <path d="M10,16 C12.9230769,16 15.8461538,16.9493754 15.9941334,19.3106425 L16,19.5 L16,20.5 C16,20.975 16,21.90125 15.142625,21.9926875 L15,22 L3,22 C2.1,22 2.01,21.19 2.001,20.6635 L2,19.5 C2,17.0641026 4.84812623,16.0522682 7.76928134,16.0019808 L8,16 L10,16 Z M9,6 C11.209139,6 13,7.790861 13,10 C13,12.209139 11.209139,14 9,14 C6.790861,14 5,12.209139 5,10 C5,7.790861 6.790861,6 9,6 Z M19,7 C20.5,7 21.5,7.96446609 21.5,9 C21.5,9.47222222 21.5,9.94444444 20.6575789,9.9954561 L20.5,10 L15.5,10 C14.5,10 14.5,9.5 14.5,9 C14.5,8.00761334 15.4184028,7.08049556 16.8151403,7.00495863 L17,7 L19,7 Z M18,2 C19.1045695,2 20,2.8954305 20,4 C20,5.1045695 19.1045695,6 18,6 C16.8954305,6 16,5.1045695 16,4 C16,2.8954305 16.8954305,2 18,2 Z"/>
</svg>
