<svg xmlns="http://www.w3.org/2000/svg" width="24" height="24" viewBox="0 0 24 24">
  <path d="M10,16 C12.9230769,16 15.8461538,16.9493754 15.9941334,19.3106425 L16,19.5 L16,20.5 C16,20.975 16,21.90125 15.142625,21.9926875 L15,22 L3,22 C2.1,22 2.01,21.19 2.001,20.6635 L2,19.5 C2,17.0641026 4.84812623,16.0522682 7.76928134,16.0019808 L8,16 L10,16 Z M9,6 C11.209139,6 13,7.790861 13,10 C13,12.209139 11.209139,14 9,14 C6.790861,14 5,12.209139 5,10 C5,7.790861 6.790861,6 9,6 Z M18,8 C18.5522847,8 19,8.44771525 19,9 C19,9.55228475 18.5522847,10 18,10 C17.4477153,10 17,9.55228475 17,9 C17,8.44771525 17.4477153,8 18,8 Z M18,2 C18.5522847,2 19,2.44771525 19,3 L19,6 C19,6.55228475 18.5522847,7 18,7 C17.4477153,7 17,6.55228475 17,6 L17,3 C17,2.44771525 17.4477153,2 18,2 Z"/>
</svg>
