<svg xmlns="http://www.w3.org/2000/svg" width="24" height="24" viewBox="0 0 24 24">
  <path d="M11.7777778,16 C15.0355351,16 17.852067,17.5939369 17.9943627,19.5914822 L18,19.75 L18,20.5 C18,21.2848257 17.2856399,21.9288736 16.3756157,21.9944941 L16.2222222,22 L3.77777778,22 C2.85146199,22 2.08470299,21.3941828 2.00655748,20.6289401 L2,20.5 L2,19.75 C2,17.7320365 4.7329997,16.0863569 7.96598822,16.0032898 L8.22222222,16 L11.7777778,16 Z M11.7777778,18 L8.24789828,17.9998352 L8.01735845,18.00263 C5.77110212,18.0603444 4.12138311,19.0353155 4.00641116,19.6798126 L4,19.75 L4,20 L16.001,20.001 L15.999418,19.7335927 C15.9517443,19.0643509 14.2604581,18.0713422 12.0198906,18.0036546 L11.7777778,18 Z M10,6 C12.209139,6 14,7.790861 14,10 C14,12.1421954 12.3160315,13.8910789 10.1996403,13.9951047 L10,14 C7.790861,14 6,12.209139 6,10 C6,7.85780461 7.68396847,6.10892112 9.80035966,6.00489531 L10,6 Z M10,8 C8.8954305,8 8,8.8954305 8,10 C8,11.1045695 8.8954305,12 10,12 C11.1045695,12 12,11.1045695 12,10 C12,8.8954305 11.1045695,8 10,8 Z M17.6128994,3.20970461 L17.7071068,3.29289322 L19,4.585 L20.2928932,3.29289322 C20.6834175,2.90236893 21.3165825,2.90236893 21.7071068,3.29289322 C22.0675907,3.65337718 22.0953203,4.22060824 21.7902954,4.61289944 L21.7071068,4.70710678 L20.415,6 L21.7071068,7.29289322 C22.0976311,7.68341751 22.0976311,8.31658249 21.7071068,8.70710678 C21.3466228,9.06759074 20.7793918,9.09532028 20.3871006,8.79029539 L20.2928932,8.70710678 L19,7.415 L17.7071068,8.70710678 C17.3165825,9.09763107 16.6834175,9.09763107 16.2928932,8.70710678 C15.9324093,8.34662282 15.9046797,7.77939176 16.2097046,7.38710056 L16.2928932,7.29289322 L17.585,6 L16.2928932,4.70710678 C15.9023689,4.31658249 15.9023689,3.68341751 16.2928932,3.29289322 C16.6533772,2.93240926 17.2206082,2.90467972 17.6128994,3.20970461 Z"/>
</svg>
