<svg xmlns="http://www.w3.org/2000/svg" width="24" height="24" viewBox="0 0 24 24">
  <path d="M11.7777778,16 C15.0355351,16 17.852067,17.5939369 17.9943627,19.5914822 L18,19.75 L18,20.5 C18,21.2848257 17.2856399,21.9288736 16.3756157,21.9944941 L16.2222222,22 L3.77777778,22 C2.85146199,22 2.08470299,21.3941828 2.00655748,20.6289401 L2,20.5 L2,19.75 C2,17.7320365 4.7329997,16.0863569 7.96598822,16.0032898 L8.22222222,16 L11.7777778,16 Z M11.7777778,18 L8.24789828,17.9998352 L8.01735845,18.00263 C5.77110212,18.0603444 4.12138311,19.0353155 4.00641116,19.6798126 L4,19.75 L4,20 L16.001,20.001 L15.999418,19.7335927 C15.9517443,19.0643509 14.2604581,18.0713422 12.0198906,18.0036546 L11.7777778,18 Z M10,6 C12.209139,6 14,7.790861 14,10 C14,12.1421954 12.3160315,13.8910789 10.1996403,13.9951047 L10,14 C7.790861,14 6,12.209139 6,10 C6,7.85780461 7.68396847,6.10892112 9.80035966,6.00489531 L10,6 Z M10,8 C8.8954305,8 8,8.8954305 8,10 C8,11.1045695 8.8954305,12 10,12 C11.1045695,12 12,11.1045695 12,10 C12,8.8954305 11.1045695,8 10,8 Z M19.5001686,8 C20.0524586,8 20.5001686,8.4477 20.5001686,9 C20.5001686,9.5523 20.0524586,10 19.5001686,10 C18.9478886,10 18.5001686,9.5523 18.5001686,9 C18.5001686,8.4477 18.9478886,8 19.5001686,8 Z M19.5001686,2 C20.0537486,2 20.6555886,2.16344 21.1376686,2.525 C21.6397686,2.90158 22.0001686,3.48991 22.0001686,4.25 C22.0001686,4.69838 21.8847686,5.07994 21.6710686,5.4004 C21.4664386,5.70737 21.2009186,5.91339 20.9787086,6.06154 C20.8700286,6.134 20.7594286,6.20036 20.6657686,6.25656 L20.6657686,6.25656 C20.5591686,6.32052 20.4769786,6.37001 20.4005986,6.42093 C20.2478286,6.52279 20.1695886,6.59803 20.1242286,6.66609 C19.8944886,7.01075 19.4288386,7.10391 19.0841786,6.87417 C18.7395186,6.64442 18.6463586,6.17878 18.8760986,5.83412 C19.0807386,5.52712 19.3462486,5.32107 19.5684786,5.1729 C19.6772086,5.10041 19.7878586,5.03402 19.8815586,4.9778 L19.8815586,4.9778 C19.9880486,4.9139 20.0702386,4.86441 20.1466286,4.81349 C20.2994086,4.71162 20.3776486,4.63639 20.4229986,4.56835 C20.4593586,4.51381 20.5001686,4.42662 20.5001686,4.25 C20.5001686,4.01009 20.4022286,3.84842 20.2376686,3.725 C20.0530786,3.58656 19.7799186,3.5 19.5001686,3.5 C19.1314086,3.5 18.9046986,3.59004 18.7599386,3.68654 C18.6104886,3.78617 18.5014986,3.92438 18.4209886,4.08541 C18.2357486,4.45589 17.7852386,4.60606 17.4147586,4.42082 C17.0442686,4.23558 16.8940986,3.78507 17.0793486,3.41459 C17.2488286,3.07562 17.5148386,2.71383 17.9278886,2.43846 C18.3456386,2.15996 18.8689286,2 19.5001686,2 Z"/>
</svg>
