<svg xmlns="http://www.w3.org/2000/svg" width="24" height="24" viewBox="0 0 24 24">
  <path d="M10,16 C12.9230769,16 15.8461538,16.9493754 15.9941334,19.3106425 L16,19.5 L16,20.5 C16,20.975 16,21.90125 15.142625,21.9926875 L15,22 L3,22 C2.1,22 2.01,21.19 2.001,20.6635 L2,19.5 C2,17.0641026 4.84812623,16.0522682 7.76928134,16.0019808 L8,16 L10,16 Z M9,6 C11.209139,6 13,7.790861 13,10 C13,12.209139 11.209139,14 9,14 C6.790861,14 5,12.209139 5,10 C5,7.790861 6.790861,6 9,6 Z M17.6128994,2.20970461 L17.7071068,2.29289322 L20.7071068,5.29289322 C21.0675907,5.65337718 21.0953203,6.22060824 20.7902954,6.61289944 L20.7071068,6.70710678 L17.7071068,9.70710678 C17.3165825,10.0976311 16.6834175,10.0976311 16.2928932,9.70710678 C15.9324093,9.34662282 15.9046797,8.77939176 16.2097046,8.38710056 L16.2928932,8.29289322 L18.585,6 L16.2928932,3.70710678 C15.9324093,3.34662282 15.9046797,2.77939176 16.2097046,2.38710056 L16.2928932,2.29289322 C16.6533772,1.93240926 17.2206082,1.90467972 17.6128994,2.20970461 Z"/>
</svg>
