<svg xmlns="http://www.w3.org/2000/svg" width="24" height="24" viewBox="0 0 24 24">
  <path d="M11.7777778,16 C15.0355351,16 17.852067,17.5939369 17.9943627,19.5914822 L18,19.75 L18,20.5 C18,21.2848257 17.2856399,21.9288736 16.3756157,21.9944941 L16.2222222,22 L3.77777778,22 C2.85146199,22 2.08470299,21.3941828 2.00655748,20.6289401 L2,20.5 L2,19.75 C2,17.7320365 4.7329997,16.0863569 7.96598822,16.0032898 L8.22222222,16 L11.7777778,16 Z M10,6 C12.209139,6 14,7.790861 14,10 C14,12.209139 12.209139,14 10,14 C7.790861,14 6,12.209139 6,10 C6,7.790861 7.790861,6 10,6 Z M19,2 C19.5128358,2 19.9355072,2.38604019 19.9932723,2.88337887 L20,3 L19.999,5 L22,5 C22.5522847,5 23,5.44771525 23,6 C23,6.51283584 22.6139598,6.93550716 22.1166211,6.99327227 L22,7 L19.999,7 L20,9 C20,9.55228475 19.5522847,10 19,10 C18.4871642,10 18.0644928,9.61395981 18.0067277,9.11662113 L18,9 L17.999,7 L16,7 C15.4477153,7 15,6.55228475 15,6 C15,5.48716416 15.3860402,5.06449284 15.8833789,5.00672773 L16,5 L17.999,5 L18,3 C18,2.44771525 18.4477153,2 19,2 Z"/>
</svg>
