<svg xmlns="http://www.w3.org/2000/svg" width="24" height="24" viewBox="0 0 24 24">
  <path d="M4.52208505,2.72095688 C5.47762004,1.77927581 7.22128571,1.72781329 8.22738936,2.72184753 C8.70259974,3.19135719 9.41178862,4.08449218 10.4144951,5.46181341 L10.4144951,5.46181341 L10.8313731,6.03870872 C11.3555433,6.76899296 11.3280844,7.75926528 10.7642511,8.45938065 C10.7210065,8.51307781 10.582854,8.66056357 10.4050339,8.84606553 L10.4050339,8.84606553 L9.3813961,9.89202907 C9.38007237,9.89335292 9.3785969,9.90207676 9.40077137,9.96983629 L9.40077137,9.96983629 L9.51158448,10.2722451 C9.76276981,10.9240586 10.3855732,11.7842989 11.2979335,12.6977091 C12.2090183,13.6098423 13.0682484,14.2329509 13.7195112,14.4843127 C14.0701791,14.6196567 14.0956678,14.6168813 14.1021233,14.6104366 L14.1021233,14.6104366 L15.1665741,13.5618807 C15.2678896,13.4645062 15.3479077,13.3893722 15.4116425,13.3317821 L15.4116425,13.3317821 L15.5296831,13.229828 C16.2299796,12.6660654 17.220383,12.6388533 17.9505791,13.163312 C19.5485829,14.3110679 20.5367899,15.0712596 21.0954145,15.601315 L21.0954145,15.601315 L21.2750323,15.7790939 C22.2656493,16.8085656 22.2135101,18.4739852 21.2809211,19.4598495 C21.0735185,19.6791001 20.8293152,19.9273441 20.5559836,20.1972004 L20.5559836,20.1972004 L20.1250991,20.6172712 C17.2258067,23.518269 11.2706037,21.63814 6.81588884,17.1782988 C2.36441158,12.7216988 0.479867638,6.76603888 3.356415,3.88750264 C3.54531543,3.69561653 3.68673197,3.55231943 3.8158625,3.4223836 L3.8158625,3.4223836 Z M19.5001686,8 C20.0524586,8 20.5001686,8.4477 20.5001686,9 C20.5001686,9.5523 20.0524586,10 19.5001686,10 C18.9478886,10 18.5001686,9.5523 18.5001686,9 C18.5001686,8.4477 18.9478886,8 19.5001686,8 Z M19.5001686,2 C20.0537486,2 20.6555886,2.16344 21.1376686,2.525 C21.6397686,2.90158 22.0001686,3.48991 22.0001686,4.25 C22.0001686,4.69838 21.8847686,5.07994 21.6710686,5.4004 C21.4664386,5.70737 21.2009186,5.91339 20.9787086,6.06154 C20.8700286,6.134 20.7594286,6.20036 20.6657686,6.25656 L20.6657686,6.25656 C20.5591686,6.32052 20.4769786,6.37001 20.4005986,6.42093 C20.2478286,6.52279 20.1695886,6.59803 20.1242286,6.66609 C19.8944886,7.01075 19.4288386,7.10391 19.0841786,6.87417 C18.7395186,6.64442 18.6463586,6.17878 18.8760986,5.83412 C19.0807386,5.52712 19.3462486,5.32107 19.5684786,5.1729 C19.6772086,5.10041 19.7878586,5.03402 19.8815586,4.9778 L19.8815586,4.9778 C19.9880486,4.9139 20.0702386,4.86441 20.1466286,4.81349 C20.2994086,4.71162 20.3776486,4.63639 20.4229986,4.56835 C20.4593586,4.51381 20.5001686,4.42662 20.5001686,4.25 C20.5001686,4.01009 20.4022286,3.84842 20.2376686,3.725 C20.0530786,3.58656 19.7799186,3.5 19.5001686,3.5 C19.1314086,3.5 18.9046986,3.59004 18.7599386,3.68654 C18.6104886,3.78617 18.5014986,3.92438 18.4209886,4.08541 C18.2357486,4.45589 17.7852386,4.60606 17.4147586,4.42082 C17.0442686,4.23558 16.8940986,3.78507 17.0793486,3.41459 C17.2488286,3.07562 17.5148386,2.71383 17.9278886,2.43846 C18.3456386,2.15996 18.8689286,2 19.5001686,2 Z"/>
</svg>
