<svg xmlns="http://www.w3.org/2000/svg" width="24" height="24" viewBox="0 0 24 24">
  <path d="M4.52208505,2.72095688 C5.47762004,1.77927581 7.22128571,1.72781329 8.22738936,2.72184753 C8.70259974,3.19135719 9.41178862,4.08449218 10.4144951,5.46181341 L10.4144951,5.46181341 L10.8313731,6.03870872 C11.3555433,6.76899296 11.3280844,7.75926528 10.7642511,8.45938065 C10.7210065,8.51307781 10.582854,8.66056357 10.4050339,8.84606553 L10.4050339,8.84606553 L9.3813961,9.89202907 C9.38007237,9.89335292 9.3785969,9.90207676 9.40077137,9.96983629 L9.40077137,9.96983629 L9.51158448,10.2722451 C9.76276981,10.9240586 10.3855732,11.7842989 11.2979335,12.6977091 C12.2090183,13.6098423 13.0682484,14.2329509 13.7195112,14.4843127 C14.0701791,14.6196567 14.0956678,14.6168813 14.1021233,14.6104366 L14.1021233,14.6104366 L15.1665741,13.5618807 C15.2678896,13.4645062 15.3479077,13.3893722 15.4116425,13.3317821 L15.4116425,13.3317821 L15.5296831,13.229828 C16.2299796,12.6660654 17.220383,12.6388533 17.9505791,13.163312 C19.5485829,14.3110679 20.5367899,15.0712596 21.0954145,15.601315 L21.0954145,15.601315 L21.2750323,15.7790939 C22.2656493,16.8085656 22.2135101,18.4739852 21.2809211,19.4598495 C21.0735185,19.6791001 20.8293152,19.9273441 20.5559836,20.1972004 L20.5559836,20.1972004 L20.1250991,20.6172712 C17.2258067,23.518269 11.2706037,21.63814 6.81588884,17.1782988 C2.36441158,12.7216988 0.479867638,6.76603888 3.356415,3.88750264 C3.54531543,3.69561653 3.68673197,3.55231943 3.8158625,3.4223836 L3.8158625,3.4223836 Z M6.82173518,4.14456897 C6.60116108,3.92664092 6.1072563,3.96676626 5.92593427,4.14545938 C5.80503532,4.26460547 5.70442634,4.36389642 5.61367931,4.45377629 L5.61367931,4.45377629 L4.78167333,5.2905845 C2.97719885,7.09635628 4.35858512,11.8881122 8.23091543,15.7648987 C12.1020322,19.6404702 16.8922631,21.0227496 18.7104697,19.2034735 C19.0155406,18.9091723 19.2829636,18.6452201 19.512392,18.4120507 L19.512392,18.4120507 L19.8279955,18.0854379 C20.035396,17.8661894 20.0724603,17.4137836 19.8338841,17.1658498 C19.5201708,16.8398319 18.8477755,16.2983542 17.7520088,15.4911438 L17.7520088,15.4911438 L16.7838495,14.7877325 C16.7675239,14.8008752 16.7375077,14.827937 16.6938009,14.8689178 L16.6938009,14.8689178 L15.5121745,16.0288003 C14.209348,17.3325633 11.9906036,16.2212312 9.88290696,14.1111091 C7.77376445,11.9995395 6.66385678,9.78125195 7.96712249,8.47787556 C8.10504523,8.3399411 8.58312637,7.85345903 8.90439934,7.52226576 L8.90439934,7.52226576 L9.20658185,7.20492201 C8.04110974,5.58116342 7.24884033,4.56655048 6.82173518,4.14456897 Z M22.9980965,6.01838514 L22.9960336,6.08925007 L22.9960336,6.08925007 L22.9889807,6.14896122 L22.9889807,6.14896122 C22.9863719,6.16594901 22.9832978,6.18337526 22.9797599,6.20072576 C22.9753602,6.22274608 22.9701664,6.24443648 22.964279,6.26583961 L22.9502619,6.31214252 L22.9502619,6.31214252 C22.9438775,6.33179768 22.9366843,6.3515792 22.928896,6.37105852 L22.9063266,6.42322155 L22.9063266,6.42322155 C22.8966234,6.4438914 22.8862061,6.46429395 22.8751242,6.48427695 C22.8685012,6.49639444 22.8613931,6.50861311 22.8540045,6.52070875 C22.8382813,6.54627495 22.8215099,6.57113069 22.8036865,6.5951593 C22.7992821,6.60120864 22.7948255,6.60707334 22.7902954,6.61289944 C22.7849289,6.61966276 22.7826279,6.62256244 22.7803112,6.62544899 L22.7071068,6.70710678 L19.7071068,9.70710678 C19.3165825,10.0976311 18.6834175,10.0976311 18.2928932,9.70710678 C17.9324093,9.34662282 17.9046797,8.77939176 18.2097046,8.38710056 L18.2928932,8.29289322 L19.585,7 L16,7 C15.4477153,7 15,6.55228475 15,6 C15,5.48716416 15.3860402,5.06449284 15.8833789,5.00672773 L16,5 L19.585,5 L18.2928932,3.70710678 C17.9023689,3.31658249 17.9023689,2.68341751 18.2928932,2.29289322 C18.6533772,1.93240926 19.2206082,1.90467972 19.6128994,2.20970461 L19.7071068,2.29289322 L22.7071068,5.29289322 L22.757792,5.34743396 L22.757792,5.34743396 L22.7630965,5.35538514 L22.7670965,5.35938514 L22.7680965,5.36138514 L22.7720965,5.36638514 L22.8036654,5.40469339 L22.8036654,5.40469339 C22.8215099,5.42886931 22.8382813,5.45372505 22.8539326,5.47933981 C22.8613931,5.49138689 22.8685012,5.50360556 22.8753288,5.5159379 C22.8862061,5.53570605 22.8966234,5.5561086 22.9063462,5.57690085 L22.9287745,5.62866398 L22.9287745,5.62866398 C22.9366843,5.6484208 22.9438775,5.66820232 22.9504533,5.68826359 L22.9641549,5.73400703 L22.9641549,5.73400703 C22.9701664,5.75556352 22.9753602,5.77725392 22.9798348,5.7992059 C22.9832978,5.81662474 22.9863719,5.83405099 22.9889822,5.85153313 C22.9918878,5.87050421 22.9942339,5.89015296 22.996002,5.90996805 C22.99693,5.92081308 22.9976744,5.93088722 22.9982669,5.94096861 L22.9998198,5.98082404 L23,6 L23,6 L22.999,6.019 L22.9982669,6.05903139 L22.9970965,6.07138514 L22.9980965,6.01838514 Z"/>
</svg>
