<svg xmlns="http://www.w3.org/2000/svg" width="24" height="24" viewBox="0 0 24 24">
  <path d="M12,2 C14.6666667,2 17.3333333,2.66666667 20,4 L20,13.06 C19.9983832,16.0877148 18.2876373,18.8550978 15.58,20.21 L12,22 L8.42,20.21 C5.71236267,18.8550978 4.00161681,16.0877148 4,13.06 L4,4 C6.66666667,2.66666667 9.33333333,2 12,2 Z M11.6128994,8.20970461 C11.2206082,7.90467972 10.6533772,7.93240926 10.2928932,8.29289322 L10.2928932,8.29289322 L10.2097046,8.38710056 C9.90467972,8.77939176 9.93240926,9.34662282 10.2928932,9.70710678 L10.2928932,9.70710678 L12.585,12 L10.2928932,14.2928932 L10.2097046,14.3871006 C9.90467972,14.7793918 9.93240926,15.3466228 10.2928932,15.7071068 C10.6834175,16.0976311 11.3165825,16.0976311 11.7071068,15.7071068 L11.7071068,15.7071068 L14.7071068,12.7071068 L14.7902954,12.6128994 C15.0953203,12.2206082 15.0675907,11.6533772 14.7071068,11.2928932 L14.7071068,11.2928932 L11.7071068,8.29289322 Z"/>
</svg>
