<svg xmlns="http://www.w3.org/2000/svg" width="24" height="24" viewBox="0 0 24 24">
  <path d="M12,2 C14.4975513,2 16.9865973,2.64004039 19.457348,3.9107122 C19.7905481,4.08207225 20,4.42531804 20,4.8 L20,4.8 L20,12.9545192 C19.9983921,16.0512364 18.2945636,18.886178 15.589848,20.2782878 L15.589848,20.2782878 L12.457348,21.8892878 C12.1703164,22.0369041 11.8296836,22.0369041 11.542652,21.8892878 L11.542652,21.8892878 L8.4098626,20.2781389 C5.70543642,18.886178 4.00160786,16.0512364 4,12.954 L4,12.954 L4,4.8 C4,4.42531804 4.20945189,4.08207225 4.54265199,3.9107122 C7.01340272,2.64004039 9.50244869,2 12,2 Z M11.9999999,4 C10.1020241,4 8.19753622,4.42871908 6.27997802,5.29246051 L6.27997802,5.29246051 L5.99999987,5.422 L5.99999987,12.9534808 C6.00117793,15.2226085 7.20070087,17.2994237 9.10982748,18.3833971 L9.10982748,18.3833971 L9.32484801,18.4997122 L11.999,19.875 L14.6748626,18.4998611 C16.6361611,17.490386 17.9056883,15.4585585 17.9949625,13.2052396 L17.9949625,13.2052396 L17.9999999,12.954 L17.9999999,5.423 L17.720022,5.29246051 C15.9394322,4.49041489 14.1701123,4.06346508 12.4068112,4.00656432 L12.4068112,4.00656432 Z M15.1616337,9.25016214 C15.543902,9.58745772 15.6069605,10.1518544 15.327,10.5624086 L15.2498499,10.6616216 L11.7204382,14.6616216 C11.3507811,15.0805663 10.7177952,15.1104909 10.3105198,14.7513955 L10.2207624,14.6616216 L8.75017421,12.994955 C8.38477067,12.580831 8.42426642,11.948899 8.83839043,11.5834955 C9.22065875,11.2461999 9.78851489,11.2539073 10.1610152,11.5828086 L10.2498499,11.6717117 L10.9700121,12.488 L13.7501742,9.33837836 C14.1155778,8.92425435 14.7475097,8.8847586 15.1616337,9.25016214 Z"/>
</svg>
