<svg xmlns="http://www.w3.org/2000/svg" width="24" height="24" viewBox="0 0 24 24">
  <path d="M12,2 C14.6666667,2 17.3333333,2.66666667 20,4 L20,13.06 C19.9983832,16.0877148 18.2876373,18.8550978 15.58,20.21 L12,22 L8.42,20.21 C5.71236267,18.8550978 4.00161681,16.0877148 4,13.06 L4,4 C6.66666667,2.66666667 9.33333333,2 12,2 Z M12.6128994,9.20970461 C12.2206082,8.90467972 11.6533772,8.93240926 11.2928932,9.29289322 L11.2928932,9.29289322 L8.29289322,12.2928932 L8.20970461,12.3871006 C7.90467972,12.7793918 7.93240926,13.3466228 8.29289322,13.7071068 L8.29289322,13.7071068 L8.38710056,13.7902954 C8.77939176,14.0953203 9.34662282,14.0675907 9.70710678,13.7071068 L9.70710678,13.7071068 L12,11.415 L14.2928932,13.7071068 L14.3871006,13.7902954 C14.7793918,14.0953203 15.3466228,14.0675907 15.7071068,13.7071068 C16.0976311,13.3165825 16.0976311,12.6834175 15.7071068,12.2928932 L15.7071068,12.2928932 L12.7071068,9.29289322 Z"/>
</svg>
