<svg xmlns="http://www.w3.org/2000/svg" width="24" height="24" viewBox="0 0 24 24">
  <path d="M12,2 C14.6666667,2 17.3333333,2.66666667 20,4 L20,13.06 C19.9983832,16.0877148 18.2876373,18.8550978 15.58,20.21 L12,22 L8.42,20.21 C5.71236267,18.8550978 4.00161681,16.0877148 4,13.06 L4,4 C6.66666667,2.66666667 9.33333333,2 12,2 Z M15.1616337,9.25016214 C14.7475097,8.8847586 14.1155778,8.92425435 13.7501742,9.33837836 L13.7501742,9.33837836 L10.9700121,12.488 L10.2498499,11.6717117 L10.1610152,11.5828086 C9.78851489,11.2539073 9.22065875,11.2461999 8.83839043,11.5834955 C8.42426642,11.948899 8.38477067,12.580831 8.75017421,12.994955 L8.75017421,12.994955 L10.2207624,14.6616216 L10.3105198,14.7513955 C10.7177952,15.1104909 11.3507811,15.0805663 11.7204382,14.6616216 L11.7204382,14.6616216 L15.2498499,10.6616216 L15.327,10.5624086 C15.6069605,10.1518544 15.543902,9.58745772 15.1616337,9.25016214 Z"/>
</svg>
