<svg xmlns="http://www.w3.org/2000/svg" width="24" height="24" viewBox="0 0 24 24">
  <path d="M12,2 C14.4975513,2 16.9865973,2.64004039 19.457348,3.9107122 C19.7905481,4.08207225 20,4.42531804 20,4.8 L20,4.8 L20,12.9545192 C19.9983921,16.0512364 18.2945636,18.886178 15.589848,20.2782878 L15.589848,20.2782878 L12.457348,21.8892878 C12.1703164,22.0369041 11.8296836,22.0369041 11.542652,21.8892878 L11.542652,21.8892878 L8.4098626,20.2781389 C5.70543642,18.886178 4.00160786,16.0512364 4,12.954 L4,12.954 L4,4.8 C4,4.42531804 4.20945189,4.08207225 4.54265199,3.9107122 C7.01340272,2.64004039 9.50244869,2 12,2 Z M11.9999999,4 C10.1020241,4 8.19753622,4.42871908 6.27997802,5.29246051 L6.27997802,5.29246051 L5.99999987,5.422 L5.99999987,12.9534808 C6.00117793,15.2226085 7.20070087,17.2994237 9.10982748,18.3833971 L9.10982748,18.3833971 L9.32484801,18.4997122 L11.999,19.875 L14.6748626,18.4998611 C16.6361611,17.490386 17.9056883,15.4585585 17.9949625,13.2052396 L17.9949625,13.2052396 L17.9999999,12.954 L17.9999999,5.423 L17.720022,5.29246051 C15.9394322,4.49041489 14.1701123,4.06346508 12.4068112,4.00656432 L12.4068112,4.00656432 Z M10.6128994,9.20970461 L10.7071068,9.29289322 L12,10.585 L13.2928932,9.29289322 C13.6834175,8.90236893 14.3165825,8.90236893 14.7071068,9.29289322 C15.0675907,9.65337718 15.0953203,10.2206082 14.7902954,10.6128994 L14.7071068,10.7071068 L13.415,12 L14.7071068,13.2928932 C15.0976311,13.6834175 15.0976311,14.3165825 14.7071068,14.7071068 C14.3466228,15.0675907 13.7793918,15.0953203 13.3871006,14.7902954 L13.2928932,14.7071068 L12,13.415 L10.7071068,14.7071068 C10.3165825,15.0976311 9.68341751,15.0976311 9.29289322,14.7071068 C8.93240926,14.3466228 8.90467972,13.7793918 9.20970461,13.3871006 L9.29289322,13.2928932 L10.585,12 L9.29289322,10.7071068 C8.90236893,10.3165825 8.90236893,9.68341751 9.29289322,9.29289322 C9.65337718,8.93240926 10.2206082,8.90467972 10.6128994,9.20970461 Z"/>
</svg>
