<svg xmlns="http://www.w3.org/2000/svg" width="24" height="24" viewBox="0 0 24 24">
  <path d="M12,1 C15.3333333,1 18.3333333,2 21,4 L21,13 C20.9981811,16.3304863 19.073592,19.5406076 16.0275,21.031 L12,23 L7.9725,21.031 C4.926408,19.5406076 3.00181891,16.3304863 3,13 L3,4 C5.66666667,2 8.66666667,1 12,1 Z M11.6128994,8.20970461 C11.2206082,7.90467972 10.6533772,7.93240926 10.2928932,8.29289322 L10.2928932,8.29289322 L10.2097046,8.38710056 C9.90467972,8.77939176 9.93240926,9.34662282 10.2928932,9.70710678 L10.2928932,9.70710678 L12.585,12 L10.2928932,14.2928932 L10.2097046,14.3871006 C9.90467972,14.7793918 9.93240926,15.3466228 10.2928932,15.7071068 C10.6834175,16.0976311 11.3165825,16.0976311 11.7071068,15.7071068 L11.7071068,15.7071068 L14.7071068,12.7071068 L14.7902954,12.6128994 C15.0953203,12.2206082 15.0675907,11.6533772 14.7071068,11.2928932 L14.7071068,11.2928932 L11.7071068,8.29289322 Z"/>
</svg>
