<svg xmlns="http://www.w3.org/2000/svg" width="24" height="24" viewBox="0 0 24 24">
  <path d="M12,2 C14.6666667,2 17.3333333,2.66666667 20,4 L20,13.06 C19.9983832,16.0877148 18.2876373,18.8550978 15.58,20.21 L12,22 L8.42,20.21 C5.71236267,18.8550978 4.00161681,16.0877148 4,13.06 L4,4 C6.66666667,2.66666667 9.33333333,2 12,2 Z M12.3871006,8.20970461 L12.2928932,8.29289322 L9.29289322,11.2928932 C8.93240926,11.6533772 8.90467972,12.2206082 9.20970461,12.6128994 L9.29289322,12.7071068 L12.2928932,15.7071068 C12.6834175,16.0976311 13.3165825,16.0976311 13.7071068,15.7071068 C14.0675907,15.3466228 14.0953203,14.7793918 13.7902954,14.3871006 L13.7071068,14.2928932 L11.415,12 L13.7071068,9.70710678 C14.0675907,9.34662282 14.0953203,8.77939176 13.7902954,8.38710056 L13.7071068,8.29289322 C13.3466228,7.93240926 12.7793918,7.90467972 12.3871006,8.20970461 Z"/>
</svg>
