<svg xmlns="http://www.w3.org/2000/svg" width="24" height="24" viewBox="0 0 24 24">
  <path d="M12,1 C15.3333333,1 18.3333333,2 21,4 L21,13 C20.9981811,16.3304863 19.073592,19.5406076 16.0275,21.031 L12,23 L7.9725,21.031 C4.926408,19.5406076 3.00181891,16.3304863 3,13 L3,4 C5.66666667,2 8.66666667,1 12,1 Z M12.3871006,8.20970461 L12.2928932,8.29289322 L9.29289322,11.2928932 C8.93240926,11.6533772 8.90467972,12.2206082 9.20970461,12.6128994 L9.29289322,12.7071068 L12.2928932,15.7071068 C12.6834175,16.0976311 13.3165825,16.0976311 13.7071068,15.7071068 C14.0675907,15.3466228 14.0953203,14.7793918 13.7902954,14.3871006 L13.7071068,14.2928932 L11.415,12 L13.7071068,9.70710678 C14.0675907,9.34662282 14.0953203,8.77939176 13.7902954,8.38710056 L13.7071068,8.29289322 C13.3466228,7.93240926 12.7793918,7.90467972 12.3871006,8.20970461 Z"/>
</svg>
