<svg xmlns="http://www.w3.org/2000/svg" width="24" height="24" viewBox="0 0 24 24">
  <path d="M12,2 C14.6666667,2 17.3333333,2.66666667 20,4 L20,13.06 C19.9983832,16.0877148 18.2876373,18.8550978 15.58,20.21 L12,22 L8.42,20.21 C5.71236267,18.8550978 4.00161681,16.0877148 4,13.06 L4,4 C6.66666667,2.66666667 9.33333333,2 12,2 Z M14.6616216,9.25016214 C14.2474976,8.8847586 13.6155657,8.92425435 13.2501621,9.33837836 L13.2501621,9.33837836 L10.47,12.488 L9.74983786,11.6717117 L9.66100314,11.5828086 C9.28850282,11.2539073 8.72064668,11.2461999 8.33837836,11.5834955 C7.92425435,11.948899 7.8847586,12.580831 8.25016214,12.994955 L8.25016214,12.994955 L9.72075038,14.6616216 L9.81050773,14.7513955 C10.2177832,15.1104909 10.8507691,15.0805663 11.2204261,14.6616216 L11.2204261,14.6616216 L14.7498379,10.6616216 L14.826988,10.5624086 C15.1069484,10.1518544 15.04389,9.58745772 14.6616216,9.25016214 Z"/>
</svg>
