<svg xmlns="http://www.w3.org/2000/svg" width="24" height="24" viewBox="0 0 24 24">
  <path d="M12,2 C14.6666667,2 17.3333333,2.66666667 20,4 L20,13.06 C19.9983832,16.0877148 18.2876373,18.8550978 15.58,20.21 L12,22 L8.42,20.21 C5.71236267,18.8550978 4.00161681,16.0877148 4,13.06 L4,4 C6.66666667,2.66666667 9.33333333,2 12,2 Z M13,12 L11,12 L10.8151403,12.0049586 C9.41840278,12.0804956 8.5,13.0076133 8.5,14 C8.5,14.5 8.5,15 9.5,15 L9.5,15 L14.5,15 L14.6575789,14.9954561 C15.5,14.9444444 15.5,14.4722222 15.5,14 C15.5,12.9644661 14.5,12 13,12 L13,12 Z M12,7 C10.8954305,7 10,7.8954305 10,9 C10,10.1045695 10.8954305,11 12,11 C13.1045695,11 14,10.1045695 14,9 C14,7.8954305 13.1045695,7 12,7 Z"/>
</svg>
