<svg xmlns="http://www.w3.org/2000/svg" width="24" height="24" viewBox="0 0 24 24">
  <path d="M12,2 C14.6666667,2 17.3333333,2.66666667 20,4 L20,13.06 C19.9983832,16.0877148 18.2876373,18.8550978 15.58,20.21 L12,22 L8.42,20.21 C5.71236267,18.8550978 4.00161681,16.0877148 4,13.06 L4,4 C6.66666667,2.66666667 9.33333333,2 12,2 Z M8.38710056,9.20970461 L8.29289322,9.29289322 C7.93240926,9.65337718 7.90467972,10.2206082 8.20970461,10.6128994 L8.29289322,10.7071068 L11.2928932,13.7071068 C11.6533772,14.0675907 12.2206082,14.0953203 12.6128994,13.7902954 L12.7071068,13.7071068 L15.7071068,10.7071068 C16.0976311,10.3165825 16.0976311,9.68341751 15.7071068,9.29289322 C15.3466228,8.93240926 14.7793918,8.90467972 14.3871006,9.20970461 L14.2928932,9.29289322 L12,11.585 L9.70710678,9.29289322 C9.34662282,8.93240926 8.77939176,8.90467972 8.38710056,9.20970461 Z"/>
</svg>
