<svg xmlns="http://www.w3.org/2000/svg" width="24" height="24" viewBox="0 0 24 24">
  <path d="M12,1 C15.3333333,1 18.3333333,2 21,4 L21,13 C20.9981811,16.3304863 19.073592,19.5406076 16.0275,21.031 L12,23 L7.9725,21.031 C4.926408,19.5406076 3.00181891,16.3304863 3,13 L3,4 C5.66666667,2 8.66666667,1 12,1 Z M13,12 L11,12 L10.8151403,12.0049586 C9.41840278,12.0804956 8.5,13.0076133 8.5,14 C8.5,14.5 8.5,15 9.5,15 L9.5,15 L14.5,15 L14.6575789,14.9954561 C15.5,14.9444444 15.5,14.4722222 15.5,14 C15.5,12.9644661 14.5,12 13,12 L13,12 Z M12,7 C10.8954305,7 10,7.8954305 10,9 C10,10.1045695 10.8954305,11 12,11 C13.1045695,11 14,10.1045695 14,9 C14,7.8954305 13.1045695,7 12,7 Z"/>
</svg>
