<svg xmlns="http://www.w3.org/2000/svg" width="24" height="24" viewBox="0 0 24 24">
  <path d="M12,2 C14.6666667,2 17.3333333,2.66666667 20,4 L20,13.06 C19.9983832,16.0877148 18.2876373,18.8550978 15.58,20.21 L12,22 L8.42,20.21 C5.71236267,18.8550978 4.00161681,16.0877148 4,13.06 L4,4 C6.66666667,2.66666667 9.33333333,2 12,2 Z M16,13 L8,13 L7.88337887,13.0067277 C7.38604019,13.0644928 7,13.4871642 7,14 C7,14.5522847 7.44771525,15 8,15 L8,15 L16,15 L16.1166211,14.9932723 C16.6139598,14.9355072 17,14.5128358 17,14 C17,13.4477153 16.5522847,13 16,13 L16,13 Z M16,9 L8,9 L7.88337887,9.00672773 C7.38604019,9.06449284 7,9.48716416 7,10 C7,10.5522847 7.44771525,11 8,11 L8,11 L16,11 L16.1166211,10.9932723 C16.6139598,10.9355072 17,10.5128358 17,10 C17,9.44771525 16.5522847,9 16,9 L16,9 Z"/>
</svg>
