<svg xmlns="http://www.w3.org/2000/svg" width="24" height="24" viewBox="0 0 24 24">
  <path d="M12,3 C16.9705627,3 21,7.02943725 21,12 C21,14.0063687 20.3748506,15.8534274 19.2037087,17.3950867 L19.1204177,17.5177263 C18.6120231,18.3592407 19.032273,19.6703676 19.8454343,20.927457 L19.932,21.057 L19.7674274,21.0419653 C19.1439075,20.9692555 18.583644,20.8166629 18.0384285,20.5969123 L17.8347374,20.5101192 C17.5446097,20.3831789 17.1157819,20.187822 17.0208429,20.1494778 C16.4905614,19.935306 16.068084,19.8743561 15.5921501,20.086951 C14.2097984,20.7044338 13.124131,21 12,21 C7.02943725,21 3,16.9705627 3,12 C3,7.02943725 7.02943725,3 12,3 Z M20.8576294,18.522177 L20.7962913,18.6049133 C22.2311068,16.7161614 23,14.4443989 23,12 C23,5.92486775 18.0751322,1 12,1 C5.92486775,1 1,5.92486775 1,12 C1,18.0751322 5.92486775,23 12,23 L12.3330856,22.993527 C13.5484661,22.9460711 14.7056939,22.6378157 16.0395233,22.0733447 L16.2414883,21.9861231 L16.2496476,21.9938978 L17.2056498,22.416732 C17.2367915,22.4298434 17.265416,22.4416884 17.2907679,22.4519065 C18.6860373,23.0142737 20.1769035,23.2356693 22.1240347,22.9922779 C22.949757,22.8890626 23.2955244,21.8813108 22.7071068,21.2928932 C22.2437931,20.8295796 21.6722901,20.0718299 21.2947487,19.4005296 C21.1334364,19.1137028 21.0151135,18.8565428 20.9479132,18.6523115 L20.9137928,18.5363103 C20.8989411,18.4780467 20.8939836,18.4740067 20.8576294,18.522177 Z"/>
</svg>
