<svg xmlns="http://www.w3.org/2000/svg" width="24" height="24" viewBox="0 0 24 24">
  <path d="M12,1 C18.0751322,1 23,5.92486775 23,12 C23,14.4443989 22.2311068,16.7161614 20.7962913,18.6049133 L20.7962913,18.6049133 L20.8576294,18.522177 C20.8939836,18.4740067 20.8989411,18.4780467 20.9137928,18.5363103 L20.9137928,18.5363103 L20.9479132,18.6523115 C21.0151135,18.8565428 21.1334364,19.1137028 21.2947487,19.4005296 C21.6722901,20.0718299 22.2437931,20.8295796 22.7071068,21.2928932 C23.2955244,21.8813108 22.949757,22.8890626 22.1240347,22.9922779 C20.1769035,23.2356693 18.6860373,23.0142737 17.2907679,22.4519065 C17.265416,22.4416884 17.2367915,22.4298434 17.2056498,22.416732 L17.2056498,22.416732 L16.2496476,21.9938978 L16.2414883,21.9861231 L16.0395233,22.0733447 C14.7056939,22.6378157 13.5484661,22.9460711 12.3330856,22.993527 L12.3330856,22.993527 L12,23 C5.92486775,23 1,18.0751322 1,12 C1,5.92486775 5.92486775,1 12,1 Z M16.6853647,8.27180001 C16.2831909,7.89328354 15.6503165,7.91246155 15.2718,8.3146353 L15.2718,8.3146353 L10.352,13.54 L8.72819999,11.8146353 L8.63655559,11.7286314 C8.25368331,11.4118643 7.68587261,11.4224002 7.3146353,11.7718 C6.91246155,12.1503165 6.89328354,12.7831909 7.27180001,13.1853647 L7.27180001,13.1853647 L9.62474118,15.6853647 L9.71331242,15.7688394 C10.1134372,16.1027381 10.7145073,16.0749132 11.0811412,15.6853647 L11.0811412,15.6853647 L16.7282,9.6853647 L16.808497,9.58868088 C17.1014998,9.18733072 17.056602,8.62119983 16.6853647,8.27180001 Z"/>
</svg>
