<svg xmlns="http://www.w3.org/2000/svg" width="24" height="24" viewBox="0 0 24 24">
  <path d="M19,2 L5,2 C3.34314575,2 2,3.34314575 2,5 L2,15 L2.00509269,15.1762728 C2.09633912,16.75108 3.40231912,18 5,18 L7,18 L7,21 L7.00598327,21.1136309 C7.09281919,21.9276677 8.1045317,22.3096819 8.70710678,21.7071068 L12.414,18 L19,18 C20.6568542,18 22,16.6568542 22,15 L22,5 C22,3.34314575 20.6568542,2 19,2 Z M5,4 L19,4 C19.5522847,4 20,4.44771525 20,5 L20,15 C20,15.5522847 19.5522847,16 19,16 L12,16 L11.868556,16.0086724 C11.6518549,16.0374017 11.4491735,16.1366129 11.2928932,16.2928932 L9,18.584 L9,17 C9,16.4477153 8.55228475,16 8,16 L5,16 C4.44771525,16 4,15.5522847 4,15 L4,5 C4,4.44771525 4.44771525,4 5,4 Z"/>
</svg>
