<svg xmlns="http://www.w3.org/2000/svg" width="24" height="24" viewBox="0 0 24 24">
  <path d="M12,1 C18.0751322,1 23,5.92486775 23,12 C23,14.4443989 22.2311068,16.7161614 20.7962913,18.6049133 L20.7962913,18.6049133 L20.8576294,18.522177 C20.8939836,18.4740067 20.8989411,18.4780467 20.9137928,18.5363103 L20.9137928,18.5363103 L20.9479132,18.6523115 C21.0151135,18.8565428 21.1334364,19.1137028 21.2947487,19.4005296 C21.6722901,20.0718299 22.2437931,20.8295796 22.7071068,21.2928932 C23.2955244,21.8813108 22.949757,22.8890626 22.1240347,22.9922779 C20.1769035,23.2356693 18.6860373,23.0142737 17.2907679,22.4519065 C17.265416,22.4416884 17.2367915,22.4298434 17.2056498,22.416732 L17.2056498,22.416732 L16.2496476,21.9938978 L16.2414883,21.9861231 L16.0395233,22.0733447 C14.7056939,22.6378157 13.5484661,22.9460711 12.3330856,22.993527 L12.3330856,22.993527 L12,23 C5.92486775,23 1,18.0751322 1,12 C1,5.92486775 5.92486775,1 12,1 Z M12.6128994,9.20970461 C12.2206082,8.90467972 11.6533772,8.93240926 11.2928932,9.29289322 L11.2928932,9.29289322 L7.29289322,13.2928932 L7.20970461,13.3871006 C6.90467972,13.7793918 6.93240926,14.3466228 7.29289322,14.7071068 L7.29289322,14.7071068 L7.38710056,14.7902954 C7.77939176,15.0953203 8.34662282,15.0675907 8.70710678,14.7071068 L8.70710678,14.7071068 L12,11.415 L15.2928932,14.7071068 L15.3871006,14.7902954 C15.7793918,15.0953203 16.3466228,15.0675907 16.7071068,14.7071068 C17.0976311,14.3165825 17.0976311,13.6834175 16.7071068,13.2928932 L16.7071068,13.2928932 L12.7071068,9.29289322 Z"/>
</svg>
