<svg xmlns="http://www.w3.org/2000/svg" width="24" height="24" viewBox="0 0 24 24">
  <path d="M20.9985255,13 C21.5508102,13 21.9985255,13.4477153 21.9985255,14 L21.9985255,14 L21.9918402,14.3110594 C21.9384514,15.5513883 21.5664167,16.7427129 20.9162065,17.8094076 L20.9162065,17.8094076 L20.8770513,17.872 L21.933014,20.6440069 L21.9668042,20.7488902 C22.1516453,21.4477329 21.5392104,22.1256378 20.8053651,21.9811672 L20.8053651,21.9811672 L16.8990513,21.211 L16.5514132,21.3532561 C15.4400947,21.7775553 14.2363882,22 12.9985255,22 C10.9446052,22 8.99101053,21.3864842 7.41136433,20.2743222 C6.95977755,19.9563791 6.85143795,19.3325519 7.16938106,18.8809651 C7.48732417,18.4293783 8.11115141,18.3210387 8.56273819,18.6389818 C9.80394242,19.5128611 11.3551199,20 12.9985255,20 C14.1899455,20 15.3355202,19.7445077 16.35543,19.2648063 L16.35543,19.2648063 L16.4737657,19.2180906 C16.634702,19.1661246 16.8069104,19.1556111 16.9742014,19.1885453 L16.9742014,19.1885453 L19.4220513,19.67 L18.8240458,18.1009931 L18.7868062,17.9811553 C18.7180421,17.698335 18.7756659,17.396977 18.9489613,17.1579809 C19.6331557,16.2143909 19.9985255,15.1300601 19.9985255,14 C19.9985255,13.4477153 20.4462407,13 20.9985255,13 Z M11,2 C15.9430905,2 20,5.54980531 20,10 C20,14.4502066 15.9430971,18 11,18 C9.76213722,18 8.55843079,17.7775553 7.44711221,17.3532561 L7.44711221,17.3532561 L7.099,17.211 L3.19316037,17.9811672 C2.45931503,18.1256378 1.84688019,17.4477329 2.03172121,16.7488902 L2.03172121,16.7488902 L2.06551142,16.6440069 L3.121,13.871 L3.08231899,13.8094076 C2.43210877,12.7427129 2.06007402,11.5513883 2.0066853,10.3110594 L2.0066853,10.3110594 L2,10 C2,5.54981528 6.0569333,2 11,2 Z M11,4 C7.10651252,4 4,6.71819741 4,10 C4,11.1300601 4.36536979,12.2143909 5.04956419,13.1579809 C5.24761604,13.4311193 5.29458668,13.78571 5.17447969,14.1009931 L5.17447969,14.1009931 L4.576,15.67 L7.02432407,15.1885453 C7.19161509,15.1556111 7.36382345,15.1661246 7.52475971,15.2180906 L7.52475971,15.2180906 L7.64309542,15.2648063 C8.66300527,15.7445077 9.80857994,16 11,16 C14.8935174,16 18,13.2818251 18,10 C18,6.71818589 14.8935102,4 11,4 Z"/>
</svg>
