<svg xmlns="http://www.w3.org/2000/svg" width="24" height="24" viewBox="0 0 24 24">
  <path d="M12,1 C18.0751322,1 23,5.92486775 23,12 C23,14.4443989 22.2311068,16.7161614 20.7962913,18.6049133 L20.7962913,18.6049133 L20.8576294,18.522177 C20.8939836,18.4740067 20.8989411,18.4780467 20.9137928,18.5363103 L20.9137928,18.5363103 L20.9479132,18.6523115 C21.0151135,18.8565428 21.1334364,19.1137028 21.2947487,19.4005296 C21.6722901,20.0718299 22.2437931,20.8295796 22.7071068,21.2928932 C23.2955244,21.8813108 22.949757,22.8890626 22.1240347,22.9922779 C20.1769035,23.2356693 18.6860373,23.0142737 17.2907679,22.4519065 C17.265416,22.4416884 17.2367915,22.4298434 17.2056498,22.416732 L17.2056498,22.416732 L16.2496476,21.9938978 L16.2414883,21.9861231 L16.0395233,22.0733447 C14.7056939,22.6378157 13.5484661,22.9460711 12.3330856,22.993527 L12.3330856,22.993527 L12,23 C5.92486775,23 1,18.0751322 1,12 C1,5.92486775 5.92486775,1 12,1 Z M12,3 C7.02943725,3 3,7.02943725 3,12 C3,16.9705627 7.02943725,21 12,21 C13.124131,21 14.2097984,20.7044338 15.5921501,20.086951 C16.068084,19.8743561 16.4905614,19.935306 17.0208429,20.1494778 C17.1157819,20.187822 17.5446097,20.3831789 17.8347374,20.5101192 L17.8347374,20.5101192 L18.0384285,20.5969123 C18.583644,20.8166629 19.1439075,20.9692555 19.7674274,21.0419653 L19.7674274,21.0419653 L19.932,21.057 L19.8454343,20.927457 C19.032273,19.6703676 18.6120231,18.3592407 19.1204177,17.5177263 L19.1204177,17.5177263 L19.2037087,17.3950867 C20.3748506,15.8534274 21,14.0063687 21,12 C21,7.02943725 16.9705627,3 12,3 Z M17.777,11.371 L17.781,11.375 L17.779,11.374 L17.7818534,11.3764773 L17.8135366,11.4182204 L17.8135366,11.4182204 C17.8274737,11.4377852 17.8410808,11.4583066 17.8539326,11.4793398 C17.8622728,11.4928304 17.8701389,11.5064305 17.8776583,11.5201698 C17.8868931,11.5371537 17.8959557,11.5549095 17.9044938,11.5729619 C17.9140881,11.5932325 17.9226898,11.613165 17.930613,11.6333026 C17.9375547,11.6508514 17.9440997,11.6689468 17.9501291,11.6872762 C17.9551048,11.7025958 17.9598259,11.7182588 17.9641549,11.734007 C17.9701664,11.7555635 17.9753602,11.7772539 17.9798348,11.7992059 C17.9832978,11.8166247 17.9863719,11.834051 17.9889822,11.8515331 C17.991899,11.8705796 17.994252,11.8903051 17.9960225,11.9101982 L17.9982669,11.9409686 L17.9982669,11.9409686 L17.9998167,11.9806591 C17.9999387,11.9870914 18,11.9935385 18,12 L17.999,12.0181458 L17.9982669,12.0590314 L17.9972736,12.0740195 L17.9972736,12.0740195 L17.997,12.075 L17.9889807,12.1489612 L17.9889807,12.1489612 C17.9863441,12.1661068 17.9832818,12.1834538 17.9797599,12.2007258 C17.9753602,12.2227461 17.9701664,12.2444365 17.964279,12.2658396 C17.9599023,12.2814633 17.9552713,12.2968513 17.9502619,12.3121425 C17.9438775,12.3317977 17.9366843,12.3515792 17.928896,12.3710585 L17.9063266,12.4232215 L17.9063266,12.4232215 C17.897529,12.4419547 17.8881407,12.4604898 17.8782035,12.4786822 C17.8701866,12.4935488 17.8613648,12.5087703 17.8521085,12.5238 C17.8384932,12.5456983 17.8245831,12.5664533 17.8099369,12.5866395 C17.8037205,12.5953343 17.7970905,12.6041603 17.7902954,12.6128994 C17.7848777,12.6197272 17.7826022,12.6225945 17.7803112,12.625449 L17.7071068,12.7071068 L14.0502525,16.363961 C13.6597282,16.7544853 13.0265633,16.7544853 12.636039,16.363961 C12.275555,16.0034771 12.2478255,15.436246 12.5528504,15.0439548 L12.636039,14.9497475 L14.586,12.9991458 L7,13 C6.44771525,13 6,12.5522847 6,12 C6,11.4871642 6.38604019,11.0644928 6.88337887,11.0067277 L7,11 L14.586,10.9991458 L12.636039,9.05025253 C12.2455147,8.65972824 12.2455147,8.02656326 12.636039,7.63603897 C12.9965229,7.27555501 13.563754,7.24782547 13.9560452,7.55285036 L14.0502525,7.63603897 L17.7071068,11.2928932 L17.7633128,11.3538862 L17.7633128,11.3538862 L17.774,11.367 L17.761,11.353 L17.777,11.371 Z"/>
</svg>
