<svg xmlns="http://www.w3.org/2000/svg" width="24" height="24" viewBox="0 0 24 24">
  <path d="M14,3 C15.6568542,3 17,4.34314575 17,6 L17,6 L17,8 L19,8 L19.1762728,8.00509269 C20.75108,8.09633912 22,9.40231912 22,11 L22,11 L22,16 L21.9949073,16.1762728 C21.9036609,17.75108 20.5976809,19 19,19 L19,19 L19,20 L18.9940651,20.1118423 C18.9157358,20.8419811 18.0782091,21.2539898 17.4452998,20.8320503 L17.4452998,20.8320503 L14.698,19 L12,19 L11.8237272,18.9949073 C10.24892,18.9036609 9,17.5976809 9,16 L9,16 L9,15.999 L6.6,17.8 C6.00219258,18.2483556 5.17287969,17.9033301 5.0235166,17.2206512 L5.00571639,17.1101203 L5,17 L5,15 C3.34314575,15 2,13.6568542 2,12 L2,12 L2,6 C2,4.34314575 3.34314575,3 5,3 L5,3 Z M17,12 C17,13.6568542 15.6568542,15 14,15 L14,15 L11,14.999 L11,16 L11.0067277,16.1166211 C11.0644928,16.6139598 11.4871642,17 12,17 L12,17 L15,17 L15.1177303,17.0069536 C15.2734785,17.0254182 15.4232862,17.0803404 15.5547002,17.1679497 L15.5547002,17.1679497 L17,18.13 L17,18 L17.0067277,17.8833789 C17.0644928,17.3860402 17.4871642,17 18,17 L18,17 L19,17 L19.1166211,16.9932723 C19.6139598,16.9355072 20,16.5128358 20,16 L20,16 L20,11 L19.9932723,10.8833789 C19.9355072,10.3860402 19.5128358,10 19,10 L19,10 L17,10 Z"/>
</svg>
