<svg xmlns="http://www.w3.org/2000/svg" width="24" height="24" viewBox="0 0 24 24">
  <path d="M12,3 C6.50167258,3 2,7.00148521 2,12 L2.00649023,12.3270636 C2.06264808,13.7402307 2.48206189,15.0977235 3.2187085,16.3113565 L3.279,16.406 L2.06366999,19.6488788 L2.03046132,19.7538073 C1.84939874,20.4527623 2.46362458,21.1270737 3.19610938,20.980582 L7.624,20.094 L7.31355093,19.953395 C8.74551094,20.6375895 10.3450945,21 12,21 C17.4983616,21 22,16.9985398 22,12 C22,7.00147369 17.4983542,3 12,3 Z M12,5 C16.4428216,5 20,8.16194482 20,12 C20,15.8380678 16.4428297,19 12,19 C10.6434432,19 9.33847376,18.7043389 8.17578907,18.148805 L8.05599007,18.1007935 C7.89296803,18.0473873 7.71819369,18.0365926 7.54856062,18.070518 L4.568,18.666 L5.33132001,16.6311212 C5.44820622,16.3194224 5.40232074,15.9699947 5.20892293,15.6990412 C4.42146904,14.5958053 4,13.325131 4,12 C4,8.16195786 7.55720396,5 12,5 Z"/>
</svg>
