<svg xmlns="http://www.w3.org/2000/svg" width="24" height="24" viewBox="0 0 24 24">
  <path d="M12,1 C18.0751322,1 23,5.92486775 23,12 C23,14.4443989 22.2311068,16.7161614 20.7962913,18.6049133 L20.7962913,18.6049133 L20.8576294,18.522177 C20.8939836,18.4740067 20.8989411,18.4780467 20.9137928,18.5363103 L20.9137928,18.5363103 L20.9479132,18.6523115 C21.0151135,18.8565428 21.1334364,19.1137028 21.2947487,19.4005296 C21.6722901,20.0718299 22.2437931,20.8295796 22.7071068,21.2928932 C23.2955244,21.8813108 22.949757,22.8890626 22.1240347,22.9922779 C20.1769035,23.2356693 18.6860373,23.0142737 17.2907679,22.4519065 C17.265416,22.4416884 17.2367915,22.4298434 17.2056498,22.416732 L17.2056498,22.416732 L16.2496476,21.9938978 L16.2414883,21.9861231 L16.0395233,22.0733447 C14.7056939,22.6378157 13.5484661,22.9460711 12.3330856,22.993527 L12.3330856,22.993527 L12,23 C5.92486775,23 1,18.0751322 1,12 C1,5.92486775 5.92486775,1 12,1 Z M17.6616337,7.25017421 C17.2475097,6.88477067 16.6155778,6.92426642 16.2501742,7.33839043 L16.2501742,7.33839043 L9.94101207,14.4880121 L7.74984993,12.0050571 L7.66101521,11.916154 C7.28851489,11.5872527 6.72065875,11.5795453 6.33839043,11.9168409 C5.92426642,12.2822444 5.88477067,12.9141764 6.25017421,13.3283004 L6.25017421,13.3283004 L9.19135068,16.6616337 L9.28110804,16.7514076 C9.68838348,17.110503 10.3213694,17.0805783 10.6910264,16.6616337 L10.6910264,16.6616337 L17.7498499,8.66163371 L17.827,8.56242067 C18.1069605,8.15186649 18.043902,7.58746979 17.6616337,7.25017421 Z"/>
</svg>
