<svg xmlns="http://www.w3.org/2000/svg" width="24" height="24" viewBox="0 0 24 24">
  <path d="M12,1 C18.0751322,1 23,5.92486775 23,12 C23,14.4443989 22.2311068,16.7161614 20.7962913,18.6049133 L20.7962913,18.6049133 L20.8576294,18.522177 C20.8939836,18.4740067 20.8989411,18.4780467 20.9137928,18.5363103 L20.9137928,18.5363103 L20.9479132,18.6523115 C21.0151135,18.8565428 21.1334364,19.1137028 21.2947487,19.4005296 C21.6722901,20.0718299 22.2437931,20.8295796 22.7071068,21.2928932 C23.2955244,21.8813108 22.949757,22.8890626 22.1240347,22.9922779 C20.1769035,23.2356693 18.6860373,23.0142737 17.2907679,22.4519065 C17.265416,22.4416884 17.2367915,22.4298434 17.2056498,22.416732 L17.2056498,22.416732 L16.2496476,21.9938978 L16.2414883,21.9861231 L16.0395233,22.0733447 C14.7056939,22.6378157 13.5484661,22.9460711 12.3330856,22.993527 L12.3330856,22.993527 L12,23 C5.92486775,23 1,18.0751322 1,12 C1,5.92486775 5.92486775,1 12,1 Z M13.7071068,7.29289322 C13.3165825,6.90236893 12.6834175,6.90236893 12.2928932,7.29289322 L12.2928932,7.29289322 L8.29289322,11.2928932 L8.20970461,11.3871006 C7.90467972,11.7793918 7.93240926,12.3466228 8.29289322,12.7071068 L8.29289322,12.7071068 L12.2928932,16.7071068 L12.3871006,16.7902954 C12.7793918,17.0953203 13.3466228,17.0675907 13.7071068,16.7071068 L13.7071068,16.7071068 L13.7902954,16.6128994 C14.0953203,16.2206082 14.0675907,15.6533772 13.7071068,15.2928932 L13.7071068,15.2928932 L10.415,12 L13.7071068,8.70710678 L13.7902954,8.61289944 C14.0953203,8.22060824 14.0675907,7.65337718 13.7071068,7.29289322 Z"/>
</svg>
