<svg xmlns="http://www.w3.org/2000/svg" width="24" height="24" viewBox="0 0 24 24">
  <path d="M12,1 C18.0751322,1 23,5.92486775 23,12 C23,14.4443989 22.2311068,16.7161614 20.7962913,18.6049133 L20.7962913,18.6049133 L20.8576294,18.522177 C20.8939836,18.4740067 20.8989411,18.4780467 20.9137928,18.5363103 L20.9137928,18.5363103 L20.9479132,18.6523115 C21.0151135,18.8565428 21.1334364,19.1137028 21.2947487,19.4005296 C21.6722901,20.0718299 22.2437931,20.8295796 22.7071068,21.2928932 C23.2955244,21.8813108 22.949757,22.8890626 22.1240347,22.9922779 C20.1769035,23.2356693 18.6860373,23.0142737 17.2907679,22.4519065 C17.265416,22.4416884 17.2367915,22.4298434 17.2056498,22.416732 L17.2056498,22.416732 L16.2496476,21.9938978 L16.2414883,21.9861231 L16.0395233,22.0733447 C14.7056939,22.6378157 13.5484661,22.9460711 12.3330856,22.993527 L12.3330856,22.993527 L12,23 C5.92486775,23 1,18.0751322 1,12 C1,5.92486775 5.92486775,1 12,1 Z M12,3 C7.02943725,3 3,7.02943725 3,12 C3,16.9705627 7.02943725,21 12,21 C13.124131,21 14.2097984,20.7044338 15.5921501,20.086951 C16.068084,19.8743561 16.4905614,19.935306 17.0208429,20.1494778 C17.1157819,20.187822 17.5446097,20.3831789 17.8347374,20.5101192 L17.8347374,20.5101192 L18.0384285,20.5969123 C18.583644,20.8166629 19.1439075,20.9692555 19.7674274,21.0419653 L19.7674274,21.0419653 L19.932,21.057 L19.8454343,20.927457 C19.032273,19.6703676 18.6120231,18.3592407 19.1204177,17.5177263 L19.1204177,17.5177263 L19.2037087,17.3950867 C20.3748506,15.8534274 21,14.0063687 21,12 C21,7.02943725 16.9705627,3 12,3 Z M6.2366872,11.3538862 L6.29289322,11.2928932 L9.94974747,7.63603897 L10.0439548,7.55285036 C10.436246,7.24782547 11.0034771,7.27555501 11.363961,7.63603897 C11.7544853,8.02656326 11.7544853,8.65972824 11.363961,9.05025253 L11.363961,9.05025253 L9.414,10.9991458 L17,11 L17.1166211,11.0067277 C17.6139598,11.0644928 18,11.4871642 18,12 C18,12.5522847 17.5522847,13 17,13 L17,13 L9.414,12.9991458 L11.363961,14.9497475 L11.4471496,15.0439548 C11.7521745,15.436246 11.724445,16.0034771 11.363961,16.363961 C10.9734367,16.7544853 10.3402718,16.7544853 9.94974747,16.363961 L9.94974747,16.363961 L6.29289322,12.7071068 L6.21968877,12.625449 C6.21739784,12.6225945 6.21512226,12.6197272 6.20970461,12.6128994 C6.2029095,12.6041603 6.19627953,12.5953343 6.19006311,12.5866395 C6.17541687,12.5664533 6.16150681,12.5456983 6.14789148,12.5238 C6.13863517,12.5087703 6.12981337,12.4935488 6.12179647,12.4786822 C6.11185933,12.4604898 6.10247102,12.4419547 6.09367336,12.4232215 L6.09367336,12.4232215 L6.07110396,12.3710585 C6.06331574,12.3515792 6.05612249,12.3317977 6.04973809,12.3121425 C6.04472872,12.2968513 6.04009773,12.2814633 6.03572097,12.2658396 C6.02983363,12.2444365 6.0246398,12.2227461 6.02024007,12.2007258 C6.01671819,12.1834538 6.01365592,12.1661068 6.01101934,12.1489612 L6.01101934,12.1489612 L6.003,12.081 L6.002,12.059 L6.002,12.074 L6.0017331,12.0590314 L6.001,12.038 L6,12 L6.0001833,11.9806591 L6.0017331,11.9409686 L6.0017331,11.9409686 L6.00397748,11.9101982 C6.00574796,11.8903051 6.00810098,11.8705796 6.0110178,11.8515331 C6.01362808,11.834051 6.01670217,11.8166247 6.02016515,11.7992059 C6.0246398,11.7772539 6.02983363,11.7555635 6.03584514,11.734007 C6.04017413,11.7182588 6.04489522,11.7025958 6.04987089,11.6872762 C6.0559003,11.6689468 6.06244532,11.6508514 6.06938695,11.6333026 C6.07731015,11.613165 6.08591191,11.5932325 6.09550623,11.5729619 C6.1040443,11.5549095 6.1131069,11.5371537 6.12234168,11.5201698 C6.12986112,11.5064305 6.13772719,11.4928304 6.14606743,11.4793398 C6.15891923,11.4583066 6.17252629,11.4377852 6.1864634,11.4182204 L6.1864634,11.4182204 L6.218,11.376 L6.22,11.374 L6.218,11.375 L6.222,11.371 L6.238,11.353 L6.225,11.367 L6.2366872,11.3538862 L6.2366872,11.3538862 Z"/>
</svg>
