<svg xmlns="http://www.w3.org/2000/svg" width="24" height="24" viewBox="0 0 24 24">
  <path d="M14,3 C15.6568542,3 17,4.34314575 17,6 L17,6 L17,8 L19,8 L19.1762728,8.00509269 C20.75108,8.09633912 22,9.40231912 22,11 L22,11 L22,16 L21.9949073,16.1762728 C21.9036609,17.75108 20.5976809,19 19,19 L19,19 L19,20 L18.9940651,20.1118423 C18.9157358,20.8419811 18.0782091,21.2539898 17.4452998,20.8320503 L17.4452998,20.8320503 L14.698,19 L12,19 L11.8237272,18.9949073 C10.24892,18.9036609 9,17.5976809 9,16 L9,16 L9,15.999 L6.6,17.8 C6.00219258,18.2483556 5.17287969,17.9033301 5.0235166,17.2206512 L5.00571639,17.1101203 L5,17 L5,15 C3.34314575,15 2,13.6568542 2,12 L2,12 L2,6 C2,4.34314575 3.34314575,3 5,3 L5,3 Z M17,12 C17,13.6568542 15.6568542,15 14,15 L14,15 L11,14.999 L11,16 L11.0067277,16.1166211 C11.0644928,16.6139598 11.4871642,17 12,17 L12,17 L15,17 L15.1177303,17.0069536 C15.2734785,17.0254182 15.4232862,17.0803404 15.5547002,17.1679497 L15.5547002,17.1679497 L17,18.13 L17,18 L17.0067277,17.8833789 C17.0644928,17.3860402 17.4871642,17 18,17 L18,17 L19,17 L19.1166211,16.9932723 C19.6139598,16.9355072 20,16.5128358 20,16 L20,16 L20,11 L19.9932723,10.8833789 C19.9355072,10.3860402 19.5128358,10 19,10 L19,10 L17,10 Z M14,5 L5,5 C4.44771525,5 4,5.44771525 4,6 L4,6 L4,12 C4,12.5522847 4.44771525,13 5,13 L5,13 L6,13 C6.55228475,13 7,13.4477153 7,14 L7,14 L7,15 L9.4,13.2 C9.40576987,13.1956726 9.41158134,13.1914115 9.41743324,13.187217 C9.44361915,13.168342 9.47034236,13.1510311 9.49790161,13.1349995 C9.5057093,13.1306531 9.51372543,13.1261441 9.52179731,13.121749 C9.54739109,13.1075698 9.57375044,13.0946523 9.60072935,13.0828904 C9.61336949,13.0776669 9.62579393,13.0725569 9.63831326,13.0677001 C9.6687462,13.0555928 9.70012302,13.0451585 9.73214578,13.0362774 C9.77754893,13.0239096 9.82404229,13.0144563 9.87113107,13.0083371 L9.74932378,13.0316787 C9.78711218,13.0219243 9.82576632,13.0143235 9.86514749,13.009015 L9.87113107,13.0083371 C9.9140643,13.0027506 9.95671093,13 10,13 L9.946,13.003 L10,13 L14,13 C14.5522847,13 15,12.5522847 15,12 L15,12 L15,6 C15,5.44771525 14.5522847,5 14,5 L14,5 Z"/>
</svg>
