<svg xmlns="http://www.w3.org/2000/svg" width="24" height="24" viewBox="0 0 24 24">
  <path d="M12,1 C18.0751322,1 23,5.92486775 23,12 C23,14.4443989 22.2311068,16.7161614 20.7962913,18.6049133 L20.7962913,18.6049133 L20.8576294,18.522177 C20.8939836,18.4740067 20.8989411,18.4780467 20.9137928,18.5363103 L20.9137928,18.5363103 L20.9479132,18.6523115 C21.0151135,18.8565428 21.1334364,19.1137028 21.2947487,19.4005296 C21.6722901,20.0718299 22.2437931,20.8295796 22.7071068,21.2928932 C23.2955244,21.8813108 22.949757,22.8890626 22.1240347,22.9922779 C20.1769035,23.2356693 18.6860373,23.0142737 17.2907679,22.4519065 C17.265416,22.4416884 17.2367915,22.4298434 17.2056498,22.416732 L17.2056498,22.416732 L16.2496476,21.9938978 L16.2414883,21.9861231 L16.0395233,22.0733447 C14.7056939,22.6378157 13.5484661,22.9460711 12.3330856,22.993527 L12.3330856,22.993527 L12,23 C5.92486775,23 1,18.0751322 1,12 C1,5.92486775 5.92486775,1 12,1 Z M12,3 C7.02943725,3 3,7.02943725 3,12 C3,16.9705627 7.02943725,21 12,21 C13.124131,21 14.2097984,20.7044338 15.5921501,20.086951 C16.068084,19.8743561 16.4905614,19.935306 17.0208429,20.1494778 C17.1157819,20.187822 17.5446097,20.3831789 17.8347374,20.5101192 L17.8347374,20.5101192 L18.0384285,20.5969123 C18.583644,20.8166629 19.1439075,20.9692555 19.7674274,21.0419653 L19.7674274,21.0419653 L19.932,21.057 L19.8454343,20.927457 C19.032273,19.6703676 18.6120231,18.3592407 19.1204177,17.5177263 L19.1204177,17.5177263 L19.2037087,17.3950867 C20.3748506,15.8534274 21,14.0063687 21,12 C21,7.02943725 16.9705627,3 12,3 Z M16.5606602,14.4393398 C17.1464466,15.0251263 17.1464466,15.9748737 16.5606602,16.5606602 C15.9748737,17.1464466 15.0251263,17.1464466 14.4393398,16.5606602 C13.8535534,15.9748737 13.8535534,15.0251263 14.4393398,14.4393398 C15.0251263,13.8535534 15.9748737,13.8535534 16.5606602,14.4393398 Z M16.7071068,7.29289322 C17.0675907,7.65337718 17.0953203,8.22060824 16.7902954,8.61289944 L16.7071068,8.70710678 L8.70710678,16.7071068 C8.31658249,17.0976311 7.68341751,17.0976311 7.29289322,16.7071068 C6.93240926,16.3466228 6.90467972,15.7793918 7.20970461,15.3871006 L7.29289322,15.2928932 L15.2928932,7.29289322 C15.6834175,6.90236893 16.3165825,6.90236893 16.7071068,7.29289322 Z M9.56066017,7.43933983 C10.1464466,8.02512627 10.1464466,8.97487373 9.56066017,9.56066017 C8.97487373,10.1464466 8.02512627,10.1464466 7.43933983,9.56066017 C6.85355339,8.97487373 6.85355339,8.02512627 7.43933983,7.43933983 C8.02512627,6.85355339 8.97487373,6.85355339 9.56066017,7.43933983 Z"/>
</svg>
