<svg xmlns="http://www.w3.org/2000/svg" width="24" height="24" viewBox="0 0 24 24">
  <path d="M12,1 C18.0751322,1 23,5.92486775 23,12 C23,14.4443989 22.2311068,16.7161614 20.7962913,18.6049133 L20.7962913,18.6049133 L20.8576294,18.522177 C20.8939836,18.4740067 20.8989411,18.4780467 20.9137928,18.5363103 L20.9137928,18.5363103 L20.9479132,18.6523115 C21.0151135,18.8565428 21.1334364,19.1137028 21.2947487,19.4005296 C21.6722901,20.0718299 22.2437931,20.8295796 22.7071068,21.2928932 C23.2955244,21.8813108 22.949757,22.8890626 22.1240347,22.9922779 C20.1769035,23.2356693 18.6860373,23.0142737 17.2907679,22.4519065 C17.265416,22.4416884 17.2367915,22.4298434 17.2056498,22.416732 L17.2056498,22.416732 L16.2496476,21.9938978 L16.2414883,21.9861231 L16.0395233,22.0733447 C14.7056939,22.6378157 13.5484661,22.9460711 12.3330856,22.993527 L12.3330856,22.993527 L12,23 C5.92486775,23 1,18.0751322 1,12 C1,5.92486775 5.92486775,1 12,1 Z M12.4425657,6.36281539 C11.9473121,6.11839309 11.3476862,6.32173209 11.1032639,6.81698575 L11.1032639,6.81698575 L9.94275162,9.16844052 L7.34776721,9.54551383 C7.13013018,9.57713834 6.92898777,9.67962551 6.77547916,9.83710915 C6.38997795,10.2325927 6.39807026,10.865706 6.79355384,11.2512072 L6.79355384,11.2512072 L8.67130219,13.0815595 L8.22802594,15.6660584 C8.19084909,15.882816 8.22616377,16.1057841 8.32850284,16.3004446 C8.58550365,16.7892891 9.1901308,16.9772357 9.67897539,16.7202349 L9.67897539,16.7202349 L12,15.5 L14.3210246,16.7202349 C14.5156851,16.8225739 14.7386532,16.8578886 14.9554108,16.8207118 C15.4997472,16.7273507 15.8653351,16.2103948 15.7719741,15.6660584 L15.7719741,15.6660584 L15.3286978,13.0815595 L17.2064462,11.2512072 C17.3639298,11.0976986 17.466417,10.8965562 17.4980415,10.6789192 C17.5774591,10.1323743 17.1987777,9.62493144 16.6522328,9.54551383 L16.6522328,9.54551383 L14.0572484,9.16844052 L12.8967361,6.81698575 C12.7994058,6.61977315 12.6397783,6.46014562 12.4425657,6.36281539 Z"/>
</svg>
