<svg xmlns="http://www.w3.org/2000/svg" width="24" height="24" viewBox="0 0 24 24">
  <path d="M20.8576294,18.522177 L20.7962913,18.6049133 C22.2311068,16.7161614 23,14.4443989 23,12 C23,5.92486775 18.0751322,1 12,1 C5.92486775,1 1,5.92486775 1,12 C1,18.0751322 5.92486775,23 12,23 L12.3330856,22.993527 C13.5484661,22.9460711 14.7056939,22.6378157 16.0395233,22.0733447 L16.2414883,21.9861231 L16.2496476,21.9938978 L17.2056498,22.416732 C17.2367915,22.4298434 17.265416,22.4416884 17.2907679,22.4519065 C18.6860373,23.0142737 20.1769035,23.2356693 22.1240347,22.9922779 C22.949757,22.8890626 23.2955244,21.8813108 22.7071068,21.2928932 C22.2437931,20.8295796 21.6722901,20.0718299 21.2947487,19.4005296 C21.1334364,19.1137028 21.0151135,18.8565428 20.9479132,18.6523115 L20.9137928,18.5363103 C20.8989411,18.4780467 20.8939836,18.4740067 20.8576294,18.522177 Z"/>
</svg>
