<svg xmlns="http://www.w3.org/2000/svg" width="24" height="24" viewBox="0 0 24 24">
  <path d="M12,1 C18.0751322,1 23,5.92486775 23,12 C23,14.4443989 22.2311068,16.7161614 20.7962913,18.6049133 L20.7962913,18.6049133 L20.8576294,18.522177 C20.8939836,18.4740067 20.8989411,18.4780467 20.9137928,18.5363103 L20.9137928,18.5363103 L20.9479132,18.6523115 C21.0151135,18.8565428 21.1334364,19.1137028 21.2947487,19.4005296 C21.6722901,20.0718299 22.2437931,20.8295796 22.7071068,21.2928932 C23.2955244,21.8813108 22.949757,22.8890626 22.1240347,22.9922779 C20.1769035,23.2356693 18.6860373,23.0142737 17.2907679,22.4519065 C17.265416,22.4416884 17.2367915,22.4298434 17.2056498,22.416732 L17.2056498,22.416732 L16.2496476,21.9938978 L16.2414883,21.9861231 L16.0395233,22.0733447 C14.7056939,22.6378157 13.5484661,22.9460711 12.3330856,22.993527 L12.3330856,22.993527 L12,23 C5.92486775,23 1,18.0751322 1,12 C1,5.92486775 5.92486775,1 12,1 Z M12,15 C11.4477153,15 11,15.4477153 11,16 C11,16.5522847 11.4477153,17 12,17 C12.5522847,17 13,16.5522847 13,16 C13,15.4477153 12.5522847,15 12,15 Z M12.1,7 C11,7 10,7.6 9.5,8.5 L9.5,8.5 L9.47382857,8.54710857 L9.42052358,8.6585764 C9.23714337,9.11159999 9.40918266,9.64069568 9.84096572,9.89468572 L9.84096572,9.89468572 L9.85,9.9 L9.95782931,9.95473156 C10.3968515,10.1440978 10.9184586,9.98130389 11.1671582,9.55851454 C11.1711627,9.55170695 11.1750832,9.54485031 11.1789188,9.53794618 L11.1789188,9.53794618 L11.2,9.5 L11.2796875,9.39238281 C11.4765625,9.153125 11.75,9 12.1,9 C12.7,9 13.1,9.3 13.1,9.9 C13.1,10.2 13,10.4 12.5,10.7 C11.9,11.1 11,11.7 11,13 L11,13 L11,14 L13,14 L13,13 L13.0027047,12.9477085 C13.0214876,12.7801653 13.1454545,12.6727273 13.6,12.4 C14.2,12 15.1,11.4 15.1,10 C15.1,8.3 13.8,7 12.1,7 Z"/>
</svg>
