<svg xmlns="http://www.w3.org/2000/svg" width="24" height="24" viewBox="0 0 24 24">
  <path d="M21.7510462,12.1253458 C21.9127047,12.725148 21.998442,13.35306 21.998442,14 L21.9917567,14.3110594 C21.9383679,15.5513883 21.5663332,16.7427129 20.916123,17.8094076 L20.877442,17.871 L21.9329305,20.6440069 L21.9667207,20.7488902 C22.1515618,21.4477329 21.5391269,22.1256378 20.8052816,21.9811672 L16.899442,21.211 L16.5513297,21.3532561 C15.4400112,21.7775553 14.2363047,22 12.998442,22 C10.0734816,22 7.4588133,20.7570755 5.81136662,18.8201436 C7.35744893,19.5730132 9.12387401,20 11,20 C16.2728826,20 20.6792374,16.6272309 21.7510462,12.1253458 Z M11,2 C15.9430905,2 20,5.54980531 20,10 C20,14.4502066 15.9430971,18 11,18 C9.76213722,18 8.55843079,17.7775553 7.44711221,17.3532561 L7.44711221,17.3532561 L7.099,17.211 L3.19316037,17.9811672 C2.45931503,18.1256378 1.84688019,17.4477329 2.03172121,16.7488902 L2.03172121,16.7488902 L2.06551142,16.6440069 L3.121,13.871 L3.08231899,13.8094076 C2.43210877,12.7427129 2.06007402,11.5513883 2.0066853,10.3110594 L2.0066853,10.3110594 L2,10 C2,5.54981528 6.0569333,2 11,2 Z"/>
</svg>
