<svg xmlns="http://www.w3.org/2000/svg" width="24" height="24" viewBox="0 0 24 24">
  <path d="M14,9 C15.0543618,9 15.9181651,9.81587779 15.9945143,10.8507377 L16,11 L16,17 C16,18.0543618 15.1841222,18.9181651 14.1492623,18.9945143 L14,19 L7.999,19 L5.28033009,21.7196699 C5.1396778,21.8603222 4.94891237,21.9393398 4.75,21.9393398 C4.37030423,21.9393398 4.05650904,21.6571859 4.00684662,21.2911104 L4,21.1893398 L4,19 C2.9456382,19 2.08183488,18.1841222 2.00548574,17.1492623 L2,17 L2,11 C2,9.9456382 2.81587779,9.08183488 3.85073766,9.00548574 L4,9 L14,9 Z M14,11 L4,11 L4,17 L14,17 L14,11 Z M6,13 C6.55228475,13 7,13.4477153 7,14 C7,14.5522847 6.55228475,15 6,15 C5.44771525,15 5,14.5522847 5,14 C5,13.4477153 5.44771525,13 6,13 Z M9,13 C9.55228475,13 10,13.4477153 10,14 C10,14.5522847 9.55228475,15 9,15 C8.44771525,15 8,14.5522847 8,14 C8,13.4477153 8.44771525,13 9,13 Z M12,13 C12.5522847,13 13,13.4477153 13,14 C13,14.5522847 12.5522847,15 12,15 C11.4477153,15 11,14.5522847 11,14 C11,13.4477153 11.4477153,13 12,13 Z M20,3 C21.1045695,3 22,3.8954305 22,5 L22,11 C22,12.1045695 21.1045695,13 20,13 L18,13 L18,9 C18,7.9456382 17.1841222,7.08183488 16.1492623,7.00548574 L16,7 L10,7 L10,5 C10,3.8954305 10.8954305,3 12,3 L20,3 Z"/>
</svg>
