<svg xmlns="http://www.w3.org/2000/svg" width="24" height="24" viewBox="0 0 24 24">
  <path d="M14,9 C15.1045695,9 16,9.8954305 16,11 L16,17 C16,18.1045695 15.1045695,19 14,19 L8,19 L5.28033009,21.7196699 C5.1396778,21.8603222 4.94891237,21.9393398 4.75,21.9393398 C4.37030423,21.9393398 4.05650904,21.6571859 4.00684662,21.2911104 L4,21.1893398 L4,19 C2.8954305,19 2,18.1045695 2,17 L2,11 C2,9.8954305 2.8954305,9 4,9 L14,9 Z M5,13 C4.44771525,13 4,13.4477153 4,14 C4,14.5522847 4.44771525,15 5,15 C5.55228475,15 6,14.5522847 6,14 C6,13.4477153 5.55228475,13 5,13 Z M9,13 C8.44771525,13 8,13.4477153 8,14 C8,14.5522847 8.44771525,15 9,15 C9.55228475,15 10,14.5522847 10,14 C10,13.4477153 9.55228475,13 9,13 Z M13,13 C12.4477153,13 12,13.4477153 12,14 C12,14.5522847 12.4477153,15 13,15 C13.5522847,15 14,14.5522847 14,14 C14,13.4477153 13.5522847,13 13,13 Z M20,3 C21.1045695,3 22,3.8954305 22,5 L22,11 C22,12.1045695 21.1045695,13 20,13 L18,13 L18,9 C18,7.9456382 17.1841222,7.08183488 16.1492623,7.00548574 L16,7 L10,7 L10,5 C10,3.8954305 10.8954305,3 12,3 L20,3 Z"/>
</svg>
