<svg xmlns="http://www.w3.org/2000/svg" width="24" height="24" viewBox="0 0 24 24">
  <path d="M12,1 C18.0751322,1 23,5.92486775 23,12 C23,14.4443989 22.2311068,16.7161614 20.7962913,18.6049133 L20.7962913,18.6049133 L20.8576294,18.522177 C20.8939836,18.4740067 20.8989411,18.4780467 20.9137928,18.5363103 L20.9137928,18.5363103 L20.9479132,18.6523115 C21.0151135,18.8565428 21.1334364,19.1137028 21.2947487,19.4005296 C21.6722901,20.0718299 22.2437931,20.8295796 22.7071068,21.2928932 C23.2955244,21.8813108 22.949757,22.8890626 22.1240347,22.9922779 C20.1769035,23.2356693 18.6860373,23.0142737 17.2907679,22.4519065 C17.265416,22.4416884 17.2367915,22.4298434 17.2056498,22.416732 L17.2056498,22.416732 L16.2496476,21.9938978 L16.2414883,21.9861231 L16.0395233,22.0733447 C14.7056939,22.6378157 13.5484661,22.9460711 12.3330856,22.993527 L12.3330856,22.993527 L12,23 C5.92486775,23 1,18.0751322 1,12 C1,5.92486775 5.92486775,1 12,1 Z M12,3 C7.02943725,3 3,7.02943725 3,12 C3,16.9705627 7.02943725,21 12,21 C13.124131,21 14.2097984,20.7044338 15.5921501,20.086951 C16.068084,19.8743561 16.4905614,19.935306 17.0208429,20.1494778 C17.1157819,20.187822 17.5446097,20.3831789 17.8347374,20.5101192 L17.8347374,20.5101192 L18.0384285,20.5969123 C18.583644,20.8166629 19.1439075,20.9692555 19.7674274,21.0419653 L19.7674274,21.0419653 L19.932,21.057 L19.8454343,20.927457 C19.032273,19.6703676 18.6120231,18.3592407 19.1204177,17.5177263 L19.1204177,17.5177263 L19.2037087,17.3950867 C20.3748506,15.8534274 21,14.0063687 21,12 C21,7.02943725 16.9705627,3 12,3 Z M12,6 C12.5522847,6 13,6.44771525 13,7 L13,7 L12.9991458,14.586 L14.9497475,12.636039 L15.0439548,12.5528504 C15.436246,12.2478255 16.0034771,12.275555 16.363961,12.636039 C16.7544853,13.0265633 16.7544853,13.6597282 16.363961,14.0502525 L16.363961,14.0502525 L12.7071068,17.7071068 L12.625449,17.7803112 C12.6225945,17.7826022 12.6197272,17.7848777 12.6128994,17.7902954 C12.6041603,17.7970905 12.5953343,17.8037205 12.5866395,17.8099369 C12.5664533,17.8245831 12.5456983,17.8384932 12.5238,17.8521085 C12.5087703,17.8613648 12.4935488,17.8701866 12.4786822,17.8782035 C12.4604898,17.8881407 12.4419547,17.897529 12.4232215,17.9063266 L12.4232215,17.9063266 L12.3710585,17.928896 C12.3515792,17.9366843 12.3317977,17.9438775 12.3121425,17.9502619 C12.2968513,17.9552713 12.2814633,17.9599023 12.2658396,17.964279 C12.2444365,17.9701664 12.2227461,17.9753602 12.2007258,17.9797599 C12.1834538,17.9832818 12.1661068,17.9863441 12.1489612,17.9889807 L12.1489612,17.9889807 L12.08,17.996 L12.027,17.999 L12.0181458,17.999 L12,18 C11.9935385,18 11.9870914,17.9999387 11.9806591,17.9998167 L11.9806591,17.9998167 L11.9409686,17.9982669 L11.9409686,17.9982669 L11.9101982,17.9960225 C11.8903051,17.994252 11.8705796,17.991899 11.8515331,17.9889822 C11.834051,17.9863719 11.8166247,17.9832978 11.7992059,17.9798348 C11.7772539,17.9753602 11.7555635,17.9701664 11.734007,17.9641549 C11.7182588,17.9598259 11.7025958,17.9551048 11.6872762,17.9501291 C11.6689468,17.9440997 11.6508514,17.9375547 11.6333026,17.930613 C11.613165,17.9226898 11.5932325,17.9140881 11.5729619,17.9044938 C11.5549095,17.8959557 11.5371537,17.8868931 11.5201698,17.8776583 C11.5064305,17.8701389 11.4928304,17.8622728 11.4793398,17.8539326 C11.4583066,17.8410808 11.4377852,17.8274737 11.4182204,17.8135366 L11.4182204,17.8135366 L11.376,17.781 L11.375,17.78 L11.375,17.781 L11.374551,17.7803112 L11.367,17.774 L11.3538862,17.7633128 L11.3538862,17.7633128 L11.2928932,17.7071068 L7.63603897,14.0502525 L7.55285036,13.9560452 C7.24782547,13.563754 7.27555501,12.9965229 7.63603897,12.636039 C8.02656326,12.2455147 8.65972824,12.2455147 9.05025253,12.636039 L9.05025253,12.636039 L10.9991458,14.586 L11,7 L11.0067277,6.88337887 C11.0644928,6.38604019 11.4871642,6 12,6 Z"/>
</svg>
