<svg xmlns="http://www.w3.org/2000/svg" width="24" height="24" viewBox="0 0 24 24">
  <path d="M17,19 C17.5522847,19 18,19.4477153 18,20 C18,20.5128358 17.6139598,20.9355072 17.1166211,20.9932723 L17,21 L7,21 C6.44771525,21 6,20.5522847 6,20 C6,19.4871642 6.38604019,19.0644928 6.88337887,19.0067277 L7,19 L17,19 Z M21,14 C21.5522847,14 22,14.4477153 22,15 C22,15.5128358 21.6139598,15.9355072 21.1166211,15.9932723 L21,16 L3,16 C2.44771525,16 2,15.5522847 2,15 C2,14.4871642 2.38604019,14.0644928 2.88337887,14.0067277 L3,14 L21,14 Z M17,9 C17.5522847,9 18,9.44771525 18,10 C18,10.5128358 17.6139598,10.9355072 17.1166211,10.9932723 L17,11 L7,11 C6.44771525,11 6,10.5522847 6,10 C6,9.48716416 6.38604019,9.06449284 6.88337887,9.00672773 L7,9 L17,9 Z M21,4 C21.5522847,4 22,4.44771525 22,5 C22,5.51283584 21.6139598,5.93550716 21.1166211,5.99327227 L21,6 L3,6 C2.44771525,6 2,5.55228475 2,5 C2,4.48716416 2.38604019,4.06449284 2.88337887,4.00672773 L3,4 L21,4 Z"/>
</svg>
