<svg xmlns="http://www.w3.org/2000/svg" width="24" height="24" viewBox="0 0 24 24">
  <path d="M21,19 C21.5522847,19 22,19.4477153 22,20 C22,20.5128358 21.6139598,20.9355072 21.1166211,20.9932723 L21,21 L11,21 C10.4477153,21 10,20.5522847 10,20 C10,19.4871642 10.3860402,19.0644928 10.8833789,19.0067277 L11,19 L21,19 Z M21,14 C21.5522847,14 22,14.4477153 22,15 C22,15.5128358 21.6139598,15.9355072 21.1166211,15.9932723 L21,16 L3,16 C2.44771525,16 2,15.5522847 2,15 C2,14.4871642 2.38604019,14.0644928 2.88337887,14.0067277 L3,14 L21,14 Z M21,9 C21.5522847,9 22,9.44771525 22,10 C22,10.5128358 21.6139598,10.9355072 21.1166211,10.9932723 L21,11 L11,11 C10.4477153,11 10,10.5522847 10,10 C10,9.48716416 10.3860402,9.06449284 10.8833789,9.00672773 L11,9 L21,9 Z M21,4 C21.5522847,4 22,4.44771525 22,5 C22,5.51283584 21.6139598,5.93550716 21.1166211,5.99327227 L21,6 L3,6 C2.44771525,6 2,5.55228475 2,5 C2,4.48716416 2.38604019,4.06449284 2.88337887,4.00672773 L3,4 L21,4 Z"/>
</svg>
