<svg xmlns="http://www.w3.org/2000/svg" width="24" height="24" viewBox="0 0 24 24">
  <path d="M21,19 C21.5522847,19 22,19.4477153 22,20 C22,20.5128358 21.6139598,20.9355072 21.1166211,20.9932723 L21,21 L3,21 C2.44771525,21 2,20.5522847 2,20 C2,19.4871642 2.38604019,19.0644928 2.88337887,19.0067277 L3,19 L21,19 Z M17,15 C17.5522847,15 18,15.4477153 18,16 C18,16.5128358 17.6139598,16.9355072 17.1166211,16.9932723 L17,17 L7,17 C6.44771525,17 6,16.5522847 6,16 C6,15.4871642 6.38604019,15.0644928 6.88337887,15.0067277 L7,15 L17,15 Z M21,11 C21.5522847,11 22,11.4477153 22,12 C22,12.5128358 21.6139598,12.9355072 21.1166211,12.9932723 L21,13 L3,13 C2.44771525,13 2,12.5522847 2,12 C2,11.4871642 2.38604019,11.0644928 2.88337887,11.0067277 L3,11 L21,11 Z M17,7 C17.5522847,7 18,7.44771525 18,8 C18,8.51283584 17.6139598,8.93550716 17.1166211,8.99327227 L17,9 L7,9 C6.44771525,9 6,8.55228475 6,8 C6,7.48716416 6.38604019,7.06449284 6.88337887,7.00672773 L7,7 L17,7 Z M21,3 C21.5522847,3 22,3.44771525 22,4 C22,4.51283584 21.6139598,4.93550716 21.1166211,4.99327227 L21,5 L3,5 C2.44771525,5 2,4.55228475 2,4 C2,3.48716416 2.38604019,3.06449284 2.88337887,3.00672773 L3,3 L21,3 Z"/>
</svg>
