<svg xmlns="http://www.w3.org/2000/svg" width="24" height="24" viewBox="0 0 24 24">
  <path d="M20,4 C21.5976809,4 22.9036609,5.24891996 22.9949073,6.82372721 L23,7 L23,10 L22,10 C20.8954305,10 20,10.8954305 20,12 C20,13.0543618 20.8158778,13.9181651 21.8507377,13.9945143 L22,14 L23,14 L23,17 C23,18.5976809 21.75108,19.9036609 20.1762728,19.9949073 L20,20 L4,20 C2.40231912,20 1.09633912,18.75108 1.00509269,17.1762728 L1,17 L1,14 L2,14 C3.1045695,14 4,13.1045695 4,12 C4,10.9456382 3.18412221,10.0818349 2.14926234,10.0054857 L2,10 L1,10 L1,7 C1,5.40231912 2.24891996,4.09633912 3.82372721,4.00509269 L4,4 L20,4 Z M16,13 L8,13 L7.88337887,13.0067277 C7.38604019,13.0644928 7,13.4871642 7,14 C7,14.5522847 7.44771525,15 8,15 L8,15 L16,15 L16.1166211,14.9932723 C16.6139598,14.9355072 17,14.5128358 17,14 C17,13.4477153 16.5522847,13 16,13 L16,13 Z M16,9 L8,9 L7.88337887,9.00672773 C7.38604019,9.06449284 7,9.48716416 7,10 C7,10.5522847 7.44771525,11 8,11 L8,11 L16,11 L16.1166211,10.9932723 C16.6139598,10.9355072 17,10.5128358 17,10 C17,9.44771525 16.5522847,9 16,9 L16,9 Z"/>
</svg>
