<svg xmlns="http://www.w3.org/2000/svg" width="24" height="24" viewBox="0 0 24 24">
  <g fill="none" fill-rule="evenodd">
    <path fill="#000" fill-rule="nonzero" d="M12,8 L12.019,8.001 L12.0590314,8.0017331 C12.0691128,8.00232561 12.0791869,8.00307004 12.0892501,8.00396641 L12,8 C12.0506203,8 12.1003621,8.00376119 12.1489612,8.01101934 C12.165949,8.01362808 12.1833753,8.01670217 12.2007258,8.02024007 C12.2227461,8.0246398 12.2444365,8.02983363 12.2658396,8.03572097 C12.2814633,8.04009773 12.2968513,8.04472872 12.3121425,8.04973809 C12.3317977,8.05612249 12.3515792,8.06331574 12.3710585,8.07110396 C12.3887956,8.07819642 12.4060985,8.08567905 12.4232215,8.09367336 C12.4438914,8.10337664 12.4642939,8.11379392 12.484277,8.12487577 C12.4963944,8.13149883 12.5086131,8.13860692 12.5207088,8.14599545 C12.546275,8.1617187 12.5711307,8.17849009 12.5951593,8.19631351 C12.6012086,8.20071786 12.6070733,8.20517454 12.6128994,8.20970461 C12.6196628,8.21507113 12.6225624,8.2173721 12.625449,8.21968877 L12.7071068,8.29289322 L15.7071068,11.2928932 C16.0976311,11.6834175 16.0976311,12.3165825 15.7071068,12.7071068 C15.3466228,13.0675907 14.7793918,13.0953203 14.3871006,12.7902954 L14.2928932,12.7071068 L13,11.415 L13,15 C13,15.5522847 12.5522847,16 12,16 C11.4871642,16 11.0644928,15.6139598 11.0067277,15.1166211 L11,15 L11,11.415 L9.70710678,12.7071068 C9.31658249,13.0976311 8.68341751,13.0976311 8.29289322,12.7071068 C7.93240926,12.3466228 7.90467972,11.7793918 8.20970461,11.3871006 L8.29289322,11.2928932 L11.2928932,8.29289322 L11.374551,8.21968877 C11.3774376,8.2173721 11.3803372,8.21507113 11.3832499,8.21278596 L11.2928932,8.29289322 C11.3282873,8.25749917 11.3656744,8.22531295 11.4046934,8.19633458 C11.4288693,8.17849009 11.453725,8.1617187 11.4793398,8.14606743 C11.4913869,8.13860692 11.5036056,8.13149883 11.5159379,8.12467117 C11.5357061,8.11379392 11.5561086,8.10337664 11.5769009,8.09365378 C11.5939015,8.08567905 11.6112044,8.07819642 11.628664,8.07122549 C11.6484208,8.06331574 11.6682023,8.05612249 11.6882636,8.04954668 C11.7031487,8.04472872 11.7185367,8.04009773 11.734007,8.03584514 C11.7555635,8.02983363 11.7772539,8.0246398 11.7992059,8.02016515 C11.8166247,8.01670217 11.834051,8.01362808 11.8515331,8.0110178 C11.8705042,8.00811223 11.890153,8.00576612 11.909968,8.00399798 C11.9208131,8.00307004 11.9308872,8.00232561 11.9409686,8.0017331 L11.980824,8.00018018 C11.9872016,8.00006024 11.9935938,8 12,8 Z"/>
    <path fill="#000" fill-rule="nonzero" d="M20,4 L4,4 C2.34314575,4 1,5.34314575 1,7 L1,10 C1,10.5522847 1.44771525,11 2,11 L3,11 L3.11253483,11.0048111 C3.59452679,11.041054 4,11.4756765 4,12 L3.99518895,12.1125348 C3.95894602,12.5945268 3.52432346,13 3,13 L2,13 C1.44771525,13 1,13.4477153 1,14 L1,17 C1,18.6568542 2.34314575,20 4,20 L20,20 C21.6568542,20 23,18.6568542 23,17 L23,14 C23,13.4477153 22.5522847,13 22,13 L21,13 L20.8874652,12.9951889 C20.4054732,12.958946 20,12.5243235 20,12 L20.0048111,11.8874652 C20.041054,11.4054732 20.4756765,11 21,11 L22,11 C22.5522847,11 23,10.5522847 23,10 L23,7 C23,5.34314575 21.6568542,4 20,4 Z M4,6 L20,6 C20.5522847,6 21,6.44771525 21,7 L21,9 C19.4263275,9 18.1234087,10.2155344 18.0081962,11.7771604 L18.0006747,11.9632725 C18,13.5736725 19.2155344,14.8765913 20.7771604,14.9918038 L21,14.999 L21,17 C21,17.5522847 20.5522847,18 20,18 L4,18 L3.88337887,17.9932723 C3.38604019,17.9355072 3,17.5128358 3,17 L3,15 C4.57367247,15 5.87659127,13.7844656 5.99180378,12.2228396 L5.99932532,12.0367275 C6,10.4263275 4.78446558,9.12340873 3.22283965,9.00819622 L3,9 L3,7 C3,6.44771525 3.44771525,6 4,6 Z"/>
  </g>
</svg>
