<svg xmlns="http://www.w3.org/2000/svg" width="24" height="24" viewBox="0 0 24 24">
  <g fill="none" fill-rule="evenodd">
    <path fill="#000" fill-rule="nonzero" d="M12,14 C12.5522847,14 13,14.4477153 13,15 C13,15.5522847 12.5522847,16 12,16 C11.4477153,16 11,15.5522847 11,15 C11,14.4477153 11.4477153,14 12,14 Z M12,8 C12.5522847,8 13,8.44771525 13,9 L13,12 C13,12.5522847 12.5522847,13 12,13 C11.4477153,13 11,12.5522847 11,12 L11,9 C11,8.44771525 11.4477153,8 12,8 Z"/>
    <path fill="#000" fill-rule="nonzero" d="M20,4 L4,4 C2.34314575,4 1,5.34314575 1,7 L1,10 C1,10.5522847 1.44771525,11 2,11 L3,11 L3.11253483,11.0048111 C3.59452679,11.041054 4,11.4756765 4,12 L3.99518895,12.1125348 C3.95894602,12.5945268 3.52432346,13 3,13 L2,13 C1.44771525,13 1,13.4477153 1,14 L1,17 C1,18.6568542 2.34314575,20 4,20 L20,20 C21.6568542,20 23,18.6568542 23,17 L23,14 C23,13.4477153 22.5522847,13 22,13 L21,13 L20.8874652,12.9951889 C20.4054732,12.958946 20,12.5243235 20,12 L20.0048111,11.8874652 C20.041054,11.4054732 20.4756765,11 21,11 L22,11 C22.5522847,11 23,10.5522847 23,10 L23,7 C23,5.34314575 21.6568542,4 20,4 Z M4,6 L20,6 C20.5522847,6 21,6.44771525 21,7 L21,9 C19.4263275,9 18.1234087,10.2155344 18.0081962,11.7771604 L18.0006747,11.9632725 C18,13.5736725 19.2155344,14.8765913 20.7771604,14.9918038 L21,14.999 L21,17 C21,17.5522847 20.5522847,18 20,18 L4,18 L3.88337887,17.9932723 C3.38604019,17.9355072 3,17.5128358 3,17 L3,15 C4.57367247,15 5.87659127,13.7844656 5.99180378,12.2228396 L5.99932532,12.0367275 C6,10.4263275 4.78446558,9.12340873 3.22283965,9.00819622 L3,9 L3,7 C3,6.44771525 3.44771525,6 4,6 Z"/>
  </g>
</svg>
