<svg xmlns="http://www.w3.org/2000/svg" width="24" height="24" viewBox="0 0 24 24">
  <g fill="none" fill-rule="evenodd">
    <path fill="#000" fill-rule="nonzero" d="M16,12 L15.999,12.019 L15.9982669,12.0590314 C15.9976744,12.0691128 15.99693,12.0791869 15.9960336,12.0892501 L16,12 C16,12.0506203 15.9962388,12.1003621 15.9889807,12.1489612 C15.9863719,12.165949 15.9832978,12.1833753 15.9797599,12.2007258 C15.9753602,12.2227461 15.9701664,12.2444365 15.964279,12.2658396 C15.9599023,12.2814633 15.9552713,12.2968513 15.9502619,12.3121425 C15.9438775,12.3317977 15.9366843,12.3515792 15.928896,12.3710585 C15.9218036,12.3887956 15.914321,12.4060985 15.9063266,12.4232215 C15.8966234,12.4438914 15.8862061,12.4642939 15.8751242,12.484277 C15.8685012,12.4963944 15.8613931,12.5086131 15.8540045,12.5207088 C15.8382813,12.546275 15.8215099,12.5711307 15.8036865,12.5951593 C15.7992821,12.6012086 15.7948255,12.6070733 15.7902954,12.6128994 C15.7849289,12.6196628 15.7826279,12.6225624 15.7803112,12.625449 L15.7071068,12.7071068 L12.7071068,15.7071068 C12.3165825,16.0976311 11.6834175,16.0976311 11.2928932,15.7071068 C10.9324093,15.3466228 10.9046797,14.7793918 11.2097046,14.3871006 L11.2928932,14.2928932 L12.585,13 L9,13 C8.44771525,13 8,12.5522847 8,12 C8,11.4871642 8.38604019,11.0644928 8.88337887,11.0067277 L9,11 L12.585,11 L11.2928932,9.70710678 C10.9023689,9.31658249 10.9023689,8.68341751 11.2928932,8.29289322 C11.6533772,7.93240926 12.2206082,7.90467972 12.6128994,8.20970461 L12.7071068,8.29289322 L15.7071068,11.2928932 L15.7803112,11.374551 C15.7826279,11.3774376 15.7849289,11.3803372 15.787214,11.3832499 L15.7071068,11.2928932 C15.7425008,11.3282873 15.774687,11.3656744 15.8036654,11.4046934 C15.8215099,11.4288693 15.8382813,11.453725 15.8539326,11.4793398 C15.8613931,11.4913869 15.8685012,11.5036056 15.8753288,11.5159379 C15.8862061,11.5357061 15.8966234,11.5561086 15.9063462,11.5769009 C15.914321,11.5939015 15.9218036,11.6112044 15.9287745,11.628664 C15.9366843,11.6484208 15.9438775,11.6682023 15.9504533,11.6882636 C15.9552713,11.7031487 15.9599023,11.7185367 15.9641549,11.734007 C15.9701664,11.7555635 15.9753602,11.7772539 15.9798348,11.7992059 C15.9832978,11.8166247 15.9863719,11.834051 15.9889822,11.8515331 C15.9918878,11.8705042 15.9942339,11.890153 15.996002,11.909968 C15.99693,11.9208131 15.9976744,11.9308872 15.9982669,11.9409686 L15.9998198,11.980824 C15.9999398,11.9872016 16,11.9935938 16,12 Z"/>
    <path fill="#000" fill-rule="nonzero" d="M20,4 L4,4 C2.34314575,4 1,5.34314575 1,7 L1,10 C1,10.5522847 1.44771525,11 2,11 L3,11 L3.11253483,11.0048111 C3.59452679,11.041054 4,11.4756765 4,12 L3.99518895,12.1125348 C3.95894602,12.5945268 3.52432346,13 3,13 L2,13 C1.44771525,13 1,13.4477153 1,14 L1,17 C1,18.6568542 2.34314575,20 4,20 L20,20 C21.6568542,20 23,18.6568542 23,17 L23,14 C23,13.4477153 22.5522847,13 22,13 L21,13 L20.8874652,12.9951889 C20.4054732,12.958946 20,12.5243235 20,12 L20.0048111,11.8874652 C20.041054,11.4054732 20.4756765,11 21,11 L22,11 C22.5522847,11 23,10.5522847 23,10 L23,7 C23,5.34314575 21.6568542,4 20,4 Z M4,6 L20,6 C20.5522847,6 21,6.44771525 21,7 L21,9 C19.4263275,9 18.1234087,10.2155344 18.0081962,11.7771604 L18.0006747,11.9632725 C18,13.5736725 19.2155344,14.8765913 20.7771604,14.9918038 L21,14.999 L21,17 C21,17.5522847 20.5522847,18 20,18 L4,18 L3.88337887,17.9932723 C3.38604019,17.9355072 3,17.5128358 3,17 L3,15 C4.57367247,15 5.87659127,13.7844656 5.99180378,12.2228396 L5.99932532,12.0367275 C6,10.4263275 4.78446558,9.12340873 3.22283965,9.00819622 L3,9 L3,7 C3,6.44771525 3.44771525,6 4,6 Z"/>
  </g>
</svg>
