<svg xmlns="http://www.w3.org/2000/svg" width="24" height="24" viewBox="0 0 24 24">
  <g fill="none" fill-rule="evenodd">
    <path fill="#000" fill-rule="nonzero" d="M13.0001686,15 C13.0001686,15.5523 12.5524586,16 12.0001686,16 C11.4478886,16 11.0001686,15.5523 11.0001686,15 C11.0001686,14.4477 11.4478886,14 12.0001686,14 C12.5524586,14 13.0001686,14.4477 13.0001686,15 Z M10.9209886,10.08541 C11.0014986,9.92438 11.1104886,9.78617 11.2599386,9.68654 C11.4046986,9.59004 11.6314086,9.5 12.0001686,9.5 C12.2799186,9.5 12.5530786,9.58656 12.7376686,9.725 C12.9022286,9.84842 13.0001686,10.01009 13.0001686,10.25 C13.0001686,10.42662 12.9593586,10.51381 12.9229986,10.56835 C12.8776486,10.63639 12.7994086,10.71162 12.6466286,10.81349 C12.5702386,10.86441 12.4880486,10.9139 12.3877086,10.97411 L12.3815786,10.97779 L12.3815586,10.9778 C12.2878586,11.03402 12.1772086,11.10041 12.0684786,11.1729 C11.8462486,11.32107 11.5807386,11.52712 11.3760986,11.83412 C11.1463586,12.17878 11.2395186,12.64442 11.5841786,12.87417 C11.9288386,13.10391 12.3944886,13.01075 12.6242286,12.66609 C12.6695886,12.59803 12.7478286,12.52279 12.9005986,12.42093 C12.9769786,12.37001 13.0591686,12.32052 13.1594986,12.26032 L13.1657086,12.25659 L13.1657686,12.25656 C13.2594286,12.20036 13.3700286,12.134 13.4787086,12.06154 C13.7009186,11.91339 13.9664386,11.70737 14.1710686,11.4004 C14.3847686,11.07994 14.5001686,10.69838 14.5001686,10.25 C14.5001686,9.48991 14.1397686,8.90158 13.6376686,8.525 C13.1555886,8.16344 12.5537486,8 12.0001686,8 C11.3689286,8 10.8456386,8.15996 10.4278886,8.43846 C10.0148386,8.71383 9.74882858,9.07562 9.57934858,9.41459 C9.39409858,9.78507 9.54426858,10.23558 9.91475858,10.42082 C10.2852386,10.60606 10.7357486,10.45589 10.9209886,10.08541 Z"/>
    <path fill="#000" fill-rule="nonzero" d="M20,4 L4,4 C2.34314575,4 1,5.34314575 1,7 L1,10 C1,10.5522847 1.44771525,11 2,11 L3,11 L3.11253483,11.0048111 C3.59452679,11.041054 4,11.4756765 4,12 L3.99518895,12.1125348 C3.95894602,12.5945268 3.52432346,13 3,13 L2,13 C1.44771525,13 1,13.4477153 1,14 L1,17 C1,18.6568542 2.34314575,20 4,20 L20,20 C21.6568542,20 23,18.6568542 23,17 L23,14 C23,13.4477153 22.5522847,13 22,13 L21,13 L20.8874652,12.9951889 C20.4054732,12.958946 20,12.5243235 20,12 L20.0048111,11.8874652 C20.041054,11.4054732 20.4756765,11 21,11 L22,11 C22.5522847,11 23,10.5522847 23,10 L23,7 C23,5.34314575 21.6568542,4 20,4 Z M4,6 L20,6 C20.5522847,6 21,6.44771525 21,7 L21,9 C19.4263275,9 18.1234087,10.2155344 18.0081962,11.7771604 L18.0006747,11.9632725 C18,13.5736725 19.2155344,14.8765913 20.7771604,14.9918038 L21,14.999 L21,17 C21,17.5522847 20.5522847,18 20,18 L4,18 L3.88337887,17.9932723 C3.38604019,17.9355072 3,17.5128358 3,17 L3,15 C4.57367247,15 5.87659127,13.7844656 5.99180378,12.2228396 L5.99932532,12.0367275 C6,10.4263275 4.78446558,9.12340873 3.22283965,9.00819622 L3,9 L3,7 C3,6.44771525 3.44771525,6 4,6 Z"/>
  </g>
</svg>
