<svg xmlns="http://www.w3.org/2000/svg" width="24" height="24" viewBox="0 0 24 24">
  <path d="M9.37135227,3.70432092 C10.1698214,2.25255887 11.9939942,1.72296031 13.4457562,2.52142944 C13.9442354,2.79559297 14.3544842,3.20584177 14.6286477,3.70432092 L14.6286477,3.70432092 L22.2461053,17.5542438 C23.0445744,19.0060058 22.5149759,20.8301786 21.0632138,21.6286477 C20.6202789,21.8722619 20.1229665,22 19.6174576,22 L19.6174576,22 L4.38254244,22 C2.72568819,22 1.38254244,20.6568542 1.38254244,19 C1.38254244,18.4944911 1.5102805,17.9971787 1.75389472,17.5542438 L1.75389472,17.5542438 Z M8.38710056,12.7097046 L8.29289322,12.7928932 C7.93240926,13.1533772 7.90467972,13.7206082 8.20970461,14.1128994 L8.29289322,14.2071068 L11.2928932,17.2071068 C11.6533772,17.5675907 12.2206082,17.5953203 12.6128994,17.2902954 L12.7071068,17.2071068 L15.7071068,14.2071068 C16.0976311,13.8165825 16.0976311,13.1834175 15.7071068,12.7928932 C15.3466228,12.4324093 14.7793918,12.4046797 14.3871006,12.7097046 L14.2928932,12.7928932 L12,15.085 L9.70710678,12.7928932 C9.34662282,12.4324093 8.77939176,12.4046797 8.38710056,12.7097046 Z"/>
</svg>
