<svg xmlns="http://www.w3.org/2000/svg" width="24" height="24" viewBox="0 0 24 24">
  <path d="M9.37135227,3.70432092 C10.1698214,2.25255887 11.9939942,1.72296031 13.4457562,2.52142944 C13.9442354,2.79559297 14.3544842,3.20584177 14.6286477,3.70432092 L14.6286477,3.70432092 L22.2461053,17.5542438 C23.0445744,19.0060058 22.5149759,20.8301786 21.0632138,21.6286477 C20.6202789,21.8722619 20.1229665,22 19.6174576,22 L19.6174576,22 L4.38254244,22 C2.72568819,22 1.38254244,20.6568542 1.38254244,19 C1.38254244,18.4944911 1.5102805,17.9971787 1.75389472,17.5542438 L1.75389472,17.5542438 Z M15,16 L9,16 L8.88337887,16.0067277 C8.38604019,16.0644928 8,16.4871642 8,17 C8,17.5522847 8.44771525,18 9,18 L9,18 L15,18 L15.1166211,17.9932723 C15.6139598,17.9355072 16,17.5128358 16,17 C16,16.4477153 15.5522847,16 15,16 L15,16 Z M14,12 L10,12 L9.88337887,12.0067277 C9.38604019,12.0644928 9,12.4871642 9,13 C9,13.5522847 9.44771525,14 10,14 L10,14 L14,14 L14.1166211,13.9932723 C14.6139598,13.9355072 15,13.5128358 15,13 C15,12.4477153 14.5522847,12 14,12 L14,12 Z"/>
</svg>
