<svg viewBox="0 0 24 24">
  <path d="M9 12a1 1 0 01-1 1H4.41l1.3 1.3.08.09a1 1 0 01-1.5 1.32l-3-3-.07-.08a3 3 0 01-.1-.15 1.02 1.02 0 01-.03-.06l-.02-.05a.95.95 0 01-.06-.22v-.13L1 12v-.09l.01-.06a1.1 1.1 0 01.06-.22l.02-.05.03-.06.03-.04.05-.08.02-.02.01-.02.01-.01.05-.06 3-3 .1-.08a1 1 0 011.32 1.5L4.4 11h3.71A1 1 0 019 12zm4-9v18a1 1 0 01-2 .12V3a1 1 0 012-.12V3zm10 9v.08l-.01.07a1.08 1.08 0 01-.06.22l-.02.05a1.02 1.02 0 01-.13.2l-.07.09-3 3a1 1 0 01-1.5-1.32l.08-.1L19.6 13H16a1 1 0 01-.12-2h3.71l-1.3-1.3a1 1 0 011.32-1.49l.1.08 3 3 .07.08v.01l.02.02.05.08.03.04.03.06.02.05a.99.99 0 01.06.22v.09l.01.04V12z"/>
</svg>
