<svg viewBox="0 0 24 24">
  <path d="M2.36 21.77l-.01-.01-.06-.05.04.03-.04-.04-.08-.08-.01-.02a1.04 1.04 0 01-.1-.18l-.03-.05a.95.95 0 01-.06-.22v-.07L2 21v-6.12A1 1 0 014 15v3.59l5.3-5.3.09-.08a1 1 0 011.32 1.5L5.4 20h3.71A1 1 0 019 22H3a.98.98 0 01-.08 0h-.04a1 1 0 01-.03-.01h-.03l-.02-.01a1 1 0 01-.07-.02H2.7l-.02-.01a.99.99 0 01-.06-.02l-.05-.02a1.04 1.04 0 01-.06-.03l-.04-.03a1.03 1.03 0 01-.08-.05l-.01-.01-.04-.03h.01zM21.65 2.24l.06.06.08.08.01.02a1.04 1.04 0 01.1.18l.03.05a.95.95 0 01.06.22v.13L22 3v6.12A1 1 0 0120 9V5.42l-5.3 5.29-.09.08a1 1 0 01-1.32-1.5L18.6 4h-3.71A1 1 0 0115 2h6.02a1 1 0 01.06 0h.04a1 1 0 01.03.01h.03l.02.01a1 1 0 01.07.02h.02l.02.01.06.02.05.02.06.03.04.03.08.05.01.01.02.01v.01-.01l.02.02z"/>
</svg>
