<svg viewBox="0 0 24 24">
  <path d="M21 12a1 1 0 011 1v6.18A3 3 0 0119 22H4.82A3 3 0 012 19v-6.12A1 1 0 014 13v6.12A1 1 0 005 20h14.12a1 1 0 00.88-1v-6.12a1 1 0 011-.88zm-.3-8.7a1 1 0 01.09 1.31l-.08.1L13.4 12h3.71a1 1 0 010 2h-6.24a1 1 0 01-.03-.01h-.02l-.03-.01h-.04l-.07-.03a.95.95 0 01-.06-.02l-.05-.02a1.02 1.02 0 01-.18-.1l-.05-.05.04.03a1 1 0 01-.24-.27l-.03-.04a1.04 1.04 0 01-.03-.06l-.02-.05a.99.99 0 01-.06-.22v-.13.03l-.01-.03V6.88a1 1 0 012 0v3.7l7.3-7.29.09-.08a1 1 0 011.32.08z"/>
</svg>
