<svg xmlns="http://www.w3.org/2000/svg" viewBox="0 0 24 24">
  <path d="M9.39 13.21a1 1 0 011.32 1.5L5.4 20h3.71A1 1 0 019 22H3a.98.98 0 01-.08 0h-.04a1 1 0 01-.03-.01h-.03l-.02-.01a1 1 0 01-.07-.02H2.7l-.02-.01a.99.99 0 01-.06-.02l-.05-.02a1.04 1.04 0 01-.06-.03l-.04-.03a1.03 1.03 0 01-.08-.05l-.01-.01-.04-.03h.01-.01l-.06-.05.04.03-.04-.04-.08-.08-.01-.02a1.04 1.04 0 01-.1-.18l-.03-.05a.95.95 0 01-.06-.22v-6.27A1 1 0 014 15v3.59l5.3-5.3zm5.22 0l.1.08L20 18.6V15a1 1 0 012-.12v6.19l-.01.08a1.08 1.08 0 01-.06.22l-.02.05a1.02 1.02 0 01-.1.18l-.02.02-.08.08-.04.04.04-.03-.06.05h-.01l-.01.02h-.02l-.01.02-.08.05-.04.03-.06.03-.05.02a.99.99 0 01-.06.02h-.02l-.02.01a1 1 0 01-.07.02h-.05a1 1 0 01-.03.01h-.04A1 1 0 0121 22h-6a1 1 0 01-.12-2h3.71l-5.3-5.3a1 1 0 011.32-1.49zM9 2a1 1 0 01.12 2h-3.7l5.29 5.3a1 1 0 01-1.32 1.49l-.1-.08L4 5.4V9a1 1 0 01-2 .12V2.95v.03-.06l.01-.07a1.08 1.08 0 01.06-.22l.02-.05a1.02 1.02 0 01.1-.18l.02-.02.08-.08.06-.06-.06.05.06-.05.01-.01.01-.01h.02l.01-.02.08-.05.04-.03.06-.03.05-.02.06-.02h.02l.02-.01a1 1 0 01.07-.02h.05A1 1 0 012.88 2h.04a1 1 0 01.06 0H9zm12.02 0a1 1 0 01.06 0h.04a1 1 0 01.03.01h.03l.02.01a1 1 0 01.07.02h.02l.02.01.06.02.05.02.06.03.04.03.08.05.01.01.02.01v.01-.01l.02.02.06.06.08.08.01.02a1.04 1.04 0 01.1.18l.03.05a.95.95 0 01.06.22v.13L22 3v6.12A1 1 0 0120 9V5.42l-5.3 5.29-.09.08a1 1 0 01-1.32-1.5L18.6 4h-3.71A1 1 0 0115 2z"/>
</svg>
