<svg viewBox="0 0 24 24">
  <path d="M13.01 13.85a1.08 1.08 0 01.06-.22l.02-.05a1.02 1.02 0 01.1-.18l.02-.02.08-.08.06-.06-.06.05.06-.05.01-.01.01-.01h.02l.01-.02.08-.05.04-.03.06-.03.05-.02.06-.02h.02l.02-.01a1 1 0 01.07-.02h.05a1 1 0 01.03-.01h.04a1 1 0 01.06-.01H20a1 1 0 01.12 2H16.4l5.3 5.3a1 1 0 01-1.32 1.49l-.1-.08L15 16.4V20a1 1 0 01-2 .12v-6.2l.01-.07zM3.61 2.21l.1.08L9 7.6V4a1 1 0 012-.12v6.19l-.01.08a1.08 1.08 0 01-.06.22l-.02.05a1.02 1.02 0 01-.1.18l-.02.02-.08.08-.04.04.04-.03-.06.05h-.01l-.01.02h-.02l-.01.02-.08.05-.04.03-.06.03-.05.02a.99.99 0 01-.06.02h-.02l-.02.01a1 1 0 01-.07.02h-.05a1 1 0 01-.03.01h-.04A1 1 0 0110 11H4a1 1 0 01-.12-2h3.7L2.3 3.7a1 1 0 011.32-1.49z"/>
</svg>
