<svg xmlns="http://www.w3.org/2000/svg" viewBox="0 0 24 24">
  <path d="M21 12a1 1 0 011 1v6.18A3 3 0 0119 22H4.82A3 3 0 012 19v-6.12A1 1 0 014 13v6.12A1 1 0 005 20h14.12a1 1 0 00.88-1v-6.12a1 1 0 011-.88zm-7 1.06v.01l-.01.08a1.08 1.08 0 01-.06.22l-.02.05a1.02 1.02 0 01-.12.2l-.08.09-.09.07.09-.07a1 1 0 01-.19.14l-.04.03-.06.03-.05.02a.99.99 0 01-.06.02h-.02l-.02.01a1 1 0 01-.07.02h-.05a1 1 0 01-.03.01h-.09L13 14H7a1 1 0 01-.12-2h3.71l-7.3-7.3a1 1 0 011.32-1.49l.1.08L12 10.6V7a1 1 0 012-.12v6.18z"/>
</svg>
