<svg viewBox="0 0 24 24">
  <path d="M16.99 16.33a1 1 0 010 1.41L12.73 22a1 1 0 01-.05.04l-.02.02a1 1 0 01-.03.03h-.02l-.02.02a1 1 0 01-.06.04l-.02.01a1.6 1.6 0 01-.13.06 1.04 1.04 0 01-.2.05h-.28a1.04 1.04 0 01-.25-.07l-.06-.03a1.11 1.11 0 01-.14-.09l-.05-.03-.05-.05.04.04-.01-.02-.03-.02-4.25-4.26-.08-.09a1 1 0 011.49-1.32l2.54 2.53v-4.61a1 1 0 012 .13v4.48l2.53-2.53.09-.08a1 1 0 011.33.08zM11.44 1.92a1.08 1.08 0 01.1-.07l.02-.01.02-.01a.95.95 0 01.34-.1h.23-.02.05a1.03 1.03 0 01.3.1h.03l.02.02a1 1 0 01.06.04l.02.01.02.01.01.01.04.04a1 1 0 01.06.05L17 6.26a1 1 0 01-1.33 1.49l-.09-.08-2.53-2.53v4.48a1 1 0 01-2 .13V5.14L8.5 7.67A1 1 0 017 6.34l.09-.08L11.33 2h.01l.03-.03.01-.02-.04.04.05-.05.05-.03z"/>
</svg>
