<svg xmlns="http://www.w3.org/2000/svg" viewBox="0 0 24 24">
  <path d="M21 12a1 1 0 011 1v6.18A3 3 0 0119 22H4.82A3 3 0 012 19v-6.12A1 1 0 014 13v6.12A1 1 0 005 20h14.12a1 1 0 00.88-1v-6.12a1 1 0 011-.88zM9 2a1 1 0 01.12 2h-3.7l7.29 7.3a1 1 0 01-1.32 1.49l-.1-.08L4 5.4V9a1 1 0 01-2 .12V2.95v.03-.06l.01-.07a1.08 1.08 0 01.06-.22l.02-.05a1.02 1.02 0 01.1-.18l.02-.02.08-.08.06-.06-.06.05.06-.05.01-.01.01-.01h.02l.01-.02.08-.05.04-.03.06-.03.05-.02.06-.02h.02l.02-.01a1 1 0 01.07-.02h.05A1 1 0 012.88 2H9z"/>
</svg>
