<svg viewBox="0 0 24 24">
  <path d="M21 12a1 1 0 011 1v6.18A3 3 0 0119 22H4.82A3 3 0 012 19v-6.12A1 1 0 014 13v6.12A1 1 0 005 20h14.12a1 1 0 00.88-1v-6.12a1 1 0 011-.88zM12 2h.08l.07.01.05.01a.93.93 0 01.39.17.82.82 0 01.04.03l.08.07 4.24 4.25a1 1 0 01-.53 1.69l-.12.01h-.12a1 1 0 01-.55-.2l-.1-.09L13 5.41V15a1 1 0 01-.88 1H12a1 1 0 01-1-.88V5.4L8.46 7.95a1 1 0 01-.53.28l-.11.01H7.7a1 1 0 01-.73-1.61l.08-.1 4.24-4.24.06-.05.02-.02-.01.02.02-.02h-.01l.05-.03.03-.02.03-.02a.83.83 0 01.2-.1 1.05 1.05 0 01.23-.05H12z"/>
</svg>
