<svg xmlns="http://www.w3.org/2000/svg" viewBox="0 0 24 24">
  <path d="M18 1a2 2 0 012 2v18a2 2 0 01-2 2H6a2 2 0 01-2-2V3c0-1.1.9-2 2-2h12zm-1.5 12c-.83 0-1.5.67-1.5 1.5v5a1.5 1.5 0 003 0v-5c0-.83-.67-1.5-1.5-1.5zm-9 5a1.5 1.5 0 100 3 1.5 1.5 0 000-3zm4.5 0a1.5 1.5 0 100 3 1.5 1.5 0 000-3zm-4.5-5a1.5 1.5 0 100 3 1.5 1.5 0 000-3zm4.5 0a1.5 1.5 0 100 3 1.5 1.5 0 000-3zM7.5 8a1.5 1.5 0 100 3 1.5 1.5 0 000-3zM12 8a1.5 1.5 0 100 3 1.5 1.5 0 000-3zm4.5 0a1.5 1.5 0 100 3 1.5 1.5 0 000-3zm0-5h-9a1.5 1.5 0 000 3h9a1.5 1.5 0 000-3z"/>
</svg>
