<svg viewBox="0 0 24 24">
  <path d="M6 4v1.12a1 1 0 002 0V4h8v1.12a1 1 0 002 0V4h2a2 2 0 012 1.85V19a3 3 0 01-2.82 3H5a3 3 0 01-3-2.82V6c0-1.1.9-2 2-2h2zm14 4H4v11a1 1 0 00.77.97l.11.02L5 20h14a1 1 0 001-.88V8zM8 13.92l.01-.07a1.08 1.08 0 01.06-.22l.02-.05a1.02 1.02 0 01.13-.2l.07-.09 3-3a1 1 0 011.5 1.32l-.08.1L11.4 13H15a1 1 0 01.12 2H11.4l1.3 1.3a1 1 0 01-1.32 1.49l-.1-.08-3-3-.07-.09-.02-.02a1.03 1.03 0 01-.05-.08l-.03-.04a1.04 1.04 0 01-.03-.06l-.02-.05a.99.99 0 01-.06-.22v-.23.02-.02zM17 2a1 1 0 011 .88V4h-2V3a1 1 0 011-1zM7 2a1 1 0 011 .88V4H6V3a1 1 0 011-1z"/>
</svg>
