<svg viewBox="0 0 24 24">
  <path d="M6 4v1.12a1 1 0 002 0V4h8v1.12a1 1 0 002 0V4h2a2 2 0 012 1.85V19a3 3 0 01-2.82 3H5a3 3 0 01-3-2.82V6c0-1.1.9-2 2-2h2zm14 4H4v11a1 1 0 00.77.97l.11.02L5 20h14a1 1 0 001-.88V8zm-8 2a1 1 0 011 1v3.59l1.3-1.3.09-.08a1 1 0 011.32 1.5l-3 3-.08.07a3 3 0 01-.15.1l-.06.03-.05.02a.95.95 0 01-.22.06h-.13L12 18h-.09l-.06-.01a1.1 1.1 0 01-.22-.06l-.05-.02a1.04 1.04 0 01-.06-.03l-.04-.03a1.03 1.03 0 01-.08-.05l-.02-.02-.02-.01-.01-.01-.06-.05-3-3-.08-.1a1 1 0 011.5-1.32L11 14.6v-3.71a1 1 0 011-.88zm5-8a1 1 0 011 .88V4h-2V3a1 1 0 011-1zM7 2a1 1 0 011 .88V4H6V3a1 1 0 011-1z"/>
</svg>
