<svg xmlns="http://www.w3.org/2000/svg" viewBox="0 0 24 24">
  <path d="M6 4v1.12a1 1 0 002 0V4h8v1.12a1 1 0 002 0V4h2a2 2 0 012 1.85V19a3 3 0 01-2.82 3H5a3 3 0 01-3-2.82V6c0-1.1.9-2 2-2h2zm14 4H4v11a1 1 0 00.77.97l.11.02L5 20h14a1 1 0 001-.88V8zm-9.39 3.21l.1.08L12 12.6l1.3-1.3a1 1 0 011.49 1.32l-.08.1L13.4 14l1.3 1.3a1 1 0 01-1.32 1.49l-.1-.08L12 15.4l-1.3 1.3a1 1 0 01-1.49-1.32l.08-.1L10.6 14l-1.3-1.3a1 1 0 011.32-1.49zM17 2a1 1 0 011 .88V4h-2V3a1 1 0 011-1zM7 2a1 1 0 011 .88V4H6V3a1 1 0 011-1z"/>
</svg>
