<svg xmlns="http://www.w3.org/2000/svg" viewBox="0 0 24 24">
  <path d="M14 15H4v4h10v-4zm-8 1a1 1 0 110 2 1 1 0 010-2zm6 0a1 1 0 110 2 1 1 0 010-2zm.36-6H5.64a1 1 0 00-.95.69l-.03.11-.44 2.2h9.56l-.44-2.2a1 1 0 00-.75-.77l-.11-.02-.12-.01zm10.4-4.64l.02.01.02.03.05.08.03.04.03.06.02.05a.99.99 0 01.06.22v.09l.01.04v.1-.02.02l-.01.07a1.08 1.08 0 01-.06.22l-.02.05a1.02 1.02 0 01-.13.2l-.07.09-3 3a1 1 0 01-1.5-1.32l.08-.1L19.6 7H16a1 1 0 01-.12-2h3.71l-1.3-1.3a1 1 0 011.32-1.49l.1.08 3 3 .06.08v-.01zm-20.75 8.5v.02-.01a1 1 0 010-.04v-.03l.69-3.39a3 3 0 012.76-2.4L5.64 8h6.72a3 3 0 012.9 2.24l.04.17.68 3.4v.02l.02.08v.03-.01V21a1 1 0 01-2 0H4a1 1 0 01-2 0v-7.13z"/>
</svg>
