<svg viewBox="0 0 24 24">
  <path d="M12.36 8a3 3 0 012.9 2.24l.04.17.68 3.4.02.2V14v7a1 1 0 01-2 0v-1H4v1a1 1 0 01-2 0v-7.1l.02-.1.68-3.39a3 3 0 012.76-2.4L5.64 8h6.72zM6 15a1 1 0 100 2 1 1 0 000-2zm6 0a1 1 0 100 2 1 1 0 000-2zm.36-5H5.64a1 1 0 00-.95.69l-.03.11-.44 2.2h9.56l-.44-2.2a1 1 0 00-.75-.77l-.11-.02-.12-.01zM19 2h.08l.07.01a1.08 1.08 0 01.22.06l.05.02a1.02 1.02 0 01.2.13l.09.07 3 3a1 1 0 01-1.32 1.5l-.1-.08L20 5.4V9a1 1 0 01-2 .12v-3.7L16.7 6.7a1 1 0 01-1.49-1.32l.08-.1 3-3 .08-.07h.01l.02-.02.08-.05.04-.03.06-.03.05-.02a.99.99 0 01.22-.06h.09l.04-.01H19z"/>
</svg>
