<svg xmlns="http://www.w3.org/2000/svg" viewBox="0 0 24 24">
  <path d="M14 15H4v4h10v-4zm-8 1a1 1 0 110 2 1 1 0 010-2zm6 0a1 1 0 110 2 1 1 0 010-2zm.36-6H5.64a1 1 0 00-.95.69l-.03.11-.44 2.2h9.56l-.44-2.2a1 1 0 00-.75-.77l-.11-.02-.12-.01zM15 6.06v-.15l.01-.06a1.1 1.1 0 01.06-.22l.02-.05.03-.06.03-.04.05-.08.02-.03.01-.01.01-.01.05-.06 3-3 .1-.08a1 1 0 011.32 1.5L18.4 5h3.71A1 1 0 0122 7h-3.59l1.3 1.3.08.09a1 1 0 01-1.5 1.32l-3-3-.07-.08a3 3 0 01-.1-.15 1.02 1.02 0 01-.03-.06l-.02-.05A.95.95 0 0115 6v.06zm-13 7.8v.02-.01a1 1 0 01.01-.04v-.03l.69-3.39a3 3 0 012.76-2.4L5.64 8h6.72a3 3 0 012.9 2.24l.04.17.68 3.4v.02l.02.08v.03-.01V21a1 1 0 01-2 0H4a1 1 0 01-2 0v-7.13z"/>
</svg>
