<svg xmlns="http://www.w3.org/2000/svg" viewBox="0 0 24 24">
  <path d="M16.56 4a3 3 0 012.84 2.05l1.55 4.63A1.04 1.04 0 0121 11v-.1V18a1 1 0 01-.03.23c.02.08.03.18.03.27v1a1.5 1.5 0 01-3 0V19H6v.5a1.5 1.5 0 01-3 0v-1c0-.1 0-.19.03-.27A1.04 1.04 0 013 18v-7a1.02 1.02 0 01.05-.32l-.03.1a1 1 0 01.02-.07l.01-.03L4.6 6.05A3 3 0 017.44 4zM19 12H5v5h14v-5zM7.5 13a1.5 1.5 0 110 3 1.5 1.5 0 010-3zm9 0a1.5 1.5 0 110 3 1.5 1.5 0 010-3zm.06-7H7.44a1 1 0 00-.95.68L5.4 10h13.2l-1.1-3.32a1 1 0 00-.84-.67l-.1-.01z"/>
</svg>
