<svg viewBox="0 0 24 24">
  <path d="M12.5 3a8 8 0 018 8.36l-.03.3.06.03a5 5 0 012.46 4.08L23 16a5 5 0 01-4.78 5H6.5a1 1 0 01-.32-.05h-.01l-.22-.04A6 6 0 011 15.23V15a6 6 0 013.57-5.49l.08-.03.02-.12A8 8 0 0112.25 3zm3.28 9.38l-.01-.02v.01l-.06-.08-3-3-.1-.08a1 1 0 00-1.32 1.5L12.6 12H8.88A1 1 0 009 14h3.59l-1.3 1.3-.08.09a1 1 0 001.5 1.32l3-3 .07-.08a3 3 0 00.1-.15l.03-.06.02-.05a.95.95 0 00.06-.22v-.09.01-.05L16 13v-.09l-.01-.06a1.1 1.1 0 00-.06-.22l-.02-.05a1.04 1.04 0 00-.03-.06l-.03-.04a1.03 1.03 0 00-.05-.08l-.02-.03z"/>
</svg>
