<svg viewBox="0 0 24 24">
  <path d="M12.5 3a8 8 0 018 8.36l-.03.3.06.03a5 5 0 012.46 4.08L23 16a5 5 0 01-4.78 5H6.5a1 1 0 01-.32-.05h-.01l-.22-.04A6 6 0 011 15.23V15a6 6 0 013.57-5.49l.08-.03.02-.12A8 8 0 0112.25 3zm0 2a6 6 0 00-5.96 5.33 1 1 0 01-.7.84 4 4 0 00.76 7.81h.06l.06.02h11.43a3 3 0 00.9-5.81 1 1 0 01-.65-1.12A6 6 0 0012.5 5zM12 9h.08l.07.01a1.08 1.08 0 01.22.06l.05.02a1.02 1.02 0 01.2.13l.09.07 3 3a1 1 0 01-1.32 1.5l-.1-.08L13 12.4V16a1 1 0 01-2 .12V12.4l-1.3 1.3a1 1 0 01-1.49-1.32l.08-.1 3-3 .08-.07h.01l.02-.02.08-.05.04-.03.06-.03.05-.02a.99.99 0 01.22-.06h.09l.04-.01H12z"/>
</svg>
