<svg xmlns="http://www.w3.org/2000/svg" viewBox="0 0 24 24">
  <path d="M12.5 3a8 8 0 018 8.36l-.03.3.06.03a5 5 0 012.46 4.08L23 16a5 5 0 01-4.78 5H6.5a1 1 0 01-.32-.05h-.01l-.22-.04A6 6 0 011 15.23V15a6 6 0 013.57-5.49l.08-.03.02-.12A8 8 0 0112.25 3zm0 2a6 6 0 00-5.96 5.33 1 1 0 01-.7.84 4 4 0 00.76 7.81h.06l.06.02h11.43a3 3 0 00.9-5.81 1 1 0 01-.65-1.12A6 6 0 0012.5 5zm2.16 5.25a1 1 0 01.17 1.31l-.08.1-3.53 4a1 1 0 01-1.4.1l-.1-.1L8.25 14a1 1 0 011.41-1.4l.09.08.72.82 2.78-3.15a1 1 0 011.41-.09z"/>
</svg>
