<svg xmlns="http://www.w3.org/2000/svg" viewBox="0 0 24 24">
  <path d="M11 4a1 1 0 01.7.3L13.42 6H19a3 3 0 013 2.82V17a3 3 0 01-3 3H5a3 3 0 01-3-3V7a3 3 0 013-3zm-.41 2H5a1 1 0 00-1 1v10a1 1 0 001 1h7a1 1 0 110-2 1 1 0 010 2h7a1 1 0 001-1V9a1 1 0 00-1-1h-6a1 1 0 01-.7-.3L10.58 6zm1.51 2c1.7 0 3 1.3 3 3 0 1.4-.9 2-1.5 2.4-.45.27-.58.38-.6.55V15h-2v-1c0-1.3.9-1.9 1.5-2.3.5-.3.6-.5.6-.8 0-.6-.4-.9-1-.9a1 1 0 00-.82.4l-.08.1-.02.04a.96.96 0 01-1.22.41l-.11-.05a1 1 0 01-.43-1.24l.05-.11.03-.05C10 8.6 11 8 12.1 8z"/>
</svg>
