<svg viewBox="0 0 24 24">
  <path d="M11 4a1 1 0 01.7.3L13.42 6H19a3 3 0 013 2.82V17a3 3 0 01-3 3H5a3 3 0 01-3-3V7a3 3 0 013-3zm-.41 2H5a1 1 0 00-1 1v10a1 1 0 001 1h14a1 1 0 001-1V9a1 1 0 00-1-1h-6a1 1 0 01-.7-.3L10.58 6zM8 13.06v-.15l.01-.06a1.1 1.1 0 01.06-.22l.02-.05.03-.06.03-.04.05-.08.02-.03.01-.01.01-.01.05-.06 3-3 .1-.08a1 1 0 011.32 1.5L11.4 12h3.71a1 1 0 01-.12 2H11.4l1.3 1.3.08.09a1 1 0 01-1.5 1.32l-3-3-.07-.08a3.01 3.01 0 01-.1-.15 1.02 1.02 0 01-.03-.06l-.02-.05A.95.95 0 018 13v.06z"/>
</svg>
