<svg xmlns="http://www.w3.org/2000/svg" viewBox="0 0 24 24">
  <path d="M19 2a3 3 0 013 2.82V19a3 3 0 01-2.82 3H5a3 3 0 01-3-2.82V5a3 3 0 012.82-3H19zm0 2H5a1 1 0 00-1 .88V14h2a2 2 0 012 2c0 1.1.9 2 2 2h4a2 2 0 002-2c0-1.1.9-2 2-2h2V5a1 1 0 00-.88-1H19zm-7 8a1 1 0 110 2 1 1 0 010-2zm0-6c.55 0 1.16.16 1.64.53.5.37.86.96.86 1.72a2.03 2.03 0 01-1.02 1.81l-.31.2-.27.16a.96.96 0 00-.28.25.75.75 0 01-1.24-.84c.2-.3.47-.5.69-.66l.31-.2c.1-.06.19-.1.27-.16.15-.1.23-.17.27-.24a.54.54 0 00.08-.32c0-.24-.1-.4-.26-.53A1.26 1.26 0 0012 7.5c-.37 0-.6.09-.74.19a1 1 0 00-.34.4.75.75 0 01-1.34-.68c.17-.33.43-.7.85-.97.42-.28.94-.44 1.57-.44z"/>
</svg>
