<svg viewBox="0 0 24 24">
  <path d="M6 16h.12A1 1 0 017 17a3 3 0 002.82 3h4.36a3 3 0 002.81-2.82L17 17v-.12a1 1 0 01.88-.87L18 16h4v4a2 2 0 01-2 2H4a2 2 0 01-2-2v-4h4zM20 2a2 2 0 012 2v10h-4.18A3 3 0 0015 17a1 1 0 01-.88 1H9.88a1 1 0 01-.87-.88L9 17v-.18a3 3 0 00-2.82-2.81L6 14H2V4c0-1.1.9-2 2-2h16zM8.01 9.15a1.08 1.08 0 00.06.22l.02.05a1.02 1.02 0 00.13.2l.07.09 3 3a1 1 0 001.5-1.32l-.08-.1L11.4 10H15a1 1 0 00.12-2H11.4l1.3-1.3a1 1 0 00-1.32-1.49l-.1.08-3 3-.05.06-.02.02-.02.03-.05.08-.03.04-.03.06-.02.05a.99.99 0 00-.06.22v.22l.01.08z"/>
</svg>
