<svg viewBox="0 0 24 24">
  <path d="M6 16h.12A1 1 0 017 17a3 3 0 002.82 3h4.36a3 3 0 002.81-2.82L17 17v-.12a1 1 0 01.88-.87L18 16h4v4a2 2 0 01-2 2H4a2 2 0 01-2-2v-4h4zM20 2a2 2 0 012 2v10h-4.18A3 3 0 0015 17a1 1 0 01-.88 1H9.88a1 1 0 01-.87-.88L9 17v-.18a3 3 0 00-2.82-2.81L6 14H2V4c0-1.1.9-2 2-2h16zm-8 10a1 1 0 100 2 1 1 0 000-2zm.1-8C11 4 10 4.6 9.5 5.5l-.03.05-.05.1a1 1 0 00.42 1.24l.01.01.1.05a.96.96 0 001.23-.41l.02-.04.08-.1a1 1 0 01.82-.4c.6 0 1 .3 1 .9 0 .3-.1.5-.6.8-.6.4-1.5 1-1.5 2.3v1h2V9.95c.02-.17.15-.28.6-.55.6-.4 1.5-1 1.5-2.4 0-1.7-1.3-3-3-3z"/>
</svg>
