<svg xmlns="http://www.w3.org/2000/svg" viewBox="0 0 24 24">
  <path d="M6 16h.12A1 1 0 017 17a3 3 0 002.82 3h4.36a3 3 0 002.81-2.82L17 17v-.12a1 1 0 01.88-.87L18 16h4v4a2 2 0 01-2 2H4a2 2 0 01-2-2v-4h4zM20 2a2 2 0 012 2v10h-4.18A3 3 0 0015 17a1 1 0 01-.88 1H9.88a1 1 0 01-.87-.88L9 17v-.18a3 3 0 00-2.82-2.81L6 14H2V4c0-1.1.9-2 2-2h16zm-7.78 4.18a.5.5 0 00-.67.23l-.87 1.77-1.96.28a.5.5 0 00-.27.86l1.41 1.38-.33 1.94a.5.5 0 00.72.53l1.75-.92 1.75.92a.5.5 0 00.72-.53l-.33-1.94 1.41-1.38a.5.5 0 00-.27-.86l-1.96-.28-.87-1.77a.5.5 0 00-.23-.23z"/>
</svg>
