<svg viewBox="0 0 24 24">
  <path d="M14.17 4a3 3 0 012.12.88l5 5a3 3 0 010 4.24l-5 5a3 3 0 01-2.12.88H5a3 3 0 01-3-3V7a3 3 0 013-3zm0 2H5a1 1 0 00-1 1v10a1 1 0 001 1h9.17a1 1 0 00.7-.3l5-5a1 1 0 000-1.4l-5-5a1 1 0 00-.7-.3zM6 12.06v-.15l.01-.06a1.1 1.1 0 01.06-.22l.02-.05.03-.06.03-.04.05-.08.02-.03.01-.01.01-.01.05-.06 3-3 .1-.08a1 1 0 011.32 1.5L9.4 11h3.71a1 1 0 01-.12 2H9.41l1.3 1.3.08.09a1 1 0 01-1.5 1.32l-3-3-.07-.08a3.01 3.01 0 01-.1-.15 1.02 1.02 0 01-.03-.06l-.02-.05A.95.95 0 016 12v.06z"/>
</svg>
