<svg xmlns="http://www.w3.org/2000/svg" viewBox="0 0 24 24">
  <path d="M8.66 16.25a1 1 0 01.17 1.31l-.08.1-3.53 4a1 1 0 01-1.4.1l-.1-.1L2.25 20a1 1 0 011.41-1.4l.09.08.72.82 2.78-3.15a1 1 0 011.41-.09zM21 18a1 1 0 01.12 2H13a1 1 0 01-.12-2H21zM8.66 9.25a1 1 0 01.17 1.31l-.08.1-3.53 4a1 1 0 01-1.4.1l-.1-.1L2.25 13a1 1 0 011.41-1.4l.09.08.72.82 2.78-3.15a1 1 0 011.41-.09zM21 11a1 1 0 01.12 2H13a1 1 0 01-.12-2H21zM8.66 2.25a1 1 0 01.17 1.31l-.08.1-3.53 4a1 1 0 01-1.4.1l-.1-.1L2.25 6a1 1 0 011.41-1.4l.09.08.72.82 2.78-3.15a1 1 0 011.41-.09zM21 4a1 1 0 01.12 2H13a1 1 0 01-.12-2H21z"/>
</svg>
