<svg xmlns="http://www.w3.org/2000/svg" viewBox="0 0 24 24">
  <path d="M10 16c2.92 0 5.85.95 6 3.31v1.19c0 .48 0 1.4-.86 1.5H3c-.9 0-.99-.81-1-1.34V19.5c0-2.44 2.85-3.45 5.77-3.5H10zM9 6a4 4 0 110 8 4 4 0 010-8zm9 2a1 1 0 110 2 1 1 0 010-2zm0-6c.55 0 1.16.16 1.64.52.5.38.86.97.86 1.73a2.03 2.03 0 01-1.02 1.81l-.31.2-.27.16a.96.96 0 00-.28.25.75.75 0 01-1.24-.84c.2-.3.47-.5.69-.66l.31-.2c.1-.06.19-.1.27-.16.15-.1.23-.17.27-.24a.54.54 0 00.08-.32.6.6 0 00-.26-.52A1.26 1.26 0 0018 3.5c-.37 0-.6.09-.74.19a1 1 0 00-.34.4.75.75 0 01-1.34-.68c.17-.33.43-.7.85-.97.42-.28.94-.44 1.57-.44z"/>
</svg>
