<svg xmlns="http://www.w3.org/2000/svg" viewBox="0 0 24 24">
  <path d="M10 16c2.92 0 5.85.95 6 3.31v1.19c0 .48 0 1.4-.86 1.5H3c-.9 0-.99-.81-1-1.34V19.5c0-2.44 2.85-3.45 5.77-3.5H10zM9 6a4 4 0 110 8 4 4 0 010-8zm9-4a1 1 0 011 1v3.58l1.3-1.29.09-.08a1 1 0 011.32 1.5l-3 3-.08.07a3.01 3.01 0 01-.15.1l-.06.03-.05.02a.95.95 0 01-.22.06h-.13L18 10h-.09l-.06-.01a1.1 1.1 0 01-.22-.06l-.05-.02a1.04 1.04 0 01-.06-.03l-.04-.03a1.03 1.03 0 01-.08-.05l-.02-.02-.02-.01-.01-.01-.06-.05-3-3-.08-.1a1 1 0 011.5-1.32L17 6.6V2.88A1 1 0 0118 2z"/>
</svg>
