<svg xmlns="http://www.w3.org/2000/svg" viewBox="0 0 24 24">
  <path d="M4.52 2.72c.96-.94 2.7-1 3.7 0 .48.47 1.2 1.36 2.2 2.74l.41.58a2 2 0 01-.07 2.42l-.35.39-1.03 1.04.02.08.11.3c.25.65.88 1.51 1.79 2.43a7.9 7.9 0 002.42 1.78c.35.14.38.14.38.13l1.07-1.05.24-.23.12-.1a2 2 0 012.42-.07 34.25 34.25 0 013.15 2.44l.18.18c.99 1.03.93 2.7 0 3.68-.2.22-.45.47-.72.74l-.43.42c-2.9 2.9-8.86 1.02-13.31-3.44C2.36 12.72.48 6.77 3.36 3.88l.46-.46zM19 10a1 1 0 110 2 1 1 0 010-2zm.1-8c1.7 0 3 1.3 3 3 0 1.4-.9 2-1.5 2.4-.45.27-.58.38-.6.55V9h-2V8c0-1.3.9-1.9 1.5-2.3.5-.3.6-.5.6-.8 0-.6-.4-.9-1-.9a1 1 0 00-.82.4l-.08.1-.02.04a.96.96 0 01-1.22.41l-.11-.05a1 1 0 01-.43-1.24l.05-.11.03-.05C17 2.6 18 2 19.1 2z"/>
</svg>
