<svg viewBox="0 0 24 24">
  <path d="M12 2c2.5 0 4.99.64 7.46 1.91a1 1 0 01.54.89v8.15c0 3.1-1.7 5.94-4.41 7.33l-3.13 1.6a1 1 0 01-.92 0l-3.13-1.6A8.22 8.22 0 014 12.95V4.8a1 1 0 01.54-.89A16.18 16.18 0 0112 2zm0 2c-1.9 0-3.8.43-5.72 1.3L6 5.41v7.53c0 2.27 1.2 4.35 3.11 5.43l.21.12L12 19.88l2.67-1.38A6.22 6.22 0 0018 13.2l.01-.25V5.42l-.28-.13a13.96 13.96 0 00-5.31-1.28zm3.77 7.36l.01.01.02.03.05.08.03.04.03.06.02.05a.99.99 0 01.06.22v.09l.01.04v.09l-.01.08a1.08 1.08 0 01-.06.22l-.02.05a1.02 1.02 0 01-.13.2l-.07.09-3 3a1 1 0 01-1.5-1.32l.08-.1L12.6 13H9a1 1 0 01-.12-2h3.71l-1.3-1.3a1 1 0 011.32-1.49l.1.08 3 3 .06.08v-.01z"/>
</svg>
