<svg xmlns="http://www.w3.org/2000/svg" viewBox="0 0 24 24">
  <path d="M12 2c2.5 0 4.99.64 7.46 1.91a1 1 0 01.54.89v8.15c0 3.1-1.7 5.94-4.41 7.33l-3.13 1.6a1 1 0 01-.92 0l-3.13-1.6A8.22 8.22 0 014 12.95V4.8a1 1 0 01.54-.89A16.18 16.18 0 0112 2zm0 2c-1.9 0-3.8.43-5.72 1.3L6 5.41v7.53c0 2.27 1.2 4.35 3.11 5.43l.21.12L12 19.88l2.67-1.38A6.22 6.22 0 0018 13.2l.01-.25V5.42l-.28-.13a13.96 13.96 0 00-5.31-1.28zm0 11a1 1 0 110 2 1 1 0 010-2zm.1-8c1.7 0 3 1.3 3 3 0 1.4-.9 2-1.5 2.4-.45.27-.58.38-.6.55V14h-2v-1c0-1.3.9-1.9 1.5-2.3.5-.3.6-.5.6-.8 0-.6-.4-.9-1-.9a1 1 0 00-.82.4l-.08.1-.02.04a.96.96 0 01-1.22.41l-.11-.05a1 1 0 01-.43-1.24l.05-.11.03-.05C10 7.6 11 7 12.1 7z"/>
</svg>
