<svg xmlns="http://www.w3.org/2000/svg" viewBox="0 0 24 24">
  <path d="M12 1a11 11 0 018.8 17.6l.06-.08c.03-.05.04-.04.05.02l.04.11a5 5 0 00.34.75 9.8 9.8 0 001.42 1.9 1 1 0 01-.59 1.7 9.26 9.26 0 01-4.91-.58l-.96-.43-.21.08c-1.33.57-2.5.88-3.7.92L12 23a11 11 0 010-22zm0 2a9 9 0 100 18 8.6 8.6 0 003.6-.91c.47-.22.9-.15 1.42.06l.81.36.2.09c.55.22 1.11.37 1.74.44l.16.02-.08-.13c-.82-1.26-1.24-2.57-.73-3.41l.08-.12A9 9 0 0012 3zm-.63 3.22l.05-.03A1.04 1.04 0 0111.9 6h.17l.07.01a1.09 1.09 0 01.22.06l.05.02a1.02 1.02 0 01.2.13l.09.07 3.65 3.66a1 1 0 01-1.32 1.5l-.09-.09L13 9.41V17a1 1 0 01-2 .12V9.4l-1.95 1.95a1 1 0 01-1.5-1.32l.09-.09 3.65-3.66.06-.05.02-.02-.01.02.02-.02z"/>
</svg>
