<svg xmlns="http://www.w3.org/2000/svg" viewBox="0 0 24 24">
  <path d="M9.76 4.63L8.9 7.54a1 1 0 01-.95.72l-3.68.02a2.3 2.3 0 00-1.25 4.21l2.37 1.56a1 1 0 01.41 1.1l-.91 3.34a2.52 2.52 0 004.04 2.6l2.43-2.03a1 1 0 011.28 0l2.43 2.02a2.52 2.52 0 004.04-2.6l-.91-3.34a1 1 0 01.41-1.1l2.37-1.55a2.3 2.3 0 00-1.25-4.21l-3.68-.02a1 1 0 01-.95-.72l-.86-2.9a2.34 2.34 0 00-4.48 0zm2.34.34c.1.04.19.12.22.23l.86 2.9a3 3 0 002.86 2.16l3.68.02a.3.3 0 01.16.54l-2.36 1.55a3 3 0 00-1.25 3.3l.91 3.34a.52.52 0 01-.83.54l-2.43-2.03a3 3 0 00-3.84 0l-2.43 2.03a.52.52 0 01-.83-.54l.91-3.34a3 3 0 00-1.25-3.3l-2.36-1.55a.3.3 0 01.16-.54l3.68-.02a3 3 0 002.86-2.15l.86-2.9c.04-.16.2-.26.35-.25l.07.01z"/>
</svg>
