<svg xmlns="http://www.w3.org/2000/svg" viewBox="0 0 24 24">
  <path d="M13 2a1 1 0 01.7.3l7.6 7.58a3 3 0 010 4.24l-7.18 7.17a3 3 0 01-4.24 0l-7.59-7.58A1 1 0 012 13V5a3 3 0 013-3zm-.41 2H5a1 1 0 00-1 1v7.59l7.3 7.29a1 1 0 001.31.08l.1-.08 7.17-7.17a1 1 0 000-1.42L12.58 4zM12 8a1 1 0 011 1v3.59l1.3-1.3.09-.08a1 1 0 011.32 1.5l-3 3-.08.07a3 3 0 01-.15.1l-.06.03-.05.02a.95.95 0 01-.22.06h-.13L12 16h-.09l-.06-.01a1.1 1.1 0 01-.22-.06l-.05-.02a1.04 1.04 0 01-.06-.03l-.04-.03a1.03 1.03 0 01-.08-.05l-.02-.02-.02-.01-.01-.01-.06-.05-3-3-.08-.1a1 1 0 011.5-1.32L11 12.6V8.88A1 1 0 0112 8z"/>
</svg>
