<svg xmlns="http://www.w3.org/2000/svg" viewBox="0 0 24 24">
  <path d="M13 2a1 1 0 01.7.3l7.6 7.58a3 3 0 010 4.24l-7.18 7.17a3 3 0 01-4.24 0l-7.59-7.58A1 1 0 012 13V5a3 3 0 013-3zm-.41 2H5a1 1 0 00-1 1v7.59l7.3 7.29a1 1 0 001.31.08l.1-.08 7.17-7.17a1 1 0 000-1.42L12.58 4zm3.18 7.36l.01.01.02.03.05.08.03.04.03.06.02.05a.99.99 0 01.06.22v.09l.01.04v.09-.01.02l-.01.07a1.08 1.08 0 01-.06.22l-.02.05a1.02 1.02 0 01-.13.2l-.07.09-3 3a1 1 0 01-1.5-1.32l.08-.1L12.6 13H9a1 1 0 01-.12-2h3.71l-1.3-1.3a1 1 0 011.32-1.49l.1.08 3 3 .06.08v-.01z"/>
</svg>
