<svg xmlns="http://www.w3.org/2000/svg" viewBox="0 0 24 24">
  <path d="M20 4a3 3 0 013 3v3a1 1 0 01-1 1h-1a1 1 0 00-1 .89V12c0 .52.4.96.89 1H22a1 1 0 011 1v3a3 3 0 01-3 3H4a3 3 0 01-3-3v-3a1 1 0 011-1h1a1 1 0 001-.89V12a1 1 0 00-.89-1H2a1 1 0 01-1-1V7a3 3 0 013-3zm0 2H4a1 1 0 00-1 1v2h.22A3 3 0 016 12.05v.18A3 3 0 013 15v2a1 1 0 00.88 1H20a1 1 0 001-1v-2h-.22A3 3 0 0118 11.95v-.18A3 3 0 0121 9V7a1 1 0 00-1-1zm-8 2h.08l.07.01a1.08 1.08 0 01.22.06l.05.02a1.02 1.02 0 01.2.13l.09.07 3 3a1 1 0 01-1.32 1.5l-.1-.08L13 11.4V15a1 1 0 01-2 .12V11.4l-1.3 1.3a1 1 0 01-1.49-1.32l.08-.1 3-3 .08-.07h.01l.02-.02.08-.05.04-.03.06-.03.05-.02a.99.99 0 01.22-.06h.09l.04-.01H12z"/>
</svg>
