<svg xmlns="http://www.w3.org/2000/svg" viewBox="0 0 24 24">
  <path d="M16 12v.06a1 1 0 010 .03V12a1 1 0 01-.22.63l-.07.08-3 3a1 1 0 01-1.5-1.32l.08-.1L12.6 13H9a1 1 0 01-.12-2h3.71l-1.3-1.3a1 1 0 011.32-1.49l.1.08 3 3 .07.08v.01l-.07-.09a1 1 0 01.29.65V12z"/>
  <path d="M20 4H4a3 3 0 00-3 3v3a1 1 0 001 1h1.11A1 1 0 014 12v.11A1 1 0 013 13H2a1 1 0 00-1 1v3a3 3 0 003 3h16a3 3 0 003-3v-3a1 1 0 00-1-1h-1.11a1 1 0 01-.89-1v-.11a1 1 0 011-.89h1a1 1 0 001-1V7a3 3 0 00-3-3zM4 6h16a1 1 0 011 1v2a3 3 0 00-3 2.78v.18A3 3 0 0020.78 15H21v2a1 1 0 01-1 1H3.88A1 1 0 013 17v-2a3 3 0 003-2.78v-.18A3 3 0 003.22 9H3V7a1 1 0 011-1z"/>
</svg>
