<svg xmlns="http://www.w3.org/2000/svg" viewBox="0 0 24 24">
  <path d="M20 4a3 3 0 013 3v3a1 1 0 01-1 1h-1a1 1 0 00-1 .89V12c0 .52.4.96.89 1H22a1 1 0 011 1v3a3 3 0 01-3 3H4a3 3 0 01-3-3v-3a1 1 0 011-1h1a1 1 0 001-.89V12a1 1 0 00-.89-1H2a1 1 0 01-1-1V7a3 3 0 013-3zm0 2H4a1 1 0 00-1 1v2h.22A3 3 0 016 12.05v.18A3 3 0 013 15v2a1 1 0 00.88 1H20a1 1 0 001-1v-2h-.22A3 3 0 0118 11.95v-.18A3 3 0 0121 9V7a1 1 0 00-1-1zm-8.39 2.21l.1.08 3 3a1 1 0 01.08 1.32l-.08.1-3 3a1 1 0 01-1.5-1.32l.08-.1L12.6 12l-2.3-2.3a1 1 0 01-.08-1.31l.08-.1a1 1 0 011.32-.08z"/>
</svg>
