<svg xmlns="http://www.w3.org/2000/svg" viewBox="0 0 24 24">
  <path d="M16 1a1 1 0 011 .88V3h1a4 4 0 014 3.8V19a4 4 0 01-3.8 4H6a4 4 0 01-4-3.8V7a4 4 0 013.8-4H7V2a1 1 0 012-.12V3h6V2a1 1 0 011-1zm4 10H4v8a2 2 0 001.85 2H18a2 2 0 002-1.85V11zm-8 1h.08l.07.01a1.08 1.08 0 01.22.06l.05.02a1.02 1.02 0 01.2.13l.09.07 3 3a1 1 0 01-1.32 1.5l-.1-.08L13 15.4V19a1 1 0 01-2 .12V15.4l-1.3 1.3a1 1 0 01-1.49-1.32l.08-.1 3-3 .08-.07h.01l.02-.02.08-.05.04-.03.06-.03.05-.02a.99.99 0 01.22-.06h.09l.04-.01H12zM7 5H6a2 2 0 00-2 1.85V9h16V7a2 2 0 00-1.85-2H17v1a1 1 0 01-2 .12V5H9v1a1 1 0 01-2 .12V5z"/>
</svg>
