<svg xmlns="http://www.w3.org/2000/svg" viewBox="0 0 24 24">
  <path d="M22 10v10a3 3 0 01-3 3H5a3 3 0 01-3-3V10h20zm-10 2h-.09l-.06.01a1.1 1.1 0 00-.22.06l-.05.02-.06.03-.04.03-.08.05-.02.02h-.01l-.08.07-3 3-.08.1a1 1 0 001.5 1.32L11 15.4v3.71a1 1 0 002-.12V15.4l1.3 1.3.09.08a1 1 0 001.32-1.5l-3-3-.08-.07a3 3 0 00-.15-.1 1.02 1.02 0 00-.06-.03l-.05-.02a.95.95 0 00-.22-.06H12zM7 3v1.12a1 1 0 002 0V3h6v1.12a1 1 0 002 0V3h2a3 3 0 013 3v2H2V6a3 3 0 013-3h2zm9-2a1 1 0 011 .88V3h-2V2a1 1 0 011-1zM8 1a1 1 0 011 .88V3H7V2a1 1 0 011-1z"/>
</svg>
