<svg xmlns="http://www.w3.org/2000/svg" width="24" height="24" viewBox="0 0 24 24">
  <path d="M16.3173342,1 C17.0224657,1 17.6754933,1.37131518 18.0360686,1.97728201 L23.3914405,10.977282 C23.7664613,11.6075253 23.7664613,12.3924747 23.3914405,13.022718 L18.0360686,22.022718 C17.6754933,22.6286848 17.0224657,23 16.3173342,23 L7.68266576,23 C6.97753431,23 6.32450667,22.6286848 5.96393136,22.022718 L0.608559463,13.022718 C0.233538656,12.3924747 0.233538656,11.6075253 0.608559463,10.977282 L5.96393136,1.97728201 C6.32450667,1.37131518 6.97753431,1 7.68266576,1 L16.3173342,1 Z M14.7071068,7.29289322 C14.3165825,6.90236893 13.6834175,6.90236893 13.2928932,7.29289322 L13.2928932,7.29289322 L9.29289322,11.2928932 L9.20970461,11.3871006 C8.90467972,11.7793918 8.93240926,12.3466228 9.29289322,12.7071068 L9.29289322,12.7071068 L13.2928932,16.7071068 L13.3871006,16.7902954 C13.7793918,17.0953203 14.3466228,17.0675907 14.7071068,16.7071068 L14.7071068,16.7071068 L14.7902954,16.6128994 C15.0953203,16.2206082 15.0675907,15.6533772 14.7071068,15.2928932 L14.7071068,15.2928932 L11.415,12 L14.7071068,8.70710678 L14.7902954,8.61289944 C15.0953203,8.22060824 15.0675907,7.65337718 14.7071068,7.29289322 Z"/>
</svg>
