<svg xmlns="http://www.w3.org/2000/svg" width="24" height="24" viewBox="0 0 24 24">
  <path d="M10.5782531,6.34900703 L5.45721295,14.4752835 C5.15870849,14.9489626 5,15.5002034 5,16.0633171 C5,17.6852023 6.28887575,19 7.87878456,19 L18.1208648,19 C18.6728764,19 19.2132491,18.8380996 19.6775894,18.5335915 C21.0149865,17.6565448 21.4021917,15.8395784 20.5424364,14.4752835 L15.4213963,6.34900703 C15.1983884,5.99512896 14.9034505,5.6942592 14.5565493,5.46676615 C13.2191522,4.58971943 11.4380083,4.98471212 10.5782531,6.34900703 Z M13.5187329,7.11361579 C13.6343666,7.18944681 13.7326792,7.28973672 13.8070152,7.40769608 L18.9280553,15.5339726 C19.2146404,15.9887375 19.085572,16.594393 18.639773,16.8867419 C18.4849929,16.9882446 18.3048687,17.0422114 18.1208648,17.0422114 L7.87878456,17.0422114 C7.34881496,17.0422114 6.91918971,16.6039455 6.91918971,16.0633171 C6.91918971,15.8756125 6.97209254,15.6918656 7.07159403,15.5339726 L12.1926341,7.40769608 C12.4587489,6.98541432 12.9896845,6.84172453 13.4211063,7.05742282 L13.5187329,7.11361579 Z" transform="rotate(90 13 12)"/>
</svg>
